<?xml version="1.0" encoding="iso-8859-1"?>
<!-- Generator: Adobe Illustrator 23.0.3, SVG Export Plug-In . SVG Version: 6.00 Build 0)  -->
<svg version="1.1" id="Layer_1" xmlns="http://www.w3.org/2000/svg" xmlns:xlink="http://www.w3.org/1999/xlink" x="0px" y="0px"
	 viewBox="0 0 250 250" style="enable-background:new 0 0 250 250;" xml:space="preserve">
<g>
	<g>
		<path style="fill:none;" d="M123,251c-40.667,0-81.333,0-122,0C1,167.667,1,84.333,1,1c82,0,164,0.027,246-0.096
			c3.424-0.005,4.101,0.672,4.096,4.096c-0.124,80.666-0.124,161.333,0,242c0.005,3.424-0.67,4.112-4.096,4.099
			C206.667,250.945,166.333,251,126,251c0.413-1.771,2.01-2.528,3.191-3.596c23.249-21.032,46.274-42.321,69.957-62.854
			c6.604-5.726,7.95-11.873,7.031-19.563c0.222-2.13,0.592-4.257,0.64-6.391c0.194-8.691,0.156-8.685-8.235-10.594
			c-10.645-2.421-21.277-4.903-31.937-7.257c-4.005-0.884-6.817-5.362-11.603-3.786c-0.017-8.646-0.033-17.292-0.05-25.938
			c-0.021-1.971-0.042-3.942-0.063-5.913c6.186-5.389,6.511-12.573,6.12-19.977c7.428-3.57,10.259-10.008,10.533-17.708
			c0.193-5.419-1.979-7.179-7.62-7.139c0.526-9.447,0.956-18.901,1.599-28.341c1.066-15.653,0.998-15.342-13.672-21.358
			c-15.018-6.159-30.043-7.813-45.622-2.624c-6.597,2.197-13.215,4.388-19.943,6.113c-3.88,0.995-4.722,2.913-4.388,6.643
			c1.202,13.397,2.098,26.821,3.109,40.235c-4.942-1.287-7.313-0.056-8.069,4.188c-1.357,7.613,2.947,16.141,10.018,19.855
			c0.271,7.485-0.054,15.141,6.004,20.969c0.053,1.964,0.106,3.927,0.16,5.891c-0.061,8.69-0.121,17.38-0.181,26.07
			c-2.38,0.26-5.05-1.294-7.084,1.132c-0.962,0.693-1.923,1.385-2.885,2.078c-9.773,2.285-19.55,4.554-29.319,6.861
			c-7.882,1.861-7.877,1.881-6.873,10.089c-0.855,5.79-0.031,11.623-0.44,17.414c-0.21,2.977,0.962,4.919,3.067,6.85
			c11.999,11.005,23.924,22.092,35.821,33.208C97.873,227.338,110.424,239.183,123,251z"/>
		<path style="fill:#038BCF;" d="M123,251c-12.576-11.817-25.127-23.662-37.737-35.443c-11.897-11.116-23.822-22.203-35.821-33.208
			c-2.105-1.931-3.277-3.873-3.067-6.85c0.408-5.791-0.415-11.624,0.439-17.413c15.394-0.373,30.789-0.746,46.183-1.119
			c2.083,0.084,3.663,1.241,5.352,2.311c8.617,5.459,16.52,12.015,25.646,16.688l-0.065,0.422c0.014,3.748,0.029,7.496,0.043,11.244
			c-7.467,0.068-14.934,0.166-22.401,0.184c-1.87,0.005-3.581,0.12-5.061,1.502c-2.909,2.716-5.872,5.378-8.887,7.977
			c-1.362,1.174-1.824,2.107-0.35,3.617c12.388,12.688,23.923,26.19,36.698,38.51c0.009,3.86,0.017,7.719,0.026,11.579
			C123.667,251,123.333,251,123,251z"/>
		<path style="fill:#096DB6;" d="M124,251c-0.009-3.86-0.017-7.719-0.026-11.579c0.363-0.425,0.725-0.85,1.088-1.275
			c10.013-9.951,20.036-19.892,30.037-29.855c8.025-7.995,8.063-8.058,0.037-15.903c-1.922-1.878-3.263-4.656-6.718-4.572
			c-7.806,0.19-15.617,0.185-23.426,0.259c-0.339-0.148-0.678-0.295-1.016-0.443c-0.014-3.748-0.029-7.496-0.043-11.244
			c6.925-4.609,14.054-8.946,20.7-13.928c4.072-3.052,8.209-3.767,13.006-3.312c16.231,1.536,32.46,3.064,48.541,5.84
			c0.919,7.69-0.426,13.837-7.031,19.563c-23.682,20.532-46.708,41.822-69.957,62.854c-1.181,1.068-2.778,1.825-3.191,3.596
			C125.333,251,124.667,251,124,251z"/>
		<path style="fill:#272223;" d="M85.046,60.952c-1.011-13.414-1.907-26.838-3.109-40.234c-0.335-3.731,0.508-5.649,4.388-6.643
			c6.728-1.725,13.346-3.916,19.943-6.113c15.58-5.188,30.604-3.535,45.622,2.624c14.67,6.016,14.739,5.705,13.672,21.358
			c-0.643,9.439-1.073,18.893-1.6,28.339c-1.732,5.117,0.012,10.89-2.973,15.773c-1.708-1.394-1.093-3.322-1.084-5.059
			c0.032-6.102-0.341-12.262,0.381-18.288c0.686-5.731-1.14-9.506-6.068-12.072c0.6-3.798,2.156-7.494,1.545-11.656
			c-9.653,2.793-19.174,3.973-28.844,4.022c-8.254,0.042-12.199,5.683-9.635,13.813c-0.24,0.112-0.407,0.292-0.5,0.54
			c-5.731-2.167-9.096-5.942-8.014-12.417c0.37-2.214-0.758-2.568-2.386-2.701c-1.644-0.134-3.295-0.184-4.94-0.309
			c-9.535-0.725-9.534-0.729-7.387,9.083c-0.327,1.859-1.813,2.892-3.215,3.601c-3.781,1.913-4.267,4.967-3.855,8.718
			c0.654,5.948,1.076,11.921,1.566,17.886c0.145,1.763,0.803,3.735-1.53,4.711C86.363,70.935,85.704,65.944,85.046,60.952z"/>
		<path style="fill:#C9202D;" d="M206.178,164.987c-16.081-2.776-32.31-4.304-48.541-5.84c-4.798-0.454-8.934,0.26-13.006,3.312
			c-6.645,4.982-13.775,9.319-20.7,13.928c0,0,0.065-0.422,0.066-0.422c0.044-2.498,0.088-4.997,0.132-7.495l-0.094-0.424
			c8.715-5.104,15.913-12.318,24.382-17.704c5.219-3.319,7.741-7.27,6.626-13.383c4.786-1.575,7.598,2.902,11.603,3.786
			c10.66,2.354,21.292,4.836,31.937,7.257c8.391,1.908,8.429,1.902,8.235,10.594C206.77,160.73,206.4,162.857,206.178,164.987z"/>
		<path style="fill:#F7BE9B;" d="M92.975,137.926c0.06-8.69,0.121-17.38,0.181-26.07c6.45,4.904,11.965,10.822,17.631,16.55
			c3.728,3.769,7.983,5.652,13.189,5.644c0.019,11.332,0.039,22.664,0.058,33.997c0,0,0.094,0.424,0.094,0.423
			c-10.818-7.309-20.939-15.545-31.278-23.49C92.892,142.629,92.934,140.277,92.975,137.926z"/>
		<path style="fill:#F59D75;" d="M124.034,168.047c-0.019-11.332-0.039-22.664-0.058-33.997c6.779,0.451,12.188-1.832,16.6-7.227
			c4.507-5.511,9.587-10.553,14.416-15.801c0.016,8.646,0.033,17.292,0.05,25.938c1.115,6.113-1.407,10.063-6.626,13.383
			C139.948,155.729,132.749,162.942,124.034,168.047z"/>
		<path style="fill:#F59D75;" d="M87.022,75.927c2.334-0.976,1.675-2.948,1.53-4.711c-0.49-5.965-0.912-11.939-1.566-17.886
			c-0.412-3.75,0.074-6.804,3.855-8.718c1.402-0.709,2.888-1.742,3.215-3.601c1.917,5.283,1.964,10.895,2.869,16.356
			c-1.308,0.5-3.804-1.321-3.837,1.429c-0.025,2.13,2.379,0.91,3.557,1.533c0.433,0.229,0.894,0.406,1.342,0.606
			c0.031,1.068,0.061,2.135,0.092,3.203c-1.344,1.056-3.693-0.013-4.695,2.272c1.257,0.862,2.458,1.686,3.659,2.509
			c0.143,3.331,3.697,4.988,3.976,8.315c1.033,12.321,1.929,24.645,1.774,37.021c-4.026-1.865-5.991-6.165-9.797-8.291
			c-6.058-5.828-5.732-13.484-6.004-20.969C87.003,81.973,87.013,78.95,87.022,75.927z"/>
		<path style="fill:#F59D75;" d="M154.219,40.636c4.928,2.567,6.755,6.342,6.068,12.073c-0.722,6.026-0.349,12.186-0.381,18.288
			c-0.009,1.738-0.624,3.665,1.084,5.059c0.02,3.025,0.04,6.05,0.06,9.076c0.391,7.404,0.066,14.588-6.12,19.976
			c-2.884,3.071-5.472,6.436-8.885,8.985c0.66-15.51-1.863-31.356,4.87-46.226c2.924-2.048,1.976-3.19-0.908-3.878
			c-0.012-1.158-0.025-2.317-0.037-3.475c1.144-1.036,3.704,0.495,3.936-1.849c0.197-1.997-1.742-1.33-2.875-1.585
			C152.093,51.598,153.156,46.117,154.219,40.636z"/>
		<path style="fill:#F0202C;" d="M92.998,156.967c-15.394,0.373-30.789,0.746-46.183,1.119c-1.004-8.208-1.008-8.228,6.873-10.089
			c9.768-2.306,19.545-4.575,29.319-6.861c-3.778,5.767,0.4,8.095,4.469,10.626C89.63,153.101,92.093,154.245,92.998,156.967z"/>
		<path style="fill:#E7242A;" d="M92.998,156.967c-0.905-2.721-3.368-3.865-5.523-5.206c-4.068-2.53-8.247-4.859-4.469-10.626
			c0.962-0.693,1.923-1.385,2.886-2.079c1.619,2.797,4.495,4.117,6.957,5.924c10.339,7.945,20.46,16.181,31.278,23.49
			c-0.044,2.499-0.088,4.997-0.132,7.495c-9.126-4.673-17.03-11.229-25.647-16.688C96.661,158.207,95.081,157.05,92.998,156.967z"/>
		<path style="fill:#B9573F;" d="M146.044,114.093c3.413-2.549,6.001-5.913,8.885-8.985c0.021,1.971,0.042,3.942,0.063,5.914
			c-4.829,5.248-9.909,10.29-14.416,15.801c-4.412,5.395-9.821,7.678-16.6,7.227c-5.206,0.008-9.461-1.875-13.189-5.644
			c-5.666-5.728-11.181-11.646-17.631-16.55c-0.053-1.964-0.106-3.927-0.16-5.891c3.806,2.125,5.771,6.426,9.798,8.289
			c2.671,2.705,5.285,5.47,8.022,8.107c8.796,8.474,20.474,8.217,28.868-0.682C141.945,119.282,143.932,116.628,146.044,114.093z"/>
		<path style="fill:#D7765A;" d="M87.022,75.927c-0.01,3.023-0.019,6.046-0.029,9.069c-7.071-3.713-11.374-12.242-10.018-19.855
			c0.756-4.244,3.128-5.475,8.069-4.188C85.704,65.944,86.363,70.935,87.022,75.927z"/>
		<path style="fill:#D7765A;" d="M161.05,85.132c-0.02-3.025-0.04-6.05-0.06-9.076c2.985-4.883,1.24-10.656,2.973-15.773
			c5.641-0.038,7.814,1.721,7.621,7.141C171.308,75.124,168.478,81.562,161.05,85.132z"/>
		<path style="fill:#C9202D;" d="M92.85,144.98c-2.463-1.806-5.339-3.127-6.957-5.924c2.033-2.425,4.703-0.87,7.083-1.13
			C92.934,140.277,92.892,142.629,92.85,144.98z"/>
		<path style="fill:#E92025;" d="M123.974,187.631c0.339,0.148,0.678,0.295,1.016,0.443c0.001,1.916,0.002,3.833,0.004,5.749
			c-3.434,0.237-6.908,0.271-9.984,2.179c-1.442,0.895-2.839,1.931-2.771,3.768c0.078,2.13,1.766,3.164,3.558,3.565
			c3.027,0.677,6.125,1.04,9.193,1.535c-0.001,3.088-0.002,6.175-0.003,9.263c-5.869,1.683-11.711-0.785-18.178-0.208
			c1.963,2.292,3.101,4.713,6.529,3.032c1.328-0.651,3.416-0.692,4.231,0.5c1.881,2.752,4.894,2.49,7.422,3.503
			c-0.002,1.39-0.003,2.78-0.005,4.17c-2.342-0.027-4.684-0.054-7.025-0.082c-0.109-0.157-0.218-0.313-0.326-0.47
			c0.017,0.083,0.006,0.201,0.057,0.241c0.097,0.076,0.229,0.108,0.347,0.158c1.722,2.739,3.768,5.113,6.958,6.205
			c0.021,2.322,0.042,4.643,0.063,6.965c-0.363,0.425-0.725,0.85-1.088,1.275c-12.776-12.32-24.311-25.822-36.698-38.51
			c-1.474-1.51-1.011-2.443,0.35-3.617c3.014-2.599,5.978-5.26,8.887-7.977c1.48-1.382,3.192-1.498,5.061-1.502
			C109.04,187.797,116.507,187.7,123.974,187.631z M97.968,204.665c-0.149-5.035,2.267-7.68,5.178-10.678
			c-4.789-0.02-6.515,3.433-8.439,5.893C93.341,201.627,96.154,202.529,97.968,204.665z"/>
		<path style="fill:#D52227;" d="M124.988,214.132c0.001-3.088,0.002-6.175,0.003-9.262c3.131-0.3,6.259-0.64,9.393-0.891
			c3.655-0.293,7.544-0.79,10.317,2.177c1.922,2.056,3.044,1.905,4.585-0.141c0.791-1.05,1.762-2.013,2.805-2.816
			c4.284-3.293,2.198-5.121-1.388-6.915c-1,4.611-7.556,7.032-10.537,3.803c-4.195-4.543-9.532-5.602-15.172-6.264
			c-0.001-1.916-0.002-3.833-0.004-5.749c7.809-0.074,15.62-0.069,23.426-0.259c3.455-0.084,4.797,2.694,6.718,4.572
			c8.026,7.845,7.989,7.908-0.037,15.903c-10.001,9.963-20.024,19.904-30.037,29.855c-0.021-2.322-0.042-4.643-0.063-6.965
			c1.338-2.074,3.969-3.191,4.775-6.051c-1.847,0-3.317,0-4.786,0c0.002-1.39,0.003-2.78,0.005-4.17
			c2.79-0.211,5.624,0.197,8.363-0.761c1.243-0.435,2.904-0.55,3.029-2.076c0.157-1.934-1.752-2.277-3.106-2.587
			C130.55,214.912,127.755,214.583,124.988,214.132z"/>
		<path style="fill:#F5BE9A;" d="M146.044,114.093c-2.112,2.536-4.099,5.19-6.359,7.586c-8.394,8.899-20.072,9.156-28.868,0.682
			c-2.737-2.637-5.351-5.402-8.022-8.107c0.154-12.375-0.743-24.699-1.775-37.02c-0.279-3.327-3.833-4.984-3.976-8.314
			c1.545-0.02,3.09-0.04,4.633-0.061c-0.002-0.001,0.167,0.068,0.167,0.068c0.718,0.79,1.699,1.104,2.659,0.945
			c2.699-0.447,7.239,1.615,7.635-1.592c0.326-2.639-4.419-2.659-7.212-3.132c-1.283-0.049-2.567-0.098-3.85-0.146
			c-0.823-0.898-1.927-0.82-2.996-0.864c-0.031-1.068-0.061-2.135-0.091-3.203c4.26,0.471,8.516,0.983,12.782,1.386
			c1.235,0.117,3.124,1.567,3.417-1.074c0.248-2.231-1.529-2.079-3.011-2.242c-4.753-0.523-9.501-1.088-14.251-1.637
			c-0.905-5.461-0.952-11.073-2.869-16.356c-2.147-9.812-2.148-9.808,7.387-9.083c1.645,0.125,3.296,0.175,4.94,0.309
			c1.628,0.133,2.756,0.487,2.386,2.701c-1.081,6.475,2.283,10.25,8.015,12.416c0.323,0.11,0.645,0.222,0.967,0.334
			c-0.156-0.291-0.312-0.582-0.468-0.872c-2.563-8.13,1.382-13.771,9.635-13.813c9.67-0.049,19.192-1.228,28.844-4.022
			c0.611,4.162-0.945,7.858-1.545,11.656c-1.063,5.481-2.126,10.962-3.189,16.443c-5.243,0.674-10.482,1.375-15.73,2.004
			c-1.475,0.177-2.665,0.561-2.541,2.319c0.167,2.366,1.853,1.277,2.966,1.131c4.754-0.624,9.497-1.339,14.244-2.021
			c0.012,1.158,0.025,2.317,0.037,3.475c-1.75,0.135-3.501,0.269-5.252,0.402c-1.169,0.215-2.337,0.432-3.505,0.649
			c-2.903-0.091-5.539,0.597-7.614,2.746c-0.105,0.108,0.267,1.006,0.587,1.143c2.828,1.217,5.673,1.618,8.445-0.201
			c0.531,0.019,1.062,0.039,1.592,0.058c2.337,0.551,4.394-0.923,6.655-0.919C144.181,82.737,146.704,98.582,146.044,114.093z
			 M124.05,92.957c5.884,0.03,7.793-1.992,7.019-7.572c-0.589-4.241-1.373-8.456-1.908-12.702c-0.333-2.648-2.003-4.489-3.476-6.441
			c-0.93-1.232-1.604-0.679-1.827,0.646c-2.376,0.965-3.486,2.926-3.826,5.288c-0.607,4.225-1.978,8.275-2.27,12.606
			C117.428,89.725,118.797,92.002,124.05,92.957z M114.944,99.455c6.262,2.182,12.52,3.626,19.86,0.526
			C127.537,100.352,121.234,99.656,114.944,99.455z M111.635,98.369c0.029,0.122,0.019,0.302,0.096,0.354
			c0.116,0.079,0.292,0.07,0.442,0.098c-0.043-0.204-0.086-0.408-0.129-0.612C111.908,98.263,111.771,98.316,111.635,98.369z"/>
		<path style="fill:#3A302D;" d="M96.925,57.367c4.75,0.549,9.498,1.114,14.251,1.637c1.482,0.163,3.259,0.012,3.011,2.242
			c-0.293,2.641-2.183,1.191-3.417,1.074c-4.266-0.403-8.522-0.915-12.782-1.386c-0.448-0.201-0.909-0.377-1.342-0.606
			c-1.178-0.623-3.582,0.598-3.557-1.533C93.121,56.046,95.617,57.866,96.925,57.367z"/>
		<path style="fill:#FEFEFE;" d="M98.079,64.138c1.069,0.044,2.173-0.034,2.996,0.865c-0.574,1.408-0.349,2.689,0.604,3.857
			c-1.545,0.02-3.091,0.041-4.635,0.06c-1.201-0.824-2.402-1.648-3.659-2.51C94.386,64.124,96.735,65.194,98.079,64.138z"/>
		<path style="fill:#3A302D;" d="M149.968,60.513c-4.747,0.682-9.489,1.397-14.244,2.021c-1.114,0.146-2.799,1.236-2.966-1.131
			c-0.124-1.758,1.066-2.143,2.541-2.319c5.248-0.629,10.487-1.33,15.73-2.004c1.133,0.255,3.072-0.413,2.875,1.585
			C153.673,61.007,151.112,59.476,149.968,60.513z"/>
		<path style="fill:#FEFEFE;" d="M150.914,67.866c-2.261-0.004-4.319,1.47-6.652,0.919c1.389-1.328,2.169-2.724,0.493-4.393
			c1.75-0.135,3.501-0.269,5.251-0.404C152.889,64.676,153.838,65.818,150.914,67.866z"/>
		<path style="fill:#FCE402;" d="M124.994,193.823c5.64,0.663,10.978,1.721,15.172,6.264c2.981,3.229,9.537,0.808,10.537-3.803
			c3.586,1.794,5.672,3.622,1.388,6.915c-1.044,0.802-2.014,1.766-2.805,2.816c-1.541,2.045-2.663,2.197-4.585,0.141
			c-2.773-2.967-6.662-2.47-10.317-2.177c-3.135,0.251-6.262,0.591-9.393,0.891c-3.068-0.495-6.166-0.858-9.193-1.535
			c-1.792-0.401-3.48-1.435-3.558-3.565c-0.068-1.837,1.329-2.873,2.771-3.768C118.086,194.094,121.56,194.06,124.994,193.823z"/>
		<path style="fill:#FCE402;" d="M124.988,214.132c2.767,0.451,5.562,0.78,8.289,1.404c1.354,0.31,3.264,0.653,3.106,2.587
			c-0.124,1.526-1.786,1.642-3.029,2.076c-2.739,0.958-5.573,0.55-8.363,0.761c-2.528-1.013-5.542-0.751-7.422-3.503
			c-0.815-1.192-2.903-1.151-4.231-0.5c-3.429,1.681-4.566-0.74-6.529-3.032C113.277,213.347,119.119,215.815,124.988,214.132z"/>
		<path style="fill:#FCE402;" d="M124.987,225.13c1.47,0,2.939,0,4.786,0c-0.806,2.86-3.437,3.977-4.775,6.051
			c-3.19-1.092-5.237-3.466-6.958-6.204l-0.078,0.071C120.304,225.075,122.646,225.102,124.987,225.13z"/>
		<path style="fill:#FCE402;" d="M97.968,204.665c-1.814-2.135-4.627-3.038-3.261-4.784c1.923-2.46,3.65-5.914,8.439-5.893
			C100.234,196.985,97.819,199.63,97.968,204.665z"/>
		<path style="fill:#FCE402;" d="M118.04,224.977c-0.118-0.05-0.25-0.081-0.347-0.158c-0.051-0.04-0.04-0.158-0.057-0.241
			c0.109,0.157,0.218,0.313,0.326,0.47C117.962,225.048,118.04,224.977,118.04,224.977z"/>
		<path style="fill:#D7765A;" d="M123.857,66.887c0.223-1.325,0.897-1.878,1.827-0.646c1.473,1.953,3.142,3.794,3.476,6.441
			c0.535,4.247,1.319,8.462,1.908,12.702c0.775,5.58-1.135,7.602-7.019,7.572C123.985,84.268,123.921,75.577,123.857,66.887z"/>
		<path style="fill:#F59D75;" d="M123.857,66.887c0.064,8.69,0.128,17.381,0.192,26.071c-5.252-0.956-6.621-3.232-6.288-8.178
			c0.292-4.331,1.663-8.38,2.27-12.606C120.371,69.812,121.481,67.852,123.857,66.887z"/>
		<path style="fill:#FEFEFE;" d="M104.925,65.148c2.793,0.473,7.539,0.493,7.212,3.132c-0.397,3.207-4.936,1.145-7.635,1.592
			c-0.96,0.159-1.941-0.155-2.657-0.944C104.725,69.177,105.257,67.514,104.925,65.148z"/>
		<path style="fill:#D7765A;" d="M114.944,99.455c6.29,0.201,12.593,0.897,19.86,0.526
			C127.464,103.081,121.205,101.637,114.944,99.455z"/>
		<path style="fill:#FEFEFE;" d="M142.666,68.727c-2.771,1.819-5.617,1.418-8.445,0.201c-0.319-0.137-0.691-1.035-0.587-1.143
			c2.075-2.149,4.711-2.837,7.614-2.745C140.808,66.62,141.546,67.747,142.666,68.727z"/>
		<path style="fill:#038BCF;" d="M142.666,68.727c-1.12-0.98-1.858-2.107-1.418-3.688c1.168-0.217,2.336-0.434,3.505-0.65
			c1.677,1.671,0.898,3.067-0.492,4.395C143.727,68.766,143.197,68.746,142.666,68.727z"/>
		<path style="fill:#038BCF;" d="M104.925,65.148c0.332,2.366-0.2,4.029-3.08,3.78c-0.002-0.001-0.17-0.07-0.168-0.069
			c-0.952-1.167-1.176-2.449-0.602-3.856C102.359,65.051,103.642,65.1,104.925,65.148z"/>
		<path style="fill:#F59D75;" d="M111.635,98.369c0.137-0.053,0.273-0.107,0.41-0.16c0.043,0.204,0.086,0.408,0.129,0.612
			c-0.15-0.028-0.327-0.019-0.442-0.098C111.654,98.671,111.664,98.492,111.635,98.369z"/>
		<path style="fill:#3A302D;" d="M117.284,46.815c0.156,0.291,0.312,0.582,0.468,0.872c-0.322-0.112-0.644-0.224-0.967-0.334
			C116.877,47.107,117.044,46.927,117.284,46.815z"/>
	</g>
</g>
</svg>
