<?xml version="1.0" encoding="iso-8859-1"?>
<!-- Generator: Adobe Illustrator 23.0.3, SVG Export Plug-In . SVG Version: 6.00 Build 0)  -->
<svg version="1.1" id="Layer_1" xmlns="http://www.w3.org/2000/svg" xmlns:xlink="http://www.w3.org/1999/xlink" x="0px" y="0px"
	 viewBox="0 0 250 250" style="enable-background:new 0 0 250 250;" xml:space="preserve">
<g>
	<g>
		<path style="fill:none;" d="M124,251c-41,0-82,0-123,0C1,167.667,1,84.333,1,1c82,0,164,0.027,246-0.096
			c3.424-0.005,4.101,0.672,4.096,4.096c-0.124,80.666-0.124,161.333,0,242c0.005,3.424-0.67,4.111-4.096,4.099
			C206.334,250.946,165.667,251,125,251c0.201-0.253,0.365-0.549,0.607-0.754c17.792-15.09,35.59-30.172,53.387-45.256
			c2.075-1.633,4.196-3.211,6.216-4.909c4.826-4.058,11.2-7.321,13.962-12.498c2.866-5.372,0.697-12.65,0.799-19.093
			c0.122-7.746,0.029-7.747-7.877-8.738c-9.304-2.257-18.519-5.059-27.94-6.597c-7.424-1.212-11.316-5.504-14.015-11.734
			c-0.919-2.122-1.618-4.34-2.417-6.514c-2.063-5.546-0.411-10.017,4.204-13.37c6.129-4.453,8.006-10.822,9.322-17.889
			c3.027-16.26,6.577-32.422,9.915-48.624c6.446-10.12,7.213-21.698,8.511-33.14c0.625-4.215,1.735-8.396,1.07-12.992
			c-8.087,1.688-15.123,5.448-22.266,8.861c-2.491,1.19-4.232,1.278-6.74-0.312c-14.309-9.073-30.228-11.834-45.627-5.313
			c-10.459,4.428-18.734,4.042-27.884-1.416c-2.917-1.74-7.5-4.514-9.547-2.667c-2.469,2.228-0.802,7.089-0.109,10.795
			c0.145,11.472,2.112,22.585,6.551,33.21c0.044,1.819-0.175,3.69,0.172,5.449c2.723,13.813,6.063,27.527,8.197,41.427
			c1.843,12.001,5.517,22.45,16.354,29.159c0.663,0.676,1.326,1.352,1.989,2.029c0.727,0.809,1.454,1.618,2.181,2.428l-0.062,0.281
			l0.24,0.159c-0.144,1.322-0.289,2.643-0.433,3.965c-0.791,1.43-1.56,2.873-2.378,4.288c-3.53,6.112-8.061,10.513-15.523,11.973
			c-9.419,1.843-18.642,4.69-27.95,7.104c-3.952-0.044-5.27,1.724-5.018,5.781c0.402,6.465,0.216,12.977,0.053,19.463
			c-0.064,2.541,0.638,4.251,2.644,5.939c9.415,7.921,18.734,15.959,27.966,24.092C97.001,227.432,111.03,238.612,124,251z"/>
		<path style="fill:#010101;" d="M178.995,204.99c-17.798,15.083-35.596,30.166-53.387,45.256c-0.242,0.205-0.407,0.501-0.607,0.754
			c-0.333,0-0.667,0-1,0c-12.97-12.388-26.999-23.568-40.445-35.414c-9.233-8.133-18.552-16.171-27.966-24.092
			c-2.006-1.688-2.708-3.398-2.644-5.939c0.163-6.486,0.349-12.998-0.053-19.463c-0.252-4.057,1.066-5.825,5.018-5.781
			c1.262,2.546,3.93,2.106,6.015,2.627c20.345,5.076,40.723,10.022,61.091,15.005c0.028,11.679,0.056,23.358,0.084,35.037
			c0.281,0.816,0.584,0.674,0.899,0.02c0.511-0.412,1.131-0.74,1.517-1.247C140.201,195.069,162.56,192.123,178.995,204.99z"/>
		<path style="fill:#030303;" d="M68.571,18.839c-0.692-3.706-2.359-8.567,0.109-10.795c2.046-1.847,6.629,0.927,9.547,2.667
			c9.149,5.459,17.425,5.845,27.884,1.416c15.399-6.52,31.318-3.76,45.627,5.313c2.508,1.59,4.249,1.503,6.74,0.312
			c7.143-3.413,14.179-7.173,22.266-8.861c0.665,4.596-0.446,8.777-1.07,12.992c-0.506,0.372-1.229,0.632-1.486,1.132
			c-3.832,7.466-7.459,15.043-12.207,21.999c-0.832,1.218-1.02,2.389-0.074,3.619c1.683,2.187,2.79,4.848,5.256,6.391
			c-3.338,16.202-6.887,32.365-9.915,48.624c-1.316,7.066-3.193,13.435-9.322,17.889c-4.615,3.353-6.267,7.825-4.204,13.37
			c-2.153,0.404-3.535,2.048-4.568,3.621c-4.345,6.621-10.095,10.806-18.149,11.451c-5.972-1.355-11.187-4.007-15.282-8.697
			c-1.639-1.878-3.483-3.571-5.964-4.337c0.144-1.322,0.289-2.643,0.433-3.962c3.476,0.76,4.923,4.048,7.414,6.035
			c7.376,5.885,17.855,6.628,23.569,0.119c6.524-7.433,12.105-15.745,17.539-24.041c1.083-1.654,3.722-5.682-0.869-7.429
			c-9.575-3.642-19.226-7.083-28.846-10.606c-3.676,0.028-6.999,1.447-10.378,2.641c-5.89,1.62-11.751,3.36-17.684,4.804
			c-2.528,0.615-2.659,1.796-2.67,4.172c-0.036,8.041,5.118,13.336,9.355,19.165c-0.593,0.08-1.185,0.16-1.778,0.24
			c-10.837-6.709-14.511-17.158-16.354-29.159c-2.135-13.9-5.475-27.614-8.197-41.427c-0.347-1.759-0.129-3.63-0.172-5.449
			c7.236-3.36,8.667-7.054,4.561-13.455C75.589,32.211,73.348,24.815,68.571,18.839z M116.052,82.936l-0.002-0.005
			c-0.38-0.888-0.696-1.895-1.989-1.047c0,0,0.052,0.029,0.051,0.029c0.774-1.304-0.379-1.412-1.107-1.783
			c-2.13-1.693-4.236-3.426-6.931-4.185c-6.059-3.652-12.678-5.143-19.694-5.151c-7.281-0.008-7.281-0.023-5.025,6.931
			c0.186,0.454,0.372,0.908,0.558,1.363c-0.099,1.696,0.854,2.963,1.732,4.262c1.523,4.275,4.47,7.356,8.202,9.779
			c8.973,7.633,17.612,6.594,25.481-3.064c0.597-0.842,1.195-1.684,1.792-2.526c2.287,0.09,4.746-0.838,6.716,1.13
			c0.145,2.096,1.192,3.543,3.128,4.351c0,0,0.016,0.015,0.016,0.015c6.92,8.664,17.474,8.335,26.224-0.817
			c2.171-1.951,4.063-4.115,5.23-6.834c-0.116-0.269-0.232-0.538-0.348-0.807c2.804-2.175,3.077-5.455,3.738-8.565
			c1.19-3.178-0.261-3.917-3.247-4.074c-10.432-0.551-19.921,1.944-28.403,8.102c-1.005,0.271-0.952,1.015-0.806,1.802
			c-2.869-0.144-4.096,1.503-4.461,4.091l-0.087-0.117c-3.335-0.214-6.885,0.697-9.767-1.876l0.012,0.014
			C117.098,83.244,116.73,82.936,116.052,82.936z"/>
		<path style="fill:#282827;" d="M178.995,204.99c-16.435-12.867-38.794-9.921-51.479,6.762c-0.385,0.507-1.006,0.835-1.517,1.247
			c-0.3-0.004-0.599-0.011-0.899-0.02c-0.028-11.679-0.056-23.358-0.084-35.036c-0.011-0.31-0.017-0.62-0.017-0.93
			c0.83-0.026,1.694,0.092,2.484-0.098c20.543-4.953,41.075-9.952,61.624-14.884c1.428-0.343,2.443-0.923,2.987-2.278
			c7.905,0.991,7.999,0.992,7.877,8.738c-0.102,6.442,2.067,13.721-0.799,19.093c-2.762,5.177-9.136,8.441-13.962,12.498
			C183.19,201.78,181.07,203.358,178.995,204.99z"/>
		<path style="fill:#F3BC99;" d="M123,97.062c9.62,3.524,19.271,6.964,28.846,10.606c4.591,1.746,1.952,5.775,0.869,7.429
			c-5.433,8.295-11.015,16.607-17.539,24.041c-5.714,6.51-16.193,5.766-23.569-0.119c-2.491-1.988-3.938-5.275-7.414-6.035
			c0-0.003-0.24-0.162-0.24-0.162s0.062-0.281,0.062-0.281c0.895-1.07,0.25-1.82-0.528-2.542c-0.621-0.718-1.243-1.436-1.864-2.154
			c-4.238-5.83-9.391-11.124-9.355-19.165c0.011-2.376,0.142-3.557,2.67-4.172c5.933-1.445,11.794-3.184,17.683-4.804
			c1.997,3.929,1.972,8.603,6.107,11.81c4.96,3.848,7.575,3.393,9.478-3.062c-5.207,1.557-5.211,1.557-5.222-3.9
			C122.979,102.055,122.994,99.558,123,97.062z M108.898,119.217c13.018,13.906,18.266,10.519,27.674-0.146
			C127.446,117.645,118.485,117.441,108.898,119.217z"/>
		<path style="fill:#292928;" d="M124.999,177.012c0,0.31,0.006,0.621,0.017,0.93c-20.368-4.984-40.746-9.929-61.091-15.006
			c-2.085-0.52-4.753-0.081-6.015-2.627c9.308-2.414,18.531-5.262,27.95-7.104c7.462-1.46,11.992-5.861,15.523-11.973
			c0.817-1.415,1.586-2.858,2.378-4.288c2.481,0.767,4.324,2.46,5.964,4.337c4.095,4.69,9.31,7.342,15.282,8.698
			C125.004,158.991,125.002,168.002,124.999,177.012z"/>
		<path style="fill:#222221;" d="M124.999,177.012c0.002-9.011,0.004-18.021,0.006-27.032c8.053-0.644,13.804-4.83,18.149-11.451
			c1.033-1.574,2.414-3.217,4.568-3.621c0.799,2.174,1.498,4.392,2.417,6.514c2.699,6.229,6.591,10.522,14.015,11.734
			c9.421,1.538,18.636,4.34,27.94,6.597c-0.544,1.355-1.559,1.935-2.987,2.278c-20.548,4.932-41.08,9.932-61.624,14.884
			C126.693,177.105,125.829,176.987,124.999,177.012z"/>
		<path style="fill:#4A4A4B;" d="M68.571,18.839c4.777,5.976,7.018,13.372,11.112,19.755c4.106,6.401,2.675,10.095-4.561,13.455
			C70.683,41.424,68.716,30.311,68.571,18.839z"/>
		<path style="fill:#4A4A4B;" d="M171.163,55.025c-2.466-1.543-3.573-4.204-5.256-6.391c-0.946-1.23-0.758-2.401,0.074-3.619
			c4.749-6.955,8.375-14.533,12.207-21.999c0.257-0.5,0.98-0.76,1.486-1.132C178.376,33.327,177.609,44.905,171.163,55.025z"/>
		<path style="fill:#292928;" d="M101.623,127.844c0.621,0.718,1.243,1.436,1.863,2.153c-0.551,0.038-1.102,0.077-1.652,0.115
			c-0.663-0.676-1.326-1.352-1.989-2.029C100.438,128.004,101.031,127.924,101.623,127.844z"/>
		<path style="fill:#5F5753;" d="M101.835,130.113c0.55-0.039,1.1-0.077,1.652-0.115c0.779,0.723,1.424,1.473,0.529,2.543
			C103.288,131.731,102.561,130.922,101.835,130.113z"/>
		<path style="fill:#222221;" d="M125.1,212.979c0.3,0.009,0.599,0.016,0.899,0.02C125.684,213.653,125.381,213.795,125.1,212.979z"
			/>
		<path style="fill:#F39E77;" d="M123,97.062c-0.006,2.497-0.02,4.993-0.015,7.49c0.011,5.457,0.015,5.457,5.222,3.9
			c-1.904,6.455-4.518,6.91-9.478,3.062c-4.135-3.207-4.11-7.882-6.107-11.81C116.001,98.509,119.323,97.09,123,97.062z"/>
		<path style="fill:#B1927B;" d="M160.435,85.383c-1.167,2.719-3.059,4.883-5.231,6.834c-0.964-0.257-1.99-0.452-1.806-1.839
			c0.144-0.355,0.291-0.709,0.437-1.063c-0.367,0.136-0.734,0.271-1.101,0.407c-1.579,1.189-2.919,2.741-4.947,3.246
			c-5.126-2.57-10.229,1.031-15.349,0.054c-1.152,0.004-2.305,0.008-3.457,0.012c0,0-0.016-0.015-0.016-0.015
			c0.352-2.343-1.908-4.705,0.052-7.036l-0.038,0.036c0.347-0.347,0.693-0.694,1.04-1.041l-0.042,0.036
			c1.637-0.006,3.121,0.294,3.931,1.953c-0.804,1.423,0.39,1.662,1.247,2.073c6.612,3.169,10.805,2.37,16.262-3.088
			c0.573,0.04,1.147,0.08,1.72,0.119c0.881-0.017,1.761-0.034,2.642-0.051c0.142,0.254,0.284,0.508,0.426,0.762
			c0.291-0.252,0.582-0.504,0.873-0.755l-0.058,0.046c0.287-0.124,0.529-0.307,0.728-0.548
			C158.643,85.478,159.539,85.431,160.435,85.383z"/>
		<path style="fill:#5F5753;" d="M117.328,90.065c-7.869,9.659-16.508,10.697-25.481,3.064c1.486-0.04,2.075-1.367,3.058-2.127
			c4.066,2.119,7.798,5.369,12.944,3.807c4.888-2.171,1.038-4.137-0.144-6.167c1.169-0.548,2.338-1.097,3.507-1.645
			C113.768,86.988,114.637,90.341,117.328,90.065z"/>
		<path style="fill:#5F5753;" d="M147.787,92.968c2.028-0.505,3.369-2.057,4.947-3.246c0.216,0.226,0.438,0.445,0.666,0.658
			c-0.186,1.386,0.84,1.58,1.804,1.838c-8.749,9.153-19.304,9.482-26.224,0.818c1.152-0.004,2.305-0.008,3.457-0.012
			C137.224,97.981,139.533,97.973,147.787,92.968z"/>
		<path style="fill:#DBC7B2;" d="M83.645,83.35c-0.877-1.299-1.831-2.567-1.732-4.263c0.344-0.297,0.689-0.593,1.034-0.889
			c0.472,0.218,0.944,0.435,1.415,0.655c0.021-0.024,0.044-0.049,0.067-0.075c-0.456-2.387-0.583-4.635,2.359-5.587
			c1.475-0.081,3.013-0.555,4.28,0.679c-1.77,1.79,0.421,3.18,0.483,4.784c-1.393-0.299-2.786-0.598-5.043-1.082
			c1.687,3.215,2.313,6.218,5.586,7.435l-0.109-0.104c0.351,0.555,0.701,1.109,1.052,1.664c1.27-0.465,1.676,0.405,2.048,1.327
			c-0.084,0.895-0.256,1.742-1.187,2.174c-0.295-0.072-0.594-0.112-0.898-0.122l0.049,0.03c-0.427-0.835-1.02-1.344-2.031-1.036
			l0.039,0.036c0.082-1.522-0.982-2.272-2.038-3.029l0.032,0.055c-0.349-0.52-0.697-1.039-1.046-1.559
			C86.898,82.698,85.239,83.152,83.645,83.35z"/>
		<path style="fill:#EFEEEE;" d="M132.175,80.038c8.482-6.158,17.971-8.653,28.403-8.102c2.986,0.158,4.437,0.896,3.247,4.074
			c-0.508-0.003-1.016-0.006-1.524-0.01c-0.1-2.799-2.263-1.869-3.654-1.84c-8.004,0.167-15.636,1.844-22.579,6.036
			C134.757,80.457,133.44,80.905,132.175,80.038z"/>
		<path style="fill:#4A4A4B;" d="M117.328,90.065c-2.69,0.276-3.559-3.077-6.116-3.067c-0.431-0.739-0.862-1.479-1.293-2.219
			c-0.451-4.207-4.617-4.025-7.012-5.935c0.008-0.745,0.017-1.489,0.025-2.234c1.025,0.337,2.05,0.674,3.074,1.011
			c2.026,1.14,4.051,2.28,6.077,3.42c0.474,0.761,1.094,1.182,2.029,0.874c0,0-0.052-0.029-0.051-0.029
			c0.236,1.16,0.88,1.545,1.989,1.047c0,0,0.002,0.005,0.002,0.005c-0.16,0.836,0.227,1.125,1.014,1.016
			c0,0-0.012-0.014-0.012-0.014c-0.332,1.786,1.413,2.38,2.066,3.6C118.523,88.38,117.925,89.223,117.328,90.065z"/>
		<path style="fill:#EFEEEE;" d="M106.006,77.62c-1.025-0.337-2.05-0.674-3.074-1.01c-3.646-2.247-7.759-2.482-11.866-2.74
			c-1.267-1.234-2.804-0.76-4.279-0.679c-2.166,0.246-6.09-1.702-4.321,3.46c-0.371,0.358-0.742,0.716-1.112,1.075
			c-2.256-6.954-2.256-6.939,5.025-6.931c7.016,0.008,13.635,1.499,19.694,5.151C106.051,76.503,106.029,77.062,106.006,77.62z"/>
		<path style="fill:#B1927B;" d="M83.645,83.35c1.595-0.198,3.253-0.651,4.36,1.095c-0.008,0.759,0.124,1.424,1.046,1.559
			c0,0-0.032-0.055-0.032-0.055c-0.277,1.653,0.509,2.591,2.038,3.029c0,0-0.039-0.036-0.039-0.036
			c0.265,1.153,1.04,1.305,2.031,1.036c0,0-0.049-0.03-0.049-0.03c0.107,0.958,0.77,1.088,1.552,1.043l0.352,0.008
			c-0.982,0.763-1.57,2.09-3.056,2.13C88.115,90.706,85.168,87.625,83.645,83.35z"/>
		<path style="fill:#5F5753;" d="M160.435,85.383c-0.896,0.047-1.792,0.095-2.688,0.142c-0.052-0.285-0.134-0.821-0.152-0.819
			c-0.959,0.116-0.39,0.898-0.576,1.367c0,0,0.058-0.046,0.058-0.046c-0.433-0.002-0.866-0.004-1.299-0.006
			c-0.881,0.017-1.761,0.034-2.642,0.051c1.3-2.011,2.601-4.022,3.902-6.032c1.554-0.267,1.772,1.496,2.886,1.898
			c0.054,0.879,0.109,1.759,0.163,2.638C160.203,84.845,160.319,85.114,160.435,85.383z"/>
		<path style="fill:#5F5753;" d="M132.175,80.038c1.264,0.866,2.582,0.419,3.893,0.158c-0.044,0.912-0.087,1.824-0.131,2.735
			c0.087,0.422,0.173,0.844,0.26,1.266l-0.047-0.123c-0.988,0.047-1.026,0.803-1.128,1.511c-0.371,0.46-0.743,0.921-1.114,1.381
			c-0.81-1.658-2.295-1.959-3.931-1.953c0.277-1.14,1.703-1.777,1.392-3.175C131.223,81.054,131.17,80.31,132.175,80.038z"/>
		<path style="fill:#DBC7B2;" d="M160.087,84.576c-0.054-0.879-0.109-1.759-0.163-2.638c0.792-1.979,1.585-3.958,2.377-5.937
			c0.508,0.003,1.016,0.005,1.524,0.009C163.165,79.121,162.891,82.401,160.087,84.576z"/>
		<path style="fill:#B1927B;" d="M119.12,87.538c-0.653-1.22-2.398-1.814-2.066-3.6c2.882,2.573,6.432,1.662,9.766,1.876
			c-0.329,0.952-0.656,1.903-0.984,2.854C123.866,86.7,121.407,87.629,119.12,87.538z"/>
		<path style="fill:#DBC7B2;" d="M106.006,77.62c0.022-0.558,0.044-1.117,0.067-1.675c2.695,0.759,4.801,2.492,6.931,4.184
			c-0.307,0.303-0.614,0.607-0.921,0.91C110.058,79.9,108.032,78.76,106.006,77.62z"/>
		<path style="fill:#5F5753;" d="M125.837,88.669c0.327-0.951,0.655-1.903,0.984-2.854c0.001,0,0.088,0.117,0.088,0.117
			c0.703,0.018,1.406,0.035,2.108,0.053c-1.96,2.331,0.3,4.693-0.052,7.036C127.028,92.212,125.981,90.765,125.837,88.669z"/>
		<path style="fill:#B1927B;" d="M129.017,85.984c-0.703-0.018-1.406-0.035-2.108-0.053c0.365-2.587,1.591-4.235,4.461-4.091
			c0.311,1.397-1.115,2.034-1.392,3.174c0,0,0.042-0.036,0.042-0.036c-0.347,0.347-0.693,0.694-1.04,1.041L129.017,85.984z"/>
		<path style="fill:#B1927B;" d="M112.083,81.039c0.307-0.304,0.613-0.607,0.921-0.91c0.729,0.372,1.882,0.479,1.108,1.784
			C113.177,82.222,112.557,81.801,112.083,81.039z"/>
		<path style="fill:#B1927B;" d="M116.05,82.931c-1.109,0.499-1.753,0.114-1.989-1.047C115.353,81.036,115.67,82.044,116.05,82.931z
			"/>
		<path style="fill:#EFEEEE;" d="M82.946,78.198c-0.345,0.296-0.689,0.592-1.034,0.889c-0.186-0.454-0.372-0.908-0.558-1.362
			c0.371-0.358,0.742-0.716,1.108-1.071C82.621,77.17,82.784,77.684,82.946,78.198z"/>
		<path style="fill:#B1927B;" d="M117.066,83.952c-0.787,0.109-1.174-0.18-1.014-1.016C116.73,82.936,117.098,83.244,117.066,83.952
			z"/>
		<path style="fill:#A52325;" d="M108.898,119.217c9.587-1.777,18.549-1.572,27.674-0.146
			C127.163,129.737,121.915,133.123,108.898,119.217z"/>
		<path style="fill:#EFEEEE;" d="M133.908,86.967c0.371-0.46,0.743-0.921,1.114-1.382c0.472-0.432,1.334-0.573,1.127-1.511
			c0,0,0.047,0.123,0.045,0.122c0.598-0.135,1.197-0.269,1.797-0.403c1.015,0.22,1.016,1.062,1.238,1.851
			c0.645,2.297,2.24,3.32,4.464,2.415c2.425-0.987,3-2.808,1.384-5.065c5.464-1.619,7.007-0.899,6.339,2.957
			c-5.457,5.458-9.65,6.257-16.262,3.088C134.299,88.63,133.104,88.391,133.908,86.967z"/>
		<path style="fill:#0F0D0D;" d="M137.992,83.794c-0.6,0.134-1.199,0.268-1.797,0.403c-0.085-0.421-0.172-0.843-0.258-1.265
			c5.991-4.159,13.115-3.475,19.812-4.591c1.127-0.188,1.104,0.938,1.289,1.698c-1.301,2.011-2.602,4.022-3.902,6.032
			c-0.573-0.04-1.146-0.08-1.719-0.12c0.669-3.857-0.875-4.577-6.339-2.958C142.742,83.494,140.207,82.222,137.992,83.794z"/>
		<path style="fill:#F3BC99;" d="M147.787,92.968c-8.254,5.005-10.563,5.013-15.349,0.054C137.558,94,142.661,90.399,147.787,92.968
			z"/>
		<path style="fill:#292928;" d="M157.019,86.074c0.187-0.469-0.383-1.251,0.576-1.367c0.017-0.002,0.1,0.534,0.152,0.819
			C157.548,85.767,157.306,85.95,157.019,86.074z"/>
		<path style="fill:#5F5753;" d="M152.734,89.722c0.367-0.136,0.734-0.271,1.101-0.407c-0.146,0.354-0.293,0.708-0.437,1.063
			C153.172,90.167,152.95,89.948,152.734,89.722z"/>
		<path style="fill:#292928;" d="M155.778,86.021c0.433,0.002,0.866,0.004,1.299,0.006c-0.291,0.252-0.582,0.504-0.873,0.755
			C156.062,86.529,155.92,86.275,155.778,86.021z"/>
		<path style="fill:#5F5753;" d="M128.979,86.02c0.347-0.347,0.693-0.694,1.04-1.041C129.673,85.326,129.326,85.673,128.979,86.02z"
			/>
		<path style="fill:#EFEEEE;" d="M109.919,84.778c0.431,0.74,0.862,1.48,1.293,2.219c-1.169,0.548-2.338,1.096-3.506,1.646
			c-1.201,0.182-2.402,0.363-3.603,0.544c-3.043-0.172-6.144,0.059-9.018-1.291c-0.372-0.922-0.778-1.792-2.048-1.327
			c0.248-0.933,0.182-1.668-1.052-1.664c0,0,0.109,0.104,0.109,0.104c-0.5-5.114,3.68-3.118,5.958-3.777
			c2.252-0.651,2.682,0.55,2.172,2.683c-0.387,1.621,0.68,2.838,2.32,3.198c1.514,0.332,3.169,0.215,3.656-1.544
			C107.008,82.654,108.38,83.609,109.919,84.778z"/>
		<path style="fill:#F3BC99;" d="M95.084,87.896c2.875,1.35,5.975,1.119,9.018,1.291c-0.423,2.988,4.095,2.683,3.746,5.622
			c-5.146,1.562-8.877-1.688-12.944-3.807c-0.002-0.003-0.354-0.011-0.354-0.011c-0.218-0.307-0.436-0.614-0.654-0.921
			C94.829,89.638,95,88.791,95.084,87.896z"/>
		<path style="fill:#B1927B;" d="M107.848,94.808c0.349-2.939-4.169-2.634-3.746-5.622c1.201-0.18,2.402-0.361,3.603-0.543
			C108.886,90.671,112.737,92.638,107.848,94.808z"/>
		<path style="fill:#0F0D0D;" d="M109.919,84.778c-1.538-1.17-2.91-2.124-3.719,0.79c-0.488,1.759-2.143,1.876-3.656,1.544
			c-1.639-0.36-2.707-1.577-2.32-3.198c0.509-2.133,0.079-3.334-2.172-2.683c-2.278,0.658-6.458-1.337-5.958,3.777
			c-3.273-1.218-3.899-4.221-5.586-7.435c2.257,0.484,3.65,0.783,5.042,1.081c3.785,0.063,7.571,0.126,11.357,0.189
			C105.301,80.754,109.468,80.572,109.919,84.778z"/>
		<path style="fill:#B1927B;" d="M102.907,78.843c-3.786-0.063-7.572-0.126-11.357-0.189c-0.062-1.604-2.253-2.994-0.483-4.784
			c4.107,0.258,8.219,0.492,11.866,2.74C102.924,77.354,102.915,78.098,102.907,78.843z"/>
		<path style="fill:#B1927B;" d="M82.946,78.198c-0.163-0.514-0.325-1.028-0.484-1.545c-1.764-5.165,2.159-3.217,4.325-3.463
			c-2.942,0.953-2.816,3.201-2.36,5.588l-0.065,0.073C83.891,78.634,83.418,78.416,82.946,78.198z"/>
		<path style="fill:#5F5753;" d="M91.056,88.978c-1.529-0.438-2.314-1.376-2.038-3.029C90.074,86.706,91.139,87.456,91.056,88.978z"
			/>
		<path style="fill:#5F5753;" d="M93.048,89.977c-0.99,0.269-1.766,0.118-2.031-1.036C92.028,88.633,92.621,89.143,93.048,89.977z"
			/>
		<path style="fill:#EFEEEE;" d="M84.428,78.778c-0.023,0.025-0.046,0.051-0.067,0.075C84.363,78.851,84.428,78.778,84.428,78.778z"
			/>
		<path style="fill:#5F5753;" d="M93.897,90.069c0.218,0.307,0.436,0.614,0.654,0.921c-0.781,0.045-1.445-0.085-1.552-1.043
			C93.303,89.957,93.602,89.998,93.897,90.069z"/>
		<path style="fill:#0F0D0D;" d="M91.984,84.905c1.234-0.004,1.3,0.73,1.052,1.664C92.685,86.014,92.335,85.46,91.984,84.905z"/>
		<path style="fill:#5F5753;" d="M89.05,86.004c-0.922-0.135-1.054-0.8-1.046-1.559C88.353,84.965,88.702,85.484,89.05,86.004z"/>
		<path style="fill:#443731;" d="M157.038,80.04c-0.185-0.761-0.162-1.886-1.289-1.698c-6.697,1.116-13.821,0.432-19.812,4.591
			c0.043-0.912,0.087-1.824,0.13-2.736c6.943-4.192,14.575-5.869,22.579-6.036c1.392-0.029,3.554-0.958,3.654,1.84
			c-0.793,1.98-1.585,3.959-2.377,5.937C158.81,81.536,158.592,79.773,157.038,80.04z"/>
		<path style="fill:#0F0D0D;" d="M136.15,84.075c0.207,0.938-0.655,1.079-1.127,1.511C135.125,84.878,135.162,84.122,136.15,84.075z
			"/>
		<path style="fill:#443731;" d="M137.992,83.794c2.215-1.571,4.75-0.3,7.086-0.799c1.616,2.257,1.041,4.078-1.384,5.065
			c-2.223,0.905-3.819-0.118-4.464-2.415C139.008,84.856,139.007,84.013,137.992,83.794z"/>
	</g>
</g>
</svg>
