<?xml version="1.0" encoding="iso-8859-1"?>
<!-- Generator: Adobe Illustrator 23.0.3, SVG Export Plug-In . SVG Version: 6.00 Build 0)  -->
<svg version="1.1" id="Layer_1" xmlns="http://www.w3.org/2000/svg" xmlns:xlink="http://www.w3.org/1999/xlink" x="0px" y="0px"
	 viewBox="0 0 250 250" style="enable-background:new 0 0 250 250;" xml:space="preserve">
<g>
	<g>
		<path style="fill:none;" d="M122,251c-40.333,0-80.667,0-121,0C1,167.667,1,84.333,1,1c82,0,164,0.027,246-0.096
			c3.424-0.005,4.101,0.672,4.096,4.096c-0.124,80.666-0.124,161.333,0,242c0.005,3.424-0.67,4.112-4.096,4.099
			C206.667,250.945,166.333,251,126,251c1.072-2.758,3.702-4.019,5.752-5.772c16.016-13.687,32.113-27.278,48.186-40.898
			c4.879-4.006,9.741-8.031,14.647-12.004c1.393-1.128,2.125-2.401,2.019-4.266c-0.199-3.481-0.229-6.971-0.33-10.457
			c2.106-4.615,5.61-8.274,8.921-11.916c3.579-3.938,1.703-4.662-2.05-5.677c-8.657-2.34-17.31-3.049-26.093-0.893
			c2.617-32.237-0.523-64.447-0.451-96.672c4.51-3.206,7.938-7.284,10.021-12.445c0.642-1.217,1.793-2.3,0.916-4.365
			c-0.949,1.631-1.72,2.955-2.491,4.28c-2.891,2.862-4.321,7.068-8.255,8.969c-0.561-20.725-9.746-35.719-28.165-45.936
			C123.256-1.125,78.321,5.941,68.955,46.2c-0.861,3.703-1.821,7.382-2.737,11.072c-2.361-2.8-4.721-5.598-7.08-8.396
			c-0.105-0.305-0.209-0.609-0.314-0.914c-0.344-0.748-0.551-2.072-1.501-1.694c-0.711,0.282-0.204,1.305,0.592,1.708
			c0.151,0.511,0.301,1.022,0.452,1.532c1.51,4.556,4.624,8.025,7.767,11.475c-1.453,7.869-1.701,15.863-1.648,23.798
			c0.167,25.2,0.291,50.412,2.648,75.54c-7.647-0.188-14.998,1.138-22.408,4.121c3.64,4.786,7.032,9.246,10.424,13.707
			c-0.05,3.782-0.097,7.564-0.151,11.346c-0.021,1.486-0.053,2.894,1.303,4.011c5.446,4.482,10.834,9.033,16.244,13.559
			c12.402,10.838,24.865,21.606,37.171,32.551C113.885,243.321,118.767,246.28,122,251z M188.515,44.208
			c-0.099,0.107-0.271,0.21-0.277,0.321c-0.006,0.112,0.155,0.232,0.243,0.349c0.099-0.107,0.271-0.21,0.277-0.322
			C188.763,44.444,188.602,44.324,188.515,44.208z M56.75,44.574c-0.073-0.107-0.146-0.213-0.219-0.32
			c-0.094,0.089-0.252,0.172-0.263,0.27c-0.01,0.098,0.128,0.211,0.201,0.318C56.563,44.752,56.656,44.663,56.75,44.574z"/>
		<path style="fill:#BD212F;" d="M122,251c-3.233-4.72-8.115-7.679-12.283-11.385c-12.306-10.945-24.769-21.714-37.17-32.551
			c2.531-2.894,1.177-5.844-0.575-8.13c-5.422-7.071-11.189-13.877-16.822-20.786c-3.392-4.461-6.785-8.921-10.424-13.707
			c7.41-2.982,14.76-4.309,22.407-4.121c1.909,3.931,1.396,8.975,5.508,12.598c0.576-4.198,2.348-7.039,5.595-10.329
			c0.473,5.51,2.906,9.624,3.832,14.241c0.033,2.275,0.144,4.505,2.968,5.181l-0.04-0.052c-0.206,0.966-0.197,1.823,1.042,2.057
			l-0.039-0.057c-0.239,0.906-0.027,1.636,0.828,2.114c1.439,3.951,4.064,7.193,6.447,10.56c0.986,1.393,1.661,3.147,3.916,3.436
			c10.755,1.381,19.339,6.402,25.349,15.573c1.01,1.541,1.965,1.842,2.562-0.32c3.923-4.732,8.092-9.314,13.851-11.72
			c9.953-4.16,14.022-13.283,19.061-21.649l-0.059,0.069c0.335-0.276,0.671-0.551,1.006-0.827c3.321-2.891,4.49-7.289,7.352-10.501
			c0.216-0.567,0.433-1.135,0.649-1.702c-0.068-0.289-0.054-0.575,0.041-0.857c0.34-0.398,0.679-0.796,1.019-1.194l-0.064,0.095
			c1.066-0.785,1.268-1.863,1.043-3.085l-0.043,0.057c1.387,0.002,1.602-1.274,2.257-2.07c1.945,2.366,2.764,5.184,3.135,8.812
			c1.743-4.154,2.62-7.801,2.704-11.635c8.782-2.156,17.436-1.447,26.092,0.893c3.753,1.014,5.63,1.739,2.05,5.677
			c-3.311,3.643-6.815,7.301-8.921,11.92c-4.51,3.505-7.154,8.615-10.96,12.721c-3.667,3.957-5.172,8.726-5.377,14.002
			c-16.072,13.62-32.17,27.211-48.186,40.898c-2.05,1.752-4.68,3.013-5.752,5.772C124.667,251,123.333,251,122,251z"/>
		<path style="fill:#F06E2B;" d="M66.219,57.273c0.914-3.69,1.874-7.37,2.735-11.073c9.367-40.26,54.302-47.325,79.671-33.252
			c18.419,10.218,27.603,25.211,28.167,45.936c-6.74,3.941-14.106,6.042-21.737,7.359c-0.951-4.016-1.868-8.04-2.86-12.045
			c-1.467-5.922-1.619-5.912-7.032-2.708c-14.66,8.68-30.131,15.216-47.162,17.536c-1.591-1.112-3.252-1.712-5.254-2.123
			C83.463,64.996,74.026,63.317,66.219,57.273z"/>
		<path style="fill:#EF6E2D;" d="M82.068,176.83c-0.927-4.617-3.359-8.73-3.832-14.241c-3.247,3.289-5.019,6.131-5.595,10.329
			c-4.112-3.623-3.599-8.667-5.508-12.598c-2.357-25.127-2.48-50.34-2.647-75.54c-0.053-7.935,0.195-15.929,1.648-23.798
			c6.153,3.838,13.23,5.366,19.885,7.951c0.152,4.031-1.564,7.905-0.997,11.97c0.269,2.705-0.533,5.505,0.711,8.125
			c-1.266,7.271-0.978,14.596-0.764,21.918c-0.237,15.551-0.44,31.103,0.23,46.65c-0.915,8.937,1.13,17.665,1.872,26.484
			c-0.357-0.04-0.714-0.08-1.072-0.12c0,0,0.039,0.057,0.039,0.057c0.04-0.882-0.124-1.66-1.042-2.057c0,0,0.04,0.052,0.04,0.052
			C84.558,179.992,83.876,178.089,82.068,176.83z"/>
		<path style="fill:#EF6E2D;" d="M167.002,168.138c-0.096,0.282-0.109,0.567-0.041,0.856c-0.216,0.567-0.433,1.135-0.649,1.702
			c-2.863,3.212-4.032,7.61-7.352,10.501c-0.335,0.275-0.671,0.551-1.006,0.827c0,0,0.059-0.069,0.059-0.069
			c-1.733,0.11-2.543-0.238-1.239-2.058c1.495-2.087,2.935-4.235,3.257-6.892c2.419-4.832,3.241-10.039,3.6-15.354
			c2.24-12.227,1.248-24.528,0.134-36.721c-0.577-6.322-0.551-12.858-2.736-18.999c0.057-5.495-0.357-10.904-2.889-15.929
			c0.444-1.365,0.772-2.726-0.15-4.04c-0.67-4.01-1.339-8.019-2.009-12.029c6.748-2.841,14.076-4.085,20.62-7.487
			c-0.071,32.225,3.069,64.435,0.451,96.672c-0.083,3.835-0.96,7.482-2.703,11.636c-0.371-3.628-1.19-6.446-3.135-8.812
			c-0.158-0.577-0.422-1.579-0.963-1.259c-1.15,0.679-1.409,1.999-1.294,3.328c0,0,0.043-0.057,0.043-0.057
			c-1.186,0.745-1.057,1.934-1.043,3.085c0,0,0.064-0.095,0.064-0.095C167.287,167.006,167.107,167.54,167.002,168.138z"/>
		<path style="fill:#315571;" d="M55.15,178.148c5.633,6.909,11.4,13.715,16.822,20.786c1.753,2.286,3.107,5.236,0.575,8.13
			c-5.411-4.526-10.799-9.077-16.245-13.559c-1.356-1.116-1.325-2.525-1.303-4.011C55.053,185.712,55.1,181.93,55.15,178.148z"/>
		<path style="fill:#352724;" d="M86.018,68.934c-6.655-2.585-13.731-4.113-19.885-7.951c-3.142-3.45-6.257-6.919-7.766-11.475
			c0.275-0.189,0.532-0.4,0.77-0.632c2.36,2.798,4.719,5.597,7.08,8.396c7.808,6.045,17.245,7.724,26.529,9.631
			c2.002,0.411,3.663,1.011,5.254,2.123c3.551,3.036,7.102,6.073,11.193,9.571c-6.104,1.153-9.5-2.283-13.034-4.972
			C93.073,71.277,89.853,69.519,86.018,68.934z"/>
		<path style="fill:#352724;" d="M176.601,62.445c-6.544,3.402-13.872,4.646-20.62,7.487c-5.231,0.855-8.193,5.509-12.713,7.605
			c-2.224,1.032-4.215,2.146-7.206,0.445c6.645-4.087,10.87-10.946,18.994-11.74c7.631-1.317,14.996-3.418,21.737-7.359
			c3.932-1.901,5.363-6.107,8.253-8.968c0.525,0.029,1.051,0.056,1.576,0.084C184.539,55.162,181.111,59.239,176.601,62.445z"/>
		<path style="fill:#35415B;" d="M179.938,204.33c0.205-5.277,1.71-10.046,5.377-14.002c3.806-4.107,6.45-9.216,10.96-12.721
			c0.1,3.483,0.131,6.973,0.33,10.454c0.106,1.865-0.626,3.138-2.019,4.266C189.679,196.299,184.817,200.325,179.938,204.33z"/>
		<path style="fill:#315571;" d="M186.621,50c-0.526-0.028-1.051-0.055-1.576-0.084c0.772-1.326,1.543-2.65,2.492-4.281
			C188.414,47.7,187.264,48.784,186.621,50z"/>
		<path style="fill:#315571;" d="M57.915,47.976c-0.796-0.402-1.303-1.426-0.592-1.708c0.95-0.377,1.157,0.946,1.501,1.695
			C58.522,48.039,58.219,48.043,57.915,47.976z"/>
		<path style="fill:#352724;" d="M57.915,47.976c0.304,0.067,0.608,0.064,0.91-0.013c0.104,0.303,0.209,0.608,0.313,0.913
			c-0.238,0.232-0.495,0.443-0.77,0.632C58.216,48.997,58.065,48.486,57.915,47.976z"/>
		<path style="fill:#F3B996;" d="M188.515,44.208c0.088,0.116,0.249,0.237,0.243,0.348c-0.006,0.112-0.178,0.215-0.277,0.322
			c-0.088-0.117-0.248-0.237-0.243-0.349C188.243,44.418,188.415,44.314,188.515,44.208z"/>
		<path style="fill:#F3B996;" d="M56.75,44.574c-0.094,0.089-0.187,0.178-0.281,0.267c-0.073-0.107-0.212-0.22-0.201-0.318
			c0.01-0.098,0.169-0.18,0.263-0.27C56.604,44.361,56.677,44.467,56.75,44.574z"/>
		<path style="fill:#315571;" d="M87.071,184.081c-0.743-8.82-2.787-17.548-1.873-26.487c2.282-0.455,4.564-0.908,6.846-1.362
			c6.706,7.981,15.496,12.17,25.597,13.735c4.154,0.643,7.398,1.551,6.411,6.877c-0.255,1.374-0.46,3.017,0.903,4.171
			c0.048,11.436,0.097,22.872,0.145,34.308c-0.596,2.163-1.552,1.862-2.562,0.32c-6.01-9.171-14.594-14.192-25.349-15.573
			c-2.255-0.29-2.93-2.043-3.916-3.436c-2.382-3.366-5.007-6.609-6.445-10.56c0.002,0,0.247-0.294,0.247-0.294
			c0.943-0.636,0.915-1.225-0.084-1.768L87.071,184.081z"/>
		<path style="fill:#283853;" d="M125.1,215.324c-0.048-11.436-0.097-22.872-0.145-34.308c11.621-2.984,23.137-6.422,35.075-8.011
			c-0.322,2.657-1.762,4.805-3.257,6.892c-1.304,1.821-0.494,2.168,1.239,2.058c-5.039,8.366-9.108,17.489-19.061,21.649
			C133.192,206.01,129.023,210.592,125.1,215.324z"/>
		<path style="fill:#35415B;" d="M82.068,176.83c1.808,1.258,2.49,3.161,2.968,5.181C82.213,181.335,82.101,179.106,82.068,176.83z"
			/>
		<path style="fill:#35415B;" d="M168.957,164.011c-0.115-1.329,0.144-2.649,1.294-3.328c0.541-0.32,0.805,0.681,0.963,1.259
			C170.559,162.736,170.344,164.012,168.957,164.011z"/>
		<path style="fill:#35415B;" d="M167.957,167.038c-0.014-1.15-0.143-2.34,1.043-3.085
			C169.225,165.175,169.022,166.253,167.957,167.038z"/>
		<path style="fill:#35415B;" d="M166.311,170.696c0.217-0.567,0.433-1.135,0.649-1.702
			C166.744,169.561,166.528,170.129,166.311,170.696z"/>
		<path style="fill:#35415B;" d="M84.996,181.96c0.918,0.396,1.081,1.175,1.042,2.057C84.799,183.783,84.79,182.926,84.996,181.96z"
			/>
		<path style="fill:#35415B;" d="M85.999,183.961c0.357,0.04,0.714,0.08,1.072,0.12c0,0.001-0.079-0.068-0.079-0.068
			c0.028,0.589,0.056,1.179,0.084,1.768c0,0-0.245,0.294-0.247,0.294C85.972,185.597,85.76,184.867,85.999,183.961z"/>
		<path style="fill:#35415B;" d="M167.002,168.138c0.105-0.598,0.286-1.132,1.019-1.194
			C167.681,167.341,167.341,167.74,167.002,168.138z"/>
		<path style="fill:#283853;" d="M157.953,182.024c0.335-0.276,0.671-0.551,1.006-0.827
			C158.623,181.473,158.288,181.748,157.953,182.024z"/>
		<path style="fill:#EC3A28;" d="M155.055,66.243c-8.124,0.794-12.349,7.652-18.994,11.74c2.991,1.701,4.982,0.586,7.206-0.445
			c4.52-2.096,7.482-6.75,12.713-7.605c0.669,4.01,1.339,8.019,2.009,12.029c-11.249-0.228-21.245,3.153-29.847,10.454
			c-1.194,1.014-2.804,1.878-1.776,4.071c1.875,4.002,9.605,7.72,13.926,6.372c8.668-2.703,14.398-8.591,17.847-16.857
			c2.532,5.025,2.946,10.434,2.889,15.93c-1.132,2.768-1.76,5.633-2.072,8.619c-0.876,8.388-4.751,14.928-12.228,19.131
			c1.368-3.71,2.881-7.376,4.036-11.151c0.541-1.767,1.267-4.016-1.471-5.01c-9.134-3.317-17.943-7.547-27.463-9.771
			c-2.752,0.171-5.457,0.522-7.829,2.108c-7.056,1.074-13.69,3.737-20.569,5.479c-1.982,0.502-2.279,1.728-1.969,3.763
			c0.68,4.456,2.346,8.589,3.602,12.856c-2.669-0.13-3.72-2.262-5.135-4.029c-3.052-3.812-3.003-8.772-4.961-12.978
			c-0.214-7.322-0.502-14.647,0.765-21.918c2.873,4.785,6.57,8.697,11.639,11.219c7.707,3.835,12.149,3.02,18.19-2.991
			c2.42-2.408,2.626-4.089-0.212-6.303c-8.942-6.976-18.769-11.074-30.33-10.05c-0.567-4.065,1.149-7.94,0.997-11.97
			c3.835,0.586,7.054,2.343,10.141,4.692c3.534,2.689,6.93,6.125,13.034,4.972c-4.091-3.498-7.642-6.535-11.193-9.571
			c17.032-2.32,32.502-8.855,47.163-17.536c5.413-3.205,5.565-3.214,7.032,2.708C153.188,58.204,154.105,62.228,155.055,66.243z"/>
		<path style="fill:#CB391C;" d="M84.968,110.947c1.958,4.207,1.909,9.166,4.961,12.978c1.415,1.767,2.466,3.9,5.135,4.03
			c0,0-0.031-0.013-0.031-0.013c-0.03,0.92,0.176,1.7,1.189,2.001c2.752,2.712,5.505,5.425,8.257,8.137
			c-1.745,7.695-5.797,13.81-12.435,18.153c-2.282,0.453-4.564,0.906-6.846,1.362C84.528,142.05,84.731,126.498,84.968,110.947z"/>
		<path style="fill:#F3B996;" d="M85.021,80.904c11.561-1.024,21.388,3.074,30.33,10.05c2.837,2.214,2.631,3.896,0.212,6.303
			c-6.041,6.011-10.483,6.826-18.19,2.991c-5.069-2.522-8.766-6.435-11.639-11.219C84.488,86.409,85.29,83.61,85.021,80.904z
			 M94.072,92.989l-0.069-0.066c-0.176,0.827,0.491,0.851,0.988,1.037c5.516,3.252,10.816,2.832,15.922-0.935
			c0.106-0.8,0.214-1.601-0.756-1.994c-5.9-7.745-14.782-3.944-22.294-6.097c0.009,2.856,1.333,4.658,3.033,6.272
			c0.553,0.737,0.958,1.922,2.153,0.71l0.011,0.015C92.346,93.29,93.225,93.125,94.072,92.989z"/>
		<path style="fill:#1E4259;" d="M92.044,156.233c6.638-4.343,10.69-10.458,12.433-18.153c5.877,4.729,11.185,10.503,19.549,10.687
			c-0.012,5.325,0.302,10.676-0.131,15.966c-0.388,4.739,1.662,5.919,5.762,5.267c10.326-1.643,19.064-6.32,26.313-13.824
			c2.554,0.491,5.107,0.982,7.661,1.474c-0.358,5.315-1.181,10.522-3.6,15.354c-11.939,1.589-23.455,5.027-35.075,8.011
			c-1.363-1.155-1.158-2.797-0.903-4.171c0.987-5.326-2.257-6.234-6.411-6.877C107.539,168.403,98.749,164.214,92.044,156.233z"/>
		<path style="fill:#CB391C;" d="M163.63,157.651c-2.554-0.491-5.107-0.982-7.661-1.474c-1.3-1.239-2.758-2.351-3.872-3.738
			c-4.575-5.694-5.851-12.691-7.496-19.532c0.408-0.649,0.815-1.299,1.223-1.948c0.351-0.376,0.701-0.753,1.052-1.129l-0.15-0.149
			c7.478-4.201,11.354-10.742,12.23-19.13c0.312-2.985,0.94-5.851,2.072-8.619c2.185,6.14,2.159,12.676,2.736,18.998
			C164.877,133.123,165.87,145.423,163.63,157.651z"/>
		<path style="fill:#F3B996;" d="M158.139,86.002c-3.449,8.266-9.179,14.154-17.847,16.857c-4.321,1.348-12.051-2.37-13.926-6.372
			c-1.028-2.193,0.582-3.058,1.776-4.071c8.602-7.302,18.598-10.682,29.847-10.454C158.911,83.276,158.583,84.637,158.139,86.002z
			 M133.085,92.998c-1.056-0.257-1.031,0.509-1.112,1.176c5.529,4.214,11.98,4.151,16.469-0.158
			c0.886,0.153,1.832,0.389,1.519-1.105l-0.028,0.003c3.376-1.448,4.153-2.645,4.898-7.928c-4.295,2.22-8.927,0.67-13.151,2.034
			c-2.938,0.949-6.739,0.869-7.607,5.043l0.007-0.012c-1.366-0.705-1.159,0.229-1.077,1.033L133.085,92.998z"/>
		<path style="fill:#BD212F;" d="M87.076,185.78c-0.028-0.589-0.056-1.179-0.084-1.768C87.991,184.555,88.019,185.145,87.076,185.78
			z"/>
		<path style="fill:#F6BD99;" d="M145.824,130.959c-0.408,0.649-0.815,1.299-1.22,1.949c-6.302,6.007-10.607,14.61-20.578,15.86
			c-8.363-0.185-13.672-5.958-19.549-10.687c-2.75-2.713-5.502-5.425-8.255-8.137c-0.396-0.667-0.792-1.334-1.188-2.001
			c0,0,0.031,0.013,0.031,0.013c-1.255-4.267-2.922-8.4-3.602-12.856c-0.31-2.035-0.013-3.261,1.969-3.763
			c6.879-1.742,13.513-4.404,20.569-5.478c0.002,1.987-0.306,4.035,0.07,5.948c0.834,4.24,4.275,7.072,7.613,8.511
			c2.264,0.976,4.487-2.472,5.335-5.297c0.432-0.133,0.865-0.266,1.297-0.398c-0.085-0.126-0.17-0.253-0.256-0.379
			c-0.357,0.247-0.715,0.495-1.072,0.742c-3.755,1.536-5.512,0.622-5.049-3.753c0.261-2.463-0.055-4.987-0.111-7.483
			c9.522,2.227,18.331,6.456,27.465,9.773c2.738,0.994,2.012,3.243,1.471,5.01c-1.155,3.775-2.668,7.441-4.036,11.151
			c-0.002-0.001,0.148,0.149,0.148,0.15C146.525,130.208,146.174,130.583,145.824,130.959z M135.1,125.216
			c-6.46-2.168-21.657-1.846-25.653,0.418C120.744,137.319,124.282,136.872,135.1,125.216z"/>
		<path style="fill:#F69D76;" d="M127.019,115.019c-0.849,2.825-3.072,6.272-5.336,5.297c-3.338-1.439-6.779-4.27-7.613-8.511
			c-0.376-1.913-0.068-3.96-0.07-5.948c2.373-1.586,5.078-1.937,7.83-2.108c0.054,2.494,0.37,5.018,0.109,7.481
			c-0.463,4.375,1.294,5.289,5.049,3.753L127.019,115.019z"/>
		<path style="fill:#EC3A28;" d="M95.033,127.942c0.396,0.667,0.791,1.334,1.188,2.001
			C95.209,129.642,95.003,128.862,95.033,127.942z"/>
		<path style="fill:#FEFEFE;" d="M110.911,93.026c-5.104,3.767-10.404,4.186-15.92,0.935c-0.329-0.345-0.659-0.692-0.988-1.038
			c0,0,0.069,0.066,0.069,0.066c-0.057-0.621-0.351-1.013-1.011-1.058c0,0-0.011-0.015-0.011-0.015
			c-0.103-0.336-0.205-0.672-0.308-1.008c1.126-3.616,3.98-1.85,6.219-1.996c-0.175,2.111,0.101,4.04,2.666,4.379
			c2.47,0.327,3.528-1.126,3.693-3.419c1.177,0.416,2.355,0.832,3.532,1.247C109.54,91.756,110.226,92.391,110.911,93.026z"/>
		<path style="fill:#352724;" d="M108.854,91.121c-1.177-0.416-2.355-0.832-3.534-1.247c-1.963-1.36-4.156-1.189-6.358-0.96
			c-2.24,0.146-5.093-1.62-6.22,1.996c-0.615,0.099-1.23,0.198-1.845,0.297c-1.7-1.614-3.024-3.417-3.033-6.272
			c7.512,2.153,16.394-1.648,22.293,6.096C109.722,91.06,109.288,91.091,108.854,91.121z"/>
		<path style="fill:#35415B;" d="M108.854,91.121c0.434-0.03,0.868-0.061,1.303-0.09c0.97,0.394,0.863,1.195,0.755,1.995
			C110.226,92.391,109.54,91.756,108.854,91.121z"/>
		<path style="fill:#35415B;" d="M90.897,91.207c0.615-0.099,1.23-0.198,1.845-0.297c0.103,0.336,0.206,0.672,0.308,1.008
			C91.855,93.128,91.45,91.944,90.897,91.207z"/>
		<path style="fill:#35415B;" d="M94.003,92.924c0.33,0.346,0.659,0.692,0.988,1.038C94.494,93.775,93.828,93.751,94.003,92.924z"/>
		<path style="fill:#35415B;" d="M93.061,91.932c0.66,0.044,0.954,0.437,1.011,1.058C93.225,93.125,92.346,93.29,93.061,91.932z"/>
		<path style="fill:#1A283D;" d="M124.025,148.767c9.971-1.25,14.276-9.853,20.578-15.86c1.642,6.84,2.919,13.838,7.494,19.532
			c1.115,1.387,2.572,2.499,3.872,3.738c-7.25,7.504-15.987,12.181-26.313,13.824c-4.1,0.652-6.151-0.528-5.762-5.267
			C124.327,159.444,124.013,154.092,124.025,148.767z"/>
		<path style="fill:#EC3A28;" d="M145.824,130.959c0.351-0.376,0.702-0.751,1.052-1.128
			C146.525,130.206,146.174,130.583,145.824,130.959z"/>
		<path style="fill:#FEFEFE;" d="M148.442,94.016c-4.488,4.31-10.94,4.372-16.468,0.158c0.371-0.392,0.741-0.784,1.111-1.175
			c0,0-0.082,0.086-0.082,0.086c0.602-0.091,1.047-0.346,1.077-1.033c0,0-0.007,0.012-0.007,0.012
			c1.635-0.603,3.271-1.206,4.906-1.809c-0.042,2.576,0.8,4.789,3.73,4.461c3.194-0.358,2.752-2.985,2.383-5.29
			c2.343,0.151,5.577-0.935,4.841,3.488c0,0,0.028-0.003,0.028-0.003C149.455,93.279,148.948,93.647,148.442,94.016z"/>
		<path style="fill:#352724;" d="M149.933,92.913c0.736-4.423-2.499-3.337-4.84-3.489c-2.14-0.48-4.094,0.418-6.114,0.829
			c-1.636,0.603-3.271,1.206-4.906,1.809c0.869-4.174,4.669-4.094,7.608-5.043c4.225-1.364,8.857,0.186,13.151-2.034
			C154.086,90.269,153.309,91.465,149.933,92.913z"/>
		<path style="fill:#352724;" d="M148.442,94.016c0.507-0.368,1.013-0.737,1.52-1.105C150.274,94.405,149.328,94.169,148.442,94.016
			z"/>
		<path style="fill:#352724;" d="M134.08,92.051c-0.03,0.687-0.475,0.942-1.077,1.033C132.92,92.28,132.713,91.346,134.08,92.051z"
			/>
		<path style="fill:#352724;" d="M133.085,92.998c-0.37,0.392-0.741,0.783-1.111,1.175
			C132.054,93.508,132.028,92.742,133.085,92.998z"/>
		<path style="fill:#BD212F;" d="M135.1,125.216c-10.817,11.656-14.356,12.104-25.653,0.418
			C113.443,123.37,128.64,123.047,135.1,125.216z"/>
		<path style="fill:#F69D76;" d="M126.988,114.983c0.357-0.247,0.715-0.495,1.072-0.742c0.085,0.126,0.17,0.253,0.256,0.379
			c-0.432,0.133-0.865,0.265-1.297,0.398C127.019,115.019,126.988,114.983,126.988,114.983z"/>
		<path style="fill:#30A9DB;" d="M98.962,88.914c2.202-0.228,4.395-0.399,6.358,0.96c-0.164,2.293-1.222,3.746-3.692,3.419
			C99.063,92.954,98.787,91.025,98.962,88.914z"/>
		<path style="fill:#30A9DB;" d="M138.978,90.254c2.02-0.412,3.974-1.31,6.114-0.829c0.368,2.305,0.81,4.933-2.384,5.291
			C139.778,95.044,138.937,92.83,138.978,90.254z"/>
	</g>
</g>
</svg>
