<?xml version="1.0" encoding="iso-8859-1"?>
<!-- Generator: Adobe Illustrator 23.0.3, SVG Export Plug-In . SVG Version: 6.00 Build 0)  -->
<svg version="1.1" id="Layer_1" xmlns="http://www.w3.org/2000/svg" xmlns:xlink="http://www.w3.org/1999/xlink" x="0px" y="0px"
	 viewBox="0 0 250 250" style="enable-background:new 0 0 250 250;" xml:space="preserve">
<g>
	<g>
		<path style="fill:none;" d="M123,251c-40.667,0-81.333,0-122,0C1,167.667,1,84.333,1,1c82,0,164,0.027,246-0.096
			c3.424-0.005,4.101,0.672,4.096,4.096c-0.124,80.666-0.124,161.333,0,242c0.005,3.424-0.67,4.111-4.096,4.099
			C206.334,250.946,165.667,251,125,251c-0.044-0.308-0.03-0.613,0.043-0.915c1.582-1.192,3.223-2.314,4.736-3.587
			c20.846-17.534,41.595-35.184,62.578-52.554c4.077-3.375,6.216-6.809,5.593-12.205c-0.473-4.1-0.448-8.336-0.002-12.442
			c0.524-4.823-1.155-7.156-6.016-7.123c-11.86-2.706-23.721-5.412-35.583-8.119c-0.604-0.672-1.205-1.342-1.807-2.013
			c3.039-0.456,6.209-0.406,9.384-2.482c-3.203-0.67-5.444-2.133-7.022-4.519c-0.095-0.614-0.191-1.227-0.286-1.841
			c11.978,5.029,23.051,2.358,35.088-3.945c-10.457-1.051-17.268-5.42-21.577-13.561c-3.693-6.978-4.014-14.245-2.014-21.738
			c2.689-5.928,5.377-11.857,8.066-17.785c3.929-0.635,4.493-3.458,4.88-6.819c0.977-8.475,1.053-16.904-0.051-25.37
			c-1.435-11.006-3.542-21.575-12.127-29.79C153.627,9.594,135.551,3.688,114.918,7.165c-15.223,2.565-29.883,6.156-39.489,20.891
			c-7.066,10.838-11.085,22.119-12.504,34.669c-2.954,9.832-1.554,19.73-0.465,29.625c1.231,11.18,5.824,21.426,8.883,32.099
			c2.735,9.541,3.537,18.962-1.978,27.926c-0.23,0.089-0.397,0.247-0.497,0.477c-0.425,0.619-0.849,1.239-1.274,1.858
			c-0.523,0.434-1.046,0.867-1.569,1.301c-0.072,0.136-0.144,0.272-0.216,0.408c0.055-0.151,0.11-0.303,0.165-0.454
			c0.875,0.113,1.643-0.026,2.098-0.897c0.319-0.269,0.639-0.537,0.958-0.805c0.373-0.366,0.746-0.733,1.12-1.099
			c3.249-1.909,5.068-5.025,6.882-8.146c0.586-0.096,1.172-0.193,1.758-0.289c-0.669,4.147-2.974,7.58-4.884,11.186
			c-0.24,0.199-0.481,0.399-0.721,0.598c0.44,0.506,0.856,0.342,1.263-0.047c6.955-1.161,10.121-7.124,14.557-11.479l0.011,0.005
			c0.362,1.332-0.924,2.652-0.03,3.989c-0.227,0.048-0.455,0.095-0.683,0.142c0.037,0.142,0.074,0.283,0.111,0.425
			c0.196-0.181,0.392-0.363,0.588-0.544c2.596-2.581,7.402-0.988,9.284-4.917c0.529,0.372,1.059,0.743,1.588,1.115
			c0.002,0.532,0.003,1.065,0.006,1.597c-2.669,2.447-5.34,4.893-8.01,7.34c-11.389,2.661-22.803,5.225-34.002,8.635
			c-2.912-0.189-4.055,0.964-3.941,4.067c0.238,6.468,0.266,12.958-0.009,19.423c-0.142,3.333,1.004,5.506,3.479,7.61
			c13.529,11.5,27.011,23.058,40.364,34.761C106.214,236.042,115.169,242.889,123,251z"/>
		<path style="fill:#0472B4;" d="M156.351,154.056c11.86,2.706,23.721,5.412,35.581,8.118c-0.835,0.51-1.608,1.271-2.513,1.492
			c-17.001,4.15-33.952,8.539-51.051,12.239c-13.406,2.901-13.49,2.514-13.406,15.949c-0.334,0.093-0.669,0.186-1.004,0.278
			c-11.266,0.153-19.964,8.829-19.866,19.815c0.101,11.286,8.868,20.02,19.826,19.752c0.338,0.116,0.676,0.231,1.015,0.347
			c0.037,6.013,0.074,12.026,0.111,18.039c-0.073,0.302-0.087,0.607-0.043,0.915c-0.667,0-1.333,0-2,0
			c-7.831-8.111-16.786-14.958-25.239-22.366c-13.353-11.703-26.836-23.261-40.364-34.761c-2.475-2.104-3.621-4.277-3.479-7.61
			c0.275-6.465,0.246-12.956,0.009-19.423c-0.114-3.104,1.029-4.257,3.941-4.067c0.561,0.993,1.551,1.058,2.533,1.296
			c17.801,4.328,35.592,8.701,53.389,13.045c10.235,2.499,10.239,2.484,10.199-7.994
			C136.549,167.909,147.662,163.586,156.351,154.056z"/>
		<path style="fill:#FABA3D;" d="M62.925,62.723c1.419-12.549,5.438-23.829,12.504-34.668c9.606-14.735,24.266-18.326,39.489-20.891
			c20.634-3.476,38.709,2.429,53.965,17.028c8.585,8.215,10.692,18.784,12.127,29.79c1.104,8.466,1.028,16.894,0.051,25.37
			c-0.387,3.36-0.951,6.183-4.88,6.818c-3.826-0.272-7.214-2.732-11.193-2.243c-20.623-8.279-32.825-24.921-42.827-44.194
			c-0.671,1.077-1.011,1.434-1.14,1.856c-5.838,19.11-19.475,30.339-37.509,37.103c-1.407,0.528-2.91,0.788-3.723,2.25
			c-1.975,0.066-3.99-0.08-5.768,1.066c-1.307,0.149-2.638,0.188-3.917,0.465c-5.849,1.267-7.028,0.339-7.101-5.818
			C62.95,72.011,62.949,67.367,62.925,62.723z"/>
		<path style="fill:#F7BE99;" d="M79.788,80.941c0.815-1.462,2.317-1.721,3.725-2.249c18.034-6.764,31.672-17.993,37.509-37.103
			c0.129-0.422,0.469-0.779,1.14-1.856c10.003,19.273,22.204,35.915,42.827,44.195c-1.652,7.692-3.303,15.384-4.955,23.076
			c-1.151,7.938-4.659,14.508-11.047,19.517c-1.529,1.199-2.697,2.857-4.032,4.305c-0.753,0.512-1.226,1.149-0.963,2.121
			l-0.045,0.056c-0.64-0.011-0.955,0.303-0.943,0.943l-0.057,0.057c-0.641-0.012-0.947,0.312-0.944,0.944l-0.055,0.047
			c-2.355,0.282-3.617,1.656-3.954,3.955l-0.04,0.052c-0.316,0.316-0.633,0.633-0.949,0.949l-0.052,0.052
			c-0.316,0.316-0.632,0.632-0.948,0.948l-0.052,0.052c-0.316,0.316-0.632,0.632-0.948,0.948l-0.052,0.051
			c-0.314,0.315-0.629,0.63-0.943,0.945l-0.061,0.05c-6.742,3.545-13.593,3.83-20.56,0.69c-0.352-1.038-1.06-1.692-2.125-1.96
			c-0.342-0.329-0.682-0.66-1.023-0.989c-0.33-0.313-0.668-0.793-1.066-0.133c-0.056,0.092,0.338,0.455,0.523,0.693
			c0.331,0.34,0.662,0.68,0.994,1.02c0.224,1.116,1.012,1.675,2.006,2.031c3.155,2.929,7.068,3.68,11.169,3.891
			c0.015,1.181,0.029,2.362,0.044,3.543l0.126,0.357c-8.425-0.095-16.533-1.627-24.157-5.345c-0.002-0.532-0.003-1.065-0.005-1.598
			c2.891-1.852,2.985-5.214,4.282-7.927l0.293-0.032c0,0,0.286,0.068,0.286,0.068c0.334,0.316,0.668,0.633,1.001,0.949
			c0.438,0.496,1.132,1.155,1.572,0.535c0.566-0.797-0.425-0.91-0.983-1.101c-0.341-0.332-0.681-0.665-1.023-0.996
			c-0.357-0.329-0.712-0.659-1.067-0.989c-1.401-1.409-2.867-2.758-4.189-4.237c-3.824-4.278-9.075-7.051-11.916-12.469
			c-2.056-3.921-1.611-8.44-3.891-12.155C82.755,98.21,81.271,89.576,79.788,80.941z M133.068,89.988
			c-0.908,0.138-0.924,0.889-1.068,1.553c8.275,4.042,12.938,3.654,18.441-1.537c4.656-0.424,5.046-4.355,7.001-8.581
			c-3.94,2.149-7.25,1.416-10.506,1.572c-4.923,0.236-9.502,1.369-13.006,5.181c-0.789,0.397-1.212,0.968-0.905,1.89L133.068,89.988
			z M109.932,89.992l0.043,0.073c0.336-0.962-0.159-1.51-0.953-1.908c-0.369-0.04-0.739-0.079-1.108-0.119l0.064,0.053
			c-1.039-3.187-4.102-3.278-6.565-4.227c-4.29-1.653-8.874-0.216-13.244-1.138c-0.693-0.629-1.416-1.654-1.924,0.146
			c1.354,3.046,2.019,6.701,6.32,7.139c5.566,5.221,10.537,5.602,18.419,1.41C110.863,90.776,110.836,90.061,109.932,89.992z
			 M127.99,111.988c-1.883,0.41-3.766,0.819-5.979,1.301c0-6.594-0.102-12.906,0.046-19.211c0.068-2.889-0.701-4.172-3.889-4.2
			c-3.326-0.029-4.396,1.151-4.23,4.368c0.214,4.149,0.3,8.336-0.009,12.473c-0.418,5.578,3.814,8.409,7.309,10.374
			c2.935,1.65,4.731-2.931,6.776-5.082c0.135-0.142,0.27-0.284,0.406-0.426C128.275,111.718,128.132,111.853,127.99,111.988z
			 M135.196,123.71c-8.78-1.17-16.725-1.139-25.063,0.16C119.64,134.357,124.27,135.642,135.196,123.71z"/>
		<path style="fill:#349BD5;" d="M125.043,250.085c-0.037-6.013-0.074-12.026-0.11-18.039c11.59-1.38,19.003-9.079,19.09-19.827
			c0.09-11.04-7.15-18.774-19.062-20.365c-0.083-13.434,0-13.048,13.407-15.948c17.1-3.7,34.05-8.089,51.051-12.239
			c0.905-0.221,1.678-0.983,2.513-1.492c4.862-0.033,6.541,2.3,6.016,7.123c-0.446,4.106-0.471,8.342,0.002,12.442
			c0.623,5.396-1.516,8.83-5.593,12.205c-20.982,17.369-41.731,35.02-62.578,52.554
			C128.265,247.771,126.624,248.893,125.043,250.085z"/>
		<path style="fill:#F99C39;" d="M104.156,137.272c-1.297,2.713-1.391,6.075-4.282,7.927c-0.529-0.371-1.059-0.743-1.588-1.115
			c-1.881,3.93-6.688,2.337-9.284,4.917l-0.017-0.023c-0.893-1.336,0.393-2.656,0.031-3.988c0.621-0.04,0.864-0.4,0.768-0.98
			c-0.021-0.125-0.227-0.219-0.347-0.327c-0.144,0.434-0.288,0.869-0.432,1.303c-4.436,4.355-7.603,10.319-14.557,11.479
			c-0.17-0.194-0.351-0.378-0.542-0.551c1.91-3.606,4.215-7.039,4.883-11.185c0.442-1.065,0.699-2.113-0.529-3.346
			c-0.45,1.331-0.839,2.483-1.228,3.634c-1.814,3.121-3.633,6.237-6.882,8.145c-0.263-0.263-0.526-0.526-0.789-0.789
			c5.519-8.963,4.717-18.384,1.982-27.925c-3.059-10.673-7.653-20.919-8.883-32.099c-1.089-9.895-2.489-19.793,0.465-29.625
			c0.024,4.642,0.025,9.287,0.079,13.931c0.072,6.157,1.252,7.085,7.101,5.818c1.279-0.277,2.61-0.316,3.917-0.465
			c-2.756,3.799-2.42,8.19-1.863,12.379c0.885,6.649,6.146,11.765,12.08,12.457c2.28,3.716,1.835,8.234,3.891,12.155
			c2.841,5.418,8.092,8.19,11.916,12.469c1.322,1.479,2.789,2.829,4.188,4.24C104.207,136.231,104.181,136.752,104.156,137.272z"/>
		<path style="fill:#F99C39;" d="M144.954,130.825c1.334-1.447,2.503-3.105,4.032-4.304c6.388-5.009,9.896-11.579,11.047-19.517
			c3.279,0.535,5.145-2.676,8.081-3.047c-2,7.494-1.679,14.761,2.014,21.738c4.309,8.141,11.121,12.509,21.577,13.561
			c-12.038,6.304-23.11,8.975-35.083,3.948c-1.571,0.865-0.28,1.297,0.281,1.838c1.577,2.385,3.819,3.849,7.022,4.519
			c-3.175,2.076-6.345,2.027-9.384,2.482c-2.66-1.708-3.384-4.94-5.544-7.042c-1.276-4.303-2.553-8.607-3.829-12.91
			C145.097,131.668,145.026,131.246,144.954,130.825z"/>
		<path style="fill:#06679A;" d="M123.988,169.12c0.04,10.477,0.037,10.492-10.199,7.993c-17.797-4.345-35.588-8.718-53.389-13.045
			c-0.982-0.239-1.972-0.303-2.533-1.296c11.199-3.41,22.612-5.974,34.003-8.636c8.504,9.744,19.41,14.143,32.154,14.455
			C123.997,168.767,123.985,168.943,123.988,169.12z"/>
		<path style="fill:#2B2B2D;" d="M148.998,145c2.159,2.102,2.883,5.334,5.544,7.042c0.602,0.671,1.203,1.342,1.807,2.013
			c-8.687,9.53-19.8,13.853-32.36,15.065c-0.003-0.177,0.009-0.354,0.036-0.528c0.004-5.483,0.008-10.967,0.011-16.45
			c0,0-0.126-0.357-0.126-0.357C133.008,152.241,141.159,149.199,148.998,145z"/>
		<path style="fill:#020202;" d="M124.036,152.142c-0.004,5.484-0.008,10.967-0.011,16.45c-12.744-0.312-23.65-4.712-32.154-14.455
			c2.669-2.446,5.339-4.893,8.009-7.339C107.503,150.514,115.61,152.046,124.036,152.142z"/>
		<path style="fill:#E28964;" d="M168.115,103.956c-2.937,0.371-4.803,3.583-8.081,3.047c1.652-7.692,3.304-15.383,4.955-23.076
			c3.979-0.49,7.367,1.97,11.193,2.242C173.492,92.099,170.803,98.028,168.115,103.956z"/>
		<path style="fill:#F7BE99;" d="M77.032,145.018c0.389-1.151,0.778-2.303,1.228-3.634c1.228,1.233,0.971,2.281,0.529,3.346
			C78.204,144.825,77.618,144.921,77.032,145.018z"/>
		<path style="fill:#F69E77;" d="M68.073,155.068c-0.455,0.871-1.223,1.01-2.098,0.897l0.051,0.046
			c0.523-0.434,1.046-0.867,1.569-1.301C67.763,154.817,67.922,154.937,68.073,155.068z"/>
		<path style="fill:#F69E77;" d="M67.595,154.71c0.425-0.619,0.849-1.239,1.274-1.858c0.054,0.47,0.108,0.94,0.162,1.41
			c-0.319,0.268-0.639,0.537-0.958,0.805C67.922,154.937,67.763,154.817,67.595,154.71z"/>
		<path style="fill:#F7BE99;" d="M156.904,145.041c-0.561-0.541-1.852-0.972-0.281-1.838
			C156.713,143.814,156.809,144.428,156.904,145.041z"/>
		<path style="fill:#F99C39;" d="M89.002,149.002c-0.196,0.181-0.392,0.363-0.588,0.544c-0.037-0.142-0.074-0.283-0.111-0.425
			c0.228-0.047,0.455-0.094,0.683-0.142C88.985,148.979,89.002,149.002,89.002,149.002z"/>
		<path style="fill:#F99C39;" d="M69.031,154.262c-0.054-0.47-0.108-0.94-0.162-1.41c0.099-0.229,0.266-0.388,0.496-0.477
			c0.259,0.262,0.522,0.525,0.785,0.788C69.777,153.529,69.404,153.896,69.031,154.262z"/>
		<path style="fill:#F69E77;" d="M65.975,155.965c-0.055,0.151-0.11,0.303-0.165,0.454c0.072-0.136,0.144-0.272,0.216-0.408
			C66.025,156.011,65.975,155.965,65.975,155.965z"/>
		<path style="fill:#F99C39;" d="M74.448,156.466c-0.407,0.389-0.823,0.553-1.263,0.047c0.24-0.199,0.481-0.399,0.721-0.598
			C74.097,156.087,74.278,156.271,74.448,156.466z"/>
		<path style="fill:#393838;" d="M123.917,231.699c-10.958,0.268-19.724-8.467-19.826-19.752
			c-0.098-10.986,8.6-19.662,19.866-19.815c0.003,0.866,0.006,1.732,0.009,2.599c-7.471,0.641-12.976,4.264-15.781,11.235
			c-4.209,10.46,2.74,20.545,15.718,23.193C123.909,230.005,123.913,230.852,123.917,231.699z"/>
		<path style="fill:#5B6066;" d="M123.917,231.699c-0.004-0.847-0.009-1.694-0.013-2.541c1.039-0.202,2.079-0.404,3.118-0.606
			c9.235-2.665,13.79-8.183,13.754-16.665c-0.097-8.497-4.445-13.775-13.627-16.545c-1.049-0.087-2.098-0.174-3.147-0.261
			l-0.035-0.35c-0.003-0.866-0.006-1.733-0.009-2.599c0.335-0.092,0.67-0.185,1.004-0.278c11.912,1.59,19.152,9.324,19.062,20.364
			c-0.088,10.749-7.5,18.448-19.09,19.827C124.594,231.93,124.256,231.815,123.917,231.699z"/>
		<path style="fill:#E28964;" d="M84.239,106.844c-5.934-0.692-11.194-5.808-12.08-12.457c-0.558-4.189-0.894-8.58,1.863-12.379
			c1.777-1.146,3.793-1,5.768-1.066C81.271,89.576,82.755,98.21,84.239,106.844z"/>
		<path style="fill:#F69E77;" d="M128.012,112.01c-2.045,2.151-3.84,6.733-6.776,5.082c-3.495-1.965-7.727-4.796-7.309-10.374
			c0.31-4.137,0.223-8.324,0.009-12.473c-0.166-3.217,0.905-4.397,4.23-4.368c3.189,0.028,3.957,1.311,3.889,4.2
			c-0.148,6.305-0.046,12.617-0.046,19.211c2.214-0.481,4.096-0.891,5.979-1.301C127.99,111.988,128.012,112.01,128.012,112.01z"/>
		<path style="fill:#F69E77;" d="M148.998,145c-7.839,4.199-15.99,7.241-25.088,6.785c-0.015-1.181-0.03-2.362-0.044-3.544
			c3.924-0.665,8.06-0.919,10.081-5.242c0,0,0.061-0.05,0.061-0.05c0.314-0.315,0.629-0.63,0.943-0.945c0,0,0.052-0.051,0.051-0.051
			c0.316-0.316,0.632-0.632,0.948-0.948c0,0,0.052-0.052,0.052-0.052c0.316-0.316,0.632-0.632,0.948-0.948
			c0,0,0.052-0.052,0.052-0.052c0.316-0.316,0.633-0.633,0.949-0.949c0,0,0.04-0.052,0.04-0.052
			c2.448-0.188,3.748-1.525,3.954-3.955l0.055-0.047c0.315-0.315,0.629-0.629,0.944-0.944l0.057-0.057
			c0.314-0.314,0.629-0.629,0.943-0.943c0,0,0.045-0.056,0.045-0.056c0.393-0.286,0.785-0.571,1.178-0.857
			C146.445,136.393,147.722,140.697,148.998,145z"/>
		<path style="fill:#A72426;" d="M135.196,123.71c-10.926,11.932-15.556,10.647-25.063,0.16
			C118.472,122.571,126.416,122.539,135.196,123.71z"/>
		<path style="fill:#FEFEFE;" d="M110.983,91.422c-7.883,4.192-12.853,3.811-18.419-1.41c-3.062-6.67,2.85-2.753,4.525-3.835
			c-0.199,2.33,0.082,4.48,2.976,4.722c2.651,0.222,3.179-1.829,3.555-3.869c1.453,0.354,2.906,0.708,4.359,1.063
			c0,0-0.064-0.053-0.064-0.053c-0.148,0.832,0.483,0.986,1.045,1.2c0.052,0.628,0.449,0.832,1.016,0.826
			c0,0-0.043-0.073-0.043-0.072C110.282,90.469,110.633,90.945,110.983,91.422z"/>
		<path style="fill:#FEFEFE;" d="M150.44,90.004c-5.503,5.191-10.166,5.579-18.441,1.536c0.356-0.518,0.712-1.035,1.068-1.552
			c0,0-0.043,0.078-0.043,0.078c0.565,0.076,0.955-0.1,1.036-0.721c1.785-0.728,3.234-2.244,5.32-2.266
			c0.382,2.046,1.003,4.025,3.591,3.815c2.886-0.234,3.112-2.412,2.961-4.702C147.605,87.261,153.4,83.456,150.44,90.004z"/>
		<path style="fill:#393838;" d="M150.44,90.004c2.959-6.547-2.835-2.742-4.507-3.812c-2.273-0.363-4.456-0.06-6.553,0.887
			c-2.086,0.022-3.535,1.538-5.32,2.266c-0.044-0.39-0.087-0.779-0.131-1.169c3.505-3.812,8.083-4.945,13.006-5.181
			c3.256-0.156,6.566,0.577,10.506-1.572C155.486,85.649,155.097,89.579,150.44,90.004z"/>
		<path style="fill:#2B2B2D;" d="M107.978,88.092c-1.453-0.354-2.906-0.708-4.356-1.063c-2.092-0.931-4.27-1.221-6.533-0.853
			c-1.675,1.082-7.586-2.835-4.525,3.835c-4.301-0.437-4.965-4.093-6.319-7.138c0.642-0.048,1.283-0.098,1.924-0.147
			c4.37,0.923,8.954-0.514,13.244,1.138C103.876,84.813,106.938,84.905,107.978,88.092z"/>
		<path style="fill:#E28964;" d="M133.947,142.999c-2.021,4.323-6.157,4.577-10.081,5.242c-4.102-0.211-8.015-0.961-11.17-3.89
			c0.215-0.238,0.445-0.458,0.692-0.663C120.354,146.829,127.206,146.544,133.947,142.999z"/>
		<path style="fill:#E28964;" d="M141.947,134.995c-0.206,2.43-1.506,3.767-3.954,3.955
			C138.33,136.651,139.592,135.277,141.947,134.995z"/>
		<path style="fill:#E28964;" d="M112.697,144.351c-0.994-0.356-1.782-0.915-2.006-2.031c0.19-0.199,0.381-0.396,0.574-0.592
			c1.063,0.269,1.771,0.923,2.123,1.962C113.142,143.892,112.911,144.113,112.697,144.351z"/>
		<path style="fill:#E28964;" d="M145.169,132.09c-0.393,0.286-0.785,0.571-1.178,0.857c-0.263-0.972,0.21-1.609,0.963-2.121
			C145.026,131.246,145.097,131.668,145.169,132.09z"/>
		<path style="fill:#5B6066;" d="M88.168,82.726c-0.641,0.049-1.282,0.099-1.924,0.147C86.752,81.072,87.475,82.097,88.168,82.726z"
			/>
		<path style="fill:#E28964;" d="M106.326,137.69c0.557,0.192,1.548,0.306,0.982,1.103c-0.44,0.62-1.135-0.039-1.571-0.536
			C105.932,138.064,106.128,137.876,106.326,137.69z"/>
		<path style="fill:#5B6066;" d="M109.975,90.065c-0.568,0.006-0.964-0.198-1.016-0.826c0.021-0.361,0.042-0.721,0.063-1.081
			C109.816,88.555,110.311,89.103,109.975,90.065z"/>
		<path style="fill:#5B6066;" d="M133.929,88.176c0.044,0.39,0.088,0.779,0.131,1.169c-0.081,0.621-0.47,0.797-1.036,0.721
			C132.717,89.144,133.14,88.573,133.929,88.176z"/>
		<path style="fill:#5B6066;" d="M110.983,91.422c-0.35-0.476-0.701-0.953-1.051-1.429
			C110.836,90.061,110.863,90.776,110.983,91.422z"/>
		<path style="fill:#E28964;" d="M134.952,142.003c-0.314,0.315-0.629,0.63-0.943,0.945
			C134.323,142.633,134.637,142.318,134.952,142.003z"/>
		<path style="fill:#2B2B2D;" d="M109.022,88.157c-0.021,0.36-0.042,0.721-0.063,1.081c-0.562-0.214-1.193-0.368-1.045-1.2
			C108.283,88.078,108.652,88.118,109.022,88.157z"/>
		<path style="fill:#E28964;" d="M135.952,141.004c-0.316,0.316-0.632,0.632-0.948,0.948
			C135.319,141.636,135.636,141.32,135.952,141.004z"/>
		<path style="fill:#E28964;" d="M110.69,142.32c-0.331-0.34-0.662-0.68-0.994-1.02c0.183-0.185,0.365-0.372,0.544-0.561
			c0.34,0.331,0.68,0.661,1.022,0.99C111.072,141.923,110.88,142.121,110.69,142.32z"/>
		<path style="fill:#E28964;" d="M136.952,140.004c-0.316,0.316-0.632,0.632-0.948,0.948
			C136.32,140.636,136.636,140.32,136.952,140.004z"/>
		<path style="fill:#E28964;" d="M109.697,141.3c-0.186-0.238-0.579-0.601-0.523-0.693c0.398-0.66,0.736-0.18,1.066,0.133
			C110.062,140.928,109.88,141.115,109.697,141.3z"/>
		<path style="fill:#F69E77;" d="M127.99,111.988c0.142-0.135,0.285-0.269,0.427-0.404c-0.135,0.142-0.271,0.284-0.406,0.426
			C128.012,112.01,127.99,111.988,127.99,111.988z"/>
		<path style="fill:#E28964;" d="M105.304,136.693c0.34,0.333,0.68,0.666,1.021,0.998c-0.197,0.185-0.393,0.373-0.588,0.565
			c-0.335-0.315-0.669-0.631-1.001-0.95C104.919,137.094,105.108,136.89,105.304,136.693z"/>
		<path style="fill:#E28964;" d="M104.156,137.272c0.026-0.521,0.051-1.041,0.078-1.564c0.357,0.328,0.712,0.658,1.068,0.987
			c-0.195,0.195-0.384,0.399-0.566,0.612c-0.001,0.002-0.288-0.066-0.288-0.066S104.156,137.272,104.156,137.272z"/>
		<path style="fill:#E28964;" d="M142.946,134.003c-0.315,0.315-0.629,0.629-0.944,0.944
			C142,134.316,142.305,133.992,142.946,134.003z"/>
		<path style="fill:#E28964;" d="M143.946,133.003c-0.314,0.314-0.629,0.629-0.943,0.943
			C142.992,133.306,143.306,132.992,143.946,133.003z"/>
		<path style="fill:#5B6066;" d="M133.068,89.988c-0.356,0.517-0.712,1.034-1.068,1.552
			C132.144,90.878,132.159,90.126,133.068,89.988z"/>
		<path style="fill:#E28964;" d="M137.952,139.002c-0.316,0.316-0.633,0.633-0.949,0.949
			C137.32,139.635,137.636,139.319,137.952,139.002z"/>
		<path style="fill:#F7BE99;" d="M89.005,144.986c0.144-0.434,0.288-0.869,0.432-1.303c0.121,0.108,0.327,0.202,0.347,0.327
			c0.096,0.58-0.147,0.94-0.768,0.98C89.016,144.991,89.005,144.986,89.005,144.986z"/>
		<path style="fill:#939292;" d="M127.022,228.553c-1.039,0.202-2.078,0.403-3.118,0.605c-12.978-2.648-19.928-12.733-15.719-23.193
			c2.805-6.971,8.31-10.594,15.781-11.235c0,0,0.035,0.35,0.035,0.35c-0.197,1.209-0.432,2.431,1.097,3.011
			c-5.128,4.854-10.257,9.709-15.248,14.434c1.236,1.788,2.136,1.461,2.898,1.492c3.148,0.128,7.105-0.942,9.243,0.574
			c2.669,1.894,0.937,6.182,0.992,9.406c0.052,3.033,1.495,3.259,3.786,2.771C126.854,227.364,126.938,227.958,127.022,228.553z"/>
		<path style="fill:#FEFEFE;" d="M127.149,195.342c9.182,2.77,13.53,8.048,13.627,16.545c-1.854,0.014-3.708,0.028-5.561,0.042
			c-0.411-0.461-0.753-1.227-1.243-1.339c-7.068-1.612-7.071-1.591-7.078-8.962c-0.002-1.472-0.025-2.943-0.038-4.415
			C126.953,196.589,127.051,195.966,127.149,195.342z"/>
		<path style="fill:#C6C5C5;" d="M135.215,211.928c1.854-0.014,3.708-0.028,5.561-0.042c0.036,8.482-4.519,14-13.754,16.665
			c-0.084-0.594-0.168-1.188-0.252-1.783c0.033-2.967,0.259-5.948,0.045-8.897c-0.216-2.976,0.667-4.193,3.822-3.941
			C132.28,214.063,134.84,215.153,135.215,211.928z"/>
		<path style="fill:#C6C5C5;" d="M127.149,195.342c-0.098,0.624-0.196,1.247-0.294,1.871c-0.585,0.293-1.17,0.586-1.755,0.878
			c-1.529-0.58-1.295-1.802-1.097-3.011C125.051,195.168,126.1,195.255,127.149,195.342z"/>
		<path style="fill:#0472B4;" d="M97.088,86.176c2.264-0.369,4.442-0.078,6.533,0.853c-0.378,2.04-0.907,4.091-3.558,3.869
			C97.171,90.656,96.889,88.506,97.088,86.176z"/>
		<path style="fill:#0472B4;" d="M139.381,87.079c2.096-0.947,4.28-1.251,6.553-0.887c0.151,2.291-0.076,4.469-2.962,4.703
			C140.384,91.104,139.763,89.125,139.381,87.079z"/>
		<path style="fill:#393838;" d="M125.1,198.091c0.585-0.293,1.17-0.586,1.755-0.878c0.013,1.472,0.037,2.943,0.038,4.415
			c0.008,7.371,0.01,7.35,7.078,8.962c0.491,0.112,0.832,0.877,1.243,1.339c-0.376,3.225-2.936,2.135-4.577,2.003
			c-3.155-0.253-4.038,0.964-3.822,3.941c0.214,2.949-0.012,5.93-0.045,8.897c-2.291,0.487-3.734,0.262-3.786-2.771
			c-0.055-3.224,1.677-7.512-0.992-9.406c-2.137-1.516-6.095-0.446-9.243-0.574c-0.762-0.031-1.662,0.295-2.898-1.492
			C114.843,207.8,119.971,202.946,125.1,198.091z M122.809,205.955c-1.681,1.432-3.663,2.033-3.427,4.193
			c0.092,0.84,1.437,0.766,2.156,0.537C124.057,209.883,123.094,208.098,122.809,205.955z"/>
		<path style="fill:#939292;" d="M122.809,205.955c0.285,2.143,1.248,3.927-1.272,4.73c-0.718,0.229-2.064,0.303-2.156-0.537
			C119.146,207.988,121.128,207.387,122.809,205.955z"/>
	</g>
</g>
</svg>
