<?xml version="1.0" encoding="utf-8"?>
<!-- Generator: Adobe Illustrator 23.0.3, SVG Export Plug-In . SVG Version: 6.00 Build 0)  -->
<svg version="1.1" id="Layer_1" xmlns="http://www.w3.org/2000/svg" xmlns:xlink="http://www.w3.org/1999/xlink" x="0px" y="0px"
	 viewBox="0 0 250 250" style="enable-background:new 0 0 250 250;" xml:space="preserve">
<style type="text/css">
	.st0{fill:#FFFFFF;}
	.st1{fill:none;}
	.st2{fill:#0B72B5;}
	.st3{fill:#349BD5;}
	.st4{fill:#3D2516;}
	.st5{fill:#F4BD9A;}
	.st6{fill:#F59D76;}
	.st7{fill:#5A5B5E;}
	.st8{fill:#B9563E;}
	.st9{fill:#BCBABA;}
	.st10{fill:#DA765A;}
	.st11{fill:#363A3C;}
	.st12{fill:#EDEDED;}
	.st13{fill:#939292;}
	.st14{fill:#C4C3C4;}
	.st15{fill:#B0AFAF;}
	.st16{fill:#333233;}
</style>
<rect x="85.3" y="54.9" class="st0" width="74.8" height="33.2"/>
<g>
	<g>
		<path class="st1" d="M123,251c-40.7,0-81.3,0-122,0C1,167.7,1,84.3,1,1c82,0,164,0,246-0.1c3.4,0,4.1,0.7,4.1,4.1
			c-0.1,80.7-0.1,161.3,0,242c0,3.4-0.7,4.1-4.1,4.1c-40.3-0.2-80.7-0.1-121-0.1c0.5-2.2,2.5-3.1,3.9-4.4
			c23.4-21.5,46.8-42.9,70.4-64.2c2.4-2.2,3.7-4.4,3.4-7.7c-0.2-2.8,0-5.6,0-8.5c0.1-3.6,0.2-7.3,0.5-10.9c0.2-2.5-0.8-3.5-3.1-4
			c-15.7-3.5-31.3-7.1-47-10.7c-0.1-8.9-0.2-17.8-0.2-26.6c0-2.3,0-4.6,0-6.9c5.6-5.2,6.3-11.9,6.2-19c7-3.7,9.3-10.2,9.5-17.4
			c0.1-3.9-1.6-7.3-6.8-6.4c0.4-8.5,0.8-16.9,1.2-25.4c0.3-4.6,0.5-9.3,0.8-13.9c0.1-1.7,0.3-3.2-1.7-4.1c-11.8-5.3-23.6-11-36.9-11
			c-14.6,0-27.8,5.8-41.5,10c-2.1,0.6-1.8,2.1-1.7,3.5c0.4,5.1,0.8,10.3,1.2,15.4c0.6,8.7,1.3,17.4,1.9,26c-4.9-1.2-7.2,0-8,4.3
			C76.8,76.5,81.2,85,88,88.4c-0.2,7.1,0.6,13.9,5.3,19.6c0,1.9,0,3.9,0.1,5.8c-0.1,9.1-0.2,18.2-0.3,27.3c-12.2,3-24.5,6-36.7,8.9
			c-7.8,1.9-7.8,1.9-7.2,10.1c-0.1,6,0,11.9-0.3,17.9c-0.1,2.6,0.9,4.3,2.7,6C75.4,206.3,99.2,228.6,123,251z"/>
		<path class="st2" d="M123,251c-23.8-22.4-47.6-44.7-71.5-67c-1.8-1.7-2.8-3.4-2.7-6c0.2-6,0.2-11.9,0.3-17.9
			c16.6-0.3,33.2-1.5,49.8-1.1c6.6,7.9,14.4,13.2,25.2,12.5c0,1.4,0,2.8,0,4.2c-18.7,0.7-28.7,16-27.9,29.5
			C96.9,220,107.4,230,124,232c0,6.3,0,12.7,0,19C123.7,251,123.3,251,123,251z"/>
		<path class="st3" d="M124.1,175.7c0-1.4,0-2.8,0-4.2V171c9,0,15.4-5.4,21.9-10.6c19.3,1,38.6,3.2,57.8,5.7c0,2.8-0.3,5.7,0,8.5
			c0.3,3.3-1,5.5-3.4,7.7c-23.5,21.3-47,42.7-70.4,64.2c-1.4,1.3-3.4,2.2-3.9,4.4c-0.7,0-1.3,0-2,0c0-6.3,0-12.7,0-19v-0.3
			c16.1-0.3,28.1-12.4,28.1-28.1c-0.1-15.5-12.1-27.4-27.9-27.6C124.1,176,124.1,175.7,124.1,175.7z"/>
		<path class="st4" d="M84.1,38.9c-0.4-5.1-0.8-10.3-1.2-15.4c-0.1-1.5-0.4-2.9,1.7-3.5c13.6-4.2,26.9-10,41.5-10
			c13.3,0,25.1,5.7,36.9,11c2,0.9,1.9,2.4,1.7,4.1c-0.3,4.6-0.5,9.3-0.8,13.9c-3.2,0-6.5,0-9.7,0c1-5.4,1-5.3-4.4-4.1
			c-4.3,0.9-8.8,1.6-13.1,2.4c3.4,10.7,1.4,15.9-6.8,17.7l0.1,0c2.1-7-3.3-17-9.4-17.4c-8.1-0.6-16.3-0.9-24.4-1.8
			c-3.4-0.4-3.3,0.9-2.5,3.2C90.5,39.3,87.3,39.3,84.1,38.9z"/>
		<path class="st5" d="M124,171.5c-10.8,0.6-18.6-4.6-25.2-12.5c-3.4-5.5-6.1-11.2-5.8-17.9c0.1-9.1,0.2-18.2,0.3-27.3
			c5.1,5,10.1,10,15.2,14.9c4.3,4.2,8.7,8.2,15.4,7.5c0,11.6,0.1,23.2,0.1,34.8C124,171.1,124,171.5,124,171.5z"/>
		<path class="st6" d="M124,171.1c0-11.6-0.1-23.2-0.1-34.8c7.4,0.5,12.8-2.5,17.2-8.6c3.7-5,8.4-9.2,12.7-13.8
			c0.1,8.9,0.2,17.8,0.2,26.6c1,8.1-3.4,14.1-8.1,19.9C139.5,165.7,133.1,171.1,124,171.1z"/>
		<path class="st7" d="M146,160.5c4.8-5.8,9.1-11.7,8.1-19.9c15.7,3.6,31.3,7.2,47,10.7c2.3,0.5,3.4,1.5,3.1,4
			c-0.3,3.6-0.3,7.3-0.5,10.9C184.5,163.6,165.3,161.5,146,160.5z"/>
		<path class="st6" d="M93.2,108c-4.7-5.7-5.5-12.5-5.3-19.6c0-3.1,0-6.1,0-9.2c2.2-5.1,1-10.4,0.4-15.6c-0.7-6.5-1.9-13.1,5.7-16.7
			c1.1,0.2,1.7,0.7,1.9,1.8c0.7,4.3,1.4,8.6,2.2,12.9c-1.7,0.8-3.8,0.9-4.9,3.2c2.1-0.3,3.9-0.5,5.8-0.8c0,1,0,1.9,0,2.9
			c-0.5,0.2-0.9,0.4-1.4,0.6c-1.3,0.5-3.4,0-3.6,1.9s1.8,2.1,3.1,2.7c0.6,0.3,1.2,0.5,1.8,0.8c0.1,3.5,3.2,6.1,3,9.8
			c-0.4,11.1,1.7,22.1,1,33.2C99.3,113.9,97.6,109.4,93.2,108z"/>
		<path class="st6" d="M160,88.1c0.2,7-0.6,13.8-6.2,19c-3.2,3.4-6.5,6.7-9.7,10.1c1.1-5.1,0.6-10.2,0.9-15.3
			c0.6-9.2,0.4-18.5,2-27.6c0.9-0.3,1.8-0.7,2.8-1c1.8-0.5,4.6-0.3,4.6-2.7c0-1.9-2.7-1.9-4.4-2.5c-0.3-0.1-0.6-0.1-1-0.2
			c0-1.3,0-2.7,0-4c1.7,0,3.4,0,5.1,0c0.3-0.1,0.6-0.2,0.8-0.3c-0.2-0.2-0.5-0.4-0.7-0.5c-1.4-0.7-2.8-1.3-4.2-2
			c0.4-2.9,0.3-6.1,1.3-8.8c0.8-2.1-0.8-5.3,2.7-6.3c4.2,1.8,5.5,5,5.1,9.5c-0.6,5.9,0.4,11.8-0.9,17.7c-0.5,2.3-0.5,5,1.7,6.8
			C160,82.6,160,85.4,160,88.1z"/>
		<path class="st7" d="M93,141.1c-0.2,6.7,2.4,12.4,5.8,17.9c-16.6-0.4-33.2,0.8-49.8,1.1c-0.6-8.2-0.6-8.2,7.2-10.1
			C68.5,147.1,80.7,144.1,93,141.1z"/>
		<path class="st8" d="M144.1,117.2c3.2-3.4,6.5-6.7,9.7-10.1c0,2.3,0,4.6,0,6.9c-4.3,4.6-9.1,8.8-12.7,13.8
			c-4.4,6.1-9.8,9.1-17.2,8.6c-6.7,0.7-11.1-3.3-15.4-7.5c-5.1-5-10.1-10-15.2-14.9c0-1.9,0-3.9-0.1-5.8c4.3,1.3,6.1,5.8,9.8,7.9
			c2.4,2.5,4.9,4.9,7.2,7.5c5.3,6,12,7,19.5,5.7C137,128,139.8,121.7,144.1,117.2z"/>
		<path class="st9" d="M160,79.9c-2.3-1.8-2.2-4.5-1.7-6.8c1.2-5.9,0.3-11.8,0.9-17.7c0.4-4.5-0.9-7.6-5.1-9.5
			c0.1-2.3,0.2-4.7,0.3-7c3.2,0,6.5,0,9.7,0c-0.4,8.5-0.8,16.9-1.2,25.4C161,69.4,161.9,74.9,160,79.9z"/>
		<path class="st10" d="M88,79.2c0,3.1,0,6.1,0,9.2c-6.8-3.4-11.2-11.9-9.9-19.3c0.7-4.3,3-5.5,8-4.3C87.2,69.6,86.3,74.6,88,79.2z"
			/>
		<path class="st9" d="M88,79.2c-1.7-4.6-0.8-9.6-2-14.3c-0.6-8.7-1.3-17.4-1.9-26c3.2,0.5,6.4,0.4,9.6,0c0.1,2.7,0.2,5.4,0.4,8.1
			c-7.6,3.6-6.4,10.2-5.7,16.7C89,68.9,90.1,74.1,88,79.2z"/>
		<path class="st10" d="M160,79.9c2-5,1-10.5,2.8-15.6c5.1-0.9,6.8,2.5,6.8,6.4c-0.1,7.2-2.4,13.7-9.5,17.4
			C160,85.4,160,82.6,160,79.9z"/>
		<path class="st11" d="M124,232c-16.5-2-27-12-27.9-26.8c-0.8-13.6,9.2-28.8,27.9-29.5v0.3c0,1.3,0,2.5-0.1,3.8
			c-14.2,1.4-21.9,9.1-23.6,23.2c-0.1,14.1,9.8,24.3,23.5,24.2c0.1,0.2,0.2,0.4,0.3,0.6c-0.1,1.3-0.1,2.6-0.2,4L124,232z"/>
		<path class="st7" d="M124,231.7c0.1-1.3,0.1-2.6,0.2-4c14.6-1.6,23.8-10.9,23.6-23.8c0.2-13.4-10.8-24.4-23.8-23.7v-0.5
			c0-1.3,0-2.5,0.1-3.8c15.8,0.2,27.9,12.1,27.9,27.6C152.1,219.3,140.1,231.4,124,231.7z"/>
		<path class="st5" d="M94.1,47c-0.1-2.7-0.2-5.4-0.4-8.1c-0.7-2.3-0.9-3.6,2.5-3.2c8.1,0.9,16.3,1.3,24.4,1.8
			C126.8,38,132.2,48,130,55c-0.2,0.2-1.1,0.1-0.2,0.6c0-0.2,0.1-0.5,0.1-0.7c8.2-1.8,10.2-7,6.8-17.7c4.4-0.8,8.8-1.5,13.1-2.4
			c5.4-1.2,5.4-1.3,4.4,4.1c-0.1,2.3-0.2,4.7-0.3,7c-3.4,1-1.9,4.2-2.7,6.3c-1,2.7-0.9,5.8-1.3,8.8c-6.2,0.1-11.9,1.9-17.3,4.9
			c-0.9,0.5-1.9,0.9-1.3,2.2c0.5,0.9,1.3,0.7,2.1,0.4c0.2,0.3,0.4,0.6,0.6,0.8c-2.4,1.6-3.3,2.9,0.4,4.1c2.3,0.7,4.5,0.6,6.8,0.6
			c0.5,0,1.1,0,1.6,0.1c1.4,0.1,2.7,0.2,4.1,0.3c-1.6,9.1-1.4,18.4-2,27.6c-0.3,5.1,0.2,10.3-0.9,15.3c-4.4,4.6-7.2,10.9-14.5,12.1
			c-7.5,1.2-14.1,0.2-19.5-5.7c-2.3-2.6-4.8-5-7.2-7.5c0.7-11.1-1.4-22.1-1-33.2c0.1-3.7-2.9-6.2-3-9.8c1.7-0.1,3.4-0.1,5.1-0.2
			c1.1,0,2.2,0,3.3-0.1c0.5,0,1,0.1,1.5,0.1c2.5-0.1,6.6,0.5,6.6-2.2c0-3.2-4-2.6-6.7-2.7c-1.5-1.1-3.3-1-5-0.9
			c-1.6,0-3.2-0.1-4.7-0.1c0-1,0-1.9,0-2.9c5-0.7,9.8,0.5,14.6,1.9c1,0.3,2.6,2,3.2-0.1c0.5-1.8-1.5-1.8-2.7-2.2
			c-5.2-1.8-10.5-2.8-16-2c-0.7-4.3-1.5-8.6-2.2-12.9C95.8,47.7,95.1,47.1,94.1,47z M128.9,104.8c2,0.4,3.6-0.3,5.7-1.7
			c-2.4,0-4,0-5.7,0c-6.1,0.3-12-1.2-18-1.6C116.5,104.3,122.6,105.2,128.9,104.8z M124,96c5.9-0.2,7.6-2.5,6.6-8.1
			c-0.6-2.9-1.3-5.8-1.4-8.8c-0.1-4.3-2-7.5-5.1-10.2c-5.5,5.1-5.1,12.2-6.1,18.8C116.9,93.8,118,95.5,124,96z"/>
		<path class="st4" d="M98.1,61.7c5.5-0.8,10.8,0.2,16,2c1.1,0.4,3.2,0.4,2.7,2.2c-0.6,2.1-2.2,0.4-3.2,0.1
			c-4.8-1.4-9.5-2.6-14.6-1.9c-1.8,0.2-3.7,0.5-5.8,0.8C94.4,62.6,96.4,62.5,98.1,61.7z"/>
		<path class="st1" d="M104.1,72.9c-1.7,0.1-3.4,0.1-5.1,0.2c-0.6-0.3-1.2-0.5-1.8-0.8c-1.3-0.6-3.3-0.8-3.1-2.7
			c0.2-1.9,2.3-1.4,3.6-1.9c0.5-0.2,0.9-0.4,1.4-0.6c1.6,0,3.2,0.1,4.7,0.1c0,0.3,0,0.6,0.2,0.9V68c-0.7,0-1,0.5-1.1,1.1
			c-1,0.7-1,1.3,0,2C103.3,71.6,103.7,72.2,104.1,72.9z"/>
		<path class="st4" d="M133.6,68.4c-0.8,0.3-1.7,0.5-2.1-0.4c-0.6-1.3,0.4-1.7,1.3-2.2c5.4-2.9,11.1-4.8,17.3-4.9
			c1.4,0.7,2.8,1.3,4.2,2c-0.1,0.3-0.2,0.6-0.1,0.8c-1.7,0-3.4,0-5.1,0C143.4,63.7,138.4,65.7,133.6,68.4z"/>
		<path class="st12" d="M147.1,74.2c-1.4-0.1-2.7-0.2-4.1-0.3c2.4-1.6,3-3.5,1.1-5.9c1.7-0.1,3.3-0.2,5-0.2c0.3,0.1,0.7,0.1,1,0.2
			c1.7,0.6,4.3,0.6,4.4,2.5c0,2.4-2.8,2.1-4.6,2.7C148.9,73.5,148,73.9,147.1,74.2z"/>
		<path class="st5" d="M149.1,67.8c-1.7,0.1-3.3,0.2-5,0.2c-0.4,0-0.7,0-1.1,0.1c-1.8-0.3-3,0.3-3.3,2.1c-1.5-1.9-3.5-1.3-5.5-1
			c-0.2-0.3-0.4-0.6-0.6-0.8c4.8-2.8,9.8-4.7,15.5-4.6C149.1,65.2,149.1,66.5,149.1,67.8z"/>
		<path class="st7" d="M154.1,63.8c0-0.3,0-0.6,0.1-0.8c0.2,0.2,0.5,0.4,0.7,0.5C154.7,63.6,154.4,63.7,154.1,63.8z"/>
		<path class="st13" d="M123.9,227.1c-13.7,0.1-23.5-10.1-23.5-24.2c1.9,0.1,3.9,0.1,5.8,0.2c-0.3,1.2-2.5,1.6-1.6,3.2
			c0.6,1.1,2.1,0.5,3.2,0.5c3.3,0.1,6.7,0.3,10,0c4.3-0.5,5.2,1.3,5.2,5.3c0,4.3-1.6,8.9,1,13C124,225.8,124,226.5,123.9,227.1z"/>
		<path class="st14" d="M123.9,227.1c0.1-0.6,0.1-1.3,0.2-1.9c2.9,0.2,4.2-0.9,3.8-4c-0.3-2.3-0.1-4.6-0.1-6.9c0-7.3,0-7.3,7.2-7.4
			c2.1,0,4.6,0.5,4.4-2.9c2.8,0,5.5,0,8.3,0c0.1,12.9-9.1,22.2-23.6,23.8C124.1,227.5,124,227.3,123.9,227.1z"/>
		<path class="st15" d="M106.2,203.1c-1.9-0.1-3.9-0.1-5.8-0.2c1.7-14.1,9.4-21.7,23.6-23.2v0.5c0,1.6,0,3.2,0,4.8
			C118.5,191.6,112.3,197.3,106.2,203.1z"/>
		<path class="st12" d="M124,185.1c0-1.6,0-3.2,0-4.8c12.9-0.8,24,10.3,23.8,23.7c-2.8,0-5.5,0-8.3,0c-1.7-4.4-5.4-1.6-8.1-1.9
			c-2.7-0.3-3.8-0.9-3.6-3.7c0.2-3.8,0-7.6,0.1-11.4C127.9,183,126.2,183.7,124,185.1z"/>
		<path class="st10" d="M124,69c3.1,2.7,5,5.9,5.1,10.2c0.1,2.9,0.8,5.9,1.4,8.8c1.1,5.6-0.7,7.9-6.6,8.1C124,87,124,78,124,69z"/>
		<path class="st6" d="M124,69c0,9,0,18,0,27c-5.9-0.5-7.1-2.2-6.1-8.3C118.9,81.2,118.5,74.1,124,69z"/>
		<path class="st1" d="M134.2,69.3c1.9-0.3,3.9-0.9,5.5,1c0.1,0.6,0.2,1.1,0.3,1.7c0.5,0.6,0.9,1.3,1.4,1.9
			c-2.3,0.1-4.5,0.2-6.8-0.6C130.9,72.2,131.8,70.9,134.2,69.3z"/>
		<path class="st10" d="M128.9,104.8c-6.3,0.4-12.3-0.5-18-3.4c6,0.5,12,2,18,1.6C128.9,103.7,128.9,104.3,128.9,104.8z"/>
		<path class="st1" d="M108.8,68c2.7,0,6.7-0.6,6.7,2.7c0,2.8-4.1,2.1-6.6,2.2c-0.5,0-1-0.1-1.5-0.1C108.7,71.5,109.6,70,108.8,68z"
			/>
		<path class="st7" d="M108.8,68c0.9,2,0,3.4-1.4,4.8c-1.1,0-2.2,0-3.3,0.1c-0.4-0.6-0.8-1.3-1.2-1.9c1.4-0.1,3.1,0.1,3.1-1.9
			c0.1-1.5-1.2-0.9-2.1-1c-0.2-0.3-0.3-0.6-0.2-0.9C105.5,67.1,107.2,66.9,108.8,68z"/>
		<path class="st4" d="M141.4,73.9c-0.5-0.6-0.9-1.3-1.4-1.9c2.6,0,3.2-1.6,3-3.8c0.4,0,0.7,0,1.1-0.1c1.9,2.4,1.3,4.3-1.1,5.9
			C142.5,73.9,141.9,73.9,141.4,73.9z"/>
		<path class="st6" d="M128.9,104.8c0-0.6,0-1.1,0-1.7c1.6,0,3.3,0,5.7,0C132.4,104.5,130.8,105.2,128.9,104.8z"/>
		<path class="st4" d="M129.9,54.9c0,0.2-0.1,0.5-0.1,0.7c-0.8-0.5,0-0.5,0.2-0.6C130,55,129.9,54.9,129.9,54.9z"/>
		<path class="st12" d="M104,68c0.8,0.1,2.1-0.5,2.1,1c-0.1,2-1.7,1.9-3.1,1.9c-1-0.7-1-1.3,0-2C103.7,69.1,103.9,68.6,104,68
			L104,68z"/>
		<path class="st7" d="M104,67.9c-0.1,0.6-0.4,1.1-1.1,1.1C103.1,68.5,103.3,67.9,104,67.9z"/>
		<path class="st14" d="M143,68.1c0.2,2.2-0.5,3.8-3,3.8c-0.1-0.6-0.2-1.1-0.3-1.7C140,68.4,141.2,67.8,143,68.1z"/>
		<path class="st16" d="M124,185.1c2.2-1.4,3.9-2,3.8,1.8s0.1,7.6-0.1,11.4c-0.2,2.8,0.9,3.4,3.6,3.7s6.4-2.5,8.1,1.9
			c0.1,3.4-2.3,2.9-4.4,2.9c-7.2,0.1-7.2,0.1-7.2,7.4c0,2.3-0.2,4.7,0.1,6.9c0.4,3.1-1,4.2-3.8,4c-2.6-4.1-1-8.7-1-13
			c0-4-0.9-5.8-5.2-5.3c-3.3,0.3-6.6,0.1-10,0c-1.1,0-2.6,0.6-3.2-0.5c-0.9-1.6,1.3-2,1.6-3.2C112.3,197.3,118.5,191.6,124,185.1z
			 M115.7,201.6c2.7,0.4,5.2,1.2,6.6-0.4c1.4-1.6,1-4.1-0.1-6.3C119.7,196.8,117.7,198.6,115.7,201.6z"/>
		<path class="st13" d="M115.7,201.6c1.9-3,3.9-4.8,6.5-6.7c1.2,2.3,1.6,4.7,0.1,6.3C120.9,202.8,118.4,202,115.7,201.6z"/>
	</g>
</g>
</svg>
