<?xml version="1.0" encoding="iso-8859-1"?>
<!-- Generator: Adobe Illustrator 23.0.3, SVG Export Plug-In . SVG Version: 6.00 Build 0)  -->
<svg version="1.1" id="Layer_1" xmlns="http://www.w3.org/2000/svg" xmlns:xlink="http://www.w3.org/1999/xlink" x="0px" y="0px"
	 viewBox="0 0 250 250" style="enable-background:new 0 0 250 250;" xml:space="preserve">
<g>
	<g>
		<path style="fill:none;" d="M123,251c-40.667,0-81.333,0-122,0C1,167.667,1,84.333,1,1c82,0,164,0.027,246-0.096
			c3.424-0.005,4.101,0.672,4.096,4.096c-0.124,80.666-0.124,161.333,0,242c0.005,3.424-0.67,4.111-4.096,4.099
			C206.334,250.946,165.667,251,125,251c0.839-1.939,2.727-2.822,4.212-4.078c24.631-20.832,49.291-41.631,73.955-62.425
			c1.516-1.278,2.964-2.311,2.905-4.779c-0.19-7.815-0.15-15.639-0.02-23.457c0.038-2.275-0.701-3.073-2.938-3.567
			c-16.048-3.546-32.058-7.267-48.08-10.932c-0.091-9.959-0.182-19.918-0.273-29.877c0.056-1.301,0.113-2.601,0.169-3.902
			c0.145-0.26,0.229-0.538,0.251-0.835c0.315-0.358,0.63-0.716,0.945-1.074c1.573-1.055,2.363-2.672,3.173-4.303
			c2.31-4.652,1.19-9.736,1.906-14.586c6.427-3.634,10.776-12.036,9.676-18.976c-0.42-2.651-1.178-5.244-4.634-5.395
			c-1.183-5.331,0.851-8.685,6.02-10.516c2.766-0.98,5.327-2.552,7.946-3.923c0.925-0.484,2.395-0.702,1.733-2.39
			c-1.485-2.18-2.835-4.47-4.493-6.509c-1.809-2.224-1.795-3.435,1.181-4.495c4.197-1.495,8.25-3.399,12.364-5.128
			c1.035-0.319,2.069-0.638,3.104-0.957c1.042-0.155,2.61-0.257,2.271-1.521c-0.226-0.842-1.636-0.308-2.313,0.513
			c-1.088,0.154-2.259,0.052-3.084,1.008c-7.355,1.153-14.326,3.72-21.406,5.506c-0.165,1.641,0.815,2.446,1.419,3.391
			c4.996,7.804,5.006,7.799-4.372,10.018c-0.153,0.036-0.329-0.025-0.494-0.041c-0.108-2.884,1.121-6.273-2.9-7.68
			c-0.018-3.991-0.423-8.027,0.037-11.962c0.661-5.653-1.928-9.531-5.812-12.964C147.61,6.471,136.02,2.874,123.029,3.382
			c-12.075-0.536-22.947,2.66-32.13,10.691c-4.489,3.926-7.866,8.353-6.579,15.072c0.675,3.524,0.277,7.254,0.365,10.889
			c-4.984,0.743-3.757,4.545-3.8,7.721c-9.532-1.688-9.854-2.199-4.894-9.777c1.683-2.571,1.874-3.749-1.579-4.493
			c-5.465-1.178-10.842-2.763-16.257-4.176c-1.755-0.47-3.51-0.941-5.265-1.411c-0.663-0.867-2.08-1.364-2.303-0.515
			c-0.332,1.263,1.231,1.392,2.293,1.525c1.71,0.614,3.42,1.228,5.13,1.842c3.483,1.444,6.935,2.969,10.46,4.302
			c2.335,0.883,3.211,1.808,1.288,4.099c-1.78,2.121-3.202,4.542-4.782,6.83c1.824,4.258,6.347,4.625,9.761,6.234
			c4.861,2.291,7.276,5.196,6.015,10.596c-3.781,0.208-4.558,2.981-4.692,5.915c-0.393,8.583,3.363,15.024,10.567,19.551
			c0.07,2.114,0.174,4.228,0.202,6.343c0.065,4.808,0.522,9.46,4.687,12.756c0.214,0.51,0.427,1.021,0.639,1.532
			c0.014,0.984,0.028,1.969,0.042,2.953c-0.069,10.048-0.138,20.095-0.207,30.143c-14.361,3.537-28.705,7.143-43.098,10.543
			c-2.482,0.586-3.132,1.688-3.1,4.048c0.11,8.163,0.127,16.33-0.013,24.492c-0.039,2.273,0.865,3.635,2.492,5.03
			c11.252,9.646,22.399,19.415,33.645,29.068c13.635,11.703,27.334,23.331,41.006,34.992C122.923,250.454,122.948,250.728,123,251z
			 M48.016,26.728c0.14-0.061,0.28-0.123,0.419-0.184c-0.124-0.085-0.243-0.229-0.374-0.24c-0.133-0.011-0.278,0.107-0.417,0.169
			C47.768,26.558,47.892,26.643,48.016,26.728z M199.378,26.572c-0.328-0.081-0.52-0.129-0.712-0.177
			c0.039,0.11,0.074,0.31,0.119,0.312C198.93,26.714,199.078,26.649,199.378,26.572z"/>
		<path style="fill:#D52128;" d="M155.033,141.762c16.022,3.665,32.031,7.387,48.08,10.932c2.237,0.494,2.976,1.292,2.938,3.567
			c-0.13,7.818-0.169,15.642,0.02,23.457c0.06,2.468-1.388,3.501-2.905,4.779c-24.664,20.794-49.323,41.592-73.955,62.425
			c-1.485,1.256-3.373,2.139-4.212,4.078c-0.667,0-1.333,0-2,0c-0.052-0.272-0.077-0.546-0.076-0.822
			c0.031-8.338,0.062-16.676,0.093-25.014c9.437-0.487,16.785-4.381,19.976-13.646c3.043-8.836,0.906-16.662-6.3-22.882
			c0.832-1.818,1.662-3.639,2.49-5.462c0.157-0.292,0.315-0.582,0.474-0.872c-0.27,0.179-0.541,0.357-0.811,0.536
			c-1.772,1.233-3.544,2.466-5.316,3.699c-3.302-1.699-6.876-2.292-10.522-2.599c0.01-6.197,0.02-12.394,0.03-18.591
			c0.307-0.148,0.613-0.295,0.92-0.443c5.397,0.54,10.659-0.524,15.564-2.421C151.441,157.872,155.864,152.285,155.033,141.762z"/>
		<path style="fill:#ED3929;" d="M123.017,225.164c-0.031,8.338-0.062,16.676-0.093,25.014
			c-13.672-11.661-27.371-23.288-41.006-34.992c-11.246-9.653-22.392-19.423-33.645-29.068c-1.627-1.395-2.531-2.756-2.492-5.03
			c0.14-8.162,0.123-16.329,0.013-24.492c-0.032-2.359,0.618-3.461,3.1-4.048c14.393-3.4,28.737-7.007,43.098-10.543
			c-1.037,9.476,3.946,15.164,11.903,19.04c6.052,2.948,12.575,3.705,19.144,4.301c-0.01,6.197-0.02,12.394-0.03,18.591
			c-1.294,0.299-2.591,0.586-3.881,0.9c-7.613,1.853-12.718,6.627-14.739,14.056c-2.099,7.715-0.544,14.809,5.686,20.4
			c-0.091,0.506-0.182,1.013-0.271,1.521c-0.204,0.22-0.617,0.588-0.583,0.635c0.489,0.68,0.719,0.147,0.969-0.25
			c0.558-0.106,1.117-0.212,1.675-0.318C115.079,223.617,119.009,224.491,123.017,225.164z"/>
		<path style="fill:#D52128;" d="M161.205,87.185c-0.717,4.85,0.404,9.935-1.906,14.586c-0.81,1.631-1.6,3.248-3.173,4.303
			c-0.449,0.014-0.898,0.029-1.346,0.043c0.975-5.888,1.723-11.747,0.378-17.722c-0.521-2.313-1.384-3.09-3.688-2.487
			c-6.232,1.631-12.461,1.432-18.592-0.488c-2.441-0.764-2.823,0.084-2.623,2.33c0.496,5.576-1.536,7.542-7.302,7.371
			c0.006-9.699,0.012-19.397,0.018-29.096c0.019-20.881,0.039-41.763,0.058-62.644c12.991-0.508,24.581,3.089,34.418,11.783
			c3.884,3.433,6.473,7.311,5.812,12.964c-0.46,3.935-0.055,7.971-0.037,11.96c-0.057,7.636-0.114,15.273-0.171,22.911
			C162.097,71.036,160.933,79.055,161.205,87.185z M132.603,66.973c-0.218,0.09-0.445,0.134-0.681,0.132
			c-3.397,0.024-3.441,1.622-2.118,4.166c2.726,5.242,9.701,8.169,15.884,6.524c5.926-1.576,10.606-7.998,10.216-13.844
			c-0.153-2.291-0.955-3.571-3.398-2.754c-6.279,2.1-12.93,2.95-19.012,5.684C133.19,66.846,132.893,66.876,132.603,66.973z"/>
		<path style="fill:#ED3B29;" d="M123.029,3.382c-0.02,20.881-0.039,41.763-0.058,62.644c-4.86,5.414-4.179,12.574-5.967,18.955
			c-7.113,1.584-14.221,3.122-21.507,0.944c-2.281-0.682-3.074,0.363-3.625,2.624c-1.5,6.164-0.173,12.174,0.431,18.238
			c-0.265,0.193-0.526,0.391-0.786,0.591c-4.164-3.297-4.621-7.949-4.686-12.757c-0.028-2.115-0.133-4.229-0.202-6.343
			c-0.378-8.354-0.757-16.708-1.135-25.063c-0.27-7.726-0.539-15.453-0.809-23.179c-0.087-3.637,0.311-7.367-0.364-10.891
			c-1.288-6.719,2.09-11.147,6.579-15.072C100.082,6.042,110.954,2.846,123.029,3.382z M113.005,67.008
			c-5.744-2.887-12.112-3.733-18.194-5.507c-4.602-1.342-5.229-0.506-3.944,4.603c0.643,5.824,4.338,10.147,9.888,11.572
			c5.482,1.407,11.342-0.864,14.826-5.748C118.032,68.493,117.549,67.569,113.005,67.008z"/>
		<path style="fill:#F7BE9A;" d="M123.038,165.346c-6.569-0.596-13.091-1.352-19.144-4.301c-7.957-3.876-12.94-9.564-11.903-19.04
			c0.069-10.048,0.138-20.095,0.207-30.143c5.12,4.961,10.275,9.887,15.349,14.894c4.577,4.517,9.359,8.503,16.404,7.749
			c0.002,10.133,0.004,20.265,0.006,30.398C123.651,165.051,123.345,165.199,123.038,165.346z"/>
		<path style="fill:#F69D75;" d="M123.958,164.903c-0.002-10.133-0.004-20.265-0.006-30.398c7.112,0.484,12.456-2.351,17.054-7.839
			c4.308-5.141,8.486-10.494,13.754-14.781c0.091,9.959,0.182,19.918,0.273,29.877c0.832,10.523-3.592,16.11-15.51,20.72
			C134.617,164.379,129.355,165.444,123.958,164.903z"/>
		<path style="fill:#BE5E45;" d="M154.76,111.885c-5.268,4.286-9.446,9.64-13.754,14.781c-4.598,5.488-9.942,8.324-17.054,7.839
			c-7.046,0.755-11.827-3.231-16.404-7.748c-5.074-5.008-10.229-9.933-15.349-14.894c-0.014-0.984-0.028-1.969-0.042-2.952
			c0.329,0.011,0.657,0.016,0.985,0.016c6.167,6.052,12.232,12.211,18.531,18.123c6.165,5.786,19.742,6.067,25.224,0.322
			c5.95-6.235,11.435-12.912,17.124-19.396l0.454,0.014l0.454-0.006C154.873,109.284,154.816,110.585,154.76,111.885z"/>
		<path style="fill:#F69D75;" d="M85.494,63.216c0.378,8.354,0.757,16.709,1.135,25.063c-7.205-4.528-10.961-10.969-10.568-19.551
			c0.134-2.934,0.912-5.707,4.692-5.913C82.334,62.949,83.914,63.083,85.494,63.216z"/>
		<path style="fill:#F69D75;" d="M161.205,87.185c-0.271-8.129,0.892-16.149,1.846-24.185c1.065-0.063,2.13-0.126,3.196-0.188
			c3.456,0.153,4.213,2.746,4.634,5.397C171.98,75.149,167.632,83.551,161.205,87.185z"/>
		<path style="fill:#FCDD1D;" d="M166.122,47.771c0.165,0.016,0.341,0.077,0.494,0.041c9.379-2.22,9.368-2.214,4.372-10.018
			c-0.605-0.945-1.585-1.749-1.419-3.391c7.08-1.787,14.05-4.353,21.406-5.506c0.01,0.319,0.018,0.637,0.023,0.956
			c-4.114,1.729-8.167,3.632-12.364,5.128c-2.976,1.06-2.991,2.271-1.181,4.495c1.658,2.039,3.008,4.33,4.493,6.51
			c-4.444,0.426-8.362,2.488-12.448,4.022C167.267,50.844,165.585,51.029,166.122,47.771z"/>
		<path style="fill:#F9C119;" d="M85.494,63.216c-1.58-0.133-3.16-0.267-4.74-0.402c1.261-5.402-1.154-8.307-6.015-10.598
			c-3.414-1.609-7.937-1.977-9.761-6.234c4.472,0.398,8.406,2.48,12.51,4.021c2.242,0.842,3.928,1.02,3.398-2.247
			c0.043-3.177-1.185-6.979,3.8-7.721C84.954,47.763,85.224,55.49,85.494,63.216z"/>
		<path style="fill:#FCDD1D;" d="M80.886,47.756c0.529,3.267-1.157,3.089-3.398,2.247c-4.104-1.542-8.038-3.623-12.51-4.021
			c1.58-2.289,3.002-4.71,4.782-6.83c1.923-2.291,1.047-3.216-1.288-4.099c-3.525-1.333-6.977-2.858-10.46-4.302
			c0.048-0.48,0.096-0.961,0.144-1.441c5.414,1.413,10.792,2.998,16.257,4.176c3.454,0.745,3.262,1.922,1.579,4.493
			C71.032,45.557,71.354,46.068,80.886,47.756z"/>
		<path style="fill:#F9C119;" d="M166.122,47.771c-0.537,3.259,1.145,3.073,3.376,2.236c4.085-1.533,8.004-3.596,12.448-4.022
			c0.661,1.688-0.808,1.905-1.733,2.39c-2.619,1.371-5.18,2.943-7.946,3.923c-5.169,1.831-7.203,5.185-6.02,10.516
			c-1.065,0.061-2.13,0.124-3.196,0.186c0.057-7.637,0.114-15.275,0.171-22.911C167.243,41.497,166.014,44.886,166.122,47.771z"/>
		<path style="fill:#FEDB20;" d="M58.156,29.31c-0.048,0.48-0.096,0.961-0.144,1.441c-1.71-0.614-3.42-1.228-5.128-1.841
			c0.004-0.337,0.006-0.674,0.008-1.011C54.647,28.369,56.402,28.839,58.156,29.31z"/>
		<path style="fill:#F7BE9A;" d="M52.892,27.899c-0.002,0.337-0.004,0.675-0.008,1.011c-1.065-0.133-2.627-0.262-2.295-1.526
			C50.812,26.535,52.229,27.031,52.892,27.899z"/>
		<path style="fill:#F7BE9A;" d="M194.059,27.888c0.677-0.822,2.087-1.356,2.313-0.513c0.339,1.263-1.229,1.366-2.273,1.521
			C194.085,28.561,194.072,28.224,194.059,27.888z"/>
		<path style="fill:#FEDB20;" d="M194.059,27.888c0.013,0.336,0.026,0.672,0.041,1.008c-1.033,0.318-2.067,0.637-3.102,0.956
			c-0.005-0.319-0.012-0.637-0.023-0.956C191.8,27.94,192.971,28.042,194.059,27.888z"/>
		<path style="fill:#F7BE9A;" d="M48.016,26.728c-0.124-0.085-0.248-0.17-0.371-0.256c0.14-0.062,0.284-0.18,0.417-0.169
			c0.13,0.011,0.25,0.155,0.374,0.24C48.296,26.605,48.156,26.666,48.016,26.728z"/>
		<path style="fill:#ED3B29;" d="M93.143,108.926c-0.329,0-0.657-0.005-0.986-0.016c-0.213-0.512-0.426-1.023-0.639-1.533
			c0.258-0.2,0.52-0.397,0.781-0.588C92.578,107.503,92.86,108.215,93.143,108.926z"/>
		<path style="fill:#F7BE9A;" d="M199.378,26.572c-0.3,0.077-0.449,0.143-0.593,0.135c-0.045-0.002-0.08-0.203-0.119-0.312
			C198.858,26.443,199.051,26.49,199.378,26.572z"/>
		<path style="fill:#ED443B;" d="M154.778,106.118c0.449-0.015,0.898-0.029,1.348-0.044c-0.315,0.358-0.63,0.716-0.946,1.074
			c0,0-0.324-0.239-0.324-0.239C154.647,106.663,154.621,106.4,154.778,106.118z"/>
		<path style="fill:#ED443B;" d="M154.929,107.983l-0.454,0.006c0,0-0.454-0.014-0.454-0.014c0.278-0.355,0.557-0.711,0.835-1.067
			c0,0,0.323,0.238,0.324,0.239C155.158,107.445,155.074,107.723,154.929,107.983z"/>
		<path style="fill:#FDFAF8;" d="M123.017,225.164c-4.008-0.673-7.938-1.547-11.153-4.283c6.427-5.262,12.871-10.505,19.261-15.812
			c0.857-0.712,2.847-2.178,1.854-2.583c-3.254-1.327-0.521-2.215,0-3.012c1.084-1.658,2.41-3.158,3.838-4.979
			c-1.312-0.341-2.342-0.609-3.435-0.893c0.82-1.886,1.801-3.6,3.309-4.969c7.208,6.222,9.345,14.048,6.302,22.884
			C139.802,220.783,132.454,224.677,123.017,225.164z"/>
		<path style="fill:#FDFAF8;" d="M110.074,219.293c-6.23-5.591-7.785-12.685-5.686-20.4c2.021-7.428,7.126-12.203,14.739-14.056
			c1.29-0.314,2.587-0.601,3.881-0.9c3.645,0.307,7.22,0.901,10.518,2.595c-3.223,4.254-7.785,7.11-11.415,10.939
			c-0.643,0.678-1.19,1.446-1.781,2.173c4.669,2.592-0.674,3.213-1.117,4.7c-0.476,1.597-2.11,2.898-3.371,4.201
			c-1.586,1.639,3.531,1.233,0.864,3.456C114.206,214.084,112.263,216.835,110.074,219.293z"/>
		<path style="fill:#FEDB20;" d="M110.074,219.293c2.189-2.457,4.133-5.209,6.633-7.292c2.667-2.223-2.45-1.817-0.864-3.456
			c1.26-1.303,2.895-2.603,3.371-4.201c0.443-1.487,5.786-2.109,1.117-4.7c0.591-0.727,1.139-1.495,1.781-2.173
			c3.63-3.828,8.192-6.685,11.415-10.939c1.775-1.229,3.547-2.462,5.319-3.694l0.339,0.338c-0.83,1.821-1.66,3.641-2.492,5.46
			c-1.51,1.367-2.491,3.08-3.311,4.966c1.093,0.284,2.123,0.552,3.435,0.893c-1.427,1.821-2.754,3.32-3.838,4.979
			c-0.521,0.797-3.253,1.685,0,3.012c0.992,0.405-0.998,1.872-1.854,2.583c-6.39,5.307-12.834,10.55-19.261,15.812
			c-0.559,0.105-1.118,0.211-1.676,0.317c-0.126-0.131-0.255-0.26-0.387-0.386C109.892,220.306,109.983,219.799,110.074,219.293z"/>
		<path style="fill:#FEDB20;" d="M138.845,182.838c0.27-0.179,0.541-0.357,0.811-0.536c-0.159,0.29-0.317,0.58-0.474,0.872
			C139.185,183.176,138.845,182.838,138.845,182.838z"/>
		<path style="fill:#FEDB20;" d="M110.188,221.198c-0.25,0.397-0.48,0.93-0.969,0.25c-0.034-0.047,0.38-0.414,0.583-0.635
			C109.933,220.938,110.062,221.067,110.188,221.198z"/>
		<path style="fill:#F5BD9A;" d="M154.856,106.909c-0.279,0.356-0.557,0.711-0.835,1.067c-5.688,6.484-11.174,13.161-17.123,19.396
			c-5.482,5.745-19.059,5.464-25.224-0.322c-6.298-5.912-12.364-12.071-18.531-18.123c-0.282-0.712-0.565-1.424-0.844-2.137
			c-0.6-6.066-1.928-12.076-0.427-18.24c0.55-2.261,1.344-3.305,3.625-2.624c7.286,2.178,14.395,0.639,21.507-0.944
			c-1.074,6.681,0.269,8.971,5.948,10.141c5.766,0.171,7.798-1.795,7.302-7.371c-0.2-2.247,0.183-3.094,2.623-2.33
			c6.131,1.92,12.361,2.118,18.592,0.488c2.304-0.603,3.167,0.173,3.688,2.487c1.345,5.974,0.597,11.834-0.378,17.722
			C154.621,106.4,154.647,106.663,154.856,106.909z M111.805,101.581c7.15,3.125,14.529,3.857,22.133,1.65
			C126.496,103.51,119.202,102.201,111.805,101.581z M109.326,100.626c-0.025-0.11-0.014-0.272-0.082-0.318
			c-0.103-0.071-0.261-0.061-0.395-0.086c0.036,0.182,0.073,0.364,0.109,0.546C109.081,100.721,109.204,100.674,109.326,100.626z"/>
		<path style="fill:#F1B695;" d="M133.488,66.881c6.088-2.733,12.739-3.583,19.018-5.683c2.443-0.817,3.245,0.463,3.398,2.754
			c0.39,5.845-4.29,12.268-10.216,13.844c-6.183,1.644-13.158-1.282-15.884-6.524c-1.323-2.544-1.279-4.142,2.118-4.167
			c0.081,1.131-0.191,2.393,1.128,3.071c3.376,3.132,7.124,2.066,10.876,0.964l0.299-0.241l0.376,0.078
			c2.407,0.368,4.664-0.321,6.71-1.386c2.244-1.169,1.365-2.2-0.503-2.865c0.68-0.893,2.817-0.305,2.544-1.757
			c-0.361-1.921-2.118-0.935-3.25-0.713c-4.97,0.975-9.919,2.063-14.875,3.109C134.647,67.204,134.068,67.043,133.488,66.881z"/>
		<path style="fill:#ED443B;" d="M122.952,95.122c-5.679-1.169-7.023-3.46-5.948-10.141c1.788-6.382,1.107-13.541,5.967-18.955
			C122.964,75.725,122.958,85.424,122.952,95.122z"/>
		<path style="fill:#513727;" d="M135.226,67.365c4.956-1.047,9.904-2.135,14.875-3.109c1.132-0.222,2.889-1.208,3.25,0.713
			c0.273,1.452-1.864,0.864-2.544,1.757c-3.081-0.06-5.617,0.675-6.207,4.251l-0.376-0.078c0,0-0.299,0.241-0.299,0.241
			c-3.487-1.88-7.067-2.715-10.876-0.964c-1.319-0.678-1.047-1.94-1.128-3.071c0.236,0.003,0.463-0.041,0.683-0.131
			C133.364,67.877,134.211,68.186,135.226,67.365z"/>
		<path style="fill:#DE8062;" d="M135.226,67.365c-1.015,0.821-1.862,0.512-2.622-0.391c0.288-0.097,0.586-0.127,0.886-0.091
			C134.068,67.043,134.647,67.204,135.226,67.365z"/>
		<path style="fill:#F5BD9A;" d="M113.005,67.008c4.544,0.561,5.027,1.485,2.576,4.921c-3.483,4.883-9.343,7.155-14.826,5.748
			c-5.551-1.425-9.245-5.749-9.888-11.572l0.363-0.337c0.657,0.291,1.314,0.583,1.971,0.874c-0.232,5.419,4.2,3.69,6.951,4.536
			c0.919,0.261,1.838,0.521,2.757,0.782c3.015-0.728,6.749,2.162,9.12-1.811c1.197-0.784,0.968-2.015,0.99-3.166L113.005,67.008z"/>
		<path style="fill:#F1B695;" d="M90.867,66.104c-1.285-5.108-0.658-5.945,3.944-4.603c6.082,1.773,12.449,2.62,18.194,5.507
			c0,0,0.015-0.026,0.015-0.026c-1.356,0.758-2.68,0.676-4.201,0.299c-4.428-1.095-8.906-2.001-13.383-2.882
			c-1.578-0.311-3.646-1.648-4.206,1.368L90.867,66.104z"/>
		<path style="fill:#DE8062;" d="M111.805,101.581c7.398,0.62,14.691,1.929,22.133,1.65
			C126.334,105.438,118.954,104.706,111.805,101.581z"/>
		<path style="fill:#F69D75;" d="M109.326,100.626c-0.123,0.047-0.245,0.094-0.368,0.142c-0.036-0.182-0.073-0.364-0.109-0.546
			c0.135,0.025,0.292,0.015,0.395,0.086C109.313,100.355,109.302,100.516,109.326,100.626z"/>
		<path style="fill:#FDFAF8;" d="M144.6,70.977c0.59-3.576,3.126-4.311,6.207-4.251c1.869,0.665,2.747,1.696,0.503,2.865
			C149.265,70.656,147.007,71.345,144.6,70.977z"/>
		<path style="fill:#FDFAF8;" d="M133.05,70.176c3.809-1.751,7.388-0.916,10.876,0.964C140.174,72.242,136.426,73.307,133.05,70.176
			z"/>
		<path style="fill:#513727;" d="M91.23,65.767c0.559-3.017,2.628-1.679,4.206-1.368c4.478,0.881,8.955,1.787,13.383,2.882
			c1.521,0.376,2.845,0.458,4.201-0.299c-0.022,1.152,0.207,2.382-0.991,3.166c-3.2-0.197-6.939-3.118-9.119,1.811
			c-0.919-0.261-1.838-0.521-2.759-0.784c0.113-5.239-4.051-3.916-6.949-4.534C92.544,66.35,91.887,66.058,91.23,65.767z"/>
		<path style="fill:#FDFAF8;" d="M93.201,66.641c2.898,0.617,7.062-0.705,6.949,4.534C97.401,70.331,92.969,72.06,93.201,66.641z"/>
		<path style="fill:#FDFAF8;" d="M102.909,71.959c2.18-4.929,5.92-2.008,9.119-1.811C109.659,74.121,105.925,71.231,102.909,71.959z
			"/>
	</g>
</g>
</svg>
