<?xml version="1.0" encoding="iso-8859-1"?>
<!-- Generator: Adobe Illustrator 23.0.3, SVG Export Plug-In . SVG Version: 6.00 Build 0)  -->
<svg version="1.1" id="Layer_1" xmlns="http://www.w3.org/2000/svg" xmlns:xlink="http://www.w3.org/1999/xlink" x="0px" y="0px"
	 viewBox="0 0 250 250" style="enable-background:new 0 0 250 250;" xml:space="preserve">
<g>
	<g>
		<path style="fill:none;" d="M125,251c-41.333,0-82.667,0-124,0C1,167.667,1,84.333,1,1c82,0,164,0.027,246-0.096
			c3.424-0.005,4.101,0.672,4.096,4.096c-0.124,80.666-0.124,161.333,0,242c0.005,3.424-0.67,4.112-4.096,4.099
			C207.334,250.944,167.667,251,128,251c0.467-0.662,0.838-1.428,1.416-1.971c24.012-22.543,47.8-45.337,72.251-67.394
			c5.792-5.225,7.113-10.558,6.45-17.397c-0.032-0.33-0.108-0.656-0.163-0.984c0.072-4.493-0.032-8.997,0.278-13.473
			c0.214-3.094-0.83-4.27-3.918-4.933c-13.164-2.824-26.259-5.965-39.378-9.001c-4.071-0.942-8.788-1.055-9.126-6.924
			c-0.134-5.617-0.27-11.234-0.407-16.852c4.807-4.75,7.554-10.266,6.862-17.261c-0.172-1.736,0.478-3.554,0.75-5.334
			c7.159-2.447,9.27-8.693,10.625-15.04c1.749-8.187-2.252-11.504-10.17-9.01c0.384-9.121,0.74-18.244,1.157-27.364
			c0.811-17.714,0.766-17.579-15.811-24.808c-11.814-5.152-23.714-6.866-36.377-3.46c-8.661,2.33-17.247,4.84-25.668,7.887
			c-2.692,0.974-8.016,0.408-4.716,6.171c0.113,0.198-0.024,0.801-0.159,0.843c-3.801,1.163-1.934,4.174-1.699,6.203
			c1.339,11.539,2.979,23.043,4.515,34.557c-5.754-1.96-8.387-1.125-9.558,3.028c-2.229,7.905,3.675,18.79,11.683,21.542
			c0.101,1.819,0.38,3.649,0.272,5.455c-0.5,8.369,2.669,14.845,9.72,19.405c-0.239,0.265-0.233,0.525,0.019,0.781
			c-0.044,4.727-0.087,9.451-0.131,14.175c-1.452,2.689-3.739,3.75-6.728,4.443c-11.275,2.617-22.465,5.602-33.688,8.446
			c-13.248,3.357-13.249,3.356-12.253,17.471c-0.067,3.821,0.072,7.66-0.258,11.459c-0.332,3.824,1.02,6.371,3.925,8.949
			c20.389,18.101,40.668,36.329,60.809,54.705C114.12,240.42,120.431,244.808,125,251z"/>
		<path style="fill:#FDDC16;" d="M125,251c-4.569-6.192-10.88-10.58-16.475-15.685c-20.141-18.377-40.42-36.604-60.809-54.705
			c-2.905-2.579-4.256-5.126-3.925-8.949c0.329-3.798,0.191-7.637,0.258-11.459c9.858-2.304,19.76-4.441,29.554-6.992
			c3.925-1.022,6.542-0.505,9.535,2.583c13.314,13.737,27.032,27.082,40.432,40.737c2.464,2.511,3.765,2.472,6.205-0.015
			c12.813-13.066,25.871-25.891,38.715-38.926c2.129-2.16,3.959-2.69,6.962-1.926c10.78,2.74,21.659,5.092,32.5,7.591
			c0.055,0.328,0.131,0.654,0.163,0.984c0.663,6.839-0.658,12.172-6.45,17.397c-24.451,22.058-48.239,44.851-72.251,67.394
			c-0.579,0.543-0.949,1.309-1.416,1.971C127,251,126,251,125,251z"/>
		<path style="fill:#252121;" d="M207.953,163.254c-10.841-2.499-21.72-4.851-32.5-7.591c-3.003-0.764-4.833-0.234-6.962,1.926
			c-12.844,13.036-25.902,25.861-38.715,38.926c-2.439,2.488-3.741,2.526-6.205,0.015c-13.4-13.655-27.118-27-40.432-40.737
			c-2.994-3.089-5.61-3.606-9.535-2.583c-9.794,2.551-19.696,4.688-29.554,6.992c-0.996-14.115-0.996-14.113,12.253-17.471
			c11.223-2.844,22.412-5.829,33.688-8.446c2.989-0.694,5.277-1.755,6.731-4.444c4.518,3.117,9.542,5.285,14.51,7.503
			c3.819,1.705,6.489,4.054,8.1,8.077c1.306,3.264,2.532,6.746,5.162,9.63c2.051-2.939,3.605-5.827,4.747-8.94
			c2.189-4.942,6.237-7.661,11.045-9.736c5.266-2.272,10.357-4.951,15.524-7.452c0.34,5.87,5.057,5.982,9.128,6.924
			c13.118,3.036,26.214,6.177,39.378,9.001c3.088,0.663,4.132,1.838,3.918,4.933C207.922,154.257,208.026,158.762,207.953,163.254z"
			/>
		<path style="fill:#FDDC18;" d="M84.714,65.457c-1.538-11.516-3.177-23.02-4.516-34.559c-0.235-2.029-2.102-5.04,1.699-6.203
			c0.135-0.041,0.273-0.644,0.159-0.843c-3.3-5.763,2.024-5.197,4.716-6.171c8.422-3.047,17.007-5.558,25.668-7.887
			c12.663-3.406,24.563-1.691,36.377,3.46c16.577,7.229,16.622,7.094,15.811,24.808c-0.417,9.12-0.774,18.242-1.157,27.36
			c-0.97,3.55,0.309,7.301-0.95,10.829c-1.141-3.003-0.117-6.16-0.657-9.206c0.043-4.605-0.002-9.212,0.166-13.813
			c0.08-2.195-0.564-4.053-2.357-5.09c-3.329-1.925-4.06-4.804-3.715-8.269c0,0-0.04,0.104-0.04,0.104
			c0.295-0.297,0.589-0.594,0.884-0.89c0.224-1.139,0.37-2.301,0.689-3.412c0.655-2.279,0.22-3.033-2.343-2.329
			c-18.945,5.208-38.129,4.151-57.335,1.962c-5.494-0.626-5.614-0.551-3.974,4.996c-0.172,3.007,1.339,6.695-2.365,8.459
			c-4.5,2.143-4.875,5.771-4.479,9.953c0.312,3.296,0.531,6.6,0.791,9.901c-1.38,1.974,1.357,4.688-1.161,6.458
			C84.886,72.088,85.245,68.684,84.714,65.457z"/>
		<path style="fill:#F6BE9A;" d="M87.787,68.617c-0.26-3.301-0.479-6.605-0.791-9.901c-0.396-4.182-0.021-7.809,4.479-9.953
			c3.704-1.764,2.193-5.452,2.368-8.457c10.041,4.738,20.08,9.475,30.119,14.211c0,8.152,0,16.305,0,24.457
			c-1.734,0.125-3.667-0.419-3.997,2.416c-0.455,3.916-1.024,7.858-2.03,11.661c-1.489,5.63,1.578,8.139,6.061,9.95
			c-0.025,0.947-0.051,1.895-0.076,2.842c-1.738,0.349-3.66-0.32-5.227,0.955c-1.579,0.123-3.162,0.244-5.706,0.439
			c2.712,1.021,4.413,1.14,6.079,0.098c1.625,0.056,3.251,0.111,4.876,0.167c-0.021,9.075-0.042,18.15-0.063,27.225
			c-2.404,0.683-4.565-0.749-6.887-0.789c-2.515-1.843-5.121-3.516-7.331-5.808c-4.135-4.287-8.529-8.326-12.814-12.468
			c-0.251-0.254-0.258-0.513-0.017-0.78c0.014-6.946-0.651-13.975,0.197-20.816C98.305,83.761,94.216,75.879,87.787,68.617z
			 M106.009,78.964c3.384,0.501,6.203-0.448,8.305-3.236c2.388-0.918,1.689-2.651,1.558-5.115c-2.228,1.981-4.232,1.602-6.183,1.383
			c-4.459-0.501-8.902-1.135-13.364-1.608c-2.97-0.315-2.979-0.232-2.238,2.849C97.316,76.697,100.434,80.388,106.009,78.964z"/>
		<path style="fill:#CA5A40;" d="M116.994,133.939c2.321,0.039,4.483,1.471,6.887,0.79c4.958,0.625,9.811,0.257,13.451-3.517
			c5.752-5.963,11.205-12.215,16.784-18.345c0.429-0.265,0.858-0.531,1.287-0.796c0.136,5.617,0.272,11.235,0.407,16.852
			c-5.169,2.501-10.26,5.18-15.526,7.452c-4.808,2.074-8.856,4.793-11.045,9.735C124.662,142.551,120.614,138.46,116.994,133.939z"
			/>
		<path style="fill:#2D2827;" d="M87.787,68.617c6.429,7.262,10.518,15.144,9.242,25.451c-0.847,6.841-0.183,13.87-0.197,20.816
			c-7.052-4.558-10.22-11.035-9.721-19.404c0.108-1.807-0.171-3.636-0.272-5.455c-0.071-4.983-0.142-9.967-0.213-14.951
			C89.144,73.305,86.407,70.591,87.787,68.617z"/>
		<path style="fill:#D27154;" d="M116.994,133.939c3.62,4.521,7.668,8.611,12.244,12.171c-1.142,3.113-2.696,6.001-4.747,8.94
			c-2.63-2.884-3.856-6.366-5.162-9.63c-1.61-4.023-4.28-6.372-8.1-8.077c-4.967-2.218-9.992-4.386-14.51-7.503
			c0.041-4.724,0.085-9.448,0.129-14.174c4.286,4.14,8.679,8.178,12.814,12.465C111.874,130.423,114.479,132.096,116.994,133.939z"
			/>
		<path style="fill:#272222;" d="M155.403,112.071c-0.429,0.265-0.858,0.531-1.287,0.796c-0.042-6.162-0.26-12.33-0.075-18.485
			c0.179-5.954-0.916-11.964,0.667-17.865c0.21-0.361,0.421-0.721,0.633-1.082l-0.012-0.104c0.298-0.425,0.597-0.851,0.895-1.276
			c0.394-0.361,0.788-0.723,1.182-1.084c0.309-0.127,0.526-0.346,0.651-0.658c1.083-1.89,1.992-3.906,3.808-5.267
			c0.541,3.046-0.483,6.203,0.654,9.202c1.239,4.366-0.356,8.843,0.497,13.228c-0.272,1.78-0.922,3.598-0.75,5.334
			C162.957,101.805,160.211,107.321,155.403,112.071z"/>
		<path style="fill:#F28E69;" d="M86.626,75.075c0.071,4.984,0.142,9.967,0.213,14.951c-8.008-2.752-13.912-13.637-11.683-21.542
			c1.171-4.154,3.804-4.989,9.558-3.028C85.245,68.684,84.886,72.088,86.626,75.075z"/>
		<path style="fill:#F2926B;" d="M163.016,89.476c-0.853-4.385,0.742-8.862-0.497-13.228c1.262-3.525-0.017-7.276,0.953-10.825
			c7.918-2.491,11.918,0.826,10.17,9.014C172.286,80.783,170.175,87.029,163.016,89.476z"/>
		<path style="fill:#F59D75;" d="M161.865,67.046c-1.816,1.361-2.725,3.376-3.808,5.267c-2.042-1.87-4.239-1.994-7.038-1.698
			c-5.798,0.613-11.558,2.618-17.654,0.737c0.421,1.901-0.147,3.925,2.406,4.008c0.327,1.91,1.92,2.503,3.37,3.248
			c5.624,2.889,10.057-0.148,14.545-2.916c0.341,0.275,0.682,0.551,1.023,0.826c-1.584,5.9-0.489,11.91-0.668,17.865
			c-0.185,6.155,0.033,12.323,0.075,18.485c-5.579,6.13-11.032,12.382-16.784,18.345c-3.64,3.774-8.493,4.142-13.451,3.517
			c0.02-9.077,0.041-18.152,0.062-27.227c2.991-1.303,6.058,1.229,9.525,0.107c-3.301-2.007-6.487-1.503-9.548-1.765
			c0.025-0.947,0.051-1.895,0.076-2.842c0.352-0.017,0.703-0.034,1.055-0.051c4.812,0.23,6.975-2.165,6.999-6.877
			c0.022-4.335-1.247-8.486-1.659-12.73c-0.361-3.712-1.911-4.933-5.358-4.316c-0.357-0.018-0.713-0.036-1.07-0.054
			c0-8.152,0-16.305,0-24.457c2.248-0.123,4.004-1.483,5.951-2.365c8.744-3.961,17.034-8.884,26.046-12.278
			c-0.345,3.465,0.386,6.344,3.715,8.269c1.792,1.037,2.437,2.894,2.357,5.09C161.863,57.833,161.907,62.441,161.865,67.046z"/>
		<path style="fill:#272221;" d="M155.959,39.875c-9.011,3.394-17.302,8.317-26.046,12.278c-1.947,0.882-3.703,2.242-5.951,2.365
			c-10.039-4.737-20.078-9.473-30.119-14.212c-1.643-5.549-1.523-5.624,3.971-4.997c19.205,2.189,38.39,3.246,57.335-1.962
			c2.563-0.705,2.998,0.049,2.343,2.329c-0.319,1.112-0.465,2.273-0.688,3.411c-0.503,0.09-0.942,0.244-0.885,0.892L155.959,39.875z
			"/>
		<path style="fill:#F59D75;" d="M155.919,39.979c-0.057-0.648,0.383-0.802,0.885-0.892
			C156.508,39.385,156.214,39.682,155.919,39.979z"/>
		<path style="fill:#F28E69;" d="M123.963,78.975c0.357,0.018,0.713,0.036,1.07,0.054c0.006,7.974,0.013,15.948,0.019,23.922
			c-0.352,0.017-0.703,0.034-1.055,0.051c-4.483-1.811-7.55-4.32-6.061-9.95c1.006-3.803,1.575-7.745,2.03-11.661
			C120.295,78.556,122.229,79.099,123.963,78.975z"/>
		<path style="fill:#362F2E;" d="M94.087,73.237c-0.741-3.081-0.732-3.163,2.238-2.849c4.461,0.473,8.905,1.107,13.364,1.608
			c1.951,0.219,3.955,0.599,6.183-1.383c0.131,2.464,0.83,4.197-1.559,5.115c-3.509-1.607-6.305-0.866-8.3,2.518
			c-0.627-0.157-1.716-0.173-1.814-0.492C102.539,72.325,97.878,73.769,94.087,73.237z"/>
		<path style="fill:#F7F1ED;" d="M94.087,73.237c3.791,0.532,8.452-0.912,10.113,4.518c0.098,0.319,1.186,0.335,1.814,0.492
			c0.019,0.239,0.018,0.479-0.004,0.718C100.434,80.388,97.316,76.697,94.087,73.237z"/>
		<path style="fill:#FEFEFE;" d="M106.009,78.964c0.022-0.239,0.023-0.478,0.004-0.718c1.994-3.384,4.79-4.125,8.3-2.518
			C112.212,78.517,109.393,79.465,106.009,78.964z"/>
		<path style="fill:#CA5A40;" d="M123.921,105.844c3.061,0.261,6.247-0.243,9.548,1.765c-3.467,1.122-6.534-1.41-9.525-0.107
			c-1.625-0.055-3.25-0.111-4.876-0.166c-0.039-0.24-0.165-0.42-0.377-0.539C120.26,105.524,122.183,106.192,123.921,105.844z"/>
		<path style="fill:#D27154;" d="M119.068,107.336c-1.667,1.043-3.368,0.923-6.079-0.098c2.544-0.195,4.126-0.316,5.706-0.439
			C118.903,106.916,119.028,107.095,119.068,107.336z"/>
		<path style="fill:#362F2E;" d="M135.768,75.36c-2.55-0.084-1.982-2.108-2.403-4.008c6.095,1.881,11.856-0.125,17.654-0.737
			c2.8-0.296,4.996-0.172,7.038,1.698c-0.125,0.312-0.342,0.531-0.651,0.658c-1.149,0.146-2.297,0.293-3.446,0.439
			c-3.005,0.575-6.907-0.892-8.012,3.92c-0.251,1.091-2.516,1.262-2.912,0.301C141.433,73.738,138.509,75.034,135.768,75.36z"/>
		<path style="fill:#F6BE9A;" d="M153.96,73.41c1.149-0.146,2.297-0.293,3.446-0.439c-0.394,0.361-0.788,0.723-1.183,1.084
			c-0.649,0.18-0.975,0.586-0.895,1.276c0,0,0.012,0.104,0.011,0.103c-0.429-0.137-0.857-0.271-1.285-0.406
			C154.023,74.488,153.992,73.949,153.96,73.41z"/>
		<path style="fill:#F59D75;" d="M155.329,75.331c-0.08-0.69,0.246-1.096,0.895-1.276C155.925,74.48,155.627,74.905,155.329,75.331z
			"/>
		<path style="fill:#F59D75;" d="M154.055,75.027c0.428,0.135,0.856,0.27,1.285,0.406c-0.21,0.362-0.421,0.723-0.631,1.084
			c-0.339-0.275-0.68-0.55-1.02-0.824C153.778,75.454,153.899,75.231,154.055,75.027z"/>
		<path style="fill:#ED7853;" d="M125.052,102.951c-0.006-7.974-0.013-15.948-0.019-23.922c3.448-0.617,4.998,0.604,5.359,4.316
			c0.412,4.244,1.681,8.395,1.659,12.73C132.027,100.786,129.864,103.181,125.052,102.951z"/>
		<path style="fill:#F7F1ED;" d="M154.055,75.027c-0.155,0.204-0.277,0.426-0.366,0.666c-4.49,2.767-8.923,5.804-14.547,2.915
			c-1.45-0.745-3.043-1.338-3.37-3.248c2.738-0.325,5.662-1.622,7.265,2.271c0.396,0.961,2.661,0.79,2.912-0.301
			c1.105-4.812,5.007-3.345,8.012-3.92C153.992,73.949,154.023,74.488,154.055,75.027z"/>
	</g>
</g>
</svg>
