<?xml version="1.0" encoding="iso-8859-1"?>
<!-- Generator: Adobe Illustrator 23.0.3, SVG Export Plug-In . SVG Version: 6.00 Build 0)  -->
<svg version="1.1" id="Layer_1" xmlns="http://www.w3.org/2000/svg" xmlns:xlink="http://www.w3.org/1999/xlink" x="0px" y="0px"
	 viewBox="0 0 250 250" style="enable-background:new 0 0 250 250;" xml:space="preserve">
<g>
	<g>
		<path style="fill:none;" d="M123,251c-40.667,0-81.333,0-122,0C1,167.667,1,84.333,1,1c82,0,164,0.027,246-0.096
			c3.424-0.005,4.101,0.672,4.096,4.096c-0.124,80.666-0.124,161.333,0,242c0.005,3.424-0.67,4.111-4.096,4.099
			C206.334,250.946,165.667,251,125,251c0.809-0.807,1.563-1.68,2.436-2.412c24.988-20.956,49.99-41.894,74.979-62.849
			c1.86-1.56,3.918-2.789,3.825-5.911c-0.23-7.651-0.072-15.313-0.079-22.971c-0.001-1.484,0.253-3.178-2.121-2.997
			c-2.196-0.625-4.374-1.326-6.592-1.864c-14.105-3.422-28.219-6.807-42.329-10.205c-0.039-11.264-0.078-22.527-0.117-33.791
			c4.007-2.479,5.822-6.413,5.907-10.788c0.31-16.063,2.815-32.014,2.334-48.109c6.018-0.007,9.839-3.061,11.759-8.616
			c0.427-1.236,0.763-2.807-0.104-3.822c-0.902-1.055-2.115,0.203-3.131,0.472c-2.688,0.713-5.22,2.116-8.148,1.605
			c-0.039-2.822-0.403-5.686-0.049-8.458c0.75-5.873-1.54-10.185-5.808-13.983C148.069,7.676,136.621,4.289,123.9,4.405
			c-10.894-0.287-21.084,2.031-29.924,8.662c-5.885,4.415-10.553,9.559-9.054,17.911c0.46,2.561,0.026,5.283,0.001,7.931
			c-3.585,0.266-6.803-1.167-10.117-2.167c-1.13-0.341-1.144-0.296-2.122,1.201c0.834,6.536,3.283,9.782,9.515,10.72
			c3.235,0.487,3.569,1.936,3.646,4.454c0.401,13.266,0.901,26.529,1.3,39.795c0.177,5.879,0.453,11.679,5.299,15.99
			c0.006,3.13,0.124,6.264-0.003,9.388c-0.333,8.199,0.848,16.437-0.635,24.605c-14.734,3.245-29.397,6.773-43.873,11.04
			c-2.861,0.192-1.697,2.416-1.717,3.773c-0.11,7.485,0.098,14.977-0.127,22.457c-0.09,3.003,1.001,4.901,3.198,6.77
			c11.142,9.48,22.202,19.058,33.237,28.664C96.043,227.367,109.51,239.197,123,251z"/>
		<path style="fill:#BE212F;" d="M204.04,153.86c2.374-0.181,2.119,1.513,2.121,2.997c0.007,7.658-0.151,15.32,0.079,22.971
			c0.094,3.121-1.965,4.351-3.825,5.911c-24.989,20.955-49.991,41.893-74.979,62.849c-0.873,0.732-1.626,1.605-2.436,2.412
			c-0.333,0-0.667,0-1,0c-0.018-16.311-0.035-32.621-0.053-48.932c12.994-7.684,26.036-15.287,38.968-23.073
			C176.678,170.707,190.336,162.245,204.04,153.86z"/>
		<path style="fill:#7D1424;" d="M123.947,202.068c0.018,16.311,0.035,32.621,0.053,48.932c-0.333,0-0.667,0-1,0
			c-13.49-11.803-26.957-23.633-40.478-35.402c-11.035-9.605-22.094-19.184-33.237-28.664c-2.197-1.869-3.288-3.767-3.198-6.77
			c0.225-7.48,0.017-14.972,0.127-22.457c0.02-1.357-1.144-3.581,1.718-3.773c15.345,9.855,30.65,19.77,46.046,29.543
			c9.924,6.299,19.982,12.389,29.98,18.573L123.947,202.068z"/>
		<path style="fill:#BD2230;" d="M123.9,4.405c12.721-0.116,24.169,3.272,33.862,11.897c4.267,3.798,6.558,8.109,5.808,13.983
			c-0.354,2.772,0.01,5.636,0.048,8.458c-2.315,1.499-5.168,2.667-5.112,6.025c0.049,2.913,2.706,3.371,4.736,4.335
			c0.481,16.094-2.024,32.046-2.334,48.109c-0.084,4.375-1.899,8.309-5.907,10.788c0,0,0.033,0.019,0.033,0.019
			c0.492-6.387,1.931-12.73,0.278-19.192c-0.583-2.28-1.176-3.013-3.622-2.197c-5.829,1.945-11.758,1.477-17.592-0.13
			c-2.225-0.613-3.279-0.59-3.261,2.297c0.035,5.751-1.929,7.37-7.821,7.17C123.129,65.445,124.596,34.935,123.9,4.405z
			 M153.698,65.825c-7.811,1.61-15.453,3.184-23.771,4.899C141.66,77.548,152.607,74.578,153.698,65.825z"/>
		<path style="fill:#7D1426;" d="M123.9,4.405c0.696,30.53-0.772,61.04-0.884,91.563c-3.887-0.572-6.555-2.446-6.033-6.738
			c0.425-3.501-0.89-3.363-3.581-2.601c-5.679,1.608-11.552,1.904-17.18,0.053c-3.034-0.998-3.421,0.48-3.806,2.564
			c-1.164,6.298-0.522,12.544,0.638,18.768c-0.203,0.296-0.406,0.592-0.609,0.887c-4.846-4.311-5.122-10.11-5.299-15.99
			c-0.399-13.266-0.899-26.529-1.3-39.795c-0.076-2.518-0.41-3.967-3.646-4.454c-6.232-0.938-8.681-4.185-9.515-10.72
			c3.008,2.649,5.459,6.254,10.125,6.108c1.929-0.06,4.658,0.727,5.402-1.323c0.6-1.653-1.728-2.88-3.288-3.819
			c0.025-2.648,0.459-5.37-0.001-7.931c-1.499-8.352,3.169-13.496,9.054-17.911C102.817,6.436,113.006,4.118,123.9,4.405z
			 M116.696,70.787c-8.417-1.742-16.004-3.313-23.796-4.926C94.087,75.226,105.677,76.958,116.696,70.787z"/>
		<path style="fill:#C7354F;" d="M204.04,153.86c-13.704,8.385-27.362,16.847-41.125,25.134
			c-12.932,7.787-25.974,15.389-38.968,23.073c0,0.001,0.011-0.018,0.011-0.018c0.016-12.016,0.031-24.032,0.047-36.048
			l-0.007,0.001c2.796-0.133,5.482-0.917,8.308-1.099c13.711-0.883,22.352-9.791,22.812-23.112
			c14.111,3.398,28.224,6.783,42.329,10.205C199.666,152.534,201.844,153.235,204.04,153.86z"/>
		<path style="fill:#BD2330;" d="M124.005,166.001c-0.016,12.016-0.031,24.032-0.047,36.048
			c-9.998-6.183-20.056-12.273-29.98-18.573c-15.396-9.773-30.702-19.688-46.046-29.543c14.476-4.266,29.139-7.795,43.873-11.04
			c0.944,0.6,1.241,1.529,1.165,2.56c-0.501,6.776,3.128,11.025,8.431,14.53C108.31,164.55,116.227,164.923,124.005,166.001z"/>
		<path style="fill:#A91F31;" d="M124.005,166.001c-7.778-1.078-15.696-1.451-22.604-6.017c-5.304-3.505-8.933-7.754-8.431-14.53
			c0.076-1.031-0.221-1.96-1.165-2.56c1.484-8.168,0.302-16.406,0.636-24.605c0.127-3.124,0.009-6.259,0.003-9.388
			c0.203-0.296,0.406-0.591,0.609-0.888c4.414,7.37,11.852,11.853,17.366,18.176c3.578,4.103,8.082,6.184,13.575,5.978
			c0.002,11.279,0.003,22.557,0.005,33.836L124.005,166.001z"/>
		<path style="fill:#BD202E;" d="M123.999,166.002c-0.002-11.279-0.003-22.557-0.005-33.836c4.637-0.163,9.483,0.157,12.974-3.723
			c6.078-6.757,12.641-13.09,18.067-20.424c0,0-0.033-0.019-0.033-0.019c0.039,11.264,0.078,22.527,0.117,33.791
			c-0.46,13.322-9.101,22.23-22.812,23.112C129.481,165.085,126.795,165.869,123.999,166.002z"/>
		<path style="fill:#BC3A4C;" d="M163.243,49.103c-2.03-0.964-4.687-1.422-4.736-4.335c-0.057-3.358,2.797-4.526,5.112-6.025
			c2.929,0.51,5.46-0.892,8.148-1.605c1.016-0.27,2.23-1.527,3.131-0.472c0.867,1.014,0.531,2.586,0.104,3.822
			C173.081,46.042,169.261,49.096,163.243,49.103z"/>
		<path style="fill:#CB3E4E;" d="M84.924,38.909c1.561,0.939,3.888,2.166,3.288,3.819c-0.744,2.051-3.473,1.263-5.402,1.323
			c-4.666,0.146-7.117-3.459-10.125-6.108c0.978-1.498,0.992-1.543,2.122-1.202C78.121,37.742,81.339,39.175,84.924,38.909z"/>
		<path style="fill:#F4BD9A;" d="M155.034,108.019c-5.426,7.334-11.988,13.667-18.067,20.424c-3.491,3.881-8.337,3.56-12.974,3.723
			c-5.493,0.205-9.997-1.875-13.575-5.978c-5.515-6.323-12.952-10.806-17.366-18.176c-1.16-6.223-1.802-12.469-0.638-18.767
			c0.385-2.084,0.772-3.561,3.806-2.564c5.629,1.851,11.501,1.556,17.18-0.053c2.691-0.762,4.007-0.9,3.581,2.601
			c-0.521,4.292,2.147,6.165,6.033,6.738c5.892,0.2,7.856-1.419,7.821-7.17c-0.018-2.886,1.036-2.909,3.261-2.297
			c5.835,1.607,11.763,2.074,17.592,0.13c2.446-0.816,3.038-0.083,3.622,2.197C156.965,95.289,155.526,101.632,155.034,108.019z
			 M111.014,101.981c-0.368-0.251-0.733-0.507-1.114-0.737c-0.013-0.008-0.18,0.239-0.275,0.367
			c0.452,0.136,0.905,0.271,1.357,0.407c1.034,1.311,2.444,1.813,4.054,1.889c6.193,1.721,12.443,1.076,18.708,0.273
			c-6.248-0.464-12.496-0.929-18.743-1.393C113.866,101.558,112.392,102.009,111.014,101.981z"/>
		<path style="fill:#F9EDEE;" d="M153.698,65.825c-1.092,8.753-12.039,11.723-23.771,4.899
			C138.245,69.01,145.888,67.435,153.698,65.825z"/>
		<path style="fill:#F4ECED;" d="M116.696,70.787c-11.02,6.171-22.609,4.439-23.796-4.926
			C100.692,67.474,108.279,69.044,116.696,70.787z"/>
		<path style="fill:#DD7D5F;" d="M115,102.788c6.248,0.464,12.496,0.929,18.743,1.393c-6.266,0.803-12.515,1.448-18.709-0.272
			C115.023,103.535,115.012,103.161,115,102.788z"/>
		<path style="fill:#E38E6F;" d="M115,102.788c0.012,0.374,0.023,0.747,0.035,1.12c-1.609-0.077-3.02-0.579-4.053-1.89l0.033-0.038
			C112.392,102.009,113.866,101.558,115,102.788z"/>
		<path style="fill:#E38E6F;" d="M110.982,102.018c-0.452-0.136-0.905-0.271-1.357-0.407c0.095-0.128,0.262-0.375,0.275-0.367
			c0.381,0.23,0.746,0.485,1.115,0.736C111.014,101.98,110.982,102.018,110.982,102.018z"/>
	</g>
</g>
</svg>
