<?xml version="1.0" encoding="iso-8859-1"?>
<!-- Generator: Adobe Illustrator 23.0.3, SVG Export Plug-In . SVG Version: 6.00 Build 0)  -->
<svg version="1.1" id="Layer_1" xmlns="http://www.w3.org/2000/svg" xmlns:xlink="http://www.w3.org/1999/xlink" x="0px" y="0px"
	 viewBox="0 0 250 250" style="enable-background:new 0 0 250 250;" xml:space="preserve">
<g>
	<g>
		<path style="fill:transparent" d="M123,251c-40.667,0-81.333,0-122,0C1,167.667,1,84.333,1,1c82,0,164,0.027,246-0.096
			c3.424-0.005,4.101,0.672,4.096,4.096c-0.124,80.666-0.124,161.333,0,242c0.005,3.424-0.67,4.111-4.096,4.099
			C206.334,250.946,165.667,251,125,251c0.166,0,0.392,0.071,0.49-0.011c25.584-21.433,51.15-42.888,76.761-64.289
			c1.434-1.198,1.958-2.46,1.942-4.264c-0.067-7.48-0.096-14.963,0.011-22.442c0.034-2.379-0.795-3.412-3.171-3.098
			c-14.64-3.541-29.281-7.082-43.921-10.622c-0.337-0.167-0.674-0.333-1.011-0.5c-0.183-10.959-0.366-21.918-0.549-32.877
			c0.092-0.931,0.183-1.862,0.275-2.794c6.106-6.84,8.529-14.938,8.192-23.979c7.175-1.412,12.639-8.625,12.997-17.137
			c0.135-3.204,0.23-6.494-2.994-8.358c-3.123-1.806-5.668,0.204-8.19,1.785c-1.289-1.231-0.704-2.96-1.173-4.41
			c0.357-8.434,0.597-16.875,1.096-25.301c0.997-16.819,1.093-16.901-14.489-23.58c-8.362-3.584-16.807-7.12-26.277-5.979
			c-1.636,0.137-3.287,0.176-4.906,0.428c-12.3,1.914-23.908,6.269-35.715,9.97c-3.669,1.15-4.128,2.42-2.193,5.3
			c-0.439,0.444-0.878,0.888-1.317,1.332c-2.398,0.973-0.922,2.902-0.761,4.186c1.57,12.546,3.335,25.068,5.044,37.596
			c-0.106,0.325-0.211,0.651-0.317,0.976c-5.788-3.959-9.153-3.868-11.174,0.304c-4.012,8.283,4.12,22.194,13.339,22.818
			c-0.092,8.965,0.314,17.762,8.121,24.061c-0.006,0.945-0.012,1.89-0.017,2.836c-0.053,11.026-0.106,22.052-0.159,33.078
			c-14.046,3.447-28.082,6.933-42.145,10.309c-2.692,0.646-3.802,1.867-3.706,4.796c0.223,6.826,0.251,13.67-0.004,20.493
			c-0.13,3.471,0.926,5.738,3.626,8.043c22.542,19.257,44.933,38.691,67.343,58.102C121.142,248.72,122.631,249.369,123,251z"/>
		<path style="fill:#4F7047;" d="M123,251c-0.369-1.631-1.858-2.28-2.949-3.225c-22.41-19.411-44.801-38.845-67.343-58.102
			c-2.699-2.306-3.755-4.573-3.626-8.043c0.255-6.823,0.227-13.668,0.004-20.493c-0.096-2.929,1.013-4.15,3.706-4.796
			c14.063-3.376,28.099-6.861,42.145-10.308c0.937,7.74,6.271,11.747,12.691,14.692c5.183,2.378,10.8,3.076,16.41,3.69
			c-0.009,4.744-0.242,9.502,0.06,14.226c0.175,2.738-0.933,4.207-3.096,5.322c-3.968,1.913-8.649,2.728-10.988,7.146
			c-7.144,6.408-8.379,17.562-3.05,26.196c3.738,6.057,9.52,8.841,16.06,10.549c2.132,7.639,0.447,15.44,0.976,23.147
			C123.667,251,123.333,251,123,251z"/>
		<path style="fill:#3F6438;" d="M124,251c-0.529-7.707,1.157-15.507-0.976-23.146c0.688-0.112,1.377-0.223,2.065-0.335
			c5.067,0.437,9.46-1.363,13.428-4.27c9.322-6.83,11.118-17.117,5.324-29.884c0.738-0.63,1.405-1.375,2.223-1.872
			c17.355-10.535,34.727-21.044,52.099-31.551c1.246-0.754,2.848-1.147,2.869-3.044c2.376-0.314,3.205,0.719,3.171,3.098
			c-0.106,7.479-0.078,14.962-0.011,22.442c0.016,1.803-0.508,3.066-1.942,4.264c-25.611,21.401-51.177,42.856-76.761,64.289
			c-0.098,0.082-0.324,0.011-0.49,0.011C124.667,251,124.333,251,124,251z"/>
		<path style="fill:#F6BF9B;" d="M95.113,110.118c-7.808-6.299-8.213-15.096-8.122-24.061c0.428-2.379-0.908-5.013,1.036-7.173
			c9.732,5.285,18.089,13.476,29.985,14.188c1.36,4.055,4.025,6.026,8.455,6.054c4.262,0.027,5.709-2.58,6.714-5.948
			c8.378-1.645,16.051-4.811,22.838-10.119c2.458-1.923,5.298-3.359,7.963-5.017c0.013,2.695,0.025,5.389,0.038,8.084
			c0.337,9.041-2.086,17.139-8.192,23.979c-6.069,3.667-9.914,9.59-14.484,14.702c-7.544,8.439-20.926,9.203-29.149,1.242
			C106.601,120.635,100.814,115.421,95.113,110.118z M116.103,103.061c-1.03-0.018-2.556,0.24-2.317,1.188
			c0.33,1.309,1.474,0.609,2.198-0.147c5.691,0.049,11.382,0.097,17.073,0.146c1.288,1.023,2.597,1.174,4.354,0.019
			c-1.694-0.509-3.028-0.91-4.363-1.311C127.389,101.381,121.745,102.13,116.103,103.061z"/>
		<path style="fill:#3B5A33;" d="M201.034,156.897c-0.021,1.897-1.623,2.29-2.869,3.044c-17.373,10.507-34.744,21.016-52.099,31.551
			c-0.818,0.497-1.486,1.242-2.223,1.872c-5.095-5.474-10.663-9.994-18.807-9.308c-1.344-0.031-2.688-0.063-4.032-0.094
			c2.163-1.115,3.271-2.584,3.096-5.322c-0.302-4.724-0.069-9.482-0.061-14.226c0.335-0.145,0.67-0.29,1.004-0.435
			c5.886,0.431,11.534-0.675,16.978-2.813c6.93-2.722,12.54-6.767,13.946-14.747c0.382-0.048,0.764-0.096,1.146-0.144
			C171.753,149.816,186.393,153.356,201.034,156.897z"/>
		<path style="fill:#472B1B;" d="M85.143,61.959c-1.709-12.529-3.474-25.05-5.044-37.596c-0.161-1.284-1.637-3.213,0.761-4.186
			c0.562,0.578,1.292,1.15,1.955,0.454c0.695-0.729,0.069-1.358-0.639-1.786c-1.935-2.88-1.476-4.15,2.193-5.3
			c11.807-3.701,23.415-8.056,35.715-9.97c1.618-0.252,3.27-0.29,4.906-0.428c-0.008,9.678-0.016,19.357-0.024,29.035
			c-9.146,0.487-18.267-0.185-27.28-1.49c-4.444-0.644-5.069,0.268-4.223,4.395c0.577,2.816,2.533,6.759-1.148,8.598
			c-5.973,2.985-5.619,7.806-4.978,13.008C86.607,58.448,85.875,60.204,85.143,61.959z"/>
		<path style="fill:#5B3521;" d="M124.966,32.182c0.008-9.678,0.016-19.357,0.024-29.035c9.47-1.142,17.915,2.395,26.277,5.979
			c15.582,6.679,15.486,6.761,14.489,23.58c-0.499,8.426-0.739,16.867-1.096,25.3c-0.564-0.336-1.127-0.671-1.691-1.007
			c0.01-1.987,0.116-3.98,0.006-5.96c-0.133-2.393,1.098-5.615-1.489-6.89c-5.512-2.716-4.157-6.932-3.39-11.289
			c0.261-1.483,1.506-3.02,0.182-4.622C147.352,31.407,136.278,32.804,124.966,32.182z"/>
		<path style="fill:#F59E76;" d="M155.966,146.419c-1.406,7.981-7.015,12.026-13.946,14.747c-5.444,2.138-11.092,3.243-16.979,2.813
			c-0.03-9.83-0.06-19.661-0.089-29.491c7.446,0.481,13.44-1.862,18.164-8.018c3.721-4.85,8.26-9.071,12.436-13.572
			c0.183,10.959,0.366,21.918,0.55,32.877C156.043,145.987,155.997,146.201,155.966,146.419z"/>
		<path style="fill:#507146;" d="M162.969,56.999c0.564,0.335,1.127,0.671,1.691,1.007c0.468,1.45-0.116,3.179,1.172,4.41
			c1.143,5.417-0.886,10.459-1.85,15.627c-2.665,1.658-5.505,3.094-7.963,5.017c-6.787,5.308-14.46,8.474-22.84,10.12
			c-2.722-0.066-5.442-0.133-8.162-0.199c-0.009-7.991-0.019-15.982-0.028-23.973c0.003-3.662,0.005-7.324,0.008-10.985
			C137.623,56.523,150.112,49.917,162.969,56.999z M151.959,65.826c-0.669-0.886-1.313-0.88-1.931,0.053
			c-4.859,0.119-9.702,0.963-14.577,0.301c-1.6-0.016-3.596-0.856-4.565,0.869c-0.924,1.645,0.634,3.143,1.469,4.437
			c2.02,3.134,5.27,4.98,8.388,6.761c2.608,1.489,4.541-1.206,6.769-1.994c4.828-1.708,9.648-3.521,13.199-7.5
			c0.74-0.829,2.164-1.512,1.752-2.756c-0.553-1.671-2.261-0.798-3.472-0.985c-0.647-0.1-1.321-0.022-1.982-0.024
			c-0.139-0.076-0.277-0.152-0.416-0.227c0.131,0.083,0.262,0.166,0.393,0.249c0.081,0.234,0.108,0.475,0.081,0.721
			C155.365,65.762,153.662,65.794,151.959,65.826z"/>
		<path style="fill:#F4BD99;" d="M124.953,134.488c0.03,9.83,0.059,19.661,0.089,29.491c-0.334,0.145-0.669,0.29-1.004,0.435
			c-5.609-0.614-11.226-1.312-16.41-3.69c-6.42-2.945-11.754-6.952-12.691-14.692c0.052-11.026,0.105-22.052,0.158-33.079
			c4.954,4.827,10.099,9.478,14.805,14.536C114.057,131.957,118.67,134.869,124.953,134.488z"/>
		<path style="fill:#3F6438;" d="M124.997,58.022c-0.003,3.662-0.005,7.324-0.008,10.985c-1.844,0.09-1.828,1.502-2.133,2.821
			c-1.605,6.93-3.282,13.844-4.934,20.764l0.09,0.48c-11.896-0.712-20.253-8.903-29.984-14.187
			c-2.876-4.953-3.563-10.346-3.202-15.95c0.106-0.325,0.211-0.651,0.317-0.976c0.732-1.755,1.463-3.51,2.194-5.267
			c2.687,0.802,4.737-1.11,7.101-1.683c2.544-0.617,4.79-2.436,7.637-1.831C109.714,54.8,117.356,56.408,124.997,58.022z
			 M115.614,66.175c-7.519-0.02-15.038-0.039-22.557-0.059c-0.972-1.272-2.327-1.596-3.412-0.533
			c-1.309,1.282-0.059,2.401,0.825,3.366c3.483,3.804,8.15,5.562,12.826,7.229c2.693,0.96,5.043,4.08,8.461,1.034
			c2.303-2.053,5.204-3.269,6.928-6.177C121.117,66.93,119.489,65.99,115.614,66.175z"/>
		<path style="fill:#F59E76;" d="M84.826,62.935c-0.361,5.604,0.325,10.997,3.202,15.95c-1.944,2.159-0.609,4.793-1.037,7.172
			c-9.219-0.624-17.351-14.535-13.339-22.818C75.674,59.067,79.039,58.976,84.826,62.935z"/>
		<path style="fill:#F59E76;" d="M163.982,78.042c0.964-5.168,2.993-10.21,1.85-15.627c2.522-1.58,5.067-3.59,8.191-1.785
			c3.223,1.863,3.128,5.154,2.994,8.358c-0.358,8.511-5.821,15.725-12.997,17.137C164.007,83.431,163.994,80.736,163.982,78.042z"/>
		<path style="fill:#BE5E44;" d="M124.953,134.488c-6.283,0.381-10.896-2.53-15.053-6.998c-4.706-5.059-9.851-9.709-14.805-14.536
			c0.006-0.945,0.012-1.89,0.018-2.835c5.701,5.303,11.489,10.517,17.082,15.931c8.223,7.96,21.605,7.196,29.149-1.242
			c4.57-5.111,8.415-11.035,14.484-14.702c-0.092,0.931-0.183,1.862-0.275,2.793c-4.176,4.5-8.716,8.721-12.436,13.571
			C138.393,132.626,132.399,134.968,124.953,134.488z"/>
		<path style="fill:#B1B5B3;" d="M82.177,18.845c0.707,0.428,1.334,1.057,0.639,1.786c-0.663,0.695-1.393,0.124-1.955-0.454
			C81.299,19.733,81.738,19.289,82.177,18.845z"/>
		<path style="fill:#B1B5B3;" d="M155.966,146.419c0.031-0.218,0.076-0.432,0.136-0.644c0.337,0.166,0.674,0.333,1.011,0.5
			C156.731,146.323,156.349,146.371,155.966,146.419z"/>
		<path style="fill:#C8CACA;" d="M125.09,227.518c-0.688,0.112-1.377,0.224-2.065,0.335c-6.54-1.708-12.321-4.493-16.06-10.549
			c-5.329-8.634-4.093-19.787,3.05-26.196c0.264,0.306,0.529,0.611,0.793,0.917c0.457,2.883,3.089,2.717,5.223,3.242
			c-5.747,8.263-5.716,12.223,0.134,21.437c-2.733,0.078-5.644,0.042-4.944,4.468c4.55,0,9.18,0,13.811,0
			C125.051,223.288,125.07,225.403,125.09,227.518z"/>
		<path style="fill:#B1B5B3;" d="M110.808,192.026c-0.264-0.306-0.529-0.612-0.793-0.917c2.338-4.418,7.02-5.233,10.988-7.146
			c1.344,0.031,2.688,0.063,4.032,0.094c-0.001,2.196-0.76,4.511,1.007,6.43c-2.145,0.063-4.313-0.049-6.429,0.233
			C116.674,191.111,113.402,189.363,110.808,192.026z"/>
		<path style="fill:#E9E9E9;" d="M126.042,190.486c-1.767-1.919-1.007-4.234-1.007-6.43c8.144-0.686,13.712,3.833,18.807,9.308
			c5.794,12.768,3.998,23.055-5.324,29.884c-3.968,2.907-8.361,4.707-13.428,4.27c-0.019-2.115-0.039-4.23-0.058-6.345
			c4.937,0,9.873,0,14.744,0c0.529-4.364-2.275-4.421-5.432-4.459c6.32-7.278,6.398-14.327,0.356-21.553
			c1.002-0.158,1.617-0.351,2.225-0.333c2.259,0.066,3.024-1.567,2.831-3.201c-0.224-1.894-2.14-0.978-3.281-1.028
			C133.002,190.447,129.52,190.508,126.042,190.486z"/>
		<path style="fill:#F59E76;" d="M125.017,92.98c2.72,0.066,5.44,0.133,8.162,0.199c-1.003,3.368-2.451,5.975-6.712,5.948
			c-4.43-0.028-7.094-1.999-8.455-6.054c0,0-0.091-0.48-0.091-0.48C120.287,92.721,122.652,92.85,125.017,92.98z"/>
		<path style="fill:#BE5E44;" d="M133.056,104.248c-5.691-0.049-11.382-0.097-17.072-0.146c0.04-0.347,0.08-0.694,0.119-1.04
			c5.642-0.931,11.286-1.681,16.944-0.105C133.05,103.387,133.053,103.817,133.056,104.248z"/>
		<path style="fill:#F59E76;" d="M133.056,104.248c-0.003-0.43-0.006-0.861-0.009-1.292c1.335,0.401,2.67,0.802,4.363,1.311
			C135.653,105.422,134.344,105.271,133.056,104.248z"/>
		<path style="fill:#F59E76;" d="M116.103,103.061c-0.04,0.347-0.079,0.693-0.119,1.04c-0.724,0.757-1.868,1.457-2.198,0.148
			C113.547,103.302,115.073,103.043,116.103,103.061z"/>
		<path style="fill:#F4BD99;" d="M124.997,58.022c-7.641-1.614-15.283-3.222-22.922-4.845c-2.847-0.605-5.093,1.215-7.637,1.831
			c-2.364,0.573-4.414,2.485-7.101,1.683c-0.64-5.202-0.994-10.022,4.978-13.007c3.681-1.839,1.725-5.782,1.148-8.598
			c-0.846-4.127-0.221-5.039,4.223-4.395c9.013,1.305,18.133,1.977,27.28,1.49c11.311,0.622,22.386-0.775,33.312-3.944
			c1.323,1.602,0.079,3.139-0.182,4.622c-0.768,4.356-2.122,8.573,3.39,11.289c2.587,1.275,1.356,4.497,1.489,6.89
			c0.11,1.98,0.004,3.973-0.006,5.96C150.112,49.917,137.623,56.523,124.997,58.022z"/>
		<path style="fill:#3B5A33;" d="M157.067,65.731c0.027-0.246-0.001-0.487-0.081-0.721l0.023-0.022
			c0.662,0.002,1.336-0.076,1.982,0.024c1.211,0.187,2.919-0.685,3.472,0.985c0.412,1.244-1.012,1.927-1.752,2.756
			c-3.552,3.979-8.372,5.793-13.199,7.5c-2.228,0.788-4.161,3.484-6.769,1.994c-3.119-1.781-6.368-3.627-8.388-6.761
			c-0.835-1.295-2.393-2.792-1.469-4.437c0.969-1.725,2.965-0.885,4.565-0.869c0.812,2.929,2.259,6.422,5.518,5.525
			c5.511-1.517,12.592,1.612,16.428-5.113C157.494,66.423,157.186,66.023,157.067,65.731z"/>
		<path style="fill:#3B5A33;" d="M125.017,92.98c-2.365-0.129-4.731-0.259-7.096-0.388c1.652-6.92,3.329-13.833,4.934-20.764
			c0.305-1.319,0.289-2.731,2.133-2.821C124.998,76.998,125.008,84.989,125.017,92.98z"/>
		<path style="fill:#FEFEFE;" d="M157.067,65.731c0.119,0.293,0.427,0.693,0.33,0.862c-3.836,6.725-10.917,3.596-16.428,5.113
			c-3.259,0.897-4.706-2.596-5.518-5.525c4.875,0.662,9.718-0.182,14.577-0.301c0.644-0.018,1.287-0.036,1.931-0.053
			C153.662,65.794,155.365,65.762,157.067,65.731z"/>
		<path style="fill:#3F6438;" d="M151.959,65.826c-0.644,0.018-1.287,0.036-1.931,0.053C150.646,64.946,151.29,64.94,151.959,65.826
			z"/>
		<path style="fill:#3B5A33;" d="M156.986,65.01c-0.131-0.083-0.262-0.166-0.393-0.249c0.139,0.076,0.277,0.152,0.416,0.227
			C157.009,64.988,156.986,65.01,156.986,65.01z"/>
		<path style="fill:#3B5A33;" d="M115.614,66.175c3.875-0.185,5.503,0.755,3.07,4.858c-1.724,2.909-4.624,4.125-6.928,6.177
			c-3.419,3.046-5.769-0.073-8.461-1.034c-4.675-1.667-9.343-3.425-12.826-7.229c-0.883-0.965-2.133-2.084-0.825-3.366
			c1.085-1.063,2.44-0.738,3.412,0.533c0.84,2.878,2.708,4.159,5.754,4.268c2.608,0.094,5.274,0.446,7.777,1.165
			C111.664,73.006,114.277,70.771,115.614,66.175z"/>
		<path style="fill:#E9E9E9;" d="M115.614,66.175c-1.337,4.596-3.95,6.831-9.027,5.374c-2.503-0.718-5.169-1.071-7.777-1.165
			c-3.046-0.109-4.914-1.39-5.754-4.268C100.576,66.136,108.095,66.155,115.614,66.175z"/>
		<path style="fill:#18241A;" d="M126.042,190.486c3.478,0.022,6.96-0.04,10.433,0.112c1.141,0.05,3.057-0.866,3.281,1.028
			c0.193,1.634-0.572,3.267-2.831,3.201c-0.609-0.018-1.224,0.175-2.225,0.333c6.042,7.226,5.965,14.275-0.356,21.553
			c3.158,0.038,5.962,0.095,5.432,4.459c-4.871,0-9.808,0-14.744,0c-4.63,0-9.261,0-13.811,0c-0.7-4.426,2.211-4.391,4.944-4.468
			c-5.85-9.214-5.881-13.174-0.134-21.437c-2.134-0.525-4.766-0.359-5.223-3.242c2.594-2.663,5.866-0.915,8.805-1.306
			C121.729,190.437,123.897,190.55,126.042,190.486z M124.896,196.789c-5.317,0.699-8.789,4.154-8.884,8.84
			c-0.099,4.89,3.378,8.469,9.009,9.274c5.942-0.219,9.937-3.939,9.898-9.216C134.881,200.439,130.792,196.809,124.896,196.789z"/>
		<path style="fill:#E9E9E9;" d="M124.896,196.789c5.895,0.02,9.984,3.651,10.023,8.899c0.039,5.277-3.957,8.997-9.898,9.216
			C124.98,208.865,124.938,202.827,124.896,196.789z"/>
		<path style="fill:#C8CACA;" d="M124.896,196.789c0.042,6.038,0.083,12.077,0.125,18.115c-5.631-0.805-9.108-4.384-9.009-9.274
			C116.108,200.943,119.58,197.488,124.896,196.789z"/>
	</g>
</g>
</svg>
