<?xml version="1.0" encoding="iso-8859-1"?>
<!-- Generator: Adobe Illustrator 23.0.3, SVG Export Plug-In . SVG Version: 6.00 Build 0)  -->
<svg version="1.1" id="Layer_1" xmlns="http://www.w3.org/2000/svg" xmlns:xlink="http://www.w3.org/1999/xlink" x="0px" y="0px"
	 viewBox="0 0 250 250" style="enable-background:new 0 0 250 250;" xml:space="preserve">
<g>
	<g>
		<path style="fill:none;" d="M124,251c-41,0-82,0-123,0C1,167.667,1,84.333,1,1c82,0,164,0.027,246-0.096
			c3.424-0.005,4.101,0.672,4.096,4.096c-0.124,80.666-0.124,161.333,0,242c0.005,3.424-0.67,4.112-4.096,4.099
			C206.667,250.945,166.333,251,126,251c-0.079-2.073,1.847-2.545,2.993-3.514c22.107-18.714,44.267-37.364,66.408-56.036
			c1.489-1.256,3.314-2.232,3.168-4.706c-0.225-3.81-0.261-7.631-0.376-11.449c0.121-2.132,0.064-4.29,0.4-6.386
			c0.703-4.387-0.804-6.31-5.428-7.129c-7.913-1.402-15.667-3.7-23.488-5.622c0.452-0.687,0.905-1.374,1.357-2.061
			c5.02-4.52,7.618-10.388,6.69-16.869c-1.844-12.877-6.969-24.407-16.594-33.573c-0.005-0.804-0.01-1.609-0.014-2.413
			c4.051-3.617,5.783-8.295,5.704-13.564c-0.053-3.568-1.429-6.45-5.747-6.465c0.095-1.668,0.19-3.335,0.285-5.003
			c3.462-1.826,6.447-3.843,9.094-7.135c2.423-3.014,3.973-6.78,7.211-9.247c3.478-2.651,4.997-6.519,5.365-10.837
			c3.339-3.803,3.047-8.427,2.94-13.009c0.221-1.449,0.448-2.897,0.663-4.347c1.399-9.431-0.403-17.872-7.632-24.631
			c-0.14-0.078-0.281-0.155-0.421-0.232c0.143,0.075,0.286,0.15,0.429,0.224c4.069,11.563,0.907,21.752-5.84,31.322
			c-4.097,5.811-8.041,11.73-12.053,17.601c-0.78-2.014-1.48-4.064-2.354-6.037c-6.001-13.549-20.046-22.961-33.67-22.608
			c-5.766-0.504-11.043,1.085-16.071,3.746l-0.003,0c-11.645,4.978-18.483,14.061-22.112,25.886
			c-2.561-4.033-4.836-8.286-7.736-12.058C70.771,33.929,64.072,22.61,68.006,8.005c0.076-0.146,0.153-0.293,0.229-0.439
			c-0.08,0.143-0.16,0.286-0.239,0.429c-1.758,0.809-2.592,2.39-3.501,3.979c-4.379,7.653-5.426,15.622-2.478,24.018
			c0.312,4.472-1.265,9.366,2.899,12.977c-0.144,4.021,1.635,7.324,4.018,10.339c1.521,1.925,3.43,3.559,4.841,5.552
			c3.711,5.245,7.967,9.803,14.014,12.368c0.029,1.35,0.057,2.7,0.086,4.05c-4.959,0.375-7.115,2.579-6.634,7.539
			c0.501,5.166,2.099,9.972,6.649,13.189c0.098,0.745,0.196,1.491,0.294,2.236c-0.081,0.251-0.131,0.508-0.153,0.771
			c-0.336,0.344-0.673,0.688-1.009,1.032c-8.329,7.804-12.233,18.042-15.24,28.614c-2.329,8.188,0.136,15.378,6.239,21.302
			c0.06,0.309,0.099,0.621,0.116,0.935c-4.754,1.264-9.499,2.562-14.263,3.786c-10.287,2.643-10.291,2.628-9.493,13.487
			c-0.073,3.485,0.067,6.991-0.274,10.449c-0.41,4.161,1.011,6.926,4.287,9.718C80.386,213.077,102.157,232.081,124,251z"/>
		<path style="fill:#2C357A;" d="M198.192,175.296c0.116,3.817,0.151,7.638,0.377,11.448c0.146,2.474-1.679,3.45-3.168,4.706
			c-22.141,18.673-44.302,37.323-66.408,56.036c-1.145,0.969-3.072,1.441-2.993,3.514c-0.333,0-0.667,0-1,0
			c-0.001-25.644-0.003-51.289-0.005-76.933c8.82-1.159,17.581-2.472,24.207-9.328c1.306,0.221,2.623,0.39,3.915,0.672
			C168.144,168.696,183.168,171.998,198.192,175.296z M173.002,192.846c0.122-10.649-8.564-19.718-18.944-19.78
			c-9.967-0.059-18.727,8.65-19.152,18.49c-0.451,10.426,6.86,19.952,18.845,20.078
			C163.846,211.741,172.455,204.634,173.002,192.846z"/>
		<path style="fill:#2D398E;" d="M124.996,174.067c0.001,25.644,0.003,51.289,0.004,76.933c-0.333,0-0.667,0-1,0
			c-21.843-18.919-43.614-37.923-65.608-56.666c-3.276-2.792-4.697-5.557-4.287-9.718c0.341-3.458,0.201-6.964,0.274-10.449
			c15.393-2.616,30.786-5.233,46.182-7.845c7.257,5.5,15.537,7.541,24.5,7.286L124.996,174.067z M75.911,191.973
			c-0.017,11.155,7.65,19.079,18.492,19.111c10.731,0.032,19.58-8.59,19.56-19.059c-0.02-10.248-8.823-18.942-19.236-18.996
			C83.919,172.973,75.928,181.018,75.911,191.973z"/>
		<path style="fill:#BBBDBF;" d="M109.017,31.02c5.028-2.661,10.306-4.25,16.071-3.747c-0.037,11.985-0.088,23.971-0.106,35.957
			c-0.009,6.262,0.039,12.524,0.062,18.787c0,0-0.032,0.016-0.032,0.016c-0.396-0.005-0.793-0.011-1.189-0.016
			c-1.924-1.423-2.811-3.626-4.117-5.509c-2.227-3.21-4.635-5.813-9.077-5.888c-3.082-0.052-6.146-1.012-9.223-1.537
			c-2.992-0.511-4.764,0.235-4.514,3.818c0.23,3.295,0.03,6.62,0.019,9.931c-0.287,0.543-0.574,1.086-0.861,1.629
			c0.189,1.196-0.29,2.554,0.853,3.518c0.02,1,0.04,2,0.06,3c-0.284,2.634-1.019,5.315-0.75,7.891
			c0.451,4.313-1.494,5.621-5.317,5.397c-0.904-0.009-1.807-0.018-2.711-0.026c-0.098-0.745-0.196-1.491-0.293-2.236
			c-0.005-6.909-0.01-13.819-0.016-20.728c-0.029-1.35-0.057-2.7-0.084-4.052c0.049-2.435,0.097-4.868,0.144-7.301
			c0.062-1.425,0.163-2.878-1.922-2.861c-0.029-1.378-0.058-2.756-0.088-4.134c0.015-1.314,0.03-2.628,0.046-3.942
			c0.825-0.464,1.009-1.214,0.932-2.082c3.629-11.825,10.468-20.908,22.112-25.886c0,1.963,0,3.925,0,5.888
			C109.774,34.89,110.737,32.828,109.017,31.02z M90.173,60.308c-0.567-0.099-1.01-0.238-1.451-0.23
			c-0.28,0.005-0.557,0.229-0.835,0.356c0.548,0.159,1.09,0.36,1.65,0.449C89.682,60.905,89.882,60.581,90.173,60.308z
			 M93.803,61.678c0.567,0.108,1.009,0.255,1.451,0.253c0.277-0.002,0.552-0.229,0.829-0.355c-0.35-0.728-1.008-0.523-1.575-0.466
			C94.302,61.13,94.122,61.41,93.803,61.678z M110.927,43.498c-0.151-0.249-0.298-0.49-0.444-0.73
			c-0.13,0.25-0.367,0.502-0.361,0.749c0.005,0.248,0.251,0.49,0.392,0.735C110.649,44.004,110.785,43.756,110.927,43.498z
			 M111.611,48.282c0.049-0.142,0.132-0.285,0.127-0.425c-0.001-0.048-0.222-0.089-0.343-0.133
			c-0.049,0.142-0.132,0.284-0.127,0.424C111.269,48.197,111.49,48.238,111.611,48.282z"/>
		<path style="fill:#A4A4A5;" d="M125.043,82.017c-0.022-6.262-0.071-12.524-0.062-18.787c0.018-11.986,0.069-23.972,0.106-35.957
			c13.625-0.351,27.67,9.061,33.67,22.61c0.874,1.973,1.574,4.023,2.354,6.037c-0.089,0.848,0.071,1.597,0.842,2.101
			c0.256,1.66,0.512,3.321,0.768,4.981c-1.041,4.342-2.464,8.645-1.364,13.208c-0.095,1.668-0.19,3.335-0.285,5.001
			c0.014,6.676,0.028,13.354,0.043,20.031c0.005,0.804,0.01,1.609,0.014,2.414c-1.017,0.188-2.034,0.375-3.051,0.56
			c-4.872,0.602-6.786-1.386-6.102-6.359c0.397-2.888,0.027-5.882,0.002-8.829c0.021-5.49,0.077-10.979,0.037-16.468
			c-0.009-1.198,0.426-3.411-1.424-3.071c-7.456,1.369-16.386-0.991-21.02,8.054C128.635,79.37,127.141,81.124,125.043,82.017z"/>
		<path style="fill:#F8EA33;" d="M158.078,104.217c1.017-0.187,2.034-0.374,3.051-0.562c9.625,9.165,14.751,20.696,16.595,33.573
			c0.928,6.481-1.67,12.349-6.69,16.869c2.211-5.96-0.224-11.463-1.818-17.144c1.929,6.633,0.22,12.738-2.245,18.745
			c-3.4-0.849-6.8-1.698-10.199-2.547c-0.681-4.498-1.495-8.955-3.977-12.897c-0.118-4.855,0.66-9.74-0.483-14.559
			c0.095-0.902,0.186-1.806,0.276-2.71c0.992-2.371,2.527-4.37,4.259-6.236c0.352,0.702-0.323,1.796,0.869,2.29
			c0.412-1.477,0.613-2.822-0.585-3.967C158.137,111.514,157.821,107.841,158.078,104.217z M162.002,131.998
			c0.261,0.348-0.462,1.387,0.75,1.067c-0.251-0.355-0.502-0.709-0.753-1.064c-0.258-0.349,0.459-1.389-0.752-1.063
			C161.498,131.291,161.75,131.645,162.002,131.998z M163.999,137.001c-0.259-0.348,0.458-1.386-0.751-1.062
			c0.251,0.353,0.502,0.707,0.754,1.06c0.134,0.73,0.268,1.46,0.402,2.19c0.131-0.083,0.341-0.14,0.38-0.255
			C165.072,138.078,164.735,137.453,163.999,137.001z M160.001,109.999c-0.125-0.436-0.25-0.872-0.375-1.308
			c-0.127,0.084-0.253,0.167-0.38,0.251c0.251,0.353,0.502,0.706,0.754,1.058c0.02,0.486-0.022,0.985,0.077,1.453
			c0.098,0.46,0.313,0.932,0.937,0.465c2.025-1.514,1.937-3.15,0.182-5.249C160.914,108.045,161.177,109.339,160.001,109.999z
			 M173.267,143.963c0.16-0.001,0.32-0.003,0.48-0.004c0-2.982,0-5.964,0-8.945c-0.16,0.001-0.32,0.003-0.48,0.004
			C173.267,138,173.267,140.981,173.267,143.963z M165.178,148.828c0.167-0.011,0.335-0.023,0.502-0.034c0-2.201,0-4.401,0-6.602
			c-0.167,0.009-0.335,0.018-0.502,0.027C165.178,144.422,165.178,146.625,165.178,148.828z M158.943,122.493
			c-0.157-0.252-0.308-0.494-0.46-0.737c-0.135,0.252-0.38,0.507-0.375,0.757c0.005,0.25,0.26,0.494,0.406,0.741
			C158.654,123.003,158.796,122.753,158.943,122.493z M165.765,125.929c-0.076-0.103-0.153-0.207-0.229-0.31
			c-0.094,0.086-0.188,0.172-0.283,0.258c0.127,0.132,0.254,0.265,0.381,0.397C165.678,126.159,165.722,126.044,165.765,125.929z
			 M169.754,124.972c-0.069-0.102-0.12-0.258-0.213-0.291c-0.074-0.026-0.201,0.099-0.304,0.156
			c0.121,0.155,0.243,0.311,0.364,0.466C169.652,125.193,169.703,125.083,169.754,124.972z M160.696,128.231
			c0.023-0.125,0.047-0.25,0.07-0.376c-0.172,0.033-0.345,0.067-0.517,0.1c0.045,0.114,0.062,0.259,0.144,0.33
			C160.442,128.328,160.592,128.253,160.696,128.231z M164.765,122.931c-0.076-0.104-0.153-0.207-0.229-0.311
			c-0.094,0.086-0.189,0.172-0.283,0.258c0.127,0.133,0.255,0.266,0.382,0.398C164.678,123.161,164.722,123.046,164.765,122.931z
			 M171.365,128.725c-0.044,0.116-0.087,0.231-0.131,0.347c0.171,0.017,0.343,0.035,0.514,0.052
			c-0.025-0.122-0.018-0.267-0.085-0.359C171.621,128.709,171.468,128.735,171.365,128.725z M167.697,131.23
			c0.023-0.126,0.047-0.251,0.07-0.377c-0.173,0.033-0.346,0.067-0.518,0.1c0.045,0.114,0.063,0.26,0.145,0.331
			C167.442,131.326,167.592,131.252,167.697,131.23z M172.365,131.723c-0.044,0.115-0.087,0.231-0.131,0.346
			c0.171,0.017,0.342,0.035,0.512,0.052c-0.025-0.122-0.018-0.267-0.085-0.358C172.621,131.708,172.468,131.734,172.365,131.723z
			 M168.697,134.226c0.023-0.125,0.046-0.25,0.069-0.375c-0.172,0.033-0.344,0.067-0.516,0.1c0.045,0.113,0.062,0.258,0.144,0.329
			C168.444,134.322,168.593,134.248,168.697,134.226z M163.697,120.23c0.023-0.125,0.047-0.251,0.07-0.376
			c-0.173,0.033-0.345,0.067-0.518,0.1c0.045,0.114,0.062,0.259,0.144,0.33C163.442,120.326,163.592,120.252,163.697,120.23z
			 M165.749,115.98c-0.069-0.101-0.137-0.203-0.206-0.304c-0.085,0.183-0.169,0.366-0.254,0.549
			c0.103,0.029,0.247,0.112,0.298,0.073C165.673,116.234,165.698,116.09,165.749,115.98z M161.697,115.227
			c0.023-0.125,0.046-0.251,0.07-0.376c-0.173,0.033-0.345,0.067-0.518,0.1c0.045,0.114,0.062,0.259,0.145,0.33
			C161.443,115.323,161.593,115.249,161.697,115.227z"/>
		<path style="fill:#F8EA33;" d="M78.02,155.96c-6.103-5.924-8.568-13.114-6.239-21.302c3.007-10.572,6.911-20.81,15.24-28.614
			c-0.007,1.319-0.014,2.638-0.02,3.956c-0.411,0.355-1.295,0.576-0.372,1.31c0.124-0.437,0.247-0.874,0.371-1.311
			c1.306-0.173,2.626,2.375,3.921-0.021c0.33,2.354,0.66,4.708,0.99,7.061c-0.977,0.789-1.125,1.767-0.638,2.876
			c0.04,0.091,0.213,0.123,0.324,0.182c0.155-0.734,0.31-1.468,0.466-2.202c1.321,1.7,2.642,3.4,3.963,5.1
			c0.008,0.97,0.017,1.939,0.025,2.909c-0.034,5.731-0.068,11.462-0.102,17.193c-2.461,2.891-2.82,6.492-3.383,10.024
			c-3.722,1.473-7.58,2.4-11.548,2.886c-1.357-0.65,1.25-5.276-3.017-3.008c-0.124-0.437-0.248-0.874-0.372-1.312
			c-0.127,0.083-0.255,0.166-0.382,0.25c0.251,0.354,0.503,0.708,0.754,1.062C78.007,153.987,78.013,154.973,78.02,155.96z
			 M85.998,135.998c0.41-0.354,1.296-0.573,0.373-1.307c-0.123,0.437-0.246,0.874-0.37,1.31c-0.41,0.355-1.296,0.574-0.372,1.308
			C85.752,136.872,85.875,136.435,85.998,135.998z M87.999,130.999c0.414-0.354,1.296-0.576,0.373-1.31
			c-0.124,0.437-0.247,0.875-0.371,1.312c-0.408,0.357-1.298,0.578-0.371,1.312C87.753,131.875,87.876,131.437,87.999,130.999z
			 M77.002,132.002c-0.739,0.451-1.074,1.076-0.786,1.933c0.038,0.115,0.249,0.171,0.38,0.255c0.134-0.73,0.268-1.46,0.402-2.19
			c0.409-0.358,1.302-0.579,0.372-1.315C77.247,131.123,77.125,131.563,77.002,132.002z M84.003,142.003
			c-1.909,2.851-0.651,5.808-0.006,8.739c0-2.915,0-5.829,0-8.744c0.733-0.454,1.076-1.077,0.786-1.936
			c-0.039-0.115-0.25-0.171-0.381-0.254C84.269,140.54,84.136,141.272,84.003,142.003z M78.712,147.989
			c0.407-3.263,0.814-6.527,1.221-9.79C77.533,141.296,77.869,144.624,78.712,147.989z M75.263,145.987
			c0.161,0.001,0.321,0.002,0.482,0.003c0-2.99,0-5.979,0-8.969c-0.161-0.001-0.321-0.002-0.482-0.003
			C75.263,140.008,75.263,142.998,75.263,145.987z M90.532,122.697c-0.162,0.279-0.415,0.524-0.421,0.775
			c-0.006,0.257,0.229,0.519,0.358,0.779c0.151-0.245,0.41-0.484,0.422-0.736C90.904,123.26,90.673,122.993,90.532,122.697z
			 M83.765,126.932c-0.076-0.103-0.153-0.207-0.229-0.31c-0.094,0.086-0.188,0.172-0.283,0.258c0.127,0.133,0.254,0.265,0.381,0.398
			C83.678,127.162,83.721,127.047,83.765,126.932z M89.765,126.93c-0.077-0.104-0.153-0.207-0.23-0.311
			c-0.094,0.086-0.189,0.172-0.283,0.259c0.127,0.133,0.255,0.266,0.382,0.399C89.678,127.161,89.722,127.046,89.765,126.93z
			 M79.769,125.935c-0.077-0.104-0.155-0.208-0.232-0.312c-0.095,0.086-0.19,0.173-0.286,0.259c0.128,0.134,0.257,0.267,0.385,0.401
			C79.681,126.167,79.725,126.051,79.769,125.935z M82.617,129.703c-0.105,0.022-0.258,0.01-0.304,0.074
			c-0.067,0.095-0.058,0.244-0.082,0.37c0.173-0.034,0.347-0.067,0.52-0.101C82.707,129.932,82.662,129.818,82.617,129.703z
			 M85.366,121.722c-0.044,0.115-0.087,0.23-0.131,0.345c0.171,0.017,0.341,0.035,0.512,0.052c-0.025-0.122-0.018-0.266-0.085-0.357
			C85.621,121.707,85.468,121.733,85.366,121.722z M80.366,134.726c-0.044,0.115-0.087,0.23-0.131,0.345
			c0.171,0.017,0.341,0.035,0.512,0.052c-0.024-0.122-0.018-0.266-0.085-0.357C80.621,134.71,80.468,134.736,80.366,134.726z
			 M86.765,118.931c-0.077-0.104-0.153-0.207-0.23-0.311c-0.094,0.086-0.189,0.172-0.283,0.258c0.127,0.133,0.255,0.266,0.382,0.398
			C86.678,119.161,86.722,119.046,86.765,118.931z M87.366,115.726c-0.043,0.115-0.087,0.23-0.13,0.345
			c0.171,0.017,0.341,0.035,0.512,0.052c-0.024-0.122-0.018-0.266-0.085-0.357C87.621,115.71,87.468,115.736,87.366,115.726z
			 M84.765,115.926c-0.077-0.103-0.153-0.207-0.23-0.31c-0.094,0.086-0.189,0.172-0.283,0.259c0.128,0.133,0.255,0.265,0.383,0.398
			C84.678,116.157,84.722,116.041,84.765,115.926z M76.365,148.724c-0.044,0.115-0.087,0.231-0.131,0.346
			c0.171,0.017,0.342,0.035,0.513,0.052c-0.025-0.122-0.018-0.267-0.085-0.358C76.621,148.708,76.468,148.734,76.365,148.724z"/>
		<path style="fill:#C7202C;" d="M156.77,153.152c3.4,0.849,6.8,1.698,10.2,2.546c0.902,0.153,1.804,0.306,2.706,0.46
			c7.821,1.922,15.575,4.22,23.488,5.622c4.624,0.819,6.131,2.742,5.428,7.129c-0.336,2.096-0.279,4.254-0.4,6.386
			c-15.025-3.296-30.048-6.598-45.075-9.883c-1.292-0.282-2.609-0.451-3.917-0.67c3.061-3.527,3.339-7.73,2.929-12.101
			C153.676,152.811,155.223,152.981,156.77,153.152z"/>
		<path style="fill:#E92129;" d="M81.017,156.008c3.968-0.486,7.826-1.413,11.55-2.886c1.133-0.037,2.265-0.073,3.397-0.11
			c-0.747,5.222,0.856,9.633,4.594,13.306c-15.393,2.616-30.786,5.232-46.178,7.849c-0.798-10.859-0.794-10.843,9.493-13.487
			c4.764-1.224,9.51-2.522,14.263-3.785C79.215,156.987,80.227,156.858,81.017,156.008z"/>
		<path style="fill:#E6E7E8;" d="M86.902,56.906c0.077,0.868-0.107,1.618-0.932,2.082c-6.416-9.299-15.519-15.8-23.954-22.997
			c-2.948-8.395-1.901-16.364,2.478-24.018c0.909-1.589,1.743-3.17,3.501-3.979l0.01,0.01c-3.934,14.605,2.765,25.924,11.16,36.843
			C82.066,48.62,84.341,52.873,86.902,56.906z"/>
		<path style="fill:#E6E7E8;" d="M161.953,58.021c-0.77-0.504-0.93-1.252-0.841-2.101c4.013-5.871,7.957-11.79,12.053-17.602
			c6.747-9.57,9.909-19.759,5.84-31.322l-0.008,0.008c7.229,6.758,9.031,15.199,7.632,24.631c-0.215,1.45-0.441,2.898-0.662,4.347
			c-2.273,0.081-3.275,2.004-4.716,3.277C174.52,45.206,167.877,51.245,161.953,58.021z"/>
		<path style="fill:#D4D4D4;" d="M85.924,62.93c0.029,1.378,0.058,2.756,0.087,4.133c0.641,0.953,1.281,1.907,1.922,2.861
			c-0.047,2.433-0.095,4.866-0.144,7.301c-6.049-2.564-10.305-7.121-14.016-12.366c-1.411-1.994-3.32-3.627-4.841-5.552
			c-2.382-3.015-4.162-6.317-4.017-10.338c6.759,3.656,14.569,5.786,18.814,13.102C84.039,62.602,85.173,62.655,85.924,62.93z"/>
		<path style="fill:#D4D4D4;" d="M161.357,76.21c-1.1-4.563,0.323-8.866,1.366-13.208c5.178-6.977,12.711-10.536,20.303-14.01
			c-0.368,4.318-1.886,8.186-5.365,10.837c-3.237,2.467-4.788,6.233-7.211,9.247C167.804,72.366,164.819,74.384,161.357,76.21z"/>
		<path style="fill:#EFEFF0;" d="M183.026,48.991c-7.592,3.474-15.125,7.033-20.303,14.01c-0.258-1.66-0.514-3.32-0.77-4.981
			c5.925-6.776,12.567-12.814,19.298-18.761c1.441-1.273,2.443-3.196,4.716-3.277C186.073,40.564,186.365,45.188,183.026,48.991z"/>
		<path style="fill:#EFEFF0;" d="M85.924,62.93c-0.751-0.275-1.885-0.328-2.194-0.859c-4.245-7.316-12.055-9.446-18.814-13.102
			c-4.164-3.612-2.588-8.506-2.9-12.978c8.435,7.196,17.538,13.698,23.954,22.997C85.955,60.302,85.939,61.616,85.924,62.93z"/>
		<path style="fill:#F49C75;" d="M87.873,81.277c0.006,6.909,0.012,13.819,0.016,20.728c-4.551-3.217-6.149-8.023-6.65-13.189
			C80.758,83.856,82.914,81.652,87.873,81.277z"/>
		<path style="fill:#F49C75;" d="M161.115,101.242c-0.015-6.678-0.029-13.355-0.043-20.031c4.318,0.017,5.694,2.899,5.747,6.467
			C166.897,92.947,165.165,97.625,161.115,101.242z"/>
		<path style="fill:#FBDC1B;" d="M169.676,156.158c-0.902-0.153-1.804-0.306-2.706-0.46c2.465-6.008,4.175-12.112,2.245-18.746
			c1.594,5.681,4.029,11.185,1.818,17.144C170.581,154.784,170.129,155.471,169.676,156.158z"/>
		<path style="fill:#FBDC1B;" d="M87.001,110c0.007-1.319,0.014-2.638,0.02-3.956c0.336-0.344,0.673-0.688,1.009-1.032
			c1.314-0.694,0.192,5.503,2.851,1.008c0.013,1.319,0.026,2.639,0.039,3.959c-1.294,2.396-2.614-0.152-3.92,0.021L87.001,110z"/>
		<path style="fill:#FBDC1B;" d="M81.017,156.008c-0.79,0.85-1.802,0.98-2.881,0.887c-0.017-0.315-0.055-0.626-0.115-0.935
			c-0.006-0.987-0.013-1.973-0.019-2.96H78C82.266,150.731,79.66,155.357,81.017,156.008z"/>
		<path style="fill:#F8EA33;" d="M90.88,106.02c-2.658,4.495-1.536-1.701-2.85-1.008c0.022-0.263,0.072-0.52,0.153-0.771
			c0.904,0.009,1.808,0.018,2.712,0.026C90.889,104.85,90.884,105.435,90.88,106.02z"/>
		<path style="fill:#E6E7E8;" d="M67.996,7.994c0.08-0.143,0.16-0.286,0.239-0.429c-0.076,0.146-0.153,0.293-0.229,0.439
			C68.006,8.005,67.996,7.994,67.996,7.994z"/>
		<path style="fill:#E6E7E8;" d="M179.005,6.996c-0.143-0.075-0.286-0.15-0.429-0.224c0.14,0.077,0.281,0.155,0.421,0.232
			C178.996,7.005,179.005,6.996,179.005,6.996z"/>
		<path style="fill:#F49C75;" d="M152.129,152.641c0.41,4.37,0.132,8.574-2.929,12.101c-6.623,6.853-15.384,8.166-24.204,9.325
			c0,0,0.066-0.458,0.066-0.458c-0.051-9.097-0.102-18.195-0.153-27.293c6.283,0.303,10.806-2.254,14.882-7.223
			c3.843-4.685,7.505-9.727,12.517-13.399c1.147,4.821,0.37,9.706,0.488,14.56C151.378,144.318,152.64,148.527,152.129,152.641z"/>
		<path style="fill:#2C282D;" d="M173.002,192.846c-0.548,11.788-9.157,18.895-19.251,18.788
			c-11.985-0.126-19.296-9.652-18.845-20.078c0.425-9.841,9.185-18.55,19.152-18.49
			C164.438,173.128,173.124,182.198,173.002,192.846z M153.695,208.414c9.135,0.063,16.281-6.923,16.28-15.915
			c-0.001-8.89-7.397-16.337-16.156-16.267c-8.709,0.07-15.798,7.133-15.947,15.887
			C137.718,201.271,144.593,208.351,153.695,208.414z"/>
		<path style="fill:#F6BE9B;" d="M124.908,146.316c0.051,9.097,0.102,18.195,0.153,27.292c-8.963,0.255-17.243-1.787-24.5-7.286
			c-3.743-3.677-5.345-8.088-4.598-13.31c-0.005-3.305-0.01-6.609-0.016-9.914c0.034-5.731,0.068-11.462,0.102-17.193
			c4.736,4.565,9.632,8.977,14.162,13.738C114.285,143.924,118.806,146.735,124.908,146.316z"/>
		<path style="fill:#2C282D;" d="M75.911,191.973c0.017-10.955,8.008-19,18.815-18.944c10.413,0.055,19.217,8.748,19.236,18.996
			c0.02,10.469-8.828,19.09-19.56,19.059C83.561,211.053,75.894,203.128,75.911,191.973z M94.718,208.132
			c9.043-0.015,16.185-7.168,16.085-16.111c-0.097-8.703-7.204-15.862-15.872-15.989c-8.859-0.13-16.281,7.17-16.315,16.048
			C78.581,201.234,85.515,208.147,94.718,208.132z"/>
		<path style="fill:#F6BE9B;" d="M125.043,82.017c2.098-0.893,3.592-2.647,4.528-4.474c4.633-9.046,13.563-6.686,21.02-8.054
			c1.85-0.34,1.416,1.873,1.424,3.071c0.04,5.489-0.016,10.979-0.037,16.468c-1.334,1.449-2.527,3.074-4.044,4.295
			c-1.436,1.156-3.019,1.949-2.934,4.186c0.415,10.907-1.932,21.746-0.84,32.674c-2.387,4.471-6.115,7.826-9.892,10.962
			c-4.141,3.439-15.612,2.747-19.656-0.86c-3.322-2.963-6.415-6.184-9.61-9.291c-0.335-8.562-1.056-17.132-0.879-25.683
			c0.131-6.323-1.121-11.369-7.161-14.332c-0.02-1-0.04-2-0.059-2.999c2.32,0.821,4.539,2.04,7.126,1.806
			c0.531,0.013,1.063,0.026,1.594,0.04c2.779-0.361,6.115,2.094,8.23-1.627c0.318-0.755,1.57-1.773-0.186-2.138
			c-5.569-1.159-11.17-2.164-16.758-3.228c0.011-3.312,0.211-6.636-0.019-9.931c-0.25-3.583,1.521-4.329,4.514-3.818
			c3.077,0.525,6.141,1.485,9.223,1.537c4.442,0.075,6.849,2.678,9.077,5.888c1.306,1.883,2.193,4.087,4.119,5.509
			c0.037,0.341,0.072,0.682,0.107,1.023c-4.15,6.801-5.673,14.362-5.854,22.151c-0.1,4.293,2.892,5.934,6.967,5.873
			c3.727-0.056,5.914-2.348,5.52-5.58c-0.948-7.766-1.033-15.916-6.544-22.394c0.331-0.352,0.661-0.705,0.992-1.057L125.043,82.017z
			 M142.93,88.96l0.046-0.023c2.714-0.519,6.878,1.496,6.806-3.894c0.74-0.923,2.633-2.538-0.443-2.121
			c-5.582,0.756-11.118,1.962-16.601,3.28c-1.537,0.369-0.59,1.431,0.308,2.003C136.101,91.594,139.527,90.136,142.93,88.96z
			 M112.029,115.96c-0.363-0.243-0.723-0.492-1.099-0.713c-0.015-0.009-0.177,0.231-0.271,0.355
			c0.434,0.146,0.868,0.292,1.301,0.438c6.566,4.603,13.926,2.562,21.054,2.471C125.922,118.44,119.144,115.845,112.029,115.96z"/>
		<path style="fill:#F49C75;" d="M96.962,90.979c6.04,2.963,7.292,8.009,7.161,14.332c-0.177,8.551,0.544,17.121,0.879,25.683
			c-2.992-2.666-5.985-5.333-8.977-7.999c-1.321-1.7-2.642-3.4-3.964-5.099c-0.004-0.293-0.054-0.579-0.151-0.857
			c-0.33-2.354-0.659-4.707-0.99-7.061c-0.013-1.32-0.026-2.64-0.04-3.959c0.004-0.585,0.009-1.17,0.014-1.753
			c3.824,0.225,5.768-1.082,5.317-5.396C95.943,96.294,96.678,93.613,96.962,90.979z"/>
		<path style="fill:#2C282D;" d="M96.909,82.832c5.588,1.064,11.189,2.069,16.758,3.228c1.755,0.365,0.503,1.383,0.186,2.138
			c-2.869-0.095-6.282-2.936-8.231,1.628c-0.531-0.013-1.063-0.026-1.592-0.038c-0.835-4.507-4.641-4.569-7.982-5.327
			C96.335,83.918,96.622,83.375,96.909,82.832z"/>
		<path style="fill:#E6E7E8;" d="M96.048,84.461c3.341,0.758,7.147,0.82,7.982,5.327c-2.589,0.232-4.807-0.987-7.128-1.808
			C95.758,87.015,96.237,85.657,96.048,84.461z"/>
		<path style="fill:#A4A4A5;" d="M109.017,31.02c1.72,1.808,0.758,3.87-0.003,5.888c0-1.963,0-3.925,0-5.888
			C109.014,31.02,109.017,31.02,109.017,31.02z"/>
		<path style="fill:#A4A4A5;" d="M90.173,60.308c-0.291,0.273-0.491,0.598-0.636,0.575c-0.56-0.09-1.101-0.29-1.65-0.449
			c0.278-0.126,0.555-0.35,0.835-0.356C89.163,60.069,89.606,60.209,90.173,60.308z"/>
		<path style="fill:#A4A4A5;" d="M93.803,61.678c0.319-0.268,0.499-0.548,0.705-0.569c0.567-0.057,1.224-0.262,1.575,0.466
			c-0.276,0.126-0.552,0.353-0.829,0.355C94.813,61.933,94.37,61.785,93.803,61.678z"/>
		<path style="fill:#E6E7E8;" d="M87.933,69.924c-0.641-0.954-1.281-1.908-1.922-2.861C88.097,67.047,87.995,68.499,87.933,69.924z"
			/>
		<path style="fill:#A4A4A5;" d="M110.927,43.498c-0.142,0.258-0.278,0.506-0.414,0.754c-0.14-0.245-0.386-0.487-0.392-0.735
			c-0.005-0.247,0.231-0.499,0.361-0.749C110.629,43.009,110.775,43.249,110.927,43.498z"/>
		<path style="fill:#A4A4A5;" d="M111.611,48.282c-0.121-0.044-0.341-0.085-0.343-0.133c-0.005-0.14,0.078-0.283,0.127-0.424
			c0.121,0.044,0.342,0.085,0.343,0.133C111.742,47.998,111.659,48.141,111.611,48.282z"/>
		<path style="fill:#A4A4A5;" d="M125.011,82.033c-0.331,0.352-0.661,0.705-0.992,1.057l-0.09-0.05
			c-0.035-0.341-0.07-0.682-0.106-1.023C124.218,82.023,124.614,82.028,125.011,82.033z"/>
		<path style="fill:#F49C75;" d="M144.16,130.184c-1.092-10.928,1.255-21.766,0.84-32.674c-0.085-2.237,1.498-3.03,2.934-4.186
			c1.517-1.222,2.71-2.847,4.044-4.295c0.025,2.947,0.395,5.941-0.002,8.829c-0.684,4.973,1.23,6.961,6.102,6.359
			c-0.257,3.625,0.059,7.298-0.949,10.855c-0.095,0.559-0.189,1.118-0.284,1.677c-1.731,1.866-3.267,3.865-4.256,6.237
			C148.843,124.287,147.375,128.259,144.16,130.184z"/>
		<path style="fill:#BD5C43;" d="M144.16,130.184c3.215-1.925,4.683-5.897,8.43-7.197c-0.093,0.902-0.184,1.806-0.278,2.708
			c-5.016,3.67-8.677,8.712-12.521,13.398c-4.076,4.969-8.598,7.525-14.882,7.223c-6.102,0.42-10.623-2.391-14.697-6.672
			c-4.53-4.761-9.426-9.173-14.162-13.738c-0.008-0.97-0.017-1.939-0.025-2.909c2.993,2.666,5.985,5.332,8.978,7.999
			c3.195,3.107,6.287,6.328,9.61,9.291c4.044,3.607,15.515,4.299,19.656,0.86C138.045,138.01,141.773,134.654,144.16,130.184z"/>
		<path style="fill:#EFEFF0;" d="M152.129,152.641c0.511-4.114-0.752-8.323,0.665-12.387c2.481,3.943,3.295,8.4,3.976,12.898
			C155.223,152.981,153.676,152.811,152.129,152.641z"/>
		<ellipse style="fill:#FBDC1B;" cx="173.507" cy="139.489" rx="0.339" ry="6.325"/>
		<path style="fill:#FBDC1B;" d="M160.001,109.999c1.177-0.66,0.914-1.955,1.196-3.329c1.755,2.098,1.843,3.734-0.182,5.249
			c-0.624,0.467-0.84-0.005-0.937-0.465c-0.1-0.469-0.057-0.968-0.077-1.453L160.001,109.999z"/>
		<path style="fill:#FBDC1B;" d="M165.178,148.828c0-2.203,0-4.406,0-6.609c0.167-0.009,0.335-0.018,0.502-0.027
			c0,2.201,0,4.401,0,6.602C165.513,148.806,165.345,148.817,165.178,148.828z"/>
		<path style="fill:#FBDC1B;" d="M156.846,116.749c0.094-0.559,0.188-1.119,0.284-1.677c1.199,1.146,0.998,2.49,0.586,3.968
			C156.523,118.544,157.198,117.451,156.846,116.749z"/>
		<path style="fill:#FBDC1B;" d="M163.999,137.001c0.736,0.452,1.073,1.077,0.785,1.933c-0.039,0.115-0.249,0.171-0.38,0.255
			c-0.134-0.73-0.268-1.46-0.402-2.19L163.999,137.001z"/>
		<path style="fill:#FBDC1B;" d="M158.943,122.493c-0.147,0.26-0.288,0.511-0.43,0.761c-0.145-0.247-0.4-0.492-0.406-0.741
			c-0.005-0.25,0.24-0.504,0.375-0.757C158.634,121.998,158.786,122.241,158.943,122.493z"/>
		<path style="fill:#FBDC1B;" d="M165.765,125.929c-0.043,0.115-0.087,0.23-0.13,0.345c-0.127-0.132-0.254-0.265-0.381-0.397
			c0.094-0.086,0.188-0.172,0.283-0.258C165.612,125.723,165.689,125.826,165.765,125.929z"/>
		<path style="fill:#FBDC1B;" d="M169.754,124.972c-0.051,0.111-0.102,0.221-0.153,0.332c-0.121-0.155-0.243-0.311-0.364-0.466
			c0.103-0.058,0.23-0.182,0.304-0.156C169.634,124.714,169.685,124.869,169.754,124.972z"/>
		<path style="fill:#FBDC1B;" d="M160.696,128.231c-0.104,0.022-0.254,0.096-0.303,0.054c-0.082-0.071-0.1-0.216-0.144-0.33
			c0.172-0.033,0.345-0.067,0.517-0.1C160.743,127.981,160.72,128.106,160.696,128.231z"/>
		<path style="fill:#FBDC1B;" d="M164.765,122.931c-0.044,0.115-0.087,0.231-0.131,0.346c-0.127-0.133-0.255-0.266-0.382-0.398
			c0.094-0.086,0.189-0.172,0.283-0.258C164.612,122.724,164.689,122.827,164.765,122.931z"/>
		<path style="fill:#FBDC1B;" d="M171.365,128.725c0.103,0.011,0.256-0.016,0.298,0.04c0.067,0.091,0.061,0.236,0.085,0.359
			c-0.171-0.017-0.343-0.035-0.514-0.052C171.278,128.956,171.321,128.84,171.365,128.725z"/>
		<path style="fill:#FBDC1B;" d="M162.002,131.998c-0.252-0.353-0.504-0.707-0.756-1.06c1.212-0.326,0.494,0.714,0.752,1.063
			L162.002,131.998z"/>
		<path style="fill:#FBDC1B;" d="M167.697,131.23c-0.105,0.022-0.255,0.097-0.304,0.054c-0.082-0.071-0.1-0.216-0.145-0.331
			c0.173-0.033,0.346-0.067,0.518-0.1C167.744,130.979,167.72,131.104,167.697,131.23z"/>
		<path style="fill:#FBDC1B;" d="M172.365,131.723c0.103,0.011,0.256-0.016,0.297,0.04c0.067,0.091,0.06,0.236,0.085,0.358
			c-0.171-0.017-0.342-0.035-0.512-0.052C172.278,131.954,172.322,131.839,172.365,131.723z"/>
		<path style="fill:#FBDC1B;" d="M161.999,132.001c0.251,0.355,0.502,0.709,0.753,1.064c-1.211,0.32-0.489-0.719-0.75-1.067
			C162.002,131.998,161.999,132.001,161.999,132.001z"/>
		<path style="fill:#FBDC1B;" d="M168.697,134.226c-0.104,0.022-0.253,0.096-0.302,0.054c-0.082-0.07-0.099-0.215-0.144-0.329
			c0.172-0.033,0.344-0.067,0.516-0.1C168.743,133.977,168.72,134.102,168.697,134.226z"/>
		<path style="fill:#FBDC1B;" d="M163.697,120.23c-0.104,0.022-0.254,0.096-0.303,0.054c-0.082-0.071-0.1-0.216-0.144-0.33
			c0.173-0.033,0.345-0.067,0.518-0.1C163.743,119.979,163.72,120.105,163.697,120.23z"/>
		<path style="fill:#FBDC1B;" d="M164.001,136.999c-0.251-0.353-0.502-0.707-0.754-1.06c1.209-0.324,0.492,0.714,0.751,1.062
			C163.999,137.001,164.001,136.999,164.001,136.999z"/>
		<path style="fill:#FBDC1B;" d="M165.749,115.98c-0.051,0.11-0.076,0.254-0.161,0.318c-0.052,0.039-0.196-0.045-0.298-0.073
			c0.085-0.183,0.169-0.366,0.254-0.549C165.612,115.777,165.68,115.879,165.749,115.98z"/>
		<path style="fill:#FBDC1B;" d="M161.697,115.227c-0.105,0.022-0.254,0.096-0.303,0.054c-0.082-0.071-0.1-0.216-0.145-0.33
			c0.173-0.033,0.345-0.067,0.518-0.1C161.744,114.976,161.721,115.102,161.697,115.227z"/>
		<path style="fill:#FBDC1B;" d="M159.999,110c-0.251-0.353-0.502-0.706-0.754-1.058c0.127-0.084,0.253-0.167,0.38-0.251
			c0.125,0.436,0.25,0.872,0.375,1.308C160.001,109.999,159.999,110,159.999,110z"/>
		<path style="fill:#EFEFF0;" d="M95.948,143.098c0.005,3.305,0.011,6.61,0.016,9.914c-1.132,0.036-2.264,0.073-3.397,0.11
			C93.128,149.59,93.487,145.989,95.948,143.098z"/>
		<path style="fill:#FBDC1B;" d="M78.712,147.989c-0.843-3.366-1.179-6.693,1.221-9.79
			C79.526,141.462,79.119,144.726,78.712,147.989z"/>
		<ellipse style="fill:#FBDC1B;" cx="75.504" cy="141.505" rx="0.341" ry="6.342"/>
		<path style="fill:#FBDC1B;" d="M83.997,141.998c0,2.915,0,5.829,0,8.744c-0.644-2.931-1.902-5.888,0.006-8.739L83.997,141.998z"/>
		<path style="fill:#FBDC1B;" d="M91.91,117.04c0.097,0.278,0.147,0.563,0.151,0.857c-0.155,0.733-0.31,1.467-0.465,2.201
			c-0.111-0.059-0.284-0.091-0.324-0.182C90.785,118.807,90.932,117.829,91.91,117.04z"/>
		<path style="fill:#FBDC1B;" d="M76.998,131.999c-0.134,0.73-0.268,1.46-0.402,2.19c-0.131-0.083-0.342-0.14-0.38-0.255
			c-0.288-0.857,0.048-1.482,0.786-1.933L76.998,131.999z"/>
		<path style="fill:#FBDC1B;" d="M90.532,122.697c0.14,0.296,0.372,0.563,0.359,0.819c-0.012,0.251-0.271,0.491-0.422,0.736
			c-0.129-0.26-0.364-0.523-0.358-0.779C90.118,123.221,90.37,122.976,90.532,122.697z"/>
		<path style="fill:#FBDC1B;" d="M84.003,142.003c0.133-0.732,0.265-1.463,0.398-2.195c0.131,0.083,0.342,0.139,0.381,0.254
			c0.291,0.858-0.052,1.481-0.786,1.936C83.997,141.998,84.003,142.003,84.003,142.003z"/>
		<path style="fill:#FBDC1B;" d="M83.765,126.932c-0.044,0.115-0.087,0.23-0.131,0.345c-0.127-0.133-0.254-0.265-0.381-0.398
			c0.094-0.086,0.188-0.172,0.283-0.258C83.612,126.726,83.689,126.829,83.765,126.932z"/>
		<path style="fill:#FBDC1B;" d="M89.765,126.93c-0.044,0.115-0.087,0.231-0.131,0.346c-0.127-0.133-0.255-0.266-0.382-0.399
			c0.094-0.086,0.189-0.172,0.283-0.259C89.612,126.723,89.689,126.827,89.765,126.93z"/>
		<path style="fill:#FBDC1B;" d="M79.769,125.935c-0.044,0.116-0.088,0.232-0.133,0.348c-0.128-0.134-0.257-0.267-0.385-0.401
			c0.095-0.086,0.19-0.173,0.286-0.259C79.615,125.727,79.692,125.831,79.769,125.935z"/>
		<path style="fill:#FBDC1B;" d="M82.617,129.703c0.045,0.115,0.09,0.229,0.135,0.344c-0.173,0.034-0.347,0.067-0.52,0.101
			c0.023-0.126,0.014-0.275,0.082-0.37C82.359,129.713,82.512,129.725,82.617,129.703z"/>
		<path style="fill:#FBDC1B;" d="M88.001,131.001c0.124-0.437,0.247-0.875,0.371-1.312c0.923,0.735,0.041,0.956-0.373,1.31
			C87.999,130.999,88.001,131.001,88.001,131.001z"/>
		<path style="fill:#FBDC1B;" d="M77.002,132.002c0.123-0.439,0.245-0.879,0.368-1.318c0.93,0.736,0.038,0.957-0.372,1.315
			C76.998,131.999,77.002,132.002,77.002,132.002z"/>
		<path style="fill:#FBDC1B;" d="M87.999,130.999c-0.123,0.438-0.246,0.876-0.369,1.314c-0.927-0.734-0.037-0.955,0.371-1.312
			C88.001,131.001,87.999,130.999,87.999,130.999z"/>
		<path style="fill:#FBDC1B;" d="M85.366,121.722c0.103,0.011,0.255-0.016,0.296,0.04c0.067,0.091,0.06,0.235,0.085,0.357
			c-0.171-0.017-0.341-0.035-0.512-0.052C85.278,121.952,85.322,121.837,85.366,121.722z"/>
		<path style="fill:#FBDC1B;" d="M80.366,134.726c0.103,0.011,0.255-0.016,0.297,0.04c0.067,0.091,0.06,0.235,0.085,0.357
			c-0.171-0.017-0.341-0.035-0.512-0.052C80.279,134.956,80.322,134.841,80.366,134.726z"/>
		<path style="fill:#FBDC1B;" d="M86.002,136.001c0.123-0.437,0.246-0.874,0.37-1.31c0.924,0.735,0.037,0.953-0.373,1.307
			L86.002,136.001z"/>
		<path style="fill:#FBDC1B;" d="M86.765,118.931c-0.044,0.115-0.087,0.231-0.131,0.346c-0.127-0.133-0.255-0.266-0.382-0.398
			c0.094-0.086,0.189-0.172,0.283-0.258C86.612,118.723,86.689,118.827,86.765,118.931z"/>
		<path style="fill:#FBDC1B;" d="M85.998,135.998c-0.123,0.437-0.246,0.874-0.369,1.311c-0.924-0.734-0.038-0.953,0.372-1.308
			C86.002,136.001,85.998,135.998,85.998,135.998z"/>
		<path style="fill:#FBDC1B;" d="M87.366,115.726c0.103,0.011,0.255-0.016,0.296,0.04c0.067,0.091,0.06,0.235,0.085,0.357
			c-0.171-0.017-0.341-0.035-0.512-0.052C87.279,115.956,87.322,115.841,87.366,115.726z"/>
		<path style="fill:#FBDC1B;" d="M84.765,115.926c-0.044,0.115-0.087,0.231-0.131,0.346c-0.128-0.133-0.255-0.265-0.383-0.398
			c0.094-0.086,0.189-0.172,0.283-0.258C84.612,115.719,84.689,115.823,84.765,115.926z"/>
		<path style="fill:#FBDC1B;" d="M86.999,109.999c-0.124,0.437-0.247,0.874-0.371,1.311c-0.924-0.734-0.039-0.955,0.372-1.31
			C87.001,110,86.999,109.999,86.999,109.999z"/>
		<path style="fill:#FBDC1B;" d="M76.365,148.724c0.103,0.011,0.256-0.016,0.297,0.04c0.067,0.091,0.061,0.236,0.085,0.358
			c-0.171-0.017-0.342-0.035-0.513-0.052C76.278,148.955,76.322,148.839,76.365,148.724z"/>
		<path style="fill:#FBDC1B;" d="M78,153c-0.251-0.354-0.503-0.708-0.754-1.062c0.127-0.083,0.255-0.166,0.382-0.25
			C77.752,152.126,77.876,152.563,78,153C78,153,78,153,78,153z"/>
		<path style="fill:#D4D4D4;" d="M153.695,208.414c-9.102-0.063-15.978-7.143-15.823-16.294c0.148-8.755,7.238-15.818,15.947-15.887
			c8.759-0.07,16.156,7.377,16.156,16.267C169.976,201.491,162.83,208.477,153.695,208.414z"/>
		<path style="fill:#D4D4D4;" d="M94.718,208.132c-9.203,0.015-16.136-6.898-16.101-16.051c0.034-8.878,7.455-16.178,16.315-16.048
			c8.668,0.127,15.774,7.286,15.872,15.989C110.903,200.964,103.76,208.117,94.718,208.132z"/>
		<path style="fill:#F49C75;" d="M124.019,83.09c5.511,6.479,5.595,14.628,6.544,22.394c0.395,3.232-1.792,5.524-5.52,5.58
			c-4.075,0.061-7.067-1.58-6.967-5.873c0.181-7.789,1.704-15.351,5.854-22.151C123.93,83.041,124.019,83.09,124.019,83.09z"/>
		<path style="fill:#2C282D;" d="M133.046,88.206c-0.897-0.573-1.845-1.634-0.308-2.003c5.483-1.317,11.019-2.524,16.601-3.28
			c3.076-0.417,1.183,1.199,0.445,2.121c-3.152-0.249-5.784,0.417-6.808,3.894c0,0-0.046,0.023-0.045,0.022
			C139.691,88.015,136.508,86.276,133.046,88.206z"/>
		<path style="fill:#F49C75;" d="M112.03,115.959c7.114-0.114,13.892,2.481,20.985,2.551c-7.128,0.091-14.488,2.132-21.054-2.471
			L112.03,115.959z"/>
		<path style="fill:#EFEFF0;" d="M142.976,88.938c1.025-3.476,3.656-4.142,6.808-3.894
			C149.854,90.433,145.691,88.418,142.976,88.938z"/>
		<path style="fill:#EFEFF0;" d="M133.046,88.206c3.462-1.929,6.644-0.191,9.885,0.754
			C139.527,90.136,136.101,91.594,133.046,88.206z"/>
		<path style="fill:#EFEFF0;" d="M105.623,89.826c1.949-4.563,5.362-1.723,8.231-1.628
			C111.738,91.919,108.402,89.465,105.623,89.826z"/>
		<path style="fill:#F49C75;" d="M111.96,116.04c-0.434-0.146-0.868-0.292-1.301-0.438c0.094-0.124,0.256-0.364,0.271-0.355
			c0.376,0.222,0.736,0.47,1.099,0.713C112.03,115.959,111.96,116.04,111.96,116.04z"/>
	</g>
</g>
</svg>
