<?xml version="1.0" encoding="utf-8"?>
<!-- Generator: Adobe Illustrator 23.0.3, SVG Export Plug-In . SVG Version: 6.00 Build 0)  -->
<svg version="1.1" id="Layer_1" xmlns="http://www.w3.org/2000/svg" xmlns:xlink="http://www.w3.org/1999/xlink" x="0px" y="0px"
	 viewBox="0 0 250 250" style="enable-background:new 0 0 250 250;" xml:space="preserve">
<style type="text/css">
	.st0{fill:#FFFFFF;}
	.st1{fill:none;}
	.st2{fill:#E6E5E5;}
	.st3{fill:#FED73A;}
	.st4{fill:#A5A3A2;}
	.st5{fill:#BCBCBC;}
	.st6{fill:#EB1F26;}
	.st7{fill:#FCBD42;}
	.st8{fill:#F69E77;}
	.st9{fill:#F7C09C;}
	.st10{fill:#BA583F;}
	.st11{fill:#F7BF9A;}
	.st12{fill:#F6B28D;}
	.st13{fill:#6B4622;}
	.st14{fill:#33AADC;}
	.st15{fill:#F8D836;}
	.st16{fill:#972226;}
</style>
<rect x="81.9" y="69" class="st0" width="76.2" height="32"/>
<g>
	<g>
		<path class="st1" d="M122,251c-40.3,0-80.7,0-121,0C1,167.7,1,84.3,1,1c82,0,164,0,246-0.1c3.4,0,4.1,0.7,4.1,4.1
			c-0.1,80.7-0.1,161.3,0,242c0,3.4-0.7,4.1-4.1,4.1c-40.3-0.2-80.7-0.1-121-0.1c0-0.4,0-0.7-0.1-1.1c6.4-6.3,14.3-10.9,20.1-17.9
			l0,0c0.8,0,1.5-0.2,1.9-1c9.6-7.8,19.1-15.6,28.2-23.9c1-0.9,2-1.9,3.1-2.8c10.3-6.8,20.6-13.7,17.1-28.8c-0.5-2-0.2-4.3,0-6.5
			c0.2-2.6-0.7-3.7-3.4-4.3c-10.9-2.3-21.7-4.9-32.5-7.4c-1.4-0.2-2.7-0.5-4.1-0.7c-6.2-5.1-9.2-11.8-10.2-19.5
			c8.1,3.7,12,4.4,17.7,3.1c-1-0.5-1.9-0.9-2.8-1.3c0-0.4,0-0.7,0-1.1c6.3,0.6,12.6,0.7,19.2-2.4c-5.4-2.9-10.3-5.4-13.3-10.3
			c0.4-0.4,0.9-0.9,1.3-1.3c1.3,0.6,2.6,1.4,4,1.9c2.1,0.8,3.4,0.2,2.6-2.3c-2.6-8.3-2.9-16.8-3.5-25.4c0.6-2.3,1.2-4.6,1.8-6.9
			c3.1,1.2,4.4-0.1,4.8-3.2c1.6-12.3,2-24.5,0-36.8c-4.9-29.7-27.6-48.2-56.7-46C104.7,6.3,91.5,14,80.8,26.5
			c-10.8,12.7-15,27-10.6,43.1c1.9,6.8,2.6,12.6-3,17.9c3,1.2,5.2-0.5,7.7-0.6c-0.4,5.9,2.8,10.5,5.7,15.2
			c-1.2,6.7-2.4,13.5-3.7,20.5c3.7-0.5,6-2.5,8.6-3.9c0.3,0.2,0.5,0.5,0.8,0.7c-2.9,6-8.5,8.9-14.5,12.1c6.6,2.7,12.8,3.3,19.2,2
			c0,0.5,0,1,0,1.5c-1.1,0.3-2.2,0.5-2.8,1.6c6.2,1.2,11.8-1.3,17.4-2.8c0.1,1.4,0.3,2.7,0.4,4.1c-3.3,7.1-6.5,14.2-13.3,18.8
			c-11.2,2-22.2,4.9-33.1,8.2c-2.7-0.2-3.9,0.8-3.8,3.7c0.2,5.5,0.1,11,0.1,16.5c0,7.5,3.6,12.4,11,15c-0.1,0.9,0,1.7,1,2.1
			c1.2,2.4,3.9,3.1,5.7,4.9c9.5,8.7,19.1,17.2,29.2,25.1c1.5,2,3.6,3.4,5.3,5.1C112.8,241.9,119.4,244.5,122,251z"/>
		<path class="st2" d="M122,251c-2.6-6.5-9.2-9.1-13.8-13.7c-1.7-1.7-3.8-3.1-5.3-5.1c7,0.7,14,2.4,21.1,1.8
			c0.3,0.1,0.5,0.2,0.8,0.2c0.7,5.2-1.2,10.6,1.1,15.8c0,0.4,0,0.7,0.1,1.1C124.7,251,123.3,251,122,251z"/>
		<path class="st3" d="M75,86.9c-2.4,0.1-4.7,1.8-7.7,0.6c5.6-5.3,4.9-11.2,3-17.9C65.9,53.5,70,39.2,80.8,26.5
			C91.5,14,104.7,6.3,121.2,5.1C150.4,2.9,173,21.4,178,51.2c2,12.2,1.6,24.5,0,36.8c-0.4,3.1-1.6,4.4-4.8,3.2
			c-3-1.7-6.1-3.4-9.1-5.1c-2-1.4-4-2.8-6-4.2c-0.6-0.6-1.2-1.2-1.9-1.7c-2.1-2.4-4.2-4.8-6.3-7.3c-0.6-0.7-1.1-1.4-1.7-2.1
			c-4-7.8-8.2-15.4-10.8-23.8c-0.1,8.8,2.8,16.6,6.8,24.2c0.3,0.6,0.7,1.2,1,1.8c1.2,2.9,2.7,5.7,4.8,8c0.1,1.4,1,2.3,1.9,3.2
			c0,0.7,0.1,1.3,0.1,2c-1.4-0.3-2.8-0.6-4.2-1c-1.3-0.5-2.6-1-3.9-1.4c-0.8-1.1-2-1.3-3.3-1.3c-6-3.9-11.3-8.6-16.6-13.4
			c-5.4-6.4-10-13.4-14.6-20.3c0.6,7.1,3.4,13.5,5.9,19.9c1.1,2.6,4.6,6,2.7,7.7c-2.2,2.1-5.7-1.2-8.5-2.3c-1.9-1.7-3.9-3-6.2-4
			c-1.1-1.3-2-3-4.1-3.5c-0.1,1.2-0.3,2.3-0.4,3.5c-0.8,0.8-0.9,1.7-0.7,2.7c-1.6,2.7-3.3,5.5-4.9,8.2c-0.9,1-1.7,2-2.6,2.9
			c-1.9,1-3.8,2-5.6,3c-2.1,0.1-4.4,0.5-3.1-3.1c0.5-1.4,0.1-3.2,0.1-4.8c0-0.8,0-1.8-1.1-1.6c-0.3,0-0.4,1-0.6,1.6
			C79.7,82.5,76.9,84.4,75,86.9z"/>
		<path class="st2" d="M67,200c-7.4-2.6-11-7.5-11-15c0-5.5,0.1-11-0.1-16.5c-0.1-2.9,1.1-3.9,3.8-3.7c2.4,2.1,5.6,1.9,8.4,2.6
			c18.6,4.5,37.2,9,55.9,13.4l0,0c0,2.3,0,4.6,0,6.9c-1.8,0.2-3.6,0.5-5.4,0.7C101.1,190.9,84,195.3,67,200z"/>
		<path class="st4" d="M124.9,234.1c-0.3-0.1-0.6-0.2-0.8-0.2c0-5.6,0-11.2,0-16.8c2.4-2.7,4.4-5.8,7.2-8.1
			c14.2-11.8,29.7-12.3,44.9-1.9c-9.1,8.4-18.6,16.2-28.2,23.9c-0.8,0-1.6,0.1-1.9,1l0,0C139,232.7,131.9,233.4,124.9,234.1z"/>
		<path class="st5" d="M124,217.1c0,5.6,0,11.2,0,16.8c-7.1,0.6-14.1-1.1-21.1-1.8c-10.1-7.9-19.8-16.4-29.2-25.1
			c7.7-7.4,17.2-7.9,27-6.6c10.2,1.4,17.2,7.9,23.3,15.6C124,216.4,124,216.7,124,217.1z"/>
		<path class="st6" d="M160.3,157.3c10.8,2.5,21.6,5.1,32.5,7.4c2.7,0.6,3.6,1.6,3.4,4.3c-0.2,2.1-0.4,4.4,0,6.5
			c3.5,15.1-6.7,22-17.1,28.8c-2.5-1.9-5.1-3.7-7.6-5.6c1.3-1.2,2.8-2.4,4-3.7c3.5-3.6,4.1-7.8,2.1-12.3c-1.9-4.3-5.5-6.4-10.2-6.5
			c-5.2-0.1-8.5,3-11.1,7c-0.1-3.1-0.2-6.1-0.3-9.2C157.4,168.4,158.8,162.9,160.3,157.3z"/>
		<path class="st7" d="M171.3,98.1c0.6,8.5,0.9,17.1,3.5,25.4c0.8,2.4-0.5,3-2.6,2.3c-1.4-0.5-2.7-1.3-4-1.9
			c-1.1-0.9-2.1-1.9-3.2-2.8c-0.2-0.2,0-1.2-0.7-0.4c0.2,0.1,0.5,0.2,0.7,0.3c-0.4,1.8,0.5,3.1,1.8,4.1c3,4.8,7.9,7.4,13.3,10.3
			c-6.5,3.1-12.8,3-19.2,2.4c-0.6-0.6-1.5-1.1-1.8-0.1c-0.2,0.6,0.9,1.1,1.8,1.1c0.9,0.4,1.8,0.8,2.8,1.3c-5.7,1.3-9.6,0.6-17.7-3.1
			c-0.4-0.4-0.8-0.8-1.2-1.2c0-2,0.1-3.9,0.1-5.9c0.5-2.7,2.7-4.2,4.6-5.7c6.2-5.4,10.9-11.5,11.6-20.1
			C166,104.6,168.3,100.8,171.3,98.1z M157.8,136.5l-0.3-0.2v0.3L157.8,136.5z"/>
		<path class="st8" d="M144.8,135.8c0.4,0.4,0.8,0.8,1.2,1.3c1,7.8,4,14.5,10.2,19.5c-9,8.6-19.7,13.6-32.2,14.4v-0.2
			c0-7.5-0.1-15-0.1-22.5c6.5,0.4,11.5-2.4,15.6-7.3C141.1,139.1,143,137.6,144.8,135.8z"/>
		<path class="st5" d="M124,181c-18.6-4.5-37.2-8.9-55.9-13.4c-2.8-0.7-6-0.5-8.4-2.6c10.9-3.3,21.9-6.2,33.1-8.2
			c8.4,9.1,19,13.3,31.2,14v0.2C124,174.3,124,177.6,124,181z"/>
		<path class="st9" d="M124,170.8c-12.1-0.8-22.7-5-31.2-14c6.8-4.6,10-11.7,13.3-18.8c2.2,0.3,3.3,2.1,4.6,3.4
			c3.7,3.7,7.8,6.4,13.1,7C124,155.8,124,163.3,124,170.8z"/>
		<path class="st5" d="M171.5,198.6c2.5,1.9,5.1,3.7,7.6,5.6c-1,0.9-2,1.9-3.1,2.8c-15.2-10.4-30.7-9.9-44.9,1.9
			c-2.7,2.3-4.8,5.4-7.2,8.1c0-0.3,0-0.7-0.1-1c0-8.7,0-17.3,0.1-26c3-0.4,6-0.9,9-1.3c6.5-0.3,12.9-0.5,19.4-0.8
			c1.6-0.1,2.9-0.1,3.9,2C159.8,197.9,162.5,199.3,171.5,198.6z"/>
		<path class="st7" d="M85.6,118.7c-2.6,1.4-4.9,3.4-8.6,3.9c1.2-7,2.4-13.7,3.7-20.5c2.4,0.7,4.5,2.4,7.2,2
			c0.9,8.1,4.1,14.9,10.6,20.1c2.7,2.2,5,4.9,7.4,7.4c-0.1,0.8-0.1,1.5-0.2,2.3c-5.7,1.5-11.2,4-17.4,2.8c0.6-1.1,1.7-1.3,2.8-1.6
			c1.4,0,2.3-0.8,3.1-1.8c0.2-0.2,0.5-0.6,0.5-0.6c-0.4-0.6-0.7-0.2-1,0.2c-0.9,0.3-1.7,0.5-2.6,0.8c-6.4,1.3-12.6,0.7-19.2-2
			c5.9-3.3,11.6-6.2,14.5-12.1c0.2-0.5,0.4-0.9,0.7-1.4c0.7-0.3,1.1-1.1,0.5-1.3c-0.7-0.3-1.1,0.7-1.4,1.3
			C85.9,118.1,85.7,118.4,85.6,118.7z"/>
		<path class="st2" d="M124,190.1c0,8.7,0,17.3-0.1,26c-6.1-7.7-13.1-14.3-23.3-15.6c-9.7-1.3-19.2-0.8-27,6.6
			c-1.8-1.7-4.5-2.5-5.7-4.9C86.3,196.5,104.9,191.9,124,190.1z"/>
		<path class="st4" d="M124,181c0-3.3,0-6.7,0-10c12.5-0.8,23.2-5.8,32.2-14.4c1.4,0.2,2.7,0.5,4.1,0.7c-1.4,5.6-2.9,11.1-4.3,16.7
			C145.1,175.2,134.8,179.2,124,181L124,181z"/>
		<path class="st10" d="M105.8,133.8c0.1-0.8,0.1-1.5,0.2-2.3c2.6,1,4.1,3.3,6.2,5c3.5,2.9,7,5.7,11.9,5.5
			c5.8,0.8,10.3-1.4,14.1-5.6c2.1-2.3,4-4.9,6.8-6.5c0,2-0.1,3.9-0.1,5.9c-1.8,1.7-3.7,3.3-5.3,5.2c-4.1,4.9-9.1,7.6-15.6,7.3
			c-5.3-0.6-9.4-3.3-13.1-7c-1.3-1.3-2.4-3.1-4.6-3.4C106,136.6,105.9,135.2,105.8,133.8z"/>
		<path class="st5" d="M124.9,234.1c7-0.7,14.1-1.4,21.1-2.1c-5.8,7-13.7,11.6-20.1,17.9C123.7,244.8,125.6,239.4,124.9,234.1z"/>
		<path class="st8" d="M87.9,104.1c-2.7,0.4-4.8-1.3-7.2-2c-2.9-4.7-6.1-9.3-5.7-15.2c1.9-2.5,4.7-4.4,5.2-7.8c0.6,0,1.2,0,1.8,0
			c0,1.6,0.4,3.3-0.1,4.8c-1.3,3.6,1,3.2,3.1,3.1C85.1,92.8,87,98.4,87.9,104.1z"/>
		<path class="st3" d="M124,190.1c-19.1,1.8-37.7,6.4-56,12c-1-0.4-1.1-1.2-1-2.1c17-4.7,34.1-9.1,51.6-11.4
			c1.8-0.2,3.6-0.5,5.4-0.7c3-0.2,5.9-1.1,8.9-0.6c0,0.5,0,1,0,1.6C130,189.2,127,189.6,124,190.1z"/>
		<path class="st8" d="M171.3,98.1c-3,2.7-5.4,6.5-10.3,6c0.6-6.1,2.9-11.8,3-18c3,1.7,6.1,3.4,9.1,5.1
			C172.5,93.5,171.9,95.8,171.3,98.1z"/>
		<path class="st2" d="M166.9,125.1c-1.3-1.1-2.2-2.3-1.8-4.1l0,0c1.1,0.9,2.1,1.9,3.2,2.8C167.7,124.3,167.3,124.7,166.9,125.1z"/>
		<path class="st9" d="M91.1,133.5c0.9-0.3,1.7-0.5,2.6-0.8c0.2,0.2,0.3,0.3,0.5,0.5c-0.8,1.1-1.7,1.8-3.1,1.8
			C91.1,134.5,91.1,134,91.1,133.5z"/>
		<path class="st2" d="M161,138.8c-0.9,0-2-0.5-1.8-1.1c0.3-1,1.2-0.5,1.8,0.1C161,138.1,161,138.5,161,138.8z"/>
		<path class="st5" d="M146,232c0.3-0.9,1.1-1,1.9-1C147.5,231.8,146.8,232.1,146,232z"/>
		<path class="st11" d="M87.9,104.1c-0.9-5.7-2.8-11.3-3-17.1c1.9-1,3.8-2,5.6-3c1.4,2,2.6,4.2,5.5,4.4c4,4,10.5,4.7,15.3,2
			c1.6-0.9,1.1-1.7,0.6-2.8c0-0.8-0.1-1.5-1.1-1.6l0.1,0.1c-0.6-2-2.4-2.5-3.9-3.3c-4.4-2.2-9.2-1.9-13.9-1.9
			c1.6-2.7,3.3-5.5,4.9-8.2c3.9-0.7,7.6,1.4,11.4,1.2c2.8,1.2,6.3,4.4,8.5,2.3c1.8-1.7-1.7-5.1-2.7-7.7c-2.6-6.4-5.4-12.8-5.9-19.9
			c4.7,7,9.2,13.9,14.6,20.3c0,6,0,12,0,18c-2-0.1-3.6,0.4-4,2.8c-0.6,3.3-0.9,6.7-2.1,9.7c-3.1,7.4,0.4,11.8,6.1,15.6
			c-0.1,1.9-0.2,3.7-0.2,5.6c-3.6-0.4-7.1-0.3-10.5,1.4c-0.2,0.7,0.2,0.9,0.7,1.1h-0.1c3.1,2.7,5.4,6.5,10.1,6.8c0,4.1,0,8.1,0,12.2
			c-4.9,0.2-8.4-2.6-11.9-5.5c-2-1.7-3.6-4-6.2-5c-2.5-2.5-4.7-5.2-7.4-7.4C92,119,88.8,112.2,87.9,104.1z"/>
		<path class="st12" d="M123.7,120.6c0.1-1.9,0.2-3.7,0.2-5.6c1.6-1.1,3.3-2.1,3.8-4.7c-3.5,1-3.9-0.7-3.8-3.5
			c0.2-6.6,0.1-13.2,0.1-19.8c0-6,0-12,0-18c5.3,4.8,10.6,9.5,16.6,13.4c-1.2,1.2-3.7,1-3.5,3.6l0,0c-1.2-0.6-1.7,0.3-2.3,1.1
			c-0.7,0.5-0.8,1.2-0.6,2l0,0c-0.1,0.1-0.3,0.1-0.4,0.2c0.1,0.1,0.3,0.3,0.4,0.4c5.6,2.2,11.2,4.1,16.6-0.7
			c0.6-0.1,1.2-0.3,1.3-1.1l0,0c1,0.4,1.6,0,2.1-0.9c1.9-1.3,2.7-3.5,4-5.3c2,1.4,4,2.8,6,4.2c-0.1,6.1-2.4,11.9-3,18
			c-0.6,8.6-5.3,14.7-11.6,20.1c-1.8,1.6-4.1,3-4.6,5.7c-2.7,1.7-4.7,4.2-6.8,6.5c-3.8,4.2-8.4,6.4-14.1,5.6c0-4.1,0-8.1,0-12.2
			c5.5-0.2,8.2-4.5,12.8-8.2c-5.1-0.5-8.8-2.3-12.8-0.4C124,121,123.8,120.8,123.7,120.6z"/>
		<path class="st12" d="M144.1,71.2c-4-7.6-6.9-15.4-6.8-24.2c2.6,8.4,6.8,16,10.8,23.7C146.8,70.9,145.5,71,144.1,71.2z"/>
		<path class="st1" d="M150.7,89c-5.3,4.8-10.9,2.9-16.6,0.7c0-0.2,0-0.4,0-0.6l0,0c0.6-0.7,1.3-1.3,1.9-2c0.3-0.4,0.7-0.7,1-1.1
			l0,0c1.3-0.4,2.7-0.7,4-1.1c0.2,2,1,3.7,3.2,3.8c2.2,0.1,3.1-1.5,3.5-3.5c1.4,0.3,2.8,0.6,4.2,1c-0.1,0.2-0.1,0.5,0.1,0.7
			c0,0.3-0.1,0.7-0.1,1l0,0C151.6,88.3,151.1,88.7,150.7,89z"/>
		<path class="st13" d="M93.2,81c4.7,0,9.5-0.4,13.9,1.9c1.5,0.8,3.4,1.3,3.9,3.3c-1.6-0.4-3.2-0.8-4.8-1.1
			c-1.9-1.4-4.1-1.1-6.3-0.9c-1.9,0-4.2-0.8-5.5,1c-0.8,1.1,0.8,2.3,1.6,3.3c-2.9-0.1-4.1-2.4-5.5-4.4C91.4,82.9,92.3,82,93.2,81z"
			/>
		<path class="st12" d="M150,81c-2.2-2.3-3.6-5.1-4.8-8c1.6,0,3.1-0.1,4.7-0.1c2.1,2.4,4.2,4.8,6.3,7.3C154.3,81.7,152,80.7,150,81z
			"/>
		<path class="st13" d="M150,81c2.1-0.3,4.3,0.7,6.2-0.9c0.6,0.6,1.2,1.2,1.9,1.7c-1.3,1.8-2.1,3.9-4,5.2c-0.5,0-0.9-0.1-1.4-0.1
			c0.2-1,1.3-2.3-0.7-2.7C150.9,83.4,150,82.4,150,81z"/>
		<path class="st10" d="M109.5,74c-3.9,0.2-7.5-1.9-11.4-1.2c-0.2-1-0.1-2,0.7-2.7c1.5,0,3,0,4.5,0C105.6,71,107.7,72.4,109.5,74z"
			/>
		<path class="st14" d="M147.8,85.3c-0.4,2-1.3,3.6-3.5,3.5s-3-1.7-3.2-3.8c1-0.4,1.9-0.8,2.9-1.1C145.2,84.3,146.5,84.8,147.8,85.3
			z"/>
		<path class="st13" d="M143.9,83.8c-1,0.4-1.9,0.8-2.9,1.1c-1.3,0.4-2.7,0.7-4,1.1c-0.2-2.5,2.3-2.4,3.5-3.6
			C141.9,82.5,143.1,82.8,143.9,83.8z"/>
		<path class="st11" d="M103.3,70.1c-1.5,0-3,0-4.5,0c0.1-1.1,0.3-2.2,0.4-3.5C101.3,67.1,102.2,68.7,103.3,70.1z"/>
		<path class="st13" d="M149.8,72.9c-1.6,0-3.1,0.1-4.7,0.1c-0.3-0.6-0.6-1.2-1-1.8c1.3-0.1,2.7-0.3,4-0.4
			C148.7,71.4,149.3,72.1,149.8,72.9z"/>
		<path class="st9" d="M81.9,79.1c-0.6,0-1.2,0-1.8,0c0.2-0.5,0.4-1.5,0.6-1.6C81.9,77.3,81.9,78.3,81.9,79.1z"/>
		<path class="st9" d="M151.9,84.2c2.1,0.4,0.9,1.7,0.7,2.7c-0.2,0-0.4,0-0.6,0c-0.1-0.2-0.1-0.5-0.1-0.7
			C152,85.6,151.9,84.9,151.9,84.2z"/>
		<path class="st5" d="M133,187.2c-3-0.5-6,0.5-8.9,0.6c0-2.3,0-4.6,0-6.9c10.8-1.8,21-5.8,31.9-7c0.1,3.1,0.2,6.1,0.3,9.2
			c0,2.9-1.8,2.9-4,3C145.9,186.4,139.4,186.9,133,187.2z"/>
		<path class="st15" d="M133,187.2c6.4-0.4,12.9-0.8,19.3-1.1c2.2-0.1,4-0.1,4-3c2.6-4,5.9-7.1,11.1-7c4.7,0.1,8.3,2.2,10.2,6.5
			c2,4.5,1.4,8.7-2.1,12.3c-1.3,1.3-2.7,2.4-4,3.7c-9,0.6-11.7-0.7-15.3-8.6c-1-2.2-2.3-2.1-3.9-2c-6.5,0.2-12.9,0.5-19.4,0.8
			C133,188.3,133,187.8,133,187.2z"/>
		<polygon class="st2" points="157.8,136.5 157.5,136.6 157.5,136.4 		"/>
		<path class="st2" d="M165,121c-0.2-0.1-0.5-0.2-0.7-0.3C165,119.8,164.8,120.8,165,121L165,121z"/>
		<path class="st2" d="M86.1,118c0.3-0.7,0.7-1.7,1.4-1.3c0.6,0.3,0.2,1-0.5,1.3C86.7,118,86.4,118,86.1,118z"/>
		<path class="st9" d="M93.7,132.7c0.3-0.3,0.6-0.7,1-0.2c0,0.1-0.3,0.4-0.5,0.6C94.1,133.1,93.9,132.9,93.7,132.7z"/>
		<path class="st1" d="M86.1,118c0.3,0,0.6,0,0.9,0c-0.2,0.5-0.4,0.9-0.7,1.4c-0.3-0.2-0.5-0.5-0.8-0.7
			C85.7,118.4,85.9,118.1,86.1,118z"/>
		<path class="st8" d="M124,87c0,6.6,0.1,13.2-0.1,19.8c-0.1,2.8,0.3,4.5,3.8,3.5c-0.4,2.6-2.2,3.6-3.8,4.7
			c-5.7-3.7-9.2-8.2-6.1-15.6c1.3-3,1.5-6.4,2.1-9.7C120.4,87.4,122,86.9,124,87z"/>
		<path class="st16" d="M124.1,121.2c3.9-1.9,7.7-0.1,12.8,0.4c-4.6,3.7-7.3,8-12.8,8.2c-4.7-0.4-7-4.1-10.1-6.8
			c2.3,0,4.5-0.1,6.7,0.7C122.7,124.4,124.2,123.8,124.1,121.2z"/>
		<path class="st1" d="M106.2,85c1.6,0.4,3.2,0.8,4.8,1.1l-0.1-0.1c-0.3,1,0.5,1.2,1.1,1.6c0.5,1.1,0.9,1.9-0.6,2.8
			c-4.9,2.7-11.3,2-15.3-2c-0.8-1-2.4-2.1-1.6-3.3c1.3-1.8,3.6-1,5.5-1c-0.2,2.3,0.1,4.5,2.8,4.7C105.1,88.9,106.1,87.2,106.2,85z"
			/>
		<path class="st6" d="M124.1,121.2c0.1,2.6-1.4,3.2-3.4,2.4c-2.2-0.8-4.5-0.7-6.7-0.7h0.1c-0.2-0.4-0.5-0.7-0.7-1.1
			c3.3-1.6,6.9-1.8,10.5-1.4C123.8,120.8,124,121,124.1,121.2z"/>
		<path class="st13" d="M112,87.6c-0.6-0.4-1.4-0.6-1.1-1.6C111.9,86.1,112,86.8,112,87.6z"/>
		<path class="st16" d="M113.3,122c0.2,0.4,0.5,0.7,0.7,1.1C113.5,122.9,113,122.7,113.3,122z"/>
		<path class="st4" d="M136,87.1c-0.6,0.7-1.3,1.3-1.9,2c-0.2-0.8-0.1-1.5,0.6-2C135.2,87.1,135.6,87.1,136,87.1z"/>
		<path class="st13" d="M136,87.1c-0.4,0-0.9,0-1.3,0c0.6-0.8,1.1-1.6,2.3-1.1C136.7,86.4,136.4,86.8,136,87.1z"/>
		<path class="st10" d="M152,86.9c0.2,0,0.4,0,0.6,0c0.5,0,0.9,0.1,1.4,0.1c-0.5,0.8-1.1,1.3-2.1,0.9C152,87.6,152,87.3,152,86.9z"
			/>
		<path class="st10" d="M150.7,89c0.4-0.4,0.8-0.7,1.3-1.1C151.9,88.8,151.3,88.9,150.7,89z"/>
		<path class="st4" d="M134.2,89.1c0,0.2,0,0.4,0,0.6c-0.1-0.1-0.3-0.3-0.4-0.4C133.9,89.2,134,89.2,134.2,89.1z"/>
		<path class="st14" d="M106.2,85c-0.1,2.3-1.1,3.9-3.4,3.8c-2.8-0.2-3-2.4-2.8-4.7C102.1,83.9,104.2,83.6,106.2,85z"/>
	</g>
</g>
</svg>
