<?xml version="1.0" encoding="iso-8859-1"?>
<!-- Generator: Adobe Illustrator 23.0.3, SVG Export Plug-In . SVG Version: 6.00 Build 0)  -->
<svg version="1.1" id="Layer_1" xmlns="http://www.w3.org/2000/svg" xmlns:xlink="http://www.w3.org/1999/xlink" x="0px" y="0px"
	 viewBox="0 0 250 250" style="enable-background:new 0 0 250 250;" xml:space="preserve">
<g>
	<g>
		<path style="fill:none;" d="M125,251c-41.333,0-82.667,0-124,0C1,167.667,1,84.333,1,1c82,0,164,0.027,246-0.096
			c3.424-0.005,4.101,0.672,4.096,4.096c-0.124,80.666-0.124,161.333,0,242c0.005,3.424-0.67,4.112-4.096,4.099
			C207.334,250.944,167.667,251,128,251c0.351-0.55,0.605-1.203,1.066-1.635c19.063-17.868,38.196-35.663,57.185-53.609
			c4.154-3.925,9.086-7.162,11.891-12.4c2.052-0.818,1.689-2.609,1.691-4.239c0.007-6.147-0.142-12.299,0.065-18.439
			c0.1-2.986-0.64-4.257-3.847-4.939c-12.476-2.653-24.834-5.858-37.301-8.558c-3.038-0.658-4.05-1.691-3.993-4.84
			c0.19-10.462,0.04-20.931,0.021-31.394c0.235-0.261,0.288-0.556,0.159-0.884c3.304-2.939,4.734-6.745,4.888-11.042
			c1.108-31.011,2.178-62.024,3.259-93.036c0.894-0.454,0.89-1.233,0.659-2.027c-0.043-0.146-0.56-0.325-0.725-0.237
			c-0.98,0.519-1.246,1.363-0.92,2.408c-1.929,8.063-3.858,16.125-6.011,25.122c-7.923-10.587-17.755-15.445-29.533-14.851
			c-11.354,0.573-22.333,3.138-29.799,14.691c-2.181-8.988-4.005-16.504-5.829-24.02c0.394-1.568-0.124-2.775-1.754-3.941
			c-0.006,1.527-0.283,2.772,0.728,3.864c0.193,9.298,0.713,18.603,0.514,27.893c-0.471,21.923,1.302,43.76,2.097,65.633
			c0.141,3.873,0.857,7.628,4.548,9.947c1.322,1.519,2.644,3.038,3.966,4.557c-0.066,8.622-0.276,17.247-0.116,25.865
			c0.054,2.919-0.916,3.934-3.664,4.594c-13.835,3.327-27.589,6.987-41.433,10.273c-2.824,0.67-3.832,1.68-3.711,4.58
			c0.228,5.465,0.082,10.946,0.092,16.42c0.086,3.689-0.977,7.345,2.651,10.503c12.772,11.115,25.249,22.568,37.866,33.862
			c10.756,9.628,21.55,19.213,32.327,28.818C125.024,250.294,125.012,250.647,125,251z"/>
		<path style="fill:#969595;" d="M125,251c0.012-0.353,0.024-0.706,0.036-1.059c0.037-7.059,0.074-14.118,0.111-21.178
			c1.025,0.657,1.478,0.55,2.061-0.753c1.848-4.132,4.57-6.641,9.296-3.674c0.9,0.565,1.559,0.451,2.003-0.431
			c1.174-2.332,2.543-4.227,5.604-4.027c2.818,0.184,3.717,2.827,5.694,4.675c0.429-4.365,0.732-8.145-0.765-11.796
			c-2.43-5.926-5.745-6.481-9.677-1.729c-0.931,1.125-2.108,2.144-3.366,2.882c-5.009,2.941-7.176,1.867-7.717-3.691
			c-1.552,0.166-0.189,2.805-2.186,2.578c0.131-1.725-0.218-3.341-1.096-4.837c0.053-1.416,0.106-2.833,0.158-4.249
			c2.874,1.35,3.99-1.26,5.106-2.717c4.642-6.055,10.51-8.762,18.2-8.87c8.777-0.123,17.434-1.938,26.038-3.688
			c7.898-1.607,15.763-3.381,23.642-5.081c-2.805,5.238-7.738,8.475-11.891,12.4c-18.989,17.946-38.122,35.741-57.185,53.609
			c-0.461,0.432-0.715,1.085-1.066,1.635C127,251,126,251,125,251z"/>
		<path style="fill:#020202;" d="M198.142,183.356c-7.879,1.7-15.744,3.475-23.642,5.081c-8.604,1.75-17.261,3.565-26.038,3.688
			c-7.69,0.107-13.558,2.814-18.2,8.87c-1.116,1.456-2.232,4.067-5.106,2.717c-2.038-2.168-4.191-4.24-6.084-6.529
			c-2.466-2.981-5.386-4.129-9.342-4.48c-20.122-1.785-39.558-6.309-57.539-15.945c-0.01-5.474,0.136-10.955-0.092-16.42
			c-0.121-2.9,0.888-3.91,3.711-4.58c13.844-3.285,27.599-6.946,41.433-10.273c2.747-0.661,3.718-1.675,3.664-4.594
			c-0.16-8.618,0.051-17.243,0.116-25.865c4.434,4.235,8.932,8.407,13.282,12.727c3.272,3.25,6.954,5.038,11.645,4.19
			c5.929,1.145,10.426-0.95,14.352-5.503c4.609-5.346,9.112-10.834,14.474-15.494c0.02,10.466,0.169,20.934-0.02,31.396
			c-0.057,3.15,0.955,4.182,3.993,4.84c12.467,2.699,24.825,5.904,37.301,8.558c3.207,0.682,3.948,1.954,3.847,4.939
			c-0.207,6.14-0.058,12.292-0.065,18.439C199.832,180.747,200.195,182.538,198.142,183.356z"/>
		<path style="fill:#040404;" d="M163.084,5.985c-1.082,31.012-2.152,62.025-3.259,93.036c-0.153,4.297-1.584,8.102-4.887,11.041
			c-0.127-5.791-0.393-11.583-0.32-17.371c0.033-2.604-0.699-3.436-3.353-3.312c-4.796,0.224-9.631,0.34-14.412-0.016
			c-4.44-0.331-5.371,1.101-4.366,5.317c1.382,5.796-0.469,8.09-6.381,9.114c0,0,0.075-0.484,0.075-0.484
			c-0.071-5.942-0.124-11.884-0.228-17.826c-0.025-1.414,0.358-3.196-1.915-3.306c-1.944-0.094-1.788,1.402-2.056,2.704
			c-0.329,1.6-0.919,3.147-1.397,4.716c-7.725,0-15.449,0-23.527,0c0,6.697,0,13.783,0,20.869c-3.69-2.32-4.407-6.074-4.547-9.947
			c-0.795-21.873-2.568-43.71-2.097-65.633c0.2-9.29-0.321-18.595-0.514-27.893c0.342,0.025,0.684,0.051,1.026,0.076
			c1.824,7.516,3.648,15.031,5.829,24.02c7.466-11.552,18.445-14.118,29.799-14.691c11.777-0.594,21.61,4.264,29.533,14.851
			c2.153-8.996,4.082-17.059,6.011-25.122C162.42,6.029,162.748,5.981,163.084,5.985z M117.785,79.493
			c-6.06-3.079-11.976-5.122-18.768-4.924C103.211,82.554,109.491,84.252,117.785,79.493z M135.866,79.367
			c7.241,5.154,15.231,3.025,18.03-4.852C147.389,74.485,141.567,76.382,135.866,79.367z"/>
		<path style="fill:#B2B1AF;" d="M52.192,176.758c17.981,9.636,37.417,14.159,57.539,15.945c3.956,0.351,6.877,1.499,9.342,4.48
			c1.892,2.288,4.046,4.361,6.084,6.529c-0.053,1.416-0.106,2.833-0.158,4.25c-1.69,1.471-1.161,3.189-0.548,4.917
			c-0.087,1.211,0.573,2.908-1.739,2.668c-4.612-0.477-9.147-1.491-11.13-6.214c-1.328-3.163-2.574-2.13-4.223-0.707
			c-4.83,4.167-6.153,9.422-4.901,16.133c3.993-3.502,7.79-5.746,11.522-0.452c0.763,1.083,1.726,0.349,2.663,0.053
			c4.267-1.349,7.066,0.239,8.504,4.404c-0.037,7.059-0.074,14.119-0.111,21.178c-10.777-9.604-21.571-19.19-32.327-28.818
			c-12.617-11.294-25.094-22.747-37.866-33.862C51.215,184.103,52.278,180.447,52.192,176.758z"/>
		<path style="fill:#EE9872;" d="M126.106,103.795c5.913-1.024,7.764-3.318,6.382-9.114c-1.005-4.216-0.074-5.648,4.366-5.317
			c4.78,0.356,9.615,0.24,14.412,0.016c2.654-0.124,3.386,0.708,3.353,3.312c-0.073,5.788,0.193,11.58,0.32,17.371
			c0.128,0.328,0.076,0.624-0.159,0.885c-5.363,4.658-9.865,10.146-14.475,15.492c-3.926,4.553-8.423,6.648-14.352,5.503
			c-0.007-7.944-0.014-15.888-0.021-23.833c2.355,0,4.709,0,7.064,0c0.021-0.313,0.042-0.626,0.063-0.939
			c-2.373-0.421-4.746-0.842-7.119-1.263C125.996,105.203,126.051,104.499,126.106,103.795z"/>
		<path style="fill:#F2BC9A;" d="M125.931,108.11c0.007,7.944,0.014,15.888,0.021,23.832c-4.691,0.848-8.373-0.94-11.645-4.19
			c-4.35-4.32-8.848-8.492-13.282-12.727c-1.322-1.519-2.644-3.038-3.966-4.557c0-7.086,0-14.171,0-20.869
			c8.078,0,15.802,0,23.527,0c-0.262,2.087-0.509,4.176-0.79,6.261c-0.553,4.097,1.742,6.785,6.386,7.45
			c0,0-0.074,0.484-0.075,0.484c-0.056,0.704-0.111,1.408-0.166,2.112l0.1,0.157c-2.677,0.356-5.354,0.712-8.03,1.067
			c0.049,0.277,0.097,0.553,0.146,0.83c2.623,0,5.246,0,7.87,0L125.931,108.11z"/>
		<path style="fill:#8E8E8E;" d="M90.927,7.071c-0.342-0.025-0.684-0.051-1.026-0.076c-1.011-1.092-0.734-2.337-0.728-3.864
			C90.803,4.295,91.321,5.502,90.927,7.071z"/>
		<path style="fill:#B1B1B1;" d="M163.084,5.985c-0.336-0.003-0.665,0.045-0.986,0.144c-0.326-1.045-0.06-1.89,0.92-2.408
			c0.165-0.087,0.682,0.091,0.725,0.237C163.974,4.752,163.978,5.531,163.084,5.985z"/>
		<path style="fill:#040404;" d="M125.147,228.763c-1.439-4.164-4.237-5.753-8.504-4.404c-0.936,0.296-1.9,1.03-2.663-0.053
			c-3.731-5.294-7.529-3.05-11.522,0.452c-1.253-6.711,0.07-11.965,4.901-16.133c1.649-1.423,2.895-2.455,4.223,0.707
			c1.983,4.722,6.518,5.736,11.13,6.214c2.312,0.239,1.652-1.458,1.74-2.668c0.548-0.027,1.096-0.054,1.643-0.081
			c1.997,0.227,0.634-2.412,2.186-2.578c0.542,5.558,2.709,6.632,7.717,3.691c1.257-0.738,2.435-1.757,3.366-2.882
			c3.932-4.752,7.247-4.197,9.677,1.729c1.497,3.651,1.194,7.431,0.765,11.796c-1.977-1.848-2.876-4.491-5.694-4.675
			c-3.061-0.199-4.43,1.696-5.604,4.027c-0.444,0.882-1.103,0.996-2.003,0.431c-4.726-2.967-7.448-0.458-9.296,3.674
			C126.626,229.313,126.172,229.42,125.147,228.763z"/>
		<path style="fill:#656564;" d="M126.094,212.797c-0.548,0.027-1.095,0.054-1.643,0.081c-0.613-1.728-1.143-3.446,0.547-4.917
			C125.876,209.457,126.226,211.072,126.094,212.797z"/>
		<path style="fill:#352C2A;" d="M126.181,103.311c-4.643-0.665-6.939-3.353-6.386-7.45c0.282-2.085,0.528-4.174,0.79-6.261
			c0.477-1.57,1.067-3.116,1.397-4.716c0.268-1.302,0.112-2.797,2.056-2.704c2.273,0.109,1.891,1.892,1.915,3.306
			C126.057,91.427,126.11,97.369,126.181,103.311z"/>
		<path style="fill:#EDEDED;" d="M117.785,79.493c-8.294,4.759-14.574,3.061-18.768-4.924
			C105.809,74.371,111.725,76.414,117.785,79.493z"/>
		<path style="fill:#EDEDED;" d="M135.866,79.367c5.7-2.985,11.523-4.882,18.03-4.852C151.097,82.392,143.108,84.521,135.866,79.367
			z"/>
		<path style="fill:#C55235;" d="M125.94,105.907c2.373,0.421,4.746,0.842,7.119,1.263c-0.021,0.313-0.042,0.626-0.063,0.939
			c-2.355,0-4.709,0-7.064,0c0,0,0.094-0.148,0.094-0.148c0.005-0.632,0.01-1.265,0.015-1.897L125.94,105.907z"/>
		<path style="fill:#D96C49;" d="M126.04,106.064c-0.005,0.633-0.01,1.265-0.015,1.897c-2.623,0-5.246,0-7.869,0
			c-0.049-0.277-0.097-0.553-0.146-0.83C120.687,106.776,123.363,106.42,126.04,106.064z"/>
	</g>
</g>
</svg>
