<?xml version="1.0" encoding="iso-8859-1"?>
<!-- Generator: Adobe Illustrator 23.0.3, SVG Export Plug-In . SVG Version: 6.00 Build 0)  -->
<svg version="1.1" id="Layer_1" xmlns="http://www.w3.org/2000/svg" xmlns:xlink="http://www.w3.org/1999/xlink" x="0px" y="0px"
	 viewBox="0 0 250 250" style="enable-background:new 0 0 250 250;" xml:space="preserve">
<g>
	<g>
		<path style="fill:none;" d="M123,251c-40.667,0-81.333,0-122,0C1,167.667,1,84.333,1,1c82,0,164,0.027,246-0.096
			c3.424-0.005,4.101,0.672,4.096,4.096c-0.124,80.666-0.124,161.333,0,242c0.005,3.424-0.67,4.111-4.096,4.099
			C206.334,250.946,165.667,251,125,251c-0.006-0.352-0.012-0.705-0.018-1.057c22.929-19.207,45.855-38.417,68.797-57.608
			c1.24-1.038,1.815-2.203,1.797-3.861c-0.072-6.654-0.084-13.31,0.001-19.964c0.026-2.038-0.776-2.999-2.731-3.427
			c-12.484-2.735-24.954-5.535-37.428-8.314c-6.735-5.589-8.961-13.405-10.62-21.501c-0.118-1.364-0.237-2.728-0.355-4.091
			c0.379-2.209,1.752-3.77,3.26-5.32c3.183-3.273,6.256-6.653,9.375-9.989c0.513-0.077,1.328,0.208,1.019-0.852l-0.062,0.115
			c1.263,1.093,2.159-0.13,3.016-0.625c9.495-5.477,16.324-13.304,21.083-23.201c10.549-21.94-1.29-56.18-12.742-67.735
			c-5.052-5.097-11.237-7.537-18.4-7.537c-1.026-1.757-2.297-3.218-4.299-3.94c-11.912-4.295-24.025-6.495-36.619-3.478
			C89.307,13.591,76.647,27.88,67.312,45.956c-2.733,5.292-3.762,10.935-3.431,16.867c0.657,11.786,6.35,21.432,12.962,30.696
			c0.058,0.106,0.116,0.213,0.174,0.319c-0.055-0.092-0.11-0.185-0.165-0.277c0.435,0.537,0.871,1.074,1.303,1.608
			c-0.415,7.934,1.806,16.916-8.487,20.838c7.161,7.252,15.686,9.107,23.887,5.319c4.636,2.921,8.665,6.513,12.015,10.854
			c-0.104,1.666-0.205,3.333-0.306,5c-1.535,8.224-5.833,14.694-12.487,19.667c-11.458,2.753-22.903,5.562-34.384,8.216
			c-2.543,0.588-2.415,2.238-2.406,4.123c0.032,6.658,0.124,13.318-0.047,19.971c-0.062,2.414,0.765,3.997,2.539,5.512
			c12.771,10.914,25.576,21.791,38.178,32.898C105.472,235.339,114.913,242.411,123,251z"/>
		<path style="fill:#BD212D;" d="M123,251c-8.087-8.589-17.528-15.661-26.344-23.431c-12.602-11.107-25.407-21.985-38.178-32.898
			c-1.773-1.515-2.601-3.098-2.539-5.512c0.171-6.653,0.079-13.314,0.047-19.971c-0.009-1.885-0.137-3.535,2.406-4.123
			c11.481-2.654,22.926-5.463,34.385-8.216c8,9.15,18.239,13.466,30.228,14.001c0.679,0.104,1.359,0.209,2.038,0.313
			c-0.043,6.312-0.086,12.625-0.129,18.937c-6.072-2.374-8.165-1.659-11.128,3.802c-4.958,1.691-9.202,4.499-12.559,8.495
			c-6.019,7.167-4.128,16.069,4.176,20.294c3.463,1.762,7.076,2.715,10.981,2.3c-0.004,0,0.257-0.032,0.257-0.032l0.261,0.038
			c1.7,1.308,3.391,1.511,5.069-0.039c0.994,0.115,1.989,0.23,2.983,0.344c0.009,8.214,0.018,16.428,0.026,24.642
			c0.006,0.352,0.012,0.705,0.018,1.057C124.333,251,123.667,251,123,251z"/>
		<path style="fill:#613923;" d="M76.842,93.519c-6.612-9.264-12.305-18.91-12.962-30.696c-0.331-5.932,0.698-11.575,3.431-16.867
			c9.335-18.075,21.995-32.365,42.762-37.341c12.594-3.018,24.708-0.818,36.619,3.478c2.002,0.722,3.273,2.183,4.299,3.94
			c0.325,3.263-0.767,6.196-2.039,9.112c-1.112,2.552-3.142,4.768-2.941,7.815c-1.624-0.187-2.267,1.008-3.082,2.078
			c-9.712,12.767-21.023,23.96-33.516,33.989c-0.981,0.788-2.493,1.199-2.372,2.908c-6.407,1.502-11.009,5.816-15.609,10.095
			c-3.572,3.322-6.925,6.811-5.692,12.374c-1.056,1.317-0.83,2.591,0.126,3.842c-0.444,1.963,1.884,3.658,0.55,5.706
			c-3.524-2.201-4.58-6.724-8.259-8.78c-0.435-0.537-0.871-1.074-1.306-1.61C76.852,93.564,76.842,93.519,76.842,93.519z"/>
		<path style="fill:#EA2228;" d="M124.915,190.098c0.043-6.312,0.086-12.625,0.129-18.937c11.853-1.15,22.126-5.635,30.374-14.392
			c12.474,2.779,24.944,5.579,37.428,8.314c1.955,0.428,2.757,1.389,2.731,3.427c-0.085,6.654-0.073,13.31-0.001,19.964
			c0.018,1.658-0.557,2.823-1.797,3.861c-22.942,19.191-45.868,38.402-68.797,57.608c-0.009-8.214-0.018-16.428-0.026-24.642
			c2.414-0.606,5.021-0.611,7.096-2.275c7.152-1.307,12.316-5.613,16.088-11.463c3.623-5.619,2.771-10.577-2.233-15.145
			c-5.699-5.202-12.772-5.73-20.032-5.311C125.555,190.77,125.235,190.434,124.915,190.098z"/>
		<path style="fill:#4B2A1B;" d="M146.012,32.96c-0.2-3.047,1.829-5.263,2.941-7.815c1.271-2.916,2.363-5.849,2.039-9.112
			c7.162,0,13.348,2.44,18.4,7.537c11.452,11.555,23.291,45.794,12.742,67.735c-4.759,9.897-11.588,17.724-21.083,23.201
			c-0.857,0.494-1.753,1.717-3.016,0.625c0.946-3.608,1.893-7.216,2.839-10.824c6.441-0.867,11.825-7.914,12.128-15.873
			c0.219-5.762-1.835-7.632-7.775-7.078c-0.062-2.316-0.123-4.632-0.185-6.948C165.118,57.643,160.162,43.191,146.012,32.96z"/>
		<path style="fill:#F5BD9A;" d="M160.873,104.306c-0.946,3.608-1.893,7.216-2.839,10.824c0,0,0.062-0.115,0.062-0.115
			c-0.34,0.284-0.679,0.568-1.019,0.852c-3.118,3.336-6.192,6.715-9.375,9.989c-1.508,1.551-2.881,3.112-3.258,5.32
			c-3.652,1.23-5.456,4.615-8.066,7.039c-5.102,4.738-10.586,5.891-17.257,3.51c-5.514-1.968-8.561-7.058-13.549-9.544
			c-3.353-4.342-7.382-7.934-12.019-10.854c-2.533-4.784-5.172-9.529-5.592-15.099c-0.078-1.033-0.408-1.941-1.546-2.276
			c1.335-2.048-0.994-3.744-0.549-5.707c0.056-0.781,0.112-1.56,0.168-2.34c14.251,12.772,15.113,12.882,29.843,3.804
			c0.038,1.813,0.201,3.634,0.091,5.437c-0.308,5.04,3.481,7.651,6.876,9.359c2.819,1.419,4.416-2.451,6.161-4.499
			c0.114-0.053,0.246-0.085,0.336-0.165c0.056-0.049,0.048-0.17,0.069-0.258c-0.139,0.137-0.279,0.274-0.418,0.411
			c-1.538-0.954-4.523,2.489-4.747-0.763c-0.326-4.72-1.416-9.663,0.772-14.314c16.284,14.265,20.405,14.618,36.082,3.095
			C162.367,100.158,160.369,102.187,160.873,104.306z M111.781,121.012c4.053,2.594,6.111,8.391,12.253,7.63
			c6.955,1.19,8.958-5.375,13.441-8.107c-4.593-0.782-8.92-2.876-13.323-0.535C119.855,118.225,115.734,118.59,111.781,121.012z"/>
		<path style="fill:#262122;" d="M155.418,156.769c-8.249,8.757-18.521,13.242-30.374,14.392c-0.679-0.104-1.359-0.208-2.038-0.312
			c-0.003-7.319-0.005-14.637-0.008-21.956c6.181,0.165,11.286-2.018,15.332-6.773c2.033-2.389,4.304-4.574,6.468-6.851
			C146.457,143.364,148.684,151.18,155.418,156.769z"/>
		<path style="fill:#2A2525;" d="M122.998,148.892c0.003,7.319,0.005,14.638,0.008,21.956c-11.99-0.535-22.228-4.851-30.228-14.001
			c6.654-4.973,10.952-11.443,12.486-19.666C110.843,141.588,115.474,147.43,122.998,148.892z"/>
		<path style="fill:#523120;" d="M86.417,103.952c1.138,0.335,1.468,1.243,1.546,2.276c0.42,5.57,3.058,10.314,5.592,15.099
			c-8.2,3.787-16.726,1.932-23.887-5.32c10.293-3.922,8.072-12.905,8.487-20.838C81.837,97.227,82.893,101.751,86.417,103.952z"/>
		<path style="fill:#EF9A73;" d="M122.998,148.892c-7.524-1.462-12.155-7.304-17.734-11.711c0.102-1.668,0.203-3.335,0.307-5.001
			c4.991,2.487,8.039,7.577,13.552,9.545c6.671,2.381,12.155,1.228,17.257-3.51c2.61-2.424,4.414-5.809,8.066-7.039
			c0.116,1.364,0.234,2.728,0.352,4.092c-2.163,2.277-4.435,4.463-6.468,6.851C134.284,146.874,129.179,149.057,122.998,148.892z"/>
		<path style="fill:#523120;" d="M76.842,93.519c0,0,0.01,0.044,0.01,0.043c0.055,0.091,0.11,0.184,0.165,0.276
			C76.958,93.732,76.9,93.626,76.842,93.519z"/>
		<path style="fill:#4B2A1B;" d="M157.078,115.868c0.34-0.284,0.679-0.568,1.019-0.852
			C158.406,116.076,157.591,115.791,157.078,115.868z"/>
		<path style="fill:#EA5C27;" d="M116.39,224.99c-3.909,0.414-7.522-0.538-10.985-2.3c-8.304-4.226-10.195-13.127-4.176-20.294
			c3.357-3.997,7.601-6.804,12.559-8.495c0.087,2.146,0.116,4.304,1.361,6.195c-2.445,1.908-5.322,3.164-7.547,5.435
			c-6.647,6.785-4.95,14.368,4.069,17.562c1.381,0.489,2.86,0.702,4.293,1.043C116.06,224.443,116.202,224.728,116.39,224.99z"/>
		<path style="fill:#F5D21D;" d="M132.052,223.025c-2.075,1.665-4.682,1.669-7.096,2.275c-0.995-0.114-1.989-0.229-2.984-0.343
			c-0.135-0.32-0.271-0.641-0.407-0.961c-0.579-3.238-1.092-6.491-1.752-9.713c-1.495-7.301-1.388-7.418,5.451-9.869
			c1.845-0.661,2.452-0.557,2.963,1.523c0.898,3.658,0.984,7.53,2.732,10.974C130.718,219.058,131.528,221.016,132.052,223.025z"/>
		<path style="fill:#F5D21D;" d="M115.15,200.095c-1.246-1.891-1.275-4.049-1.362-6.195c2.962-5.461,5.056-6.176,11.128-3.802
			c0.32,0.336,0.64,0.672,0.96,1.008c0.196,0.308,0.392,0.617,0.589,0.926c0.969,3.365,0.86,6.516-2.258,8.758
			C121.062,203.053,118.049,201.913,115.15,200.095z M120.435,198.85c2.129-0.34,3.451-1.545,3.308-3.667
			c-0.142-2.1-1.528-3.279-3.703-3.134c-1.964,0.131-2.993,1.343-2.995,3.275C117.044,197.538,118.417,198.542,120.435,198.85z"/>
		<path style="fill:#EA5C27;" d="M121.566,223.996c0.136,0.321,0.271,0.641,0.407,0.961c-1.678,1.549-3.369,1.346-5.068,0.038
			c0.144-0.207,0.207-0.435,0.191-0.686C118.586,224.205,120.076,224.101,121.566,223.996z"/>
		<path style="fill:#8A1D23;" d="M117.095,224.31c0.017,0.251-0.046,0.479-0.19,0.686c-0.001,0-0.262-0.038-0.262-0.038
			s-0.261,0.033-0.257,0.032c-0.183-0.262-0.325-0.547-0.423-0.855C116.34,224.193,116.718,224.251,117.095,224.31z"/>
		<path style="fill:#262122;" d="M115.879,99.708c-14.731,9.078-15.593,8.968-29.844-3.804c-0.098-0.5-0.197-1.001-0.295-1.501
			c-1.232-5.562,2.12-9.051,5.692-12.374c4.6-4.278,9.202-8.593,15.609-10.094c2.413,1.43,4.851,2.816,7.232,4.296
			c7.564,4.704,14.624,4.277,21.29-1.829c2.311-2.117,4.836-4.008,7.32-5.93c4.135-3.198,8.447-3.152,13.002-0.798
			c3.428,1.772,5.992,4.645,9.157,6.732c0.062,2.316,0.123,4.632,0.185,6.948c-1.248,5.584-1.523,11.408-4.126,16.656
			c-15.677,11.523-19.798,11.17-36.082-3.095c-0.682-1.627-1.723-1.746-3.021-0.705C119.857,95.931,117.435,97.337,115.879,99.708z
			 M146.809,83.681c-2.417-0.589-4.642,0.07-6.816,1.055c-2.47,0.528-4.552,1.622-5.97,4.02c4.934,3.232,10.001,4.638,15.549,2.215
			c2.437-1.065,5.516-2.745,5.217-5.279c-0.247-2.095-3.849-1.567-6.017-2.011C148.145,83.552,147.465,83.674,146.809,83.681z
			 M100.563,83.492c-1.648,0.198-3.317,0.297-4.938,0.626c-1.216,0.247-2.993,0.191-3.284,1.57
			c-0.278,1.317,1.198,2.257,2.149,3.128c5.006,4.581,11.963,4.468,18.922-0.423c-1.721-1.931-3.623-3.362-6.238-3.699
			C105.096,83.607,102.881,83.263,100.563,83.492z"/>
		<path style="fill:#F5BD9A;" d="M165.043,74.407c-3.165-2.087-5.729-4.96-9.157-6.732c-4.555-2.354-8.867-2.4-13.002,0.798
			c-2.484,1.921-5.009,3.812-7.32,5.93c-6.666,6.107-13.725,6.533-21.29,1.829c-2.38-1.48-4.819-2.866-7.232-4.296
			c-0.122-1.709,1.39-2.121,2.371-2.908c12.493-10.029,23.804-21.222,33.516-33.989c0.815-1.071,1.458-2.265,3.082-2.078
			C160.162,43.191,165.118,57.643,165.043,74.407z"/>
		<path style="fill:#EF9A73;" d="M85.741,94.403c0.098,0.5,0.196,1.001,0.295,1.501c-0.056,0.78-0.112,1.559-0.168,2.34
			C84.911,96.995,84.685,95.72,85.741,94.403z"/>
		<path style="fill:#EA5C27;" d="M126.464,192.032c-0.196-0.309-0.392-0.618-0.589-0.926c7.26-0.419,14.333,0.109,20.031,5.311
			c5.005,4.568,5.857,9.525,2.233,15.145c-3.772,5.85-8.936,10.157-16.088,11.463c-0.524-2.009-1.334-3.967-1.091-6.113
			c4.275-1.862,8.37-3.982,11.228-7.864c4.06-5.514,2.809-11.285-3.245-14.526C135.059,192.442,130.841,191.775,126.464,192.032z"/>
		<path style="fill:#EF9A73;" d="M161.101,98.011c2.604-5.248,2.879-11.072,4.126-16.656c5.939-0.554,7.994,1.317,7.775,7.078
			c-0.303,7.959-5.688,15.007-12.128,15.873C160.369,102.187,162.367,100.158,161.101,98.011z"/>
		<path style="fill:#EF9A73;" d="M115.879,99.708c1.555-2.371,3.978-3.778,6.119-5.497c1.297-1.042,2.339-0.922,3.021,0.705
			c-2.188,4.65-1.099,9.594-0.772,14.314c0.225,3.252,3.21-0.19,4.747,0.763l0.012,0.013c-1.745,2.048-3.342,5.918-6.161,4.499
			c-3.395-1.708-7.184-4.319-6.876-9.359C116.08,103.342,115.917,101.521,115.879,99.708z"/>
		<path style="fill:#8A1D23;" d="M124.155,120c4.4-2.341,8.727-0.248,13.32,0.535c-4.483,2.731-6.486,9.297-13.441,8.107
			c-0.038-1.898-0.076-3.797-0.115-5.695C123.998,121.964,124.077,120.982,124.155,120z"/>
		<path style="fill:#BD212D;" d="M123.919,122.947c0.038,1.898,0.077,3.797,0.115,5.695c-6.142,0.761-8.201-5.036-12.253-7.63
			C115.828,121.657,119.874,122.302,123.919,122.947z"/>
		<path style="fill:#EA2228;" d="M123.919,122.947c-4.046-0.645-8.091-1.289-12.138-1.935c3.952-2.423,8.074-2.787,12.372-1.012
			C124.077,120.982,123.998,121.964,123.919,122.947z"/>
		<path style="fill:#EF9A73;" d="M128.994,109.993c0.139-0.137,0.279-0.274,0.418-0.411c-0.021,0.089-0.013,0.209-0.069,0.258
			c-0.09,0.08-0.222,0.112-0.336,0.165C129.007,110.005,128.994,109.993,128.994,109.993z"/>
		<path style="fill:#050301;" d="M126.464,192.032c4.377-0.257,8.595,0.41,12.48,2.49c6.054,3.24,7.305,9.012,3.245,14.526
			c-2.859,3.882-6.953,6.002-11.228,7.864c-1.749-3.443-1.835-7.315-2.733-10.974c-0.511-2.08-1.118-2.184-2.963-1.523
			c-6.839,2.451-6.946,2.568-5.451,9.869c0.66,3.222,1.172,6.474,1.752,9.713c-1.49,0.104-2.98,0.209-4.47,0.313
			c-0.378-0.058-0.756-0.116-1.133-0.175c-1.433-0.341-2.912-0.554-4.293-1.043c-9.018-3.193-10.715-10.776-4.069-17.562
			c2.225-2.272,5.103-3.527,7.547-5.435c2.901,1.818,5.913,2.957,9.058,0.695C127.324,198.548,127.433,195.397,126.464,192.032z"/>
		<path style="fill:#FEFEFE;" d="M120.435,198.85c-2.018-0.309-3.391-1.312-3.389-3.526c0.001-1.932,1.031-3.144,2.995-3.275
			c2.174-0.145,3.561,1.035,3.703,3.134C123.886,197.306,122.564,198.51,120.435,198.85z"/>
		<path style="fill:#F0F3F5;" d="M107.174,84.694c2.614,0.336,4.517,1.768,6.238,3.699c-6.96,4.89-13.916,5.004-18.922,0.423
			c-0.951-0.871-2.427-1.811-2.149-3.128c0.291-1.379,2.068-1.323,3.284-1.57c1.622-0.329,3.29-0.428,4.933-0.628
			c-0.771,2.899-1.119,5.902,2.82,6.393C107.122,90.351,107.516,87.616,107.174,84.694z"/>
		<path style="fill:#F0F3F5;" d="M146.809,83.681c0.656-0.007,1.336-0.129,1.964-0.001c2.168,0.444,5.77-0.085,6.017,2.011
			c0.299,2.534-2.78,4.215-5.217,5.279c-5.549,2.424-10.615,1.017-15.549-2.215c1.418-2.398,3.5-3.492,5.97-4.02
			c-0.192,3.036,0.607,5.604,4.215,5.147C148.125,89.388,147.237,86.308,146.809,83.681z"/>
		<path style="fill:#35A6D6;" d="M107.174,84.694c0.342,2.922-0.053,5.657-3.798,5.189c-3.939-0.491-3.591-3.495-2.82-6.393
			C102.881,83.263,105.096,83.607,107.174,84.694z"/>
		<path style="fill:#35A6D6;" d="M146.809,83.681c0.428,2.627,1.316,5.707-2.601,6.202c-3.607,0.456-4.407-2.111-4.215-5.147
			C142.167,83.751,144.392,83.092,146.809,83.681z"/>
	</g>
</g>
</svg>
