<?xml version="1.0" encoding="iso-8859-1"?>
<!-- Generator: Adobe Illustrator 23.0.3, SVG Export Plug-In . SVG Version: 6.00 Build 0)  -->
<svg version="1.1" id="Layer_1" xmlns="http://www.w3.org/2000/svg" xmlns:xlink="http://www.w3.org/1999/xlink" x="0px" y="0px"
	 viewBox="0 0 250 250" style="enable-background:new 0 0 250 250;" xml:space="preserve">
<g>
	<g>
		<path style="fill:none;" d="M122,251c-40.333,0-80.667,0-121,0C1,167.667,1,84.333,1,1c82,0,164,0.027,246-0.096
			c3.424-0.005,4.101,0.672,4.096,4.096c-0.124,80.666-0.124,161.333,0,242c0.005,3.424-0.67,4.111-4.096,4.099
			C205.667,250.946,164.333,251,123,251c0.35-0.63,0.699-1.261,1.049-1.891c0.667-0.558,1.333-1.117,2-1.675
			c4.872-3.553,9.485-7.414,13.822-11.604c0.719-0.627,1.438-1.254,2.158-1.881c15.704-13.118,31.163-26.548,47.241-39.191
			c5.891-4.633,8.151-9.523,6.681-16.536c0.003-4.706,0.006-9.412,0.009-14.118c-0.445-2.272-2.463-1.764-3.915-2.14
			c-6.052-1.566-12.124-3.053-18.189-4.569c0.14-2.863,0.279-5.726,0.445-9.111c3.503,2.706,5.645,5.761,8.89,7.544
			c5.252,2.886,10.619,2.183,14.515-1.892c1.504-1.573,2.229-2.67-0.258-4.113c-6.567-3.809-10.61-9.82-13.897-16.47
			c-5.359-10.841-7.483-22.585-9.747-34.297c0.396-1.605,0.727-3.23,1.199-4.813c4.445-14.926,6.801-30.095,4.982-45.681
			c-2.061-17.658-8.133-33.092-25.643-40.868c-9.632-4.277-19.841-6.316-30.341-2.576c-3.649-1.518-7.519-1.209-11.315-1.243
			C88.528,3.661,72.526,15.947,67.119,39.444c-5.277,22.928-2.022,45.196,6.435,66.88c0.841,2.156,1.974,4.227,1.495,6.67
			c-0.165,0.289-0.378,0.56-0.488,0.869c-4.268,11.978-8.637,23.874-20.679,30.617c-1.795,1.005-0.781,2.137,0.077,3.242
			c4.038,5.2,10.419,5.598,16.978,1.268c2.389-1.577,3.85-4.376,6.872-5.477c0.419,4.562,0.237,8.691-0.644,12.783
			c-5.535,1.517-11.051,3.112-16.611,4.535c-8.784,2.248-8.796,2.2-8.177,11.176c0.001,3.279,0.002,6.557,0.002,9.836
			c-1.279,5.616,0.559,9.605,5.241,13.239c8.013,6.221,15.362,13.287,23.163,19.79c9.064,7.557,17.484,15.881,27.095,22.785
			c0,0-0.026-0.078-0.026-0.078c3.872,4.425,8.283,8.229,13.204,11.444l-0.082-0.087c0.263,0.313,0.525,0.626,0.788,0.939
			C121.843,250.251,121.922,250.625,122,251z"/>
		<path style="fill:#FBEF0D;" d="M124.049,249.109c-0.35,0.63-0.699,1.261-1.049,1.891c-0.333,0-0.667,0-1,0
			c-0.078-0.375-0.157-0.749-0.235-1.125c-0.066-0.478,0.042-1.103-0.788-0.939c0,0,0.082,0.087,0.082,0.087
			c0.468-1.863-0.192-3.605-0.602-5.366c-0.715-3.07-0.514-7.172-2.442-8.944c-2.77-2.547-5.395,2.322-8.573,2.378
			c-0.165,0.003-0.331-0.032-0.497-0.05c-0.692-1.845,0.514-3.297,1.356-4.543c2.931-4.333,1.26-6.148-3.191-7.395
			c-4.36-1.222-8.552-3.047-13.613-4.899c2.453-1.4,4.209-1.353,5.962-1.322c2.541-0.421,4.76-1.563,6.825-3.051
			c1.17,0.39,2.615,1.906,3.507,0.384c1.304-2.225-2.12-3.48-1.758-5.725c3.409-1.365,6.759,4.277,9.762,0.642
			c2.24-2.711,3.209-6.473,4.743-9.767c0.209-0.45,0.412-0.903,0.617-1.354c0.286-0.008,0.573-0.018,0.859-0.031
			c0.024,0.316,0.036,0.633,0.036,0.951C124.049,216.992,124.049,233.05,124.049,249.109z"/>
		<path style="fill:#FEC71A;" d="M124.051,200.931c0-0.317-0.012-0.634-0.036-0.95c-0.278-0.308-0.557-0.615-0.835-0.923
			c-1.01-11.186,0.154-22.379-1.434-33.691c-1.074-7.654-2.694-12.716-9.973-15.378c-1.384-0.506-2.671-1.378-3.874-2.256
			c-2.945-2.151-4.37-2.561-5.216,2.1c-1.776,9.781-11.949,15.847-21.231,13.286c2.632-2.999,6.086-5.276,7.598-9.144
			c6.305-7.752,3.443-18.558-1.437-24.738c-3.495-4.427-6.847-8.921-9.821-13.704c-0.689-1.108-1.069-2.51-2.742-2.54
			c0.479-2.443-0.654-4.514-1.495-6.67c-8.457-21.685-11.712-43.952-6.435-66.88c5.408-23.496,21.409-35.782,45.565-35.568
			c3.795,0.034,7.666-0.276,11.315,1.242c0.008,6.229,0.016,12.457,0.023,18.686c-3.276,0.486-4.303,4.971-8.464,4.293
			c-10.037-1.635-17.929,7.091-20.612,14.574c-3.17,8.843-3.762,18.051-4.058,27.311c-0.004,0.482-0.007,0.965-0.011,1.447
			c-1.392,1.587-0.755,3.56-1.02,5.361c-4.1,0.931-0.267,2.932-0.59,4.372c-0.882,5.182,0.169,10.327,0.847,15.37
			c1.658,12.318,5.017,24.059,14.945,32.686c-0.103,0.989-0.206,1.977-0.31,2.966c-3.346,6.005-2.53,9.446,3.074,12.634
			c3.579,2.036,7.082,4.277,10.847,5.896c3.378,1.452,4.851,3.629,4.594,7.167c-0.083,1.539-0.601,3.203,1.737,5.028
			c0-2.573,0.049-4.326-0.013-6.076c-0.068-1.933,0.176-3.573,2.262-4.48c3.943-1.713,7.829-3.555,11.739-5.344
			c0.33,1.021,0.661,2.043,0.991,3.064c-0.326,0.041-0.663,0.044-0.977,0.129c-9.659,2.6-14.224,8.514-12.161,18.728
			c-1.874,1.557-1.089,3.701-1.166,5.612c-0.335,8.304,0.565,16.633-0.495,24.922C124.806,199.951,124.428,200.441,124.051,200.931z
			"/>
		<path style="fill:#FEB21E;" d="M139.982,150.072c-0.33-1.021-0.661-2.043-0.991-3.064c0.011-2.384,0.021-4.769,0.032-7.153
			c1.221-2.773,1.488-5.76,1.959-8.702c1.589-3.615,2.417-7.529,4.562-10.934c6.891-10.942,9.513-23.018,9.306-35.817
			c0.861-1.162,1.82-2.265,2.551-3.503c0.622-1.055,1.885-2.329,1.087-3.436c-0.965-1.338-2.252,0.581-3.486,0.361
			c0.057-2.173-0.11-4.313-0.949-6.352c-0.056-0.605-0.111-1.211-0.167-1.816c-0.083-9.619-0.394-19.209-3.94-28.344
			c-3.543-9.129-9.608-13.512-19.274-13.378c-3.401,0.047-5.206-1.514-6.65-4.131c-0.008-6.229-0.015-12.457-0.023-18.686
			c10.5-3.74,20.71-1.702,30.341,2.576c17.51,7.776,23.582,23.21,25.643,40.868c1.819,15.585-0.537,30.755-4.982,45.681
			c-0.471,1.583-0.802,3.208-1.199,4.813c-4.622,10.458-9.218,20.846-17.306,29.367c-3.731,3.93-6.197,9.01-6.419,14.764
			c0.027,0.621,0.054,1.242,0.08,1.863c-0.193,2.124,1.034,3.792,1.8,5.608c0.361,0.456,0.722,0.911,1.083,1.367l-0.051-0.063
			c-0.368,1.798,0.354,3.131,1.777,4.164c0.819,3.284,4.502,4.556,5.737,7.717c-4.583,0.9-8.381-1.04-12.339-2.077
			C143.972,158.894,140.844,155.276,139.982,150.072z"/>
		<path style="fill:#EB1E24;" d="M89.049,153.976c-1.512,3.868-4.965,6.145-7.598,9.144c9.282,2.56,19.455-3.506,21.231-13.286
			c0.846-4.661,2.271-4.251,5.216-2.1c1.203,0.879,2.49,1.75,3.874,2.256c7.279,2.662,8.899,7.724,9.973,15.378
			c1.588,11.312,0.423,22.505,1.433,33.691c-0.132,0.315-0.14,0.633-0.024,0.954c-0.206,0.451-0.408,0.904-0.617,1.354
			c-1.534,3.294-2.503,7.056-4.743,9.767c-3.004,3.635-6.353-2.007-9.762-0.642c-0.361,2.245,3.063,3.5,1.758,5.725
			c-0.892,1.521-2.337,0.006-3.508-0.384c-17.969-14.608-35.937-29.216-53.905-43.825c-0.619-8.976-0.607-8.928,8.177-11.176
			c5.56-1.423,11.075-3.017,16.611-4.536C81.128,155.521,85.089,154.748,89.049,153.976z"/>
		<path style="fill:#C10E22;" d="M148.165,161.766c3.957,1.037,7.756,2.978,12.339,2.077c-1.235-3.161-4.918-4.433-5.737-7.718
			c1.012-0.408,1.215-1.267,1.244-2.223c5.948,1.164,11.896,2.329,17.844,3.493c6.065,1.516,12.137,3.003,18.189,4.569
			c1.452,0.376,3.47-0.133,3.915,2.139c-0.895,0.721-1.826,1.402-2.679,2.17c-18.948,17.065-37.888,34.14-56.829,51.212
			c-0.196-0.227-0.404-0.443-0.625-0.646c0.3-2.749,2.885-4.738,2.719-8.081c-1.564,0.816-2.937,1.354-4.109,2.179
			c-3.056,2.149-5.095,2.245-6.096-2.072c-0.744-3.205-2.084-6.272-3.158-9.401c1.061-8.291,0.161-16.62,0.496-24.924
			c0.077-1.911-0.709-4.055,1.166-5.612C134.831,169.159,141.494,165.45,148.165,161.766z"/>
		<path style="fill:#FEA31B;" d="M173.855,157.395c-5.948-1.164-11.896-2.329-17.844-3.493c-0.333-0.316-0.666-0.633-0.999-0.95
			c-0.139-0.566-0.177-1.245-1.076-0.968l0.095,0.043c0.277-2.908-1.765-4.858-2.957-7.159c0.038-0.78-0.154-1.423-0.996-1.681
			c0.221-5.755,2.688-10.834,6.418-14.764c8.088-8.521,12.683-18.909,17.306-29.367c2.264,11.712,4.389,23.456,9.747,34.297
			c3.287,6.649,7.331,12.661,13.897,16.47c2.488,1.443,1.762,2.54,0.258,4.113c-3.897,4.075-9.263,4.778-14.515,1.892
			c-3.245-1.783-5.387-4.838-8.89-7.544C174.134,151.669,173.995,154.532,173.855,157.395z"/>
		<path style="fill:#F8E00E;" d="M136.451,217.486c18.941-17.073,37.881-34.147,56.829-51.212c0.853-0.768,1.784-1.449,2.679-2.17
			c-0.003,4.706-0.006,9.412-0.009,14.118c-17.248,13.687-34.496,27.373-51.665,40.997c0.547,1.295,2.609,0.658,2.229,2.504
			c-1.741,0.452-3.508,0.88-5.258,1.37c-5.911,1.656-6.33,3.101-2.225,7.546c1.01,1.093,1.998,2.206,2.996,3.31
			c-0.719,0.627-1.438,1.254-2.155,1.881c-3.201-0.809-6.438-1.504-9.594-2.464c-2.233-0.679-2.625,0.62-2.829,2.213
			c-0.504,3.947-0.939,7.903-1.402,11.856c-0.667,0.558-1.334,1.117-2,1.675c0-16.059,0.001-32.117,0.002-48.177
			c0.378-0.491,0.756-0.981,1.133-1.469c1.073,3.13,2.413,6.197,3.157,9.403c1.001,4.317,3.04,4.221,6.096,2.072
			c1.172-0.824,2.546-1.363,4.109-2.179c0.167,3.343-2.418,5.332-2.718,8.081c-0.184,0.241-0.578,0.597-0.52,0.703
			C135.675,218.211,136.077,217.797,136.451,217.486z M184.746,182.418c0.094-0.155,0.174-0.287,0.254-0.418
			c-0.306,0.034-0.619,0.036-0.915,0.108c-0.462,0.113-0.534,0.42-0.121,0.602c0.187,0.083,0.53-0.189,1.037-0.71l0.413-0.233
			l-0.188-0.184C185.225,181.583,185,182,184.746,182.418z M160.588,201.304c-0.196,0.232-0.392,0.464-0.588,0.696
			c0.154-0.008,0.318,0.015,0.459-0.031c0.284-0.092,0.556-0.222,0.833-0.336c-0.232-0.108-0.464-0.217-1.292,0.367l-0.413,0.233
			l0.188,0.184C159.775,202.417,160,202,160.588,201.304z M166.29,197.689c0.133-0.264,0.266-0.529,0.399-0.793
			c-0.267-0.018-0.541-0.075-0.799-0.033c-0.101,0.017-0.256,0.356-0.231,0.379C165.846,197.416,166.073,197.546,166.29,197.689z
			 M178.918,187.314c0.143-0.255,0.286-0.509,0.43-0.764c-0.273-0.022-0.55-0.078-0.817-0.046c-0.085,0.01-0.232,0.339-0.197,0.375
			C178.498,187.053,178.716,187.176,178.918,187.314z M172.75,192.031c-0.071-0.132-0.143-0.265-0.214-0.397
			c-0.094,0.115-0.254,0.225-0.265,0.348c-0.011,0.124,0.125,0.262,0.196,0.394C172.562,192.261,172.656,192.146,172.75,192.031z"/>
		<path style="fill:#FEBA1E;" d="M89.049,153.976c-3.96,0.773-7.921,1.545-11.882,2.32c0.879-4.091,1.062-8.22,0.643-12.782
			c-3.022,1.1-4.484,3.9-6.872,5.477c-6.559,4.33-12.94,3.932-16.978-1.268c-0.858-1.105-1.872-2.237-0.077-3.242
			c12.042-6.743,16.411-18.639,20.679-30.617c0.11-0.308,0.323-0.58,0.488-0.869c1.673,0.03,2.053,1.432,2.743,2.54
			c2.974,4.782,6.326,9.277,9.821,13.704C92.492,135.417,95.354,146.224,89.049,153.976z"/>
		<path style="fill:#2278BA;" d="M142.029,233.949c-0.998-1.104-1.986-2.217-2.996-3.31c-4.105-4.445-3.687-5.89,2.225-7.546
			c1.75-0.49,3.517-0.918,5.258-1.37c0.38-1.846-1.683-1.209-2.229-2.504c17.169-13.624,34.417-27.31,51.665-40.997
			c1.469,7.013-0.79,11.903-6.681,16.536C173.192,207.402,157.733,220.831,142.029,233.949z"/>
		<path style="fill:#238CBC;" d="M99.459,218.883c-1.752-0.03-3.509-0.078-5.962,1.322c5.062,1.852,9.253,3.677,13.613,4.899
			c4.451,1.247,6.122,3.063,3.191,7.395c-0.843,1.246-2.049,2.698-1.356,4.543l0.109-0.093c-0.391,0.236-0.782,0.473-1.174,0.709
			c-9.612-6.904-18.031-15.228-27.096-22.785c-7.801-6.504-15.151-13.57-23.163-19.79c-4.682-3.635-6.52-7.624-5.241-13.239
			c15.418,11.443,30.837,22.884,46.252,34.329C99.564,216.864,100.663,217.53,99.459,218.883z"/>
		<path style="fill:#F8E00E;" d="M99.459,218.883c1.204-1.353,0.105-2.018-0.826-2.71c-15.416-11.445-30.835-22.887-46.252-34.329
			c-0.001-3.279-0.001-6.558-0.002-9.836c17.968,14.608,35.936,29.217,53.905,43.825C104.219,217.319,102,218.462,99.459,218.883z
			 M95.001,210.999c-0.139-0.078-0.278-0.155-0.417-0.233c0.139,0.078,0.277,0.156,0.416,0.234c0.359,0.377,0.568,1.282,1.293,0.366
			C95.862,211.244,95.431,211.122,95.001,210.999z"/>
		<path style="fill:#2278BA;" d="M126.049,247.434c0.463-3.953,0.898-7.909,1.402-11.856c0.203-1.593,0.596-2.892,2.829-2.213
			c3.157,0.96,6.394,1.656,9.594,2.464C135.534,240.02,130.921,243.882,126.049,247.434z"/>
		<path style="fill:#238CBC;" d="M108.945,237.042c0.166,0.017,0.331,0.053,0.497,0.05c3.178-0.056,5.804-4.925,8.573-2.378
			c1.927,1.773,1.727,5.875,2.442,8.944c0.41,1.761,1.07,3.503,0.602,5.366c-4.921-3.215-9.332-7.019-13.204-11.444
			c0.702,0.364,1.13,0.207,1.2-0.631L108.945,237.042z"/>
		<path style="fill:#FBEF0D;" d="M109.055,236.949c-0.07,0.838-0.498,0.995-1.2,0.631c0,0,0.026,0.078,0.026,0.078
			C108.272,237.422,108.663,237.185,109.055,236.949z"/>
		<path style="fill:#238CBC;" d="M120.977,248.937c0.83-0.164,0.722,0.461,0.788,0.939
			C121.502,249.563,121.24,249.25,120.977,248.937z"/>
		<path style="fill:#F8E00E;" d="M123.155,200.013c-0.116-0.321-0.108-0.639,0.024-0.954c0.278,0.308,0.557,0.616,0.835,0.923
			C123.728,199.995,123.442,200.005,123.155,200.013z"/>
		<path style="fill:#F6BF9A;" d="M124.022,23.804c1.445,2.617,3.249,4.178,6.65,4.131c9.667-0.134,15.731,4.249,19.274,13.378
			c3.546,9.135,3.857,18.725,3.939,28.344c-8.426-2.721-16.711-0.205-18.487,6.313c5.899-4.273,11.579-7.833,18.654-4.497
			c0.839,2.039,1.007,4.179,0.949,6.352c-1.963,0.044-3.926,0.062-5.888,0.135c-4.965,0.185-9.8,0.722-13.103,5.149
			c0,0,0.081-0.118,0.081-0.118c-0.642,0.072-1.017,0.414-1.081,1.071c-1.236,0.16-0.818,0.853-0.488,1.517
			c5.084,4.577,12.133,4.498,17.357-0.196c0.99-0.327,1.98-0.654,2.969-0.981c0.207,12.799-2.414,24.876-9.305,35.817
			c-2.145,3.405-2.973,7.319-4.562,10.933c-0.604,0.541-1.282,1.022-1.803,1.635c-7.992,9.394-17.955,10.221-27.395,2.236
			c-2.261-1.913-4.484-3.87-6.725-5.807c-9.928-8.627-13.288-20.368-14.945-32.686c-0.679-5.043-1.73-10.188-0.849-15.371
			c1.848,1.502,2.912,4.094,5.785,4.18c1.706,1.966,4.05,2.708,6.459,3.206c4.319,0.893,9.689-1.347,11.037-4.494
			c-0.543-0.359-1.087-0.718-1.63-1.078l0.086,0.102c-2.398-3.599-6.228-4.303-10.065-5.256c-3.677-0.913-7.551,0.948-11.079-1.031
			c0.264-1.801-0.372-3.774,1.02-5.362c0.388-0.275,0.775-0.549,1.162-0.823c-0.384-0.208-0.768-0.415-1.152-0.623
			c0.296-9.26,0.888-18.468,4.058-27.311c2.682-7.483,10.575-16.209,20.612-14.574C119.719,28.775,120.746,24.29,124.022,23.804z
			 M110.986,119.053l-0.072-0.023c10.779,11.941,16.381,10.523,27.602-1.888c-5.448,0.666-9.833-2.633-14.589,0.133
			c-4.746-2.447-9.276-0.619-13.833,0.695C109.931,118.71,110.389,118.939,110.986,119.053z M129.996,105.996
			c-1.889,0.405-3.778,0.81-5.996,1.285c0-6.56-0.162-12.877,0.065-19.181c0.123-3.413-1.258-4.198-4.392-4.204
			c-3.26-0.006-4.96,0.676-4.709,4.4c0.28,4.143,0.044,8.319,0.069,12.481c0.019,3.229,4.605,10.217,7.552,10.834
			c3.677,0.77,4.664-3.07,6.926-4.753c0.242-0.18,0.332-0.565,0.492-0.855c0.114-0.052,0.244-0.085,0.334-0.164
			c0.055-0.048,0.048-0.168,0.069-0.255C130.271,105.721,130.134,105.858,129.996,105.996z M93.101,70.075
			c7.845-3.571,13.568,0.989,19.381,5.184C109.155,67.559,99.845,65.135,93.101,70.075z"/>
		<path style="fill:#F82A37;" d="M148.165,161.766c-6.672,3.684-13.334,7.393-21.321,7.163c-2.063-10.214,2.501-16.128,12.16-18.728
			c0.314-0.085,0.651-0.088,0.977-0.129C140.844,155.276,143.972,158.894,148.165,161.766z"/>
		<path style="fill:#BA593F;" d="M105.06,129.217c2.24,1.937,4.464,3.894,6.725,5.807c9.44,7.986,19.403,7.159,27.395-2.236
			c0.522-0.613,1.199-1.094,1.803-1.635c-0.471,2.942-0.738,5.93-1.96,8.704c-4.136,4.183-9,6.822-14.99,7.075
			c-1.109-0.323-2.245-0.572-3.321-0.98c-6.989-2.646-12.898-6.563-15.961-13.769C104.854,131.194,104.957,130.206,105.06,129.217z"
			/>
		<path style="fill:#F6BF9A;" d="M104.75,132.183c3.062,7.206,8.972,11.122,15.961,13.769c1.076,0.408,2.213,0.657,3.321,0.98
			c-0.428,3.638,0.783,7.389-0.766,10.948c0.257-3.538-1.216-5.715-4.594-7.167c-3.765-1.619-7.268-3.86-10.847-5.896
			C102.22,141.629,101.404,138.188,104.75,132.183z"/>
		<path style="fill:#F69F78;" d="M123.266,157.88c1.55-3.559,0.338-7.31,0.766-10.948c5.99-0.254,10.854-2.893,14.99-7.075
			c-0.01,2.383-0.021,4.767-0.031,7.152c-3.91,1.789-7.796,3.631-11.739,5.344c-2.086,0.906-2.331,2.547-2.262,4.48
			c0.062,1.749,0.013,3.503,0.013,6.076C122.665,161.083,123.183,159.419,123.266,157.88z"/>
		<path style="fill:#4B3422;" d="M89.857,76.789c3.528,1.979,7.401,0.118,11.079,1.031c3.837,0.953,7.667,1.657,10.065,5.256
			c-1.285,0.626-2.124-0.507-3.175-0.803c-2.069-1.244-4.32-1.661-6.703-1.48c-1.476-0.062-2.971-0.294-4.423-0.133
			c-1.23,0.137-3.063-0.291-3.55,0.979c-0.566,1.476,0.822,2.673,1.9,3.701c-2.873-0.087-3.937-2.679-5.785-4.181
			C89.59,79.721,85.757,77.72,89.857,76.789z"/>
		<path style="fill:#4B3422;" d="M90.888,69.982c0.384,0.208,0.768,0.415,1.152,0.623c-0.387,0.274-0.775,0.548-1.162,0.823
			C90.881,70.946,90.884,70.464,90.888,69.982z"/>
		<path style="fill:#4B3422;" d="M136.011,83.109c3.302-4.426,8.138-4.963,13.103-5.148c1.961-0.073,3.925-0.092,5.888-0.135
			c1.234,0.219,2.521-1.7,3.486-0.361c0.798,1.107-0.464,2.381-1.087,3.436c-0.731,1.239-1.691,2.342-2.551,3.503
			c-0.99,0.326-1.98,0.653-2.969,0.979c0.921-1.067,2.47-2.209,1.565-3.602c-0.48-0.739-2.323-0.702-3.568-0.807
			c-1.434-0.121-2.888-0.011-4.333-0.002c-2.38-0.172-4.576,0.392-6.6,1.645C137.939,82.617,137.172,84.038,136.011,83.109z"/>
		<path style="fill:#4B3422;" d="M154.052,71.473c-7.075-3.336-12.756,0.224-18.654,4.497c1.777-6.518,10.061-9.034,18.487-6.313
			C153.941,70.262,153.997,70.867,154.052,71.473z"/>
		<path style="fill:#FEFEFE;" d="M151.074,144.868c1.193,2.301,3.234,4.251,2.957,7.159c-0.347-0.022-0.694-0.044-1.042-0.066
			c0,0,0.051,0.063,0.051,0.063c-0.361-0.456-0.722-0.911-1.083-1.367c-0.766-1.816-1.993-3.484-1.8-5.607
			C150.469,145.019,150.774,144.958,151.074,144.868z"/>
		<path style="fill:#F82A37;" d="M152.99,151.962c0.347,0.022,0.694,0.044,1.042,0.066c0,0-0.095-0.044-0.095-0.044
			c0.057,0.658,0.408,0.989,1.076,0.968c0.333,0.317,0.666,0.634,0.999,0.95c-0.029,0.956-0.231,1.815-1.244,2.223
			C153.344,155.093,152.622,153.76,152.99,151.962z"/>
		<path style="fill:#F6BF9A;" d="M151.074,144.868c-0.3,0.089-0.605,0.15-0.916,0.183c-0.027-0.622-0.054-1.244-0.08-1.864
			C150.92,143.446,151.112,144.089,151.074,144.868z"/>
		<path style="fill:#F82A37;" d="M151.958,150.658c0.361,0.456,0.722,0.911,1.083,1.367
			C152.68,151.57,152.319,151.114,151.958,150.658z"/>
		<path style="fill:#FEFEFE;" d="M155.012,152.952c-0.668,0.021-1.019-0.31-1.076-0.968
			C154.835,151.707,154.873,152.386,155.012,152.952z"/>
		<path style="fill:#FEC71A;" d="M166.288,197.69c-0.216-0.143-0.442-0.274-0.629-0.447c-0.025-0.023,0.13-0.363,0.231-0.379
			c0.258-0.042,0.531,0.015,0.799,0.033C166.556,197.161,166.423,197.425,166.288,197.69z"/>
		<path style="fill:#FEC71A;" d="M178.916,187.315c-0.201-0.139-0.419-0.262-0.583-0.435c-0.035-0.037,0.112-0.365,0.197-0.375
			c0.267-0.032,0.544,0.024,0.817,0.046C179.204,186.805,179.061,187.06,178.916,187.315z"/>
		<path style="fill:#FEC71A;" d="M160.592,201.306c0.236,0.11,0.468,0.219,0.7,0.327c-0.277,0.114-0.549,0.244-0.833,0.336
			c-0.142,0.046-0.305,0.023-0.459,0.031C160.196,201.768,160.392,201.536,160.592,201.306z"/>
		<path style="fill:#FEC71A;" d="M172.75,192.031c-0.094,0.115-0.189,0.23-0.283,0.345c-0.071-0.132-0.207-0.269-0.196-0.394
			c0.011-0.123,0.171-0.232,0.265-0.348C172.608,191.766,172.679,191.898,172.75,192.031z"/>
		<path style="fill:#FEC71A;" d="M184.746,182.418c-0.252,0.103-0.595,0.375-0.782,0.292c-0.413-0.182-0.341-0.489,0.121-0.602
			c0.296-0.072,0.61-0.075,0.915-0.108C184.92,182.132,184.84,182.263,184.746,182.418z"/>
		<polygon style="fill:#FEC71A;" points="185,182 185.225,181.583 185.413,181.767 		"/>
		<polygon style="fill:#FEC71A;" points="160,202 159.775,202.417 159.587,202.233 		"/>
		<path style="fill:#C10E22;" d="M136.451,217.486c-0.374,0.31-0.776,0.725-1.144,0.058c-0.059-0.106,0.335-0.462,0.52-0.703
			C136.047,217.043,136.255,217.259,136.451,217.486z"/>
		<path style="fill:#FEC71A;" d="M95.001,210.999c0.431,0.123,0.861,0.245,1.292,0.368c-0.725,0.916-0.934,0.011-1.293-0.366
			L95.001,210.999z"/>
		<path style="fill:#FEC71A;" d="M94.999,211.001c-0.139-0.078-0.277-0.156-0.416-0.234c0.139,0.078,0.278,0.155,0.417,0.233
			C95.001,210.999,94.999,211.001,94.999,211.001z"/>
		<path style="fill:#F69F78;" d="M130.004,106.003c-0.161,0.29-0.25,0.675-0.493,0.855c-2.262,1.684-3.249,5.523-6.926,4.753
			c-2.947-0.617-7.532-7.605-7.552-10.834c-0.025-4.162,0.21-8.338-0.069-12.481c-0.251-3.725,1.448-4.407,4.709-4.4
			c3.134,0.006,4.515,0.791,4.392,4.204c-0.227,6.304-0.065,12.621-0.065,19.181c2.218-0.475,4.107-0.88,5.996-1.285
			L130.004,106.003z"/>
		<path style="fill:#C10E22;" d="M123.927,117.275c4.757-2.766,9.142,0.533,14.589-0.133c-11.222,12.41-16.823,13.829-27.602,1.888
			c2.78-0.471,5.407,0.46,8.107,0.771C120.929,120.021,123.915,121.202,123.927,117.275z"/>
		<path style="fill:#FEFEFE;" d="M145.545,80.971c1.445-0.009,2.899-0.119,4.333,0.002c1.245,0.105,3.088,0.068,3.568,0.807
			c0.905,1.394-0.643,2.535-1.565,3.602c-5.224,4.695-12.273,4.774-17.357,0.197c0.426-0.467,0.852-0.933,1.278-1.4
			c0.612-0.27,0.709-0.666,0.291-1.188c0,0-0.081,0.118-0.081,0.118c1.161,0.929,1.928-0.492,2.934-0.493
			c0.632,2.351,1.862,4.044,4.583,3.261C146.079,85.143,145.862,83.019,145.545,80.971z"/>
		<path style="fill:#FEFEFE;" d="M107.826,82.273c1.051,0.296,1.89,1.43,3.175,0.803c0,0-0.086-0.103-0.086-0.103
			c-0.027,1.222,0.458,1.67,1.63,1.078c-1.347,3.148-6.718,5.388-11.037,4.494c-2.409-0.498-4.753-1.24-6.459-3.206
			c-1.078-1.027-2.465-2.224-1.899-3.7c0.487-1.27,2.32-0.842,3.55-0.979c1.451-0.161,2.946,0.071,4.423,0.133
			c-0.267,2.077-0.306,4.212,2.147,4.924C106.096,86.538,106.988,84.333,107.826,82.273z"/>
		<path style="fill:#4B3422;" d="M93.101,70.075c6.745-4.94,16.055-2.516,19.381,5.184C106.669,71.064,100.945,66.504,93.101,70.075
			z"/>
		<path style="fill:#F82A37;" d="M123.927,117.275c-0.011,3.927-2.998,2.746-4.906,2.526c-2.699-0.311-5.327-1.242-8.107-0.771
			c0,0,0.072,0.023,0.072,0.023c-0.297-0.361-0.595-0.722-0.892-1.083C114.65,116.656,119.181,114.828,123.927,117.275z"/>
		<path style="fill:#BA593F;" d="M135.801,84.179c-0.426,0.467-0.852,0.934-1.278,1.4c-0.33-0.664-0.748-1.357,0.488-1.518
			c0-0.001,0.409-0.032,0.409-0.032L135.801,84.179z"/>
		<path style="fill:#C10E22;" d="M110.094,117.97c0.297,0.361,0.595,0.722,0.892,1.083
			C110.389,118.939,109.931,118.71,110.094,117.97z"/>
		<path style="fill:#F69F78;" d="M129.996,105.996c0.137-0.137,0.274-0.274,0.412-0.412c-0.021,0.087-0.014,0.206-0.069,0.255
			c-0.09,0.079-0.221,0.112-0.334,0.164C130.004,106.003,129.996,105.996,129.996,105.996z"/>
		<path style="fill:#4B3422;" d="M135.801,84.179l-0.381-0.15c0,0-0.409,0.032-0.409,0.032c0.064-0.656,0.439-0.998,1.081-1.07
			C136.51,83.513,136.413,83.909,135.801,84.179z"/>
		<path style="fill:#4B3422;" d="M112.546,84.052c-1.172,0.592-1.657,0.144-1.63-1.078
			C111.459,83.333,112.002,83.692,112.546,84.052z"/>
		<path style="fill:#238CBC;" d="M107.826,82.273c-0.839,2.06-1.73,4.264-4.556,3.444c-2.453-0.712-2.414-2.847-2.147-4.924
			C103.506,80.613,105.757,81.03,107.826,82.273z"/>
		<path style="fill:#238CBC;" d="M145.545,80.971c0.317,2.047,0.534,4.172-2.017,4.906c-2.721,0.783-3.95-0.91-4.583-3.261
			C140.969,81.364,143.165,80.799,145.545,80.971z"/>
	</g>
</g>
</svg>
