<?xml version="1.0" encoding="iso-8859-1"?>
<!-- Generator: Adobe Illustrator 23.0.3, SVG Export Plug-In . SVG Version: 6.00 Build 0)  -->
<svg version="1.1" id="Layer_1" xmlns="http://www.w3.org/2000/svg" xmlns:xlink="http://www.w3.org/1999/xlink" x="0px" y="0px"
	 viewBox="0 0 250 250" style="enable-background:new 0 0 250 250;" xml:space="preserve">
<g>
	<g>
		<path style="fill:none;" d="M124,251c-41,0-82,0-123,0C1,167.667,1,84.333,1,1c82,0,164,0.027,246-0.096
			c3.424-0.005,4.101,0.672,4.096,4.096c-0.124,80.666-0.124,161.333,0,242c0.005,3.424-0.67,4.111-4.096,4.099
			C206.334,250.946,165.667,251,125,251c0.013-0.291,0.036-0.582,0.071-0.871c1.086-0.728,2.252-1.361,3.247-2.198
			c17.648-14.856,35.328-29.677,52.876-44.651c5.144-4.389,12.51-7.558,14.716-13.645c2.185-6.031,0.573-13.438,0.626-20.241
			c0.004-0.498-0.08-1.011,0.01-1.492c0.405-2.174-1.158-2.831-2.664-3.547c7.198-3.809,13.009-9.054,17.37-16.72
			c-3.264,0.701-5.975,1.332-8.706,1.861c-18.651,3.615-30.378-7.461-27.71-26.115c0.687-4.799,2.201-9.364,3.765-13.915
			c6.152-17.903,8.674-36.123,5.424-54.984c-3.457-20.064-14.83-34.207-32.597-43.237c-9.534-4.845-19.179-8.094-30.809-6.344
			C107.885,6.816,95.972,9.593,86.187,17.95c-6.758,5.771-11.202,13.57-14.194,21.995c-8.697,24.485-7.106,49.083-0.318,73.618
			c1.732,6.261,3.651,12.213,2.328,18.96c-3.156,16.101-13.347,22.694-29.018,18.209c-0.911-0.261-1.712-1.142-3.399-0.112
			c3.411,6.572,8.143,11.8,14.585,15.525c0.094,7.303,0.338,14.609,0.21,21.908c-0.052,2.969,0.966,4.88,3.183,6.765
			c13.278,11.295,26.518,22.636,39.609,34.147C107.482,236.27,116.313,242.993,124,251z"/>
		<path style="fill:#EB1E26;" d="M125.072,250.129c-0.035,0.289-0.059,0.58-0.072,0.871c-0.333,0-0.667,0-1,0
			c-7.687-8.007-16.518-14.73-24.827-22.036c-13.091-11.51-26.331-22.852-39.609-34.147c-2.217-1.886-3.235-3.796-3.183-6.765
			c0.127-7.299-0.116-14.605-0.211-21.908c0.964-1.199,2.316-1.341,3.712-1.363c4.089,2.293,8.944,2.199,13.122,4.212
			c-1.152,3.835-4.418,6.293-6.758,9.743c8.442-0.142,15.662-2.334,21.79-7.618c0.586,1.1,1.492,1.597,2.731,1.881
			c11.404,2.615,22.792,5.304,34.184,7.972c0.007,4.989,0.014,9.979,0.021,14.968c-10.465,0.05-20.93,0.07-31.395,0.182
			c-1.555,0.017-3.77-0.835-4.464,1.086c-0.653,1.807,1.455,2.784,2.57,3.906c9.599,9.669,19.244,19.292,28.889,28.915
			c1.278,1.276,2.395,2.815,4.396,3.07C125.002,238.775,125.037,244.452,125.072,250.129z"/>
		<path style="fill:#030303;" d="M59.882,164.781c-1.396,0.022-2.748,0.164-3.712,1.363c-6.44-3.725-11.173-8.952-14.584-15.524
			c1.687-1.03,2.488-0.149,3.399,0.112c15.671,4.486,25.861-2.108,29.018-18.209c1.323-6.747-0.596-12.699-2.328-18.96
			c-6.788-24.535-8.378-49.133,0.318-73.618c2.993-8.425,7.437-16.224,14.194-21.995C95.972,9.593,107.885,6.816,120.618,4.9
			c11.63-1.75,21.275,1.498,30.809,6.344c17.768,9.03,29.14,23.173,32.597,43.237c3.25,18.861,0.728,37.081-5.424,54.984
			c-1.564,4.551-3.078,9.116-3.765,13.915c-2.669,18.654,9.059,29.73,27.71,26.115c2.731-0.529,5.442-1.16,8.706-1.861
			c-4.36,7.666-10.172,12.911-17.368,16.718c-1.626-0.097-3.255-0.193-4.883-0.288c-2.909-1.707-6.267-1.971-9.442-2.546
			c-3.056-0.553-7.173-3.67-9.059-0.633c-1.686,2.714,1.503,6.344,3.406,9.227c1.003,3.058,3.968,4.751,5.643,7.747
			c-7.776,0.296-14.282-2.338-20.46-6.084c-2.899-3.238-5.125-6.919-7.075-10.78c-1.232-9.309-4.292-18.156-6.85-27.129
			c1.362-1.635,2.554-3.458,4.118-4.87c4.177-3.772,6.677-8.275,6.842-13.968l-0.085,0.064c1.243,0.022,0.957-0.92,1.031-1.635
			c2.201-2.623,2.988-5.868,3.696-9.06c1.867-8.428,3.252-16.971,5.353-25.337c3.679-14.653-0.456-27.865-6.709-40.809
			c-1.092-2.26-2.456-3.5-5.311-3.481c-20.639,0.136-41.28,0.091-61.919,0.045c-1.99-0.004-3.532,0.356-4.553,2.26
			c-7.507,13.992-12.124,28.407-6.716,44.348c0.443,1.884-0.733,4.13,1.269,5.665c0.143,1.126-0.974,2.817,1.334,2.972
			c0.008,0.291,0.141,0.495,0.399,0.612c-1.969,5.782,1.176,10.898,2.123,16.3c-0.131,1.148-0.247,2.291,0.866,3.091
			c2.998,10.164,6.631,19.911,16.307,25.897c1.075,0.665,1.823,1.857,2.722,2.805c-0.598,1.43-1.196,2.86-1.794,4.289
			c-1.873,3.9-4.068,7.613-7.362,10.47c-1.736,1.505-1.907,3.352-2.004,5.345c-1.744,4.358-3.644,8.63-6.728,12.252
			c-6.128,5.283-13.348,7.475-21.79,7.618c2.34-3.449,5.607-5.907,6.758-9.743c0.678-1.28,1.448-2.521,2.008-3.851
			c0.496-1.178,1.57-2.642,0.745-3.677c-1.07-1.342-2.729-0.267-4.094,0.094C67.727,162.6,63.807,163.703,59.882,164.781z"/>
		<path style="fill:#C00E24;" d="M159.088,171.774c6.178,3.747,12.684,6.381,20.46,6.085c-1.674-2.997-4.64-4.689-5.643-7.748
			c2.434-2.664,5.979-2.144,8.97-3.204c2.097-0.743,5.14,0.322,6.125-2.844c1.628,0.096,3.257,0.191,4.883,0.288
			c1.504,0.718,3.067,1.375,2.662,3.549c-0.09,0.481-0.006,0.994-0.01,1.492c-0.052,6.803,1.56,14.21-0.626,20.241
			c-2.206,6.087-9.572,9.256-14.716,13.645c-17.548,14.974-35.227,29.795-52.876,44.651c-0.994,0.837-2.161,1.47-3.247,2.198
			c-0.035-5.677-0.069-11.354-0.104-17.031c1.16-0.93,2.416-1.763,3.463-2.806c9.9-9.849,19.778-19.721,29.62-29.628
			c1-1.007,2.997-1.914,2.359-3.458c-0.742-1.796-2.923-1.112-4.522-1.124c-10.305-0.079-20.611-0.102-30.916-0.143
			c-0.007-4.989-0.014-9.979-0.021-14.968c0.001,0,0.208,0.033,0.206,0.033c6.214-1.475,12.5-2.706,18.622-4.501
			C148.899,175.003,154.526,175.073,159.088,171.774z"/>
		<path style="fill:#342521;" d="M124.972,195.94c10.305,0.041,20.611,0.064,30.916,0.143c1.599,0.012,3.78-0.672,4.522,1.124
			c0.637,1.544-1.359,2.452-2.359,3.458c-9.842,9.907-19.72,19.779-29.62,29.628c-1.048,1.042-2.304,1.875-3.463,2.806
			c-2.001-0.254-3.118-1.794-4.396-3.07c-9.644-9.623-19.289-19.247-28.889-28.915c-1.114-1.122-3.223-2.099-2.57-3.906
			c0.694-1.921,2.909-1.07,4.464-1.086C104.041,196.01,114.507,195.99,124.972,195.94z M125.001,200.076
			c-8.292-0.066-16.584-0.149-24.876-0.177c-0.923-0.003-2.137-0.35-2.657,0.758c-0.554,1.18,0.614,1.755,1.258,2.403
			c7.725,7.764,15.465,15.512,23.237,23.228c1.153,1.144,2.412,2.553,4.183,0.784c8.724-7.469,16.317-16.095,24.564-24.052
			c0.659-0.636,1.746-1.345,0.991-2.485c-0.632-0.955-1.799-0.637-2.745-0.633C140.972,199.938,132.986,200.013,125.001,200.076z"/>
		<path style="fill:#F72737;" d="M88.035,171.118c3.084-3.622,4.984-7.894,6.728-12.252c9.029,6.464,18.327,12.203,30.134,11.174
			c0.056,0.32,0.121,0.639,0.195,0.955c0.022,3.337,0.044,6.673,0.066,10.01c0,0-0.207-0.033-0.208-0.033
			c-11.393-2.668-22.78-5.357-34.185-7.972C89.527,172.715,88.622,172.218,88.035,171.118z"/>
		<path style="fill:#F72737;" d="M59.882,164.781c3.926-1.078,7.845-2.181,11.781-3.221c1.365-0.361,3.024-1.436,4.094-0.094
			c0.825,1.035-0.25,2.499-0.745,3.677c-0.56,1.33-1.33,2.571-2.008,3.851C68.825,166.98,63.97,167.074,59.882,164.781z"/>
		<path style="fill:#EA1C24;" d="M80.905,81.421c-5.407-15.942-0.79-30.357,6.716-44.348c1.021-1.904,2.564-2.264,4.553-2.26
			c20.64,0.046,41.28,0.091,61.919-0.045c2.855-0.019,4.22,1.221,5.311,3.481c6.253,12.944,10.388,26.156,6.709,40.809
			c-2.1,8.366-3.485,16.909-5.353,25.337c-0.707,3.192-1.495,6.437-3.696,9.061c-0.344,0.545-0.687,1.09-1.031,1.635
			c0,0,0.085-0.064,0.085-0.064c-2.51,0.88-4.012,3.064-5.349,5.004c-3.028,4.395-5.51,3.485-8.961,0.416
			c-5.706-5.075-11.823-9.69-17.766-14.499c-0.841-1.236-1.95-1.271-2.997-0.434c-2.326,1.86-5.18,3.039-7.053,5.477
			c-3.276,2.505-6.693,4.85-9.782,7.569c-2.274,2.001-4.058,1.646-6.023-0.166c-3.398-3.134-6.805-6.259-10.207-9.388
			c-0.652-0.679-1.303-1.358-1.955-2.038c-0.946-5.402-4.091-10.518-2.12-16.296c2.153,6.009,6.625,9.87,12.099,12.607
			c7.242,3.62,11.671,2.741,17.374-3.031c4.223-4.274,4.245-5.705-0.361-9.388C103.624,83.347,92.915,80.126,80.905,81.421z
			 M141.246,105.769c9.318-0.371,21.344-12.446,22.315-22.11c0.25-2.493-1.108-2.376-2.594-2.434
			c-12.004-0.469-22.521,3.156-31.293,11.49c-0.943,0.895-1.97,1.725-1.548,3.373C129.035,99.647,137.436,105.921,141.246,105.769z
			 M123.276,49.841c-6.987,0-13.973-0.01-20.96,0.012c-0.957,0.003-2.176-0.318-2.744,0.647c-0.816,1.387,0.592,2.078,1.34,2.833
			c6.32,6.383,12.712,12.695,19.017,19.093c2.227,2.26,4.147,2.199,6.358-0.051c6.295-6.407,12.687-12.719,19.027-19.082
			c0.68-0.682,1.765-1.344,1.427-2.423c-0.461-1.472-1.929-1-3.004-1.007C136.917,49.819,130.097,49.841,123.276,49.841z"/>
		<path style="fill:#F5BB98;" d="M87.983,109.007c3.403,3.129,6.809,6.254,10.207,9.388c1.965,1.812,3.749,2.167,6.023,0.166
			c3.089-2.718,6.506-5.063,9.782-7.568c1.367,1.387,1.728,3.352,3.17,4.809c6.206,6.273,6.129,6.35,11.829-0.805
			c0.077-0.142,0.154-0.283,0.232-0.425c-0.074,0.145-0.148,0.29-0.222,0.435c-1.889,0.402-3.777,0.805-6.201,1.321
			c0.85-3.64-0.979-7.158,1.242-10.379c5.943,4.809,12.06,9.424,17.766,14.499c3.451,3.069,5.933,3.979,8.961-0.416
			c1.336-1.94,2.839-4.124,5.349-5.004c-0.164,5.694-2.664,10.196-6.842,13.968c-1.564,1.412-2.756,3.235-4.118,4.871
			c-3.576,2.519-5.97,6.187-8.986,9.25c-6.598,6.699-16.015,7.302-23.379,1.367c-2.321-1.87-4.583-3.813-6.872-5.722
			c-0.9-0.948-1.648-2.14-2.722-2.805c-9.677-5.986-13.31-15.733-16.307-25.897C87.258,109.71,87.62,109.359,87.983,109.007z
			 M122.93,133.825c6.22,0.738,8.49-4.871,12.458-7.754c0.058-0.248,0.157-0.497,0.151-0.743c-0.002-0.09-0.245-0.228-0.394-0.253
			c-8.272-1.431-16.514-1.394-24.98,0.211C115.437,131.657,118.756,133.839,122.93,133.825z"/>
		<path style="fill:#A30F23;" d="M105.924,138.762c2.289,1.909,4.551,3.852,6.872,5.722c7.364,5.935,16.781,5.332,23.379-1.367
			c3.017-3.063,5.41-6.731,8.986-9.25c2.559,8.972,5.619,17.819,6.851,27.128c-8.266,5.237-17.015,9.172-26.919,10
			c-0.075-0.316-0.14-0.635-0.195-0.955c0.033-4.297,0.066-8.593,0.098-12.889c0.012-1.564-0.067-2.955-2.197-3.139
			c-6.342-0.548-10.975-4.106-15.029-8.68c-0.962-1.085-1.905-2.359-3.64-2.281C104.728,141.622,105.326,140.192,105.924,138.762z"
			/>
		<path style="fill:#EA1C24;" d="M104.13,143.051c1.735-0.078,2.678,1.195,3.64,2.281c4.054,4.574,8.687,8.132,15.029,8.68
			c2.13,0.184,2.209,1.575,2.197,3.139c-0.032,4.296-0.065,8.592-0.098,12.889c-11.808,1.029-21.106-4.709-30.135-11.173
			c0.097-1.993,0.269-3.84,2.004-5.345C100.062,150.664,102.257,146.952,104.13,143.051z"/>
		<path style="fill:#A4021D;" d="M125.093,170.995c9.904-0.828,18.653-4.764,26.919-10c1.951,3.861,4.177,7.542,7.076,10.78
			c-4.562,3.298-10.189,3.229-15.308,4.729c-6.122,1.794-12.408,3.026-18.622,4.501
			C125.137,177.668,125.115,174.332,125.093,170.995z"/>
		<path style="fill:#342521;" d="M80.905,81.421c12.01-1.295,22.719,1.926,32.115,9.439c4.606,3.683,4.584,5.114,0.361,9.388
			c-5.703,5.772-10.132,6.651-17.374,3.031c-5.474-2.736-9.946-6.598-12.099-12.607c-0.26-0.12-0.393-0.324-0.402-0.615
			c-0.445-0.99-0.889-1.981-1.333-2.972C80.172,85.551,81.348,83.305,80.905,81.421z M84.048,84.106
			c2.18,7.747,6.241,13.319,12.988,16.729c6.015,3.04,10.381,2.019,14.956-2.936c1.798-1.947,1.575-3.135-0.354-4.708
			C103.735,86.75,94.805,83.535,84.048,84.106z"/>
		<path style="fill:#A4021D;" d="M189,164.064c-0.984,3.166-4.028,2.101-6.125,2.844c-2.991,1.06-6.536,0.54-8.97,3.204
			c-1.904-2.883-5.093-6.513-3.407-9.227c1.887-3.037,6.003,0.08,9.059,0.633C182.733,162.092,186.092,162.357,189,164.064z"/>
		<path style="fill:#F69C75;" d="M87.983,109.007c-0.363,0.352-0.725,0.703-1.089,1.054c-1.113-0.8-0.998-1.943-0.866-3.091
			C86.68,107.648,87.332,108.328,87.983,109.007z"/>
		<path style="fill:#A30F23;" d="M82.174,87.086c0.444,0.991,0.888,1.981,1.333,2.972C81.199,89.903,82.317,88.212,82.174,87.086z"
			/>
		<path style="fill:#F5BB98;" d="M156.036,115.091c0.344-0.545,0.687-1.09,1.031-1.635
			C156.993,114.172,157.28,115.114,156.036,115.091z"/>
		<path style="fill:#F4CE34;" d="M126.146,227.072c-1.77,1.769-3.03,0.36-4.183-0.784c-7.773-7.715-15.513-15.464-23.237-23.228
			c-0.644-0.648-1.813-1.223-1.258-2.403c0.521-1.108,1.735-0.761,2.657-0.758c8.292,0.028,16.584,0.11,24.876,0.177
			c0,7.136-0.055,14.272,0.037,21.407C125.063,223.372,124.25,225.519,126.146,227.072z"/>
		<path style="fill:#F6BF2F;" d="M126.146,227.072c-1.896-1.553-1.083-3.7-1.108-5.589c-0.093-7.135-0.037-14.271-0.037-21.407
			c7.985-0.063,15.97-0.138,23.956-0.173c0.946-0.004,2.113-0.322,2.745,0.633c0.755,1.14-0.332,1.849-0.991,2.485
			C142.463,210.977,134.87,219.603,126.146,227.072z"/>
		<path style="fill:#342521;" d="M141.246,105.769c-3.81,0.152-12.211-6.122-13.12-9.681c-0.421-1.648,0.606-2.478,1.548-3.373
			c8.772-8.334,19.289-11.959,31.293-11.49c1.486,0.058,2.845-0.059,2.594,2.434C162.59,93.323,150.564,105.398,141.246,105.769z
			 M159.937,84.329c-9.402-0.949-20.578,2.731-26.995,8.986c-0.822,0.801-2.344,1.308-1.468,3.184
			c1.268,2.713,7.783,6.743,10.692,6.318C150.548,101.596,158.922,92.884,159.937,84.329z"/>
		<path style="fill:#342521;" d="M123.276,49.841c6.82,0,13.641-0.022,20.461,0.023c1.075,0.007,2.543-0.466,3.004,1.007
			c0.338,1.079-0.747,1.741-1.427,2.423c-6.34,6.363-12.732,12.675-19.027,19.082c-2.21,2.25-4.131,2.311-6.358,0.051
			c-6.304-6.398-12.696-12.71-19.017-19.093c-0.748-0.755-2.156-1.446-1.34-2.833c0.568-0.965,1.787-0.644,2.744-0.647
			C109.303,49.83,116.29,49.841,123.276,49.841z M121.901,70.381c0.895,0.687,1.983,0.789,2.727,0.07
			c5.332-5.161,10.777-10.228,15.783-15.694c2.011-2.196-0.401-2.59-2.117-2.579c-5.441,0.034-10.881,0.134-16.321,0.208
			c-4.782-0.065-9.564-0.146-14.347-0.179c-0.934-0.006-2.22-0.239-2.403,1.047c-0.091,0.637,0.488,1.557,1.029,2.069
			C111.509,60.299,116.077,65.994,121.901,70.381z"/>
		<path style="fill:#F69C75;" d="M128.995,114.996c-5.7,7.155-5.623,7.078-11.829,0.806c-1.442-1.457-1.803-3.423-3.17-4.809
			c1.872-2.438,4.727-3.618,7.053-5.477c1.047-0.837,2.156-0.803,2.997,0.434c-2.221,3.221-0.393,6.739-1.243,10.379
			c2.424-0.517,4.313-0.919,6.201-1.321L128.995,114.996z"/>
		<path style="fill:#C00E24;" d="M122.93,133.825c-4.174,0.013-7.493-2.169-12.766-8.539c8.466-1.605,16.708-1.641,24.98-0.211
			c0.149,0.026,0.392,0.163,0.394,0.253c0.006,0.246-0.093,0.495-0.152,0.744c-2.011-0.358-3.87,0.559-5.784,0.709
			C125.087,127.135,121.948,128.428,122.93,133.825z"/>
		<path style="fill:#A30F23;" d="M122.93,133.825c-0.981-5.398,2.157-6.691,6.673-7.044c1.913-0.15,3.772-1.067,5.784-0.709
			C131.42,128.954,129.15,134.563,122.93,133.825z"/>
		<path style="fill:#F69C75;" d="M129.004,115.005c0.074-0.145,0.148-0.29,0.222-0.435c-0.077,0.142-0.154,0.283-0.232,0.425
			C128.995,114.996,129.004,115.005,129.004,115.005z"/>
		<path style="fill:#FEFEFE;" d="M84.048,84.106c10.757-0.572,19.687,2.643,27.59,9.086c1.929,1.573,2.152,2.761,0.354,4.708
			c-4.576,4.955-8.941,5.976-14.956,2.936C90.29,97.426,86.228,91.853,84.048,84.106z"/>
		<path style="fill:#E0E0E0;" d="M159.937,84.329c-1.016,8.555-9.389,17.267-17.771,18.489c-2.909,0.424-9.424-3.606-10.692-6.318
			c-0.877-1.876,0.646-2.383,1.468-3.184C139.359,87.06,150.535,83.38,159.937,84.329z"/>
		<path style="fill:#E8B535;" d="M121.972,52.386c5.44-0.074,10.88-0.174,16.321-0.208c1.716-0.011,4.128,0.383,2.117,2.579
			c-5.006,5.466-10.451,10.533-15.783,15.694c-0.744,0.72-1.832,0.617-2.727-0.07C121.925,64.382,121.948,58.384,121.972,52.386z"/>
		<path style="fill:#F4CE34;" d="M121.972,52.386c-0.024,5.998-0.048,11.996-0.072,17.995c-5.823-4.386-10.391-10.081-15.649-15.058
			c-0.541-0.512-1.12-1.432-1.029-2.069c0.184-1.286,1.469-1.053,2.403-1.047C112.408,52.24,117.19,52.321,121.972,52.386z"/>
	</g>
</g>
</svg>
