<?xml version="1.0" encoding="iso-8859-1"?>
<!-- Generator: Adobe Illustrator 23.0.3, SVG Export Plug-In . SVG Version: 6.00 Build 0)  -->
<svg version="1.1" id="Layer_1" xmlns="http://www.w3.org/2000/svg" xmlns:xlink="http://www.w3.org/1999/xlink" x="0px" y="0px"
	 viewBox="0 0 250 250" style="enable-background:new 0 0 250 250;" xml:space="preserve">
<g>
	<g>
		<path style="fill:none;" d="M122,251c-40.333,0-80.667,0-121,0C1,167.667,1,84.333,1,1c82,0,164,0.027,246-0.096
			c3.424-0.005,4.101,0.672,4.096,4.096c-0.124,80.666-0.124,161.333,0,242c0.005,3.424-0.67,4.112-4.096,4.099
			C207,250.945,167,251,127,251c-0.588-1.041,0.367-1.503,0.81-2.156c0,0.001-0.088,0.099-0.088,0.099
			c10.608-8.852,21.515-17.353,31.508-26.925c0.738-0.334,1.597-0.523,2.194-1.025c10.739-9.015,21.424-18.095,32.173-27.098
			c3.737-3.13,6.2-6.569,5.496-11.89c-0.496-3.749-0.096-7.617-0.096-11.432c0-8.162-0.908-9.103-9.281-9.564
			c-0.826-0.045-1.658,0.012-2.487,0.022c-1.635-1.938-4.164-1.495-6.212-2.335c-0.115-0.533-0.342-0.924-0.99-0.784l0.098,0.018
			c-1.188-2.536-2.384-5.068-3.562-7.608c-4.388-9.47-5.189-19.117-1.505-29.018c4.948-13.296,6.429-27.071,5.583-41.157
			c0.21-7.555-0.173-15.071-1.458-22.527c-0.183-1.872-0.366-3.745-0.548-5.618c-0.214-6.391-1.63-12.485-4.388-18.275
			C160.059,3.934,119.839-6.203,92.301,13.465C76.375,24.84,68.214,40.163,71.406,60.3c0.162,1.297,0.325,2.599,0.488,3.901
			c-1.956,4.763-2.236,9.736-1.856,14.791c-0.19,2.672-2.823,3.927-3.745,6.19c1.16,1.261,2.615,0.103,3.761,0.699
			c0.832,10.282,2.734,20.425,6.547,29.957c5.515,13.786,6.023,27.298,0.153,40.982c-4.576,1.27-9.152,2.541-13.761,3.82
			c0.456,2.022,1.98,2.578,3.095,3.451c12.324,9.648,24.633,19.316,37.045,28.85c7.24,5.562,14.106,11.63,21.912,16.438
			c0,0-0.112,0.338-0.112,0.339c-0.005,0.356-0.009,0.711-0.014,1.066c-4.134-0.085-8.329,0.254-12.388-0.344
			c-8.522-1.254-14.882,1.927-20.476,8.106c-1.983,2.191-1.884,3.084-0.001,5.021c8.219,8.452,17.572,15.605,26.378,23.381
			c0,0,0.048-0.001,0.048-0.001c0.783,0.463,1.109,1.904,2.46,1.148l-0.032-0.048c-0.454,1.171,0.198,1.21,1.059,1.035l-0.051-0.047
			c-0.047,0.133-0.169,0.3-0.127,0.391c0.1,0.213,0.279,0.389,0.425,0.58C122.142,250.338,122.071,250.669,122,251z"/>
		<path style="fill:#D7292C;" d="M122,251c0.071-0.331,0.142-0.662,0.213-0.993c0.348-0.034,0.696-0.068,1.044-0.102
			c1.772,0.735,2.902-1.281,4.554-1.062c-0.443,0.654-1.398,1.115-0.81,2.156C125.333,251,123.667,251,122,251z"/>
		<path style="fill:#FDD639;" d="M70.053,85.881c-1.146-0.595-2.601,0.562-3.761-0.699c0.922-2.263,3.555-3.518,3.745-6.19
			c3.329-3.937,3.185-8.596,2.768-13.311c-0.018-1.952,0.812-4.055-1.009-5.687c0.282-4.643,0.564-9.272,1.784-13.809
			c6.141-22.837,28.108-38.204,53.349-37.256c25.626,0.962,45.748,18.191,50.255,43.03c-0.279,4.376,0.339,8.657,1.511,14.221
			c0.214-3.728,0.353-6.145,0.491-8.562c1.285,7.458,1.668,14.974,1.459,22.529c-1.051,1.466-0.523,3.146-0.617,4.734
			c-0.365,6.151-0.844,6.593-6.835,6.087c-2.131-2.637-5.447-3.28-8.196-4.877c-2.654-1.759-5.309-3.519-7.964-5.277
			c-0.461-0.881-0.81-1.893-2.104-1.805l0.067,0.076c-0.638-2.031-2.382-2.974-3.986-4.055c-1.939-2.226-3.042-5.23-6.028-6.483
			c0.267-1.172-0.153-1.929-1.349-2.215c-1.058-2.119-1.826-4.437-4.829-7.026c1.071,3.705,2.052,5.853,3.676,7.719
			c0.086,0.941,0.525,1.648,1.381,2.078c0.704,2.669,2.171,4.818,4.403,6.444c-0.312,1.811,1.343,2.344,2.205,3.392
			c0.538,1.035,1.075,2.069,1.613,3.104c-1.894-0.32-3.788-0.641-5.681-0.961c-1.644-0.685-3.288-1.369-4.932-2.054
			c-0.769-0.823-1.652-1.231-2.776-0.766c-7.372-5.874-15.397-11.022-20.906-18.961c-2.298-3.312-4.707-6.548-7.066-9.818
			c0.808,8.103,3.923,15.177,8.357,21.626c2.457,3.574-0.195,2.737-2.043,2.813c0,0.001,0.021,0.059,0.021,0.059
			c-0.34-0.31-0.68-0.621-1.02-0.931c-2.362-1.058-4.468-2.703-7.116-3.109c-0.3-0.129-0.611-0.224-0.932-0.284
			c-0.301-1.015-0.612-2.018-2.032-1.68l0.075,0.062c-0.133-1.906-1.801-2.355-3.043-3.21c-0.54-0.743-0.993-1.776-2.124-1.382
			c-0.341,0.119-0.414,1.009-0.61,1.546c0.001,0.533,0.003,1.067,0.004,1.6c-0.799,2.785-1.598,5.571-2.396,8.356
			c-1.005,0.795-1.879,1.675-1.995,3.052c-1.131,0.79-2.039,1.758-2.476,3.102c-0.223,0.526-0.446,1.053-0.669,1.579
			c-3.408,0.999-5.533,4.065-8.724,5.415c-0.7-0.351-2.84,2.483-2.142-0.974c0.349-1.727,1.418-3.304,1.081-5.173
			c0.227-1.378,0.837-2.831,0.588-4.117c-0.353-1.827-1.183-1.673-1.6,0.124c-1.923,3.681-5.955,4.689-8.927,7.041
			C71.941,85.039,70.801,84.805,70.053,85.881z M137.457,56.377c0.095-0.063,0.243-0.108,0.273-0.194
			c0.038-0.109-0.02-0.251-0.037-0.379c-0.142,0.083-0.284,0.165-0.426,0.248C137.33,56.16,137.394,56.268,137.457,56.377z"/>
		<path style="fill:#F0EFEF;" d="M124.932,209.718c0,0,0.112-0.338,0.113-0.338s-0.078-0.45-0.078-0.45
			c1.497-0.998,3.064-1.908,4.482-3.009c19.273-14.948,38.525-29.922,57.783-44.89c0.829-0.01,1.661-0.067,2.487-0.022
			c8.373,0.461,9.28,1.402,9.281,9.564c0,3.815-0.4,7.683,0.096,11.432c0.704,5.321-1.759,8.76-5.496,11.89
			c-10.749,9.003-21.434,18.083-32.173,27.098c-0.597,0.501-1.457,0.69-2.194,1.025c-2.265-2.4-4.727-4.646-6.748-7.237
			c-2.834-3.633-6.325-4.596-10.821-4.479C136.103,210.448,130.456,211.212,124.932,209.718z"/>
		<path style="fill:#FEB932;" d="M173.194,90.967c5.989,0.506,6.468,0.064,6.833-6.087c0.094-1.588-0.434-3.268,0.617-4.734
			c0.845,14.086-0.635,27.861-5.584,41.157c-3.685,9.901-2.884,19.548,1.505,29.018c1.177,2.541,2.374,5.072,3.562,7.608
			c-3.355,0.648-6.453-1.798-9.835-0.816c-1.142-1.535-3.069-1.529-4.534-1.638c-11.852-0.884-15.855-9.313-18.671-18.97
			c-0.462-1.583-0.8-3.202-1.195-4.805c-0.047-1.994,0.656-4.096-0.846-5.882c7.007-8.271,16.261-15.05,17.862-26.909
			C168.43,98.973,170.798,94.952,173.194,90.967z"/>
		<path style="fill:#FEB932;" d="M70.053,85.881c0.748-1.076,1.888-0.842,2.946-0.881c2.013,6.805,4.468,13.204,12.936,14.075
			c1.147,10.107,6.143,17.857,14.302,23.791c1.837,1.336,3.243,3.262,4.847,4.918c-0.007,1.924-0.014,3.846-0.02,5.768
			c-0.344,0.734-0.79,1.438-1.016,2.206c-2.988,10.152-8.442,17.691-19.777,19.446c-1.839,0.285-3.972,0.372-5.506,1.857
			c-0.671-0.081-1.342-0.161-2.013-0.242c5.87-13.684,5.362-27.196-0.153-40.982C72.787,106.305,70.885,96.163,70.053,85.881z"/>
		<path style="fill:#EA2429;" d="M76.753,156.82c0.671,0.081,1.342,0.161,2.014,0.243c14.858,12.605,29.844,25.052,45.218,37.025
			c0.328,0.276,0.656,0.553,0.985,0.829c-0.001,4.671-0.003,9.342-0.004,14.013c0,0,0.079,0.45,0.078,0.45
			c-7.807-4.808-14.673-10.876-21.913-16.438c-12.412-9.534-24.721-19.202-37.045-28.85c-1.115-0.873-2.639-1.429-3.095-3.451
			C67.601,159.361,72.177,158.09,76.753,156.82z"/>
		<path style="fill:#D62329;" d="M124.966,208.93c0.001-4.671,0.003-9.342,0.004-14.013c4.445-3.698,8.895-7.391,13.335-11.095
			c10.665-8.899,21.325-17.804,31.987-26.707c3.382-0.983,6.48,1.463,9.835,0.816c0,0-0.098-0.018-0.098-0.018
			c0.056,0.607,0.42,0.825,0.99,0.784c2.047,0.84,4.577,0.398,6.212,2.335c-19.257,14.968-38.51,29.942-57.783,44.89
			C128.029,207.021,126.463,207.931,124.966,208.93z"/>
		<path style="fill:#312C28;" d="M177.183,51.959c-4.507-24.838-24.629-42.068-50.255-43.03
			C101.688,7.981,79.721,23.348,73.58,46.185c-1.22,4.537-1.502,9.166-1.784,13.808c0-0.001-0.291,0.036-0.291,0.036l-0.098,0.277
			c-3.193-20.143,4.967-35.465,20.894-46.84c27.538-19.668,67.758-9.531,81.949,20.261c2.758,5.79,4.173,11.884,4.387,18.274
			C178.153,51.986,177.668,51.972,177.183,51.959z"/>
		<path style="fill:#EB2125;" d="M118.432,246.949c-8.806-7.777-18.159-14.93-26.378-23.382c-1.883-1.936-1.982-2.83,0.001-5.021
			c5.594-6.179,11.954-9.36,20.476-8.106c4.058,0.597,8.254,0.258,12.388,0.344c0.028,1.72,0.056,3.44,0.084,5.16
			c-2.631,0.262-5.289,0.439-7.736,1.553c-1.842,0.838-3.674,1.84-3.467,4.286c0.192,2.268,2.083,2.872,3.861,3.234
			c2.417,0.492,4.891,0.706,7.341,1.039c-0.001,2.926-0.001,5.851-0.002,8.777c-5.215,0.588-10.395-0.172-16.267-0.773
			c1.73,2.381,2.521,4.688,5.664,3.168c1.363-0.659,3.259-0.749,4.127,0.557c1.629,2.45,4.351,2.021,6.485,3.064
			c-0.003,1.328-0.007,2.656-0.01,3.984c-1.251-0.149-2.576-0.084-3.738-0.489C118.503,243.384,118.62,245.272,118.432,246.949z
			 M105.681,216.066c-4.334-0.024-6.153,3.01-8.055,5.408c-1.221,1.539,0.905,2.809,1.984,3.35c2.067,1.035,1.24-1.146,1.368-1.843
			C101.497,220.172,103.737,218.572,105.681,216.066z"/>
		<path style="fill:#D7292C;" d="M124.998,234.833c0.001-2.926,0.001-5.851,0.002-8.777c5.388,0.386,11.405-3.231,15.982,0.247
			c4.334,3.294,5.816,1.006,8.507-1.431c3.317-3.004,2.51-4.722-1.108-6.315c-0.868,4.132-6.744,6.66-9.298,3.653
			c-3.853-4.535-8.886-5.334-14.081-6.267c-0.028-1.72-0.056-3.44-0.084-5.16c0.005-0.355,0.009-0.71,0.014-1.066
			c5.525,1.494,11.171,0.73,16.73,0.584c4.496-0.118,7.987,0.846,10.821,4.479c2.021,2.59,4.483,4.837,6.748,7.237
			c-9.993,9.572-20.9,18.073-31.507,26.925c0.963-2.611,1.116-4.686-2.726-4.11c0.003-1.328,0.007-2.656,0.01-3.984
			c2.797,0.061,5.58,0.017,8.281-0.87c0.958-0.315,2.068-0.678,2.177-1.712c0.147-1.398-1.143-1.811-2.221-2.225
			C130.588,235.021,127.773,235.058,124.998,234.833z"/>
		<path style="fill:#FCE402;" d="M124.998,244.833c3.841-0.575,3.688,1.499,2.726,4.11c-0.001,0,0.087-0.098,0.087-0.099
			c-1.652-0.22-2.782,1.796-4.555,1.061c-0.258-0.582-0.618-1.005-1.34-0.869c0,0,0.051,0.047,0.051,0.047
			c0.055-0.762-0.294-1.111-1.059-1.035c0,0,0.032,0.048,0.032,0.048c0.219-0.629-0.106-0.971-0.635-1.205
			c-0.36-0.247-0.721-0.494-1.081-0.741c-0.111,0.223-0.222,0.445-0.332,0.668l-0.411,0.13c0,0-0.048,0.001-0.048,0.001
			c0.189-1.677,0.072-3.565,2.829-2.605C122.422,244.749,123.747,244.684,124.998,244.833z"/>
		<path style="fill:#FEB932;" d="M72.806,65.681c0.417,4.716,0.561,9.375-2.768,13.311c-0.38-5.056-0.1-10.029,1.856-14.791
			C72.197,64.695,72.501,65.188,72.806,65.681z"/>
		<path style="fill:#61472F;" d="M177.183,51.959c0.485,0.014,0.969,0.027,1.454,0.042c0.183,1.874,0.366,3.747,0.549,5.619
			c-0.139,2.415-0.278,4.832-0.492,8.56C177.523,60.616,176.904,56.335,177.183,51.959z"/>
		<path style="fill:#B9573E;" d="M72.806,65.681c-0.304-0.493-0.608-0.986-0.912-1.48c-0.163-1.302-0.326-2.604-0.488-3.901
			c0.001,0.005,0.1-0.272,0.1-0.272s0.291-0.037,0.291-0.036C73.617,61.626,72.788,63.729,72.806,65.681z"/>
		<path style="fill:#EA2429;" d="M120.303,246.891c0.53,0.234,0.854,0.576,0.635,1.205c-1.351,0.755-1.677-0.686-2.46-1.148
			c0,0,0.411-0.13,0.413-0.128C119.363,246.845,119.833,246.868,120.303,246.891z"/>
		<path style="fill:#FEB932;" d="M181.019,158.696c-0.57,0.041-0.933-0.177-0.99-0.784
			C180.677,157.771,180.904,158.163,181.019,158.696z"/>
		<path style="fill:#EA2429;" d="M120.907,248.049c0.765-0.077,1.114,0.272,1.059,1.035
			C121.105,249.259,120.453,249.22,120.907,248.049z"/>
		<path style="fill:#EA2429;" d="M121.915,249.037c0.723-0.136,1.082,0.287,1.34,0.869c-0.346,0.034-0.694,0.067-1.042,0.101
			c-0.147-0.191-0.325-0.367-0.425-0.58C121.745,249.337,121.867,249.169,121.915,249.037z"/>
		<path style="fill:#F6BE9A;" d="M105.086,127.783c-1.605-1.655-3.011-3.581-4.848-4.917c-8.16-5.934-13.155-13.683-14.302-23.791
			c-0.645-3.659-1.291-7.317-1.937-10.976c3.191-1.349,5.316-4.416,8.726-5.411c0.449,0.111,0.895,0.218,1.342,0.326l-0.103-0.075
			c0.428,0.358,0.855,0.715,1.283,1.073c4.702,2.913,9.632,2.525,14.694,1.145c2.514-0.685,2.146-1.965,1.068-3.584
			c0.228-2.386-1.847-2.845-3.26-3.774c-2.985-1.961-6.53-2.108-9.888-2.848c0.799-2.785,1.598-5.571,2.396-8.356
			c1.924,0.482,3.848,0.964,5.773,1.446c0,0-0.075-0.062-0.075-0.062c0.228,1.103,1.197,1.311,2.032,1.68
			c0.321,0.06,0.632,0.154,0.933,0.284c7.061,8.867,8.067,19.164,7.075,29.934c-0.03,0.329-0.07,0.686,0.022,0.993
			c1.273,4.248,4.462,7.452,8.14,8.681c2.648,0.885,4.927-2.511,5.849-5.545c0.115-0.049,0.247-0.079,0.34-0.156
			c0.057-0.047,0.053-0.168,0.076-0.255c-0.142,0.134-0.284,0.268-0.425,0.401c-5.983,1.926-5.983,1.926-5.984-4.678
			c0-1.333-0.101-2.675,0.016-3.998c0.722-8.14,0.415-15.923-6.995-21.397c1.848-0.076,4.501,0.761,2.043-2.813
			c-4.434-6.449-7.549-13.523-8.357-21.626c2.359,3.27,4.767,6.506,7.066,9.818c5.509,7.939,13.533,13.087,20.902,18.964
			c-0.58,0.915-2.442,1.079-1.632,2.799l0.021-0.032c-1.009-0.328-1.247,0.143-1.075,1.038l0.071-0.074
			c-0.826-0.141-0.964,0.442-1.093,1.036c4.194,4.693,10.365,5.045,17.101,0.974c0.936-0.408,2.494-0.247,1.888-2.065l-0.018,0.017
			c1.584,1.114,2.002-0.908,3.083-1.146c2.654,1.759,5.309,3.519,7.963,5.278c-0.967,4.229-2.175,8.419-2.088,12.82
			c-1.601,11.86-10.855,18.639-17.863,26.911c-1.881,1.872-3.902,3.621-5.616,5.633c-7.944,9.322-18.252,10.058-27.472,1.953
			C109.738,131.456,108.047,128.834,105.086,127.783z M124.031,115.379c-4.724-2.444-9.356-0.172-13.997,0.396
			c-0.712,0.087-0.184,1.035,0.524,1.295c3.962,3.045,6.7,7.818,12.241,8.635c7.842,1.156,10.498-6.146,15.753-9.525
			C133.611,115.447,128.963,112.883,124.031,115.379z"/>
		<path style="fill:#F69D75;" d="M130.005,104.004c-0.921,3.034-3.2,6.43-5.849,5.545c-3.678-1.229-6.866-4.433-8.14-8.681
			c-0.092-0.306-0.052-0.664-0.022-0.993c0.992-10.77-0.014-21.067-7.075-29.934c2.646,0.405,4.752,2.05,7.114,3.108
			c0.34,0.31,0.68,0.621,1.02,0.932c0,0-0.021-0.058-0.021-0.059c7.409,5.473,7.716,13.257,6.995,21.397
			c-0.117,1.323-0.017,2.665-0.016,3.998c0.002,6.604,0.002,6.604,5.984,4.678L130.005,104.004z"/>
		<path style="fill:#F69D75;" d="M83.999,88.098c0.646,3.658,1.292,7.317,1.937,10.976C77.467,98.203,75.012,91.805,72.999,85
			c2.972-2.352,7.004-3.36,8.928-7.041c0.252,1.353-0.376,2.928,1.011,3.993c0.336,1.869-0.733,3.446-1.081,5.173
			C81.159,90.582,83.299,87.747,83.999,88.098z"/>
		<path style="fill:#F0EFEF;" d="M111.009,81.571c1.078,1.62,1.446,2.899-1.068,3.584c-5.062,1.38-9.992,1.768-14.695-1.145
			c-0.174-0.661-0.541-1.09-1.282-1.073c0,0,0.103,0.075,0.103,0.075c-0.225-0.636-0.45-1.273-0.676-1.909
			c0.437-1.344,1.344-2.312,2.476-3.102c1.778,0.121,3.555,0.241,5.333,0.361c-0.481,2.285-0.392,4.525,2.283,5.193
			c2.69,0.671,3.857-1.111,4.233-3.539C108.814,80.535,109.911,81.053,111.009,81.571z"/>
		<path style="fill:#F69D75;" d="M162.908,98.911c-0.087-4.401,1.121-8.592,2.088-12.82c2.749,1.597,6.065,2.241,8.196,4.877
			C170.798,94.952,168.43,98.973,162.908,98.911z"/>
		<path style="fill:#FEFEFE;" d="M152.08,84.006c-6.736,4.071-12.907,3.719-17.1-0.974c0.364-0.345,0.728-0.691,1.092-1.036
			c0,0-0.071,0.074-0.071,0.074c0.603-0.092,1.033-0.365,1.075-1.038c0,0-0.021,0.032-0.021,0.032
			c0.861-0.262,1.722-0.524,2.583-0.786c0.229,1.884,0.923,3.462,3.051,3.689c2.075,0.222,3.286-0.877,3.709-2.885
			c1.894,0.32,3.788,0.641,5.681,0.962c0,0-0.079-0.017-0.079-0.017c0.072,0.39,0.144,0.78,0.217,1.17
			C152.202,83.472,152.156,83.741,152.08,84.006z"/>
		<path style="fill:#312C28;" d="M101.2,78.364c-1.777-0.12-3.555-0.241-5.333-0.361c0.115-1.377,0.99-2.258,1.995-3.052
			c3.357,0.739,6.902,0.887,9.887,2.848c1.413,0.928,3.488,1.388,3.26,3.774c-1.098-0.518-2.195-1.036-3.291-1.554
			C105.707,78.835,103.501,78.41,101.2,78.364z"/>
		<path style="fill:#36AADB;" d="M146.398,81.082c-0.423,2.008-1.635,3.108-3.709,2.885c-2.128-0.228-2.822-1.806-3.05-3.689
			c0.609-0.417,1.218-0.833,1.827-1.25C143.11,79.712,144.754,80.397,146.398,81.082z"/>
		<path style="fill:#F6BE9A;" d="M144.983,68.544c2.983,1.256,4.086,4.259,6.025,6.486c-0.915,0.172-1.831,0.345-2.746,0.517
			c-2.232-1.626-3.699-3.774-4.402-6.444C144.235,68.916,144.609,68.73,144.983,68.544z"/>
		<path style="fill:#61472F;" d="M148.262,75.547c0.915-0.172,1.83-0.345,2.746-0.517c1.604,1.081,3.349,2.024,3.986,4.055
			c-1.509-0.049-3.018-0.098-4.527-0.146C149.605,77.891,147.95,77.358,148.262,75.547z"/>
		<path style="fill:#F6BE9A;" d="M142.478,67.025c-1.624-1.867-2.606-4.014-3.676-7.719c3.004,2.589,3.771,4.907,4.826,7.025
			C143.242,66.562,142.86,66.794,142.478,67.025z"/>
		<path style="fill:#61472F;" d="M106.029,68.039c-1.924-0.482-3.849-0.964-5.773-1.446c-0.001-0.534-0.002-1.067-0.006-1.599
			c0.91-0.054,1.823-0.11,2.735-0.165C104.228,65.684,105.897,66.134,106.029,68.039z"/>
		<path style="fill:#F0EFEF;" d="M150.467,78.939c1.509,0.049,3.018,0.098,4.527,0.146c0,0-0.067-0.076-0.067-0.076
			c-0.326,0.983-0.652,1.966-0.978,2.949c0,0,0.018-0.017,0.019-0.017c-0.273,0.044-0.542,0.104-0.808,0.18
			c-0.387-0.031-0.773-0.063-1.16-0.094c0,0,0.079,0.017,0.079,0.017C151.542,81.008,151.005,79.974,150.467,78.939z"/>
		<path style="fill:#61472F;" d="M141.466,79.028c-0.609,0.417-1.218,0.834-1.827,1.25c-0.862,0.262-1.723,0.524-2.584,0.786
			c-0.81-1.72,1.052-1.884,1.632-2.799C139.814,77.797,140.698,78.205,141.466,79.028z"/>
		<path style="fill:#F6BE9A;" d="M82.938,81.951c-1.387-1.065-0.759-2.64-1.011-3.993c0.416-1.797,1.246-1.951,1.599-0.124
			C83.775,79.121,83.165,80.573,82.938,81.951z"/>
		<path style="fill:#61472F;" d="M153.95,81.958c0.326-0.983,0.652-1.966,0.978-2.949c1.294-0.088,1.643,0.924,2.104,1.805
			C155.951,81.05,155.533,83.072,153.95,81.958z"/>
		<path style="fill:#61472F;" d="M142.478,67.025c0.382-0.232,0.764-0.463,1.149-0.694c1.199,0.287,1.62,1.044,1.353,2.216
			c-0.371,0.183-0.745,0.369-1.12,0.556C143.003,68.673,142.564,67.967,142.478,67.025z"/>
		<path style="fill:#F69D75;" d="M102.986,64.829c-0.912,0.056-1.825,0.111-2.735,0.165c0.198-0.539,0.27-1.429,0.612-1.547
			C101.994,63.054,102.447,64.087,102.986,64.829z"/>
		<path style="fill:#61472F;" d="M107.987,69.657c-0.835-0.37-1.803-0.577-2.032-1.68C107.375,67.639,107.686,68.642,107.987,69.657
			z"/>
		<path style="fill:#F6BE9A;" d="M137.457,56.377c-0.064-0.108-0.127-0.217-0.191-0.325c0.142-0.083,0.284-0.165,0.426-0.248
			c0.017,0.128,0.075,0.27,0.037,0.379C137.7,56.268,137.552,56.313,137.457,56.377z"/>
		<path style="fill:#61472F;" d="M93.391,81.104c0.225,0.636,0.45,1.272,0.676,1.909c-0.447-0.107-0.893-0.214-1.342-0.326
			C92.946,82.157,93.168,81.631,93.391,81.104z"/>
		<path style="fill:#F6BE9A;" d="M117.054,73.98c-0.34-0.311-0.68-0.621-1.02-0.932C116.374,73.36,116.714,73.67,117.054,73.98z"/>
		<path style="fill:#F69D75;" d="M170.292,157.114c-10.662,8.903-21.322,17.808-31.987,26.707c-4.44,3.705-8.89,7.398-13.335,11.095
			c-0.328-0.277-0.657-0.553-0.985-0.83c-0.014-16.313-0.028-32.625-0.042-48.938c6.21,0.244,11.21-2.079,15.255-6.817
			c2.032-2.38,4.45-4.431,6.694-6.63c0.395,1.602,0.733,3.222,1.195,4.805c2.817,9.656,6.819,18.086,18.671,18.97
			C167.223,155.585,169.15,155.579,170.292,157.114z"/>
		<path style="fill:#B9573E;" d="M145.892,131.701c-2.244,2.2-4.662,4.25-6.694,6.63c-4.044,4.739-9.045,7.062-15.255,6.817
			c-4.449-0.762-8.464-2.38-11.815-5.55c-2.249-2.128-4.233-4.59-7.064-6.047c0.007-1.922,0.013-3.844,0.02-5.768
			c2.962,1.05,4.653,3.672,6.873,5.623c9.22,8.105,19.527,7.369,27.472-1.953c1.714-2.012,3.736-3.761,5.616-5.633
			C146.548,127.605,145.845,129.707,145.892,131.701z"/>
		<path style="fill:#F6BE9A;" d="M105.065,133.552c2.831,1.457,4.815,3.919,7.064,6.047c3.35,3.17,7.366,4.788,11.815,5.55
			c0.014,16.313,0.028,32.625,0.042,48.938c-15.374-11.973-30.36-24.419-45.218-37.024c1.533-1.486,3.666-1.573,5.505-1.858
			c11.335-1.754,16.789-9.294,19.777-19.446C104.275,134.99,104.721,134.286,105.065,133.552z"/>
		<path style="fill:#FCE402;" d="M125.002,215.944c5.196,0.933,10.228,1.732,14.081,6.267c2.554,3.007,8.431,0.479,9.298-3.653
			c3.618,1.592,4.426,3.311,1.108,6.315c-2.691,2.437-4.173,4.725-8.507,1.431c-4.577-3.479-10.594,0.139-15.982-0.247
			c-2.45-0.333-4.924-0.547-7.341-1.039c-1.778-0.362-3.669-0.966-3.861-3.234c-0.207-2.446,1.625-3.448,3.467-4.286
			C119.712,216.383,122.371,216.206,125.002,215.944z"/>
		<path style="fill:#FCE402;" d="M124.998,234.833c2.775,0.225,5.589,0.188,8.247,1.209c1.078,0.414,2.369,0.827,2.221,2.225
			c-0.109,1.034-1.219,1.398-2.177,1.712c-2.701,0.887-5.484,0.931-8.281,0.87c-2.134-1.043-4.855-0.614-6.485-3.064
			c-0.868-1.306-2.764-1.216-4.127-0.557c-3.143,1.521-3.934-0.787-5.664-3.168C114.604,234.662,119.784,235.421,124.998,234.833z"
			/>
		<path style="fill:#FCE402;" d="M105.681,216.066c-1.943,2.506-4.183,4.106-4.702,6.914c-0.129,0.698,0.698,2.879-1.368,1.843
			c-1.08-0.541-3.205-1.811-1.984-3.35C99.527,219.076,101.347,216.042,105.681,216.066z"/>
		<path style="fill:#EB2125;" d="M120.303,246.891c-0.47-0.023-0.94-0.046-1.412-0.071c0.109-0.225,0.22-0.447,0.331-0.67
			C119.583,246.397,119.943,246.644,120.303,246.891z"/>
		<path style="fill:#AA292B;" d="M124.031,115.379c4.932-2.497,9.58,0.068,14.521,0.801c-5.254,3.379-7.91,10.681-15.753,9.525
			c-5.54-0.817-8.279-5.59-12.239-8.635c3.375-0.593,6.605,0.511,9.729,1.312C123.505,119.207,124.18,118.124,124.031,115.379z"/>
		<path style="fill:#EA2429;" d="M124.031,115.379c0.149,2.745-0.526,3.828-3.741,3.004c-3.124-0.801-6.354-1.905-9.729-1.312
			c-0.71-0.26-1.238-1.208-0.526-1.296C114.675,115.207,119.307,112.935,124.031,115.379z"/>
		<path style="fill:#61472F;" d="M153.16,82.121c0.266-0.076,0.535-0.137,0.808-0.18c0.605,1.818-0.952,1.657-1.889,2.065
			c0.077-0.264,0.122-0.534,0.137-0.808C152.531,82.839,152.846,82.48,153.16,82.121z"/>
		<path style="fill:#61472F;" d="M93.964,82.938c0.741-0.017,1.109,0.412,1.282,1.073C94.819,83.653,94.391,83.296,93.964,82.938z"
			/>
		<path style="fill:#F69D75;" d="M129.996,103.995c0.142-0.134,0.284-0.268,0.425-0.401c-0.023,0.088-0.019,0.208-0.076,0.255
			c-0.092,0.077-0.225,0.106-0.34,0.156C130.005,104.004,129.996,103.995,129.996,103.995z"/>
		<path style="fill:#61472F;" d="M136.072,81.996c-0.364,0.345-0.728,0.69-1.092,1.036
			C135.107,82.438,135.246,81.854,136.072,81.996z"/>
		<path style="fill:#61472F;" d="M137.076,81.032c-0.043,0.673-0.472,0.945-1.075,1.038
			C135.829,81.174,136.067,80.703,137.076,81.032z"/>
		<path style="fill:#36AADB;" d="M101.2,78.364c2.302,0.046,4.507,0.471,6.518,1.654c-0.377,2.428-1.545,4.21-4.235,3.539
			C100.808,82.889,100.719,80.649,101.2,78.364z"/>
		<path style="fill:#F6BE9A;" d="M153.16,82.121c-0.315,0.359-0.63,0.718-0.944,1.076c-0.072-0.39-0.144-0.78-0.216-1.171
			C152.387,82.058,152.774,82.09,153.16,82.121z"/>
	</g>
</g>
</svg>
