<?xml version="1.0" encoding="utf-8"?>
<!-- Generator: Adobe Illustrator 23.0.3, SVG Export Plug-In . SVG Version: 6.00 Build 0)  -->
<svg version="1.1" id="Layer_1" xmlns="http://www.w3.org/2000/svg" xmlns:xlink="http://www.w3.org/1999/xlink" x="0px" y="0px"
	 viewBox="0 0 250 250" style="enable-background:new 0 0 250 250;" xml:space="preserve">
<style type="text/css">
	.st0{fill:none;}
	.st1{fill:#050403;}
	.st2{fill:#FABF3F;}
	.st3{fill:#F99D3D;}
	.st4{fill:#F6BE9B;}
	.st5{fill:#0D0B08;}
	.st6{fill:#B9573E;}
	.st7{fill:#F1B83C;}
	.st8{fill:#F29E77;}
	.st9{fill:#F5BD99;}
	.st10{fill:#262222;}
	.st11{fill:#EFF0F1;}
	.st12{fill:#E0855F;}
	.st13{fill:#2DA5D8;}
	.st14{fill:#060503;}
	.st15{fill:#B82629;}
</style>
<g>
	<path class="st0" d="M124,251c-41,0-82,0-123,0C1,167.7,1,84.3,1,1c82,0,164,0,246-0.1c3.4,0,4.1,0.7,4.1,4.1
		c-0.1,80.7-0.1,161.3,0,242c0,3.4-0.7,4.1-4.1,4.1c-40.7-0.2-81.3-0.1-122-0.1c-0.2-0.3-0.2-0.6,0.1-0.9c2.1-0.6,3.5-2,4.9-3.6
		c0.4-0.5,0.8-0.9,1.2-1.4c5.6-4.6,11.3-9.1,16.8-13.8c10.1-8.7,20.8-16.8,30.3-26.2c5.6-3.5,10.2-8.4,15.4-12.4
		c1.7-1.3,1.4-3.2,1.4-5c0.1-7.1,0.1-14.3,0.2-21.4c5.6-1.2,11.1-2.8,16.7-6.2c-1.8-0.2-2.8-0.2-3.8-0.3
		c-29.4-3.2-34.4-22.7-31.8-42.8c1.1-8.6,3.6-17.1,4-25.9c3.7-15.8,4.1-31.6,0.7-47.4c-4.4-20.6-16.9-33-37.9-36.2
		c-4.7-0.7-9.6-0.5-14.4-0.6c-1.5,0-2.9,0.1-4.4-0.5c-14.5-6.6-36.9,0.3-46.8,13.4C64.4,37.3,58.8,57.4,59.5,79.2
		c0.2,6.2,1.4,12.5,5.4,18.7c0.5-4.5,0.9-8.2,1.3-11.8c0.6,0,1.2,0,1.8,0.1c-0.1,5.3,2.1,10.5,0.9,15.9c-1.9,9-4.3,17.8-8.3,26.1
		c-4.1,8.6-8.7,17-19.8,19.2c14.5,6.7,27.3,6.5,35.2-3.9l0.2,0.4l0.5,0c-3,10.5-10,17.5-19.7,22.1l0.1-0.1c-3.5,1-6.9,2.1-10.9,3.2
		c3.8,2.1,7.3,2.7,10.9,3.4c0,5.6,0.1,11.3,0.1,16.9c0,1.9,0.1,3.6,1.7,4.9c4.8,3.8,8.8,8.5,14.1,11.7c1.6,1.6,3.2,3.3,4.9,4.8
		C93.2,224.3,108.6,237.6,124,251z"/>
	<path class="st1" d="M125.6,250c0.2-0.3,0.2-0.6-0.1-0.9c-0.5-1.6-0.6-3.5-2.9-3.5c0.8-2.1-1-3.3-1.9-4.8
		c-7.2-12-14.5-23.9-22.5-37c23,0,45,0,67,0c0.2-0.6,0.4-1.2,0.6-1.8c-23.6-16-47.1-32-70.7-48c1.7-5.5,3.4-11,5-16.5
		c2.1-0.5,2.6,1.6,4.1,1.8c2.9,2.7,5.8,5.5,8.7,8.1c9,8,9.1,8,13.5,18.7c0.3-2.1,0.6-3.7,0.8-5.3c0.2-3.2,1.9-5.4,4.3-7.4
		c4.9-4,9.6-8.3,14.3-12.5c1.2-0.9,2.3-1.8,3.9-3c1.1,3.7,2.5,7,3.2,10.5c0.9,4.7,3,7.8,8.1,8.6c1.4,0.2,2.7,1.2,4.1,1.8
		c2,13.3,4.1,26.7,6,40c0.6,4.2,5.2,3.7,7.3,6.1c-1.7,1.6-3.2,3.3-5,4.8c-15.6,13.4-31.2,26.8-46.8,40.1
		C126.3,250,125.9,250,125.6,250z"/>
	<path class="st2" d="M66.1,86c-0.4,3.6-0.8,7.3-1.3,11.8c-4-6.2-5.2-12.4-5.4-18.7c-0.6-21.7,5-41.9,18.1-59.4
		c9.8-13.1,32.3-20.1,46.8-13.4c1.5,0.7,2.9,0.5,4.4,0.5c4.8,0.1,9.7-0.1,14.4,0.6c21,3.2,33.5,15.6,37.9,36.2
		c3.4,15.8,3,31.7-0.7,47.4c-2.9-1-3.9-4.8-7.3-5.2c-0.3-1.7-1.1-2.9-3.1-2.9c0-0.1-0.1-0.2-0.1-0.3c0-0.1-0.2-0.1-0.3-0.1
		c0.1,0.1,0.3,0.3,0.4,0.4c0.1,1.9,1.3,3.3,2,5c1.7,3.2,4.2,6,5.4,9.8c-2.7,0-4.5-1.1-6.5-1.8c-2.6-1-5.2-2-7.8-3
		c-3.5-2.2-7-4.4-10.5-6.7c0,0,0.2,0.1,0.2,0.1c-4.9-4.6-9.8-9.2-14.8-13.8c-4.8-8.1-10.6-15.6-15-25.3
		c-4.7,10.2-8.9,19.3-13.2,28.4c-1.9,3.7-3.7,7.4-5.6,11.1c-0.4,0.4-0.8,0.8-1.2,1.2c-0.3,0-0.7-0.1-1-0.1c0-0.5,0-1.1,0-1.6
		c0.6-1.6,1.2-3.2,1.8-4.8c-0.3-0.1-0.6-0.2-0.9-0.3c-1.1,1.6-2.2,3.1-3.3,4.7c-1.9,1.8-3.4,3.8-4.6,6.2c-2.3,3-4.5,5.9-6.8,8.9
		c-0.5,0.6-0.9,1.2-1.4,1.9c-2.2,1.6-3.6,3.9-5,6.1c-2.1,3.3-3.1,2.7-4.9-0.4c-7.8-13.3-7.5-27.4-4.6-41.8c0.2-1,0.8-2.1-0.6-3.3
		c-2.5,5.5-4.1,11-4.1,16.8C66.1,81.8,65.8,83.8,66.1,86z M164.7,71c-0.1-0.1-0.1-0.3-0.2-0.4c-0.1,0.1-0.2,0.2-0.3,0.3
		c0,0.1,0.1,0.3,0.2,0.4C164.6,71.3,164.6,71.2,164.7,71z M73.6,60.7c-0.1,0-0.3,0-0.3,0.1c-0.1,0.1-0.1,0.2-0.1,0.4
		c0.2,0,0.3-0.1,0.5-0.1C73.7,60.9,73.7,60.8,73.6,60.7z"/>
	<path class="st3" d="M67.9,80.3c0-5.8,1.7-11.3,4.1-16.8c1.4,1.2,0.8,2.3,0.6,3.3c-2.9,14.4-3.3,28.5,4.6,41.8
		c1.8,3.1,2.8,3.7,4.9,0.4c1.4-2.2,2.7-4.5,5-6.1c0.6,1.9,1.6,3.7,1.8,5.6c1,7.7,4.7,13.7,10.7,18.5c2.3,1.9,4.8,3.5,6.5,6.1
		c0,1.9,0,3.8-0.1,5.7c-0.3,1.1-0.7,2.1-1.1,3.2c-1.1-0.9-2.3-1.8-3.8-3c-1.1,3.7-2.5,7-3.1,10.5c-0.9,4.7-3,7.8-8,8.6
		c-1.4,0.2-2.7,1.2-4,1.8c-1.6,0.3-3.2,0.6-4.9,0.9c-8.2,1.4-15.9,4.9-24.2,5.2c9.7-4.6,16.6-11.6,19.7-22.1c0.5-0.5,0.6-1,0-1.5
		c-0.2,0.4-0.4,0.7-0.6,1.1c-7.8,10.3-20.7,10.5-35.2,3.9c11.1-2.2,15.6-10.6,19.8-19.2c4-8.3,6.4-17.1,8.3-26.1
		c1.1-5.4-1-10.6-0.9-15.9C67.9,84.1,67.9,82.2,67.9,80.3z"/>
	<path class="st3" d="M173.1,85.9c3.4,0.4,4.4,4.2,7.3,5.2c-0.4,8.8-2.8,17.3-4,25.9c-2.7,20.1,2.4,39.6,31.8,42.8
		c1,0.1,2,0.2,3.8,0.3c-5.6,3.4-11.1,4.9-16.7,6.2c-9.9-1.3-19.5-4.4-29.4-6.3c-1.1-0.9-2.4-1.3-3.9-1c-1.8-2.2-5.1-1.9-6.9-4
		c-1.7-5.5-3.3-11-4.9-16.5c-2.1-0.5-2.6,1.6-4,1.8c-0.4-1.1-0.8-2.3-1.2-3.4c0-1.9,0-3.8,0-5.7c6.1-7.9,15.7-13.6,16.1-25.1
		c5.5-0.5,9.6-4.6,10-10c2,0.7,3.8,1.8,6.5,1.8c-1.3-3.8-3.7-6.6-5.4-9.8C172.9,87.5,173,86.7,173.1,85.9z"/>
	<path class="st4" d="M165.9,160.1c9.8,1.9,19.4,5,29.4,6.3c-0.1,7.1-0.1,14.3-0.2,21.4c0,1.8,0.3,3.7-1.4,5
		c-5.2,4-9.8,8.9-15.4,12.4c-2.8-2.8-7.8-2.7-9.4-7.1c0-2,0.1-4-0.1-5.9C167.9,181.4,166.9,170.7,165.9,160.1z"/>
	<path class="st4" d="M56.9,166c8.4-0.3,16.1-3.8,24.2-5.2c1.6-0.3,3.2-0.6,4.9-0.9c-2,13.3-4,26.7-5.9,40c-0.6,4.2-5.2,3.6-7.2,6.1
		c-5.2-3.2-9.3-7.9-14.1-11.7c-1.6-1.3-1.8-3-1.7-4.9c0-5.6,0-11.3-0.1-16.9C57,170.3,57,168.1,56.9,166L56.9,166z"/>
	<path class="st5" d="M82.1,197c7.6,12,17.8,21.9,26.6,32.9c3.6,4.5,7.4,9,11.2,13.4c-0.3,0.3-0.5,0.5-0.8,0.8
		c-5.6-4.6-11.3-9.1-16.8-13.8c-10.1-8.7-20.8-16.8-30.3-26.2c2.8-2.8,7.8-2.7,9.4-7.1C81.6,197,81.8,197,82.1,197z"/>
	<path class="st3" d="M57,165.9c0,2.2,0,4.4,0,6.6c-3.5-0.7-7.1-1.3-10.9-3.4C50.1,168,53.5,167,57,165.9z"/>
	<path class="st6" d="M125.1,250.1c0.5-1.6,0.6-3.5,2.9-3.5c0.2-0.3,0.4-0.5,0.8-0.5c0.4,0.1,0.8,0.3,1.2,0.4
		C128.6,248.1,127.1,249.5,125.1,250.1z"/>
	<path class="st4" d="M67.9,80.3c0,1.9,0,3.9,0,5.8c-0.6,0-1.2,0-1.8-0.1C65.8,83.8,66.1,81.8,67.9,80.3z"/>
	<path class="st5" d="M129.9,246.5c-0.4-0.1-0.8-0.3-1.2-0.4c0.5-0.6,1.1-1.1,1.6-1.7c0.3,0.3,0.5,0.5,0.8,0.8
		C130.7,245.6,130.3,246,129.9,246.5z"/>
	<path class="st7" d="M108.9,229.9c-8.8-11-19-21-26.6-32.9c15.4-1,30.8-2,46.1-3c3.3-0.2,6.5-0.5,11.2-0.8
		c-17.8-12.2-34.5-23.7-51.2-35.2c1.8-2.2,5.1-1.9,6.9-4c23.2,16,46.5,32,69.7,48c-0.2,0.6-0.4,1.2-0.6,1.8c-21.7,0-43.3,0-66,0
		c7.9,13.1,15.1,25,22.2,37c0.9,1.4,2.7,2.7,1.8,4.8c-0.2-0.3-0.4-0.5-0.8-0.5c-0.5-0.6-1.1-1.2-1.6-1.7
		C116.4,238.9,112.6,234.5,108.9,229.9z"/>
	<path class="st8" d="M145,136.9c0.4,1.1,0.8,2.3,1.2,3.4c-2.9,2.7-5.7,5.5-8.6,8.1c-8.9,8-8.9,8-13.3,18.7
		c-0.3-2.1-0.6-3.7-0.8-5.3c1.3-3.9,0.3-7.9,0.6-11.9c5.7-0.1,10.5-2.1,14.3-6.6C140.3,141.1,142.7,139.1,145,136.9z"/>
	<path class="st9" d="M124,150c-0.3,4,0.7,8-0.6,11.9c-0.2-3.2-1.9-5.4-4.3-7.4c-4.8-4.1-9.4-8.3-14.1-12.5c0.3-1.1,0.7-2.1,1.1-3.2
		C111.9,142.7,116.2,149.1,124,150z"/>
	<path class="st9" d="M161,106c-0.4,11.6-9.9,17.3-16.1,25.1c-2.9,1.8-4.7,4.6-6.9,7c-6.5,7.3-16.6,7.8-23.9,1.5
		c-2.6-2.3-5.3-4.4-8-6.6c-1.6-2.6-4.1-4.2-6.5-6.1c-6-4.7-9.7-10.8-10.7-18.5c-0.3-1.9-1.2-3.7-1.8-5.6c0.5-0.6,0.9-1.2,1.4-1.9
		c8,8.7,12.4,9.4,22.4,3.5c1.4-0.8,2.8-1.7,4.2-2.5c1.6,1.5,1.1,3.5,0.9,5.2c-0.6,5.5,4,7.2,7.3,9.1c2.7,1.5,4.1-2.3,5.7-4.2
		c0.1-0.1,0.2-0.1,0.3-0.2c0.1,0,0.1-0.2,0.1-0.3c-0.1,0.1-0.3,0.3-0.4,0.4c-1.6-0.7-4.8,1.6-4.5-0.3c0.8-4.3-0.9-8.8,1.5-12.8
		c2.6,2,5.1,4.2,7.9,6c8.2,5.4,13,5.3,20.9-0.4c2.4-1.7,4.7-3.6,7.1-5.4C161.6,101.4,161.3,103.7,161,106z M113.2,123.5
		c8,10.3,14.3,10.7,22.7-0.1C128.2,122,120.9,122.1,113.2,123.5z"/>
	<path class="st10" d="M162,99.1c-2.4,1.8-4.7,3.7-7.1,5.4c-7.9,5.7-12.8,5.8-20.9,0.4c-2.8-1.8-5.3-4-7.9-6c-1.7-3.9-4-4.1-6.8-1
		c-1.3,1.4-2.8,2.7-4.2,4.1c-1.4,0.8-2.8,1.7-4.2,2.5c-10,5.9-14.4,5.2-22.4-3.5c2.3-3,4.5-5.9,6.8-8.9c2.9,2.3,6.2,3.2,9.8,2.7
		c2.4-0.4,6.2-0.5,6.5-2.6c0.4-2.7-3.1-3.7-5.6-4.5c-0.5-0.3-1-0.5-1.6-0.8c1.9-3.7,3.7-7.4,5.6-11.1c14.1,7.5,16.5,7.2,27.7-2.8
		c0.1-0.1,0.3-0.2,0.4-0.3c4.9,4.6,9.8,9.2,14.8,13.9c-1.9,0-3.9-0.1-5.8-0.1c-2.1-0.5-4.2-0.1-6.2,0.8c-2.9,0.5-5.2,1.9-6.8,4.5
		c4.4,2.3,6.3,2.7,10,2.4c5-0.4,7.7-2.9,8.5-7.7c3.5,2.2,7,4.4,10.5,6.7C162.8,95,162.4,97,162,99.1z"/>
	<path class="st9" d="M138.1,72.6c-0.1,0.1-0.3,0.2-0.4,0.3c-11.2,10-13.6,10.3-27.7,2.8c4.2-9.1,8.4-18.3,13.2-28.4
		C127.6,57.1,133.3,64.6,138.1,72.6z"/>
	<path class="st11" d="M147.1,86.3c1.9,0,3.9,0.1,5.8,0.1c0,0-0.2-0.1-0.2-0.1c-0.8,4.9-3.6,7.4-8.5,7.7c-3.7,0.3-5.6-0.2-10-2.4
		c1.6-2.5,3.9-4,6.8-4.5c0.1,2.2,0.9,3.9,3.4,3.8C147.3,90.8,147.1,88.5,147.1,86.3z"/>
	<path class="st12" d="M162,99.1c0.4-2,0.8-4.1,1.2-6.1c2.6,1,5.2,2,7.8,3c-0.4,5.4-4.5,9.5-10,10C161.3,103.7,161.6,101.4,162,99.1
		z"/>
	<path class="st11" d="M106,87.6c2.5,0.8,6,1.8,5.6,4.5c-0.3,2.1-4.1,2.2-6.5,2.6c-3.6,0.6-6.9-0.4-9.8-2.7c1.2-2.3,2.7-4.4,4.6-6.2
		c0.2,0.1,0.3,0.2,0.4,0.4c-0.5,1.6-1,3.3,0.6,4.7c0.4,0.2,0.9,0.5,1.3,0.7C104.8,91.8,105.7,90,106,87.6z"/>
	<path class="st13" d="M106,87.6c-0.3,2.3-1.2,4.1-3.9,4c0-0.6,0-1.1,0-1.7l0,0.1c0.6,0,0.9-0.3,0.9-0.9c0.1-0.3,0.3-0.7,0.4-1
		c0.4-0.4,0.8-0.8,1.2-1.2C104.9,87.1,105.5,87.4,106,87.6z"/>
	<path class="st10" d="M99.8,85.9c1.1-1.6,2.2-3.1,3.3-4.7c0.3,0.1,0.6,0.2,0.9,0.3c-0.6,1.6-1.2,3.2-1.8,4.8c-0.7,0-1.3,0-2-0.1
		C100.1,86.2,100,86,99.8,85.9z"/>
	<path class="st12" d="M173.1,85.9c-0.1,0.8-0.2,1.6-1,2c-0.7-1.7-2-3.1-2-5l0,0C171.9,83,172.8,84.2,173.1,85.9z"/>
	<path class="st13" d="M100.2,86.3c0.7,0,1.3,0,2,0.1c0,0.5,0,1.1,0,1.6c-0.1,0.4-0.2,0.8-0.2,1.1c-0.1,0.1-0.2,0.2-0.1,0.3
		c0,0.2,0.1,0.4,0.2,0.6l0-0.1c-0.9-0.2-1,0.5-1.3,1C99.2,89.6,99.7,88,100.2,86.3z"/>
	<path class="st8" d="M164.7,71c-0.1,0.1-0.2,0.2-0.3,0.3c-0.1-0.1-0.2-0.3-0.2-0.4c0-0.1,0.2-0.2,0.3-0.3
		C164.6,70.8,164.7,70.9,164.7,71z"/>
	<path class="st3" d="M73.6,60.7c0,0.1,0.1,0.2,0.1,0.3c-0.2,0-0.3,0.1-0.5,0.1c0-0.1,0-0.3,0.1-0.4C73.4,60.7,73.5,60.7,73.6,60.7z
		"/>
	<path class="st7" d="M101.9,89.1c0.1-0.4,0.2-0.8,0.2-1.1c0.3,0,0.7,0.1,1,0.1c-0.1,0.3-0.3,0.7-0.4,1
		C102.5,89.1,102.2,89.1,101.9,89.1z"/>
	<path class="st12" d="M170,83c-0.1-0.1-0.3-0.3-0.4-0.4c0.1,0,0.2,0,0.3,0.1C169.9,82.8,170,82.9,170,83L170,83z"/>
	<path class="st6" d="M106.1,133c2.7,2.2,5.4,4.4,8,6.6c7.4,6.4,17.5,5.8,23.9-1.5c2.2-2.5,4-5.2,6.9-7c0,1.9,0,3.8,0,5.7
		c-2.2,2.2-4.7,4.2-6.7,6.5c-3.8,4.5-8.6,6.5-14.3,6.6c-7.8-0.9-12.1-7.3-18-11.3C106,136.8,106.1,134.9,106.1,133z"/>
	<path class="st4" d="M75.9,143.4c0.2-0.4,0.4-0.7,0.6-1.1c0.6,0.5,0.6,1,0,1.5c0,0-0.5,0-0.5,0L75.9,143.4z"/>
	<path class="st14" d="M81.3,197c0-2-0.1-4,0.1-5.9c0.9-10.7,1.9-21.4,2.9-32.1c1.1-1,2.4-1.3,3.9-1c16.7,11.5,33.5,23,51.2,35.2
		c-4.6,0.3-7.9,0.6-11.2,0.8c-15.4,1-30.8,2-46.1,3C81.8,197,81.6,197,81.3,197z"/>
	<path class="st8" d="M115,102c1.4-1.4,2.9-2.6,4.2-4.1c2.8-3.1,5.1-2.9,6.8,1c-2.4,4-0.7,8.5-1.5,12.8c-0.3,1.8,2.9-0.4,4.5,0.3
		l0,0c-1.7,1.9-3.1,5.7-5.7,4.2c-3.3-1.9-7.9-3.6-7.3-9.1C116.1,105.4,116.7,103.4,115,102z"/>
	<path class="st15" d="M113.2,123.5c7.6-1.4,15-1.5,22.7-0.1C127.5,134.2,121.2,133.8,113.2,123.5z"/>
	<path class="st8" d="M129,112c0.1-0.1,0.3-0.3,0.4-0.4c0,0.1,0,0.2-0.1,0.3C129.3,111.9,129.1,112,129,112L129,112z"/>
	<path class="st13" d="M147.1,86.3c0.1,2.1,0.2,4.4-2.8,4.6c-2.5,0.1-3.3-1.6-3.4-3.8C142.9,86.3,144.9,85.9,147.1,86.3z"/>
	<path class="st8" d="M100.8,91c0.3-0.5,0.4-1.2,1.3-1c0,0.6,0,1.1,0,1.7C101.6,91.5,101.2,91.2,100.8,91z"/>
	<path class="st8" d="M101.9,89.1c0.3-0.1,0.6-0.1,0.9,0c0,0.6-0.3,0.9-0.9,0.9c-0.1-0.2-0.2-0.4-0.2-0.6
		C101.8,89.4,101.9,89.2,101.9,89.1z"/>
</g>
</svg>
