<?xml version="1.0" encoding="iso-8859-1"?>
<!-- Generator: Adobe Illustrator 23.0.3, SVG Export Plug-In . SVG Version: 6.00 Build 0)  -->
<svg version="1.1" id="Layer_1" xmlns="http://www.w3.org/2000/svg" xmlns:xlink="http://www.w3.org/1999/xlink" x="0px" y="0px"
	 viewBox="0 0 250 250" style="enable-background:new 0 0 250 250;" xml:space="preserve">
<g>
	<g>
		<path style="fill:none;" d="M123,251c-40.667,0-81.333,0-122,0C1,167.667,1,84.333,1,1c82,0,164,0.027,246-0.096
			c3.424-0.005,4.101,0.672,4.096,4.096c-0.124,80.666-0.124,161.333,0,242c0.005,3.424-0.67,4.111-4.096,4.099
			C206.334,250.946,165.667,251,125,251c0.361-0.342,0.707-0.701,1.085-1.023c16.464-14.004,32.931-28.005,49.396-42.006
			c0.132-0.108,0.263-0.219,0.392-0.332c9.099-7.53,18.174-15.092,27.321-22.564c1.692-1.382,1.677-3.073,1.67-4.922
			c-0.024-6.83-0.249-13.671,0.084-20.485c0.188-3.863-1.379-5.105-4.837-4.962c-0.896-0.817-2.001-0.753-3.096-0.735
			c-4.846-1.79-9.927-2.613-14.96-3.635c-3.554-0.765-7.109-1.53-10.663-2.295c-5.461-1.349-10.923-2.698-16.384-4.048
			c-0.132-10.483-0.264-20.966-0.396-31.449c2.409-3.854,7.067-5.693,8.232-10.868c6.926-30.75,13.278-61.611,18.76-92.651
			c0.021-0.585,0.041-1.17,0.062-1.755c-0.939,0.206-1.098,1.034-1.397,1.751c-5.738,8.076-11.477,16.152-17.215,24.228
			c1.089-6.412-2.373-10.671-6.898-14.355c-10.252-8.347-22.086-11.509-35.144-10.55c-9.213-0.163-17.738,2.218-25.235,7.545
			c-5.43,3.858-10.646,8.118-10.674,15.754c-4.36-7.795-8.719-15.589-13.695-24.485c0.254,4.071,0.403,6.722,0.588,9.369
			c1.76,25.156,2.789,50.353,9.587,74.936c2.292,8.289,3.996,16.271,11.567,21.436c-0.061,10.349-0.123,20.698-0.184,31.046
			c-3.719,1.055-7.439,2.11-11.158,3.165c-4.326,1.057-8.653,2.114-12.979,3.172c-5.778,1.328-11.622,2.404-17.197,4.507
			c-0.865,0.146-1.73,0.292-2.595,0.438c-1.249,0.176-1.619,1.106-1.623,2.141c-0.034,8.648-0.013,17.295-0.042,25.943
			c-0.006,1.679,0.881,2.77,2.065,3.776c8.354,7.096,16.694,14.207,25.037,21.307c0.305,0.213,0.497,0.347,0.574,0.396
			c0.918,0.934,1.779,1.933,2.762,2.792C92.863,224.733,107.933,237.865,123,251z"/>
		<path style="fill:#FCDB0E;" d="M175.482,207.972c-16.466,14.001-32.933,28.002-49.397,42.006
			c-0.378,0.322-0.724,0.681-1.085,1.023c-0.333,0-0.667,0-1,0c0.002-28.002,0.004-56.004,0.005-84.005c0,0-0.012,0.012-0.012,0.012
			c6.296,0.555,12.166-1.261,17.872-3.52c9.34-3.698,13.044-9.377,13.142-19.491c5.461,1.349,10.923,2.698,16.384,4.048
			c0.178,4.32,0.357,8.64,0.535,12.959c-11.891,2.99-23.775,6.008-35.676,8.958c-7.328,1.816-8.784,3.637-9.142,12.061
			c15.066-5.36,30.049-10.69,45.031-16.019c0.266,1.783,0.652,3.557,0.78,5.35c0.8,11.214,1.543,22.433,2.305,33.65
			C175.31,205.992,175.396,206.982,175.482,207.972z"/>
		<path style="fill:#EAC71B;" d="M124.006,166.994c-0.002,28.002-0.004,56.004-0.006,84.006c-0.333,0-0.667,0-1,0
			c-15.067-13.135-30.137-26.267-45.191-39.416c-0.983-0.859-1.844-1.858-2.754-2.786c0.256-2.26,0.504-4.527,0.752-6.793
			c1.364-11.331,2.727-22.662,4.091-33.994c3.553,0.157,6.687,1.746,9.94,2.922c9.332,3.376,18.654,6.779,27.998,10.122
			c1.233,0.441,3.067,1.672,2.94-1.247c-0.237-5.42-2.797-8.417-8.256-9.743c-0.962-0.234-1.915-0.515-2.886-0.696
			c-9.88-1.839-19.271-5.942-29.457-6.361c0.544-5.299,1.087-10.597,1.631-15.896c3.719-1.055,7.439-2.11,11.159-3.165
			c-0.848,6.842,1.271,12.483,7.044,16.409C107.228,165.266,115.412,166.928,124.006,166.994z"/>
		<path style="fill:#182840;" d="M163.054,33.251c5.738-8.076,11.477-16.152,17.215-24.228c0.445,0.001,0.89,0.002,1.335,0.004
			c-5.482,31.04-11.834,61.9-18.76,92.651c-1.166,5.175-5.823,7.014-8.233,10.869c-2.766,1.846-4.508,4.92-7.619,6.351
			c-1.658-9.71,1.843-18.561,6.054-28.125c-8.801,2.708-16.306,3.121-23.879,2.846c-1.318-7.217-2.636-14.434-3.953-21.651
			c-0.108-1.654,0.168-3.455-0.397-4.935c-1.658-4.341,0.299-6.121,4.14-7.607c6.797-2.63,13.418-5.715,20.094-8.654
			c1.649-0.726,3.371-1.32,4.456-3.005C156.64,42.896,159.865,38.085,163.054,33.251z M136.05,73.542
			c-0.737,0.359-1.474,0.719-2.211,1.078c-1.773,0.513-1.981,1.534-0.193,1.995c5.647,1.457,11.395,2.42,17.103,0.309
			c3.705-1.371,5.719-4.128,6.542-8.065c0.619-2.959-0.163-4.14-3.118-3.726c-5.418,0.759-10.682,1.955-14.931,5.762
			C137.58,71.056,136.363,71.754,136.05,73.542z"/>
		<path style="fill:#1D3050;" d="M93.15,112.902c-7.57-5.165-9.275-13.147-11.567-21.436c-6.798-24.583-7.827-49.78-9.587-74.936
			c-0.185-2.648-0.334-5.298-0.588-9.369c4.976,8.896,9.335,16.691,13.694,24.482c2.546,5.498,5.345,10.863,8.629,15.965
			c0.291,2.053,2.124,2.406,3.557,3.117c4.017,1.995,8.079,3.901,12.122,5.844c3.293,1.582,7.653,2.372,9.583,4.968
			c2.03,2.731-0.738,6.887-1.012,10.469c-0.025,0.329,0.018,0.664,0.03,0.996c-2.406,6.52-1.978,13.724-4.853,20.131
			c-3.712-0.021-7.424-0.042-11.137-0.063c-2.289-0.652-4.577-1.304-6.866-1.955c-0.467,0.252-0.935,0.504-1.402,0.757
			c6.429,8.128,8.741,17.149,7.221,27.003C98.366,116.883,95.758,114.892,93.15,112.902z M106.048,70.018
			c-0.053-0.655-0.453-0.892-1.06-0.879c-2.558-1.606-5.323-2.727-8.286-3.253c-2.367-0.421-5.712-2.121-6.911,0.193
			c-1.469,2.835,0.423,6.057,2.659,8.47c1.267,1.368,2.935,2.131,4.705,2.68c5.307,1.646,10.522,0.559,15.724-0.557
			c0.523-0.112,1.39-0.857,1.324-1.089c-0.291-1.028-1.136-1.539-2.256-1.47c-0.313-0.11-0.607-0.258-0.882-0.444
			c-0.39-1.781-2.001-2.094-3.319-2.758c-0.209-1.036-1.036-0.916-1.78-0.952L106.048,70.018z"/>
		<path style="fill:#E9BA1F;" d="M163.054,33.251c-3.189,4.834-6.415,9.645-9.548,14.515c-1.084,1.686-2.807,2.279-4.456,3.005
			c-6.675,2.939-13.297,6.024-20.094,8.654c-3.841,1.486-5.798,3.266-4.14,7.607c0.565,1.48,0.289,3.281,0.397,4.935
			c-1.61-0.705-1.926-3.227-4.205-2.991c-0.006-9.659-0.012-19.318-0.019-28.978c0.007-10.551,0.014-21.102,0.021-31.653
			c13.058-0.959,24.892,2.203,35.144,10.55C160.681,22.58,164.143,26.839,163.054,33.251z"/>
		<path style="fill:#FCDB0E;" d="M93.15,112.902c2.608,1.991,5.217,3.981,7.824,5.972c0.629,0.43,1.259,0.86,1.889,1.29
			c6.143,5.995,10.752,14.324,21.123,13.891c0.002,10.984,0.005,21.968,0.007,32.952c0,0,0.012-0.012,0.012-0.012
			c-8.593-0.067-16.778-1.729-23.996-6.638c-5.772-3.926-7.892-9.567-7.044-16.409C93.027,133.599,93.088,123.251,93.15,112.902z"/>
		<path style="fill:#E9BA1F;" d="M123.993,167.007c-0.002-10.984-0.005-21.968-0.007-32.953c6.592,0.566,11.8-1.725,15.798-7.121
			c2.133-2.878,4.788-5.369,7.208-8.035c3.111-1.431,4.853-4.505,7.619-6.351c0.132,10.482,0.264,20.965,0.396,31.448
			c-0.098,10.114-3.802,15.794-13.142,19.491C136.16,165.745,130.29,167.562,123.993,167.007z"/>
		<path style="fill:#FBDB10;" d="M200.111,154.707c3.458-0.143,5.025,1.099,4.836,4.962c-0.332,6.814-0.107,13.655-0.084,20.485
			c0.006,1.848,0.021,3.54-1.67,4.922c-9.147,7.472-18.221,15.033-27.319,22.561c-0.032-0.881-0.066-1.759-0.101-2.637
			c1.777-14.335,3.554-28.669,5.331-43.004C187.666,160.153,194.324,158.565,200.111,154.707z"/>
		<path style="fill:#F9DA1B;" d="M121.012,8.346c-0.007,10.551-0.014,21.102-0.021,31.653c-6.748-2.187-13.819-0.392-20.718-1.826
			c-5.879-1.222-6.13-0.47-6.287,5.957c-0.028,1.161-0.167,2.319-0.255,3.478c-3.284-5.103-6.083-10.468-8.629-15.966
			c0.028-7.633,5.245-11.893,10.675-15.751C103.274,10.564,111.799,8.183,121.012,8.346z"/>
		<path style="fill:#EAC81F;" d="M74.475,208.402c-8.345-7.106-16.686-14.217-25.039-21.313c-1.184-1.006-2.071-2.097-2.065-3.776
			c0.03-8.648,0.008-17.295,0.042-25.943c0.004-1.035,0.374-1.965,1.623-2.141c6.448,3.935,13.578,6.036,20.847,7.769
			c1.437,13.001,2.874,26.001,4.311,39.002C74.287,204.134,74.381,206.268,74.475,208.402z"/>
		<path style="fill:#23354D;" d="M74.193,202c-1.437-13.001-2.874-26.001-4.311-39.002c-0.117-1.357-0.233-2.713-0.35-4.07
			c-0.235-2.881-0.47-5.762-0.705-8.643c4.326-1.057,8.653-2.114,12.979-3.172c-0.544,5.299-1.087,10.597-1.631,15.896
			c-0.093,1.667-0.185,3.335-0.278,5.002c-1.364,11.331-2.727,22.662-4.091,33.993C75.269,202.003,74.731,202.001,74.193,202z"/>
		<path style="fill:#23354D;" d="M181.105,161.996c-1.777,14.335-3.554,28.669-5.331,43.004c-0.183-0.016-0.366-0.015-0.55,0.003
			c-0.762-11.217-1.504-22.436-2.305-33.65c-0.128-1.793-0.514-3.567-0.78-5.35c-0.071-1.667-0.142-3.333-0.213-5
			c-0.178-4.32-0.357-8.64-0.535-12.959c3.555,0.765,7.109,1.53,10.663,2.295c-0.212,2.559-0.425,5.118-0.637,7.677
			C181.314,159.342,181.21,160.669,181.105,161.996z"/>
		<path style="fill:#EAC81F;" d="M68.828,150.284c0.235,2.881,0.47,5.762,0.703,8.643c-6.154-0.573-11.952-2.683-17.901-4.137
			C57.206,152.688,63.05,151.613,68.828,150.284z"/>
		<path style="fill:#F9DA1B;" d="M181.418,158.015c0.212-2.559,0.424-5.118,0.637-7.677c5.033,1.021,10.114,1.845,14.96,3.635
			C192.142,156.575,186.819,157.445,181.418,158.015z"/>
		<path style="fill:#F7DA09;" d="M51.631,154.791c5.949,1.454,11.746,3.564,17.901,4.137c0.119,1.357,0.235,2.713,0.352,4.07
			c-7.268-1.733-14.399-3.834-20.846-7.769C49.901,155.083,50.766,154.937,51.631,154.791z"/>
		<path style="fill:#FBE719;" d="M181.418,158.015c5.401-0.57,10.723-1.44,15.597-4.042c1.094-0.018,2.199-0.081,3.096,0.735
			c-5.787,3.858-12.445,5.445-19.006,7.288C181.21,160.669,181.314,159.342,181.418,158.015z"/>
		<path style="fill:#3C3535;" d="M74.193,202c0.538,0.001,1.076,0.003,1.614,0.004c-0.248,2.267-0.496,4.533-0.752,6.793
			c-0.085-0.055-0.277-0.189-0.582-0.402C74.381,206.268,74.287,204.134,74.193,202z"/>
		<path style="fill:#23354D;" d="M181.604,9.027c-0.445-0.001-0.89-0.002-1.335-0.004c0.299-0.717,0.457-1.545,1.397-1.751
			C181.646,7.857,181.625,8.442,181.604,9.027z"/>
		<path style="fill:#3C3535;" d="M175.225,205.002c0.183-0.018,0.366-0.019,0.55-0.003c0.034,0.878,0.069,1.756,0.101,2.637
			c-0.132,0.116-0.263,0.226-0.395,0.335C175.396,206.982,175.31,205.992,175.225,205.002z"/>
		<path style="fill:#FBE719;" d="M171.927,161.002c0.071,1.667,0.142,3.333,0.213,5c-14.982,5.33-29.965,10.66-45.031,16.019
			c0.358-8.424,1.814-10.245,9.142-12.061C148.152,167.011,160.036,163.992,171.927,161.002z"/>
		<path style="fill:#F7DA09;" d="M79.898,168.011c0.093-1.667,0.185-3.334,0.278-5.002c10.186,0.419,19.577,4.521,29.457,6.36
			c0.972,0.181,1.925,0.463,2.886,0.696c5.458,1.326,8.019,4.323,8.256,9.743c0.128,2.919-1.707,1.688-2.94,1.247
			c-9.344-3.343-18.666-6.746-27.998-10.122C86.585,169.757,83.451,168.168,79.898,168.011z"/>
		<path style="fill:#F4BD98;" d="M146.993,118.898c-2.42,2.666-5.075,5.157-7.208,8.035c-3.998,5.396-9.207,7.688-15.798,7.121
			c-10.371,0.434-14.98-7.895-21.122-13.891c0.222-9.047-1.596-18.03-0.843-27.093c3.712,0.021,7.424,0.042,11.135,0.063
			c1.349,3.66,3.86,5.75,7.867,5.815c4.342,0.71,6.969-1.2,8.144-5.329c7.574,0.275,15.078-0.138,23.879-2.846
			C148.835,100.337,145.335,109.188,146.993,118.898z M113.123,105.374c7.177,2.171,14.416,2.433,21.616,0.032
			C127.557,105.169,120.382,106.05,113.123,105.374z"/>
		<path style="fill:#F9DA1B;" d="M129.167,93.619c-1.175,4.129-3.802,6.039-8.144,5.329c-0.005-9.331-0.01-18.663-0.014-27.995
			c0-0.659,0-1.318,0-1.977c2.279-0.236,2.595,2.286,4.205,2.991C126.532,79.185,127.85,86.402,129.167,93.619z"/>
		<path style="fill:#DB9D7B;" d="M139.242,70.895c4.249-3.807,9.513-5.003,14.931-5.762c2.954-0.414,3.736,0.767,3.118,3.726
			c-0.823,3.937-2.837,6.694-6.542,8.065c-5.708,2.112-11.456,1.149-17.103-0.309c-1.788-0.461-1.58-1.483,0.192-1.992
			c3.292,1.207,6.596,2.204,10.027,0.473c0.579-0.049,1.157-0.097,1.736-0.146c2.191,0.197,4.209-0.525,6.121-1.404
			c1.556-0.716,1.796-1.818,0.104-2.825c0.614-0.713,2.296-0.523,2.108-1.685c-0.284-1.765-1.78-0.899-2.761-0.702
			C147.186,69.135,143.218,70.033,139.242,70.895z"/>
		<path style="fill:#3C3535;" d="M139.242,70.895c3.976-0.862,7.944-1.76,11.932-2.561c0.98-0.197,2.476-1.063,2.761,0.702
			c0.187,1.162-1.494,0.973-2.108,1.685c-3.159-0.185-5.311,1.111-6.226,4.229c-0.579,0.049-1.157,0.097-1.736,0.146
			c-2.113-2.993-5.03-1.94-7.815-1.554C136.363,71.754,137.58,71.056,139.242,70.895z"/>
		<path style="fill:#FEFEFE;" d="M136.05,73.542c2.785-0.385,5.703-1.438,7.815,1.554c-3.432,1.731-6.735,0.735-10.028-0.473
			C134.576,74.261,135.313,73.901,136.05,73.542z"/>
		<path style="fill:#F8D81F;" d="M121.009,68.976c0,0.659,0,1.318,0,1.978c-0.999,0.683-1.998,1.366-2.998,2.048
			c-0.012-0.332-0.055-0.667-0.03-0.996c0.274-3.582,3.042-7.738,1.012-10.469c-1.93-2.596-6.29-3.386-9.583-4.968
			c-4.043-1.943-8.105-3.849-12.122-5.844c-1.433-0.711-3.265-1.064-3.557-3.117c0.088-1.159,0.227-2.317,0.255-3.478
			c0.157-6.427,0.408-7.179,6.287-5.957c6.898,1.434,13.97-0.361,20.718,1.826C120.996,49.658,121.003,59.317,121.009,68.976z"/>
		<path style="fill:#E9BA1F;" d="M118.011,73.002c0.999-0.683,1.998-1.365,2.998-2.048c0.005,9.331,0.01,18.663,0.015,27.994
			c-4.007-0.065-6.517-2.156-7.867-5.815C116.033,86.726,115.606,79.522,118.011,73.002z"/>
		<path style="fill:#F4BD98;" d="M111.946,74.113c1.12-0.069,1.965,0.442,2.256,1.47c0.066,0.232-0.801,0.977-1.324,1.089
			c-5.202,1.115-10.418,2.203-15.724,0.557c-1.77-0.549-3.437-1.313-4.705-2.68c-2.236-2.413-4.128-5.634-2.659-8.47
			c1.199-2.314,4.544-0.614,6.911-0.193c2.963,0.527,5.729,1.648,8.286,3.253c-0.006,0.286,0.002,0.572,0.023,0.858
			c-3.045-0.555-6.084-1.149-9.14-1.644c-1.147-0.186-2.851-1.26-3.241,0.634c-0.299,1.453,1.831,0.912,2.529,1.774
			c-0.782,0.552-2.894,0.736-0.945,2.206c2.026,1.528,4.446,2.23,7.053,1.984l0.494-0.04l0.419,0.264
			C105.555,75.919,109,77.306,111.946,74.113z"/>
		<path style="fill:#DB9D7B;" d="M102.021,93.07c-0.753,9.063,1.064,18.046,0.843,27.093c-0.631-0.429-1.26-0.859-1.89-1.289
			c1.521-9.854-0.792-18.875-7.221-27.003c0.467-0.252,0.935-0.504,1.402-0.757C97.444,91.766,99.733,92.418,102.021,93.07z"/>
		<path style="fill:#3C3535;" d="M102.18,75.177l-0.419-0.264c0,0-0.494,0.04-0.494,0.04c-1.037-2.853-2.845-4.582-6.108-4.19
			c-0.698-0.862-2.828-0.321-2.529-1.774c0.39-1.894,2.094-0.82,3.241-0.634c3.055,0.495,6.094,1.089,9.139,1.644
			c0.346,0.007,0.692,0.014,1.038,0.021l-0.083-0.059c0.143,1.159,1.118,0.764,1.78,0.952c1.318,0.665,2.929,0.977,3.319,2.758
			C107.832,72.582,104.856,72.995,102.18,75.177z"/>
		<path style="fill:#FEFEFE;" d="M102.18,75.177c2.676-2.182,5.653-2.594,8.884-1.508c0.275,0.187,0.569,0.335,0.883,0.444
			C109,77.306,105.555,75.919,102.18,75.177z"/>
		<path style="fill:#DB9D7B;" d="M107.745,70.911c-0.662-0.188-1.637,0.207-1.78-0.952
			C106.709,69.995,107.536,69.875,107.745,70.911z"/>
		<path style="fill:#DB9D7B;" d="M106.048,70.018c-0.346-0.007-0.692-0.014-1.038-0.021c-0.021-0.286-0.029-0.572-0.023-0.858
			C105.595,69.126,105.995,69.363,106.048,70.018z"/>
		<path style="fill:#DB9D7B;" d="M113.123,105.374c7.259,0.676,14.434-0.205,21.616,0.032
			C127.538,107.807,120.299,107.545,113.123,105.374z"/>
		<path style="fill:#FEFEFE;" d="M145.601,74.951c0.915-3.118,3.067-4.414,6.226-4.229c1.691,1.006,1.452,2.109-0.104,2.825
			C149.809,74.426,147.792,75.148,145.601,74.951z"/>
		<path style="fill:#FEFEFE;" d="M95.159,70.762c3.263-0.392,5.071,1.337,6.108,4.19c-2.606,0.246-5.026-0.456-7.053-1.984
			C92.265,71.498,94.376,71.313,95.159,70.762z"/>
	</g>
</g>
</svg>
