<?xml version="1.0" encoding="iso-8859-1"?>
<!-- Generator: Adobe Illustrator 23.0.3, SVG Export Plug-In . SVG Version: 6.00 Build 0)  -->
<svg version="1.1" id="Layer_1" xmlns="http://www.w3.org/2000/svg" xmlns:xlink="http://www.w3.org/1999/xlink" x="0px" y="0px"
	 viewBox="0 0 250 250" style="enable-background:new 0 0 250 250;" xml:space="preserve">
<g>
	<g>
		<path style="fill:none;" d="M124,251c-41,0-82,0-123,0C1,167.667,1,84.333,1,1c82,0,164,0.027,246-0.096
			c3.424-0.005,4.101,0.672,4.096,4.096c-0.124,80.666-0.124,161.333,0,242c0.005,3.424-0.67,4.111-4.096,4.099
			C206.334,250.946,165.667,251,125,251c0.397-1.622,1.94-2.172,3.028-3.09c24.164-20.405,48.298-40.847,72.62-61.063
			c4.062-3.376,6.597-6.763,5.17-12.166c0.008-4.91,0.016-9.819,0.024-14.729c-0.006-1.386-0.011-2.772-0.017-4.158
			c0.603-1.904-0.828-2.26-2.081-2.528c-2.696-0.576-5.423-1.007-8.137-1.498c-11.9-2.893-23.748-6.038-35.73-8.538
			c-4.075-0.85-4.869-2.529-4.795-6.265c0.19-9.629-0.045-19.267-0.109-28.901c3.999-2.234,5.795-6.064,5.902-10.225
			c0.443-17.248,3.069-34.399,2.27-51.696c6.146-2.477,12.709-3.739,18.737-6.592c7.544-3.57,11.487-9.859,13.753-17.707
			c-6.736,13.416-18.8,18.083-32.373,20.323c0.07-4.157-0.164-8.348,0.287-12.463c0.572-5.22-1.653-8.941-5.248-12.252
			c-9.986-9.196-21.93-12.727-35.267-12.282c-11.707-0.237-22.312,2.841-31.218,10.686c-4.501,3.964-7.855,8.463-6.457,15.134
			c0.569,2.717,0.292,5.612,0.399,8.425c-12.033-1.996-21.806-7.419-27.915-18.402c-0.328-0.777-0.647-2.102-1.495-1.751
			c-0.789,0.327-0.109,1.277,0.58,1.73c2.302,7.852,7.014,13.718,14.595,16.922c4.678,1.977,9.556,3.483,14.344,5.201
			c0.699,18.247,1.417,36.492,2.081,54.74c0.152,4.163,1.159,7.848,4.824,10.333c-0.014,0.352,0.104,0.652,0.356,0.898
			c0.014,1.281,0.029,2.563,0.043,3.845c-0.141,9.859-0.281,19.718-0.422,29.576c-11.492,2.886-22.985,5.772-34.477,8.658
			c-2.911,0.651-5.823,1.298-8.734,1.954c-1.531,0.345-3.041,0.719-2.375,2.881c0.002,3.09,0.003,6.181,0.005,9.271
			c-0.002,4.269-0.005,8.537-0.007,12.806c-0.925,4.003,0.615,6.742,3.766,9.364c10.093,8.399,19.901,17.138,29.872,25.684
			c14.369,12.316,28.785,24.578,43.181,36.863C123.987,250.325,123.994,250.663,124,251z M196.857,20.536
			c-0.085-0.269-0.17-0.537-0.255-0.805c-0.099,0.068-0.266,0.12-0.285,0.206c-0.056,0.249-0.053,0.511-0.073,0.768
			C196.444,20.65,196.643,20.595,196.857,20.536z M55.346,16.629c-0.063,0.325-0.212,0.622-0.146,0.858
			c0.129,0.464,0.399,0.461,0.605,0.019c0.059-0.126,0.109-0.329,0.048-0.421C55.739,16.913,55.541,16.797,55.346,16.629z"/>
		<path style="fill:#A81225;" d="M205.825,155.795c0.006,1.386,0.011,2.772,0.017,4.159c-17.293,15.226-34.584,30.454-51.886,45.669
			c-1.302,1.145-2.243,2.366-2.084,4.251c0.328,3.896-1.149,7.492-1.995,11.192c-0.195,0.368-0.389,0.735-0.584,1.103
			c1.091,0.482,1.248-0.49,1.66-1.065c7.483-6.357,14.955-12.728,22.452-19.068c10.794-9.129,21.607-18.236,32.412-27.353
			c1.427,5.403-1.107,8.789-5.17,12.166c-24.322,20.216-48.456,40.658-72.62,61.063c-1.088,0.919-2.631,1.468-3.028,3.09
			c-0.333,0-0.667,0-1,0c-0.006-0.337-0.013-0.675-0.019-1.012c-0.001-5.647-0.002-11.295-0.004-16.942
			c16.695-2.035,26.209-14.591,21.915-29.356c-3.137-10.788-11.294-15.466-21.901-16.702c-0.012-7.32-0.023-14.64-0.035-21.96
			c0.024-8.638,0.049-17.275,0.071-25.913c0.005-2.012,0.286-4.108-2.814-4.126c-4.112-0.024-7.115-2.31-9.872-5.103
			c-5.824-5.899-11.59-11.865-18.171-16.954c-0.014-1.281-0.029-2.563-0.043-3.845c0.249-0.006,0.497,0.004,0.744,0.029
			c6.134,7.265,13.103,13.726,20.178,20.01c5.206,4.624,17.782,4.468,22.474-0.256c6.538-6.582,13.054-13.252,18.498-20.836
			l-0.05,0.031c0.065,9.634,0.3,19.272,0.11,28.901c-0.074,3.736,0.72,5.415,4.795,6.265c11.982,2.5,23.829,5.646,35.725,8.538
			c-4.059,4.679-9.102,8.258-13.743,12.28c-10.429,9.039-20.961,17.959-31.398,26.989c-1.407,1.218-3.576,2.274-2.421,4.851
			c1.005,2.241,2.034,4.471,3.213,7.058c6.29-5.473,12.276-10.717,18.301-15.917C181.634,176.606,193.734,166.205,205.825,155.795z"
			/>
		<path style="fill:#EA3829;" d="M123.977,233.046c0.001,5.647,0.003,11.295,0.004,16.942
			c-14.396-12.285-28.812-24.547-43.182-36.863c-9.971-8.546-19.78-17.285-29.872-25.684c-3.151-2.622-4.69-5.361-3.766-9.364
			c16.36,12.942,32.719,25.885,49.495,39.156c0-3.641-0.22-6.58,0.07-9.466c0.231-2.292-0.544-3.633-2.292-5.009
			c-15.795-12.445-31.52-24.978-47.266-37.485c-0.002-3.09-0.003-6.181-0.005-9.271c2.424,2.008,4.886,3.971,7.265,6.03
			c13.447,11.637,26.863,23.309,40.331,34.921c1.038,0.895,2.354,2.977,3.597,1.791c1.861-1.775,3.343-4.205,4.254-6.632
			c0.656-1.748-1.654-2.621-2.806-3.661c-13.813-12.463-27.68-24.866-41.533-37.284c11.492-2.886,22.985-5.772,34.477-8.657
			c0.273,4.967,0.533,9.627,4.664,13.614c7.573,7.309,16.672,9.004,26.544,8.905c0.012,7.32,0.023,14.64,0.035,21.96
			c-1.128,0.252-2.246,0.566-3.385,0.746c-11.034,1.75-18.741,10.492-18.988,21.568
			C101.325,222.518,108.786,230.442,123.977,233.046z"/>
		<path style="fill:#D52229;" d="M123.034,5.171c13.336-0.445,25.28,3.085,35.267,12.282c3.596,3.311,5.82,7.033,5.248,12.252
			c-0.451,4.116-0.217,8.306-0.288,12.462c-9.887,0.94-16.001,7.884-23.641,14.054c5.996,1.482,9.221-1.879,12.72-4.168
			c3.46-2.264,6.466-5.276,10.806-5.909c0.799,17.297-1.827,34.448-2.27,51.696c-0.107,4.161-1.903,7.99-5.902,10.225
			c-0.001,0,0.05-0.031,0.05-0.031c0.754-6.409,2.012-12.813,0.202-19.248c-0.328-1.166-0.056-2.933-2.276-2.184
			c-7.201,2.429-14.375,1.477-21.507-0.486c-1.113,9.421-2.463,10.972-8.453,9.947c0.008-9.354,0.017-18.708,0.025-28.062
			c1.597-1.486,0.97-3.436,0.946-5.178C123.692,43.604,123.353,24.388,123.034,5.171z M136.067,67.124
			c-1.508-0.103-2.633,0.445-3.229,1.896c-1.949-0.169-4.506-1.047-2.875,2.683c2.498,5.712,9.984,8.943,16.458,7.047
			c5.999-1.757,10.249-8.126,9.624-14.095c-0.24-2.295-1.024-2.751-3.197-2.11C147.288,64.185,141.665,65.612,136.067,67.124z"/>
		<path style="fill:#EC3B29;" d="M123.034,5.171c0.32,19.217,0.658,38.434,0.926,57.651c0.024,1.743,0.651,3.692-0.946,5.178
			c-3.962,5.422-4.147,11.899-5.075,18.169c-7.328,1.416-14.639,2.903-22.108,0.741c-2.358-0.682-2.498,1.119-2.991,2.84
			c-1.757,6.134,0.184,12.189,0.126,18.277l-0.195,0.163c-3.665-2.485-4.672-6.17-4.824-10.333
			c-0.664-18.248-1.382-36.494-2.081-54.74c7.367,0.751,12.376,5.989,18.243,9.594c2.37,1.456,4.738,2.91,8.582,0.976
			c-7.724-4.713-12.471-12.778-22.212-12.858c-1.577-0.013-3.148-0.918-4.721-1.411c-0.108-2.814,0.17-5.708-0.399-8.425
			c-1.398-6.672,1.956-11.17,6.457-15.134C100.722,8.011,111.327,4.934,123.034,5.171z M92.806,69.125
			c-0.109,0.385,0.034,0.609,0.43,0.67c-1.316,1.868,0.183,3.058,1.125,4.287c5.383,7.022,16.443,6.654,21.745-0.688
			c2.676-3.705,2.29-4.54-2.456-5.328l-0.244-0.019c-5.839-2.651-12.197-3.556-18.267-5.429c-1.341-0.414-3.049-1.436-3.749,0.598
			c-0.557,1.618-0.966,3.678,1.655,4.305c0,0-0.037-0.064-0.037-0.064C92.528,67.962,92.425,68.514,92.806,69.125z"/>
		<path style="fill:#ED1C25;" d="M123.957,165.028c-9.871,0.099-18.971-1.596-26.544-8.905c-4.131-3.987-4.391-8.647-4.664-13.614
			c0.141-9.859,0.281-19.717,0.422-29.576c6.581,5.088,12.347,11.055,18.171,16.954c2.758,2.793,5.761,5.079,9.872,5.103
			c3.1,0.018,2.819,2.114,2.814,4.126C124.006,147.752,123.981,156.39,123.957,165.028z"/>
		<path style="fill:#0A0707;" d="M205.817,174.682c-10.805,9.116-21.617,18.224-32.412,27.353
			c-7.497,6.341-14.969,12.711-22.451,19.067c-0.358-0.013-0.718-0.025-1.077-0.037c0.846-3.7,2.323-7.296,1.995-11.192
			c-0.159-1.884,0.782-3.106,2.084-4.251c17.302-15.215,34.592-30.443,51.886-45.669
			C205.833,164.862,205.825,169.772,205.817,174.682z"/>
		<path style="fill:#0D0908;" d="M58.272,151.166c13.853,12.419,27.72,24.822,41.533,37.284c1.152,1.04,3.462,1.913,2.806,3.661
			c-0.91,2.427-2.393,4.857-4.254,6.632c-1.243,1.185-2.56-0.897-3.597-1.791c-13.469-11.611-26.884-23.284-40.331-34.921
			c-2.379-2.059-4.841-4.023-7.265-6.03c-0.666-2.162,0.844-2.536,2.375-2.881C52.448,152.464,55.361,151.817,58.272,151.166z"/>
		<path style="fill:#0B0808;" d="M205.825,155.795c-12.091,10.41-24.191,20.81-36.27,31.235
			c-6.025,5.199-12.011,10.443-18.301,15.917c-1.179-2.587-2.208-4.817-3.213-7.058c-1.155-2.577,1.013-3.633,2.421-4.851
			c10.437-9.03,20.969-17.95,31.398-26.989c4.64-4.022,9.684-7.601,13.743-12.28c2.719,0.491,5.446,0.923,8.142,1.499
			C204.997,153.535,206.429,153.891,205.825,155.795z"/>
		<path style="fill:#0D0908;" d="M47.168,165.272c15.746,12.507,31.471,25.04,47.266,37.485c1.747,1.377,2.522,2.717,2.292,5.009
			c-0.291,2.887-0.07,5.825-0.07,9.466c-16.775-13.271-33.135-26.214-49.495-39.156C47.164,173.809,47.166,169.541,47.168,165.272z"
			/>
		<path style="fill:#352A2C;" d="M163.145,46.144c-4.34,0.633-7.345,3.646-10.806,5.909c-3.499,2.289-6.724,5.65-12.72,4.168
			c7.64-6.171,13.754-13.115,23.641-14.054c13.574-2.238,25.638-6.905,32.374-20.321c-2.266,7.848-6.209,14.138-13.753,17.707
			C175.853,42.405,169.291,43.667,163.145,46.144z"/>
		<path style="fill:#352A2C;" d="M85.758,39.416c1.573,0.493,3.144,1.398,4.721,1.411c9.741,0.081,14.488,8.145,22.212,12.858
			c-3.843,1.934-6.212,0.481-8.582-0.976c-5.867-3.605-10.876-8.842-18.243-9.594c-4.788-1.718-9.665-3.224-14.344-5.201
			c-7.581-3.204-12.293-9.07-14.595-16.921c0,0,0.457,0.026,0.457,0.026l0.458-0.005C63.952,31.997,73.726,37.42,85.758,39.416z"/>
		<path style="fill:#4E3525;" d="M57.843,21.014l-0.458,0.005c0,0-0.457-0.026-0.457-0.026c-0.689-0.453-1.368-1.403-0.58-1.73
			C57.196,18.912,57.514,20.238,57.843,21.014z"/>
		<path style="fill:#4E3525;" d="M196.857,20.536c-0.214,0.059-0.414,0.113-0.613,0.168c0.02-0.257,0.017-0.519,0.073-0.768
			c0.019-0.086,0.186-0.138,0.285-0.206C196.687,19.999,196.772,20.267,196.857,20.536z"/>
		<path style="fill:#F0B796;" d="M55.346,16.629c0.196,0.168,0.393,0.285,0.507,0.457c0.061,0.092,0.011,0.295-0.048,0.421
			c-0.206,0.442-0.476,0.445-0.605-0.019C55.133,17.25,55.283,16.954,55.346,16.629z"/>
		<path style="fill:#EC3B29;" d="M93.872,109.115c-0.248-0.024-0.496-0.034-0.744-0.029c-0.252-0.246-0.371-0.545-0.356-0.897
			c0,0,0.195-0.163,0.195-0.163C93.772,107.971,93.852,108.518,93.872,109.115z"/>
		<path style="fill:#F5BD9A;" d="M93.872,109.115c-0.02-0.597-0.1-1.144-0.906-1.089c0.057-6.087-1.884-12.142-0.127-18.276
			c0.493-1.721,0.633-3.522,2.991-2.84c7.469,2.162,14.779,0.675,22.108-0.742c-1.527,5.888-0.613,7.679,5.05,9.894
			c5.99,1.026,7.339-0.526,8.453-9.947c7.132,1.963,14.306,2.915,21.507,0.486c2.22-0.749,1.948,1.018,2.276,2.184
			c1.81,6.435,0.552,12.839-0.202,19.248c-5.444,7.584-11.96,14.253-18.498,20.836c-4.693,4.724-17.268,4.88-22.474,0.256
			C106.975,122.841,100.007,116.38,93.872,109.115z M110.985,102.024c-0.328-0.48-0.564-1.275-1.296-0.38
			c0.446,0.11,0.893,0.22,1.339,0.33c7.204,4.899,15.212,2.524,22.961,2.49C126.195,104.819,118.704,102.367,110.985,102.024z"/>
		<path style="fill:#0A0707;" d="M123.977,233.046c-15.191-2.604-22.653-10.528-22.358-23.744
			c0.247-11.075,7.954-19.817,18.988-21.568c1.139-0.181,2.257-0.494,3.385-0.746c10.606,1.236,18.763,5.914,21.901,16.702
			C150.186,218.455,140.672,231.011,123.977,233.046z"/>
		<path style="fill:#352A2C;" d="M149.877,221.064c0.359,0.012,0.719,0.024,1.077,0.037c-0.413,0.577-0.57,1.548-1.661,1.066
			C149.488,221.8,149.683,221.432,149.877,221.064z"/>
		<path style="fill:#F0B796;" d="M136.067,67.124c5.598-1.512,11.221-2.94,16.781-4.579c2.173-0.64,2.956-0.185,3.197,2.11
			c0.625,5.968-3.624,12.338-9.624,14.095c-6.474,1.896-13.96-1.334-16.458-7.047c-1.631-3.73,0.926-2.853,2.875-2.684
			c0-0.001,0.108-0.023,0.108-0.023c-0.55,1.164,0.037,1.818,1.027,2.291c3.488,3.312,7.283,1.849,11.057,0.712l-0.039,0.026
			c3.308-0.148,7.135,0.665,7.872-4.248c1.499-2.025,1.294-3.062-1.486-2.459c-5.167,1.12-10.325,2.284-15.486,3.43
			C135.948,68.206,136.008,67.665,136.067,67.124z"/>
		<path style="fill:#ED433B;" d="M122.989,96.063c-5.663-2.215-6.577-4.006-5.05-9.894c0.928-6.269,1.113-12.746,5.075-18.168
			C123.006,77.355,122.997,86.709,122.989,96.063z"/>
		<path style="fill:#DE7F61;" d="M136.067,67.124c-0.059,0.541-0.119,1.082-0.177,1.623c-0.981,0.083-1.963,0.166-2.945,0.249
			c0,0-0.108,0.022-0.108,0.023C133.434,67.57,134.559,67.021,136.067,67.124z"/>
		<path style="fill:#F5BD9A;" d="M113.65,68.066c4.747,0.788,5.132,1.623,2.457,5.328c-5.302,7.342-16.363,7.709-21.745,0.688
			c-0.943-1.23-2.441-2.419-1.123-4.287c2.314,2.178,5.406,2.307,8.232,3.132c0.786,0.017,1.572,0.035,2.358,0.052
			c3.256,0.564,6.742,2.347,9.123-1.723C113.722,70.311,114.075,69.274,113.65,68.066z"/>
		<path style="fill:#4E3525;" d="M103.829,72.979c-0.786-0.017-1.572-0.035-2.358-0.052c-0.539-4.494-3.598-5.23-7.352-4.929
			c-0.37-0.181-0.739-0.361-1.109-0.542c0,0,0.037,0.064,0.037,0.064c-0.833-2.331,0.311-2.563,2.2-2.127
			c2.575,0.595,5.14,1.339,7.753,1.634c3.461,0.39,6.717,3.065,10.407,1.018c0,0,0.244,0.019,0.244,0.019
			c0.424,1.208,0.072,2.245-0.7,3.19C109.863,71.584,106.002,67.815,103.829,72.979z"/>
		<path style="fill:#F0B796;" d="M113.407,68.047c-3.691,2.046-6.947-0.628-10.407-1.018c-2.613-0.295-5.179-1.038-7.753-1.634
			c-1.889-0.437-3.033-0.204-2.2,2.127c-2.621-0.627-2.211-2.687-1.655-4.305c0.7-2.034,2.407-1.012,3.749-0.598
			C101.211,64.491,107.569,65.396,113.407,68.047z"/>
		<path style="fill:#F8F2EE;" d="M94.118,67.999c3.755-0.302,6.813,0.435,7.352,4.929c-2.826-0.825-5.917-0.954-8.232-3.133
			c-0.398-0.062-0.542-0.285-0.423-0.666C93.256,68.755,93.687,68.377,94.118,67.999z"/>
		<path style="fill:#F5BD9A;" d="M94.118,67.999c-0.431,0.378-0.862,0.756-1.302,1.13c-0.391-0.615-0.288-1.166,0.193-1.672
			C93.379,67.638,93.749,67.818,94.118,67.999z"/>
		<path style="fill:#DE7F61;" d="M110.985,102.024c7.719,0.343,15.21,2.795,23.004,2.44c-7.749,0.034-15.756,2.409-22.961-2.49
			L110.985,102.024z"/>
		<path style="fill:#DE7F61;" d="M111.028,101.974c-0.446-0.11-0.893-0.22-1.339-0.33c0.731-0.895,0.967-0.1,1.296,0.38
			C110.985,102.024,111.028,101.974,111.028,101.974z"/>
		<path style="fill:#4E3525;" d="M132.946,68.996c0.982-0.083,1.964-0.166,2.945-0.249c5.16-1.145,10.318-2.309,15.485-3.429
			c2.78-0.603,2.985,0.434,1.487,2.459c-3.338,0.092-6.787-0.019-7.873,4.248c0,0,0.039-0.026,0.039-0.025
			c-3.67-0.478-7.208-3.008-11.056-0.712C132.982,70.814,132.396,70.16,132.946,68.996z"/>
		<path style="fill:#F8F2EE;" d="M144.99,72.025c1.086-4.268,4.535-4.156,7.873-4.248C152.125,72.689,148.298,71.877,144.99,72.025z
			"/>
		<path style="fill:#F8F2EE;" d="M133.973,71.288c3.849-2.297,7.386,0.234,11.056,0.712C141.255,73.136,137.46,74.6,133.973,71.288z
			"/>
		<path style="fill:#F8F2EE;" d="M103.829,72.979c2.174-5.164,6.035-1.395,9.122-1.723
			C110.571,75.326,107.084,73.543,103.829,72.979z"/>
	</g>
</g>
</svg>
