<?xml version="1.0" encoding="iso-8859-1"?>
<!-- Generator: Adobe Illustrator 23.0.3, SVG Export Plug-In . SVG Version: 6.00 Build 0)  -->
<svg version="1.1" id="Layer_1" xmlns="http://www.w3.org/2000/svg" xmlns:xlink="http://www.w3.org/1999/xlink" x="0px" y="0px"
	 viewBox="0 0 250 250" style="enable-background:new 0 0 250 250;" xml:space="preserve">
<g>
	<g>
		<path style="fill:none;" d="M122,251c-40.333,0-80.667,0-121,0C1,167.667,1,84.333,1,1c82,0,164,0.027,246-0.096
			c3.424-0.005,4.101,0.672,4.096,4.096c-0.124,80.666-0.124,161.333,0,242c0.005,3.424-0.67,4.111-4.096,4.099
			C206,250.946,165,251,124,251c0.215-0.196,0.258-0.424,0.128-0.685c30.288-23.102,60.571-46.212,90.883-69.282
			c1.329-1.011,1.87-2.105,1.857-3.762c-0.064-7.992-0.1-15.986,0.018-23.977c0.033-2.225-0.6-3.227-2.888-3.682
			c-14.342-2.851-28.655-5.846-42.978-8.794c-1.846-4.888-2.523-10.17-5.002-14.844c-0.042-0.626-0.083-1.251-0.125-1.877
			c4.649-10.917,5.579-22.392,5.111-34.077c7.728-1.35,12.877-8.541,12.863-17.962c-0.014-8.863-4.243-13.473-12.877-14.037
			c-0.044-4.635,0.187-9.293-0.182-13.902c-1.231-15.403-6.454-30.566-28.445-35.201c-1.292-0.272-2.868-0.382-3.757-1.184
			c-4.805-4.334-10.529-5.051-16.603-4.692c-3.223-0.593-6.577-0.244-9.178,1.386c-5.322,3.336-11.367,4.018-17.154,5.627
			c-12.432,3.457-19.514,11.86-22.69,24.007c-2.085,7.978-2.18,16.051-1.142,24.178c-2.967-0.301-5.764,0.413-7.739,2.573
			c-5.029,5.498-5.064,12.029-2.853,18.614c2.01,5.987,5.564,10.558,12.678,10.689c-0.755,12.76,1.303,24.883,8.14,35.923
			c-0.028,0.653-0.057,1.306-0.085,1.959c-1.817,3.871-1.678,8.226-3.022,12.214c-13.433,3.003-26.853,6.07-40.311,8.958
			c-2.926,0.628-3.992,1.846-3.895,4.947c0.242,7.805,0.214,15.626,0.012,23.434c-0.076,2.957,0.848,4.836,3.192,6.662
			c22.283,17.351,44.526,34.756,66.652,52.306C110.514,241.203,117.018,245.199,122,251z"/>
		<path style="fill:#BC212C;" d="M124.128,250.315c0.13,0.261,0.088,0.489-0.128,0.685c-0.667,0-1.333,0-2,0
			c-4.982-5.801-11.486-9.797-17.39-14.481c-22.126-17.55-44.369-34.955-66.652-52.306c-2.345-1.826-3.269-3.705-3.192-6.662
			c0.202-7.807,0.231-15.629-0.012-23.434c-0.096-3.101,0.969-4.319,3.895-4.947c13.458-2.888,26.877-5.955,40.311-8.958
			c-1.471,6.388,1.346,10.971,6.315,14.496c2.695,1.912,5.533,3.656,8.44,5.228c9.057,4.899,18.972,6.728,29.066,7.844
			c2.63,5.47,0.686,11.226,1.055,16.836c-6.436-1.067-8.396-0.046-12.003,6.252c-6.934,1.159-12.228,5.171-16.299,10.486
			c-5.825,7.605-3.706,15.792,4.724,20.316c6.919,3.713,14.262,5.148,22.067,4.017c0.555,0.125,1.11,0.251,1.664,0.376
			C124.034,234.148,124.081,242.231,124.128,250.315z"/>
		<path style="fill:#F7BF9B;" d="M82.066,126.04c-6.836-11.04-8.895-23.163-8.14-35.923c2.252-3.48,0.361-7.633,1.825-11.24
			c0.101-0.411,0.202-0.821,0.303-1.232c7.487,5.855,15.726,6.495,24.467,3.481c4.847-1.671,9.673-3.405,14.509-5.11
			c-0.17,1.303-0.189,2.648-0.533,3.903c-1.869,6.829,1.015,10.86,8.623,11.931c8.332,0.113,11.603-3.721,9.798-11.459
			c-0.337-1.444-0.598-2.905-0.895-4.359c3.698-0.011,7.04,1.585,10.563,2.367c7.788,1.729,15.368,1.916,22.476-2.441
			c0.655-0.369,1.31-0.737,1.965-1.106c3.084,4.594,2.262,10.213,3.978,15.166c0.468,11.685-0.462,23.16-5.111,34.077
			c-0.941,0.323-1.058,1.053-0.936,1.9c0,0,0.059-0.035,0.059-0.035c-0.502,0.353-1.004,0.705-1.506,1.058
			c-1.832,1.927-3.665,3.855-5.497,5.782c-0.444,0.4-0.889,0.801-1.333,1.201c-0.183-0.075-0.371-0.092-0.565-0.05
			c-0.383,0.348-0.767,0.696-1.15,1.043l0.03-0.035c-0.341,0.341-0.681,0.681-1.022,1.022c0,0,0.013-0.017,0.013-0.017
			c-1.182-0.199-2.259-0.066-3.051,0.965c-17.159,5.979-34.427,5.671-51.772,0.896c-1.525-1.178-3.129-2.134-5.178-1.838
			l0.033,0.022c-0.29-1.12-1.171-1.063-2.042-1.025l0.045,0.036c-0.032-0.66-0.438-0.947-1.038-1.04l0.037,0.036
			c-0.347-0.348-0.695-0.696-1.042-1.044l0.053,0.042c-0.458-0.793-1.153-1.114-2.051-1.03l0.039,0.032
			c-0.047-0.641-0.413-0.965-1.033-1.034l0.046,0.047c-0.353-0.354-0.706-0.708-1.059-1.062l0.059,0.062
			c-0.352-0.525-0.704-1.05-1.055-1.575c-0.145-0.145-0.288-0.292-0.429-0.44C83.72,127.357,82.893,126.699,82.066,126.04z
			 M103.594,97.459c13.066,2.046,24.699,2.068,37.803-0.018C128.29,95.476,116.658,95.46,103.594,97.459z"/>
		<path style="fill:#EA2227;" d="M123.834,184.618c-0.368-5.611,1.576-11.368-1.055-16.836c0.085-0.23,0.188-0.453,0.309-0.667
			c14.532,0.074,27.739-4.35,39.873-12.073c5.076-3.231,9.067-7.393,8.06-14.222c14.323,2.948,28.636,5.943,42.978,8.794
			c2.288,0.455,2.92,1.457,2.888,3.682c-0.118,7.991-0.082,15.985-0.018,23.977c0.013,1.656-0.529,2.751-1.857,3.762
			c-30.312,23.071-60.595,46.18-90.883,69.282c-0.047-8.084-0.093-16.167-0.14-24.251c3.684-1.099,7.789-0.638,11.129-3.008
			c8.435-1.743,15.575-5.582,20.402-12.953c4.247-6.485,2.805-13.301-3.512-17.732c-7.367-5.167-15.632-5.978-24.257-5.159
			C126.444,186.347,125.139,185.482,123.834,184.618z"/>
		<path style="fill:#FDBC1F;" d="M167.026,74.854c-0.655,0.369-1.31,0.737-1.965,1.106c-0.397-2.944-0.681-5.909-1.21-8.829
			c-1.609-8.881-1.363-18.169-5.727-26.454c-2.84-10.098-9.744-16.325-19.155-20.21c-2.297-0.948-3.619,0.02-4.153,2.083
			c-1.784,6.892-6.465,8.527-12.819,7.32c0.003-8.942,0.005-17.884,0.008-26.827c6.074-0.359,11.798,0.358,16.603,4.692
			c0.888,0.801,2.465,0.911,3.757,1.184c21.99,4.636,27.214,19.798,28.445,35.201c0.368,4.609,0.138,9.267,0.181,13.902
			c0,0,0.038-0.067,0.038-0.067c-0.698-0.119-0.721,0.39-0.795,0.853C169.764,64.277,168.367,69.56,167.026,74.854z"/>
		<path style="fill:#FDD41C;" d="M122.004,3.043c-0.003,8.942-0.005,17.884-0.008,26.827c-7.167,0.303-8.934-0.532-11.505-7.392
			c-1.22-3.256-2.665-3.422-5.491-2.553c-10.962,3.373-18.72,10.152-22.88,20.917c-5.635,11.672-5.973,24.217-6.067,36.803
			c-0.101,0.411-0.202,0.821-0.301,1.232C74.45,72,73.145,65.121,71.84,58.242c-1.038-8.126-0.943-16.2,1.142-24.178
			c3.175-12.148,10.257-20.55,22.69-24.007c5.787-1.609,11.832-2.291,17.154-5.627C115.427,2.799,118.781,2.45,122.004,3.043z"/>
		<path style="fill:#F69C75;" d="M171.02,140.819c1.007,6.83-2.983,10.991-8.06,14.222c-12.134,7.723-25.341,12.148-39.873,12.073
			c-0.001-6.749-0.001-13.498-0.001-20.247c10.631-0.643,20.94-2.245,29.244-9.818c0.779-0.013,1.38-0.3,1.656-1.083
			c0,0-0.013,0.017-0.013,0.017c0.341-0.341,0.681-0.681,1.022-1.022c0,0-0.03,0.035-0.03,0.035c0.383-0.348,0.767-0.696,1.15-1.043
			c0.193-0.042,0.382-0.025,0.569,0.05c0.446-0.401,0.888-0.801,1.33-1.201c1.832-1.927,3.665-3.855,5.5-5.782
			c0.503-0.353,1.003-0.705,1.503-1.058c0,0-0.059,0.035-0.059,0.035c0.354-0.008,0.707-0.015,1.061-0.023
			C168.497,130.649,169.174,135.931,171.02,140.819z"/>
		<path style="fill:#F6BE9A;" d="M123.086,146.868c0,6.749,0.001,13.497,0.001,20.247c-0.12,0.215-0.223,0.438-0.308,0.668
			c-10.094-1.116-20.008-2.946-29.065-7.845c-2.907-1.572-5.745-3.316-8.44-5.228c-4.969-3.525-7.786-8.108-6.315-14.496
			c1.344-3.988,1.204-8.343,3.022-12.214c0.856,0.005,1.711,0.011,2.567,0.016c0.141,0.148,0.284,0.295,0.429,0.441
			c-0.072,0.809,0.236,1.363,1.055,1.574c0,0-0.059-0.062-0.059-0.062c0.353,0.354,0.706,0.708,1.059,1.062
			c0,0-0.046-0.047-0.046-0.047c0.344,0.345,0.688,0.689,1.033,1.034c0,0-0.039-0.032-0.039-0.032
			c0.365,0.977,1.175,1.068,2.051,1.03c0,0-0.053-0.042-0.053-0.042c0.347,0.348,0.695,0.696,1.042,1.044
			c0,0-0.037-0.036-0.037-0.036c0.346,0.347,0.692,0.693,1.038,1.04c0,0-0.045-0.036-0.045-0.036
			c0.449,0.804,1.16,1.086,2.042,1.025c0,0-0.033-0.022-0.033-0.022c0.627,1.541,1.916,2.032,3.432,2.166
			c1.533,0.93,3.025,1.937,4.606,2.777C108.61,144.429,115.856,145.626,123.086,146.868z"/>
		<path style="fill:#DA7659;" d="M167.026,74.854c1.341-5.295,2.738-10.578,3.206-16.048c0.434-0.126,0.962-0.164,0.796-0.852
			c0,0-0.039,0.068-0.038,0.067c8.634,0.563,12.864,5.173,12.877,14.036c0.014,9.421-5.135,16.612-12.863,17.962
			C169.288,85.067,170.11,79.449,167.026,74.854z"/>
		<path style="fill:#DA7659;" d="M71.84,58.242c1.305,6.879,2.61,13.758,3.913,20.636c-1.465,3.607,0.426,7.76-1.827,11.24
			c-7.115-0.131-10.668-4.702-12.678-10.689c-2.211-6.585-2.176-13.117,2.853-18.614C66.076,58.655,68.873,57.94,71.84,58.242z"/>
		<path style="fill:#BC5C43;" d="M84.548,128.016c-0.856-0.005-1.711-0.011-2.567-0.016c0.028-0.653,0.057-1.306,0.085-1.959
			C82.893,126.699,83.72,127.357,84.548,128.016z"/>
		<path style="fill:#BC5C43;" d="M166.018,125.975c-0.354,0.008-0.707,0.015-1.061,0.023c-0.122-0.847-0.004-1.576,0.936-1.9
			C165.934,124.723,165.976,125.349,166.018,125.975z"/>
		<path style="fill:#EA5D27;" d="M122.323,225.688c-7.805,1.131-15.148-0.304-22.067-4.017c-8.429-4.524-10.549-12.711-4.724-20.316
			c4.071-5.315,9.366-9.327,16.3-10.485c0.161,2.296,1.272,4.238,2.306,6.208c-3.64,2.275-7.684,3.945-10.718,7.125
			c-6.267,6.567-5.007,13.826,3.138,17.77c4.893,2.37,10.156,2.971,15.523,2.929C122.226,225.144,122.307,225.406,122.323,225.688z"
			/>
		<path style="fill:#F4D11D;" d="M122.323,225.688c-0.016-0.282-0.097-0.544-0.242-0.787c0.122-3.713-1.261-7.147-2.035-10.688
			c-2.01-9.185-2.053-9.176,6.87-12.244c0.157-0.054,0.334-0.07,0.471-0.153c1.945-1.177,2.323-0.167,2.861,1.616
			c1.28,4.249,1.339,8.828,3.477,12.835c0.464,2.263,0.929,4.526,1.393,6.788c-3.34,2.37-7.446,1.909-11.13,3.008
			C123.433,225.939,122.878,225.814,122.323,225.688z"/>
		<path style="fill:#F4D11D;" d="M114.139,197.078c-1.036-1.97-2.147-3.912-2.307-6.208c3.606-6.299,5.566-7.32,12.002-6.253
			c1.305,0.866,2.61,1.73,3.916,2.594c0.043,0.299,0.144,0.578,0.304,0.835c1.523,5.982-0.491,9.954-5.514,10.983
			C119.422,199.667,116.759,198.504,114.139,197.078z M124.834,191.66c-0.35-2.457-1.851-3.734-4.314-3.749
			c-2.513-0.016-4.193,1.399-4.186,3.849c0.007,2.49,1.97,3.908,4.254,3.916C122.895,195.684,124.542,194.258,124.834,191.66z"/>
		<path style="fill:#050403;" d="M76.054,77.646c0.094-12.585,0.432-25.131,6.066-36.802c9.925-2.458,18.062,1.692,25.229,7.662
			c9.112,7.591,26.084,8.607,35.661-1.011c4.009-4.025,9.112-6.684,15.113-6.817c4.364,8.285,4.118,17.573,5.727,26.454
			c0.529,2.92,0.814,5.885,1.21,8.829c-7.108,4.356-14.688,4.17-22.476,2.441c-3.522-0.782-6.864-2.379-10.563-2.367
			c-2.903-1.306-5.818-2.552-9.124-1.725c-2.703,0.2-5.354,0.642-7.869,1.708c-4.836,1.705-9.662,3.439-14.509,5.11
			C91.78,84.141,83.541,83.5,76.054,77.646z M146.247,60.917c-1.026,0.012-2.053,0.024-3.079,0.037
			c-1.993-0.17-3.891,0.182-5.766,0.878c-1.092,0.405-2.379,0.64-2.418,2.027c-0.043,1.559,1.527,1.637,2.497,1.829
			c2.238,0.443,4.541,0.562,6.818,0.813c1.61,0.759,3.144,0.707,4.577-0.427c3.327,0.344,6.531-0.297,9.643-1.367
			c0.824-0.284,2.135-0.635,1.867-1.866c-0.133-0.611-1.054-1.402-1.702-1.49c-3.819-0.519-7.639-2.08-11.519-0.289
			C146.878,60.889,146.572,60.841,146.247,60.917z M102.891,61.508c-1.007-0.685-1.964-0.341-2.914,0.141
			c-0.167-0.079-0.343-0.114-0.527-0.105c-0.605-0.124-1.211-0.247-1.816-0.371c-3.359-0.477-6.644,0.034-9.877,0.866
			c-0.731,0.188-1.752,0.771-1.904,1.361c-0.295,1.15,0.825,1.672,1.762,1.991c3.328,1.134,6.723,1.881,10.278,1.489
			c1.079,0.025,2.158,0.05,3.237,0.076c0.491,0.023,0.986,0.099,1.472,0.06c3.111-0.247,8.027,0.708,8.286-2.684
			C111.084,61.755,105.87,62.005,102.891,61.508z"/>
		<path style="fill:#BC5C43;" d="M123.086,146.868c-7.23-1.241-14.476-2.439-21.064-5.937c-1.581-0.84-3.073-1.847-4.602-2.777
			c0.584-0.109,1.163-0.218,1.742-0.327c17.345,4.775,34.613,5.084,51.772-0.895c0.465,0.04,0.93,0.079,1.395,0.118
			C144.026,144.622,133.717,146.225,123.086,146.868z"/>
		<path style="fill:#DA7659;" d="M122.898,74.309c3.306-0.827,6.221,0.419,9.124,1.725c0.296,1.453,0.558,2.915,0.895,4.359
			c1.806,7.738-1.466,11.572-9.799,11.46C123.044,86.005,122.971,80.157,122.898,74.309z"/>
		<path style="fill:#F69C75;" d="M122.898,74.309c0.073,5.848,0.146,11.696,0.22,17.543c-7.606-1.073-10.491-5.104-8.622-11.932
			c0.344-1.256,0.363-2.6,0.533-3.903C117.545,74.951,120.195,74.509,122.898,74.309z"/>
		<path style="fill:#DA7659;" d="M103.594,97.459c13.064-2,24.696-1.983,37.803-0.018C128.293,99.527,116.66,99.505,103.594,97.459z
			"/>
		<path style="fill:#DA7659;" d="M99.162,137.826c-0.579,0.109-1.158,0.217-1.742,0.327c-1.52-0.133-2.809-0.624-3.436-2.165
			C96.033,135.692,97.637,136.648,99.162,137.826z"/>
		<path style="fill:#DA7659;" d="M152.33,137.049c-0.465-0.039-0.93-0.079-1.395-0.118c0.793-1.031,1.87-1.163,3.051-0.965
			C153.71,136.75,153.109,137.036,152.33,137.049z"/>
		<path style="fill:#DA7659;" d="M90.03,133.016c-0.875,0.039-1.686-0.052-2.051-1.03C88.877,131.902,89.572,132.223,90.03,133.016z
			"/>
		<path style="fill:#DA7659;" d="M94.017,136.011c-0.883,0.061-1.594-0.22-2.042-1.025C92.846,134.948,93.727,134.89,94.017,136.011
			z"/>
		<path style="fill:#BC5C43;" d="M86.032,130.03c-0.82-0.21-1.127-0.764-1.055-1.574C85.328,128.98,85.68,129.505,86.032,130.03z"/>
		<path style="fill:#BC5C43;" d="M87.032,131.03c-0.353-0.354-0.706-0.708-1.059-1.062C86.326,130.322,86.679,130.676,87.032,131.03
			z"/>
		<path style="fill:#DA7659;" d="M88.018,132.018c-0.344-0.345-0.688-0.689-1.033-1.034
			C87.605,131.053,87.971,131.377,88.018,132.018z"/>
		<path style="fill:#DA7659;" d="M91.019,134.018c-0.347-0.348-0.695-0.696-1.042-1.044
			C90.324,133.322,90.672,133.67,91.019,134.018z"/>
		<path style="fill:#DA7659;" d="M158.013,132.802c-0.442,0.4-0.884,0.801-1.33,1.201
			C157.124,133.603,157.568,133.202,158.013,132.802z"/>
		<path style="fill:#DA7659;" d="M92.02,135.021c-0.346-0.347-0.692-0.693-1.038-1.04C91.582,134.074,91.988,134.361,92.02,135.021z
			"/>
		<path style="fill:#DA7659;" d="M156.115,133.953c-0.383,0.348-0.767,0.695-1.15,1.043
			C155.348,134.649,155.731,134.301,156.115,133.953z"/>
		<path style="fill:#DA7659;" d="M154.995,134.962c-0.341,0.34-0.681,0.681-1.022,1.022
			C154.314,135.643,154.654,135.302,154.995,134.962z"/>
		<path style="fill:#BC5C43;" d="M165.016,125.962c-0.5,0.353-1,0.705-1.503,1.058C164.012,126.667,164.514,126.315,165.016,125.962
			z"/>
		<path style="fill:#EA5D27;" d="M128.054,188.045c-0.16-0.257-0.261-0.536-0.304-0.835c8.624-0.818,16.889-0.007,24.256,5.16
			c6.318,4.431,7.759,11.247,3.512,17.732c-4.827,7.371-11.967,11.21-20.402,12.953c-0.464-2.263-0.928-4.525-1.39-6.788
			c5.191-2.268,10.446-4.439,14.134-9.044c4.828-6.028,3.748-12.098-2.939-15.855C139.691,188.43,133.995,187.538,128.054,188.045z"
			/>
		<path style="fill:#F6BE9A;" d="M158.124,40.677c-6.001,0.133-11.104,2.792-15.113,6.817c-9.577,9.618-26.549,8.602-35.661,1.011
			c-7.167-5.97-15.304-10.121-25.229-7.662c4.16-10.765,11.918-17.544,22.88-20.917c2.826-0.87,4.271-0.704,5.491,2.553
			c2.571,6.86,4.337,7.695,11.505,7.392c6.354,1.207,11.035-0.428,12.819-7.32c0.534-2.063,1.856-3.032,4.153-2.083
			C148.38,24.352,155.284,30.58,158.124,40.677z"/>
		<path style="fill:#FEFEFE;" d="M171.028,57.955c0.166,0.688-0.362,0.726-0.796,0.852C170.307,58.345,170.33,57.835,171.028,57.955
			z"/>
		<path style="fill:#050301;" d="M128.054,188.045c5.941-0.508,11.637,0.385,16.868,3.324c6.687,3.757,7.767,9.827,2.939,15.855
			c-3.688,4.605-8.943,6.776-14.134,9.044c-2.14-4.007-2.198-8.586-3.479-12.835c-0.537-1.783-0.916-2.794-2.861-1.616
			c-0.138,0.083-0.315,0.1-0.471,0.153c-8.923,3.068-8.88,3.059-6.87,12.244c0.775,3.541,2.157,6.974,2.035,10.688
			c-5.366,0.042-10.629-0.56-15.522-2.929c-8.145-3.944-9.405-11.203-3.138-17.77c3.034-3.179,7.078-4.849,10.718-7.125
			c2.621,1.426,5.284,2.589,8.402,1.95C127.562,197.999,129.576,194.027,128.054,188.045z"/>
		<path style="fill:#FEFEFE;" d="M124.834,191.66c-0.292,2.598-1.938,4.024-4.245,4.016c-2.285-0.008-4.247-1.427-4.254-3.916
			c-0.007-2.449,1.672-3.864,4.186-3.849C122.983,187.927,124.484,189.203,124.834,191.66z"/>
		<path style="fill:#E9EBED;" d="M99.451,61.544c0.184-0.009,0.36,0.026,0.531,0.106c0.691,1.779,0.014,2.891-1.736,3.372
			c-1.489,0.409-0.358,1.22-0.352,1.859c-3.554,0.392-6.949-0.356-10.278-1.489c-0.938-0.319-2.058-0.841-1.762-1.991
			c0.152-0.59,1.173-1.172,1.904-1.361c3.233-0.833,6.518-1.343,9.879-0.866C98.129,61.854,98.749,61.901,99.451,61.544z"/>
		<path style="fill:#E9EBED;" d="M147.164,61.061c3.879-1.791,7.699-0.23,11.519,0.289c0.649,0.088,1.569,0.879,1.702,1.49
			c0.269,1.231-1.042,1.582-1.867,1.866c-3.112,1.071-6.316,1.712-9.641,1.368c0.053-0.759,0.105-1.519,0.157-2.279
			C148.885,62.559,148.176,61.707,147.164,61.061z"/>
		<path style="fill:#E9EBED;" d="M102.891,61.508c2.979,0.497,8.193,0.247,7.996,2.825c-0.259,3.392-5.175,2.437-8.286,2.684
			c-0.486,0.039-0.981-0.037-1.472-0.06C102.891,65.52,103.551,63.728,102.891,61.508z"/>
		<path style="fill:#E9EBED;" d="M144.299,66.501c-2.277-0.25-4.579-0.369-6.818-0.813c-0.97-0.192-2.54-0.27-2.497-1.829
			c0.038-1.388,1.326-1.622,2.418-2.027c1.875-0.696,3.773-1.048,5.765-0.878C142.61,62.993,143.609,64.715,144.299,66.501z"/>
		<path style="fill:#3A7DB3;" d="M144.299,66.501c-0.69-1.785-1.69-3.507-1.132-5.547c1.027-0.012,2.054-0.024,3.077-0.036
			c-0.523,2.369,0.207,3.522,2.79,2.877c-0.052,0.76-0.104,1.52-0.157,2.279C147.443,67.208,145.909,67.259,144.299,66.501z"/>
		<path style="fill:#3A7DB3;" d="M102.891,61.508c0.66,2.22-0.001,4.012-1.762,5.448c-1.078-0.025-2.157-0.05-3.236-0.075
			c-0.006-0.639-1.137-1.45,0.352-1.859c1.75-0.481,2.427-1.593,1.736-3.372C100.928,61.167,101.885,60.823,102.891,61.508z"/>
		<path style="fill:#FEFEFE;" d="M149.035,63.795c-2.583,0.645-3.313-0.508-2.79-2.877c0.328-0.077,0.633-0.029,0.919,0.143
			C148.176,61.707,148.885,62.559,149.035,63.795z"/>
		<path style="fill:#3A7DB3;" d="M99.451,61.544c-0.702,0.357-1.322,0.31-1.814-0.37C98.24,61.297,98.845,61.421,99.451,61.544z"/>
	</g>
</g>
</svg>
