<?xml version="1.0" encoding="utf-8"?>
<!-- Generator: Adobe Illustrator 22.1.0, SVG Export Plug-In . SVG Version: 6.00 Build 0)  -->
<svg version="1.1" id="Layer_1" xmlns="http://www.w3.org/2000/svg" xmlns:xlink="http://www.w3.org/1999/xlink" x="0px" y="0px"
	 viewBox="0 0 250 250" style="enable-background:new 0 0 250 250;" xml:space="preserve">
<style type="text/css">
	.st0{fill:#FFFFFF;}
	.st1{fill:none;}
	.st2{fill:#D2ECF0;}
	.st3{fill:#82584A;}
	.st4{fill:#5AD8EE;}
	.st5{fill:#DCE0E0;}
	.st6{fill:#5BD9EE;}
	.st7{fill:#C9E6E9;}
	.st8{fill:#5AD7ED;}
	.st9{fill:#7CEAF6;}
	.st10{fill:#1A9BCD;}
	.st11{fill:#D9DCDC;}
	.st12{fill:#39BCCA;}
	.st13{fill:#CACDCD;}
	.st14{fill:#9B6B5E;}
	.st15{fill:#734A3F;}
</style>
<g>
	<g>
		<path class="st0" d="M83.9,52.5c0.1-8,0.1-16,0-24c0-2.5,0.9-4.5,2.3-6.4c8.5-11,20.5-14.6,33.5-16.1c3.3-0.4,13-0.6,13,2.7
			c-0.2,7,8.6,21.6,8.6,28.6c0,7.2,22.5,8,22.7,15.2v11.3H83.9V52.5z"/>
		<path class="st0" d="M160.8,78H87.2c-3.7,0-6.7-3-6.7-6.7v-2.6c0-3.7,3-6.7,6.7-6.7h73.6c3.7,0,6.7,3,6.7,6.7v2.6
			C167.5,74.9,164.5,78,160.8,78z"/>
		<path class="st0" d="M93.8,110.1c-0.3,0-0.7,0-1,0c-7.2-8.8-6.7-21.8-4.9-32.2c8.7,0,16.6,0.6,25.4,0.5c2.4,0,4.7,0.7,6.4-0.6
			c0-0.3-0.2-1.5-0.1-1.8c0.3,0,0.8,1,1.1,1c2.9-1.6,5.5,0.4,8.1,1l0,0c0.3,0.3,0.7,0.7,1,1l0,0c0.2,2.5,0.4,5,0.6,7.5L93.8,110.1z"
			/>
		<path class="st1" d="M123,251c-40.7,0-81.3,0-122,0C1,167.7,1,84.3,1,1c82,0,164,0,246-0.1c3.4,0,4.1,0.7,4.1,4.1
			c-0.1,80.7-0.1,161.3,0,242c0,3.4-0.7,4.1-4.1,4.1c-40-0.2-80-0.1-120-0.1c0-1.1,0.8-1.7,1.6-2.3c5.5-4.7,11-9.4,16.4-14.1
			c19.8-16.6,39.7-33.2,59.5-49.8c1.3-1.1,1.7-2.4,1.6-3.9c-0.1-8.3-0.2-16.6-0.2-24.9c-0.2-0.4-0.3-1.2-0.6-1.2
			c-10.4-2.3-20.6-5.8-31.3-6.6c-5.6-2.9-12.1-3-18-5.1c-0.1-10-0.3-20-0.4-30c0-0.7,0.1-1.3,0.1-2c0.2-0.3,0.2-0.6,0.2-0.9
			c7.2-8.8,6.9-18.8,5.1-29.1c0-0.6,0.1-1.3,0.1-1.9c2.2-0.6,4.5-1.1,5.1-3.9c0.1-0.2,0.2-0.4,0.3-0.7c-0.2,0.1-0.4,0.2-0.7,0.3
			c-1.9,0.4-3.8,0.8-5.8,1.1c-10.3,1.5-20.7,1.1-31,0.1c-0.3,0.3-0.6,0.6-1,0.9c-2.9-1.6-5.5,0.4-8.1,1c1-3-1.4-1.9-2.5-1.9
			c-7.8-0.1-15.5,0-23.3-0.1c-4.1,0-8.3,0.5-12.2-1.3c-0.3,0-0.7-0.2-0.7-0.1c-0.3,0.7,0.2,1.1,0.7,1.4c1.5,2.2,4,3.6,6.3,3.6
			c10.3,0.1,20.6,1.3,30.8-0.7c-0.2,2.5-0.4,5-0.6,7.5c-0.2,0.4-0.4,0.7-0.6,1.1c-7.2,2.2-14.5,3.4-21.9,1c-2.5-0.8-2.7,0.4-3.1,2.2
			c-1.7,6.6-0.5,13.1,0.6,19.6c-0.5,1.5-0.4,2.9,0,4.4c-0.2,9.7-0.4,19.4-0.5,29.1c-6.9,1-13.7,2.3-20,5.5
			c-7.1-0.4-13.5,2.6-20.1,4.3c-4.3-0.2-5.8,1.6-5.6,6c0.3,7,0.2,14,0,20.9c-0.1,3,0.9,4.9,3.1,6.8c12.5,10.7,24.8,21.6,37.4,32.2
			c4.6,3.9,8.7,8.6,14.3,11.3l0-0.1c0.3,0.3,0.7,0.6,1,1c1.5,2.5,3.7,4.1,5.8,6C113.6,242.2,119.2,245.7,123,251z M124,31.3
			c0,7.2,0.1,14.3-0.1,21.5c-0.1,3.3,1,4.3,4.3,4.3c10.3-0.2,20.7-0.1,31,0c3.4,0,4.9-1,4.8-4.6c-0.1-8-0.1-16,0-24
			c0-2.5-0.9-4.5-2.3-6.4c-8.5-11-20.5-14.6-33.5-16.1c-3.3-0.4-4.3,1.1-4.2,4.3C124.1,17.3,124,24.3,124,31.3z M124.5,64.8
			c-11,0-22,0-33,0c-3,0-6.2,0-6.1,3.9c0.1,3.5,3.2,3.7,6,3.7c22.1,0,44.3,0,66.4,0c2.8,0,5.8-0.3,5.9-3.8c0.1-3.7-2.9-3.8-5.8-3.8
			C146.8,64.9,135.6,64.8,124.5,64.8z"/>
		<path class="st2" d="M145,234.6c-5.5,4.7-10.9,9.4-16.4,14.1c-0.8,0.7-1.5,1.2-1.6,2.3c-1.3,0-2.7,0-4,0c-3.8-5.3-9.4-8.8-14.2-13
			c-2.1-1.9-4.4-3.5-5.8-6c-0.3-0.3-0.7-0.6-1-1l0,0.1c0-2.4-1.1-4.5-1.9-6.6C93,204.9,85.9,185.5,78.8,166c1.8-0.1,3.6,0.3,5.3,1
			c12.1,5,24.2,9.8,36.4,14.7c2.9,1.2,5.6,1.3,8.6,0.2c7.3-2.7,14.6-5.4,22-7.7c5-1.6,9.7-4.3,15.2-4.1c-0.2,1.1-0.4,2.3-0.7,3.4
			c-5.2,14.8-10.5,29.7-15.6,44.5C148.1,223.4,145.6,228.7,145,234.6z"/>
		<path class="st3" d="M93.5,110.4c-1.2-6.5-2.3-13-0.6-19.6c0.5-1.9,0.7-3,3.1-2.2c7.4,2.3,14.7,1.1,21.9-1c-1,5.8,1.5,9.5,6.2,9.4
			c2.9,1.5,4.7-0.1,6.6-2.1c2.7-2.7,0.1-5.2,0.3-7.8c6.8,1.3,13.6,3.2,20.5,0.9c3.7-1.3,4.2,0.7,4.5,3.4c0.8,6.3,0.3,12.5-1,18.7
			c-0.2,0.3-0.3,0.6-0.4,0.9c-4.9,5.4-9.9,10.7-14.8,16c-7.9,8.5-19.8,8.6-28.2,0.5C105.6,121.7,99.5,116.1,93.5,110.4z
			 M133.3,105.8c0-0.5,0-0.9,0.1-1.4c-7.8-0.8-15.5-1.6-23.3-2.4C117.6,105.1,125.5,105.3,133.3,105.8z"/>
		<path class="st4" d="M145,234.6c0.6-5.9,3.1-11.1,5-16.5c5.2-14.9,10.4-29.7,15.6-44.5c0.4-1.1,0.5-2.3,0.7-3.4
			c0.5-0.7,0.9-1.4,1.4-2.1c2.2,0.2,4.2-0.8,6.2-1.5c10.7-3.4,21-8,31.9-10.6c0.1,8.3,0.1,16.6,0.2,24.9c0,1.6-0.4,2.9-1.6,3.9
			C184.7,201.3,164.8,218,145,234.6z"/>
		<path class="st5" d="M124,31.3c0-7,0.1-14-0.1-21c-0.1-3.2,0.9-4.7,4.2-4.3c13,1.5,25,5.1,33.5,16.1c1.5,1.9,2.4,3.9,2.3,6.4
			c-0.1,8-0.1,16,0,24c0.1,3.6-1.4,4.6-4.8,4.6c-10.3-0.1-20.7-0.2-31,0c-3.3,0.1-4.4-1-4.3-4.3C124.1,45.6,124,38.4,124,31.3z"/>
		<path class="st6" d="M78.8,166c7.1,19.5,14.2,38.9,21.3,58.4c0.8,2.2,1.9,4.2,1.9,6.6c-5.6-2.7-9.6-7.4-14.3-11.3
			c-12.6-10.6-24.9-21.5-37.4-32.2c-2.2-1.9-3.2-3.9-3.1-6.8c0.2-7,0.3-14,0-20.9c-0.2-4.3,1.3-6.2,5.6-6c7.8,4.3,16,7.7,24.7,10.2
			C77.9,164.6,78.4,165.3,78.8,166z"/>
		<path class="st7" d="M78.8,166c-0.5-0.7-0.9-1.4-1.4-2c-1.5-4.8-3-9.7-4.5-14.5c6.3-3.2,13.1-4.5,20-5.5c-0.2,7,2.4,12.5,8.5,16.3
			c6.9,4.4,14.5,6.2,22.7,5.8c2.1,0,4.3,0.1,6.4,0c15.8-0.8,25.2-9.3,25.6-23c5.9,2.1,12.4,2.1,18,5.1c-2.1,6.6-4.2,13.3-6.3,19.9
			c-0.5,0.7-0.9,1.4-1.4,2.1c-5.5-0.2-10.2,2.5-15.2,4.1c-7.4,2.3-14.7,5-22,7.7c-3,1.1-5.7,1-8.6-0.2c-12.1-4.9-24.3-9.7-36.4-14.7
			C82.4,166.3,80.7,165.9,78.8,166z"/>
		<path class="st8" d="M156,143c-0.4,13.7-9.8,22.2-25.6,23c-2.1,0.1-4.3,0-6.4,0c0-9.7,0-19.3,0-29c6.8,0.6,12.1-1.7,16.5-7.1
			c4.8-5.8,10.1-11.3,15.1-16.9C155.8,123,155.9,133,156,143z"/>
		<path class="st9" d="M124,137c0,9.7,0,19.3,0,29c-8.1,0.4-15.7-1.4-22.7-5.8c-6-3.8-8.7-9.3-8.5-16.3c0.2-9.7,0.4-19.4,0.5-29.1
			c6.5,4.7,11.6,10.9,17.3,16.5C114.5,135.1,118.7,137.2,124,137z"/>
		<path class="st10" d="M124.5,64.8c11.2,0,22.3,0,33.5,0c2.8,0,5.8,0.1,5.8,3.8c-0.1,3.5-3.1,3.8-5.9,3.8c-22.1,0-44.3,0-66.4,0
			c-2.8,0-5.9-0.2-6-3.7c-0.1-3.9,3.1-3.9,6.1-3.9C102.5,64.9,113.5,64.8,124.5,64.8z"/>
		<path class="st11" d="M154.9,110.1c1.4-6.2,1.9-12.4,1-18.7c-0.3-2.7-0.8-4.6-4.5-3.4c-6.8,2.3-13.7,0.5-20.5-0.9
			c-2.3-0.7-4.6-1.4-6.9-2.1c-1.9,0.5-3.7,0.9-5.6,1.4c0.2-2.5,0.4-5,0.6-7.5l0,0c0.3-0.3,1.3-1.6,1.6-2l0.2-0.5
			c2.7-0.6,4.3-1.1,7.3,0.5c0.3,0,0.6,0,0.9,0c0,0.3,0,0.6,0,0.9c0.7,3.4,3.4,3.1,5.8,3.1c8.7,0,17.4,0,26.2,0
			c1.8,10.3,2.1,20.4-5.1,29.1C155.6,110.1,155.3,110.1,154.9,110.1z"/>
		<path class="st12" d="M167.8,168c2.1-6.6,4.2-13.3,6.3-19.9c10.7,0.8,20.9,4.3,31.3,6.6c0.3,0.1,0.4,0.8,0.6,1.2
			c-11,2.5-21.2,7.2-31.9,10.6C171.9,167.1,170,168.2,167.8,168z"/>
		<path class="st12" d="M124,137c-5.3,0.2-9.5-1.9-13.3-5.7c-5.6-5.6-10.8-11.8-17.3-16.5c-0.4-1.5-0.4-2.9,0-4.4
			c6,5.7,12.1,11.3,18,17.1c8.4,8.1,20.3,8,28.2-0.5c5-5.3,9.9-10.7,14.8-16c0.4,0,0.8,0,1.2,0.1c0,0.7-0.1,1.3-0.1,2
			c-5.1,5.6-10.3,11.1-15.1,16.9C136.1,135.2,130.8,137.6,124,137z"/>
		<path class="st12" d="M72.9,149.5c1.5,4.8,3,9.7,4.5,14.5c-8.6-2.4-16.8-5.9-24.7-10.2C59.4,152.1,65.8,149.1,72.9,149.5z"/>
		<path class="st13" d="M119,79c-10.2,2-20.5,0.8-30.8,0.7c-2.3,0-4.8-1.4-6.3-3.6c0-0.4,0-0.9,0-1.3c3.9,1.8,8.1,1.3,12.2,1.3
			c7.8,0.1,15.5,0,23.3,0.1c1.1,0,3.5-1.1,2.5,1.9l0,0C119.7,78.3,119.3,78.7,119,79C119,79,119,79,119,79z"/>
		<path class="st13" d="M129.1,77.9c0-0.3,0-0.6,0-0.9c0-0.3,0-0.6,0-0.9c10.3,0.9,20.7,1.4,31-0.1c1.9-0.3,3.9-0.7,5.8-1.1l0.3,0.3
			c-0.6,2.7-2.9,3.3-5.1,3.9c-4.8,0-9.6,0.1-14.4-0.1C140.8,78.7,134.8,80,129.1,77.9z"/>
		<path class="st14" d="M118.4,86.5c1.9-0.5,3.7-0.9,5.6-1.4c0,4,0,7.9,0,11.9c-4.7,0.1-7.1-3.6-6.2-9.4
			C118.1,87.2,118.2,86.8,118.4,86.5z"/>
		<path class="st5" d="M129.1,77.9c5.8,2.2,11.8,0.8,17.7,1.1c4.8,0.2,9.6,0.1,14.4,0.1c0,0.6-0.1,1.3-0.1,1.9c-8.7,0-17.4,0-26.2,0
			C132.4,81,129.7,81.3,129.1,77.9z"/>
		<path class="st5" d="M82,74.7c0,0.4,0,0.9,0,1.3c-0.5-0.3-1-0.7-0.7-1.4C81.3,74.6,81.7,74.7,82,74.7z"/>
		<path class="st13" d="M165.9,74.9c0.2-0.1,0.4-0.2,0.7-0.3c-0.1,0.2-0.2,0.4-0.3,0.7C166.2,75.2,165.9,74.9,165.9,74.9z"/>
		<path class="st5" d="M129.1,76.1c0,0.3,0,0.6,0,0.9c-0.3,0-0.6,0-0.9,0C128.4,76.7,128.7,76.4,129.1,76.1z"/>
		<path class="st8" d="M155.7,111c-0.4,0-0.8,0-1.2-0.1c0.1-0.3,0.2-0.6,0.4-0.9c0.3,0,0.7,0,1,0C156,110.4,155.9,110.7,155.7,111z"
			/>
		<path class="st6" d="M102,231c0.3,0.3,0.7,0.6,1,1C102.6,231.6,102.3,231.3,102,231z"/>
		<path class="st15" d="M124,97c0-4,0-7.9,0-11.9c2.3,0.7,4.6,1.4,6.9,2.1c-0.2,2.6,2.3,5.1-0.3,7.8C128.7,96.9,126.9,98.5,124,97z"
			/>
		<path class="st15" d="M133.3,105.8c-7.8-0.5-15.7-0.7-23.2-3.8c7.8,0.8,15.5,1.6,23.3,2.4C133.3,104.9,133.3,105.4,133.3,105.8z"
			/>
		<path class="st1" d="M119,79c0.3-0.3,0.7-0.7,1-1C119.7,78.3,119.3,78.7,119,79z"/>
	</g>
</g>
</svg>
