<?xml version="1.0" encoding="iso-8859-1"?>
<!-- Generator: Adobe Illustrator 23.0.3, SVG Export Plug-In . SVG Version: 6.00 Build 0)  -->
<svg version="1.1" id="Layer_1" xmlns="http://www.w3.org/2000/svg" xmlns:xlink="http://www.w3.org/1999/xlink" x="0px" y="0px"
	 viewBox="0 0 250 250" style="enable-background:new 0 0 250 250;" xml:space="preserve">
<g>
	<g>
		<path style="fill:none;" d="M125,251c-41.333,0-82.667,0-124,0C1,167.667,1,84.333,1,1c82,0,164,0.027,246-0.096
			c3.424-0.005,4.101,0.672,4.096,4.096c-0.124,80.666-0.124,161.333,0,242c0.005,3.424-0.67,4.112-4.096,4.099
			C207.334,250.944,167.667,251,128,251c8.022-9.051,17.382-16.711,26.086-25.053c13.987-13.405,28.125-26.654,42.199-39.968
			c1.37-1.161,2.623-2.513,4.132-3.452c7.628-4.742,9.95-11.604,8.313-20.135c0.035-4.321-0.291-8.683,0.211-12.949
			c0.452-3.839-1.415-4.722-4.499-5.415c-14.237-3.197-28.419-6.646-42.676-9.748c-2.913-0.634-3.844-1.764-3.688-4.613
			c0.072-1.316,1.431-4.12-2.131-3.505c-0.065-4.688-0.13-9.375-0.195-14.063c5.491-6.727,7.749-14.471,7.252-23.08
			c7.016-1.307,12.519-8.37,13.002-16.753c0.184-3.191,0.393-6.54-2.747-8.55c-3.095-1.98-5.691,0.05-8.268,1.557
			c-1.867-0.967-0.81-2.84-1.311-4.23c0.038-0.351,0.077-0.701,0.115-1.052c0.386-10.306,0.305-20.658,1.32-30.901
			c0.695-7.013-1.568-10.831-7.974-13.663c-12.547-5.546-24.798-11.306-39.193-8.44c-12.278,2.444-23.997,6.65-35.873,10.394
			c-1.981,0.624-2.005,1.468-1.138,3.201c1.202,2.403,0.99,3.04,0.211,2.993c-3.461-0.208-1.769,2.017-1.608,3.28
			c1.384,10.892,2.906,21.766,4.243,32.664c0.22,1.796,1.403,4-0.997,5.407c-4.85-2.872-7.875-2.514-9.573,1.133
			c-4.014,8.621,4.39,22.603,13.782,22.929c-0.671,9.137-0.293,17.9,8.169,23.949c0.584,0.417,0.746,1.425,1.103,2.158
			c-0.043,4.101-0.086,8.203-0.128,12.304c-1.112-0.27-2.627-0.807-2.254,1.18c0.782,4.161-2.147,4.493-4.899,5.175
			c-10.967,2.717-21.923,5.48-32.895,8.179c-13.446,3.308-13.451,3.288-12.772,17.179c-0.058,4.988-0.07,9.979-0.202,14.967
			c-0.043,1.618,0.374,2.837,1.641,3.907c3.551,3,7.027,6.09,10.532,9.144c5.743,5.262,11.439,10.576,17.237,15.777
			c17.512,15.711,35.063,31.378,52.599,47.062C125.084,250.314,125.042,250.657,125,251z"/>
		<path style="fill:#CC2128;" d="M125,251c0.042-0.343,0.084-0.686,0.126-1.03c1.371-1.369,0.838-3.115,0.849-4.708
			c0.051-7.434,0.022-14.869,0.021-22.303c2.785-0.055,5.57-0.107,8.355-0.165c1.015-0.021,2.121-0.122,2.253-1.359
			c0.163-1.539-1.029-1.912-2.249-1.951c-2.785-0.088-5.573-0.095-8.359-0.135c0-0.899,0-1.799,0-2.698
			c2.786-0.04,5.574-0.048,8.359-0.136c1.22-0.039,2.413-0.411,2.249-1.951c-0.131-1.236-1.238-1.338-2.253-1.359
			c-2.785-0.057-5.57-0.11-8.355-0.165c0-0.939-0.001-1.879-0.001-2.818c2.968-0.058,5.936-0.102,8.904-0.184
			c0.879-0.024,1.702-0.359,1.683-1.375c-0.018-0.967-0.792-1.399-1.683-1.427c-2.967-0.092-5.935-0.135-8.903-0.197
			c-0.013-3.223-0.026-6.446-0.039-9.67c1.426-1.127,2.938-2.163,4.266-3.396c12.544-11.643,25.163-23.209,37.508-35.06
			c3.239-3.109,6.176-4.175,10.55-2.839c5.858,1.789,11.922,2.906,17.898,4.312c0.036,8.531,0.072,17.061,0.107,25.592
			c-14.074,13.315-28.212,26.563-42.2,39.968C145.382,234.289,136.022,241.949,128,251C127,251,126,251,125,251z M164.656,192.746
			c0.741,1.156,1.732,1.946,3.13,2.143c3.216,1.667,6.428,1.61,9.634-0.028c1.231-0.259,2.233-0.833,2.787-2.024
			c4.328-4.77,4.819-8.332,1.877-13.626c-4.686-6.99-11.648-7.83-17.426-2.103C159.869,182.209,159.868,186.992,164.656,192.746z"/>
		<path style="fill:#020101;" d="M196.178,160.387c-5.976-1.406-12.039-2.523-17.898-4.312c-4.374-1.336-7.311-0.27-10.55,2.839
			c-12.345,11.851-24.964,23.418-37.508,35.06c-1.328,1.233-2.84,2.269-4.266,3.396c-14.934-14.133-29.862-28.272-44.809-42.39
			c-1.77-1.672-3.338-3.768-6.356-2.957c-6.389,1.717-12.803,3.337-19.207,4.997c-4.209-0.009-8.011,2.367-12.265,2.094
			c-0.679-13.893-0.674-13.873,12.772-17.181c10.972-2.699,21.928-5.462,32.895-8.179c2.752-0.682,5.681-1.014,4.899-5.175
			c-0.373-1.986,1.142-1.45,2.255-1.179c1.896,1.002,3.725,2.159,5.695,2.977c10.84,4.499,20.797,9.817,21.984,24.211
			c2.77-3.163,3.408-5.917,4.37-8.511c1.69-6.239,5.954-9.658,11.858-11.973c5.494-2.154,10.616-5.258,15.901-7.944
			c3.561-0.615,2.202,2.189,2.13,3.505c-0.156,2.849,0.774,3.979,3.688,4.613c14.258,3.102,28.439,6.551,42.676,9.748
			c3.084,0.693,4.951,1.575,4.499,5.415c-0.502,4.266-0.177,8.628-0.211,12.943C204.354,162.932,200.427,160.646,196.178,160.387z"
			/>
		<path style="fill:#EA1D25;" d="M55.585,157.021c6.404-1.66,12.818-3.281,19.207-4.997c3.017-0.811,4.585,1.285,6.356,2.957
			c14.947,14.119,29.875,28.258,44.809,42.39c0.013,3.223,0.026,6.446,0.039,9.669c-2.965,0.062-5.931,0.105-8.896,0.196
			c-0.891,0.028-1.663,0.46-1.682,1.426c-0.02,1.014,0.802,1.351,1.68,1.376c2.965,0.082,5.931,0.126,8.897,0.184
			c0,0.939,0.001,1.879,0.001,2.818c-2.783,0.054-5.566,0.107-8.349,0.164c-1.014,0.021-2.119,0.123-2.251,1.358
			c-0.164,1.537,1.026,1.913,2.246,1.952c2.783,0.088,5.568,0.096,8.353,0.136c0,0.899,0,1.799,0,2.695
			c-2.784,0.039-5.57,0.048-8.353,0.138c-1.22,0.039-2.41,0.415-2.246,1.952c0.131,1.235,1.236,1.338,2.251,1.359
			c2.783,0.057,5.566,0.11,8.349,0.164c0,7.434,0.029,14.869-0.021,22.303c-0.011,1.593,0.523,3.339-0.849,4.708
			c-17.536-15.684-35.087-31.351-52.599-47.062c-5.797-5.201-11.494-10.515-17.235-15.774
			C55.39,177.098,55.487,167.06,55.585,157.021z"/>
		<path style="fill:#202020;" d="M82.785,64.928c2.4-1.407,1.218-3.611,0.998-5.407c-1.337-10.897-2.859-21.772-4.243-32.664
			c-0.161-1.264-1.853-3.488,1.608-3.28c0.779,0.047,0.991-0.59-0.211-2.993c-0.867-1.733-0.843-2.577,1.138-3.201
			c11.876-3.744,23.595-7.95,35.873-10.394c14.395-2.866,26.646,2.894,39.193,8.44c6.407,2.832,8.669,6.65,7.974,13.663
			c-1.015,10.243-0.934,20.596-1.32,30.901c-0.471-0.001-0.942-0.002-1.413-0.002c-0.071-2.145-0.122-4.291-0.218-6.435
			c-0.101-2.255,0.817-5.235-1.592-6.376c-5.591-2.647-4.096-6.913-3.309-11.22c0.274-1.501,1.385-3.046,0.054-4.696
			c-10.797,3.781-22.065,3.946-33.274,4.554c-8.598-0.601-17.198-1.171-25.793-1.815c-5.885-0.441-5.856-0.49-5.141,5.607
			c0.293,2.499,2.018,5.568-1.268,7.126c-7.14,3.385-5.075,9.221-4.689,15.604c3.507-2.523,6.414-4.615,9.513-6.845
			c6.798,9.212,15.292,15.953,27.241,17.123c11.51-1.058,21.584-4.863,28.101-15.115c1.354-2.131,2.192-1.524,3.731-0.291
			c2.116,1.695,3.438,4.514,6.556,4.853c0.462-0.34,0.924-0.679,1.386-1.019c0.501,1.39-0.556,3.263,1.31,4.229
			c1.19,1.493,2.641,2.753,0.64,4.897c-1.518,1.626-2.464,3.786-3.665,5.709c-2.12,2.91-4.386,5.727-6.316,8.758
			c-1.561,2.451-2.993,3.155-5.92,1.833c-5.991-2.707-12.224-4.875-18.725-6.122c-2.34-0.478-4.616-1.662-7.09-0.635
			c-1.32,0.138-2.639,0.277-3.959,0.415c-6.769,0.439-13.052,2.54-18.811,6.008c-2.162,1.302-3.303,1.33-4.731-0.897
			c-2.243-3.497-4.852-6.758-7.246-10.161c-0.815-1.159-1.527-2.231-3.094-1.099C84.979,70.963,83.882,67.946,82.785,64.928z
			 M94.274,69.139c4.662,9.232,13.491,11.491,20.425,5.441C108.38,71.326,101.821,69.361,94.274,69.139z M135.481,74.923
			c8.15,4.749,15.772,3.396,19.82-2.992c0.435-0.686,1.139-1.346,0.678-2.221c-0.473-0.897-1.457-0.638-2.199-0.553
			C147.53,69.875,141.54,71.437,135.481,74.923z"/>
		<path style="fill:#F2A379;" d="M131.007,80.349c6.501,1.247,12.733,3.415,18.725,6.122c2.927,1.322,4.359,0.618,5.92-1.833
			c1.93-3.031,4.195-5.848,6.315-8.757c2.282,4.227,0.403,8.782,1.039,13.139c0.497,8.609-1.761,16.352-7.252,23.08
			c-6.077,3.149-9.655,8.984-13.739,13.954c-4.983,6.064-10.479,8.798-18.059,7.835c-0.001-9.129-0.002-18.257-0.003-27.386
			c3.05-0.152,6.069,1.097,9.325,0.185c-2.914-2.215-6.242-1.469-9.344-1.841c0.047-0.97,0.094-1.94,0.141-2.909
			c6.296-0.044,7.994-1.723,7.961-7.822C132.011,89.502,130.386,85.01,131.007,80.349z M136.274,107.615
			c-0.024-0.104-0.014-0.258-0.079-0.301c-0.099-0.066-0.249-0.056-0.377-0.079c0.035,0.171,0.07,0.343,0.105,0.514
			C136.04,107.705,136.157,107.66,136.274,107.615z"/>
		<path style="fill:#F6BE9B;" d="M124.076,101.937c-0.047,0.97-0.094,1.94-0.141,2.91c-0.637,0.065-1.274,0.13-1.911,0.195
			c-2.828-0.381-5.419,0.494-9.035,1.664c3.704,0.392,6.355,0.806,8.972-0.337c0.664,0.045,1.328,0.09,1.992,0.135
			c0.001,9.129,0.002,18.257,0.003,27.386c-2.13,0.183-4.25,0.275-6.25-0.702c-3.519-1.214-5.796-4.029-8.472-6.385
			c-4.372-3.848-7.447-9.138-12.965-11.706c-0.358-0.733-0.52-1.741-1.104-2.158c-8.463-6.05-8.841-14.813-8.169-23.949
			c-0.086-5.017,0.054-10.047-0.92-15.009c1.568-1.133,2.279-0.06,3.094,1.099c2.394,3.403,5.003,6.664,7.246,10.161
			c1.428,2.227,2.569,2.199,4.731,0.897c5.759-3.468,12.042-5.569,18.812-6.008c-0.657,4.026-1.093,8.104-2.026,12.066
			c-1.295,5.499,1.52,8.109,6.128,9.737L124.076,101.937z"/>
		<path style="fill:#128B45;" d="M55.585,157.021c-0.098,10.038-0.195,20.077-0.294,30.113c-3.506-3.057-6.981-6.147-10.533-9.147
			c-1.266-1.07-1.684-2.289-1.641-3.907c0.132-4.988,0.143-9.979,0.202-14.967C47.574,159.388,51.376,157.013,55.585,157.021z"/>
		<path style="fill:#C8553B;" d="M117.706,133.188c2,0.977,4.12,0.885,6.25,0.702c7.579,0.963,13.075-1.771,18.058-7.835
			c4.084-4.97,7.662-10.805,13.739-13.954c0.065,4.687,0.129,9.375,0.195,14.063c-5.285,2.686-10.406,5.79-15.9,7.944
			c-5.904,2.314-10.168,5.734-11.858,11.974c-0.171-2.037-1.831-3.029-3.005-4.395C122.725,138.822,119.163,136.927,117.706,133.188
			z"/>
		<path style="fill:#EC7955;" d="M86.075,73.98c0.974,4.962,0.834,9.993,0.92,15.009C77.603,88.663,69.2,74.682,73.213,66.061
			c1.698-3.647,4.722-4.005,9.573-1.133C83.882,67.946,84.979,70.963,86.075,73.98z"/>
		<path style="fill:#EFA177;" d="M117.706,133.188c1.458,3.739,5.02,5.634,7.479,8.497c1.173,1.366,2.833,2.358,3.005,4.395
			c-0.961,2.593-1.6,5.347-4.369,8.51c-1.187-14.394-11.144-19.712-21.984-24.211c-1.97-0.818-3.8-1.976-5.695-2.977
			c0.041-4.102,0.084-8.204,0.127-12.305c5.519,2.568,8.593,7.858,12.966,11.706C111.91,129.159,114.186,131.974,117.706,133.188z"
			/>
		<path style="fill:#128B45;" d="M196.178,160.387c4.249,0.259,8.175,2.544,12.553,1.999c1.637,8.537-0.685,15.399-8.313,20.141
			c-1.509,0.938-2.761,2.29-4.132,3.452C196.25,177.449,196.214,168.918,196.178,160.387z"/>
		<path style="fill:#EC7955;" d="M163.005,89.021c-0.636-4.357,1.243-8.912-1.039-13.139c1.201-1.923,2.148-4.083,3.666-5.709
			c2.001-2.144,0.55-3.404-0.64-4.897c2.577-1.507,5.174-3.537,8.268-1.557c3.14,2.009,2.931,5.358,2.747,8.55
			C175.524,80.651,170.021,87.714,163.005,89.021z"/>
		<path style="fill:#2A2424;" d="M163.681,61.046c-0.462,0.34-0.924,0.679-1.386,1.019c0.029-0.691,0.059-1.382,0.088-2.073
			c0.471,0.001,0.942,0.002,1.413,0.002C163.758,60.344,163.719,60.695,163.681,61.046z"/>
		<path style="fill:#E6D730;" d="M164.659,177.107c5.778-5.727,12.74-4.887,17.426,2.102c-0.041,1.676,0.042,3.775-1.23,4.687
			c-4.005,2.873-1.824,5.876-0.647,8.94c-0.554,1.191-1.556,1.765-2.788,2.025c-0.676-1.679-1.508-3.316-1.994-5.049
			c-0.887-3.159-3.336-2.706-5.595-2.564c-3.05,0.193-1.645,2.643-1.914,4.181c-0.197,1.126-0.098,2.304-0.13,3.459
			c-1.398-0.196-2.389-0.987-3.13-2.143C164.657,187.533,164.658,182.32,164.659,177.107z M171.788,176.614
			c-1.796-0.092-4.414-0.523-3.964,3.595c0.273,2.496-0.426,5.099,3.687,4.657c3.266-0.351,6.868-0.246,6.927-4.564
			C178.488,176.65,175.284,176.639,171.788,176.614z"/>
		<path style="fill:#F3C630;" d="M125.996,222.959c-2.783-0.054-5.566-0.107-8.349-0.164c-1.014-0.021-2.119-0.124-2.251-1.359
			c-0.164-1.537,1.027-1.913,2.246-1.952c2.783-0.09,5.568-0.099,8.353-0.138c2.786,0.043,5.574,0.05,8.359,0.138
			c1.22,0.038,2.413,0.411,2.249,1.951c-0.131,1.236-1.238,1.338-2.253,1.359C131.566,222.852,128.781,222.905,125.996,222.959z"/>
		<path style="fill:#F3C630;" d="M125.995,216.651c-2.784-0.04-5.57-0.048-8.353-0.136c-1.22-0.039-2.41-0.415-2.246-1.952
			c0.132-1.235,1.237-1.337,2.251-1.358c2.783-0.057,5.566-0.11,8.349-0.164c2.785,0.055,5.57,0.108,8.355,0.165
			c1.015,0.021,2.121,0.122,2.253,1.359c0.163,1.539-1.029,1.912-2.249,1.951C131.569,216.603,128.781,216.611,125.995,216.651z"/>
		<path style="fill:#2A2424;" d="M167.786,194.889c0.033-1.155-0.066-2.333,0.13-3.459c0.269-1.539-1.136-3.989,1.914-4.181
			c2.259-0.143,4.708-0.595,5.595,2.564c0.487,1.733,1.318,3.37,1.994,5.049C174.214,196.499,171.003,196.556,167.786,194.889z"/>
		<path style="fill:#F3C630;" d="M125.995,210.223c-2.966-0.058-5.932-0.102-8.897-0.184c-0.879-0.024-1.7-0.361-1.68-1.376
			c0.019-0.966,0.792-1.398,1.682-1.426c2.965-0.092,5.931-0.135,8.896-0.196c2.968,0.062,5.936,0.105,8.902,0.197
			c0.891,0.027,1.665,0.46,1.683,1.427c0.019,1.016-0.804,1.35-1.683,1.375C131.931,210.12,128.963,210.164,125.995,210.223z"/>
		<path style="fill:#2A2424;" d="M164.659,177.107c-0.001,5.213-0.002,10.426-0.003,15.639
			C159.868,186.992,159.869,182.209,164.659,177.107z"/>
		<path style="fill:#2A2424;" d="M180.208,192.836c-1.177-3.064-3.358-6.067,0.647-8.94c1.272-0.913,1.189-3.011,1.23-4.687
			C185.027,184.505,184.536,188.066,180.208,192.836z"/>
		<path style="fill:#EFA177;" d="M162.383,59.991c-0.029,0.691-0.059,1.382-0.088,2.073c-3.118-0.338-4.44-3.158-6.556-4.853
			c-1.539-1.233-2.377-1.839-3.731,0.291c-6.517,10.252-16.591,14.057-28.101,15.114c0.045-12.267,0.091-24.533,0.136-36.799
			c11.209-0.608,22.477-0.773,33.274-4.554c1.331,1.65,0.221,3.195-0.054,4.696c-0.788,4.307-2.282,8.572,3.309,11.22
			c2.409,1.141,1.491,4.12,1.592,6.376C162.26,55.7,162.312,57.846,162.383,59.991z"/>
		<path style="fill:#F6BE9B;" d="M124.043,35.818c-0.045,12.266-0.091,24.533-0.136,36.799
			c-11.948-1.169-20.443-7.911-27.241-17.123c-3.099,2.23-6.007,4.322-9.513,6.845c-0.386-6.383-2.452-12.219,4.689-15.604
			c3.286-1.558,1.561-4.627,1.268-7.126c-0.716-6.097-0.744-6.047,5.141-5.607C106.845,34.647,115.445,35.217,124.043,35.818z"/>
		<path style="fill:#EC7955;" d="M131.007,80.349c-0.621,4.66,1.005,9.153,1.03,13.766c0.033,6.099-1.665,7.778-7.961,7.822
			c0.001-0.001-0.016-0.006-0.016-0.005c-0.048-7.406-0.096-14.812-0.143-22.218C126.391,78.688,128.667,79.871,131.007,80.349z"/>
		<path style="fill:#FEFEFE;" d="M94.274,69.139c7.547,0.222,14.107,2.187,20.425,5.441C107.765,80.629,98.936,78.37,94.274,69.139z
			"/>
		<path style="fill:#D4D3D3;" d="M135.481,74.923c6.059-3.487,12.049-5.048,18.299-5.766c0.742-0.085,1.726-0.344,2.199,0.553
			c0.461,0.875-0.243,1.535-0.678,2.221C151.253,78.319,143.631,79.673,135.481,74.923z"/>
		<path style="fill:#F2A379;" d="M123.916,79.714c0.048,7.406,0.095,14.812,0.143,22.218c-4.608-1.628-7.423-4.238-6.127-9.737
			c0.933-3.961,1.369-8.04,2.026-12.066C121.277,79.991,122.597,79.852,123.916,79.714z"/>
		<path style="fill:#C8553B;" d="M122.025,105.041c0.637-0.065,1.274-0.129,1.911-0.195c3.101,0.372,6.43-0.374,9.343,1.841
			c-3.257,0.912-6.275-0.337-9.325-0.185c-0.664-0.045-1.328-0.09-1.991-0.137C121.984,105.923,122.004,105.482,122.025,105.041z"/>
		<path style="fill:#EC7955;" d="M136.274,107.615c-0.117,0.045-0.234,0.09-0.351,0.134c-0.035-0.171-0.07-0.343-0.105-0.514
			c0.128,0.022,0.278,0.012,0.377,0.079C136.26,107.357,136.25,107.511,136.274,107.615z"/>
		<path style="fill:#EC7955;" d="M122.025,105.041c-0.02,0.441-0.041,0.882-0.062,1.325c-2.618,1.144-5.269,0.731-8.973,0.339
			C116.605,105.535,119.197,104.66,122.025,105.041z"/>
		<path style="fill:#2A2424;" d="M171.788,176.614c3.496,0.025,6.7,0.036,6.65,3.688c-0.059,4.318-3.661,4.213-6.927,4.564
			c-4.113,0.442-3.414-2.16-3.687-4.657C167.373,176.091,169.991,176.522,171.788,176.614z"/>
	</g>
</g>
</svg>
