<?xml version="1.0" encoding="iso-8859-1"?>
<!-- Generator: Adobe Illustrator 23.0.3, SVG Export Plug-In . SVG Version: 6.00 Build 0)  -->
<svg version="1.1" id="Layer_1" xmlns="http://www.w3.org/2000/svg" xmlns:xlink="http://www.w3.org/1999/xlink" x="0px" y="0px"
	 viewBox="0 0 250 250" style="enable-background:new 0 0 250 250;" xml:space="preserve">
<g>
	<g>
		<path style="fill:none;" d="M123,251c-40.667,0-81.333,0-122,0C1,167.667,1,84.333,1,1c82,0,164,0.027,246-0.096
			c3.424-0.005,4.101,0.672,4.096,4.096c-0.124,80.666-0.124,161.333,0,242c0.005,3.424-0.67,4.112-4.096,4.099
			C206.667,250.945,166.333,251,126,251c0.824-0.799,1.605-1.65,2.48-2.388c24.91-21.025,49.821-42.048,74.763-63.035
			c1.708-1.437,3.058-2.73,2.984-5.307c-0.233-8.144-0.196-16.295-0.263-24.442c0.099-2.098-1.639-1.745-2.804-2.015
			c-15.698-3.642-31.404-7.249-47.107-10.866c-0.162-9.329-0.323-18.659-0.485-27.988c0.037-1.632,0.074-3.263,0.111-4.895
			c3.071-4.533,6.141-9.015,5.909-14.919c-0.117-2.978,0.291-5.976,0.461-8.965c6.711-1.251,12.219-8.183,12.922-16.265
			c0.794-9.126-2.784-11.754-10.917-8.018c-0.018-10.145-0.517-20.319,0.118-30.423c0.417-6.644-2.187-11.117-6.881-14.997
			c-9.359-7.734-20.142-11.201-32.243-10.663c-14.894-0.622-27.817,3.395-37.286,15.702c-1.393,1.81-2.053,3.674-1.956,5.96
			c0.344,8.127,0.588,16.257,0.869,24.387c-0.563,0.786-0.478,1.499,0.24,2.141c0.06,2.762,0.12,5.523,0.181,8.285
			c-2.013,1.02-2.737-1.213-4.172-1.718c-3.62-1.273-6.282-0.543-7.662,3.101C72.109,72,79.038,84.334,87.921,86.392
			c-0.177,8.642-0.591,17.334,5.335,24.656c0.058,1.303,0.116,2.606,0.174,3.908c-0.16,9.375-0.319,18.751-0.479,28.126
			c-14.995,3.842-29.991,7.684-44.986,11.526c-1.821,9.693-0.393,19.469-0.709,29.201c-0.048,1.471,1.451,2.134,2.428,2.978
			c17.48,15.109,35.049,30.116,52.431,45.338C109.17,238.305,116.891,243.768,123,251z"/>
		<path style="fill:#D52227;" d="M205.964,155.827c0.067,8.148,0.03,16.3,0.263,24.443c0.074,2.577-1.276,3.869-2.984,5.307
			c-24.942,20.987-49.854,42.01-74.763,63.035c-0.875,0.739-1.655,1.59-2.48,2.388c-0.667,0-1.333,0-2,0
			c0.001-9.051,0.001-18.103,0.002-27.154c9.819-9.944,19.601-19.925,29.489-29.801c1.841-1.839,1.647-2.945,0.036-4.921
			c-5.874-7.204-12.529-12.137-22.551-10.104c-2.225,0.451-4.642-0.044-6.971-0.103c-0.016-0.878-0.033-1.756-0.049-2.634
			c9.004-2.257,18.006-4.524,27.013-6.769C169.299,164.945,187.632,160.388,205.964,155.827z"/>
		<path style="fill:#E82227;" d="M124.002,223.846c-0.001,9.051-0.001,18.103-0.002,27.154c-0.333,0-0.667,0-1,0
			c-6.109-7.232-13.83-12.695-20.886-18.875c-17.381-15.222-34.95-30.229-52.431-45.338c-0.977-0.845-2.476-1.507-2.428-2.978
			c0.316-9.732-1.112-19.508,0.707-29.201c25.353,7.09,50.708,14.179,76.064,21.268l-0.071,0.406
			c0.016,0.878,0.033,1.756,0.049,2.634c-1.657,0.059-3.358,0.389-4.965,0.133c-9.298-1.478-16.543,1.609-22.805,8.664
			c-2.47,2.782-2.292,4.006-0.109,6.317C105.468,203.92,114.718,213.899,124.002,223.846z"/>
		<path style="fill:#744A3D;" d="M162.049,86.18c-0.17,2.989-0.578,5.987-0.461,8.965c0.232,5.904-2.838,10.385-5.909,14.919
			c-4.534,3.585-8.375,7.86-11.919,12.375c-5.058,6.443-10.712,11.426-19.738,9.618c-0.012-8.677-0.025-17.354-0.037-26.031
			c4.509-0.097,8.921-0.675,13.102-2.668c-4.374,0.861-8.747,0.738-13.122,0.576c0.06-2.673,0.12-5.346,0.178-8.018
			c5.962,0.04,7.327-1.625,6.207-7.437c-0.249-1.291-0.018-2.703-0.406-3.934c-1.388-4.412,0.276-10.294-5.851-12.484
			c-0.089-0.3-0.153-0.606-0.191-0.916c0.021-11.341,0.042-22.683,0.063-34.025c0.352-0.068,0.703-0.135,1.055-0.203
			c9.676,0.394,19.171-0.903,28.507-3.308c2.767-0.713,3.715-0.529,2.975,2.65c-1.057,4.542-2.856,9.437,3.275,12.203
			c1.08,0.487,1.19,1.889,1.234,3.1c0.301,8.277,0.518,16.559,1.023,24.824c0.137,2.243-1.974,4.441-0.054,6.651
			C162.004,84.084,162.026,85.132,162.049,86.18z M146.473,74.944l0.351,0.055c0.653-0.016,1.36,0.126,1.948-0.076
			c2.382-0.819,6.703-0.621,6.468-3.135c-0.27-2.885-4.344-1.282-6.738-1.741c-0.16-0.031-0.327-0.026-0.49-0.038
			c-1.469,0.351-2.938,0.702-4.408,1.053c-2.945,0.148-7.699,0.482-7.451,2.907c0.332,3.25,4.833,1.573,7.586,1.828
			C144.853,76.164,145.741,75.804,146.473,74.944z M134.423,70.916c7.315-1.843,14.396-3.601,21.459-5.428
			c1.697-0.439,2.357-1.674,2.093-3.434c-0.166-1.104-0.591-2.126-1.82-1.818c-7.719,1.936-15.426,3.928-23.101,6.03
			c-1.415,0.388-1.122,1.897-0.974,3.026C132.277,70.799,133.381,71.044,134.423,70.916z"/>
		<path style="fill:#835949;" d="M123.965,37.119c-0.021,11.341-0.042,22.683-0.062,34.022c-4.888,4.709-3.843,11.335-5.436,17.095
			c-1.285,4.647,0.393,6.725,5.577,7.751l0.101-0.075c-0.06,2.673-0.12,5.346-0.179,8.02c-3.991,0.583-7.922-0.622-11.923-0.487
			c3.855,1.591,7.81,2.509,11.943,2.579c0.012,8.677,0.025,17.354,0.037,26.03c-5.007,0.721-9.069-0.884-12.37-4.746
			c-1.718-2.01-3.513-4.071-5.647-5.582c-4.552-3.223-7.413-8.433-12.751-10.68c-5.926-7.321-5.512-16.014-5.334-24.656
			c0.019-2.138,0.039-4.277,0.058-6.415c1.326-0.691,1.654-1.6,1.488-3.212c-0.757-7.338-0.668-7.348,6.899-6.378
			c-1.937,0.843-3.686,1.799-0.526,3.343c2.093,1.022,4.315,1.779,6.731,1.188c0,0,0.086-0.022,0.086-0.022
			c0.515,0.888,1.319,1.181,2.298,1.115c0.991,0.017,1.992,0.133,2.971,0.031c2.047-0.214,5.355,0.988,5.801-1.227
			c0.585-2.905-3.414-2.12-4.998-3.566c0.987-0.093,1.974-0.19,2.962-0.277c1.822-0.161,4.298,0.836,4.344-2.456
			c0.047-3.329-2.513-2.331-4.294-2.546c-6.428-0.777-12.885-1.226-19.354-0.975c-3.278,0.127-4.393-1.219-4.436-4.375
			c-0.03-2.202,0.919-4.677-1.036-6.616c-0.718-0.642-0.803-1.356-0.24-2.141c5.371-2.393,9.198-5.574,7.35-12.395
			c-0.732-2.701-0.162-4.997,3.724-4.345C106.42,36.576,115.186,36.971,123.965,37.119z"/>
		<path style="fill:#562D23;" d="M92.951,143.083c0.16-9.375,0.319-18.751,0.479-28.126c2.145-0.257,3.293,1.282,4.575,2.558
			c4.822,4.803,9.563,9.69,14.467,14.406c6.374,6.13,19.218,6.039,25.325-0.241c4.498-4.625,9.548-8.733,13.255-14.122
			c1.016-1.476,2.369-2.855,4.516-2.599c0.162,9.329,0.323,18.659,0.485,27.988c0.428,10.78-5.572,16.757-15.009,20.276
			c-5.514,2.056-11.204,2.861-17.04,2.923c-1.489-0.066-2.982-0.09-4.467-0.205C102.814,164.646,93.886,156.964,92.951,143.083z"/>
		<path style="fill:#2E1B11;" d="M161.981,83.036c-1.92-2.21,0.191-4.408,0.054-6.651c-0.505-8.265-0.722-16.547-1.023-24.824
			c-0.044-1.211-0.154-2.613-1.234-3.1c-6.131-2.766-4.333-7.661-3.275-12.203c0.74-3.179-0.208-3.362-2.975-2.65
			c-9.336,2.405-18.832,3.702-28.508,3.309c0.009-10.367,0.019-20.735,0.029-31.103c12.101-0.538,22.884,2.929,32.243,10.663
			c4.694,3.879,7.298,8.353,6.881,14.997c-0.634,10.104-0.135,20.278-0.118,30.423C163.95,69.001,163.809,76.101,161.981,83.036z"/>
		<path style="fill:#3C2415;" d="M125.048,5.814c-0.01,10.368-0.019,20.736-0.029,31.103c-0.351,0.067-0.703,0.134-1.055,0.202
			c-8.779-0.148-17.544-0.542-26.216-1.997c-3.886-0.652-4.456,1.644-3.724,4.345c1.848,6.821-1.979,10.001-7.35,12.395
			c-0.282-8.129-0.525-16.26-0.869-24.386c-0.097-2.286,0.563-4.15,1.956-5.96C97.232,9.209,110.154,5.192,125.048,5.814z"/>
		<path style="fill:#FDB51B;" d="M124.004,166.145c5.836-0.061,11.526-0.867,17.04-2.923c9.437-3.519,15.437-9.496,15.009-20.276
			c15.704,3.616,31.41,7.224,47.107,10.866c1.165,0.27,2.903-0.082,2.804,2.015c-18.332,4.561-36.665,9.118-54.996,13.686
			c-9.007,2.245-18.009,4.512-27.013,6.769c0,0,0.071-0.406,0.071-0.406C124.019,172.633,124.011,169.389,124.004,166.145z"/>
		<path style="fill:#FDED03;" d="M124.004,166.145c0.007,3.244,0.015,6.488,0.022,9.732c-25.355-7.089-50.711-14.178-76.064-21.268
			c14.998-3.842,29.993-7.684,44.989-11.526c0.935,13.882,9.863,21.564,26.585,22.858
			C121.022,166.055,122.515,166.079,124.004,166.145z"/>
		<path style="fill:#593127;" d="M87.979,79.977c-0.019,2.138-0.039,4.277-0.058,6.415C79.038,84.334,72.109,72,75.262,63.671
			c1.379-3.644,4.042-4.374,7.662-3.101c1.434,0.504,2.159,2.738,4.172,1.717C87.489,68.179,85.814,74.174,87.979,79.977z"/>
		<path style="fill:#593127;" d="M161.981,83.036c1.828-6.935,1.969-14.035,2.074-21.139c8.132-3.737,11.711-1.108,10.917,8.018
			c-0.704,8.082-6.211,15.015-12.922,16.265C162.026,85.132,162.004,84.084,161.981,83.036z"/>
		<path style="fill:#381C17;" d="M155.568,114.958c-2.147-0.256-3.501,1.123-4.516,2.599c-3.708,5.389-8.758,9.497-13.255,14.122
			c-6.107,6.28-18.951,6.372-25.325,0.241c-4.904-4.717-9.645-9.603-14.467-14.406c-1.282-1.277-2.43-2.815-4.575-2.558
			c-0.058-1.303-0.116-2.605-0.174-3.908c5.338,2.246,8.199,7.456,12.75,10.679c2.134,1.511,3.929,3.573,5.647,5.582
			c3.301,3.861,7.363,5.467,12.37,4.746c9.026,1.809,14.68-3.174,19.738-9.617c3.544-4.515,7.386-8.79,11.919-12.375
			C155.642,111.695,155.605,113.327,155.568,114.958z"/>
		<path style="fill:#3C2415;" d="M87.979,79.977c-2.165-5.803-0.49-11.798-0.883-17.69c-0.06-2.761-0.12-5.523-0.181-8.284
			c1.956,1.939,1.006,4.414,1.036,6.616c0.043,3.155,1.158,4.502,4.436,4.375c6.469-0.251,12.926,0.198,19.354,0.975
			c1.781,0.215,4.341-0.783,4.294,2.546c-0.047,3.292-2.523,2.295-4.344,2.456c-0.988,0.087-1.975,0.185-2.962,0.277
			c-0.826-0.054-1.652-0.108-2.479-0.163c-1.386-0.029-2.773-0.057-4.159-0.086c-1.791-1.299-3.801-0.56-5.725-0.613
			c-7.567-0.969-7.657-0.96-6.899,6.378C89.633,78.377,89.305,79.286,87.979,79.977z"/>
		<path style="fill:#FBDF03;" d="M124.002,223.846c-9.284-9.946-18.533-19.925-27.877-29.815c-2.183-2.31-2.36-3.534,0.109-6.317
			c6.262-7.055,13.507-10.141,22.805-8.664c1.607,0.255,3.308-0.074,4.965-0.133c2.329,0.059,4.746,0.555,6.971,0.103
			c10.023-2.034,16.678,2.899,22.551,10.104c1.611,1.976,1.805,3.083-0.036,4.921C143.603,203.92,133.82,213.901,124.002,223.846z
			 M124.7,183.715c-3.662,0-7.372,0.376-10.973-0.089c-5.267-0.681-8.807,1.731-12.21,5.215c-1.663,1.703-1.735,2.806-0.141,4.501
			c6.837,7.268,13.635,14.574,20.336,21.967c1.79,1.975,2.981,1.876,4.78-0.006c5.635-5.892,11.42-11.641,17.171-17.421
			c6.657-6.69,6.63-6.634-0.424-12.669c-1.409-1.205-2.849-1.52-4.559-1.508C134.021,183.737,129.36,183.716,124.7,183.715z"/>
		<path style="fill:#3C2415;" d="M134.423,70.916c-1.043,0.128-2.146-0.117-2.343-1.624c-0.148-1.129-0.441-2.638,0.974-3.026
			c7.676-2.102,15.382-4.094,23.101-6.03c1.228-0.308,1.654,0.714,1.82,1.818c0.264,1.76-0.396,2.995-2.093,3.434
			C148.819,67.315,141.738,69.073,134.423,70.916z"/>
		<path style="fill:#562D23;" d="M124.093,72.06c6.127,2.19,4.463,8.071,5.851,12.484c0.387,1.231,0.157,2.643,0.406,3.934
			c1.12,5.812-0.245,7.477-6.207,7.437c0.001-0.001-0.1,0.074-0.1,0.074C124.06,88.013,124.076,80.036,124.093,72.06z"/>
		<path style="fill:#9E6A5E;" d="M124.093,72.06c-0.017,7.976-0.033,15.952-0.05,23.929c-5.184-1.026-6.861-3.105-5.577-7.751
			c1.593-5.76,0.548-12.386,5.436-17.095C123.94,71.454,124.004,71.76,124.093,72.06z"/>
		<path style="fill:#593127;" d="M123.985,106.025c-4.132-0.07-8.088-0.988-11.943-2.579c4.001-0.135,7.932,1.07,11.923,0.487
			c4.374,0.161,8.748,0.284,13.122-0.577C132.906,105.35,128.494,105.928,123.985,106.025z"/>
		<path style="fill:#EDE9E7;" d="M143.737,75.796c-2.752-0.254-7.253,1.423-7.585-1.827c-0.248-2.426,4.506-2.759,7.451-2.907
			c-0.429,1.537,0.103,2.727,1.325,3.668C144.531,75.085,144.134,75.44,143.737,75.796z"/>
		<path style="fill:#EDE9E7;" d="M148.011,70.008c0.164,0.012,0.33,0.008,0.49,0.038c2.394,0.459,6.468-1.144,6.738,1.741
			c0.236,2.514-4.086,2.316-6.468,3.135c-0.589,0.202-1.296,0.06-1.948,0.076C148.44,73.625,148.15,71.799,148.011,70.008z"/>
		<path style="fill:#381C17;" d="M148.011,70.008c0.139,1.791,0.429,3.617-1.187,4.991c0,0-0.351-0.055-0.353-0.056
			c-0.516-0.072-1.029-0.143-1.543-0.213c-1.221-0.941-1.753-2.131-1.325-3.668C145.072,70.71,146.542,70.359,148.011,70.008z"/>
		<path style="fill:#9E6A5E;" d="M144.928,74.73c0.514,0.071,1.027,0.142,1.543,0.213c-0.73,0.861-1.618,1.221-2.733,0.853
			C144.134,75.44,144.531,75.085,144.928,74.73z"/>
		<path style="fill:#EDE9E7;" d="M96.366,70.387c1.925,0.053,3.934-0.685,5.725,0.613c-0.583,1.397-0.554,2.719,0.481,3.918
			c-2.417,0.591-4.638-0.166-6.731-1.188C92.68,72.186,94.429,71.23,96.366,70.387z"/>
		<path style="fill:#EDE9E7;" d="M106.25,71.086c0.826,0.054,1.653,0.108,2.479,0.163c1.583,1.446,5.582,0.661,4.998,3.566
			c-0.446,2.214-3.754,1.012-5.801,1.227c-0.978,0.102-1.98-0.014-2.97-0.031c-0.045-0.338-0.089-0.677-0.134-1.015
			C106.46,74.118,106.417,72.624,106.25,71.086z"/>
		<path style="fill:#381C17;" d="M106.25,71.086c0.167,1.538,0.21,3.032-1.428,3.909c-0.721-0.033-1.443-0.066-2.165-0.099
			c0,0-0.086,0.022-0.086,0.022c-1.035-1.199-1.063-2.521-0.48-3.918C103.477,71.029,104.864,71.057,106.25,71.086z"/>
		<path style="fill:#9E6A5E;" d="M102.657,74.896c0.722,0.033,1.444,0.066,2.165,0.099c0.043,0.339,0.088,0.677,0.133,1.016
			C103.977,76.078,103.173,75.785,102.657,74.896z"/>
		<path style="fill:#D52226;" d="M124.7,183.716c4.66,0.001,9.321,0.022,13.98-0.01c1.71-0.012,3.149,0.302,4.559,1.508
			c7.054,6.034,7.081,5.978,0.424,12.669c-5.751,5.78-11.536,11.529-17.171,17.421c-1.799,1.881-2.991,1.98-4.78,0.006
			c-6.701-7.393-13.499-14.699-20.336-21.967c-1.594-1.695-1.522-2.797,0.141-4.501c3.403-3.484,6.943-5.896,12.21-5.215
			C117.328,184.091,121.039,183.715,124.7,183.716z"/>
	</g>
</g>
</svg>
