<?xml version="1.0" encoding="iso-8859-1"?>
<!-- Generator: Adobe Illustrator 23.0.3, SVG Export Plug-In . SVG Version: 6.00 Build 0)  -->
<svg version="1.1" id="Layer_1" xmlns="http://www.w3.org/2000/svg" xmlns:xlink="http://www.w3.org/1999/xlink" x="0px" y="0px"
	 viewBox="0 0 250 250" style="enable-background:new 0 0 250 250;" xml:space="preserve">
<g>
	<g>
		<path style="fill:none;" d="M125,251c-41.333,0-82.667,0-124,0C1,167.667,1,84.333,1,1c82,0,164,0.027,246-0.096
			c3.424-0.005,4.101,0.672,4.096,4.096c-0.124,80.666-0.124,161.333,0,242c0.005,3.424-0.67,4.112-4.096,4.099
			C207,250.945,167,251,127,251c0.735-0.67,1.451-1.364,2.209-2.007c17.627-14.979,35.259-29.953,52.89-44.928
			c5.9-4.864,11.702-9.856,17.748-14.532c2.543-1.967,3.34-4.135,3.217-7.227c-0.224-5.655-0.427-11.356,0.046-16.981
			c0.414-4.934-1.615-6.588-6.104-6.339c-12.166-3.498-24.566-6.006-36.909-8.757c-3.607-2.483-6.007-5.855-7.365-9.996
			c5.455,1.271,10.701,0.762,16.234-1.82c-2.315-0.707-4.136-1.262-5.957-1.818c7.597,0.168,13.875-2.522,20.296-7.955
			c-6.693-0.728-12.354-1.879-16.658-6.228c0.267-0.297,0.533-0.594,0.8-0.89c2.699,0.263,5.338,1.509,8.754,0.651
			c-5.216-7.626-8.797-15.572-12.033-23.684c2.01-9.482,4.021-18.964,6.031-28.447c5.397-2.529,12.664-3.04,11.934-11.917
			c-0.229-2.789,2.462-2.055,4.137-2.122c2.938-0.118,6.157,0.618,7.672-3.041c0.697-0.98,1.393-1.959,2.09-2.939
			c2.235-0.053,4.68,0.246,4.995-3.002c0.66-0.672,1.32-1.344,1.981-2.015c1.835-1.048,4.189-1.12,5.557-3.065
			c0.746-1.061,2.167-2.028,1.473-3.399c-0.578-1.143-2.104-0.516-3.192-0.523c-7.628-0.048-15.257-0.067-22.884-0.01
			c-5.116,0.038-8.885,3.884-8.961,9.038c-0.044,2.984-0.032,5.97-0.002,8.955c0.02,1.988-0.3,3.688-2.735,3.955
			c1.569-8.095,1.799-16.207-0.893-24.073c-5.791-16.918-18.539-26.168-35.345-29.579c-18.907-3.837-36.148,0.195-49.829,14.633
			c-10.512,11.095-12.313,24.569-9.332,39.04c-2.771,0.185-3.929-1.16-3.869-3.877c0.073-3.323,0.143-6.656-0.02-9.974
			c-0.215-4.389-3.151-7.632-6.914-7.889c-9.349-0.638-18.771-0.21-28.69-0.21c2.81,6.159,8.874,7.811,12.663,11.881
			c0.319,0.343,1.283,0.085,1.948,0.106c0.684,1.31,1.669,2.324,2.971,3.027c0.82,4.323,4.294,2.877,6.792,2.843
			c3.168-0.043,4.694,0.888,4.28,4.222c-0.311,2.507,0.4,4.573,2.829,5.788c3.377,1.69,6.74,3.407,10.109,5.112
			c2.487,9.588,4.212,19.332,5.926,29.077c-3.284,8.566-7.259,16.804-13.062,25.147c3.648,0,6.003,0,9.416,0
			c-4.873,4.745-10.34,5.107-16.097,6.295c6.003,4.943,12.088,7.825,19.632,7.667c-1.849,1.654-4.009,0.63-6.139,1.619
			c7.191,4.118,14.23,3.282,21.344,1.126c-0.98,4.06-4.387,5.99-7.32,8.337c-12.372,3.178-24.744,6.357-37.115,9.535
			c-2.025-0.142-2.434,0.955-2.417,2.761c0.073,7.789,0.059,15.579,0.008,23.368c-0.01,1.605,0.4,2.82,1.686,3.883
			c5.731,4.739,11.4,9.554,17.091,14.342c6.43,5.684,12.891,11.333,19.282,17.059C102.383,231.243,114.298,240.433,125,251z"/>
		<path style="fill:#1473B7;" d="M182.098,204.064c-17.631,14.975-35.263,29.949-52.89,44.928c-0.758,0.644-1.473,1.337-2.209,2.007
			c-0.667,0-1.333,0-2,0c-10.702-10.567-22.617-19.757-33.801-29.777c-6.392-5.727-12.853-11.375-19.282-17.059
			c8.089-8.674,29.198-9.731,39.686-3.097c2.77,1.752,5.643,3.34,8.469,5.003c-3.914,2.415-8.87,0.908-13.832,3.587
			c9.689,4.953,10.87,12.489,7.955,21.336c0.041,0.262,0.083,0.523,0.124,0.785c0.357-0.126,0.713-0.252,1.07-0.379
			c3.532-1.826,7.065-3.653,10.597-5.479c4.055,1.349,7.37,4.424,11.682,5.255c0.723-1.857,0.499-3.593-0.036-5.1
			c-2.014-5.672-0.511-9.998,4.527-13.183c0.278-0.176,0.557-0.386,0.76-0.64c0.785-0.981,2.514-1.612,1.974-3.117
			c-0.434-1.209-2.003-0.898-3.123-1.067c-3.088-0.465-6.255-0.527-9.175-1.832c0.903-0.374,2.034-0.518,2.674-1.156
			c10.28-10.238,31.873-11.108,44.163-2.174C180.196,203.462,181.203,203.686,182.098,204.064z"/>
		<path style="fill:#0F6594;" d="M84.888,100.085c-1.714-9.746-3.44-19.489-5.926-29.077c-0.7-3.677-1.399-7.354-2.099-11.031
			c-2.98-14.472-1.179-27.946,9.332-39.04c13.68-14.439,30.921-18.47,49.829-14.633c16.806,3.41,29.554,12.661,35.345,29.579
			c2.692,7.866,2.463,15.978,0.893,24.073c-0.688,3.362-1.376,6.724-2.064,10.086c-2.01,9.482-4.021,18.964-6.031,28.444
			c-1.978,8.084-2.633,16.861-11.209,21.512c0.811-3.712,1.551-7.442,2.467-11.129c0.427-1.716,0.213-2.92-1.575-3.534
			c-10.012-3.438-19.615-8.015-29.88-10.746c-3.126,0.281-6.083,1.169-8.926,2.47c-6.548,1.777-13.055,3.728-19.661,5.258
			c-3.224,0.746-4.016,2.428-3.351,5.289c0.964,4.153,1.982,8.293,2.977,12.439c-3.458-0.444-4.364-3.528-5.912-5.858
			C86.275,109.937,86.565,104.707,84.888,100.085z M123.958,48.189c1.988,1.312,6.076-1.143,6.366,2.196
			c0.591,6.811,5.168,5.31,9.262,5.522c2.603,0.135,3.126-0.807,2.511-3.179c-1.12-4.321-2.057-8.689-3.048-13.043
			c-2.485-10.918-2.48-10.922-13.652-10.23c-0.483,0.03-0.956,0.234-1.434,0.356c-2.48-0.114-4.979-0.069-7.434-0.38
			c-3.817-0.483-5.647,0.953-6.333,4.838c-1.009,5.711-2.647,11.309-3.812,16.996c-0.302,1.474-1.909,4.25,0.917,4.336
			c3.109,0.095,8.218,2.381,9.131-1.784C117.526,48.82,120.237,48.421,123.958,48.189z M90.281,70.217
			c-7.928-0.243-8.28,0.219-6.12,5.389c2.993,7.166,7.848,12.644,14.964,15.955c7.426,3.456,13.55,1.964,18.966-4.352
			c1.724-2.011,1.906-3.303-0.313-5.224C109.146,74.513,99.138,70.748,90.281,70.217z M158.019,71.914
			c-10.608,0.618-19.901,4.436-27.969,11.377c-1.872,1.611-2.081,2.862-0.438,4.871c5.006,6.121,10.321,7.506,17.462,4.309
			c6.833-3.059,11.558-8.169,14.626-14.897C164.126,72.255,163.771,71.741,158.019,71.914z"/>
		<path style="fill:#0A6495;" d="M182.098,204.064c-0.895-0.378-1.902-0.602-2.668-1.158c-12.289-8.934-33.883-8.065-44.163,2.174
			c-0.64,0.637-1.771,0.782-2.673,1.155c-2.797-3.452-3.392-8.187-6.629-11.382c0.02-6.28,0.041-12.559,0.061-18.839
			c1.481-0.104,3.013-0.002,4.437-0.346c11.378-2.746,22.745-5.542,34.097-8.393c10.826-2.718,21.922-4.385,32.445-8.29
			c4.489-0.249,6.519,1.405,6.104,6.339c-0.472,5.625-0.269,11.326-0.046,16.981c0.122,3.092-0.675,5.26-3.217,7.227
			C193.8,194.208,187.999,199.2,182.098,204.064z"/>
		<path style="fill:#0D6594;" d="M126.027,176.013c-0.02,6.28-0.041,12.559-0.061,18.839c-0.074,0.266-0.083,0.534-0.027,0.805
			c-1.956,3.471-3.911,6.942-5.867,10.413c-2.826-1.663-5.699-3.251-8.469-5.003c-10.488-6.635-31.597-5.578-39.686,3.097
			c-5.691-4.788-11.36-9.603-17.091-14.342c-1.286-1.063-1.697-2.278-1.686-3.883c0.051-7.789,0.065-15.579-0.008-23.368
			c-0.017-1.806,0.392-2.904,2.418-2.761c12.209,2.918,24.396,5.927,36.632,8.727c11.256,2.576,22.261,6.305,33.829,7.469
			C126.01,176.006,126.027,176.013,126.027,176.013z"/>
		<path style="fill:#FBB534;" d="M84.888,100.085c1.677,4.622,1.387,9.852,4.208,14.099c1.548,2.33,2.454,5.415,5.912,5.859
			c0,0-0.057-0.05-0.057-0.05c-0.512,1.7,1.253,1.816,1.889,2.717c3.039,2.816,6.078,5.632,9.117,8.448
			c-0.289,0.928-0.578,1.856-0.867,2.784c-0.725,2.712-1.914,5.155-4.079,7.033c-0.355,0.341-0.711,0.682-1.066,1.023l0.038-0.059
			c-7.115,2.156-14.154,2.992-21.344-1.126c2.13-0.989,4.29,0.035,6.139-1.619c-7.544,0.159-13.629-2.724-19.632-7.667
			c5.757-1.188,11.224-1.55,16.097-6.295c-3.413,0-5.769,0-9.416,0C77.629,116.888,81.604,108.65,84.888,100.085z M81.153,124.686
			c0.116,0.108,0.233,0.301,0.348,0.301c0.116,0,0.231-0.194,0.346-0.303c-0.174-0.108-0.348-0.216-0.522-0.323
			C81.267,124.469,81.21,124.577,81.153,124.686z M83.644,123.51l-0.35-0.213l-0.045,0.324L83.644,123.51z"/>
		<path style="fill:#0C5495;" d="M197.005,158.985c-10.523,3.905-21.619,5.571-32.445,8.29c-11.353,2.851-22.719,5.646-34.097,8.393
			c-1.424,0.344-2.955,0.241-4.437,0.346c0,0-0.017-0.007-0.017-0.007c-0.006-3.488-0.011-6.976-0.017-10.463
			c13.512-0.33,24.741-5.743,34.103-15.315C172.439,152.979,184.839,155.487,197.005,158.985z"/>
		<path style="fill:#1473B7;" d="M125.993,165.542c0.006,3.488,0.011,6.976,0.017,10.463c-11.568-1.163-22.572-4.893-33.829-7.469
			c-12.235-2.8-24.422-5.809-36.632-8.727c12.371-3.179,24.743-6.357,37.114-9.535c8.847,9.957,19.885,15.014,33.25,14.867
			L125.993,165.542z"/>
		<path style="fill:#F49D76;" d="M160.096,150.228c-9.362,9.572-20.591,14.985-34.103,15.315c0,0-0.079-0.401-0.079-0.402
			c-0.005-6.627-0.011-13.253-0.016-19.88c6.445-0.108,11.286-3.127,15.049-8.192c2.273-3.059,4.956-5.738,7.934-8.12
			c0.7,3.96,1.54,7.873,3.851,11.284C154.089,144.372,156.489,147.745,160.096,150.228z"/>
		<path style="fill:#FBB534;" d="M152.731,140.232c-2.311-3.411-3.151-7.324-3.85-11.284c0.066-1.063,0.237-2.154-0.78-2.93
			c1.328-1.69,2.657-3.38,3.985-5.07c0.321-0.329,0.643-0.659,0.964-0.988l-0.092,0.035c8.576-4.65,9.231-13.427,11.209-21.511
			c3.235,8.116,6.816,16.061,12.033,23.687c-3.416,0.858-6.055-0.388-8.756-0.648c-0.484-0.322-0.966-0.647-1.449-0.971
			c-0.465-0.485-1.205-0.959-1.477-0.163c-0.284,0.832,0.641,1.303,1.382,1.63c0.219,0.187,0.467,0.318,0.745,0.392
			c4.305,4.348,9.967,5.499,16.659,6.227c-6.421,5.433-12.7,8.123-20.296,7.955c1.821,0.556,3.641,1.112,5.957,1.818
			C163.432,140.994,158.187,141.503,152.731,140.232z"/>
		<path style="fill:#F5BE9A;" d="M125.897,145.262c0.006,6.626,0.011,13.252,0.017,19.879c-13.365,0.147-24.403-4.909-33.25-14.866
			c2.932-2.346,6.339-4.276,7.32-8.337c0,0-0.038,0.059-0.038,0.059c0.355-0.341,0.711-0.682,1.066-1.023
			c2.165-1.877,3.354-4.32,4.078-7.032c1.441,1.113,3.03,2.08,4.297,3.364C113.959,141.943,118.964,145.572,125.897,145.262z"/>
		<path style="fill:#E5E5E5;" d="M76.863,59.977c0.7,3.677,1.399,7.354,2.099,11.031c-3.369-1.705-6.733-3.422-10.109-5.112
			c-2.429-1.216-3.14-3.281-2.829-5.788c0.414-3.334-1.112-4.265-4.28-4.222c-2.498,0.034-5.973,1.48-6.792-2.843
			c2.982-0.068,5.977,0.004,8.941-0.268c1.315-0.121,2.454-1.138,2.595-2.624c0.067-0.711-0.666-1.137-1.388-1.072
			c-4.368,0.395-8.882-1.241-13.119,0.937c-0.665-0.021-1.629,0.237-1.948-0.106c-3.788-4.07-9.853-5.722-12.663-11.881
			c9.919,0,19.341-0.428,28.69,0.21c3.763,0.257,6.699,3.5,6.914,7.889c0.163,3.317,0.093,6.65,0.02,9.974
			C72.934,58.817,74.092,60.162,76.863,59.977z"/>
		<path style="fill:#E5E5E5;" d="M170.199,70.04c0.688-3.362,1.376-6.724,2.064-10.086c2.434-0.266,2.755-1.967,2.735-3.955
			c-0.03-2.985-0.042-5.97,0.002-8.955c0.076-5.154,3.845-9,8.961-9.038c7.628-0.057,15.257-0.037,22.884,0.01
			c1.089,0.007,2.614-0.62,3.192,0.523c0.693,1.371-0.727,2.338-1.473,3.399c-1.368,1.945-3.723,2.017-5.557,3.065
			c-5.767-2.188-11.729-0.57-17.593-0.851c-0.955-0.046-2.007,0.581-1.805,1.851c0.172,1.084,1.221,0.951,1.998,0.957
			c5.14,0.044,10.28,0.044,15.42,0.059c-0.315,3.247-2.76,2.949-4.995,3.002c-3.531-2.162-7.403-0.587-11.099-0.961
			c-1.151-0.117-3.173-0.709-3.318,1.048c-0.154,1.864,1.621,2.763,3.399,2.825c2.973,0.105,5.952,0.028,8.929,0.028
			c-1.515,3.659-4.734,2.923-7.672,3.041c-1.675,0.067-4.366-0.667-4.137,2.122C182.863,67.001,175.596,67.511,170.199,70.04z"/>
		<path style="fill:#D1D4D6;" d="M201.025,47.02c-5.14-0.015-10.28-0.015-15.42-0.059c-0.776-0.007-1.826,0.127-1.998-0.957
			c-0.202-1.269,0.85-1.896,1.805-1.851c5.864,0.281,11.826-1.337,17.593,0.851C202.345,45.676,201.685,46.348,201.025,47.02z"/>
		<path style="fill:#D1D4D6;" d="M193.941,52.961c-2.977,0-5.956,0.077-8.929-0.028c-1.778-0.063-3.553-0.961-3.399-2.825
			c0.145-1.756,2.167-1.164,3.318-1.048c3.696,0.375,7.568-1.201,11.099,0.961C195.334,51.002,194.637,51.981,193.941,52.961z"/>
		<path style="fill:#D1D4D6;" d="M51.981,50.015c4.238-2.179,8.752-0.542,13.119-0.937c0.722-0.065,1.455,0.361,1.388,1.072
			c-0.141,1.486-1.28,2.504-2.595,2.624c-2.963,0.272-5.958,0.2-8.941,0.268C53.649,52.339,52.665,51.324,51.981,50.015z"/>
		<path style="fill:#D1D4D6;" d="M125.938,195.657c-0.056-0.27-0.047-0.539,0.027-0.805c3.238,3.195,3.832,7.93,6.629,11.382
			c2.92,1.306,6.087,1.367,9.175,1.832c1.121,0.169,2.689-0.142,3.123,1.067c0.541,1.505-1.188,2.136-1.974,3.117
			c-0.204,0.254-0.482,0.464-0.76,0.64c-5.038,3.185-6.541,7.512-4.527,13.183c0.535,1.507,0.759,3.243,0.036,5.1
			c-4.311-0.83-7.626-3.906-11.682-5.255C125.97,215.832,125.954,205.744,125.938,195.657z"/>
		<path style="fill:#F9FAFB;" d="M125.938,195.657c0.016,10.088,0.032,20.175,0.048,30.263c-3.532,1.826-7.064,3.653-10.597,5.478
			c-0.398-0.136-0.796-0.27-1.194-0.405c2.915-8.846,1.734-16.382-7.955-21.336c4.962-2.679,9.917-1.172,13.832-3.587
			C122.027,202.599,123.982,199.128,125.938,195.657z"/>
		<path style="fill:#D1D4D6;" d="M114.195,230.992c0.398,0.135,0.796,0.269,1.194,0.405c-0.357,0.127-0.713,0.253-1.07,0.379
			C114.278,231.515,114.236,231.254,114.195,230.992z"/>
		<path style="fill:#F5BE9A;" d="M152.086,120.948c-1.328,1.69-2.657,3.38-3.986,5.07c-3.322,3.468-6.591,6.989-9.977,10.393
			c-6.669,6.706-15.24,7.643-23.004,2.299c-3.248-2.236-6.119-5.019-9.162-7.553c-3.039-2.816-6.078-5.632-9.118-8.448
			c-0.247-1.172-0.208-2.541-1.888-2.718c0,0,0.058,0.05,0.057,0.05c-0.995-4.146-2.013-8.286-2.977-12.439
			c-0.664-2.861,0.128-4.543,3.351-5.289c6.605-1.529,13.113-3.48,19.66-5.257c-0.003,0.997-0.013,1.994-0.008,2.991
			c0.017,3.63,5.494,12.435,8.399,12.365c3.779-0.091,5.29-3.939,7.561-6.418c0.113-0.05,0.243-0.08,0.334-0.157
			c0.055-0.046,0.051-0.162,0.074-0.247c-0.132,0.138-0.265,0.276-0.397,0.414c-0.962,0.162-2.076,0.066-2.859,0.53
			c-3.973,2.355-4.303,0.169-4.164-3.071c0.126-2.954,0.002-5.92-0.012-8.88c10.266,2.733,19.868,7.311,29.881,10.748
			c1.788,0.614,2.001,1.818,1.575,3.534c-0.916,3.686-1.655,7.417-2.467,11.129c0,0,0.092-0.036,0.092-0.036
			C152.729,120.29,152.408,120.619,152.086,120.948z M110.126,117.135c12.567,12.949,15.893,13.151,28.579-0.004
			C129.141,115.304,119.928,115.607,110.126,117.135z"/>
		<path style="fill:#E5E5E5;" d="M123.962,29.811c0.478-0.123,0.95-0.326,1.434-0.356c11.172-0.692,11.167-0.688,13.652,10.23
			c0.991,4.354,1.928,8.722,3.048,13.043c0.615,2.373,0.092,3.314-2.511,3.179c-4.094-0.212-8.671,1.289-9.262-5.522
			c-0.29-3.34-4.378-0.885-6.366-2.196c0.004-1.892,0.007-3.784,0.011-5.676c1.383-0.662,3.99,1.08,4.145-1.91
			c0.142-2.743-0.857-4.775-4.119-4.647C123.984,33.908,123.973,31.86,123.962,29.811z"/>
		<path style="fill:#F9FAFB;" d="M123.969,42.513c-0.004,1.892-0.007,3.784-0.011,5.676c-3.721,0.232-6.431,0.631-7.527,5.629
			c-0.913,4.165-6.022,1.879-9.131,1.784c-2.826-0.086-1.218-2.862-0.917-4.336c1.165-5.688,2.803-11.285,3.812-16.996
			c0.686-3.885,2.516-5.321,6.333-4.838c2.455,0.311,4.954,0.265,7.434,0.38c0.011,2.048,0.022,4.097,0.032,6.145
			c-3.305-0.135-4.137,2.037-4.067,4.684C120.008,43.679,122.587,41.936,123.969,42.513z"/>
		<path style="fill:#F5BE9A;" d="M90.281,70.217c8.856,0.531,18.865,4.296,27.496,11.768c2.219,1.921,2.037,3.213,0.313,5.224
			c-5.416,6.317-11.539,7.808-18.966,4.352c-7.116-3.311-11.971-8.789-14.964-15.955C82.002,70.435,82.354,69.974,90.281,70.217z
			 M111.926,82.023c0,0,0.033,0.049,0.033,0.049c0.043-0.108,0.147-0.242,0.116-0.319c-0.08-0.194-0.222-0.363-0.34-0.542
			c-6.45-7.562-15.643-4.301-23.98-6.154c1.308,3.575,2.09,7.074,6.33,7.926l-0.11-0.077c-0.097,1.199,0.904,0.917,1.534,1.137
			c5.422,4.026,11.348,3.836,16.924-0.541C112.679,82.868,113.164,82.151,111.926,82.023z"/>
		<path style="fill:#E9AF8A;" d="M158.019,71.914c5.752-0.172,6.106,0.341,3.682,5.66c-3.067,6.728-7.793,11.838-14.626,14.897
			c-7.141,3.197-12.457,1.812-17.462-4.309c-1.643-2.009-1.435-3.26,0.438-4.871C138.119,76.35,147.412,72.532,158.019,71.914z
			 M152.907,85.08c0.746-0.523,2.056-0.78,1.011-2.147l0.013-0.015c3.479-1.254,4.681-3.289,4.516-7.844
			c-3.762,2.663-8.135,0.87-12.097,1.887c-4.15,1.066-8.926,1.243-10.349,6.611c-1.275,1.871-0.052,2.592,1.471,3.123
			c4.637,1.618,9.237,2.334,13.645-0.685C151.863,85.987,152.607,85.959,152.907,85.08z"/>
		<path style="fill:#F49D76;" d="M130.994,105.996c-2.271,2.479-3.781,6.327-7.561,6.418c-2.904,0.07-8.382-8.735-8.399-12.365
			c-0.005-0.997,0.005-1.994,0.008-2.991c2.844-1.301,5.801-2.189,8.927-2.47c0.014,2.958,0.138,5.923,0.012,8.878
			c-0.139,3.239,0.192,5.426,4.164,3.071c0.783-0.464,1.897-0.368,2.859-0.53L130.994,105.996z"/>
		<path style="fill:#D3624C;" d="M105.958,131.158c3.043,2.534,5.914,5.318,9.162,7.553c7.764,5.344,16.335,4.407,23.004-2.299
			c3.386-3.405,6.655-6.925,9.977-10.393c1.017,0.775,0.846,1.867,0.78,2.93c-2.978,2.381-5.662,5.061-7.935,8.12
			c-3.763,5.065-8.604,8.085-15.049,8.192c-6.933,0.311-11.938-3.317-16.511-7.954c-1.267-1.285-2.856-2.251-4.297-3.364
			C105.379,133.014,105.668,132.086,105.958,131.158z"/>
		<path style="fill:#0F6594;" d="M94.951,119.992c1.68,0.177,1.642,1.546,1.888,2.718C96.204,121.808,94.439,121.692,94.951,119.992
			z"/>
		<path style="fill:#FEFEFE;" d="M101.011,140.974c-0.355,0.341-0.711,0.682-1.066,1.023
			C100.301,141.656,100.656,141.315,101.011,140.974z"/>
		<path style="fill:#FEFEFE;" d="M81.153,124.686c0.057-0.109,0.115-0.217,0.172-0.326c0.174,0.108,0.348,0.216,0.522,0.323
			c-0.115,0.109-0.23,0.303-0.346,0.303C81.385,124.987,81.269,124.794,81.153,124.686z"/>
		<polygon style="fill:#FEFEFE;" points="83.644,123.51 83.25,123.621 83.294,123.297 		"/>
		<path style="fill:#F5BE9A;" d="M165.901,122.019c-0.74-0.327-1.665-0.798-1.382-1.63c0.272-0.796,1.012-0.322,1.477,0.164
			C165.964,121.042,165.932,121.531,165.901,122.019z"/>
		<path style="fill:#FEFEFE;" d="M165.901,122.019c0.032-0.488,0.064-0.976,0.095-1.466c0.482,0.323,0.965,0.648,1.449,0.97
			c-0.265,0.293-0.531,0.589-0.798,0.887C166.367,122.337,166.119,122.206,165.901,122.019z"/>
		<path style="fill:#0F6594;" d="M152.086,120.948c0.321-0.329,0.643-0.659,0.964-0.988
			C152.729,120.29,152.408,120.619,152.086,120.948z"/>
		<path style="fill:#A62527;" d="M110.126,117.135c9.802-1.528,19.015-1.83,28.579-0.004
			C126.02,130.286,122.693,130.084,110.126,117.135z"/>
		<path style="fill:#F49D76;" d="M131.005,106.006c0.132-0.138,0.265-0.276,0.397-0.414c-0.023,0.085-0.019,0.201-0.074,0.247
			c-0.091,0.076-0.221,0.107-0.334,0.157C130.994,105.996,131.005,106.006,131.005,106.006z"/>
		<path style="fill:#0F6594;" d="M123.969,42.513c-1.382-0.577-3.961,1.166-4.041-1.873c-0.07-2.647,0.762-4.82,4.067-4.684
			c3.262-0.128,4.261,1.904,4.119,4.647C127.959,43.593,125.351,41.851,123.969,42.513z"/>
		<path style="fill:#F9FAFB;" d="M112.433,83.503c-5.576,4.377-11.502,4.567-16.924,0.541c-0.511-0.379-1.022-0.758-1.533-1.137
			c0,0,0.11,0.077,0.11,0.077c-1.441-2.495-1.485-4.229,2.148-4.09c1.269,0.049,2.544-0.059,3.816-0.095
			c-0.069,2.119-0.271,4.472,2.507,4.956c2.778,0.485,3.513-1.567,3.85-3.803c1.309,0.531,2.618,1.063,3.927,1.594
			c0.45,0.459,0.783,1.282,1.626,0.526c0,0-0.033-0.049-0.033-0.049C111.405,82.753,112.185,83.037,112.433,83.503z"/>
		<path style="fill:#151515;" d="M100.048,78.798c-1.272,0.036-2.547,0.144-3.816,0.095c-3.633-0.139-3.589,1.595-2.148,4.09
			c-4.24-0.852-5.022-4.352-6.33-7.926c8.337,1.852,17.53-1.408,23.977,6.151c-0.468,0.111-0.934,0.225-1.4,0.339
			c-1.309-0.531-2.618-1.063-3.93-1.594C104.486,78.449,102.258,78.677,100.048,78.798z"/>
		<path style="fill:#A62527;" d="M110.333,81.546c0.466-0.114,0.931-0.228,1.4-0.339c0.12,0.182,0.262,0.351,0.342,0.545
			c0.032,0.077-0.073,0.211-0.115,0.319C111.116,82.829,110.783,82.005,110.333,81.546z"/>
		<path style="fill:#A62527;" d="M112.433,83.503c-0.248-0.466-1.028-0.75-0.507-1.48C113.164,82.151,112.679,82.868,112.433,83.503
			z"/>
		<path style="fill:#151515;" d="M93.975,82.907c0.511,0.379,1.022,0.758,1.533,1.137C94.879,83.824,93.878,84.105,93.975,82.907z"
			/>
		<path style="fill:#F9FAFB;" d="M151.118,86.011c-4.408,3.019-9.008,2.303-13.645,0.685c-1.523-0.531-2.745-1.252-1.471-3.123
			c1.88-1.452,3.902-2.631,6.215-3.257c0.212,2.395,0.478,4.926,3.746,4.655c3.391-0.281,3.021-2.837,2.693-5.217
			c2.114,0.463,5.801-1.699,5.276,3.163c0,0-0.013,0.015-0.013,0.015c-0.447,0.419-0.895,0.838-1.343,1.257
			C151.877,84.627,151.149,85.04,151.118,86.011z"/>
		<path style="fill:#151515;" d="M153.932,82.918c0.524-4.863-3.163-2.701-5.277-3.163c-2.203-0.458-4.334-0.106-6.439,0.561
			c-2.312,0.626-4.335,1.806-6.215,3.257c1.424-5.369,6.2-5.546,10.35-6.612c3.962-1.018,8.335,0.776,12.097-1.887
			C158.613,79.629,157.411,81.664,153.932,82.918z"/>
		<path style="fill:#D3624C;" d="M151.118,86.011c0.031-0.971,0.759-1.384,1.46-1.823c0.189,0.268,0.298,0.565,0.329,0.892
			C152.607,85.959,151.863,85.987,151.118,86.011z"/>
		<path style="fill:#151515;" d="M152.907,85.08c-0.031-0.326-0.14-0.624-0.329-0.892c0.446-0.417,0.893-0.837,1.341-1.255
			C154.964,84.3,153.653,84.557,152.907,85.08z"/>
		<path style="fill:#1473B7;" d="M100.048,78.798c2.209-0.121,4.438-0.349,6.354,1.154c-0.334,2.235-1.069,4.287-3.847,3.802
			C99.777,83.27,99.979,80.918,100.048,78.798z"/>
		<path style="fill:#1473B7;" d="M142.216,80.316c2.104-0.667,4.236-1.019,6.439-0.561c0.329,2.38,0.698,4.936-2.692,5.216
			C142.694,85.242,142.429,82.711,142.216,80.316z"/>
	</g>
</g>
</svg>
