<?xml version="1.0" encoding="iso-8859-1"?>
<!-- Generator: Adobe Illustrator 23.0.3, SVG Export Plug-In . SVG Version: 6.00 Build 0)  -->
<svg version="1.1" id="Layer_1" xmlns="http://www.w3.org/2000/svg" xmlns:xlink="http://www.w3.org/1999/xlink" x="0px" y="0px"
	 viewBox="0 0 250 250" style="enable-background:new 0 0 250 250;" xml:space="preserve">
<g>
	<g>
		<path style="fill:none;" d="M127,251c-42,0-84,0-126,0C1,169,1.027,87,0.904,5C0.899,1.576,1.576,0.899,5,0.904
			c80.666,0.124,161.333,0.124,242,0c3.424-0.005,4.101,0.672,4.096,4.096c-0.124,80.666-0.124,161.333,0,242
			c0.005,3.424-0.67,4.112-4.096,4.099C207.334,250.944,167.667,251,128,251c4.428-4.259,8.834-8.541,13.288-12.773
			c21.812-20.723,43.643-41.425,65.442-62.162c1.638-1.558,3.407-2.926,3.34-5.754c-0.194-8.146-0.135-16.3-0.022-24.448
			c0.028-2.034-0.642-3.046-2.6-3.421c-4.065-0.78-8.116-1.638-12.172-2.465c-8.945-2.192-17.889-4.386-26.835-6.574
			c-4.821-1.179-10.581-0.865-11.938-7.533c-0.03-5.231-0.058-10.462-0.087-15.693c0.434-2.796,2.737-4.38,4.192-6.518
			c3.659-5.376,2.317-11.752,3.395-17.648c7.443-3.3,12.914-14.047,10.731-21.455c-0.853-2.894-2.541-5.143-6.191-4.183
			c-1.28-1.146-2.56-2.291-3.839-3.437c0.321-7.625,0.66-15.249,0.959-22.874c0.725-18.482,0.689-18.417-16.425-25.884
			c-11.79-5.144-23.724-6.776-36.382-3.36c-9.13,2.464-18.068,5.496-27.143,8.081c-4.322,1.231-6.267,2.704-3.668,7.06l-0.167,0.156
			c-2.05-0.003-2.799,0.711-2.46,3.004c1.675,11.323,3.153,22.676,4.701,34.018c-1.291,0.974-2.582,1.948-3.873,2.922
			c-2.936-0.029-4.441,1.642-5.279,4.271c-2.623,8.237,3.583,19.684,11.995,22.044c-0.567,9.51,0.159,18.555,8.726,24.881
			c0.464,0.342,0.583,1.151,0.864,1.743c-0.005,4.627-0.01,9.254-0.016,13.881c-1.052,2.596-3.029,3.616-5.748,4.278
			c-11.346,2.764-22.62,5.826-33.92,8.779c-2.913,0.631-5.801,1.612-8.743,1.814c-4.714,0.323-5.4,2.913-5.192,6.943
			c0.376,7.305,0.516,14.635,0.377,21.947c-0.064,3.344,1.109,5.536,3.536,7.697c14.409,12.829,28.667,25.829,43.037,38.703
			c11.635,10.423,23.357,20.748,35.041,31.117C125.616,249.104,126.308,250.052,127,251z"/>
		<path style="fill:#FC7330;" d="M127,251c-0.692-0.948-1.384-1.896-2.076-2.844c0.026-15.37,0.052-30.741,0.078-46.112
			c1.94,1.263,2.959-0.285,4.135-1.354c8.245-7.497,16.524-14.958,24.728-22.499c13.828-12.711,27.609-25.473,41.41-38.214
			c4.056,0.826,8.107,1.685,12.172,2.465c1.958,0.376,2.628,1.387,2.6,3.421c-0.113,8.149-0.172,16.303,0.022,24.448
			c0.068,2.827-1.701,4.195-3.34,5.754c-21.799,20.736-43.63,41.439-65.442,62.162c-4.454,4.232-8.86,8.514-13.288,12.773
			C127.667,251,127.333,251,127,251z"/>
		<path style="fill:#0C6594;" d="M195.275,139.978c-13.801,12.741-27.582,25.503-41.41,38.214
			c-8.204,7.541-16.483,15.002-24.728,22.499c-1.175,1.069-2.195,2.617-4.135,1.354c-7.719-7.062-15.425-14.137-23.158-21.183
			c-14.984-13.651-29.982-27.285-44.975-40.926c11.3-2.953,22.574-6.015,33.92-8.779c2.719-0.662,4.696-1.683,5.75-4.279
			c4.875,2.497,9.645,5.229,14.652,7.419c4.204,1.839,7.165,4.394,8.715,8.846c1.104,3.172,2.942,6.088,4.786,9.787
			c2.321-3.711,4.262-6.545,5.308-9.889c2.122-4.606,5.793-7.272,10.419-9.224c5.5-2.321,10.735-5.27,16.085-7.947
			c1.356,6.668,7.115,6.354,11.936,7.533C177.386,135.592,186.33,137.786,195.275,139.978z M127.386,165.438
			c-2.174-2.927-2.224,0.526-2.394,1.053c-1.411,4.363-4.5,6.16-8.844,6.347c-0.919,0.04-1.83,0.254-4.05,0.579
			c6.539,4.142,8.645,9.153,5.076,16.807c3.929-2.104,6.383-3.418,8.837-4.733c2.842,1.199,5.685,2.399,9.625,4.062
			c-3.51-7.171-0.855-12.034,4.428-16.274C133.611,173.513,129.466,171.066,127.386,165.438z"/>
		<path style="fill:#FD9220;" d="M56.869,139.936c14.993,13.641,29.991,27.275,44.975,40.926
			c7.733,7.045,15.44,14.121,23.158,21.183c-0.026,15.371-0.052,30.741-0.078,46.112c-11.684-10.369-23.406-20.694-35.041-31.117
			c-14.37-12.873-28.628-25.873-43.037-38.703c-2.427-2.161-3.6-4.353-3.536-7.697c0.139-7.312-0.001-14.642-0.377-21.947
			c-0.208-4.03,0.478-6.62,5.192-6.943C51.067,141.548,53.956,140.567,56.869,139.936z"/>
		<path style="fill:#FEC321;" d="M82.046,19.959c-2.599-4.357-0.654-5.829,3.668-7.06c9.074-2.586,18.013-5.618,27.143-8.081
			c12.658-3.416,24.592-1.784,36.382,3.36c17.115,7.467,17.151,7.403,16.425,25.884c-0.299,7.626-0.638,15.25-0.959,22.874
			c-0.614-0.592-1.228-1.185-1.843-1.777c-0.399-3.817,2.072-8.578-1.832-11.215c-4.022-2.717-4.514-5.552-3.146-9.674
			c0.593-1.788,0.445-3.822,0.664-6.064c-2.371,0.651-4.43,1.177-6.466,1.783c-8.899,2.649-18.13,1.659-27.193,2.507
			c-8.905-0.762-17.897,0.01-26.756-1.52c-4.712-0.814-5.889,1.026-4.655,5.497c0.708,2.566,1.792,5.775-1.587,7.519
			c-4.787,2.47-5.713,6.39-4.735,11.204c-0.764,1.035-1.781,1.673-3.035,1.942c-1.548-11.342-3.026-22.695-4.701-34.018
			c-0.339-2.292,0.41-3.007,2.463-3.006c0.14,0.18,0.271,0.368,0.427,0.534c0.011,0.011,0.203-0.148,0.311-0.227
			C82.428,20.266,82.237,20.113,82.046,19.959z"/>
		<path style="fill:#F6BF9B;" d="M96.551,112.998c-0.28-0.592-0.399-1.4-0.863-1.742c-8.567-6.326-9.293-15.372-8.726-24.883
			c0.114-5.246,0.228-10.49,0.342-15.734c2.456,3.329,5.054,6.564,7.319,10.019c1.636,2.495,2.901,3.207,5.815,1.384
			c5.955-3.726,12.582-5.853,19.688-6.187c0.071,4.51-0.968,8.846-1.903,13.221c-1.166,5.454,1.013,8.567,6.695,10.093
			c-0.008,1.489-0.016,2.979-0.024,4.468c-1.974,0.011-3.948,0.022-5.922,0.032c-1.362-0.825-2.711-0.997-4.264-0.062
			c1.45,1.065,2.797,1.523,4.334,1.303c1.95,0.151,3.9,0.302,5.851,0.453c0.003,8.777,0.006,17.553,0.008,26.33
			c-1.992,0.318-3.972,0.334-5.93-0.226c-3.08-1.343-5.637-3.353-7.969-5.78C106.552,121.054,101.964,116.548,96.551,112.998z"/>
		<path style="fill:#F59D76;" d="M124.894,103.636c0.008-1.489,0.016-2.979,0.025-4.47c0.001-0.002,0.093-0.203,0.093-0.203
			c6.674-0.029,9.131-2.972,7.791-9.761c-0.861-4.364-2.093-8.654-1.82-13.166c5.037,0.277,9.588,2.358,14.274,3.908
			c3.434,1.136,7.139,4.004,10.1,3.336c3.355-0.756,4.497-5.734,6.894-8.657c0.204-0.249,0.494-0.426,0.744-0.637
			c2.089,3.861,0.483,8.032,1.007,12.024c-1.078,5.896,0.264,12.273-3.395,17.648c-1.455,2.139-3.759,3.722-4.192,6.518
			c-4.663,2.184-7.266,6.523-10.585,10.114c-5.69,6.157-10.627,13.707-20.929,11.401c-0.003-8.777-0.006-17.553-0.008-26.331
			c2.031-0.142,4.063-0.282,6.094-0.423c1.414-0.391,2.829-0.782,4.243-1.172c-1.55-0.669-2.98-1.222-4.196,0.014
			C128.988,103.733,126.941,103.684,124.894,103.636z"/>
		<path style="fill:#0E5473;" d="M162.997,73.986c-0.25,0.211-0.54,0.388-0.744,0.637c-2.397,2.923-3.539,7.901-6.894,8.657
			c-2.961,0.668-6.667-2.2-10.1-3.336c-4.686-1.55-9.237-3.631-14.274-3.908c-1.917-0.828-3.894-1.236-5.984-0.865
			c-0.327-0.107-0.654-0.214-0.981-0.322c0.003-2.238,0.006-4.476,0.008-6.715c0.319-0.102,0.638-0.204,0.957-0.306
			c9.956-1.062,18.87-4.417,26.149-11.583c1.952-1.921,2.535-6.08,5.132-5.924c2.287,0.137,4.404,3.115,6.596,4.838
			c0.614,0.592,1.229,1.185,1.843,1.777c1.28,1.146,2.559,2.291,3.84,3.437c1.346,1.458,1.776,2.808,0.375,4.672
			C166.775,67.898,164.954,70.994,162.997,73.986z M158.265,68.271c-2.47,0.194-4.108,0.346-5.749,0.445
			c-2.237,0.135-5.109-0.65-3.872,3.542c0.296,1.002-1.088,1.916-2.454,1.889c-1.37-0.027-2.516-0.777-2.35-2.032
			c0.498-3.756-1.92-2.541-3.676-2.288c-1.363,0.197-2.936-0.261-4.152,0.885C142.176,78.169,151.462,77.385,158.265,68.271z"/>
		<path style="fill:#0F6695;" d="M124.028,68.134c-0.003,2.238-0.006,4.476-0.009,6.715c-1.298,0.335-2.595,0.67-3.892,1.006
			c-7.106,0.333-13.732,2.461-19.688,6.187c-2.914,1.823-4.179,1.111-5.815-1.384c-2.265-3.454-4.863-6.69-7.32-10.019
			c-2.353-3.526-4.705-7.052-7.057-10.578c1.291-0.974,2.582-1.948,3.873-2.922c1.254-0.269,2.272-0.906,3.035-1.941
			c1.92-1.281,4.004-2.378,5.714-3.895c1.769-1.569,2.774-1.663,4.263,0.395C103.786,60.893,112.98,66.06,124.028,68.134z
			 M106.301,69.085c-1.146-0.024-2.292-0.048-3.438-0.072c-3.36,0.104-6.729-1.18-10.381-0.303
			c7.245,8.862,16.894,9.468,22.158,1.652C111.832,69.932,109.067,69.509,106.301,69.085z"/>
		<path style="fill:#C9573D;" d="M124.902,131.692c10.302,2.306,15.239-5.244,20.929-11.401c3.319-3.591,5.922-7.93,10.585-10.114
			c0.028,5.231,0.056,10.462,0.086,15.693c-5.348,2.677-10.583,5.626-16.084,7.947c-4.626,1.952-8.297,4.618-10.419,9.224
			c-3.4-4.121-9.64-5.537-11.028-11.575C120.931,132.027,122.911,132.011,124.902,131.692z"/>
		<path style="fill:#D17357;" d="M118.972,131.467c1.388,6.038,7.628,7.453,11.028,11.575c-1.047,3.344-2.987,6.177-5.309,9.889
			c-1.844-3.699-3.682-6.615-4.786-9.787c-1.55-4.452-4.511-7.007-8.715-8.846c-5.007-2.19-9.777-4.922-14.652-7.419
			c0.004-4.627,0.009-9.254,0.014-13.881c5.412,3.551,9.999,8.056,14.452,12.689C113.335,128.113,115.892,130.124,118.972,131.467z"
			/>
		<path style="fill:#F3906A;" d="M80.246,60.059c2.352,3.526,4.704,7.052,7.057,10.578c-0.113,5.245-0.227,10.489-0.341,15.735
			c-8.412-2.357-14.618-13.805-11.995-22.042C75.805,61.701,77.31,60.03,80.246,60.059z"/>
		<path style="fill:#F3906A;" d="M162.997,73.986c1.958-2.993,3.778-6.089,5.922-8.941c1.401-1.864,0.972-3.214-0.375-4.672
			c3.649-0.96,5.337,1.289,6.19,4.183c2.183,7.408-3.288,18.155-10.731,21.455C163.48,82.018,165.086,77.848,162.997,73.986z"/>
		<path style="fill:#F4F7F8;" d="M126.011,185.491c-2.454,1.314-4.908,2.628-8.837,4.733c3.57-7.654,1.464-12.665-5.076-16.807
			c2.22-0.325,3.131-0.539,4.05-0.579c4.344-0.188,7.433-1.984,8.844-6.347c0.17-0.527,0.22-3.98,2.393-1.051
			c-0.136,2.466-0.186,4.94-0.425,7.395C126.551,177.047,128.041,181.403,126.011,185.491z"/>
		<path style="fill:#CFD2D4;" d="M126.011,185.491c2.03-4.088,0.54-8.444,0.95-12.657c0.239-2.455,0.289-4.928,0.425-7.395
			c2.08,5.627,6.226,8.074,12.679,7.84c-5.284,4.24-7.939,9.103-4.428,16.274C131.696,187.89,128.853,186.69,126.011,185.491z"/>
		<path style="fill:#F59D76;" d="M162.862,55.159c-2.192-1.723-4.309-4.701-6.596-4.838c-2.598-0.156-3.181,4.003-5.132,5.924
			c-7.279,7.166-16.194,10.522-26.149,11.583c-0.032-11.777-0.064-23.555-0.096-35.332c9.063-0.849,18.294,0.141,27.193-2.507
			c2.036-0.606,4.095-1.132,6.466-1.783c-0.22,2.242-0.071,4.277-0.664,6.064c-1.368,4.122-0.877,6.957,3.146,9.674
			C164.934,46.582,162.463,51.342,162.862,55.159z"/>
		<path style="fill:#F6BF9B;" d="M124.888,32.496c0.032,11.777,0.064,23.555,0.096,35.332c-0.319,0.102-0.638,0.204-0.957,0.306
			c-11.047-2.074-20.242-7.241-26.896-16.438c-1.489-2.058-2.495-1.964-4.263-0.395c-1.711,1.517-3.795,2.614-5.714,3.895
			c-0.977-4.814-0.051-8.734,4.736-11.204c3.379-1.744,2.295-4.953,1.587-7.519c-1.234-4.47-0.057-6.31,4.655-5.497
			C106.991,32.506,115.984,31.734,124.888,32.496z"/>
		<path style="fill:#FEFEFE;" d="M82.046,19.959c0.191,0.153,0.382,0.307,0.573,0.46c-0.108,0.08-0.3,0.239-0.311,0.227
			c-0.156-0.165-0.287-0.354-0.427-0.534C81.878,20.115,82.046,19.959,82.046,19.959z"/>
		<path style="fill:#F3906A;" d="M120.126,75.854c1.297-0.335,2.595-0.67,3.892-1.006c0.327,0.107,0.654,0.214,0.981,0.322
			c0.004,7.931,0.009,15.862,0.013,23.793c0,0-0.092,0.201-0.093,0.203c-5.683-1.524-7.862-4.637-6.696-10.091
			C119.158,84.701,120.197,80.364,120.126,75.854z"/>
		<path style="fill:#C9573D;" d="M124.894,103.636c2.047,0.048,4.094,0.096,6.14,0.146c-0.016,0.387-0.031,0.771-0.046,1.156
			c-2.031,0.14-4.063,0.281-6.094,0.423c-1.95-0.15-3.901-0.301-5.851-0.451c-0.024-0.414-0.047-0.827-0.071-1.241
			C120.946,103.658,122.92,103.647,124.894,103.636z"/>
		<path style="fill:#EC7853;" d="M118.973,103.669c0.024,0.414,0.047,0.828,0.071,1.241c-1.537,0.22-2.884-0.238-4.334-1.303
			C116.262,102.672,117.61,102.844,118.973,103.669z"/>
		<path style="fill:#EC7853;" d="M125.013,98.963c-0.004-7.931-0.009-15.862-0.013-23.793c2.09-0.37,4.068,0.038,5.984,0.865
			c-0.273,4.513,0.959,8.802,1.82,13.166C134.144,95.991,131.687,98.934,125.013,98.963z"/>
		<path style="fill:#D17357;" d="M130.988,104.938c0.015-0.385,0.03-0.769,0.046-1.156c1.218-1.238,2.648-0.685,4.197-0.016
			C133.817,104.157,132.403,104.548,130.988,104.938z"/>
		<path style="fill:#E6EDF1;" d="M158.265,68.271c-6.802,9.114-16.089,9.898-22.252,2.442c1.216-1.145,2.788-0.688,4.152-0.885
			c1.756-0.253,4.173-1.469,3.676,2.288c-0.166,1.254,0.979,2.005,2.35,2.032c1.366,0.027,2.75-0.887,2.454-1.889
			c-1.237-4.192,1.635-3.407,3.872-3.542C154.157,68.616,155.795,68.464,158.265,68.271z"/>
		<path style="fill:#E6EDF1;" d="M106.301,69.085c2.766,0.423,5.532,0.847,8.339,1.277c-5.264,7.816-14.913,7.21-22.158-1.652
			c3.652-0.878,7.021,0.407,10.381,0.303c-0.701,1.591-1.921,3.241,0.058,4.73c0.804,0.605,1.894,0.623,2.779,0.086
			C107.835,72.532,106.748,70.752,106.301,69.085z"/>
		<path style="fill:#0E5473;" d="M106.301,69.085c0.447,1.667,1.535,3.447-0.601,4.743c-0.884,0.537-1.975,0.519-2.779-0.086
			c-1.979-1.489-0.759-3.138-0.058-4.73C104.009,69.037,105.155,69.061,106.301,69.085z"/>
	</g>
</g>
</svg>
