<?xml version="1.0" encoding="iso-8859-1"?>
<!-- Generator: Adobe Illustrator 23.0.3, SVG Export Plug-In . SVG Version: 6.00 Build 0)  -->
<svg version="1.1" id="Layer_1" xmlns="http://www.w3.org/2000/svg" xmlns:xlink="http://www.w3.org/1999/xlink" x="0px" y="0px"
	 viewBox="0 0 250 250" style="enable-background:new 0 0 250 250;" xml:space="preserve">
<g>
	<g>
		<path style="fill:none;" d="M125,251c-41.333,0-82.667,0-124,0C1,167.667,1,84.333,1,1c82,0,164,0.027,246-0.096
			c3.424-0.005,4.101,0.672,4.096,4.096c-0.124,80.666-0.124,161.333,0,242c0.005,3.424-0.67,4.112-4.096,4.099
			C207,250.945,167,251,127,251c0.54-0.613,1.012-1.307,1.629-1.827c24.062-20.282,48.047-40.658,72.294-60.715
			c4.469-3.697,7.012-7.286,6.357-13.328c-0.589-5.434-0.302-10.989-0.056-16.476c0.141-3.144-0.978-4.249-4.023-4.921
			c-15.42-3.4-30.779-7.079-46.159-10.661c-0.114-10.668-0.227-21.336-0.34-32.004c5.784-7.054,6.441-15.451,6.304-24.057
			c7.108-1.653,12.555-8.642,12.982-16.805c0.165-3.151,0.466-6.555-2.565-8.629c-2.973-2.035-5.664-0.027-8.32,1.237
			c0.022-10.97-0.082-21.942,0.139-32.907c0.072-3.597-0.964-6.394-3.365-8.968c-9.71-10.414-21.909-14.412-35.817-14.122
			c-2.819-0.799-5.645-0.077-8.389,0.26c-11.3,1.389-21.111,5.772-28.194,15.107c-1.411,1.859-2.478,3.778-2.335,6.357
			c0.452,8.134,0.674,16.281,0.985,24.424c0.031,2.371,0.062,4.743,0.092,7.114c-0.228,1.022-0.085,2.176-1.046,2.936
			c-6.124-3.716-9.572-2.655-10.818,3.262c-1.339,6.361,4.456,20.178,12.647,20.706c1.061,8.241-0.949,17.249,6.003,24.018
			c-0.145,10.78-0.29,21.56-0.435,32.34c-13.712,3.427-27.394,6.979-41.156,10.192c-3.372,0.787-4.672,1.975-4.507,5.584
			c0.318,6.983,0.265,13.997,0.018,20.986c-0.117,3.317,0.962,5.519,3.468,7.654c15.845,13.497,31.634,27.06,47.302,40.762
			C108.187,235.944,117.144,242.855,125,251z"/>
		<path style="fill:#248BAE;" d="M157.042,143.072c15.38,3.582,30.739,7.261,46.159,10.661c3.046,0.671,4.164,1.777,4.023,4.921
			c-0.246,5.486-0.533,11.042,0.056,16.476c0.655,6.042-1.888,9.63-6.357,13.328c-24.248,20.058-48.232,40.434-72.294,60.715
			c-0.618,0.521-1.089,1.214-1.629,1.827c-0.333,0-0.667,0-1,0c-0.006-4.118,0.153-8.245-0.061-12.353
			c-0.272-5.214,1.051-10.53-0.924-15.641c0.755-0.292,1.753-0.369,2.228-0.907c8.778-9.943,18.398-19.066,27.679-28.518
			c1.758-1.79,0.802-3.134-0.515-4.684c-5.643-6.64-11.707-12.102-21.487-9.959c-2.212,0.485-4.627,0.043-6.948,0.027
			c-0.012-4.189-0.024-8.379-0.036-12.568c1.972-0.145,3.946-0.27,5.917-0.438C147.763,164.602,156.353,156.794,157.042,143.072z"/>
		<path style="fill:#2CA8DD;" d="M125.936,166.397c0.012,4.189,0.024,8.379,0.036,12.569c-0.276,0.082-0.557,0.142-0.842,0.182
			c-10.721-1.316-20.616-0.434-27.995,9.037c-1.86,2.387-2.02,3.549,0.099,5.645c3.754,3.714,7.277,7.694,10.921,11.495
			c5.441,5.675,10.136,12.144,16.613,16.804c0.059,0.299,0.141,0.592,0.247,0.879c1.975,5.111,0.651,10.427,0.924,15.641
			c0.214,4.107,0.055,8.234,0.061,12.353c-0.333,0-0.667,0-1,0c-7.856-8.145-16.813-15.056-25.306-22.484
			c-15.667-13.702-31.457-27.265-47.302-40.762c-2.505-2.134-3.585-4.337-3.468-7.654c0.247-6.989,0.3-14.003-0.018-20.986
			c-0.164-3.609,1.136-4.797,4.507-5.584c13.762-3.213,27.444-6.765,41.155-10.189c-0.561,8.33,2.974,14.247,10.331,18.139
			C111.513,164.98,118.628,166.03,125.936,166.397z"/>
		<path style="fill:#562D24;" d="M125.936,166.397c-7.308-0.367-14.424-1.418-21.036-4.916c-7.356-3.892-10.891-9.809-10.331-18.139
			c0.145-10.783,0.29-21.563,0.435-32.343c6.424,5.935,12.877,11.839,19.265,17.812c7.513,7.025,20.324,5.675,27.012-1.982
			c4.809-5.506,8.962-11.812,15.42-15.761c0.113,10.668,0.227,21.336,0.34,32.004c-0.689,13.722-9.279,21.53-25.189,22.887
			C129.883,166.127,127.909,166.252,125.936,166.397z"/>
		<path style="fill:#835A4A;" d="M156.702,111.068c-6.457,3.95-10.611,10.256-15.42,15.761c-6.688,7.657-19.499,9.007-27.012,1.982
			c-6.388-5.973-12.841-11.878-19.265-17.812c-6.952-6.769-4.941-15.777-6.003-24.018c0.399-2.022-0.836-4.346,1.121-6.081
			c1.849,1.057,3.809,1.961,5.529,3.198c7.042,5.061,14.352,9.412,23.351,9.763c2.321,0.024,4.642,0.048,6.963,0.072
			c9.347,0.473,17.983-1.479,25.696-7.086c3.328-2.42,6.963-4.418,10.458-6.608c-0.154,1.356,0.233,2.582,0.895,3.743
			c-0.003,1.01-0.006,2.019-0.01,3.029C163.142,95.616,162.486,104.014,156.702,111.068z M136.933,104.195
			c-7.286,0-14.573,0-21.86,0C122.363,106.729,129.649,106.578,136.933,104.195z"/>
		<path style="fill:#825949;" d="M88.219,60.077c-0.031-2.371-0.062-4.743-0.092-7.114c4.188-2.738,9.436-4.56,7.56-11.536
			c-1.466-5.451-0.608-5.832,5.069-5.115c8.38,1.058,16.788,2.204,25.285,1.431c9.46,0.057,18.889-0.514,28.028-3.039
			c4.101-1.133,4.088,0.179,3.48,3.507c-0.477,2.611-2.887,6.386-0.424,7.836c5.766,3.396,5.071,8.331,4.889,13.437
			c-5.575-0.966-10.359-5.13-16.665-3.39c-6.366,1.757-12.935,2.776-19.415,4.119c-2.92-0.51-5.928-0.731-8.745-1.581
			C107.325,55.655,97.635,54.726,88.219,60.077z"/>
		<path style="fill:#3C2516;" d="M126.041,37.742c-8.497,0.773-16.905-0.374-25.285-1.431c-5.677-0.716-6.536-0.336-5.069,5.115
			c1.877,6.976-3.372,8.799-7.56,11.536c-0.311-8.142-0.533-16.289-0.985-24.423c-0.143-2.58,0.924-4.499,2.335-6.357
			c7.084-9.335,16.894-13.718,28.194-15.107c2.744-0.337,5.571-1.059,8.389-0.26C126.054,17.124,126.047,27.433,126.041,37.742z"/>
		<path style="fill:#2E1B11;" d="M126.041,37.742c0.006-10.309,0.013-20.618,0.019-30.927c13.909-0.29,26.107,3.708,35.817,14.122
			c2.401,2.575,3.437,5.372,3.365,8.968c-0.22,10.966-0.116,21.938-0.139,32.907c-0.266,0.414-0.533,0.828-0.799,1.242
			c-0.683-1.563-0.888-3.364-2.289-4.567c0.181-5.111,0.876-10.045-4.89-13.441c-2.463-1.451-0.054-5.226,0.424-7.836
			c0.608-3.328,0.62-4.64-3.48-3.507C144.929,37.229,135.501,37.799,126.041,37.742z"/>
		<path style="fill:#2DA5D9;" d="M88.219,60.077c9.417-5.351,19.106-4.422,28.971-1.446c2.818,0.85,5.825,1.072,8.745,1.581
			c-0.026,2.604-0.053,5.209-0.079,7.813c-0.535,0.321-1.473,0.57-1.545,0.973c-1.483,8.35-4.729,16.324-5.308,24.862
			c-8.999-0.35-16.309-4.702-23.351-9.763c-1.72-1.236-3.68-2.141-5.529-3.197c-3.529-5.542-4.442-11.516-2.951-17.887
			C88.134,62.253,87.991,61.099,88.219,60.077z M109.516,68.329c-1.181-0.004-2.363-0.007-3.544-0.011
			c-3.703-0.125-7.406-0.25-11.109-0.376c-1.335-0.667-3.034-1.736-4.078-0.379c-1.29,1.678,0.944,2.47,1.81,3.457
			c4.368,4.977,10.937,5.94,16.467,8.807c0.877,0.455,2,0.23,2.829-0.435c3.419-2.743,7.501-4.903,8.756-9.777
			c-1.34-1.02-2.862-0.529-4.288-0.607C114.181,67.739,111.823,68.292,109.516,68.329z"/>
		<path style="fill:#593229;" d="M164.305,64.055c0.266-0.414,0.533-0.828,0.799-1.242c2.656-1.264,5.346-3.272,8.32-1.237
			c3.03,2.074,2.729,5.479,2.565,8.629c-0.427,8.163-5.874,15.152-12.982,16.805c0.003-1.01,0.006-2.02,0.01-3.029
			c1.94-2.134,0.667-4.697,0.941-7.053l-0.042,0.066c1.541-1.106,1.317-2.437,0.491-3.845
			C165.071,70.11,165.534,67.073,164.305,64.055z"/>
		<path style="fill:#593229;" d="M87.173,63.013c-1.491,6.371-0.578,12.345,2.951,17.887c-1.958,1.734-0.723,4.058-1.122,6.08
			c-8.191-0.528-13.986-14.345-12.647-20.706C77.6,60.358,81.049,59.298,87.173,63.013z"/>
		<path style="fill:#175E8D;" d="M125.131,179.148c0.285-0.039,0.566-0.1,0.842-0.182c2.321,0.015,4.736,0.457,6.948-0.028
			c9.78-2.143,15.844,3.319,21.487,9.959c1.317,1.55,2.273,2.894,0.515,4.684c-9.281,9.452-18.901,18.575-27.679,28.518
			c-0.475,0.538-1.474,0.615-2.228,0.907c-0.105-0.286-0.188-0.579-0.245-0.879c0.099-1.579,0.196-3.157,0.292-4.735
			c7.434-5.692,13.173-13.109,19.849-19.576c6.541-6.337,6.308-6.479-0.405-12.561c-1.513-1.371-3.072-1.746-4.974-1.73
			c-4.829,0.041-9.659-0.015-14.489-0.033C125.072,182.043,125.102,180.596,125.131,179.148z"/>
		<path style="fill:#2C7FC0;" d="M125.131,179.148c-0.029,1.448-0.058,2.896-0.088,4.343c-2.83,0.043-5.68,0.316-8.487,0.08
			c-5.074-0.428-9.291,0.646-12.971,4.578c-2.14,2.287-2.625,3.41-0.279,5.84c7.396,7.662,14.525,15.582,21.757,23.403
			c-0.097,1.578-0.193,3.156-0.292,4.735c-6.479-4.659-11.174-11.128-16.615-16.803c-3.644-3.801-7.167-7.781-10.921-11.495
			c-2.119-2.096-1.959-3.258-0.099-5.645C104.515,178.713,114.41,177.832,125.131,179.148z"/>
		<path style="fill:#248AAD;" d="M164.305,64.055c1.23,3.018,0.766,6.056,0.099,9.095c-0.164,1.282-0.327,2.563-0.49,3.845
			c0,0,0.042-0.066,0.042-0.066c-0.612,1.104-1.223,2.207-1.835,3.311c-3.495,2.19-7.13,4.188-10.458,6.608
			c-7.713,5.607-16.35,7.559-25.696,7.086c-0.037-8.636-0.073-17.272-0.11-25.908c0.026-2.604,0.053-5.209,0.079-7.813
			c6.48-1.342,13.049-2.362,19.414-4.118c6.306-1.74,11.091,2.424,16.665,3.39C163.416,60.691,163.622,62.492,164.305,64.055z
			 M143.233,68.287c-2.646-0.05-5.292-0.1-7.937-0.15c-1.73,0.219-4.44-1.206-4.543,1.986c-0.102,3.161,8.625,10.802,11.519,9.667
			c6.361-2.494,13.494-3.964,17.697-10.29c0.817-1.23,0.98-2.482-0.788-2.377c-5.056,0.3-10.233-1.315-15.173,0.877
			C143.799,68.228,143.541,68.324,143.233,68.287z"/>
		<path style="fill:#2CA8DD;" d="M125.856,68.025c0.037,8.636,0.074,17.272,0.11,25.908c-2.321-0.024-4.642-0.048-6.963-0.072
			c0.579-8.538,3.825-16.512,5.308-24.862C124.383,68.595,125.321,68.346,125.856,68.025z"/>
		<path style="fill:#593229;" d="M136.933,104.195c-7.283,2.384-14.57,2.534-21.86,0
			C122.36,104.195,129.646,104.195,136.933,104.195z"/>
		<path style="fill:#3C2516;" d="M162.121,80.239c0.612-1.104,1.223-2.207,1.835-3.311c-0.274,2.356,1,4.919-0.941,7.053
			C162.354,82.821,161.967,81.595,162.121,80.239z"/>
		<path style="fill:#2078BC;" d="M116.358,69.008c1.425,0.079,2.948-0.413,4.288,0.607c-1.254,4.874-5.337,7.034-8.756,9.777
			c-0.829,0.665-1.952,0.89-2.829,0.435c-5.53-2.867-12.099-3.83-16.467-8.807c-0.866-0.987-3.101-1.779-1.81-3.457
			c1.044-1.358,2.743-0.289,4.078,0.379c1.799,6.598,7.544,3.794,11.651,4.89c-0.001,0.001,0.091,0.115,0.091,0.115
			c0.741,0.675,1.548,1.148,2.606,0.845C113.358,74.835,114.63,71.581,116.358,69.008z"/>
		<path style="fill:#F8FAFC;" d="M106.514,72.832c-4.108-1.096-9.853,1.709-11.652-4.889c3.703,0.125,7.406,0.25,11.109,0.374
			C105.155,69.941,105.381,71.441,106.514,72.832z"/>
		<path style="fill:#D8E4EE;" d="M116.358,69.008c-1.728,2.572-3,5.826-7.147,4.785c-0.098-0.319-0.27-0.592-0.517-0.818
			c1.374-1.354,1.833-2.87,0.822-4.647C111.823,68.292,114.181,67.739,116.358,69.008z"/>
		<path style="fill:#3C2516;" d="M109.516,68.329c1.011,1.776,0.551,3.292-0.821,4.646c-0.696-0.01-1.393-0.018-2.09-0.027
			c0,0-0.092-0.114-0.091-0.115c-1.133-1.392-1.359-2.892-0.542-4.516C107.153,68.322,108.335,68.325,109.516,68.329z"/>
		<path style="fill:#3C2516;" d="M163.913,76.995c0.163-1.282,0.326-2.564,0.49-3.845C165.23,74.558,165.454,75.889,163.913,76.995z
			"/>
		<path style="fill:#F8FAFC;" d="M125.063,217.391c-7.232-7.82-14.361-15.741-21.757-23.403c-2.346-2.43-1.861-3.553,0.279-5.84
			c3.68-3.932,7.897-5.006,12.971-4.578c2.807,0.237,5.656-0.036,8.487-0.08c4.83,0.018,9.66,0.074,14.489,0.033
			c1.902-0.016,3.461,0.359,4.974,1.73c6.714,6.083,6.947,6.225,0.405,12.561C138.236,204.282,132.497,211.7,125.063,217.391z
			 M125.899,186.843c-1.971,4.571-5.256,7.325-10.905,7.352c4.799,3.335,6.165,7.5,3.476,13.746
			c3.486-1.862,5.509-2.943,7.533-4.024c2.183,1.054,4.367,2.107,7.767,3.747c-2.787-6.077-0.843-10.053,3.559-13.545
			c-5.758,0.043-9.039-2.598-10.676-7.455C126.644,186.641,126.16,186.78,125.899,186.843z"/>
		<path style="fill:#2078BC;" d="M144.008,67.999c4.939-2.192,10.116-0.577,15.172-0.877c1.769-0.105,1.606,1.147,0.788,2.377
			c-4.203,6.327-11.336,7.796-17.697,10.29c-2.895,1.135-11.622-6.506-11.519-9.667c0.103-3.192,2.813-1.767,4.543-1.986
			c2.098,5.81,3.459,6.549,8.774,4.763c0.774,0.009,1.547,0.019,2.321,0.028c8.833-1.153,8.833-1.153,9.689-4.751
			c-3.224,0-6.472,0-9.719,0C145.577,68.117,144.793,68.058,144.008,67.999z"/>
		<path style="fill:#D8E4EE;" d="M144.069,72.899c-5.315,1.786-6.676,1.048-8.774-4.763c2.646,0.05,5.292,0.101,7.937,0.149
			C142.52,70.001,142.466,71.6,144.069,72.899z"/>
		<path style="fill:#2E1B11;" d="M144.069,72.899c-1.603-1.299-1.549-2.898-0.836-4.614c0.308,0.039,0.566-0.057,0.775-0.286
			c0.784,0.059,1.569,0.118,2.353,0.176c1.126,1.577,0.852,3.162,0.029,4.752C145.617,72.918,144.843,72.908,144.069,72.899z"/>
		<path style="fill:#2DA5D9;" d="M106.605,72.948c0.697,0.009,1.394,0.017,2.09,0.027c0.246,0.227,0.418,0.5,0.516,0.819
			C108.152,74.096,107.346,73.623,106.605,72.948z"/>
		<path style="fill:#2078BC;" d="M125.899,186.843c0.261-0.063,0.745-0.202,0.753-0.179c1.637,4.857,4.918,7.499,10.676,7.455
			c-4.401,3.492-6.345,7.469-3.559,13.545c-3.4-1.64-5.583-2.694-7.766-3.747C125.968,198.225,125.933,192.534,125.899,186.843z"/>
		<path style="fill:#2DA5D9;" d="M125.899,186.843c0.035,5.691,0.069,11.382,0.104,17.074c-2.024,1.081-4.047,2.162-7.533,4.024
			c2.689-6.246,1.323-10.412-3.476-13.746C120.643,194.168,123.928,191.414,125.899,186.843z"/>
		<path style="fill:#F8FAFC;" d="M146.39,72.927c0.823-1.589,1.097-3.175-0.029-4.752c3.247,0.001,6.494,0.001,9.719,0.001
			C155.224,71.774,155.224,71.774,146.39,72.927z"/>
	</g>
</g>
</svg>
