<?xml version="1.0" encoding="iso-8859-1"?>
<!-- Generator: Adobe Illustrator 23.0.3, SVG Export Plug-In . SVG Version: 6.00 Build 0)  -->
<svg version="1.1" id="Layer_1" xmlns="http://www.w3.org/2000/svg" xmlns:xlink="http://www.w3.org/1999/xlink" x="0px" y="0px"
	 viewBox="0 0 250 250" style="enable-background:new 0 0 250 250;" xml:space="preserve">
<g>
	<g>
		<path style="fill:none;" d="M124,251c-41,0-82,0-123,0C1,167.667,1,84.333,1,1c82,0,164,0.027,246-0.096
			c3.424-0.005,4.101,0.672,4.096,4.096c-0.124,80.666-0.124,161.333,0,242c0.005,3.424-0.67,4.111-4.096,4.099
			C206.334,250.946,165.667,251,125,251c0.767-2.196,2.856-3.118,4.445-4.476c15.417-13.173,30.882-26.289,46.334-39.421
			c3.985-3.228,7.737-6.813,12.01-9.598c6.077-3.962,8.528-9.05,7.469-16.247c-0.526-3.575-0.341-7.314-0.02-10.938
			c0.311-3.514-1.174-4.837-4.409-4.839c-11.889-2.74-23.78-5.48-35.671-8.221c-0.339-0.404-0.679-0.808-1.018-1.212
			c2.009-0.572,4.018-1.144,6.863-1.954c-6.2-3.728-9.604-8.322-9.899-15.223c15.58,12.038,35.478,13.691,47.782,4.212
			c-2.141-0.313-4.274-0.585-6.393-0.94c-12.688-2.122-20.93-9.465-23.056-21.526c-1.052-5.969-1.705-12.199,0.71-18.171
			c0.35-0.865,0.967-1.925-0.662-2.264l0.015-0.086c1.658,0.96,1.377-0.445,1.562-1.281c0.046-0.507,0.091-1.014,0.137-1.521
			l-0.077,0.161c2.264-4.217,2.1-8.745,1.7-13.303c2.399-12.321,3.104-24.68,1.237-37.162
			c-3.378-22.581-17.982-35.331-40.818-35.529c-2.974-0.026-5.968,0.386-8.92-0.5c-16.414-4.927-34.496,1.181-43.034,15.589
			c-8.871,14.97-13.734,31.283-12.237,48.973c0.397,4.686,1.352,9.313,4.259,13.718c1.165-3.422,0.21-6.828,2.696-9.241
			c0.063,0.32,0.127,0.64,0.19,0.961c0.042,0.711,0.084,1.422,0.125,2.13c-1.395,4.29-0.976,8.594-0.086,12.901
			c-1.891,8.118-4.37,16.043-8.432,23.355c-3.292,5.925-7.115,11.398-14.665,12.754c9.833,3.945,19.42,6.715,28.411-1.511
			c0.331,0.291,0.663,0.581,0.994,0.872c-4.096,10.945-12.63,16.317-23.521,18.729c-0.578-0.138-1.232-0.388-1.442,0.436
			c-0.03,0.115,0.684,0.421,1.053,0.638c12.605,4.8,25.411,5.817,38.471,2.05c-0.473,2.27-2.665,2.825-4.112,4.123
			c-11.167,2.572-22.353,5.067-33.302,8.491c-2.691-0.322-2.884,1.333-2.865,3.403c0.063,6.829,0.084,13.661-0.014,20.489
			c-0.029,2.008,0.562,3.441,2.129,4.723c5.015,4.103,9.937,8.32,14.895,12.493c1.441,1.357,2.837,2.764,4.328,4.064
			C93.431,224.41,108.718,237.703,124,251z"/>
		<path style="fill:#EE4A26;" d="M175.779,207.103c-15.452,13.132-30.917,26.248-46.334,39.421c-1.589,1.358-3.678,2.28-4.445,4.476
			c-0.333,0-0.667,0-1,0c-15.282-13.297-30.569-26.59-45.84-39.9c-1.491-1.299-2.888-2.707-4.328-4.064
			c2.868-2.471,2.18-5.579,1.726-8.753c-0.567-3.964-2.685-7.655-2.381-12.565c11.545,5.688,22.496,11.188,33.544,16.488
			c6.409,3.074,12.062,6.94,15.993,13.008c0.514,0.793,0.907,2.502,2.289,0.707c3.205-3.802,6.203-7.906,10.64-10.339
			c12.368-6.782,24.898-13.25,38.749-16.567c1.374-0.329,3.031-1.673,4.194-0.455c1.332,1.395-0.242,3.074-0.537,4.628
			C177.171,197.807,174.574,202.144,175.779,207.103z"/>
		<path style="fill:#25292B;" d="M76.32,83.092c-0.042-0.711-0.084-1.422-0.126-2.133c0.103-0.112,0.314-0.285,0.29-0.326
			c-0.129-0.229-0.314-0.426-0.48-0.634c-2.486,2.412-1.531,5.818-2.696,9.241c-2.907-4.405-3.862-9.031-4.259-13.718
			c-1.497-17.691,3.367-34.003,12.237-48.973c8.538-14.408,26.62-20.516,43.034-15.589c2.952,0.886,5.947,0.475,8.92,0.5
			c22.835,0.198,37.439,12.947,40.818,35.529c1.867,12.482,1.162,24.841-1.236,37.16c-2.234-0.763-3.444-4.241-6.732-2.592
			c1.338,2.563,2.616,5.009,3.894,7.456c0,0,0.079-0.057,0.079-0.057c-2.206,1.068-4.012-0.852-6.08-0.812
			c-3.318-1.288-6.632-5.144-9.957-0.015c-0.483-0.065-0.967-0.129-1.452-0.193c0.396-3.445-2.383-1.633-3.687-2.129
			c-1.622-0.616-1.506,0.769-1.92,1.866c-1.235,3.273-4.061,3.897-5.562,0.913c-1.333-2.649-3.074-0.775-4.406-1.501
			c4.106-4.821,9.936-3.957,16.028-4.277c-3.151-2.545-6.204-4.204-8.108-6.73c-3.105-4.118-6.232,0.77-9.215-0.382
			c0.46-2.668,3.455-1.875,4.555-3.919c-6.827-7.317-11.886-15.889-17-25.477c-0.978,2.881-1.731,4.72-2.228,6.626
			c-2.472,9.487-5.579,18.767-9.612,27.688c-1.332,2.947-1.636,5.508-0.256,8.335c-5.34-3.211-3.501,2.663-5.176,4.09
			c-1.711,2.997-3.422,5.994-5.132,8.99c-0.297-0.036-0.593-0.033-0.89,0.007c0.737-2.94,1.474-5.879,2.211-8.819
			c2.441-3.803-4.321-3.996-2.716-7.595c-1.931,1.52-4.263,2.544-2.868,5.465c-1.607-0.866-2.408,0.286-3.191,1.329
			c-2.148,2.862-4.257,5.753-6.381,8.633c-4.651-1.878-4.947-6.808-7.283-10.315C78.154,88.357,79.059,84.914,76.32,83.092z
			 M161.858,71.749c-0.238-0.295-0.477-0.59-0.715-0.885c-0.232-0.486-0.463-0.971-0.695-1.457
			c-0.108,0.103-0.326,0.241-0.307,0.302c0.164,0.513,0.372,1.011,0.57,1.513c0.002,0.229,0.099,0.406,0.291,0.531
			c0.038,0.639,0.134,1.235,0.963,1.278c0.243,2.746,1.534,4.936,3.73,7.219c0.516-3.702-1.826-5.36-3.67-7.275
			C161.97,72.566,161.914,72.157,161.858,71.749z M105.193,76.969c-1.396,1.825-2.791,3.649-4.479,5.855
			C107.336,84.728,105.007,79.716,105.193,76.969z M76.763,76.941c-0.076-0.102-0.151-0.205-0.227-0.307
			c-0.094,0.085-0.187,0.169-0.281,0.254c0.126,0.132,0.251,0.263,0.377,0.395C76.676,77.169,76.719,77.055,76.763,76.941z
			 M158.368,64.743c-0.042,0.117-0.085,0.234-0.127,0.351c0.167,0.017,0.334,0.034,0.501,0.05c-0.024-0.123-0.018-0.267-0.083-0.363
			C158.622,64.728,158.468,64.754,158.368,64.743z"/>
		<path style="fill:#324C56;" d="M175.779,207.103c-1.205-4.959,1.392-9.296,2.27-13.914c0.295-1.554,1.869-3.233,0.537-4.628
			c-1.163-1.218-2.82,0.126-4.194,0.455c-13.851,3.317-26.381,9.785-38.749,16.567c-4.437,2.433-7.435,6.537-10.64,10.34
			c-0.009-11.46-0.018-22.921-0.028-34.382c21.95-5.354,43.901-10.708,65.851-16.062c3.237,0.004,4.722,1.326,4.411,4.84
			c-0.321,3.624-0.506,7.363,0.02,10.938c1.059,7.198-1.392,12.286-7.469,16.247C183.515,200.29,179.763,203.875,175.779,207.103z"
			/>
		<path style="fill:#4C747B;" d="M124.975,181.541c0.009,11.461,0.018,22.921,0.027,34.382c-1.382,1.794-1.775,0.085-2.289-0.707
			c-3.931-6.068-9.584-9.934-15.993-13.008c-11.048-5.299-21.999-10.799-33.544-16.488c-0.303,4.91,1.815,8.601,2.381,12.565
			c0.454,3.174,1.141,6.282-1.726,8.753c-4.958-4.173-9.88-8.39-14.895-12.493c-1.567-1.282-2.158-2.715-2.129-4.723
			c0.098-6.829,0.077-13.66,0.014-20.489c-0.019-2.07,0.174-3.725,2.866-3.403c8.99,2.247,17.926,4.739,26.98,6.682
			c12.773,2.742,25.259,6.773,38.255,8.496L124.975,181.541z"/>
		<path style="fill:#16191A;" d="M59.018,150.191c10.891-2.412,19.425-7.784,23.521-18.729c0.338-0.837,0.675-1.675,1.013-2.512
			c0.611-0.482,0.695-1.281,0.013-1.4c-0.818-0.142-0.676,0.717-0.523,1.308c-0.499,0.577-0.998,1.154-1.497,1.731
			c-8.992,8.225-18.578,5.455-28.411,1.511c7.55-1.357,11.373-6.829,14.665-12.754c4.063-7.313,6.541-15.238,8.432-23.354
			c3.075,4.328,5.282,9.682,11.779,9.961c0.97,10.073,6.617,17.209,14.373,23.076c1.419,1.074,2.557,2.519,3.825,3.792
			c-0.171,1.851-0.342,3.703-0.513,5.554c-1.767,5.612-3.152,11.442-8.594,14.94c-13.061,3.768-25.867,2.75-38.471-2.049
			C58.759,150.907,58.889,150.549,59.018,150.191z"/>
		<path style="fill:#171A1A;" d="M169.484,100.181c1.629,0.339,1.012,1.4,0.662,2.264c-2.415,5.972-1.763,12.202-0.71,18.171
			c2.127,12.061,10.368,19.404,23.056,21.526c2.119,0.354,4.252,0.627,6.393,0.94c-12.304,9.478-32.202,7.825-47.782-4.212
			c0.295,6.901,3.699,11.495,9.899,15.223c-2.845,0.81-4.854,1.382-6.863,1.954c-6.048-5.262-7.657-12.601-9.316-19.916
			c-0.223-1.68-0.446-3.36-0.669-5.041c6.04-8.167,16.075-13.693,16.778-25.387C165.044,105.816,167.357,103.142,169.484,100.181z"
			/>
		<path style="fill:#F59C74;" d="M144.822,136.132c1.659,7.315,3.268,14.653,9.316,19.916c0.34,0.404,0.68,0.808,1.019,1.212
			c-7.445,10.344-17.538,16.193-30.152,17.762c-0.363-0.116-0.726-0.232-1.09-0.348c0.001-8.458,0.001-16.917,0.002-25.376
			c7.677,0.541,12.804-3.556,17.111-9.281C142.109,138.582,143.548,137.419,144.822,136.132z"/>
		<path style="fill:#F5BD9A;" d="M123.918,149.298c-0.001,8.458-0.001,16.917-0.002,25.376
			c-13.387-0.222-23.197-6.866-30.928-17.237c1.447-1.297,3.639-1.852,4.112-4.122c5.443-3.498,6.829-9.328,8.595-14.939
			c2.077,0.786,3.536,2.398,5.028,3.911C114.4,146.016,118.517,148.848,123.918,149.298z"/>
		<path style="fill:#DA4522;" d="M125.005,175.021c12.614-1.569,22.706-7.419,30.152-17.762c11.891,2.741,23.782,5.481,35.671,8.221
			c-21.953,5.353-43.903,10.707-65.854,16.061c0,0-0.053-0.434-0.052-0.434C124.951,179.077,124.978,177.049,125.005,175.021z"/>
		<path style="fill:#F14727;" d="M125.005,175.021c-0.027,2.028-0.055,4.056-0.083,6.085c-12.997-1.722-25.483-5.753-38.256-8.495
			c-9.054-1.944-17.99-4.435-26.98-6.682c10.948-3.424,22.134-5.919,33.301-8.491c7.731,10.371,17.541,17.014,30.928,17.236
			C124.279,174.789,124.642,174.905,125.005,175.021z"/>
		<path style="fill:#EF9B75;" d="M169.484,100.181c-2.127,2.961-4.439,5.635-8.551,5.523c-0.106-6.049,2.28-11.665,3.051-17.561
			c2.068-0.04,3.874,1.881,6.079,0.813c0.02,0.227,0.041,0.454,0.062,0.681c0.144-0.025,0.289-0.051,0.433-0.076
			c-0.191-0.183-0.382-0.365-0.573-0.548c-1.278-2.447-2.556-4.893-3.894-7.456c3.287-1.649,4.497,1.829,6.732,2.592
			c0.4,4.56,0.563,9.088-1.7,13.305c0.001,0,0.076-0.161,0.076-0.161c-0.046,0.507-0.091,1.014-0.137,1.522
			c-0.521,0.427-1.041,0.854-1.562,1.28L169.484,100.181z"/>
		<path style="fill:#EF9B75;" d="M88.01,105.953c-6.497-0.279-8.704-5.632-11.779-9.961c-0.888-4.309-1.308-8.613,0.087-12.903
			c2.741,1.824,1.836,5.268,3.42,7.645c2.335,3.507,2.632,8.437,7.283,10.315C87.35,102.684,87.68,104.319,88.01,105.953z"/>
		<path style="fill:#4C747B;" d="M59.018,150.191c-0.13,0.358-0.259,0.717-0.389,1.075c-0.37-0.218-1.083-0.523-1.053-0.639
			C57.787,149.803,58.441,150.053,59.018,150.191z"/>
		<path style="fill:#324C56;" d="M169.499,100.095c0.521-0.426,1.042-0.853,1.562-1.28
			C170.876,99.65,171.157,101.055,169.499,100.095z"/>
		<path style="fill:#16191A;" d="M76.003,79.999c0.166,0.208,0.352,0.405,0.48,0.634c0.023,0.041-0.188,0.214-0.29,0.326
			C76.13,80.64,76.067,80.319,76.003,79.999z"/>
		<path style="fill:#324C56;" d="M171.198,97.293c0,0-0.075,0.161-0.076,0.161C171.121,97.454,171.198,97.293,171.198,97.293z"/>
		<path style="fill:#F5BD9A;" d="M88.01,105.953c-0.33-1.634-0.66-3.269-0.99-4.903c2.124-2.88,4.234-5.771,6.381-8.633
			c0.783-1.043,1.585-2.195,3.19-1.328c1.728,1.06,3.431,2.185,5.584,2.129c-0.737,2.94-1.474,5.879-2.211,8.818
			c-0.866,0.448-0.931,1.281-1.009,2.107c-0.284,0.551-0.591,1.092-0.822,1.665c-0.03,0.075,0.337,0.311,0.521,0.472
			c0.094-0.463,0.187-0.925,0.281-1.388c1.275-0.528,1.56-1.719,1.918-2.861c1.711-2.997,3.422-5.994,5.132-8.991
			c1.565-0.17,3.177-0.16,4.686-0.55c2.753-0.712,2.206-2.095,0.49-3.54c-1.38-2.827-1.077-5.388,0.256-8.335
			c4.033-8.921,7.14-18.202,9.612-27.688c0.497-1.906,1.25-3.745,2.228-6.626c5.114,9.588,10.173,18.159,17,25.477
			c-1.099,2.044-4.094,1.251-4.555,3.919c2.983,1.152,6.111-3.736,9.215,0.382c1.904,2.526,4.957,4.185,8.108,6.73
			c-6.091,0.32-11.922-0.544-16.028,4.277c0,0,0.087-0.101,0.087-0.101c-1.004,0.092-1.352,0.636-1.098,1.594
			c-1.626,1.661-2.529,3.16,0.656,4.103c4.758,1.408,9.384,2.07,13.407-1.822c0.819,0.076,1.547-0.03,1.881-0.932
			c1.103-0.126,1.658-0.891,2.092-1.796c3.326-5.131,6.64-1.275,9.958,0.014c-0.77,5.896-3.157,11.512-3.051,17.561
			c-0.704,11.694-10.739,17.22-16.779,25.387c-2.291,2.357-4.566,4.73-6.877,7.068c-7.028,7.11-16.308,7.355-23.885,0.694
			c-2.348-2.064-4.787-4.024-7.184-6.032c-1.268-1.274-2.406-2.719-3.825-3.792C94.627,123.162,88.979,116.027,88.01,105.953z
			 M136.345,121.063c0.074-0.148,0.192-0.292,0.208-0.446c0.011-0.105-0.101-0.309-0.188-0.327
			c-8.205-1.767-16.371-1.397-24.708,0.548c4.533,2.125,5.985,8.784,12.382,7.805C130.22,129.491,132.473,123.963,136.345,121.063z
			 M129.964,110.531c-5.954,1.226-5.953,1.226-5.956-5.094c-0.002-4.475-0.091-8.952,0.02-13.424
			c0.074-2.989-1.789-3.059-3.927-3.014c-2.013,0.043-4.125-0.243-4.084,2.842c0.065,4.971-0.416,9.994,0.146,14.902
			c0.505,4.418,4.3,7.321,7.885,8.829C126.693,116.685,128.369,113.147,129.964,110.531z"/>
		<path style="fill:#F4F2F1;" d="M150.052,90.857c-4.023,3.893-8.648,3.231-13.407,1.823c-3.185-0.942-2.282-2.441-0.656-4.103
			c0.469-0.46,1.493-0.538,1.098-1.594c0,0-0.087,0.101-0.087,0.101c1.332,0.726,3.073-1.148,4.406,1.501
			c1.501,2.984,4.328,2.36,5.562-0.913c0.414-1.097,0.298-2.483,1.92-1.866c1.303,0.495,4.082-1.317,3.687,2.128
			c-0.227,0.351-0.455,0.702-0.683,1.053C151.279,89.611,150.665,90.234,150.052,90.857z"/>
		<path style="fill:#F4F2F1;" d="M102.176,93.218c-2.154,0.056-3.857-1.07-5.584-2.129c-1.394-2.922,0.938-3.945,2.869-5.465
			C97.855,89.222,104.618,89.415,102.176,93.218z"/>
		<path style="fill:#F4F2F1;" d="M111.163,88.95c1.716,1.445,2.263,2.828-0.49,3.54c-1.508,0.39-3.12,0.379-4.686,0.55
			C107.662,91.613,105.824,85.739,111.163,88.95z"/>
		<path style="fill:#EF9B75;" d="M105.193,76.969c-0.187,2.747,2.142,7.758-4.479,5.855
			C102.402,80.619,103.798,78.794,105.193,76.969z"/>
		<path style="fill:#EF9B75;" d="M162.028,72.973c1.842,1.916,4.185,3.575,3.668,7.276c-2.196-2.282-3.487-4.473-3.729-7.219
			C161.968,73.029,162.028,72.973,162.028,72.973z"/>
		<path style="fill:#324C56;" d="M98.957,104.143c0.078-0.826,0.143-1.659,1.009-2.107c0.296-0.04,0.593-0.042,0.89-0.006
			c-0.359,1.143-0.644,2.334-1.918,2.863C99.086,104.647,99.093,104.397,98.957,104.143z"/>
		<path style="fill:#324C56;" d="M151.892,88.987c0.228-0.351,0.455-0.702,0.683-1.053c0.484,0.064,0.968,0.129,1.451,0.194
			c-0.435,0.907-0.989,1.671-2.092,1.797C151.977,89.61,151.963,89.298,151.892,88.987z"/>
		<path style="fill:#16191A;" d="M76.763,76.941c-0.043,0.114-0.087,0.228-0.13,0.342c-0.126-0.132-0.251-0.263-0.377-0.395
			c0.094-0.085,0.187-0.169,0.281-0.254C76.612,76.736,76.687,76.839,76.763,76.941z"/>
		<path style="fill:#B8563E;" d="M160.709,71.224c-0.195-0.503-0.403-1.002-0.567-1.514c-0.02-0.062,0.199-0.2,0.307-0.302
			c0.232,0.486,0.463,0.971,0.694,1.457C161.006,70.993,160.861,71.113,160.709,71.224z"/>
		<path style="fill:#324C56;" d="M158.368,64.743c0.101,0.01,0.254-0.015,0.291,0.039c0.065,0.095,0.06,0.239,0.083,0.363
			c-0.167-0.017-0.334-0.034-0.501-0.05C158.283,64.977,158.325,64.86,158.368,64.743z"/>
		<path style="fill:#EF9B75;" d="M161.858,71.749c0.056,0.409,0.112,0.817,0.169,1.225c0.001-0.001-0.059,0.055-0.06,0.056
			c-0.83-0.042-0.926-0.638-0.963-1.274c0.001,0.003,0.428,0.043,0.428,0.043L161.858,71.749z"/>
		<path style="fill:#B8563E;" d="M161.858,71.749l-0.427,0.05c0,0-0.428-0.04-0.428-0.043c-0.192-0.128-0.289-0.305-0.293-0.533
			c0.15-0.11,0.295-0.23,0.432-0.359C161.382,71.159,161.62,71.454,161.858,71.749z"/>
		<path style="fill:#B8563E;" d="M106.208,132.821c2.397,2.008,4.836,3.968,7.184,6.032c7.577,6.661,16.858,6.415,23.885-0.694
			c2.311-2.338,4.585-4.711,6.877-7.068c0.223,1.68,0.446,3.36,0.669,5.04c-1.274,1.288-2.714,2.451-3.793,3.885
			c-4.307,5.724-9.434,9.821-17.111,9.281c-5.402-0.449-9.518-3.281-13.196-7.009c-1.492-1.513-2.951-3.125-5.028-3.911
			C105.866,136.524,106.037,134.673,106.208,132.821z"/>
		<path style="fill:#4C747B;" d="M83.042,128.859c-0.154-0.591-0.295-1.45,0.523-1.308c0.683,0.119,0.598,0.918-0.014,1.4
			c-0.001,0-0.29,0.151-0.29,0.151L83.042,128.859z"/>
		<path style="fill:#FEFEFE;" d="M81.545,130.59c0.499-0.577,0.997-1.154,1.497-1.731c0,0,0.219,0.242,0.219,0.242
			s0.289-0.151,0.29-0.151c-0.337,0.837-0.674,1.675-1.012,2.512C82.208,131.171,81.877,130.881,81.545,130.59z"/>
		<path style="fill:#25292B;" d="M169.984,89.013c0.191,0.183,0.382,0.365,0.573,0.548c-0.144,0.026-0.289,0.051-0.433,0.076
			c-0.021-0.227-0.042-0.454-0.062-0.681C170.063,88.955,169.984,89.013,169.984,89.013z"/>
		<path style="fill:#F59C74;" d="M129.964,110.531c-1.596,2.616-3.271,6.153-5.917,5.041c-3.585-1.507-7.38-4.411-7.885-8.829
			c-0.561-4.908-0.081-9.93-0.146-14.902c-0.04-3.085,2.071-2.8,4.084-2.842c2.139-0.045,4.001,0.024,3.927,3.014
			c-0.111,4.472-0.022,8.949-0.02,13.424C124.011,111.757,124.01,111.757,129.964,110.531z"/>
		<path style="fill:#B9282A;" d="M124.04,128.642c-6.397,0.979-7.849-5.68-12.382-7.805c8.337-1.945,16.503-2.315,24.708-0.548
			c0.087,0.019,0.199,0.222,0.188,0.327c-0.016,0.154-0.134,0.298-0.209,0.446c-2.398-0.557-4.546,0.789-6.853,0.897
			C125.174,122.162,123.107,124.171,124.04,128.642z"/>
		<path style="fill:#8B1B22;" d="M124.04,128.642c-0.933-4.471,1.135-6.48,5.452-6.682c2.307-0.108,4.456-1.454,6.853-0.897
			C132.473,123.963,130.22,129.491,124.04,128.642z"/>
		<path style="fill:#4C747B;" d="M151.892,88.987c0.07,0.31,0.085,0.623,0.042,0.938c-0.335,0.902-1.064,1.008-1.882,0.932
			C150.665,90.234,151.279,89.611,151.892,88.987z"/>
		<path style="fill:#B8563E;" d="M98.957,104.143c0.136,0.254,0.13,0.504-0.02,0.749c-0.094,0.462-0.188,0.925-0.281,1.387
			c-0.183-0.161-0.551-0.396-0.521-0.472C98.365,105.235,98.673,104.694,98.957,104.143z"/>
		<path style="fill:#25292B;" d="M137.087,86.984c0.395,1.056-0.629,1.134-1.098,1.594
			C135.735,87.619,136.083,87.075,137.087,86.984z"/>
	</g>
</g>
</svg>
