<?xml version="1.0" encoding="utf-8"?>
<!-- Generator: Adobe Illustrator 23.0.3, SVG Export Plug-In . SVG Version: 6.00 Build 0)  -->
<svg version="1.1" id="Layer_1" xmlns="http://www.w3.org/2000/svg" xmlns:xlink="http://www.w3.org/1999/xlink" x="0px" y="0px"
	 viewBox="0 0 250 250" style="enable-background:new 0 0 250 250;" xml:space="preserve">
<style type="text/css">
	.st0{fill:none;}
	.st1{fill:#2B357A;}
	.st2{fill:#2E398C;}
	.st3{fill:#A4A4A5;}
	.st4{fill:#BABCBE;}
	.st5{fill:#FEB036;}
	.st6{fill:#E6E7E8;}
	.st7{fill:#D0D2D3;}
	.st8{fill:#EA2229;}
	.st9{fill:#EFF0F0;}
	.st10{fill:#F59D75;}
	.st11{fill:#F5B38E;}
	.st12{fill:#333038;}
	.st13{fill:#F6BE9A;}
	.st14{fill:#FDD63B;}
	.st15{fill:#BB593F;}
	.st16{fill:#FEFEFE;}
	.st17{fill:#D13213;}
</style>
<g>
	<g>
		<path class="st0" d="M124,251c-41,0-82,0-123,0C1,167.7,1,84.3,1,1c82,0,164,0,246-0.1c3.4,0,4.1,0.7,4.1,4.1
			c-0.1,80.7-0.1,161.3,0,242c0,3.4-0.7,4.1-4.1,4.1c-39-0.2-78-0.1-117-0.1c0.1-2,1.9-2.5,3.1-3.5c15.2-12.9,30.4-25.8,45.7-38.6
			c11.8-9.9,11.8-9.9,11.4-25.2c0-0.5-0.1-1-0.2-1.5c1-4-0.3-6.1-4.6-6.4c-1.7-0.1-3.4-1.1-5.1-1.7c-2.7-3.1-5.6-6.1-8.1-9.4
			c-7.4-9.7-10.7-20.1-5.2-32c1.1-2.4,2.1-4.9,2-7.6c0.8-0.6,0.8-1.5,0.7-2.3c0.1-0.9,0.2-1.8,0.4-2.8c1.5-2.5,1-5.3,0.9-7.9
			c0-3.3,0-6.7,0-10c0.2-3,0.2-5.9-0.4-8.8c0.7-3.8,4.9-3.7,6.9-6c4.6-5.4,9.2-10.8,13.7-16.3c2.6-3.1,4.3-6.7,4.2-10.9
			c4.8-4.5,3.7-10.4,3.7-16c0.4-5.5,2.6-10.9,1-16.6c-1.7-6.2-2.8-12.7-9-16.4c-0.1-0.4-0.2-0.9-0.4-1.3c-0.1,0.1-0.3,0.2-0.4,0.2
			c0.2,0.4,0.5,0.7,0.7,1.1c3.8,10.4,2.5,20.3-3.3,29.5c-5.8,9.2-11.8,18.3-17.8,27.5c-0.6-1.5-1.3-3-1.9-4.5
			c-6.8-18.2-23.6-30-42-29.4c-7.7-0.2-14.8,1.9-21.3,5.8C93.2,46.5,85.8,56.4,82,69c-3.8-5.8-7.3-11.8-11.3-17.5
			c-3.6-5-7-10.1-9.5-15.7c-3.6-8.2-4.4-16.7-0.6-25.3c-4,2.9-5.7,6.9-7.6,11c-3.3,7.4-1.7,15-0.9,22.5c-0.3,5.7,0.1,11.2,3.9,16
			c0.4,9.8,8.8,14.6,13.6,21.7c2.6,3.9,6.4,7,9.7,10.5c-2.8,14.8,0.9,28.8,6.1,42.4c4.1,10.6,2.8,20.6-2.9,30.1
			c-2,3.2-4.4,6.2-6.6,9.2l0.1,0c-0.9-0.2-1.4,0.4-1.8,1.1c-8.1,2.6-8.1,2.6-7.3,9.4c-0.1,3.6,0,7.3-0.4,10.9
			c-0.4,3.9,1.1,6.4,4,8.9c9.3,7.8,18.5,15.7,27.6,23.8C106.7,235.6,116,242.5,124,251z"/>
		<path class="st1" d="M190,182.2c0.1,0.5,0.2,1,0.2,1.5c0.4,15.4,0.4,15.3-11.4,25.2c-15.3,12.8-30.5,25.7-45.7,38.6
			c-1.2,1-3,1.5-3.1,3.5c-1,0-2,0-3,0c0-23.2,0-46.3,0-69.5c7.7-0.1,14.6-2.8,21.1-6.7C162.1,177.3,176,179.8,190,182.2z
			 M156.4,214.1c7.2,0.1,12.7-5,12.6-11.7c-0.1-6.5-6.1-12.4-12.6-12.3c-6.4,0.1-11.3,5.3-11.4,12
			C144.8,209.4,149.1,214,156.4,214.1z"/>
		<path class="st2" d="M127,181.5c0,23.2,0,46.3,0,69.5c-1,0-2,0-3,0c-8-8.5-17.3-15.4-26-23.1c-9.1-8.1-18.3-16-27.6-23.8
			c-3-2.5-4.5-5-4-8.9c0.4-3.6,0.3-7.3,0.4-10.9c13.9-2.5,27.8-4.9,41.7-7.4c5.9,2.4,11.7,5.3,18.4,4.2L127,181.5z M113.1,202
			c0.9-7.2-6.7-12-11.9-11.9c-6.4,0.1-12,5.8-12.1,12.2c-0.1,6.7,5.4,11.9,12.6,11.8C108.8,214,113.1,209.5,113.1,202z"/>
		<path class="st3" d="M126,34.1c18.4-0.6,35.3,11.2,42,29.4c0.6,1.5,1.3,3,1.9,4.5c0,1.1-0.1,2.2,0.8,3c0.1,1.6,0.2,3.2,0.3,4.8
			c0.8,5.8-2.3,11.3-1.3,17.1c0,0,0,0.3,0,0.3c-1.3,3.9-1.2,7.9,0.1,11.8c0,2.3,0,4.6,0,6.9c-1.5,3.5-1.1,7.1-0.3,10.7
			c0.1,0.9,0.1,1.7-0.7,2.3c-3.3-0.1-6.6-0.2-9.9-0.2c0-5.6-0.1-11.3-0.1-16.9c0.1-7.1,0.1-14.3,0.1-21.4c0-1.3,0.5-3.3-2.1-2.9
			c-5.7,0.8-11.5,0.6-17.1,2.4c-0.2,0-0.4-0.1-0.7,0c-1.2-0.1-1.6,0.8-2.1,1.6c-2.7,3.4-6,6.4-8,10.4c-0.7,0.7-1.4,1.4-2.2,2.1
			c-1.3-0.6-1.9-1.6-2-3c1.7-1.4,1-3.4,1-5.1C126,72.6,126,53.4,126,34.1z"/>
		<path class="st4" d="M126,34.1c0,19.3,0,38.6-0.1,57.8c0,1.7,0.7,3.7-1,5.1c0,0,0.1,0,0.1,0c-0.3-0.3-0.7-0.7-1-1.1l0,0
			c-1.7-6.3-5-11.9-9-17c-0.1-0.1-0.3-0.2-0.4-0.2c0.1,0.1,0.3,0.1,0.4,0.2c-1.3,1.9-3.5,0.4-5.7,1.9c4.1-0.1,6.8,0.9,6.7,5.1
			c-0.4,0.1-0.8,0.1-1.2,0.2c-4.9-1.8-10.1-1.7-15.1-2.6c-4-1.4-6.3-0.7-5.9,4.3c0.3,3.7,0.1,7.5,0.2,11.3c0,0.6,0,1.2,0,1.9
			c-0.3,7.4,0.3,14.9-0.7,22.3c-2.5,3.5-6.1,1.7-9,1.3c-2.3-0.3-1.2-3.4-1.2-5.2C83,110.7,83,101.9,83,93.1c0-3,0-6.1,0.1-9.1
			c-0.1-1.1,0.3-2.3-1-3c-0.4-1.4-0.7-2.7-1.1-4.1l0.2,0.1c0.4-0.2,0.8-0.3,1.2-0.5c-0.4-0.2-0.8-0.3-1.2-0.5c0-1.7,0-3.4,0-5
			c0.8-0.5,0.9-1.2,0.9-2c3.9-12.6,11.3-22.5,22.7-29.1C111.3,36,118.4,33.9,126,34.1z M97.2,78.3c-0.6-0.1-1-0.2-1.5-0.2
			c-0.3,0-0.6,0.2-0.8,0.4c0.5,0.2,1.1,0.4,1.7,0.4C96.7,78.9,96.9,78.6,97.2,78.3z M89.1,77.3c-0.6-0.1-1-0.2-1.5-0.2
			c-0.3,0-1.2,0-0.5,0.7c0.3,0.2,0.9,0.1,1.4,0.1C88.7,77.9,88.9,77.6,89.1,77.3z M101.8,79.7c0.6,0.1,1,0.3,1.5,0.3
			c0.3,0,0.6-0.2,0.8-0.4c-0.4-0.7-1-0.5-1.6-0.5C102.3,79.1,102.1,79.4,101.8,79.7z"/>
		<path class="st5" d="M83,93.1c0.1,8.8,0,17.5,0.2,26.3c0,1.8-1.1,4.8,1.2,5.2c2.9,0.4,6.5,2.2,9-1.3c2.1,0,1.6,1.7,1.8,2.9
			c0.9,5.7,3.8,10.1,8.1,13.8c2.6,2.2,5.1,4.7,7.6,7.1c-1.3,1.4-0.7,3.2-0.8,4.8c-1.1,7.4-5.3,12.8-11.1,17.2
			c-1.1,0.2-2.3,0.4-3.4,0.6c-6.6,1.1-12.9,4.1-19.8,4.2c2.2-3.1,4.7-6,6.6-9.2c5.8-9.5,7-19.5,2.9-30.1
			c-5.3-13.6-8.9-27.6-6.1-42.4C80.5,92.5,81.7,92.8,83,93.1z"/>
		<path class="st5" d="M159,124.8c3.3,0.1,6.6,0.2,9.9,0.2c0.1,2.7-0.9,5.3-2,7.6c-5.5,11.9-2.2,22.3,5.2,32
			c2.5,3.3,5.4,6.3,8.1,9.4c-1.6-0.2-3.2-0.5-4.8-0.7c-7.1-1-13.8-4-21.1-4.2c-5.3-5-6.9-11.9-9.4-18.4c0-1.9,0-3.7,0-5.6
			C149.7,138.5,158,134.1,159,124.8z"/>
		<path class="st6" d="M82,69c0,0.8-0.1,1.6-0.9,2c-1.1-0.1-1.8-0.6-2.3-1.6c-3.2-5.7-7.4-10.7-13-14.1c-5.2-3.1-7.9-9-13.7-11.3
			c-0.7-7.6-2.4-15.1,0.9-22.5c1.8-4.1,3.5-8.1,7.6-11c-3.8,8.6-3,17.2,0.6,25.3c2.5,5.6,5.9,10.7,9.5,15.7
			C74.6,57.2,78.2,63.1,82,69z"/>
		<path class="st6" d="M170.8,71.1c-0.9-0.8-0.8-2-0.8-3c5.9-9.2,12-18.3,17.8-27.5c5.8-9.3,7.1-19.1,3.3-29.5l0,0
			c6.2,3.7,7.3,10.2,9,16.4c1.6,5.7-0.6,11.1-1,16.6c-6.3,2.9-9.6,9.4-15.4,13C177.9,60.4,175.5,66.7,170.8,71.1z"/>
		<path class="st7" d="M83,93.1c-1.2-0.3-2.5-0.7-3.7-1c-3.3-3.5-7.1-6.6-9.7-10.5c-4.8-7.1-13.2-11.9-13.6-21.7
			c8.4,3.7,17.4,6.4,22.2,15.3c0.6,1.1,1.4,1.8,2.8,1.7c0.4,1.4,0.7,2.7,1.1,4.1c0,1.1-0.2,2.3,1,3C83,87,83,90.1,83,93.1z"/>
		<path class="st8" d="M75.8,173.8c6.9-0.1,13.1-3,19.8-4.2c1.1-0.2,2.3-0.4,3.4-0.6c2.2,3.8,6.4,5.1,9.5,7.8
			c-13.9,2.5-27.8,4.9-41.7,7.4c-0.8-6.8-0.8-6.8,7.3-9.4c0.9,0.1,1.6-0.1,1.8-1.1L75.8,173.8z"/>
		<path class="st7" d="M169.9,93c-1.1-5.8,2.1-11.3,1.3-17.1c1.3,0.1,2.1-0.7,2.8-1.7c5.1-7.8,13.6-10.5,21.3-14.3
			c0.1,4.2-1.6,7.8-4.2,10.9c-4.5,5.5-9.1,10.9-13.7,16.3c-2,2.3-6.1,2.2-6.8,6C170.3,93.1,170.1,93.1,169.9,93z"/>
		<path class="st9" d="M80.9,76.9c-1.3,0.1-2.2-0.6-2.8-1.7c-4.8-8.9-13.8-11.6-22.2-15.3c-3.8-4.7-4.2-10.3-3.9-16
			c5.7,2.4,8.5,8.2,13.6,11.3c5.6,3.4,9.8,8.4,13,14.1c0.5,1,1.2,1.5,2.3,1.6c0,1.7,0,3.4,0,5c-0.1,0.3-0.1,0.6,0,1L80.9,76.9z"/>
		<path class="st9" d="M195.2,59.9c-7.7,3.8-16.2,6.5-21.3,14.3c-0.7,1-1.4,1.8-2.8,1.7c-0.1-1.6-0.2-3.2-0.3-4.8
			c4.7-4.3,7.1-10.7,12.8-14.1c5.8-3.5,9.1-10.1,15.4-13C198.9,49.6,200,55.5,195.2,59.9z"/>
		<path class="st8" d="M154.3,169.2c7.3,0.1,14,3.2,21.1,4.2c1.6,0.2,3.2,0.5,4.8,0.7c1.7,0.6,3.3,1.6,5.1,1.7
			c4.3,0.3,5.6,2.4,4.6,6.4c-13.9-2.5-27.9-4.9-41.8-7.4C150.2,173,152.2,171.1,154.3,169.2z"/>
		<path class="st10" d="M169.6,122.7c-0.8-3.6-1.2-7.2,0.3-10.7l0.1,0c0,2.7,0,5.3,0,8C169.9,120.9,169.7,121.8,169.6,122.7z"/>
		<path class="st5" d="M169.9,112c0-2.3,0-4.6,0-6.9c0-1.1,0-2.2,0.1-3.2c0.3,0,0.6,0.1,0.9,0.1c0,3.3,0,6.7,0,10
			C170.6,112,170.3,112,169.9,112L169.9,112z"/>
		<path class="st11" d="M170.9,102c-0.3-0.1-0.6-0.1-0.9-0.1c-0.1-2.8-0.1-5.7-0.2-8.6c0,0,0-0.3,0-0.3c0.2,0.1,0.4,0.1,0.6,0.2
			C171.1,96.1,171.2,99,170.9,102z"/>
		<path class="st11" d="M170,112c0.3,0,0.6,0,0.8,0c0.1,2.7,0.6,5.4-0.9,8C170,117.3,170,114.6,170,112z"/>
		<path class="st5" d="M75.9,173.9c-0.2,1-1,1.1-1.8,1.1C74.5,174.3,75,173.6,75.9,173.9z"/>
		<path class="st6" d="M191,11c-0.2-0.4-0.5-0.7-0.7-1.1c0.1-0.1,0.3-0.2,0.4-0.2C190.8,10.1,190.9,10.6,191,11
			C191,11,191,11,191,11z"/>
		<path class="st10" d="M154.3,169.2c-2.1,1.9-4.1,3.7-6.2,5.6c-6.5,3.9-13.4,6.6-21.1,6.7c0,0-0.1-0.4-0.1-0.4c0-6.3,0-12.7,0-19
			c4.8,0,8.7-1.9,11.9-5.4c1.9-2.1,4-4,6.1-5.9C147.4,157.3,149,164.2,154.3,169.2z"/>
		<path class="st12" d="M156.4,214.1c-7.2-0.1-11.5-4.6-11.4-12c0.1-6.7,5-11.8,11.4-12c6.4-0.1,12.5,5.8,12.6,12.3
			C169.1,209,163.6,214.1,156.4,214.1z M156.7,212.4c5.8-0.1,10.2-4.5,10-10.2c-0.1-5.5-5-10.1-10.5-9.9c-5.4,0.2-9.6,4.5-9.7,10.1
			C146.6,208.1,151,212.4,156.7,212.4z"/>
		<path class="st13" d="M126.9,162.1c0,6.3,0,12.7,0,19c-6.7,1.1-12.5-1.8-18.4-4.2c-3-2.8-7.3-4.1-9.5-7.8
			c5.8-4.4,10.1-9.8,11.1-17.2C115.7,155.3,119.5,161.7,126.9,162.1z"/>
		<path class="st12" d="M113.1,202c0,7.4-4.3,12-11.4,12.1c-7.2,0.1-12.7-5.1-12.6-11.8c0.1-6.4,5.7-12.1,12.1-12.2
			C106.4,190,114,194.8,113.1,202z M101.1,212.4c5.9,0.1,10.2-4,10.2-9.9c0-5.7-4.4-10.3-10-10.3c-5.3,0-9.9,4.5-10.1,9.8
			C91,207.6,95.4,212.2,101.1,212.4z"/>
		<path class="st13" d="M110.9,147c-2.5-2.4-5-4.8-7.6-7.1c-4.3-3.7-7.2-8.1-8.1-13.8c-0.2-1.1,0.3-2.9-1.8-2.9
			c1-7.4,0.4-14.9,0.7-22.3c0.7-0.5,1.1-1.1,1-2l0,0c0.7,0,1.1-0.2,1-1l0,0c0.8,0.1,1.2-0.1,1-1l0,0c4-0.7,7.7-2.9,11.9-2
			c2.5,1.6,4.9,3.3,7.8,4c0.9,0.2,1.9,1.2,2.7,0.2c0.8-0.9,0-1.8-0.4-2.7c-1.6-3.4-3.4-6.7-4.3-10.4c0.4-0.1,0.8-0.1,1.2-0.2l0,0
			c0.4,1,1,1.6,2,2c2,2.6,3.3,5.9,6,8l0,0c0.3,0.3,0.7,0.7,1,1.1c0,0-0.1,0-0.1,0c0.1,1.4,0.8,2.4,2,3c0,2.6,0,5.3,0,7.9
			c-2.1-0.1-3.9-0.1-4.1,2.9c-0.2,2.4-0.9,4.9-1.8,7.2c-2.4,6.1-0.6,10.6,4.9,13.9c1,1.6,1.1,3.4,1,5.2c-3.5-0.3-7,0-10.8,1.4
			c3.7,2.7,5.9,6.7,10.8,6.6c0,3.6,0,7.2,0,10.9c-2.2,0.4-4.2-0.4-6.2-1.2C116.9,153.1,114.5,149.3,110.9,147z M102,109
			c0.3,0.3,0.7,0.6,1,1c4.8,3.6,9.4,2.4,14-0.5c-0.1-0.6-0.2-1.3-1.1-1.4l0,0.1c0-0.7-0.3-1.1-1-1l0.1,0c0-0.8-0.4-1.1-1.1-1.1
			l0.1,0.1c-5.1-5.4-11.6-3.2-17.9-4c0.6,2.9,1.9,4.7,4,6l-0.1-0.1c0.4,0.3,0.7,0.6,1.1,0.8C101.4,108.8,101.7,108.9,102,109
			L102,109z"/>
		<path class="st11" d="M127,137.2c0-1.8,0-3.6-1-5.2c2.8-0.4,4-2.5,5.6-4.6c-4.6,0.1-4.6,0.1-4.6-4c0-5.1,0-10.3,0-15.4
			c0-2.6,0-5.3,0-7.9c0.7-0.7,1.4-1.4,2.2-2.1c3.3,2.2,6.6,4.4,9.9,6.5c-0.3,0.5-0.7,1-1,1.5l0,0c-0.7,0-1,0.3-1,1l0,0
			c-0.9,0.1-1,0.8-1.1,1.5c-0.4,0.9,0,1.4,0.9,1.9c4.9,2.8,10,1.9,14.6-2.5c1.8,0.4,2.6-1.1,3.7-2c1.3,0.7,2.5,1.3,3.8,2
			c0,5.6,0.1,11.3,0.1,16.9c-1,9.3-9.3,13.7-14.1,20.4c-2,1.2-3.4,3-4.8,4.8c-3.3,4.4-7.5,6.8-13.1,6.1c0-3.6,0-7.2,0-10.9
			c0,0,0-0.2,0-0.2c4.9,0.9,6.7-3.4,9.5-5.8C133.9,136.1,130.3,137.4,127,137.2z"/>
		<path class="st14" d="M159,107.9c-1.3-0.7-2.5-1.3-3.8-2c-1-1.8-2.6-3-4.4-4.1c-1.6-2.3-3.6-4.3-5.8-6.1c0-0.9-0.2-1.7-1-2.2
			c-1.4-2.5-2.7-5-4.1-7.6c5.6-1.8,11.4-1.6,17.1-2.4c2.6-0.4,2.1,1.6,2.1,2.9C159.1,93.6,159,100.8,159,107.9z"/>
		<path class="st14" d="M139.1,104.5c-3.3-2.2-6.6-4.4-9.9-6.5c2-4,5.3-7,8-10.4c0.6,0.8,1.2,1.6,1.8,2.4c0.2,1.6,0.7,2.9,2,4
			c0,0.9,0.2,1.7,1,2.2c0.8,2.3,1.3,4.7,3.7,5.9c0,1.2,0.2,2.3,1.3,3.1c0,0.6,1.1,1.1,0.2,1.8c-1.8-0.3-3.4-1.6-5.4-1.2
			c-0.1-0.1-0.3-0.2-0.5-0.2C140.5,105.3,139.8,104.9,139.1,104.5z"/>
		<path class="st11" d="M141,94.1c-1.2-1.1-1.7-2.5-2-4c0.1-1.4,0.2-2.7,0.3-4.1c0.2,0,0.4,0,0.7,0c1.4,2.5,2.7,5,4.1,7.6
			C143,93.7,142,93.9,141,94.1z"/>
		<path class="st10" d="M169.8,93.3c0.1,2.9,0.1,5.7,0.2,8.6c0,1.1,0,2.2-0.1,3.2C168.6,101.2,168.5,97.2,169.8,93.3z"/>
		<path class="st15" d="M139.3,85.9c-0.1,1.4-0.2,2.7-0.3,4.1c-0.6-0.8-1.2-1.6-1.8-2.4C137.6,86.7,138.1,85.9,139.3,85.9z"/>
		<path class="st14" d="M114.9,86.1c0.9,3.7,2.6,7,4.3,10.4c0.4,0.8,1.2,1.8,0.4,2.7c-0.9,0.9-1.8,0-2.7-0.2c-2.9-0.7-5.3-2.4-7.8-4
			c-0.5-1.3-1.6-1.9-2.9-2.2c-2.2-3-5.4-5.4-6.3-9.2C104.8,84.4,110,84.3,114.9,86.1z"/>
		<path class="st13" d="M99.8,83.5c0.9,3.9,4.1,6.2,6.3,9.2C102.5,93,99,93.3,97,97l0,0c-0.7,0-1,0.3-1,1l0,0c-0.7,0-1,0.4-1,1l0,0
			c-0.3,0-0.6,0.1-0.9,0.1c0-3.8,0.1-7.6-0.2-11.3C93.5,82.8,95.8,82.1,99.8,83.5z"/>
		<path class="st3" d="M124,96c-2.7-2.2-3.9-5.4-6-8c0-1.3-0.7-2-2-2l0,0c0.1-4.2-2.7-5.2-6.7-5.1c2.2-1.5,4.4,0,5.7-1.9l0,0
			C119,84.2,122.2,89.7,124,96z"/>
		<path class="st3" d="M97.2,78.3c-0.3,0.3-0.5,0.6-0.6,0.6c-0.6-0.1-1.1-0.3-1.7-0.4c0.3-0.1,0.6-0.4,0.8-0.4
			C96.2,78.1,96.6,78.2,97.2,78.3z"/>
		<path class="st3" d="M89.1,77.3c-0.3,0.3-0.4,0.6-0.6,0.6c-0.5,0-1.1,0.1-1.4-0.1c-0.7-0.7,0.2-0.7,0.5-0.7
			C88.1,77,88.6,77.2,89.1,77.3z"/>
		<path class="st3" d="M101.8,79.7c0.3-0.3,0.5-0.5,0.7-0.6c0.6-0.1,1.2-0.3,1.6,0.5c-0.3,0.1-0.6,0.4-0.8,0.4
			C102.8,79.9,102.4,79.8,101.8,79.7z"/>
		<path class="st9" d="M83,84c-1.2-0.7-1-1.9-1-3C83.3,81.7,83,82.9,83,84z"/>
		<path class="st15" d="M94.1,99.1C94.4,99,94.7,99,95,99c0.1,0.9-0.2,1.5-1,2C94,100.4,94.1,99.7,94.1,99.1z"/>
		<path class="st3" d="M81.1,77c-0.1-0.3-0.1-0.6,0-1c0.4,0.2,0.8,0.3,1.2,0.5C81.9,76.7,81.5,76.8,81.1,77z"/>
		<path class="st3" d="M115,79c-0.1-0.1-0.3-0.1-0.4-0.2C114.7,78.8,114.9,78.9,115,79C115,79,115,79,115,79z"/>
		<path class="st3" d="M125,97.1c-0.3-0.3-0.7-0.7-1-1.1C124.3,96.4,124.6,96.7,125,97.1z"/>
		<path class="st15" d="M127,156.1c5.6,0.7,9.8-1.7,13.1-6.1c1.4-1.8,2.8-3.6,4.8-4.8c0,1.9,0,3.8,0,5.6c-2,2-4.2,3.8-6.1,5.9
			c-3.2,3.5-7.1,5.4-11.9,5.4c-7.4-0.4-11.2-6.8-16.8-10.3c0.1-1.6-0.5-3.4,0.8-4.8c3.6,2.3,6,6.1,10,7.8
			C122.8,155.7,124.8,156.5,127,156.1z"/>
		<path class="st7" d="M156.7,212.4c-5.8,0.1-10.2-4.3-10.1-10c0.1-5.6,4.2-9.9,9.7-10.1c5.5-0.2,10.3,4.4,10.5,9.9
			C166.9,207.8,162.5,212.3,156.7,212.4z"/>
		<path class="st7" d="M101.1,212.4c-5.7-0.1-10.2-4.8-9.9-10.3c0.2-5.3,4.8-9.8,10.1-9.8c5.6,0,10,4.5,10,10.3
			C111.3,208.3,107,212.5,101.1,212.4z"/>
		<path class="st10" d="M127,108c0,5.1,0,10.3,0,15.4c0,4.1,0,4.1,4.6,4c-1.7,2.1-2.9,4.3-5.6,4.6c-5.5-3.3-7.3-7.8-4.9-13.9
			c0.9-2.3,1.6-4.8,1.8-7.2C123.1,107.9,124.9,107.9,127,108z"/>
		<path class="st8" d="M127,137.2c3.3,0.2,6.8-1.1,9.5,2c-8.3-0.2-9.3,0.4-9.5,5.8c0,0,0,0.2,0,0.2c-4.9,0.1-7.1-3.9-10.8-6.6
			C120.1,137.2,123.5,136.9,127,137.2z"/>
		<path class="st16" d="M117,109.4c-4.6,2.9-9.2,4.1-14,0.5c-0.3-0.3-0.7-0.6-1-1l0,0c-0.3-0.3-0.6-0.6-1-0.9
			c-0.3-0.5-0.7-0.5-1.1-0.1l0.1,0.1c-0.2-3.9,2.5-3.2,4.9-3c-0.2,2,0.2,3.7,2.6,3.9c2.2,0.3,3.2-1.1,3.5-3.2c1,0.1,2,0.2,3,0.2
			l-0.1-0.1c-0.1,0.9,0.5,1,1.1,1.1l-0.1,0c0,0.7,0.4,1,1,1l0-0.1C116.3,108.5,116.7,108.9,117,109.4z"/>
		<path class="st12" d="M114,106.1c-1-0.1-2-0.2-3-0.2c-1.9-1.3-4-0.8-6-0.8c-2.4-0.2-5-0.9-4.9,3c-2-1.3-3.3-3.1-4-6
			C102.4,102.9,108.9,100.7,114,106.1z"/>
		<path class="st15" d="M97,97c1.9-3.7,5.5-4,9.1-4.2c1.3,0.4,2.4,0.9,2.9,2.2C104.7,94.1,101,96.3,97,97z"/>
		<path class="st4" d="M116,86c1.3,0,1.9,0.8,2,2C117.1,87.6,116.4,86.9,116,86z"/>
		<path class="st12" d="M115,107.1c-0.6-0.1-1.2-0.2-1.1-1.1C114.7,106,115,106.3,115,107.1z"/>
		<path class="st12" d="M116,108.1c-0.6-0.1-1-0.3-1-1C115.7,107,116,107.3,116,108.1z"/>
		<path class="st12" d="M100,107.9c0.4-0.4,0.8-0.4,1.1,0.1c-0.2,0.2-0.2,0.5,0,0.8C100.7,108.5,100.3,108.2,100,107.9z"/>
		<path class="st3" d="M101.1,108.8c-0.2-0.3-0.2-0.5,0-0.8c0.3,0.3,0.6,0.6,1,0.9C101.7,108.9,101.4,108.8,101.1,108.8z"/>
		<path class="st12" d="M117,109.4c-0.4-0.5-0.7-0.9-1.1-1.4C116.8,108.1,116.9,108.7,117,109.4z"/>
		<path class="st3" d="M102,109c0.3,0.3,0.7,0.6,1,1C102.7,109.6,102.4,109.3,102,109z"/>
		<path class="st15" d="M95,99c0.1-0.6,0.4-1,1-1C96.1,98.8,95.7,99,95,99z"/>
		<path class="st15" d="M96,98c0-0.7,0.3-1,1-1C97.2,97.9,96.8,98.1,96,98z"/>
		<path class="st9" d="M147.1,107c1-0.7-0.2-1.2-0.2-1.8c1.8,0.5,5.5-2.2,4.5,2.8c-4.6,4.4-9.7,5.3-14.6,2.5c-0.8-0.5-1.2-1-0.9-1.9
			c0.5-0.4,1.2-0.7,1.1-1.5l0,0c0.7,0,1.5,0.1,1-1l0,0c1.2,0.9,2.1-0.2,3.2-0.4c0.2,0,0.3,0.1,0.5,0.2
			C142.8,109.6,144.5,110.5,147.1,107z"/>
		<path class="st17" d="M127,145c0.2-5.4,1.2-6,9.5-5.8C133.6,141.6,131.9,145.8,127,145z"/>
		<path class="st12" d="M151.5,108c1-5-2.7-2.3-4.5-2.8c-1.1-0.8-1.3-1.9-1.3-3.1c1.7-0.1,3.4-0.2,5.1-0.3c1.7,1.1,3.4,2.3,4.4,4.1
			C154.1,106.9,153.3,108.4,151.5,108z"/>
		<path class="st12" d="M141.2,105.6c-1.1,0.2-2,1.3-3.2,0.4c0.3-0.5,0.7-1,1-1.5C139.8,104.9,140.5,105.3,141.2,105.6z"/>
		<path class="st12" d="M138.1,106c0.5,1.2-0.3,1-1,1C137,106.4,137.4,106,138.1,106z"/>
		<path class="st12" d="M137.1,107c0.1,0.9-0.5,1.1-1.1,1.5C136.1,107.8,136.2,107.2,137.1,107z"/>
		<path class="st11" d="M150.8,101.8c-1.7,0.1-3.4,0.2-5.1,0.3c-2.4-1.2-2.9-3.6-3.7-5.9c1-0.2,2-0.4,3-0.5
			C147.2,97.5,149.2,99.5,150.8,101.8z"/>
		<path class="st15" d="M145,95.7c-1,0.2-2,0.4-3,0.5c-0.9-0.5-1.1-1.3-1-2.2c1-0.2,2-0.3,3-0.5C144.8,94.1,145,94.8,145,95.7z"/>
		<path class="st3" d="M147.1,107c-2.6,3.5-4.3,2.6-5.4-1.2C143.7,105.4,145.3,106.7,147.1,107z"/>
		<path class="st3" d="M105,105c2,0,4.1-0.5,6,0.8c-0.2,2.1-1.2,3.4-3.5,3.2C105.2,108.7,104.8,107,105,105z"/>
	</g>
</g>
</svg>
