<?xml version="1.0" encoding="iso-8859-1"?>
<!-- Generator: Adobe Illustrator 23.0.3, SVG Export Plug-In . SVG Version: 6.00 Build 0)  -->
<svg version="1.1" id="Layer_1" xmlns="http://www.w3.org/2000/svg" xmlns:xlink="http://www.w3.org/1999/xlink" x="0px" y="0px"
	 viewBox="0 0 250 250" style="enable-background:new 0 0 250 250;" xml:space="preserve">
<g>
	<g>
		<path style="fill:none;" d="M121,251c-40,0-80,0-120,0C1,169,1.027,87,0.904,5C0.899,1.576,1.576,0.899,5,0.904
			c80.666,0.124,161.333,0.124,242,0c3.424-0.005,4.101,0.672,4.096,4.096c-0.124,80.666-0.124,161.333,0,242
			c0.005,3.424-0.67,4.112-4.096,4.099C207.334,250.944,167.667,251,128,251c0.305-1.66,1.816-2.267,2.903-3.187
			c17.489-14.793,35.018-29.538,52.518-44.319c4.81-4.063,11.381-7.352,13.808-12.553c2.429-5.206,0.27-12.401,0.895-18.647
			c0.578-5.776-1.544-8.24-7.136-8.142c-11.536-2.629-23.072-5.258-34.609-7.887c-0.187-0.442-0.374-0.884-0.561-1.326
			c1.781-1.288,4.377-0.369,6.111-2.331c-5.244-3.242-9.056-7.429-9.52-15.116c7.702,6.024,15.37,9.956,24.437,10.401
			c9.151,0.45,20.895-2.606,24.9-6.664c-1.162-0.084-2.326-0.15-3.487-0.241c-16.847-1.322-27.036-11.982-27.748-28.862
			c-0.217-5.155,0.281-10.186,1.648-15.145l-0.086,0.095c1.482-0.094,0.738-1.23,0.908-1.939c1.482-4.634,2.742-9.294,1.709-14.229
			c2.021-10.162,2.733-20.411,2.323-30.769c-1.175-29.661-17.198-45.147-46.81-45.157c-1.809-0.001-3.714,0.09-5.413-0.41
			C107.216-0.597,88.681,5.6,79.616,20.969C70.601,36.254,65.619,52.93,67.08,70.973c0.406,5.019,1.281,10.062,4.468,14.606
			c0.641-3.188,1.196-5.953,1.752-8.719c0,0,0.403,0.074,0.403,0.074l0.225-0.343c0.275,0.793,0.549,1.586,0.823,2.375
			c-1.638,4.849-0.414,9.81-0.555,14.719c-1.994,9.325-5.065,18.253-10.249,26.311c-3.177,4.938-7.034,9.156-13.653,9.591
			c9.611,6.389,20.242,5.807,31.544-2.048c-4.541,13.347-14.264,19.108-27.352,21.959c13.784,5.236,26.969,6.197,40.474,3.354
			c0.303,2.27-2.003,2.369-2.976,3.576c-11.095,2.483-22.193,4.953-33.04,8.413c-3.488-0.223-5.052,1.052-4.87,4.893
			c0.307,6.467,0.203,12.963,0.025,19.44c-0.071,2.582,0.775,4.299,2.717,5.948c10.632,9.033,21.246,18.092,31.713,27.316
			C99.344,231.968,110.721,240.861,121,251z"/>
		<path style="fill:#3B5A33;" d="M190.987,164.152c5.592-0.097,7.713,2.366,7.136,8.142c-0.625,6.246,1.535,13.441-0.895,18.647
			c-2.427,5.201-8.999,8.491-13.808,12.553c-17.499,14.781-35.028,29.526-52.518,44.319c-1.087,0.919-2.598,1.527-2.903,3.187
			c-1,0-2,0-3,0c0.53-5.576-1.181-11.289,1.02-16.763c11.548-1.47,18.263-8.226,21.071-19.258c1.187-0.952,1.179-1.934,0.074-2.943
			c-1.067-11.972-6.685-18.835-18.168-22.194c-0.248-0.441-0.545-0.64-0.972-0.196c-1.026,0.06-2.052,0.119-3.078,0.179
			c-0.309-0.115-0.618-0.229-0.927-0.344c1.291-2.722,0.919-5.642,1.015-8.507c0.497,0.006,1.019,0.113,1.488,0.001
			c21.007-5.008,42.009-10.038,63.014-15.053C190.507,165.691,190.834,165.013,190.987,164.152z"/>
		<path style="fill:#4F7047;" d="M126.02,234.237c-2.201,5.475-0.49,11.187-1.02,16.763c-1.333,0-2.667,0-4,0
			c-10.279-10.139-21.656-19.032-32.471-28.562c-10.467-9.224-21.081-18.282-31.713-27.316c-1.941-1.65-2.788-3.366-2.717-5.948
			c0.177-6.477,0.281-12.973-0.025-19.44c-0.182-3.841,1.382-5.116,4.87-4.893c1.412,1.629,3.446,1.747,5.342,2.192
			c11.53,2.704,23.055,5.428,34.593,8.095c8.644,1.998,17.305,3.921,25.959,5.877l0.197-0.031c-0.096,2.865,0.275,5.785-1.016,8.507
			c-5.31,1-10.935,1.351-14.065,6.836c0.105,0.317,0.054,0.606-0.152,0.868c-1.108-0.486-1.856,0.001-2.542,0.857
			c-3.451,4.307-5.448,9.36-4.819,14.705c0.647,5.502,1.14,11.641,7.624,14.263l-0.074-0.075c3.158,6.342,9.087,6.684,15.051,6.951
			C125.368,234.003,125.694,234.12,126.02,234.237z"/>
		<path style="fill:#673922;" d="M74.752,78.969c-0.275-0.793-0.549-1.586-0.822-2.376c-0.162-0.13-0.326-0.264-0.49-0.397
			c-0.047,0.221-0.094,0.442-0.141,0.663c-0.556,2.766-1.111,5.531-1.752,8.719c-3.187-4.543-4.061-9.587-4.468-14.606
			c-1.46-18.043,3.521-34.719,12.537-50.004C88.681,5.6,107.216-0.597,124.791,4.572c1.699,0.5,3.604,0.409,5.413,0.41
			c29.612,0.011,45.635,15.497,46.81,45.157c0.41,10.358-0.302,20.607-2.323,30.768c-1.579-1.337-3.159-2.672-4.739-4.007
			c-0.644-0.634-1.288-1.269-1.932-1.903c-1.62-3.255-3.465-6.357-6.064-8.948c-0.059-0.435-0.119-0.87-0.179-1.304
			c-0.163,0.083-0.325,0.166-0.488,0.248c0.241,0.336,0.482,0.673,0.723,1.009c1.171,3.709,1.674,7.814,5.798,9.77
			c0.055,0.365,0.11,0.73,0.164,1.096c-0.145,3.499,3.382,5.446,3.845,8.799c-2.516,0.617-4.504-1.311-6.816-1.024
			c-1.553-1.84-3.824-2.076-5.942-2.655c-0.43-0.788-1.168-1.001-1.987-1.064c-0.526-1.417-1.885-1.399-3.026-1.757
			c-4.169-3.784-8.278-7.646-13.24-10.423c-5.443-9.109-12.846-16.94-17.253-28.21c-3.455,10.708-6.439,19.958-9.423,29.207
			c-1.373,3.417-2.746,6.834-4.119,10.251c-0.9,1.812-1.801,3.624-2.701,5.435c-1.089,2.193-2.177,4.385-3.266,6.578
			c-1.833,2.562-2.133,6.091-5.033,7.981c1.303-5.034,2.606-10.069,3.909-15.103c0.635-1.587,1.314-3.164,1.151-4.937
			c1.327-2.236,1.241-4.709,0.729-7.543c-1.613,2.41-3.226,4.82-4.838,7.23c-1.455,1.164-2.932,2.313-3.162,4.365
			c-3.426,2.652-5.599,6.292-7.809,9.903c-1.511,0.917-2.333,2.388-3.128,3.883c-2.562,0.575-2.732-1.84-3.759-3.094
			C78.336,90.08,77.868,83.902,74.752,78.969z M160.768,61.989c-0.077-0.119-0.155-0.238-0.232-0.358
			c-0.099,0.1-0.299,0.255-0.279,0.29c0.092,0.169,0.244,0.306,0.375,0.454C160.676,62.247,160.722,62.118,160.768,61.989z"/>
		<path style="fill:#402314;" d="M94.96,152.851c-13.505,2.843-26.691,1.882-40.474-3.354c13.089-2.851,22.812-8.612,27.352-21.959
			c-11.302,7.855-21.933,8.436-31.544,2.048c6.62-0.435,10.477-4.653,13.653-9.591c5.184-8.058,8.255-16.986,10.248-26.306
			c2.162,0.03,2.322,2.074,3.177,3.314c2.354,3.413,5.293,5.759,9.566,6.089c0.835,9.579,5.728,16.744,13.184,22.465
			c1.963,1.506,3.647,3.374,5.459,5.076c-0.124,1.869-0.248,3.739-0.371,5.608c-1.501,5.957-3.632,11.583-8.329,15.861
			c-0.767,0.037-1.607-0.089-1.961,0.874L94.96,152.851z M82.313,126.294c0.556-0.486,0.826-1.01,0.214-1.648
			c-0.238,0.395-0.475,0.791-0.711,1.187c-0.411,0.251-0.89,0.651-0.431,1.046C81.863,127.292,82.114,126.687,82.313,126.294z"/>
		<path style="fill:#422516;" d="M172.16,96.982c-1.367,4.959-1.866,9.99-1.648,15.145c0.712,16.88,10.901,27.54,27.748,28.862
			c1.162,0.091,2.325,0.157,3.487,0.241c-4.005,4.058-15.749,7.113-24.9,6.664c-9.067-0.446-16.735-4.377-24.437-10.401
			c0.463,7.687,4.275,11.874,9.52,15.116c-1.735,1.962-4.33,1.043-6.111,2.33c-7.049-5.112-8.282-13.05-10.067-20.72
			c-0.318-1.504-0.636-3.007-0.954-4.511c0.586-2.232,2.481-3.486,3.956-4.967c6.179-6.202,12.724-12.124,13.251-21.751
			C166.7,103.202,168.886,99.173,172.16,96.982z M152.886,137.473c-0.103-0.121-0.206-0.242-0.309-0.362
			c-0.115,0.109-0.23,0.219-0.345,0.328c0.158,0.123,0.316,0.247,0.473,0.37C152.766,137.697,152.826,137.585,152.886,137.473z"/>
		<path style="fill:#F49C74;" d="M145.752,134.219c1.785,7.67,3.018,15.608,10.067,20.72c0.186,0.442,0.373,0.884,0.556,1.327
			c-0.126,1.28-1.097,1.988-1.885,2.828c-8.083,8.62-17.689,14.365-29.624,15.727c-0.298-0.229-0.596-0.458-0.894-0.687
			c-0.008-8.668-0.016-17.336-0.023-26.005c6.4,0.329,11.291-2.465,15.502-7.089C141.531,138.754,142.961,135.846,145.752,134.219z"
			/>
		<path style="fill:#F5BD99;" d="M123.949,148.129c0.008,8.668,0.016,17.336,0.023,26.004c-13.951,0.039-23.997-6.977-31.988-17.705
			c0.973-1.207,3.28-1.306,2.976-3.576c0,0-0.04,0.125-0.04,0.124c0.654-0.291,1.307-0.583,1.961-0.874
			c4.698-4.278,6.829-9.904,8.329-15.861C111.076,140.803,115.726,147.281,123.949,148.129z"/>
		<path style="fill:#2D4625;" d="M124.866,174.82c11.935-1.361,21.541-7.107,29.624-15.727c0.788-0.84,1.759-1.549,1.885-2.828
			c11.539,2.628,23.076,5.257,34.612,7.887c-0.153,0.86-0.48,1.539-1.45,1.77c-21.005,5.016-42.007,10.045-63.014,15.053
			c-0.469,0.112-0.991,0.004-1.488-0.001c0,0-0.197,0.03-0.195,0.03C124.849,178.943,124.857,176.882,124.866,174.82z"/>
		<path style="fill:#638959;" d="M124.866,174.82c-0.008,2.061-0.017,4.123-0.026,6.184c-8.655-1.956-17.316-3.879-25.96-5.877
			c-11.538-2.667-23.064-5.39-34.593-8.095c-1.896-0.445-3.93-0.563-5.342-2.192c10.846-3.46,21.945-5.93,33.04-8.413
			c7.991,10.729,18.037,17.744,31.988,17.705C124.27,174.362,124.568,174.591,124.866,174.82z"/>
		<path style="fill:#F49C74;" d="M172.16,96.982c-3.274,2.191-5.46,6.221-10.156,6.009c0.624-3.786,1.249-7.572,1.873-11.358
			c0.376-2.331,0.751-4.662,1.127-6.992c2.312-0.284,4.3,1.644,6.816,1.027c-0.463-3.353-3.99-5.3-3.845-8.799
			c0.659,0.011,1.318,0.022,1.977,0.033c1.58,1.335,3.16,2.67,4.739,4.007c1.032,4.937-0.228,9.598-1.71,14.23
			c-1.049,0.297-1.04,1.089-0.907,1.94L172.16,96.982z"/>
		<path style="fill:#F49C74;" d="M86.938,103.091c-4.273-0.329-7.212-2.676-9.566-6.089c-0.855-1.24-1.015-3.283-3.177-3.314
			c0.142-4.914-1.082-9.875,0.556-14.724c3.117,4.937,3.586,11.115,7.358,15.723c1.027,1.254,1.196,3.669,3.759,3.094
			C86.225,99.552,86.581,101.322,86.938,103.091z"/>
		<path style="fill:#4F7047;" d="M172.074,97.076c-0.133-0.85-0.142-1.643,0.907-1.94C172.811,95.846,173.555,96.982,172.074,97.076
			z"/>
		<path style="fill:#F49C74;" d="M73.299,76.859c0.047-0.221,0.094-0.442,0.141-0.663c0.164,0.133,0.328,0.267,0.49,0.397
			c-0.002-0.003-0.227,0.34-0.227,0.34S73.299,76.859,73.299,76.859z"/>
		<path style="fill:#EDEDED;" d="M126.02,234.237c-0.326-0.117-0.652-0.234-0.978-0.35c0.011-2.172,0.021-4.344,0.032-6.516
			c3.982-0.063,7.965-0.098,11.945-0.213c0.864-0.025,2.249,0.441,2.302-1.015c0.039-1.075-0.129-2.477-1.417-2.907
			c-1.113-0.371-2.352-0.362-3.716-0.546c6.079-8.473,6.09-12.502,0.269-21.624c0.703-0.076,1.357-0.217,2.01-0.206
			c2.33,0.039,2.852-1.834,2.865-3.36c0.022-2.594-2.238-1.186-3.378-1.272c-3.633-0.275-7.293-0.207-10.942-0.271
			c-0.022-2.044-0.043-4.087-0.065-6.131c1.026-0.06,2.052-0.119,3.078-0.179c0.324,0.065,0.648,0.131,0.972,0.196
			c11.484,3.359,17.102,10.222,18.168,22.195c-0.025,0.981-0.049,1.962-0.074,2.943C144.283,226.011,137.567,232.767,126.02,234.237
			z"/>
		<path style="fill:#C9CBCB;" d="M124.947,189.824c0.022,2.044,0.043,4.087,0.065,6.131c-5.019,0.121-10.038,0.241-15.057,0.362
			c3.13-5.485,8.755-5.836,14.065-6.836C124.328,189.595,124.637,189.71,124.947,189.824z"/>
		<path style="fill:#2D4625;" d="M147.091,214.979c0.025-0.981,0.049-1.962,0.074-2.943
			C148.27,213.045,148.278,214.027,147.091,214.979z"/>
		<path style="fill:#4F7047;" d="M128.996,189.842c-0.324-0.065-0.648-0.131-0.972-0.196
			C128.452,189.201,128.749,189.4,128.996,189.842z"/>
		<path style="fill:#1F3122;" d="M109.954,196.317c5.019-0.121,10.038-0.241,15.057-0.362c3.649,0.064,7.309-0.005,10.942,0.271
			c1.139,0.086,3.4-1.322,3.378,1.272c-0.013,1.527-0.535,3.4-2.865,3.36c-0.652-0.011-1.307,0.13-2.01,0.206
			c5.821,9.122,5.81,13.152-0.269,21.624c1.364,0.183,2.604,0.174,3.716,0.546c1.288,0.43,1.455,1.832,1.417,2.907
			c-0.052,1.455-1.438,0.99-2.302,1.015c-3.98,0.116-7.963,0.15-11.945,0.213c-5.027-0.145-10.055-0.29-15.082-0.435
			c0,0,0.074,0.075,0.074,0.075c-0.801-4.225,2.497-3.966,5.232-4.268c-6.041-8.036-6.135-12.812-0.461-21.627
			c-2.819,0.053-4.934-0.777-5.033-3.93C110.009,196.923,110.059,196.634,109.954,196.317z M125.081,202.373
			c-6.072,0.618-9.974,4.263-10.032,9.372c-0.058,5.192,3.876,8.905,9.918,9.361c5.643-0.662,9.053-4.008,9.171-8.997
			C134.264,206.8,131.341,203.658,125.081,202.373z"/>
		<path style="fill:#C9CBCB;" d="M109.803,197.186c0.099,3.153,2.215,3.983,5.033,3.93c-5.674,8.815-5.58,13.591,0.461,21.627
			c-2.736,0.302-6.034,0.043-5.232,4.268c-6.484-2.623-6.977-8.761-7.624-14.263c-0.629-5.345,1.368-10.398,4.819-14.705
			C107.946,197.187,108.694,196.7,109.803,197.186z"/>
		<path style="fill:#C9CBCB;" d="M109.991,226.936c5.027,0.145,10.055,0.29,15.082,0.435c-0.011,2.172-0.021,4.344-0.032,6.516
			C119.078,233.62,113.149,233.277,109.991,226.936z"/>
		<path style="fill:#F5BD99;" d="M86.938,103.091c-0.357-1.77-0.713-3.54-1.07-5.309c0.794-1.494,1.617-2.965,3.128-3.883
			c3.023,2.052,6.046,4.104,9.069,6.156c0.109,0.532,0.218,1.065,0.327,1.597c0.21-0.166,0.421-0.331,0.631-0.497
			c5.591,3.266,11.886,4.396,18.041,5.953c6.923,8.328,6.923,8.328,13.918,0.025c8.52-1.184,16.371-3.943,23.273-9.29
			c3.007-2.33,6.404-4.157,9.623-6.212c-0.624,3.786-1.249,7.572-1.873,11.358c-0.526,9.627-7.071,15.549-13.25,21.751
			c-1.475,1.48-3.37,2.735-3.956,4.968c-3.018,1.376-4.416,4.401-6.632,6.59c-6.237,6.165-14.487,7.67-21.805,3.09
			c-3.894-2.438-7.205-5.807-10.78-8.756c-1.812-1.702-3.497-3.57-5.459-5.076C92.666,119.836,87.773,112.67,86.938,103.091z
			 M137.543,118.247c-6.63-2.077-21.225-1.873-25.957,0.242C122.226,129.461,125.892,130.268,137.543,118.247z M97.323,103.415
			l0.225,0.191l0.047-0.305L97.323,103.415z"/>
		<path style="fill:#4F7047;" d="M163.877,91.632c-3.22,2.055-6.616,3.883-9.623,6.212c-6.902,5.347-14.753,8.106-23.273,9.29
			c-0.671-0.003-1.343-0.005-2.014-0.007c-1.664,0.104-3.327,0.207-4.991,0.311l0.033-0.492c0-7.983-0.001-15.967-0.001-23.95
			c-0.01-3.834-0.019-7.669-0.029-11.503c5.61-0.917,11.221-1.835,16.831-2.752c4.961,2.779,9.069,6.64,13.238,10.425
			c-6.37,1.111-12.795,0.859-19.213,0.796c-5.883,0.106-5.856,0.094-4.851,2.508c1.893,4.545,5.726,7.177,9.675,9.583
			c3.073,1.872,5.083-1.464,7.679-2.105c2.7-0.667,5.285-1.926,7.801-3.169c1.949-0.963,3.63-2.366,3.923-4.791
			c2.117,0.579,4.389,0.815,5.942,2.655C164.629,86.97,164.253,89.301,163.877,91.632z"/>
		<path style="fill:#3E6336;" d="M123.98,71.493c0.01,3.834,0.019,7.669,0.029,11.503c-2.137,0.123-1.902,1.873-2.226,3.243
			c-1.613,6.819-3.228,13.638-4.842,20.457l0.123,0.414c-6.155-1.557-12.451-2.687-18.042-5.953
			c-0.001-0.392-0.002-0.784-0.003-1.176l-0.004,0.004c2.9-1.889,3.2-5.419,5.033-7.981c6.275,1.646,9.273-3.215,13.008-6.58
			c1.248-1.124,2.472-2.431,1.648-4.271c-0.807-1.804-2.56-0.94-3.948-1.056c-1.58-0.035-3.16-0.07-4.741-0.105
			c1.373-3.417,2.746-6.834,4.119-10.251C117.416,70.324,120.698,70.908,123.98,71.493z"/>
		<path style="fill:#F5BD99;" d="M123.98,71.493c-3.282-0.584-6.564-1.169-9.845-1.753c2.984-9.249,5.968-18.499,9.423-29.207
			c4.407,11.27,11.81,19.101,17.253,28.21C135.2,69.658,129.59,70.576,123.98,71.493z"/>
		<path style="fill:#3B5A33;" d="M159.062,81.987c-0.292,2.425-1.974,3.828-3.923,4.791c-2.516,1.243-5.101,2.501-7.801,3.169
			c-2.595,0.642-4.605,3.978-7.679,2.105c-3.949-2.406-7.783-5.037-9.675-9.583c-1.005-2.413-1.032-2.402,4.851-2.508
			c0.951,4.187,2.831,6.79,7.826,5.473c3.012-0.794,6.184-1.154,9.304-1.303c2.468-0.118,3.995-1.202,5.109-3.209
			C157.894,80.986,158.632,81.199,159.062,81.987z"/>
		<path style="fill:#3E6336;" d="M98.064,100.056c-3.023-2.052-6.046-4.104-9.069-6.156c2.209-3.611,4.383-7.251,7.809-9.903
			c2.04,0.295,4.08,0.59,6.12,0.885c-1.303,5.034-2.606,10.069-3.909,15.103c0,0,0.004-0.004,0.003-0.004
			C98.701,100.011,98.383,100.036,98.064,100.056z"/>
		<path style="fill:#EDEDED;" d="M157.075,80.923c-1.114,2.007-2.64,3.09-5.109,3.209c-3.12,0.149-6.293,0.509-9.304,1.303
			c-4.994,1.317-6.874-1.286-7.826-5.473c6.417,0.063,12.842,0.315,19.212-0.796C155.19,79.524,156.549,79.506,157.075,80.923z"/>
		<path style="fill:#3B5A33;" d="M114.756,80.096c1.388,0.116,3.14-0.747,3.948,1.056c0.824,1.84-0.399,3.147-1.648,4.271
			c-3.736,3.365-6.734,8.226-13.008,6.58c1.089-2.192,2.178-4.385,3.266-6.577C112.209,87.02,113.044,82.946,114.756,80.096z"/>
		<path style="fill:#EDEDED;" d="M114.756,80.096c-1.712,2.85-2.547,6.924-7.442,5.331c0.901-1.812,1.801-3.624,2.701-5.436
			C111.596,80.026,113.176,80.061,114.756,80.096z"/>
		<path style="fill:#EDEDED;" d="M102.925,84.881c-2.04-0.295-4.079-0.59-6.12-0.885c0.23-2.052,1.706-3.201,3.162-4.365
			c1.37,0.104,2.74,0.209,4.11,0.313C104.239,81.718,103.559,83.294,102.925,84.881z"/>
		<path style="fill:#3E6336;" d="M104.076,79.945c-1.37-0.104-2.74-0.209-4.11-0.313c1.613-2.41,3.225-4.82,4.838-7.23
			C105.317,75.235,105.403,77.709,104.076,79.945z"/>
		<path style="fill:#F49C74;" d="M161.956,66.049c2.599,2.591,4.445,5.693,6.064,8.948c-0.173,0.23-0.243,0.489-0.21,0.775
			c-4.124-1.956-4.627-6.061-5.798-9.77L161.956,66.049z"/>
		<path style="fill:#402314;" d="M167.81,75.772c-0.033-0.286,0.037-0.544,0.21-0.775c0.644,0.634,1.288,1.269,1.932,1.903
			c-0.659-0.011-1.318-0.022-1.977-0.033C167.92,76.502,167.865,76.137,167.81,75.772z"/>
		<path style="fill:#F49C74;" d="M162.012,66.002c-0.241-0.336-0.482-0.673-0.723-1.009c0.163-0.083,0.325-0.166,0.488-0.248
			c0.06,0.435,0.12,0.869,0.179,1.304C161.956,66.049,162.012,66.002,162.012,66.002z"/>
		<path style="fill:#B8563E;" d="M160.768,61.989c-0.046,0.129-0.091,0.258-0.137,0.387c-0.131-0.148-0.283-0.285-0.375-0.454
			c-0.019-0.035,0.181-0.191,0.279-0.29C160.613,61.751,160.69,61.87,160.768,61.989z"/>
		<path style="fill:#B8563E;" d="M105.581,130.633c3.574,2.949,6.885,6.319,10.78,8.756c7.318,4.58,15.568,3.075,21.805-3.09
			c2.215-2.19,3.614-5.215,6.632-6.59c0.318,1.502,0.636,3.006,0.955,4.509c-2.791,1.627-4.221,4.536-6.302,6.821
			c-4.21,4.624-9.101,7.418-15.502,7.089c-8.223-0.847-12.873-7.326-18.739-11.888C105.334,134.371,105.458,132.502,105.581,130.633
			z"/>
		<path style="fill:#638959;" d="M81.814,125.832c0.238-0.395,0.475-0.791,0.713-1.186c0.612,0.638,0.342,1.162-0.214,1.648
			C82.146,126.141,81.979,125.987,81.814,125.832z"/>
		<path style="fill:#FEFEFE;" d="M96.881,152.102c-0.654,0.291-1.307,0.582-1.961,0.874
			C95.274,152.013,96.114,152.139,96.881,152.102z"/>
		<path style="fill:#638959;" d="M82.313,126.294c-0.199,0.393-0.449,0.998-0.928,0.585c-0.459-0.395,0.021-0.795,0.431-1.047
			C81.979,125.987,82.146,126.141,82.313,126.294z"/>
		<path style="fill:#FEFEFE;" d="M152.886,137.473c-0.06,0.112-0.121,0.224-0.181,0.336c-0.158-0.123-0.316-0.247-0.473-0.37
			c0.115-0.109,0.23-0.219,0.345-0.328C152.68,137.232,152.783,137.352,152.886,137.473z"/>
		<path style="fill:#C9CBCB;" d="M124.967,221.105c-6.043-0.456-9.977-4.169-9.918-9.361c0.058-5.109,3.959-8.754,10.032-9.371
			C125.043,208.617,125.005,214.861,124.967,221.105z"/>
		<path style="fill:#EDEDED;" d="M124.967,221.105c0.038-6.244,0.075-12.488,0.113-18.732c6.26,1.285,9.184,4.427,9.058,9.735
			C134.02,217.098,130.61,220.443,124.967,221.105z"/>
		<path style="fill:#AB2A2B;" d="M137.543,118.247c-11.651,12.021-15.317,11.213-25.957,0.242
			C116.319,116.374,130.913,116.17,137.543,118.247z"/>
		<path style="fill:#F49C74;" d="M128.967,107.127c0.671,0.002,1.343,0.005,2.014,0.007c-6.995,8.303-6.995,8.303-13.918-0.025
			c0,0-0.123-0.414-0.123-0.414c2.356,0.084,4.713,0.167,7.069,0.251c0,0-0.033,0.492-0.033,0.491
			C125.844,110.626,127.349,107.971,128.967,107.127z"/>
		<path style="fill:#B8563E;" d="M98.064,100.056c0.318-0.02,0.636-0.045,0.954-0.076c0.001,0.392,0.002,0.784,0.003,1.176
			c-0.21,0.166-0.42,0.331-0.631,0.497C98.282,101.121,98.173,100.588,98.064,100.056z"/>
		<polygon style="fill:#B8563E;" points="97.323,103.415 97.595,103.301 97.548,103.606 		"/>
		<path style="fill:#3B5A33;" d="M124.009,106.946c-2.356-0.084-4.713-0.167-7.069-0.251c1.614-6.819,3.229-13.638,4.842-20.457
			c0.324-1.369,0.088-3.119,2.226-3.243C124.009,90.98,124.009,98.963,124.009,106.946z"/>
		<path style="fill:#F5BD99;" d="M128.967,107.127c-1.618,0.844-3.123,3.498-4.991,0.311
			C125.64,107.334,127.304,107.231,128.967,107.127z"/>
	</g>
</g>
</svg>
