<?xml version="1.0" encoding="iso-8859-1"?>
<!-- Generator: Adobe Illustrator 23.0.3, SVG Export Plug-In . SVG Version: 6.00 Build 0)  -->
<svg version="1.1" id="Layer_1" xmlns="http://www.w3.org/2000/svg" xmlns:xlink="http://www.w3.org/1999/xlink" x="0px" y="0px"
	 viewBox="0 0 250 250" style="enable-background:new 0 0 250 250;" xml:space="preserve">
<g>
	<g>
		<path style="fill:none;" d="M123,251c-40.667,0-81.333,0-122,0C1,167.667,1,84.333,1,1c82,0,164,0.027,246-0.096
			c3.424-0.005,4.101,0.672,4.096,4.096c-0.124,80.666-0.124,161.333,0,242c0.005,3.424-0.67,4.112-4.096,4.099
			C206.667,250.945,166.333,251,126,251c0.409-1.779,1.999-2.575,3.179-3.654c24.027-21.977,48.055-43.953,72.191-65.811
			c2.443-2.212,3.674-4.498,3.509-7.731c-0.135-2.649-0.038-5.309-0.043-7.965c0.239-3.963,0.441-7.928,0.73-11.887
			c0.153-2.104-0.423-3.366-2.744-3.877c-13.561-2.984-27.096-6.091-40.639-9.156c-1.259-3.867-4.503-2.818-7.275-2.936
			c-0.053-1.81-0.063-3.621-0.166-5.428c-0.37-6.529,0.836-13.113-0.697-19.599c0.108-1.922,0.216-3.844,0.324-5.767
			c2.361-4.07,5.983-7.591,5.722-12.815c-0.142-2.84,0.367-5.588,0.951-8.336c7.136-3.673,9.284-10.226,9.696-17.519
			c0.158-2.807-0.978-5.518-4.069-6.691c2.183-3.915-2.252-4.634-3.361-6.959c0.541-8.124,1.198-16.242,1.597-24.372
			c0.596-12.157,0.556-12.255-10.9-16.84c-10.657-4.264-21.386-8.316-33.267-6.726c-12.602,1.686-24.431,6.113-36.443,9.941
			c-2.462,0.785-1.931,2.241-1.799,3.823c0.901,10.765,1.823,21.528,2.738,32.291c-2.007,2.444-7.67,3.837-2.411,8.367
			c-3.2,0.835-5.002,2.828-5.438,6.171c-0.928,7.127,3.884,15.873,10.54,18.969c-0.108,7.306-0.552,14.696,5.173,20.532
			c0.066,1.903,0.133,3.806,0.2,5.709c-0.124,8.713-0.248,17.426-0.372,26.14c-2.417,0.479-5.578-1.606-7.074,2.05
			c-10.587,2.698-21.107,5.716-31.79,7.955c-5.028,1.054-7.288,3.014-6.236,8.15c0.132,0.646,0.152,1.314,0.224,1.972
			c-0.066,6.159-0.018,12.322-0.253,18.475c-0.096,2.512,1.157,4.005,2.78,5.51c5.616,5.207,11.221,10.427,16.801,15.673
			C85.925,216.1,104.46,233.553,123,251z"/>
		<path style="fill:#FDCB18;" d="M204.835,165.839c0.006,2.655-0.092,5.316,0.043,7.965c0.165,3.233-1.066,5.519-3.509,7.731
			c-24.135,21.858-48.164,43.834-72.191,65.811c-1.18,1.079-2.77,1.875-3.179,3.654c-0.667,0-1.333,0-2,0
			c-0.003-24.617-0.006-49.234-0.009-73.851c7.4-5.033,14.867-9.974,22.163-15.154c2.312-1.642,4.565-2.344,7.362-2.146
			C170.716,161.063,187.85,162.801,204.835,165.839z"/>
		<path style="fill:#FEDD18;" d="M123.991,177.149c0.003,24.617,0.006,49.234,0.009,73.851c-0.333,0-0.667,0-1,0
			c-18.54-17.447-37.075-34.9-55.622-52.339c-5.58-5.246-11.184-10.466-16.801-15.673c-1.623-1.505-2.876-2.998-2.78-5.51
			c0.235-6.153,0.187-12.316,0.253-18.475c14.613-0.591,29.224-1.152,43.856-1.048c2.624,0.019,4.742,0.685,6.903,2.182
			C107.135,165.906,115.586,171.494,123.991,177.149z"/>
		<path style="fill:#262223;" d="M85.235,52.988c-0.915-10.764-1.837-21.527-2.738-32.292c-0.132-1.582-0.663-3.038,1.799-3.823
			c12.012-3.829,23.841-8.255,36.443-9.941c11.881-1.589,22.61,2.462,33.267,6.726c11.457,4.584,11.497,4.682,10.9,16.84
			c-0.399,8.131-1.056,16.249-1.597,24.372c-1.903-0.576-2.958-1.974-3.629-3.746c0.996-4.766-2.409-6.434-5.735-8.158
			c0.373-2.784,0.594-5.6,1.159-8.344c0.616-2.995,0.462-4.203-3.235-3.084c-8.294,2.509-16.926,3.072-25.546,3.275
			c-7.619,0.18-11.528,5.797-9.08,13.338c-0.134,0.314-0.164,0.638-0.089,0.972c-5.561-1.981-8.971-5.571-8.246-11.819
			c0.331-2.849-0.893-3.454-3.306-3.333c-1.144,0.057-2.307-0.113-3.453-0.251c-9.207-1.107-9.206-1.112-7.962,8.257
			c0.098,2.883-2.408,3.748-4.105,5.197c-1.488,1.271-3.531,2.122-2.871,4.68C86.553,52.232,85.894,52.61,85.235,52.988z"/>
		<path style="fill:#4B3D85;" d="M123.991,177.149c-8.404-5.655-16.855-11.244-25.181-17.012c-2.161-1.497-4.279-2.163-6.903-2.182
			c-14.632-0.104-29.243,0.457-43.856,1.048c-0.072-0.658-0.091-1.327-0.224-1.972c-1.053-5.136,1.208-7.096,6.236-8.15
			c10.683-2.239,21.203-5.257,31.79-7.955c2.763,0.646,4.166,3.639,7.046,4.083c1.215,2.341,3.534,3.503,5.519,4.948
			c8.565,6.237,16.343,13.539,25.545,18.913c4.302-2.156,7.9-5.345,11.554-8.354c6.337-5.216,13.634-9.253,19.117-15.513
			c3.423,0.315,4.27-4.133,7.549-4.084c13.543,3.065,27.078,6.172,40.639,9.156c2.321,0.511,2.897,1.773,2.744,3.877
			c-0.289,3.959-0.491,7.924-0.73,11.887c-16.985-3.038-34.12-4.776-51.319-5.99c-2.798-0.198-5.05,0.505-7.362,2.146
			C138.857,167.175,131.391,172.116,123.991,177.149z"/>
		<path style="fill:#F6BE9A;" d="M123.963,168.87c-9.202-5.373-16.98-12.675-25.545-18.913c-1.985-1.445-4.305-2.607-5.519-4.948
			c0.009-2.045,0.019-4.089,0.028-6.133c0.124-8.713,0.248-17.426,0.372-26.139c6.397,4.709,11.572,10.729,17.144,16.296
			c3.864,3.861,8.119,6.024,13.521,6.041C123.963,146.339,123.963,157.605,123.963,168.87z"/>
		<path style="fill:#F59E77;" d="M123.963,168.87c0-11.265,0-22.531,0-33.796c6.608,0.56,11.462-2.115,15.902-7.082
			c4.577-5.12,8.579-10.86,14.18-15.036c1.532,6.486,0.326,13.071,0.697,19.599c0.102,1.807,0.113,3.619,0.166,5.428
			c-1.034,2.303-0.589,4.664-0.275,7.02c-5.483,6.259-12.78,10.297-19.117,15.513C131.862,163.525,128.265,166.714,123.963,168.87z"
			/>
		<path style="fill:#4C2290;" d="M159.679,51.127c0.672,1.769,1.727,3.168,3.63,3.744c1.109,2.325,5.544,3.044,3.361,6.96
			c-2.03,2.001-3.686,4.253-4.68,6.951c-1.711,0.948-2.246,2.749-3.122,4.303c-2.936,4.112-5.5,9.12-11.883,4.938
			c-5.777-2.702-11.811-4.589-18.084-5.723c-1.628-0.143-3.256-0.285-4.884-0.428c-0.335-0.132-0.67-0.264-1.005-0.396
			c-0.002-2.152-0.004-4.303-0.007-6.455c1.774-0.352,3.569-0.622,5.319-1.069c10.291-2.631,19.774-6.463,24.677-16.949
			C155.985,47.149,156.818,50.781,159.679,51.127z M142.317,66.064c-2.712,0.313-5.425,0.627-8.417,0.972
			c6.51,7.508,16.553,6.557,21.609-1.838c-3.39-0.14-6.618-0.188-9.774,0.865C144.596,66.064,143.457,66.064,142.317,66.064z"/>
		<path style="fill:#4D3E85;" d="M123.006,65.021c0.002,2.152,0.004,4.303,0.007,6.455c-1.011,0.218-2.023,0.437-3.035,0.655
			c-6.34,0.503-12.38,2.071-18.012,5.084c-4.271,3.451-7.252,2.254-9.624-2.399c-0.769-1.509-1.62-3.228-3.358-4.062
			c-0.221-1.723-1.361-2.797-2.663-3.756c-1.164-1.88-2.328-3.759-3.493-5.639c-5.262-4.535,0.401-5.928,2.408-8.372
			c0.659-0.378,1.318-0.756,1.977-1.135c3.186-0.732,4.872-3.84,7.825-4.94C101.683,57.084,111.247,62.747,123.006,65.021z
			 M105.231,66.071c-1.088-0.02-2.177-0.039-3.265-0.059c-3.151-0.98-6.341-0.988-9.822-0.798c5.543,8.531,15.72,9.303,21.606,1.742
			C110.79,66.648,108.01,66.36,105.231,66.071z"/>
		<path style="fill:#F59D76;" d="M88.983,70.753c1.739,0.836,2.589,2.555,3.358,4.063c2.373,4.653,5.353,5.85,9.625,2.399
			c-0.723,12.676,1.731,25.276,0.919,37.955c-3.262-2.715-6.525-5.429-9.787-8.144c-5.726-5.836-5.281-13.226-5.173-20.533
			c0.033-3.109,0.067-6.217,0.1-9.324C89.987,75.275,88.613,72.884,88.983,70.753z"/>
		<path style="fill:#F59D76;" d="M146.985,78.023c6.383,4.182,8.947-0.826,11.883-4.938c0.384,1.576-0.557,3.824,2.145,4.223
			c0.861,2.908-1.948,5.828,0.03,8.732c-0.584,2.748-1.093,5.496-0.951,8.336c0.261,5.224-3.361,8.744-5.722,12.815
			c-4.448,1.532-5.504,6.661-9.356,8.825c0.335-10.06,0.734-20.118,0.963-30.18C146.038,83.17,146.258,80.577,146.985,78.023z"/>
		<path style="fill:#B9573E;" d="M145.014,116.016c3.853-2.164,4.908-7.294,9.356-8.825c-0.109,1.922-0.217,3.844-0.325,5.766
			c-5.601,4.175-9.603,9.915-14.18,15.035c-4.44,4.967-9.294,7.641-15.902,7.082c-5.402-0.017-9.657-2.18-13.521-6.041
			c-5.572-5.567-10.746-11.587-17.144-16.296c-0.067-1.903-0.133-3.806-0.2-5.71c3.262,2.714,6.525,5.429,9.787,8.142
			c3.465,3.541,6.743,7.292,10.436,10.578c5.737,5.105,18.495,4.654,23.908-0.763C140.021,122.191,142.432,119.017,145.014,116.016z
			"/>
		<path style="fill:#D9765B;" d="M88.026,77.169c-0.034,3.107-0.067,6.215-0.1,9.324c-6.656-3.094-11.467-11.84-10.54-18.968
			c0.435-3.343,2.238-5.336,5.438-6.171c1.167,1.885,2.331,3.764,3.495,5.646C86.597,70.44,86.1,74.008,88.026,77.169z"/>
		<path style="fill:#D9765B;" d="M161.043,86.04c-1.978-2.904,0.831-5.824-0.03-8.733c0.466-2.826,1.337-5.605,0.977-8.525
			c0.994-2.698,2.65-4.95,4.68-6.951c3.09,1.172,4.227,3.883,4.068,6.69C170.327,75.813,168.179,82.366,161.043,86.04z"/>
		<path style="fill:#4C2290;" d="M154.634,145.004c-0.314-2.356-0.759-4.717,0.275-7.02c2.772,0.118,6.015-0.931,7.274,2.936
			C158.904,140.871,158.057,145.318,154.634,145.004z"/>
		<path style="fill:#4C2290;" d="M92.927,138.876c-0.009,2.044-0.019,4.089-0.028,6.133c-2.88-0.444-4.283-3.438-7.046-4.083
			C87.349,137.27,90.51,139.355,92.927,138.876z"/>
		<path style="fill:#F3BD9A;" d="M123.006,65.021c-11.759-2.274-21.323-7.937-27.968-18.109c-0.285-1.645,0.547-3.483-0.85-4.936
			c-1.245-9.369-1.245-9.364,7.962-8.257c1.146,0.138,2.309,0.309,3.453,0.251c2.413-0.121,3.637,0.484,3.306,3.333
			c-0.725,6.248,2.686,9.838,8.244,11.818c0.09,0.651,0.819,0.919,1.024,0.634c0.728-1.012-0.439-1.158-0.933-1.605
			c-2.448-7.541,1.46-13.158,9.08-13.338c8.621-0.204,17.252-0.766,25.546-3.275c3.697-1.118,3.851,0.089,3.235,3.084
			c-0.565,2.745-0.786,5.56-1.158,8.345c-1.338,1.106-0.826,2.646-0.945,4.037c-4.903,10.486-14.386,14.318-24.677,16.949
			C126.575,64.399,124.78,64.669,123.006,65.021z"/>
		<path style="fill:#E29170;" d="M153.001,47.003c0.119-1.391-0.393-2.931,0.945-4.037c3.325,1.724,6.731,3.392,5.734,8.158
			C156.818,50.781,155.985,47.149,153.001,47.003z"/>
		<path style="fill:#E29170;" d="M94.188,41.976c1.397,1.454,0.565,3.291,0.85,4.936c-2.953,1.1-4.64,4.208-7.825,4.94
			c-0.66-2.558,1.383-3.408,2.871-4.679C91.78,45.723,94.285,44.859,94.188,41.976z"/>
		<path style="fill:#4D3E85;" d="M117.244,48.15c0.495,0.447,1.662,0.593,0.933,1.605c-0.205,0.285-0.934,0.017-1.024-0.634
			C117.08,48.789,117.11,48.465,117.244,48.15z"/>
		<path style="fill:#F5BE9B;" d="M145.014,116.016c-2.582,3.002-4.993,6.175-7.784,8.968c-5.413,5.417-18.171,5.868-23.908,0.763
			c-3.692-3.286-6.971-7.036-10.436-10.578c0.811-12.678-1.643-25.278-0.92-37.954c5.631-3.012,11.671-4.581,18.011-5.084
			c-0.787,4.528-1.488,9.074-2.385,13.58c-1.12,5.631,0.446,7.77,6.356,8.336c4.464,1.123,7.323-1.134,6.998-6.188
			c-0.335-5.209-1.336-10.375-2.046-15.56c6.273,1.133,12.307,3.021,18.084,5.723c-0.727,2.555-0.948,5.148-1.008,7.814
			C145.749,95.898,145.349,105.956,145.014,116.016z M117.036,101.933c2.302,0.318,4.605,0.635,6.907,0.953
			c3.375,0.024,6.887,0.853,10.502-1.822c-3.941,0-7.21,0-10.479-0.001c-2.306-0.117-4.612-0.233-6.919-0.35
			c-1.982-0.907-3.917-2.06-6.62-1.354C112.587,101.098,114.808,101.526,117.036,101.933z"/>
		<path style="fill:#D9765B;" d="M128.901,72.3c0.71,5.185,1.711,10.351,2.046,15.56c0.325,5.054-2.534,7.312-6.997,6.188
			c0.023-7.392,0.045-14.783,0.067-22.175C125.645,72.015,127.273,72.157,128.901,72.3z"/>
		<path style="fill:#F59E77;" d="M124.017,71.872c-0.022,7.392-0.044,14.783-0.067,22.175c-5.91-0.566-7.477-2.705-6.357-8.336
			c0.897-4.506,1.597-9.052,2.385-13.58c1.011-0.218,2.023-0.437,3.034-0.655C123.347,71.608,123.682,71.74,124.017,71.872z"/>
		<path style="fill:#ECEBF2;" d="M145.735,66.064c3.156-1.053,6.384-1.005,9.774-0.865c-5.056,8.395-15.099,9.347-21.609,1.838
			c2.992-0.346,5.704-0.659,8.416-0.973c-0.271,1.58-1.13,3.289,0.841,4.423c0.996,0.574,1.9,0.235,2.711-0.453
			C147.488,68.658,146.377,67.367,145.735,66.064z"/>
		<path style="fill:#262223;" d="M145.735,66.064c0.641,1.304,1.753,2.594,0.133,3.97c-0.811,0.688-1.714,1.027-2.711,0.453
			c-1.97-1.135-1.112-2.843-0.841-4.423C143.457,66.064,144.596,66.064,145.735,66.064z"/>
		<path style="fill:#262223;" d="M161.991,68.781c0.36,2.92-0.511,5.699-0.977,8.525c-2.701-0.398-1.761-2.646-2.145-4.222
			C159.745,71.531,160.28,69.729,161.991,68.781z"/>
		<path style="fill:#ECEBF2;" d="M105.231,66.071c2.779,0.288,5.559,0.577,8.519,0.884c-5.886,7.562-16.063,6.789-21.606-1.742
			c3.482-0.19,6.672-0.181,9.822,0.798c-0.8,1.452-1.642,2.914,0.138,4.271c0.865,0.66,1.811,0.672,2.697,0.077
			C106.647,69.123,105.818,67.576,105.231,66.071z"/>
		<path style="fill:#262223;" d="M88.026,77.169C86.1,74.008,86.597,70.44,86.319,67c1.303,0.957,2.443,2.031,2.664,3.754
			C88.613,72.884,89.987,75.275,88.026,77.169z"/>
		<path style="fill:#262223;" d="M105.231,66.071c0.587,1.504,1.416,3.051-0.43,4.289c-0.886,0.594-1.832,0.582-2.697-0.077
			c-1.78-1.357-0.938-2.819-0.138-4.271C103.055,66.032,104.143,66.052,105.231,66.071z"/>
		<path style="fill:#E29170;" d="M123.966,101.063c3.269,0,6.538,0,10.479,0c-3.615,2.675-7.127,1.846-10.502,1.823
			C123.951,102.279,123.959,101.671,123.966,101.063z"/>
		<path style="fill:#E29170;" d="M117.036,101.933c-2.228-0.407-4.449-0.835-6.608-2.575c2.703-0.705,4.638,0.448,6.619,1.357
			C117.044,101.123,117.04,101.528,117.036,101.933z"/>
		<path style="fill:#D9765B;" d="M117.036,101.933c0.004-0.405,0.007-0.81,0.011-1.217c2.306,0.114,4.613,0.23,6.919,0.348
			c-0.008,0.608-0.015,1.216-0.023,1.823C121.641,102.568,119.339,102.25,117.036,101.933z"/>
	</g>
</g>
</svg>
