<?xml version="1.0" encoding="iso-8859-1"?>
<!-- Generator: Adobe Illustrator 23.0.3, SVG Export Plug-In . SVG Version: 6.00 Build 0)  -->
<svg version="1.1" id="Layer_1" xmlns="http://www.w3.org/2000/svg" xmlns:xlink="http://www.w3.org/1999/xlink" x="0px" y="0px"
	 viewBox="0 0 250 250" style="enable-background:new 0 0 250 250;" xml:space="preserve">
<g>
	<g>
		<path style="fill:none;" d="M1,251C1,169,1.027,87,0.904,5C0.899,1.576,1.576,0.899,5,0.904c80.666,0.124,161.333,0.124,242,0
			c3.424-0.005,4.102,0.672,4.096,4.096c-0.124,80.666-0.124,161.333,0,242c0.005,3.424-0.671,4.101-4.096,4.096
			C165,250.973,83,251,1,251z M93.052,112.003c-0.14,9.704-0.281,19.408-0.421,29.112c-13.86,3.503-27.697,7.107-41.6,10.432
			c-3.045,0.728-4.037,1.987-3.953,5.06c0.204,7.492,0.178,14.996,0.006,22.49c-0.06,2.629,0.936,4.249,2.858,5.897
			c16.437,14.086,32.722,28.351,49.198,42.39c8.192,6.98,15.824,14.641,24.79,20.695c0.849-0.474,1.802-0.825,2.533-1.44
			c25.459-21.423,50.887-42.884,76.366-64.284c1.584-1.33,2.074-2.768,2.05-4.737c-0.082-6.99-0.171-13.986,0.032-20.971
			c0.089-3.055-0.807-4.267-3.947-4.953c-15.417-3.369-30.762-7.065-46.133-10.646c-0.233-9.355-0.467-18.709-0.7-28.064
			c0.067-1.283,0.134-2.566,0.201-3.849c4.037-5.619,6.561-11.591,5.976-18.815c-0.255-3.156-0.267-6.62,1.299-9.695
			c0.812-2.022-0.006-4.638,2.7-5.994c2.037-1.021,2.728-3.332,3.235-5.417c3.759-15.467,4.249-31.288,5.54-48.221
			c-3.908,5.336-5.914,10.526-10.138,14.073c2.162-12.861-5.354-19.976-15.552-24.776c-14.694-6.916-29.942-7.321-45.028-1.21
			c-13.345,5.405-17.518,12.364-16.734,26.247c-4.978-3.21-6.533-9.142-10.703-14.011c0.835,11.918,1.448,22.997,2.995,34.001
			c1.167,8.299,1.318,16.987,9.109,22.608c0.047,3.626,0.021,7.255,0.155,10.877c0.265,7.205-0.146,14.628,5.825,20.196
			C93.024,109.999,93.038,111.001,93.052,112.003z"/>
		<path style="fill:#248BAF;" d="M154.831,141.047c15.371,3.581,30.716,7.277,46.133,10.646c3.141,0.686,4.036,1.898,3.947,4.953
			c-0.203,6.985-0.115,13.981-0.032,20.971c0.023,1.968-0.466,3.406-2.05,4.737c-25.479,21.4-50.907,42.861-76.366,64.284
			c-0.731,0.615-1.683,0.966-2.532,1.44c-0.206-9.068,0.728-18.171-0.822-27.197c10.5-9.454,20.228-19.667,29.716-30.124
			c1.711-1.886,0.298-2.811-0.721-4.151c-5.479-7.202-12.179-11.416-21.69-9.646c-2.083,0.388-4.312-0.004-6.474-0.037
			c-0.002-4.239-0.003-8.478-0.005-12.716c1.319-0.078,2.638-0.163,3.958-0.231C144.102,163.14,152.005,156.415,154.831,141.047z"/>
		<path style="fill:#2CA9DD;" d="M123.109,220.879c1.549,9.028,0.615,18.13,0.821,27.198c-8.966-6.055-16.599-13.715-24.791-20.695
			c-16.477-14.039-32.762-28.303-49.198-42.39c-1.922-1.647-2.918-3.268-2.858-5.897c0.172-7.494,0.198-14.997-0.006-22.49
			c-0.084-3.072,0.908-4.332,3.953-5.06c13.903-3.325,27.739-6.928,41.6-10.433c-0.798,8.883,3.196,14.94,11.047,18.72
			c6.401,3.082,13.215,4.255,20.257,4.372c0.002,4.239,0.003,8.478,0.005,12.717c-0.277,0.079-0.556,0.153-0.837,0.222
			c-9.958-0.543-19.762-1.441-27.097,8.004c-2.665,3.432-2.435,4.996,0.27,7.667c4.245,4.192,8.397,8.471,12.302,13.023
			c4.372,5.096,9.506,9.538,14.309,14.265C122.921,220.374,122.995,220.632,123.109,220.879z"/>
		<path style="fill:#135A89;" d="M85.629,35.329c-0.785-13.886,3.389-20.845,16.734-26.25c15.086-6.111,30.334-5.706,45.028,1.21
			c10.198,4.8,17.715,11.914,15.552,24.775c-2.112,3.87-5.379,6.584-8.949,9.016c-4.507,3.071-9.017,6.138-13.465,9.294
			c-10.842,7.694-12.36,17.808-9.462,29.403c0.534,2.137,1.572,4.058,4.174,4.335c-3.59,1.907-6.104,5.051-8.834,7.9
			c-1.821,1.9-3.044,1.871-4.829-0.023c-2.709-2.875-5.31-5.925-8.86-7.874c2.599-0.269,3.621-2.19,4.197-4.316
			c2.697-9.957,1.764-21.335-8.308-28.418c-4.46-3.136-9.046-6.1-13.414-9.359C91.537,42.294,87.313,40.038,85.629,35.329z"/>
		<path style="fill:#82594B;" d="M112.719,87.115c3.55,1.95,6.151,4.999,8.86,7.874c1.784,1.893,3.008,1.923,4.829,0.023
			c2.73-2.849,5.244-5.993,8.832-7.9c1.944-0.344,3.922-0.565,5.83-1.055c6.858-1.762,13.693-3.614,20.537-5.433
			c-1.566,3.074-1.554,6.538-1.299,9.695c0.584,7.224-1.939,13.196-5.976,18.815c-1.895,0.152-2.743,1.743-3.842,2.909
			c-4.536,4.814-8.901,9.791-13.519,14.523c-6.217,6.37-18.314,6.37-24.731,0.293c-6.352-6.015-12.815-11.913-19.23-17.862
			c-5.97-5.568-5.56-12.991-5.825-20.196c-0.133-3.623-0.108-7.251-0.155-10.877C95.531,81.162,103.587,85.643,112.719,87.115z
			 M112.988,102.262c7.329,2.572,14.668,2.246,22.013,0.066C127.662,102.567,120.32,103.681,112.988,102.262z"/>
		<path style="fill:#552D23;" d="M123.936,164.206c-7.042-0.117-13.856-1.29-20.257-4.372c-7.851-3.78-11.845-9.837-11.047-18.72
			c0.14-9.703,0.28-19.407,0.421-29.111c6.067,5.915,12.107,11.857,18.207,17.737c6.067,5.849,20.4,6.619,25.601,0.609
			c4.118-4.76,9.042-8.791,12.603-14.051c1.082-1.598,2.305-3.355,4.668-3.315c0.233,9.355,0.467,18.709,0.7,28.064
			c-2.826,15.368-10.729,22.093-26.938,22.928C126.574,164.043,125.255,164.128,123.936,164.206z"/>
		<path style="fill:#2EA5D9;" d="M161.607,80.624c-6.844,1.818-13.679,3.671-20.537,5.433c-1.909,0.49-3.886,0.71-5.83,1.055
			c-2.599-0.276-3.637-2.198-4.172-4.334c-2.899-11.595-1.381-21.71,9.462-29.403c4.447-3.156,8.958-6.224,13.465-9.294
			c3.57-2.432,6.837-5.146,8.949-9.016c4.225-3.546,6.23-8.736,10.138-14.072c-1.29,16.933-1.78,32.754-5.54,48.221
			c-0.507,2.085-1.198,4.396-3.235,5.417C161.601,75.986,162.419,78.602,161.607,80.624z M158.347,65.799
			c-2.796-3.31-6.314-1.075-9.14-0.614c-15.833,2.586-13.196-1.511-13.196,14.916c-0.047,1.558-0.14,3.186,2.24,2.659
			c0.959-0.213,1.878-0.603,2.829-0.861c7.287-1.974,13-6.233,17.472-12.198C160.244,67.445,160.103,67.025,158.347,65.799z"/>
		<path style="fill:#2FA7DB;" d="M112.719,87.115c-9.132-1.472-17.187-5.953-25.688-9.19c-7.792-5.622-7.942-14.309-9.11-22.609
			c-1.548-11.004-2.161-22.083-2.995-34.001c4.17,4.869,5.725,10.802,10.703,14.013c1.684,4.71,5.908,6.966,9.565,9.694
			c4.368,3.258,8.954,6.222,13.414,9.359c10.072,7.083,11.005,18.461,8.308,28.418C116.34,84.925,115.318,86.846,112.719,87.115z
			 M89.651,65.79c-1.731,1.2-1.866,1.287-0.717,3.053c4.942,7.601,12.213,11.802,20.828,13.923c2.372,0.584,2.28-1.114,2.229-2.671
			c-0.103-16.512,2.607-12.054-12.676-15.007c-1.939-0.375-3.934-0.509-5.911-0.619C92.017,64.392,90.326,63.732,89.651,65.79z"/>
		<path style="fill:#40211B;" d="M154.131,112.983c-2.362-0.04-3.586,1.717-4.668,3.315c-3.561,5.261-8.485,9.292-12.603,14.051
			c-5.201,6.01-19.534,5.24-25.601-0.609c-6.1-5.881-12.14-11.822-18.207-17.737c-0.014-1.002-0.028-2.004-0.042-3.005
			c6.414,5.949,12.878,11.847,19.23,17.862c6.417,6.077,18.514,6.077,24.731-0.293c4.618-4.732,8.983-9.709,13.519-14.523
			c1.099-1.166,1.947-2.757,3.842-2.909C154.265,110.417,154.198,111.7,154.131,112.983z"/>
		<path style="fill:#125A8A;" d="M123.105,177.146c0.28-0.07,0.559-0.144,0.836-0.223c2.161,0.032,4.39,0.424,6.473,0.036
			c9.511-1.77,16.21,2.444,21.69,9.646c1.019,1.339,2.432,2.265,0.721,4.151c-9.487,10.456-19.216,20.67-29.716,30.124
			c-0.113-0.247-0.187-0.506-0.22-0.776c0.006-5.725,0.011-11.448,0.016-17.172c0.34-0.347,0.681-0.693,1.021-1.04
			c2.219,0.829,4.438,1.658,6.884,2.572c-1.002-5.664-0.999-5.661,2.731-10.55c0.654-0.857,1.787-2.783,0.231-2.542
			c-4.985,0.771-6.796-3.057-9.607-5.514c-0.015-0.316-0.05-0.629-0.104-0.941C122.476,182.482,123.106,179.775,123.105,177.146z"/>
		<path style="fill:#1C75BB;" d="M122.905,202.932c-0.005,5.724-0.01,11.447-0.016,17.172c-4.803-4.726-9.938-9.168-14.31-14.264
			c-3.905-4.552-8.056-8.831-12.302-13.023c-2.705-2.671-2.935-4.236-0.27-7.667c7.334-9.444,17.138-8.547,27.097-8.004
			c0.002,2.63-0.628,5.337,0.956,7.773c-3.021,1.532-2.775,7.257-7.927,6.131c-0.857-0.187-2.131-0.359-2.588,0.806
			c-0.444,1.134,0.64,1.743,1.273,2.437c1.628,1.785,3.991,3.213,2.853,6.256c-0.46,1.231-1.27,2.706-0.146,3.698
			c1.34,1.182,2.186-0.919,3.418-1.071C121.597,203.094,122.251,203.013,122.905,202.932z"/>
		<path style="fill:#5E352A;" d="M112.988,102.262c7.333,1.419,14.674,0.305,22.013,0.066
			C127.655,104.508,120.316,104.835,112.988,102.262z"/>
		<path style="fill:#F6FAFB;" d="M136.011,80.101c0-16.427-2.637-12.33,13.196-14.916c2.825-0.462,6.344-2.697,9.138,0.616
			C152.882,73.668,145.763,78.941,136.011,80.101z"/>
		<path style="fill:#1B618F;" d="M136.011,80.101c9.752-1.161,16.871-6.433,22.334-14.299c1.758,1.223,1.899,1.644,0.208,3.9
			c-4.472,5.965-10.185,10.225-17.472,12.198c-0.951,0.258-1.87,0.648-2.829,0.861C135.871,83.288,135.964,81.659,136.011,80.101z"
			/>
		<path style="fill:#F6FAFB;" d="M89.651,65.79c0.675-2.058,2.366-1.399,3.753-1.321c1.977,0.11,3.972,0.245,5.911,0.619
			c15.282,2.953,12.573-1.505,12.676,15.007C102.227,78.947,95.106,73.669,89.651,65.79z"/>
		<path style="fill:#1B618F;" d="M89.651,65.79c5.455,7.879,12.575,13.156,22.34,14.305c0.051,1.557,0.143,3.255-2.229,2.671
			c-8.615-2.121-15.886-6.322-20.828-13.923C87.786,67.077,87.92,66.99,89.651,65.79z"/>
		<path style="fill:#2B93DA;" d="M122.905,202.932c-0.654,0.081-1.307,0.162-1.961,0.243c-1.232,0.153-2.078,2.253-3.418,1.071
			c-1.125-0.992-0.315-2.468,0.146-3.698c1.138-3.043-1.225-4.471-2.853-6.256c-0.634-0.694-1.718-1.303-1.273-2.437
			c0.457-1.165,1.731-0.993,2.588-0.806c5.152,1.126,4.906-4.598,7.927-6.131c0.055,0.31,0.09,0.624,0.103,0.941
			c-0.08,5.345-0.159,10.689-0.237,16.033C123.585,202.239,123.245,202.585,122.905,202.932z"/>
		<path style="fill:#1C75BB;" d="M123.926,201.892c0.079-5.344,0.157-10.688,0.237-16.033c2.813,2.456,4.623,6.284,9.608,5.513
			c1.557-0.241,0.423,1.686-0.231,2.542c-3.73,4.888-3.734,4.886-2.731,10.55C128.363,203.55,126.145,202.721,123.926,201.892z"/>
	</g>
</g>
</svg>
