<?xml version="1.0" encoding="utf-8"?>
<!-- Generator: Adobe Illustrator 23.0.3, SVG Export Plug-In . SVG Version: 6.00 Build 0)  -->
<svg version="1.1" id="Layer_1" xmlns="http://www.w3.org/2000/svg" xmlns:xlink="http://www.w3.org/1999/xlink" x="0px" y="0px"
	 viewBox="0 0 250 250" style="enable-background:new 0 0 250 250;" xml:space="preserve">
<style type="text/css">
	.st0{fill:#FFFFFF;}
	.st1{fill:none;}
	.st2{fill:#808285;}
	.st3{fill:#D0D2D3;}
	.st4{fill:#262223;}
	.st5{fill:#F5BE9A;}
	.st6{fill:#CB202C;}
	.st7{fill:#5E0204;}
	.st8{fill:#F59C75;}
	.st9{fill:#D31014;}
	.st10{fill:#F31F2A;}
	.st11{fill:#EA272D;}
	.st12{fill:#B9573F;}
	.st13{fill:#D9775B;}
	.st14{fill:#AD272B;}
	.st15{fill:#F1BB98;}
	.st16{fill:#990D11;}
	.st17{font-family:'ArialMT';}
	.st18{font-size:48px;}
</style>
<rect x="85.6" y="55.5" class="st0" width="79.5" height="22.4"/>
<g>
	<g>
		<path class="st1" d="M124,251c-41,0-82,0-123,0C1,167.7,1,84.3,1,1c82,0,164,0,246-0.1c3.4,0,4.1,0.7,4.1,4.1
			c-0.1,80.7-0.1,161.3,0,242c0,3.4-0.7,4.1-4.1,4.1c-40.7-0.2-81.3-0.1-122-0.1c0.5-0.6,1-1.3,1.6-1.9c23-21,45.7-42.3,69.1-62.7
			c7-6.1,10.4-12.3,9.2-21.3c0.1-3.8,0-7.7,0.4-11.5c0.3-2.7-0.5-3.4-3-3.9c-9.9-2.2-19.8-4.4-29.6-6.9c-3.9-1-8.3-0.8-11.7-3.8
			c-1.6-2.5-4-0.8-6-1.3c-0.1-8.6-0.3-17.3-0.4-25.9c0.1-1.9,0.1-3.8,0.2-5.7c5.7-5.6,5.7-13,6.2-20.2c7.2-3.7,9.5-10.2,9.7-17.6
			c0.1-3.3-1.1-6.7-5.6-6.6c-0.7-2-1.3-3.9-2-5.9c1.4-9.5,1.5-19.2,2-28.8c0.4-8.6,0.4-8.7-7.6-12.1C143.8,9.5,130.2,4.4,115,8
			c-10,2.4-19.8,5.6-29.6,8.7c-2.4,0.8-2.7,2-2.5,4c1,11.4,2,22.8,3,34.3c-1,2.3-2,4.6-2.9,6.9c-2.8-0.1-4.2,1.6-4.8,4
			c-2,7.3,2.8,17,9.8,20.2c-0.4,7.6,0.2,15,5.5,21.2c0.2,1.9,0.4,3.8,0.6,5.7c-1.4,1.4-0.8,3.1-0.9,4.7c-0.1,6.9-0.1,13.8-0.2,20.8
			c-2.1,0.6-4.7-1.3-6.3,1.4c-0.9,0.7-1.8,1.4-2.7,2c-9.5,2.2-19,4.3-28.5,6.6c-7.8,1.9-7.8,2-7.2,10c-0.1,5.6-0.1,11.3-0.4,16.9
			c-0.1,2.9,0.7,5,2.9,7c9.8,9,19.4,18,29.1,27.1c13,12.3,26,24.6,39,36.9c1.3,1.3,2.8,2.3,4.7,2.7C123.8,249.8,123.9,250.4,124,251
			z"/>
		<path class="st2" d="M204.9,165.2c1.3,9-2.1,15.2-9.2,21.3c-23.5,20.4-46.1,41.7-69.1,62.7c-0.6,0.5-1.1,1.2-1.6,1.9
			c-0.3,0-0.7,0-1,0c-0.1-0.6-0.2-1.2-0.3-1.9c0.1-1.3,0.3-2.6,0.3-3.9c0-22.9,0-45.8,0-68.7c7.6-5,15.2-10.1,22.8-15.1
			c1.4-0.9,2.6-2.2,4.4-2.1c4.6,0.3,9.2,0.6,13.8,1.1C178.3,161.9,191.6,163.6,204.9,165.2z"/>
		<path class="st3" d="M124,176.5c0,22.9,0,45.8,0,68.7c0,1.3-0.2,2.6-0.3,3.9c-1.8-0.4-3.3-1.4-4.7-2.7c-13-12.3-26-24.6-39-36.9
			c-9.7-9.1-19.3-18.1-29.1-27.1c-2.2-2-3-4.1-2.9-7c0.3-5.6,0.3-11.3,0.4-16.9c8.1-0.2,16.2-0.3,24.3-0.7
			c6.8-0.3,13.6,0.8,20.3-0.6c2.8,0.3,4.9,1.9,7.1,3.3c7.9,5.2,15.3,11.1,23.6,15.7L124,176.5z"/>
		<path class="st4" d="M85.9,55.1c-1-11.4-2-22.8-3-34.3c-0.2-2,0.1-3.3,2.5-4c9.8-3.2,19.6-6.4,29.6-8.7
			c15.2-3.6,28.9,1.4,42.5,7.1c8,3.4,8,3.5,7.6,12.1c-0.4,9.6-0.6,19.2-2,28.8c-1.1-0.7-2.1-1.4-3.2-2.1c-0.4-2.7,1.3-6.3-1.6-7.9
			c-5-2.6-4-6.4-3.2-10.5c0.3-1.4,1.3-2.8,0.2-4.6c-9.4,2.6-19,3.9-28.9,3.9c-5.5,0-9.4,3.4-9.8,8.8c-0.1,1.7,0.4,3.4,0.8,5.8
			c-4.1-2-8.3-4.3-7.9-8.1c0.8-8-4-7.6-9.1-7.9c-0.8,0-1.7-0.2-2.5-0.3c-3.5-0.8-5.4-0.3-4.2,4.1c1.2,4.2,1,8.2-3.8,10.5
			c-3,1.4-2.2,4.1-1.9,6.5C87.3,54.5,86.6,54.8,85.9,55.1z"/>
		<path class="st5" d="M161,86.1c-0.5,7.2-0.5,14.6-6.2,20.2c-5.7,4.7-10.1,10.5-15,15.9c-7.9,8.7-20,9.5-28.5,1.4
			c-4.2-4-8.2-8.2-12.5-12.1c-1.6-1.5-2.6-4-5.3-4.1c-5.3-6.1-5.9-13.5-5.5-21.2c0-2.8,0-5.6,0-8.3c1.7,1,3.6,1.7,5.1,2.9
			c7.2,5.2,14.7,9.4,23.8,9.9c0.7,0.1,1.4,0.3,2,0.4c4.7,5.2,8.1,5.2,11.1,0.2c9.4-1.5,18-5,25.5-11c1.3-1,2.8-1.6,4.3-2.4
			C162,80.3,160.4,83.3,161,86.1z M114,101c6.6,1.2,13.1,2.9,19.7,0.4c-3.3-0.3-6.6-0.2-9.9-0.4c-3.3-0.2-6.6-0.7-9.8-1.1
			c-0.8-0.8-1.9-1.4-2.2-0.1C111.5,100.6,113,100.9,114,101z"/>
		<path class="st6" d="M204.9,165.2c-13.3-1.6-26.6-3.2-39.9-4.7c-4.6-0.5-9.2-0.8-13.8-1.1c-1.8-0.1-3,1.2-4.4,2.1
			c-7.6,5-15.2,10.1-22.8,15.1l-0.2-0.3c0.1-2.4,0.1-4.8,0.2-7.2c10.3-8.1,21.1-15.4,30.8-24.1c2.3-1.8,5.6-2.3,6.2-5.9
			c3.3,3,7.7,2.8,11.7,3.8c9.8,2.5,19.7,4.7,29.6,6.9c2.4,0.5,3.3,1.3,3,3.9C204.8,157.5,205,161.3,204.9,165.2z"/>
		<path class="st7" d="M159.9,77.8c-1.4,0.8-3,1.4-4.3,2.4c-7.5,6-16.1,9.5-25.5,11c-2-0.1-4.1-0.3-6.1-0.4
			c-0.1-8.7-0.2-17.3-0.3-26c0.1-3.1,0.2-6.2,0.4-9.3c11.9-0.9,23.6-7.6,35.8-1.6c1.1,0.7,2.1,1.4,3.2,2.1c0.7,2,1.3,3.9,2,5.9
			C164.1,67.4,165.1,73.6,159.9,77.8z M153.9,62.4c-4.9,1.3-10-0.2-14.8,1.6c-1.6,0-3.3,0.1-4.9,0.1c-1.5,0.6-4.5-1.7-4.6,1.7
			c-0.1,3.7,8.5,11.1,11.8,9.9c5.7-2,11.8-3.7,16.4-8.1c1.1-1.1,3.4-2.1,2.6-3.8c-0.7-1.7-2.9-0.8-4.5-0.6h0.1
			C155.6,62.1,154.8,62.1,153.9,62.4z"/>
		<path class="st5" d="M93,138.4c0-6.9,0.1-13.8,0.2-20.8c0-1.6-0.5-3.3,0.9-4.7c4.1,3.8,8.1,7.8,12.2,11.5
			c5.2,4.7,9.8,10.5,17.8,10.4c0,9.4,0,18.7-0.1,28.1c0,1.7,0.7,3.7-1.1,5.1c-9.9-7.6-20.2-14.7-29.5-23
			C93.8,142.8,94.1,140.6,93,138.4z"/>
		<path class="st8" d="M122.9,168.1c1.7-1.4,1-3.3,1.1-5.1c0.1-9.4,0.1-18.7,0.1-28.1c6.2,0.4,11.2-1.8,15.3-6.6
			c4.9-5.7,10.1-11,15.2-16.4c0.1,8.6,0.3,17.3,0.4,25.9c-0.1,2.4-0.1,4.8-0.2,7.2c-9.7,8.7-20.6,16-30.8,24.1
			C123.6,168.7,123.3,168.4,122.9,168.1z"/>
		<path class="st9" d="M124,55.5c-0.1,3.1-0.2,6.2-0.4,9.3c-0.4,0.3-1.1,0.5-1.2,0.8c-2.1,8.3-4.5,16.5-5.5,25
			c-9.1-0.5-16.7-4.7-23.8-9.9c-1.6-1.2-3.4-1.9-5.1-2.9c-4.9-4.3-4.2-10.3-5.1-15.9c1-2.3,2-4.6,2.9-6.9c0.7-0.3,1.4-0.5,2.2-0.8
			c6.1-1.8,11.8-4.5,18.6-2.2C112.2,53.9,118.2,54.4,124,55.5z M109,64c-5.2-1.7-10.7-0.7-16-1.9c-0.7,0.1-1.3,0.2-1.9,0.3
			c-4.3,0.6-4.4,2-1.4,4.9c3.4,3.2,7.5,4.9,11.6,6.6c7,2.9,11.3,1.5,15.5-4.7c0.8-1.3,2.8-2.5,1.7-4.3c-1-1.7-3.1-0.6-4.6-0.8
			C112.3,64,110.7,64,109,64z"/>
		<path class="st10" d="M93,157.2c-6.7,1.4-13.5,0.4-20.3,0.6c-8.1,0.3-16.2,0.5-24.3,0.7c-0.6-8.1-0.6-8.1,7.2-10
			c9.5-2.3,19-4.4,28.5-6.6c-2.8,4.8-0.7,7.6,3.5,10.2C89.6,153.4,92.5,154.1,93,157.2z"/>
		<path class="st11" d="M93,157.2c-0.5-3.1-3.4-3.9-5.5-5.2c-4.1-2.5-6.3-5.4-3.5-10.2c0.9-0.7,1.8-1.4,2.7-2
			c1.5,2.6,4.2,3.9,6.7,5.2c9.3,8.3,19.6,15.4,29.5,23c0.4,0.3,0.7,0.7,1.1,1c-0.1,2.4-0.1,4.8-0.2,7.2
			c-8.3-4.6-15.7-10.6-23.7-15.7C97.9,159.1,95.8,157.5,93,157.2z"/>
		<path class="st12" d="M154.6,111.9c-5.1,5.5-10.4,10.8-15.2,16.4c-4.1,4.8-9.1,7.1-15.3,6.6c-8,0.1-12.6-5.7-17.8-10.4
			c-4.1-3.8-8.1-7.7-12.2-11.5c-0.2-1.9-0.4-3.8-0.6-5.7c2.7,0.2,3.7,2.6,5.3,4.1c4.3,4,8.3,8.1,12.5,12.1
			c8.5,8.1,20.6,7.3,28.5-1.4c4.9-5.4,9.3-11.2,15-15.9C154.7,108.1,154.7,110,154.6,111.9z"/>
		<path class="st13" d="M159.9,77.8c5.3-4.1,4.3-10.3,5.2-15.8c4.6-0.1,5.7,3.2,5.6,6.6c-0.2,7.4-2.6,13.9-9.7,17.6
			C160.4,83.3,162,80.3,159.9,77.8z"/>
		<path class="st13" d="M82.9,61.9c0.8,5.6,0.2,11.6,5.1,15.9c0,2.8,0,5.6,0,8.3c-7-3.2-11.8-12.9-9.9-20.2
			C78.8,63.5,80.1,61.8,82.9,61.9z"/>
		<path class="st14" d="M93.4,145c-2.5-1.4-5.2-2.6-6.7-5.2c1.6-2.7,4.2-0.8,6.3-1.4C94.1,140.6,93.8,142.8,93.4,145z"/>
		<path class="st14" d="M154.8,145c0.1-2.4,0.1-4.8,0.2-7.2c2,0.5,4.5-1.2,6,1.3C160.5,142.6,157.1,143.2,154.8,145z"/>
		<path class="st15" d="M124,55.5c-5.8-1.1-11.8-1.6-17.4-3.5c-6.8-2.3-12.5,0.5-18.6,2.2c-0.3-2.4-1.1-5.1,1.9-6.5
			c4.8-2.2,5-6.3,3.8-10.5c-1.2-4.4,0.7-4.9,4.2-4.1c0.8,0.2,1.6,0.3,2.5,0.3c5.1,0.2,9.9-0.1,9.1,7.9c-0.4,3.7,3.8,6.1,7.9,8.1
			c-0.3-2.4-0.9-4.1-0.8-5.8c0.4-5.5,4.2-8.8,9.8-8.8c9.8,0,19.5-1.3,28.9-3.9c1.1,1.8,0.1,3.2-0.2,4.6c-0.8,4.1-1.8,7.9,3.2,10.5
			c3,1.5,1.3,5.2,1.6,7.9C147.6,47.9,136,54.6,124,55.5z"/>
		<path class="st16" d="M117,90.6c1-8.5,3.5-16.7,5.5-25c0.1-0.3,0.8-0.5,1.2-0.8c0.1,8.7,0.2,17.3,0.3,26c-1.7,0.1-3.3,0.1-5,0.2
			C118.3,90.8,117.6,90.7,117,90.6z"/>
		<path class="st13" d="M119,91c1.7-0.1,3.3-0.1,5-0.2c2,0.1,4.1,0.3,6.1,0.4C127.1,96.2,123.7,96.2,119,91z"/>
		<path class="st13" d="M114,99.8c3.3,0.4,6.5,0.9,9.8,1.1s6.6,0,9.9,0.4c-6.6,2.5-13.1,0.8-19.7-0.4C114,100.6,114,100.2,114,99.8z
			"/>
		<path class="st8" d="M114,99.8c0,0.4,0,0.8,0.1,1.2c-1,0-2.5-0.3-2.3-1.3C112,98.4,113.2,99.1,114,99.8z"/>
		<path class="st16" d="M155.8,63.2c1.6-0.2,3.8-1,4.5,0.6c0.8,1.7-1.5,2.7-2.6,3.8c-4.5,4.5-10.6,6.1-16.4,8.1
			c-3.4,1.2-11.9-6.3-11.8-9.9c0.1-3.5,3-1.1,4.6-1.7c1.2,4.1,3.2,6.6,8.1,5.2c3-0.8,6.2-1,9.3-1.3
			C154.6,67.7,156.2,66.4,155.8,63.2z"/>
		<path class="st1" d="M155.8,63.2c0.3,3.1-1.2,4.5-4.2,4.8c-3.1,0.3-6.3,0.4-9.3,1.3c-4.9,1.4-6.9-1.1-8.1-5.2
			c1.6,0,3.3-0.1,4.9-0.1c5,0.1,10.1,0.3,15-0.7C154.7,63.3,155.3,63.3,155.8,63.2L155.8,63.2z"/>
		<path class="st14" d="M154.1,63.3c-5,1-10,0.8-15,0.7c4.8-1.8,10-0.3,14.8-1.6C154,62.6,154.1,63,154.1,63.3z"/>
		<path class="st16" d="M154.1,63.3c0-0.3-0.1-0.6-0.2-0.9c0.9-0.3,1.7-0.2,2.1,0.9C155.3,63.2,154.7,63.3,154.1,63.3z"/>
		<path class="st16" d="M113.9,64.1c1.6,0.2,3.6-0.9,4.6,0.8c1.1,1.8-0.9,3.1-1.7,4.3c-4.1,6.2-8.5,7.6-15.5,4.7
			c-4.1-1.7-8.3-3.3-11.6-6.6c-3-2.9-3-4.3,1.4-4.9c0.7-0.1,1.3-0.2,1.9-0.3c0,0.4,0,0.8,0,1.2c-0.7,3.3-0.2,4.2,3,4.7
			c3.3,0.5,6.7,0.5,9.8,1.4C110.8,70.6,112.8,68.3,113.9,64.1z"/>
		<path class="st1" d="M113.9,64.1c-1.1,4.2-3.1,6.6-8,5.2c-3.2-0.9-6.6-0.9-9.8-1.4c-3.2-0.5-3.7-1.4-3-4.7c5.3,1,10.6,0.8,16,0.7
			C110.7,64,112.3,64,113.9,64.1z"/>
		<path class="st14" d="M109,64c-5.3,0.1-10.7,0.3-16-0.7c0-0.4,0-0.8,0-1.2C98.3,63.2,103.8,62.2,109,64z"/>
	</g>
</g>
<text transform="matrix(1 0 0 1 108.5671 222.918)" class="st17 st18">Y</text>
</svg>
