<?xml version="1.0" encoding="iso-8859-1"?>
<!-- Generator: Adobe Illustrator 23.0.3, SVG Export Plug-In . SVG Version: 6.00 Build 0)  -->
<svg version="1.1" id="Layer_1" xmlns="http://www.w3.org/2000/svg" xmlns:xlink="http://www.w3.org/1999/xlink" x="0px" y="0px"
	 viewBox="0 0 250 250" style="enable-background:new 0 0 250 250;" xml:space="preserve">
<g>
	<g>
		<path style="fill:none;" d="M123,251c-40.667,0-81.333,0-122,0C1,167.667,1,84.333,1,1c82,0,164,0.027,246-0.096
			c3.424-0.005,4.101,0.672,4.096,4.096c-0.124,80.666-0.124,161.333,0,242c0.005,3.424-0.67,4.112-4.096,4.099
			C206.667,250.945,166.333,251,126,251c-0.064-0.348-0.129-0.695-0.193-1.043c26.348-22.111,52.692-44.227,79.056-66.319
			c1.372-1.15,2.033-2.405,2.011-4.258c-0.088-7.65-0.098-15.302,0.001-22.952c0.029-2.207-0.642-3.132-2.926-3.639
			c-16.035-3.561-32.031-7.302-48.038-10.985c-0.749-8.933,0.727-17.929-0.775-26.84c0.588-2.346,0.558-4.721,0.326-7.105
			c3.222-3.659,5.929-7.488,5.762-12.75c-0.083-2.62,0.39-5.258,0.612-7.888c5.777-3.216,10.608-11.914,9.765-18.089
			c-0.553-4.051-2.171-7.361-7.232-6.809c-0.345-0.12-0.689-0.24-1.034-0.361c0.022-0.633,0.043-1.267,0.065-1.9
			c4.592-2.248,10.468-3.275,9.761-10.503c-0.087-0.891,0.82-1.627,1.667-1.476c4.961,0.882,7.991-2.041,11.532-4.861
			c3.193-2.542,6.265-5.277,9.557-7.717c0.817-0.605,2.145-1.418,1.406-2.804c-0.549-1.029-1.773-0.651-2.719-0.655
			c-6.471-0.028-12.942,0.019-19.413-0.036c-1.77-0.015-3.047,0.715-4.484,1.695c-4.781,3.261-3.606,8.09-3.704,12.624
			c-0.048,2.235,0.656,5.013-3.193,4.648c0.01-8.145-0.155-16.296,0.114-24.433c0.115-3.473-1.043-6.092-3.234-8.534
			c-9.813-10.942-22.461-14.859-36.698-14.868c-13.277-0.225-25.189,3.126-34.754,12.955c-3.189,3.277-4.751,6.839-4.486,11.549
			c0.436,7.763,0.337,15.555,0.463,23.335c-3.288,0.521-4.604-0.882-4.261-4.166c0.172-1.647,0.038-3.326,0.028-4.991
			c-0.037-6.246-3.533-9.766-9.762-9.79c-5.493-0.021-10.988-0.087-16.478,0.051c-1.456,0.037-3.838-1.096-4.194,1.205
			c-0.272,1.755,1.166,3.617,2.952,4.262c2.169,0.784,3.319,3.001,4.939,3.755c4.545,2.115,7.087,8.247,13.477,6.729
			c2.374-0.564,3.133,1.05,3.112,3.283c-0.016,1.731-0.696,3.885,1.526,4.845c3.204,1.384,5.735,4.014,9.205,4.873
			c0.023,0.918,0.047,1.835,0.07,2.753c-5.593-2.345-8.407-1.101-9.445,4.176c-1.349,6.855,3.857,16.577,10.448,19.514
			c0.107,1.994,0.345,3.991,0.297,5.981c-0.137,5.723,0.965,10.939,5.553,14.874c-0.008,2.099-0.013,4.2-0.017,6.301
			c-1.202,9.09-0.102,18.231-0.602,27.337c-14.033,3.478-28.043,7.051-42.115,10.364c-3.196,0.752-4.167,2.088-4.04,5.355
			c0.285,7.316,0.223,14.655,0.023,21.977c-0.08,2.931,0.804,4.889,3.052,6.806c15.829,13.496,31.631,27.026,47.257,40.755
			C105.203,235.103,114.718,242.361,123,251z"/>
		<path style="fill:#076596;" d="M123,251c-8.282-8.639-17.797-15.897-26.759-23.77c-15.626-13.729-31.428-27.26-47.257-40.755
			c-2.248-1.917-3.133-3.875-3.052-6.806c0.2-7.322,0.262-14.661-0.023-21.977c-0.127-3.267,0.844-4.602,4.04-5.355
			c14.072-3.313,28.082-6.885,42.114-10.364c-0.259,10.643,5.581,16.676,14.993,20.248c5.827,2.212,11.869,2.75,17.973,3.151
			c-0.002,9.531-0.005,19.061-0.007,28.592c-0.256,0.375-0.511,0.751-0.767,1.126c-2.44,9.603-8.971,13.454-18.469,13.148
			c-0.069-0.002-0.145,0.234-0.652,1.102c8.497,5.123,11.629,12.597,6.769,22.676c0.462,0.014,0.924,0.028,1.386,0.043
			c3.906-2.047,7.811-4.093,11.717-6.14c-0.13,0.147-0.142,0.303-0.035,0.468c0.536,7.847-0.956,15.767,0.837,23.569
			c0.064,0.348,0.129,0.695,0.193,1.043C125,251,124,251,123,251z"/>
		<path style="fill:#075472;" d="M125.807,249.957c-1.793-7.803-0.301-15.722-0.837-23.569c3.962,1.792,7.924,3.584,13.519,6.114
			c-5.217-10.788-1.79-18.182,6.902-24.217c-10.915,0.93-16.895-3.714-19.465-13.175c-0.117-0.432-0.595-0.766-0.905-1.145
			c0.002-9.531,0.005-19.061,0.007-28.592l-0.025-0.417c1.487-0.008,2.981,0.076,4.459-0.04c16.385-1.28,24.944-8.773,26.449-23.113
			c16.008,3.683,32.003,7.424,48.039,10.985c2.284,0.507,2.955,1.432,2.926,3.639c-0.1,7.65-0.09,15.302-0.001,22.952
			c0.021,1.854-0.64,3.109-2.011,4.258C178.498,205.73,152.155,227.846,125.807,249.957z"/>
		<path style="fill:#035E8C;" d="M161.835,87.221c-0.222,2.63-0.695,5.268-0.612,7.888c0.168,5.262-2.54,9.091-5.759,12.747
			c-0.166-0.261-0.384-0.314-0.651-0.166c1.047-4.664,1.517-9.367,1.355-14.156c-0.292-8.631-0.688-8.951-9.174-6.478
			c-5.303,0.153-10.494-0.674-15.628-2.006c-1.009,9.042-1.807,10.121-7.371,10.143c-0.016-20.27-0.032-40.54-0.048-60.809
			c2.269,0.235,6.087-1.727,6.407,1.518c0.696,7.064,5.39,5.555,9.65,5.706c2.513,0.089,3.134-0.669,2.463-3.199
			c-1.399-5.275-2.437-10.645-3.669-15.966c-1.763-7.613-1.781-7.598-9.892-7.628c-1.654-0.006-3.307-0.127-4.96-0.195
			c0.015-3.825,0.029-7.65,0.044-11.475c14.237,0.009,26.884,3.926,36.698,14.868c2.19,2.442,3.348,5.061,3.234,8.534
			c-0.269,8.137-0.103,16.287-0.114,24.433c-0.518,3.011-0.705,6.037-0.411,9.084c-0.022,0.633-0.043,1.267-0.065,1.9
			c0,0.358-0.001,0.715-0.001,1.073C163.211,71.12,161.377,79.099,161.835,87.221z M131.915,67.28
			c-3.631-0.159-2.737,1.785-1.717,3.74c2.826,5.417,9.597,8.332,15.69,6.776c6.111-1.561,10.371-7.329,10.328-13.567
			c-0.02-2.987-1.051-3.781-3.881-2.936c-5.857,1.749-11.761,3.338-17.646,4.993C133.765,66.617,132.84,66.948,131.915,67.28z"/>
		<path style="fill:#1173B8;" d="M123.991,3.142c-0.015,3.825-0.029,7.65-0.044,11.475c0,0,0.06,0.469,0.061,0.469
			c-2.979-0.086-5.983,0.03-8.933-0.313c-3.428-0.399-4.554,1.173-5.143,4.289c-1.136,6.014-2.764,11.935-3.966,17.938
			c-0.284,1.417-2.504,4.125,0.523,4.313c3.244,0.201,8.42,2.528,9.631-1.709c1.381-4.831,3.719-5.918,7.888-5.691l-0.061,0.469
			c0.016,20.27,0.032,40.54,0.049,60.809c-4.478-0.186-7.074-2.715-6.93-7.159c0.075-2.321-0.038-3.391-2.851-2.478
			c-4.242,1.376-8.708,1.524-13.155,1.503c-0.793-0.25-1.571-0.565-2.38-0.74c-6.077-1.317-6.26-1.099-6.761,5.413
			c-0.424,5.51,0.345,10.917,1.057,16.34l-0.291,0.267c-4.591-3.937-5.693-9.153-5.556-14.876c0.048-1.99-0.19-3.987-0.297-5.984
			c-0.334-7.897-0.669-15.792-1.003-23.687c-0.023-0.918-0.047-1.835-0.07-2.753c0.007-3.363,0.531-6.753-0.545-10.057
			c-0.126-7.78-0.027-15.573-0.463-23.335c-0.265-4.71,1.297-8.272,4.486-11.549C98.803,6.268,110.714,2.917,123.991,3.142z
			 M113.468,66.926l0.099,0.044c-6.326-2.952-13.246-3.929-19.849-5.961c-2.278-0.701-2.783,0.543-2.926,2.575
			c-0.423,6.031,3.328,11.653,9.358,13.733c5.994,2.068,12.62-0.354,16.085-5.646C118.652,67.982,117.655,66.605,113.468,66.926z"/>
		<path style="fill:#F5BF9C;" d="M125.028,165.373c-6.104-0.401-12.146-0.939-17.973-3.151c-9.412-3.572-15.251-9.605-14.993-20.248
			c0.501-9.106-0.6-18.247,0.602-27.337c5.681,5.553,11.531,10.946,16.99,16.71c4.254,4.492,9.09,7.03,15.318,6.706
			c0.01,8.968,0.02,17.935,0.03,26.903L125.028,165.373z"/>
		<path style="fill:#F49E77;" d="M125.003,164.955c-0.01-8.968-0.02-17.935-0.03-26.903c7.099,0.448,12.059-2.814,16.369-8.316
			c4.139-5.284,9.161-9.877,13.795-14.773c1.502,8.911,0.025,17.908,0.775,26.84c-1.506,14.34-10.064,21.833-26.449,23.113
			C127.983,165.031,126.489,164.947,125.003,164.955z"/>
		<path style="fill:#E2E3E4;" d="M85.215,50.981c1.076,3.304,0.552,6.694,0.545,10.057c-3.47-0.859-6.002-3.489-9.205-4.873
			c-2.222-0.96-1.542-3.115-1.526-4.845c0.021-2.232-0.739-3.846-3.112-3.283c-6.39,1.518-8.932-4.614-13.477-6.729
			c-1.62-0.754-2.77-2.971-4.939-3.755c-1.786-0.645-3.224-2.507-2.952-4.262c0.356-2.301,2.738-1.168,4.194-1.205
			c5.49-0.139,10.985-0.072,16.478-0.051c6.228,0.024,9.725,3.544,9.762,9.79c0.01,1.665,0.145,3.344-0.028,4.991
			C80.611,50.099,81.927,51.502,85.215,50.981z"/>
		<path style="fill:#E2E3E4;" d="M163.399,60.062c-0.295-3.048-0.107-6.073,0.411-9.084c3.849,0.365,3.144-2.414,3.193-4.648
			c0.098-4.534-1.076-9.363,3.704-12.624c1.437-0.98,2.714-1.71,4.484-1.695c6.47,0.055,12.942,0.009,19.413,0.036
			c0.946,0.004,2.17-0.374,2.719,0.655c0.739,1.386-0.59,2.198-1.406,2.804c-3.292,2.44-6.364,5.175-9.557,7.717
			c-3.541,2.82-6.571,5.743-11.532,4.861c-0.847-0.151-1.754,0.586-1.667,1.476C173.867,56.787,167.99,57.814,163.399,60.062z"/>
		<path style="fill:#B9573E;" d="M155.136,114.963c-4.634,4.896-9.656,9.489-13.795,14.773c-4.31,5.502-9.27,8.765-16.369,8.316
			c-6.229,0.324-11.065-2.214-15.318-6.706c-5.459-5.764-11.309-11.157-16.99-16.71c0.005-2.101,0.01-4.202,0.018-6.301
			c0.003,0.002,0.294-0.265,0.294-0.265c0,0-0.023-0.09-0.023-0.09c0.291,0.291,0.581,0.581,0.872,0.872
			c2.737,3.369,5.765,6.447,9.159,9.158c2.899,2.975,5.673,6.086,8.725,8.895c4.951,4.556,18.011,6.333,22.924,2.59
			c4.845-3.691,9.301-8.014,12.395-13.451c3.201-2.218,5.682-5.108,7.784-8.351c0.268-0.152,0.487-0.099,0.653,0.163
			C155.694,110.242,155.724,112.617,155.136,114.963z"/>
		<path style="fill:#F49E77;" d="M85.829,63.791c0.334,7.895,0.669,15.789,1.003,23.687c-6.591-2.934-11.796-12.656-10.448-19.511
			C77.423,62.69,80.237,61.446,85.829,63.791z"/>
		<path style="fill:#F49E77;" d="M161.835,87.221c-0.458-8.121,1.376-16.1,1.498-24.186c0.345-0.238,0.69-0.475,1.035-0.712
			c5.062-0.552,6.679,2.759,7.232,6.809C172.443,75.307,167.612,84.004,161.835,87.221z"/>
		<path style="fill:#E2E3E4;" d="M164.368,62.323c-0.345,0.237-0.69,0.474-1.035,0.712c0-0.357,0.001-0.715,0.001-1.072
			C163.678,62.082,164.023,62.202,164.368,62.323z"/>
		<path style="fill:#D0D2D3;" d="M125.021,193.965c0.31,0.38,0.788,0.714,0.905,1.145c2.57,9.461,8.55,14.105,19.465,13.175
			c-8.692,6.035-12.119,13.429-6.902,24.217c-5.595-2.53-9.557-4.322-13.519-6.114c-0.106-0.165-0.094-0.321,0.036-0.468
			c0.007-4.762,0.171-9.53-0.021-14.283c-0.223-5.515,0.907-11.095-0.73-16.545C124.51,194.715,124.765,194.34,125.021,193.965z"/>
		<path style="fill:#F6F9FC;" d="M124.254,195.09c1.637,5.45,0.507,11.03,0.73,16.545c0.192,4.754,0.028,9.522,0.021,14.283
			c-3.906,2.047-7.812,4.093-11.717,6.14c-0.462-0.014-0.924-0.028-1.386-0.043c4.86-10.079,1.728-17.553-6.769-22.676
			c0.507-0.868,0.584-1.104,0.652-1.102C115.283,208.545,121.814,204.694,124.254,195.09z"/>
		<path style="fill:#F4BE9B;" d="M147.028,116.043c-3.094,5.437-7.55,9.759-12.395,13.451c-4.913,3.743-17.973,1.966-22.924-2.59
			c-3.052-2.809-5.826-5.92-8.725-8.895c-0.083-7.729-1.576-15.398-0.993-23.154c0.2-2.666-0.247-5.244-0.931-7.799
			c4.447,0.021,8.913-0.127,13.155-1.503c2.813-0.912,2.926,0.157,2.851,2.478c-0.144,4.444,2.453,6.974,6.93,7.159
			c5.564-0.023,6.361-1.101,7.371-10.143c5.133,1.332,10.324,2.159,15.628,2.006c-0.202,4.959-0.128,9.894-0.727,14.881
			C145.717,106.519,144.839,111.461,147.028,116.043z M133.87,103.31c-7.464,0.252-14.686-1.591-22.044-1.922
			C118.917,104.832,126.29,105.428,133.87,103.31z"/>
		<path style="fill:#E6E9EB;" d="M123.948,14.618c1.653,0.068,3.307,0.189,4.96,0.195c8.111,0.03,8.128,0.015,9.892,7.628
			c1.232,5.32,2.27,10.691,3.669,15.966c0.671,2.53,0.05,3.288-2.463,3.199c-4.26-0.151-8.955,1.359-9.65-5.706
			c-0.32-3.245-4.138-1.283-6.407-1.518c0,0,0.061-0.469,0.061-0.469c-0.009-1.917-0.018-3.834-0.027-5.752
			c1.213-1.115,4.309,1.652,4.255-2.031c-0.041-2.761-0.994-4.754-4.261-4.514c0.011-2.177,0.023-4.354,0.034-6.531
			C124.008,15.087,123.948,14.618,123.948,14.618z"/>
		<path style="fill:#F49E77;" d="M147.028,116.043c-2.189-4.583-1.312-9.524-0.761-14.108c0.599-4.987,0.525-9.922,0.727-14.881
			c8.485-2.473,8.882-2.153,9.174,6.478c0.162,4.789-0.308,9.492-1.355,14.156C152.711,110.936,150.229,113.825,147.028,116.043z"/>
		<path style="fill:#E99A76;" d="M134.69,66.285c5.885-1.655,11.789-3.243,17.646-4.993c2.829-0.845,3.861-0.051,3.881,2.936
			c0.043,6.238-4.217,12.006-10.328,13.567c-6.093,1.556-12.865-1.359-15.69-6.776c-1.02-1.955-1.914-3.899,1.717-3.739
			c0.043,0.344,0.217,0.587,0.52,0.729c0.218,0.88,0.449,1.752,1.455,2.081c2.974,3.595,6.505,1.895,9.947,1.047l0.453-0.192
			c0,0,0.491,0.026,0.492,0.026c0.411-0.028,0.822-0.055,1.232-0.083c2.071,0.269,3.909-0.577,5.664-1.419
			c1.72-0.825,1.439-1.96-0.062-2.9c0.684-0.62,2.302-0.322,2.187-1.569c-0.169-1.841-1.767-1.087-2.702-0.895
			c-5.452,1.119-10.877,2.366-16.312,3.569C134.757,67.212,134.723,66.748,134.69,66.285z"/>
		<path style="fill:#B9573E;" d="M134.69,66.285c0.033,0.463,0.067,0.926,0.102,1.388c-0.784,0.111-1.57,0.223-2.356,0.336
			c-0.303-0.142-0.476-0.385-0.52-0.729C132.84,66.948,133.765,66.617,134.69,66.285z"/>
		<path style="fill:#F6F9FC;" d="M123.981,28.162c0.009,1.917,0.018,3.834,0.027,5.752c-4.169-0.227-6.507,0.861-7.888,5.691
			c-1.211,4.237-6.387,1.91-9.631,1.709c-3.027-0.188-0.807-2.896-0.523-4.313c1.203-6.004,2.83-11.924,3.966-17.938
			c0.589-3.116,1.714-4.687,5.143-4.289c2.95,0.343,5.953,0.226,8.933,0.313c-0.012,2.177-0.023,4.354-0.034,6.531
			c-0.318,0.148-0.635,0.296-0.953,0.444c-4.129-0.711-3.222,2.939-3.361,4.644c-0.195,2.408,2.16,0.83,3.37,1.124
			C123.348,27.94,123.665,28.051,123.981,28.162z"/>
		<path style="fill:#F49E77;" d="M101.061,87.057c0.684,2.555,1.131,5.133,0.931,7.799c-0.583,7.756,0.91,15.425,0.993,23.154
			c-3.395-2.711-6.422-5.789-9.159-9.158c-0.291-0.291-0.581-0.581-0.872-0.871c0,0,0.024,0.09,0.023,0.09
			c-0.712-5.423-1.481-10.83-1.057-16.34c0.501-6.512,0.684-6.73,6.761-5.413C99.489,86.493,100.268,86.807,101.061,87.057z"/>
		<path style="fill:#E5B99B;" d="M113.468,66.926c4.187-0.322,5.184,1.056,2.768,4.745c-3.466,5.291-10.091,7.714-16.085,5.646
			c-6.03-2.08-9.781-7.702-9.358-13.733c0.142-2.032,0.648-3.276,2.926-2.575c6.603,2.032,13.523,3.009,19.849,5.961
			c-1.918,1.041-3.858,0.371-5.751-0.02c-4.324-0.894-8.615-1.949-12.944-2.817c-0.942-0.189-2.484-0.982-2.734,0.845
			c-0.173,1.263,1.49,0.988,2.052,1.739c-0.95,6.055,3.89,3.397,6.397,4.25c1.138,0.069,2.275,0.137,3.413,0.206
			c3.146,0.952,6.366,2.492,8.941-1.12C113.116,69.01,113.292,67.968,113.468,66.926z"/>
		<path style="fill:#4E3626;" d="M113.468,66.926c-0.176,1.042-0.352,2.084-0.528,3.126c-2.941,0.681-6.496-3.528-8.941,1.12
			c-1.138-0.069-2.275-0.137-3.413-0.206c-0.212-4.307-3.403-4.13-6.396-4.25c-0.561-0.752-2.225-0.476-2.052-1.739
			c0.251-1.827,1.793-1.034,2.734-0.845c4.329,0.868,8.62,1.923,12.944,2.817c1.893,0.391,3.833,1.061,5.751,0.02
			C113.567,66.97,113.468,66.926,113.468,66.926z"/>
		<path style="fill:#1173B8;" d="M92.953,107.98c0.291,0.29,0.582,0.58,0.872,0.871C93.534,108.561,93.244,108.271,92.953,107.98z"
			/>
		<path style="fill:#E99A76;" d="M133.87,103.31c-7.58,2.118-14.953,1.523-22.044-1.922
			C119.184,101.719,126.406,103.562,133.87,103.31z"/>
		<path style="fill:#076596;" d="M123.022,22.062c0.318-0.148,0.635-0.296,0.953-0.444c3.268-0.241,4.22,1.753,4.261,4.514
			c0.055,3.683-3.041,0.916-4.255,2.031c-0.317-0.111-0.633-0.221-0.95-0.332C123.028,25.907,123.025,23.984,123.022,22.062z"/>
		<path style="fill:#4E3626;" d="M132.436,68.009c0.786-0.112,1.572-0.225,2.356-0.336c5.433-1.202,10.858-2.449,16.31-3.567
			c0.934-0.192,2.533-0.945,2.702,0.895c0.114,1.246-1.503,0.949-2.185,1.569c-1.969,0.971-5.677-1.01-5.662,3.335
			c-0.392,0.355-0.783,0.711-1.175,1.066l-0.491-0.026c0,0-0.453,0.192-0.452,0.192c-3.094-2.455-6.436-2.556-9.948-1.047
			C132.885,69.76,132.654,68.889,132.436,68.009z"/>
		<path style="fill:#F6F9FC;" d="M145.956,69.905c-0.015-4.345,3.693-2.364,5.662-3.335c1.498,0.94,1.78,2.075,0.06,2.899
			c-1.755,0.841-3.593,1.688-5.664,1.42C146.016,70.561,145.997,70.232,145.956,69.905z"/>
		<path style="fill:#E6E9EB;" d="M133.89,70.09c3.512-1.509,6.854-1.408,9.948,1.047C140.396,71.985,136.864,73.685,133.89,70.09z"
			/>
		<path style="fill:#E6E9EB;" d="M145.956,69.905c0.04,0.327,0.06,0.656,0.058,0.985c-0.41,0.026-0.821,0.054-1.232,0.082
			C145.173,70.616,145.565,70.26,145.956,69.905z"/>
		<path style="fill:#1173B8;" d="M123.022,22.062c0.003,1.923,0.006,3.845,0.01,5.768c-1.211-0.294-3.565,1.284-3.37-1.124
			C119.799,25,118.893,21.351,123.022,22.062z"/>
		<path style="fill:#F6F9FC;" d="M94.19,66.716c2.993,0.12,6.185-0.058,6.396,4.25C98.08,70.113,93.24,72.771,94.19,66.716z"/>
		<path style="fill:#F6F9FC;" d="M103.999,71.172c2.445-4.648,6-0.44,8.941-1.12C110.365,73.665,107.145,72.125,103.999,71.172z"/>
	</g>
</g>
</svg>
