<?xml version="1.0" encoding="iso-8859-1"?>
<!-- Generator: Adobe Illustrator 23.0.3, SVG Export Plug-In . SVG Version: 6.00 Build 0)  -->
<svg version="1.1" id="Layer_1" xmlns="http://www.w3.org/2000/svg" xmlns:xlink="http://www.w3.org/1999/xlink" x="0px" y="0px"
	 viewBox="0 0 250 250" style="enable-background:new 0 0 250 250;" xml:space="preserve">
<g>
	<g>
		<path style="fill:none;" d="M123,251c-40.667,0-81.333,0-122,0C1,167.667,1,84.333,1,1c82,0,164,0.027,246-0.096
			c3.424-0.005,4.101,0.672,4.096,4.096c-0.124,80.666-0.124,161.333,0,242c0.005,3.424-0.67,4.112-4.096,4.099
			C206.667,250.945,166.333,251,126,251c0.031-0.31,0.077-0.617,0.141-0.922c2.073-1.64,4.191-3.226,6.212-4.927
			c22.221-18.714,44.259-37.652,66.757-56.027c5.515-4.504,8.171-9.069,6.726-15.951c0.056-4.821-0.073-9.654,0.232-14.459
			c0.2-3.156-0.974-4.219-4-4.893c-15.554-3.468-31.046-7.215-46.56-10.865c-0.123-8.317-0.245-16.634-0.368-24.951
			c0.551-2.302,0.53-4.613,0.106-6.93c1.512-4.191,6.055-6.978,5.596-12.082c0.815-11.811,1.631-23.622,2.446-35.433
			c4.158,0.03,8.316,0.089,12.474,0.073c1.427-0.005,3.32,0.348,3.343-1.902c0.075-7.656,0.029-15.314,0.029-23.771
			c-5.809,5.496-10.749,10.17-15.689,14.844c0.03-7.997-0.075-15.999,0.153-23.99c0.094-3.29-1.081-5.746-3.205-8.044
			c-9.83-10.633-22.302-14.528-36.38-14.39c-14.057-0.154-26.476,3.628-35.786,14.887c-1.977,2.391-2.78,4.928-2.555,8.213
			c0.53,7.762,0.489,15.564,0.679,23.349c-5.593-3.843-9.266-9.912-15.51-14.031c0,7.588,0.106,14.368-0.051,21.141
			c-0.064,2.771,0.784,3.872,3.649,3.732c4.126-0.201,8.268-0.076,12.404-0.09c0.209,5.316,0.07,10.674,0.702,15.939
			c1.273,10.605-2.448,22.17,5.796,31.493c0.017,1.992,0.034,3.983,0.051,5.974c-0.005,0.34-0.01,0.679-0.015,1.019
			c-0.146,8.491-0.292,16.983-0.439,25.474c-11.227,2.789-22.454,5.576-33.681,8.366c-13.018,3.236-13.02,3.238-11.738,16.537
			c0.03,0.316,0.226,0.617,0.345,0.924c-0.112,2.979-0.043,5.978-0.377,8.932c-0.528,4.677,1.077,7.837,4.815,11
			c22.173,18.766,44.083,37.846,66.019,56.891C120.001,247.588,122.256,248.602,123,251z"/>
		<path style="fill:#283A7C;" d="M126.141,250.078c-0.063,0.305-0.11,0.612-0.141,0.922c-1,0-2,0-3,0
			c-0.744-2.398-2.999-3.412-4.68-4.871c-21.936-19.045-43.845-38.124-66.019-56.891c-3.738-3.163-5.343-6.323-4.815-11
			c0.334-2.954,0.265-5.953,0.378-8.933c20.56-2.235,41.114-4.536,61.841-4.423c5.09,0.349,10.11,1.653,15.265,1.131
			c0.01,26.149,0.004,52.299,0.065,78.448C125.04,246.357,124.258,248.511,126.141,250.078z"/>
		<path style="fill:#1D2964;" d="M126.141,250.078c-1.883-1.568-1.1-3.722-1.104-5.618c-0.061-26.149-0.055-52.299-0.065-78.448
			l0.062-0.03c4.612,0.629,9.03-1.065,13.583-1.133c22.652,0.789,45.066,3.508,67.22,8.322c1.445,6.883-1.212,11.447-6.726,15.951
			c-22.498,18.375-44.536,37.313-66.757,56.027C130.332,246.853,128.213,248.439,126.141,250.078z"/>
		<path style="fill:#1E325F;" d="M124.013,6.379c14.078-0.137,26.55,3.757,36.38,14.39c2.124,2.298,3.299,4.754,3.205,8.044
			c-0.228,7.992-0.123,15.993-0.154,23.986c-0.052,3.584-0.104,7.173-0.156,10.761c-0.815,11.811-1.631,23.622-2.446,35.433
			c-1.49,0.019-2.98,0.038-4.47,0.057c-0.248-2.813-0.462-5.629-0.756-8.437c-0.257-2.453-1.414-3.351-3.988-2.589
			c-6.961,2.061-13.818,0.868-20.614-1.019c-1.541-1.265-0.861-3.023-1.007-4.591c-0.507-5.422-1.693-10.554-5.992-14.394
			C124.014,47.472,124.013,26.926,124.013,6.379z M156.156,66.727c0.44-3.064-0.773-3.915-4.204-2.821
			c-6.479,2.066-13.038,3.933-19.657,5.485c-3.408,0.799-2.923,2.23-1.617,4.427c3.099,5.214,9.484,7.772,15.52,6.16
			C151.994,78.428,156.088,73.149,156.156,66.727z"/>
		<path style="fill:#24306A;" d="M124.013,6.379c0,20.547,0.001,41.093,0.001,61.64c0,0-0.013-0.017-0.013-0.017
			c-0.798,0.421-0.981,1.155-0.999,1.972c-4.092,4.97-3.986,11.178-5.028,17.048c-0.875-0.064-1.722-0.041-2.325,0.745
			c-6.411,1.286-12.839,2.014-19.26,0.147c-2.298-0.668-3.009,0.512-3.269,2.418c-0.797,5.837-1.311,11.494,3.136,16.485
			c2.625,2.945,4.559,6.506,6.803,9.79c-2.107,0.839-3.363-0.499-4.741-1.743c-1.557-1.404-2.614-3.484-4.977-3.852
			c-8.244-9.322-4.523-20.887-5.796-31.492c-0.632-5.265-0.492-10.623-0.702-15.937c-0.164-3.583-0.327-7.168-0.491-10.753
			c-0.19-7.785-0.149-15.587-0.679-23.349c-0.225-3.285,0.579-5.823,2.555-8.213C97.537,10.007,109.956,6.225,124.013,6.379z
			 M113.503,69.834c-0.304-1.716-1.782-1.665-3.007-2.004c-4.573-1.264-9.136-2.567-13.72-3.792c-5.614-1.5-6.074-1.006-4.831,4.973
			c1.268,6.062,5.036,10.002,10.498,10.977c5.712,1.019,11.358-1.292,14.177-5.921c0.653-1.072,1.993-2.382,1.139-3.529
			c-0.931-1.249-2.575-2.09-4.274-0.751L113.503,69.834z"/>
		<path style="fill:#F98F29;" d="M205.835,173.172c-22.154-4.814-44.567-7.533-67.221-8.322c0.989-0.547,1.935-1.205,2.976-1.624
			c9.143-3.679,14.936-9.63,13.917-20.272c15.514,3.65,31.006,7.397,46.56,10.865c3.026,0.675,4.2,1.737,4,4.893
			C205.763,163.518,205.891,168.351,205.835,173.172z"/>
		<path style="fill:#24306A;" d="M124.971,166.013c-5.155,0.522-10.175-0.782-15.265-1.131c-0.95-0.593-1.836-1.345-2.86-1.755
			c-8.89-3.557-14.453-9.43-13.908-19.648c0.146-8.491,0.292-16.983,0.439-25.474c0.286-0.017,0.567-0.064,0.842-0.14
			c6.278,4.102,11.138,9.787,16.113,15.212c4.136,4.51,8.502,6.993,14.611,5.976c0.03,8.977,0.06,17.954,0.09,26.931
			L124.971,166.013z"/>
		<path style="fill:#142749;" d="M125.032,165.983c-0.03-8.977-0.06-17.954-0.09-26.931c4.529,0.125,9.55,0.521,12.539-3.322
			c3.689-4.744,8.55-8.35,11.946-13.331c1.349-1.979,2.827-4.216,5.711-4.395c0.123,8.317,0.246,16.634,0.368,24.951
			c1.019,10.642-4.774,16.593-13.917,20.272c-1.042,0.419-1.988,1.077-2.976,1.624C134.062,164.918,129.644,166.612,125.032,165.983
			z"/>
		<path style="fill:#F9902C;" d="M92.937,143.479c-0.545,10.218,5.018,16.091,13.908,19.648c1.024,0.41,1.91,1.162,2.86,1.755
			c-20.727-0.113-41.281,2.188-61.841,4.423c-0.119-0.307-0.315-0.607-0.345-0.923c-1.282-13.299-1.28-13.301,11.738-16.537
			C70.483,149.054,81.711,146.267,92.937,143.479z"/>
		<path style="fill:#0E1E36;" d="M155.139,118.004c-2.884,0.179-4.362,2.416-5.711,4.395c-3.396,4.981-8.257,8.587-11.946,13.331
			c-2.989,3.844-8.01,3.447-12.539,3.322c-6.11,1.018-10.476-1.465-14.612-5.975c-4.975-5.425-9.835-11.11-16.115-15.211
			c-0.276-0.293-0.551-0.586-0.826-0.88c-0.017-1.991-0.034-3.983-0.051-5.974c2.363,0.368,3.421,2.448,4.977,3.852
			c1.379,1.244,2.635,2.581,4.736,1.744c-0.214,1.684,1.411,1.742,2.224,2.518c-0.054,0.494-0.323,1.1-0.131,1.466
			c6.46,12.352,24.243,17.534,33.854,7.152c5.254-5.675,9.455-12.469,16.245-16.669C155.67,113.391,155.69,115.702,155.139,118.004z
			"/>
		<path style="fill:#FA9432;" d="M163.288,63.56c0.052-3.588,0.104-7.177,0.156-10.761c4.941-4.67,9.88-9.343,15.689-14.839
			c0,8.457,0.046,16.115-0.029,23.771c-0.022,2.25-1.916,1.897-3.343,1.902C171.604,63.649,167.446,63.59,163.288,63.56z"/>
		<path style="fill:#F9902C;" d="M86.351,52.828c0.164,3.585,0.328,7.17,0.491,10.753c-4.136,0.013-8.278-0.112-12.404,0.089
			c-2.865,0.139-3.713-0.961-3.649-3.732c0.157-6.774,0.051-13.553,0.051-21.141C77.085,42.915,80.758,48.984,86.351,52.828z"/>
		<path style="fill:#26326B;" d="M155.246,111.074c-6.79,4.2-10.991,10.994-16.245,16.669c-9.611,10.382-27.395,5.2-33.854-7.152
			c-0.191-0.366,0.077-0.972,0.132-1.463c6.388,8.343,14.528,11.979,25.17,10.196c3.555-0.595,6.281-1.661,8.416-4.524
			c5.178-6.941,10.39-13.857,15.697-20.699c1.206-1.555,1.593-3.23,1.81-5.051c1.49-0.019,2.98-0.038,4.47-0.057
			C161.301,104.096,156.758,106.883,155.246,111.074z"/>
		<path style="fill:#26326B;" d="M93.391,116.985c0.275,0.293,0.549,0.587,0.826,0.88c-0.274,0.075-0.555,0.122-0.841,0.139
			C93.381,117.665,93.386,117.325,93.391,116.985z"/>
		<path style="fill:#F2BD9B;" d="M156.372,99.049c-0.217,1.821-0.604,3.496-1.81,5.051c-5.307,6.842-10.519,13.759-15.697,20.699
			c-2.135,2.862-4.861,3.928-8.416,4.524c-10.643,1.783-18.783-1.853-25.17-10.196c-0.814-0.779-2.439-0.836-2.225-2.52
			c-2.239-3.285-4.173-6.846-6.798-9.792c-4.447-4.99-3.933-10.648-3.136-16.485c0.26-1.906,0.972-3.086,3.269-2.418
			c6.421,1.867,12.849,1.139,19.26-0.147c0.545,0.547,1.089,1.094,1.634,1.641c-0.308,4.766,1.883,7.377,6.677,7.744
			c3.391,1.175,5.408-0.787,6.909-3.314c1.271-2.139-0.255-4.551,0.145-6.832c6.796,1.887,13.653,3.08,20.614,1.019
			c2.575-0.762,3.731,0.135,3.988,2.589C155.91,93.42,156.123,96.237,156.372,99.049z M111.032,102.957
			c-0.366-0.243-0.729-0.492-1.107-0.713c-0.017-0.01-0.18,0.231-0.275,0.356c0.436,0.147,0.873,0.295,1.309,0.442
			c7.575,4.979,15.929,2.444,24.02,2.458C126.887,105.658,119.047,103.494,111.032,102.957z"/>
		<path style="fill:#E99876;" d="M156.156,66.727c-0.067,6.422-4.162,11.701-9.958,13.25c-6.037,1.613-12.422-0.946-15.52-6.16
			c-1.305-2.196-1.791-3.627,1.617-4.427c6.619-1.552,13.178-3.419,19.657-5.485C155.383,62.812,156.595,63.663,156.156,66.727z
			 M146.019,73.039c2.799-0.394,6.491,0.729,6.753-3.975c0.357-0.7,1.127-1.497,0.99-2.082c-0.338-1.442-1.546-0.686-2.41-0.508
			c-5.636,1.16-11.255,2.405-16.9,3.522c-2.652,0.525-1.458,1.44-0.376,2.435C137.898,75.771,141.98,73.984,146.019,73.039z"/>
		<path style="fill:#142749;" d="M131.014,87.004c-0.4,2.281,1.126,4.692-0.145,6.832c-1.501,2.527-3.518,4.489-6.909,3.314
			c0.001-8.383,0.003-16.765,0.004-25.148c0.013-1.334,0.025-2.667,0.038-4.001c0,0,0.013,0.017,0.013,0.017
			c4.299,3.841,5.485,8.973,5.993,14.395C130.153,83.981,129.472,85.74,131.014,87.004z"/>
		<path style="fill:#283A7C;" d="M123.964,72.002c-0.001,8.383-0.003,16.765-0.004,25.148c-4.794-0.366-6.985-2.977-6.678-7.744
			c0.23-0.796,0.461-1.591,0.692-2.385c1.042-5.87,0.936-12.078,5.028-17.048C123.025,70.791,123.183,71.544,123.964,72.002z"/>
		<path style="fill:#F2BD9B;" d="M113.483,69.784c1.702-1.336,3.346-0.495,4.277,0.754c0.855,1.146-0.486,2.456-1.139,3.529
			c-2.818,4.629-8.464,6.94-14.177,5.921c-5.463-0.974-9.231-4.914-10.498-10.977c0.501-0.104,1.003-0.209,1.504-0.313
			c0.556,0.154,1.112,0.308,1.669,0.462c-0.947,1.197-1.423,2.319,0.473,3.084c1.994,0.804,3.968,1.683,6.185,1.655
			c0.522,0.095,1.045,0.189,1.567,0.284c3.378,0.484,7.036,2.545,9.569-1.707C113.653,71.695,114.383,70.913,113.483,69.784z"/>
		<path style="fill:#DBAC90;" d="M93.45,68.698c-0.501,0.104-1.003,0.209-1.504,0.313c-1.243-5.978-0.783-6.472,4.831-4.973
			c4.584,1.225,9.147,2.527,13.72,3.792c1.224,0.339,2.702,0.288,3.004,2.006c-1.82,0.437-3.538-0.044-5.301-0.45
			c-4.287-0.987-8.622-1.765-12.899-2.789C93.056,66.06,92.506,66.619,93.45,68.698z"/>
		<path style="fill:#503526;" d="M93.45,68.698c-0.944-2.079-0.394-2.638,1.851-2.1c4.277,1.024,8.612,1.802,12.899,2.789
			c1.763,0.406,3.481,0.887,5.301,0.45c0.002-0.002-0.015-0.049-0.017-0.051c0.899,1.127,0.168,1.909-0.573,2.69
			c-2.462-0.434-4.923-0.867-7.385-1.301c-1.523-0.333-3.044-0.665-4.566-0.998c-1.947-0.339-3.895-0.677-5.842-1.016
			C94.562,69.006,94.006,68.852,93.45,68.698z"/>
		<path style="fill:#26326B;" d="M123.964,72.002c-0.78-0.458-0.939-1.212-0.962-2.029c0.019-0.817,0.201-1.551,0.999-1.972
			C123.989,69.335,123.976,70.669,123.964,72.002z"/>
		<path style="fill:#DBAC90;" d="M117.974,87.021c-0.231,0.795-0.462,1.59-0.692,2.385c-0.544-0.546-1.088-1.093-1.633-1.64
			C116.251,86.98,117.099,86.957,117.974,87.021z"/>
		<path style="fill:#E99876;" d="M111.033,102.955c8.015,0.539,15.855,2.702,23.946,2.544c-8.091-0.014-16.444,2.521-24.02-2.458
			L111.033,102.955z"/>
		<path style="fill:#E99876;" d="M110.959,103.042c-0.436-0.147-0.873-0.295-1.309-0.442c0.095-0.124,0.258-0.366,0.275-0.356
			c0.379,0.221,0.742,0.469,1.108,0.712C111.033,102.955,110.959,103.042,110.959,103.042z"/>
		<path style="fill:#503526;" d="M134.077,72.431c-1.082-0.995-2.276-1.91,0.376-2.435c5.644-1.117,11.264-2.361,16.9-3.522
			c0.864-0.178,2.072-0.934,2.41,0.508c0.137,0.585-0.633,1.382-0.987,2.082c-2.338-0.297-4.522,0.381-6.703,1.077
			c-1.566,0.344-3.132,0.688-4.699,1.031C138.941,71.592,136.509,72.011,134.077,72.431z"/>
		<path style="fill:#FEFEFE;" d="M146.072,70.141c2.181-0.696,4.365-1.374,6.703-1.077c-0.265,4.703-3.956,3.581-6.755,3.974
			c0,0-0.194-0.207-0.194-0.207C145.908,71.935,145.99,71.038,146.072,70.141z"/>
		<path style="fill:#FEFEFE;" d="M134.077,72.431c2.432-0.419,4.864-0.839,7.298-1.258c0.738,2.554,2.542,2.247,4.451,1.659
			c0,0,0.194,0.207,0.194,0.207C141.98,73.984,137.898,75.771,134.077,72.431z"/>
		<path style="fill:#FEFEFE;" d="M105.528,71.174c2.461,0.434,4.922,0.867,7.384,1.301c-2.532,4.252-6.191,2.191-9.572,1.707
			C104.828,73.734,105.356,72.584,105.528,71.174z"/>
		<path style="fill:#FEFEFE;" d="M95.118,69.16c1.947,0.339,3.895,0.677,5.842,1.016c-0.241,1.353,0.007,2.599,0.816,3.723
			c-2.217,0.028-4.19-0.85-6.185-1.655C93.696,71.479,94.171,70.357,95.118,69.16z"/>
		<path style="fill:#31A9DC;" d="M101.776,73.899c-0.809-1.123-1.057-2.369-0.816-3.723c1.522,0.333,3.043,0.665,4.566,0.998
			c-0.17,1.41-0.698,2.56-2.187,3.008C102.821,74.088,102.298,73.993,101.776,73.899z"/>
		<path style="fill:#31A9DC;" d="M145.826,72.832c-1.909,0.588-3.713,0.895-4.451-1.659c1.565-0.344,3.131-0.688,4.697-1.031
			C145.99,71.038,145.908,71.935,145.826,72.832z"/>
	</g>
</g>
</svg>
