<?xml version="1.0" encoding="iso-8859-1"?>
<!-- Generator: Adobe Illustrator 23.0.3, SVG Export Plug-In . SVG Version: 6.00 Build 0)  -->
<svg version="1.1" id="Layer_1" xmlns="http://www.w3.org/2000/svg" xmlns:xlink="http://www.w3.org/1999/xlink" x="0px" y="0px"
	 viewBox="0 0 250 250" style="enable-background:new 0 0 250 250;" xml:space="preserve">
<g>
	<g>
		<path style="fill:none;" d="M123,251c-40.667,0-81.333,0-122,0C1,167.667,1,84.333,1,1c82,0,164,0.027,246-0.096
			c3.424-0.005,4.101,0.672,4.096,4.096c-0.124,80.666-0.124,161.333,0,242c0.005,3.424-0.67,4.112-4.096,4.099
			C206.667,250.945,166.333,251,126,251c-0.032-0.34-0.065-0.681-0.097-1.021c24.438-20.524,48.708-41.253,73.445-61.41
			c5.463-4.451,7.84-8.909,6.487-15.575c0.056-5.136,0.032-10.275,0.203-15.407c0.076-2.305-0.466-3.368-3.036-3.932
			c-15.997-3.509-31.937-7.275-47.896-10.956c-0.088-8.895-0.176-17.79-0.264-26.685c0.029-2.036,0.058-4.072,0.087-6.108
			c0.353-0.78,0.706-1.56,1.058-2.34c3.49-2.779,4.637-6.604,4.86-10.849c0.361-6.879,0.73-13.758,1.096-20.637
			c6.718-3.271,8.953-9.285,9.931-16.113c1.433-10.002,2.74-20.017,3.186-30.12c0.189-4.282,1.318-8.555,0.527-13.503
			c-3.956,6.347-7.134,12.377-12.223,17.018c0.539-6.965-1.05-12.837-6.974-17.473c-9.594-7.508-20.387-10.765-32.375-10.727
			c-5.89-0.401-11.645,0.54-17.233,2.213c-14.567,4.362-21.346,12.367-21.926,25.503c-4.654-4.459-7.698-10.129-11.521-15.365
			c0.163,14.017,1.414,27.808,3.447,41.561c1.043,7.057,2.934,13.293,9.706,16.904c0.262,6.422,0.78,12.846,0.71,19.263
			c-0.063,5.79,1.588,10.699,5.577,14.85c-0.481,2.292-0.531,4.579,0.085,6.857c-0.265,8.692-0.53,17.384-0.796,26.077
			c-11.095,2.736-22.197,5.447-33.284,8.216c-13.234,3.304-13.229,3.326-12.122,17.262c0.013,0.16,0.104,0.314,0.159,0.471
			c-0.118,3.316-0.018,6.657-0.408,9.941c-0.483,4.065,1.014,6.777,4.181,9.33c6.865,5.534,13.419,11.453,20.078,17.241
			C88.121,220.649,105.558,235.827,123,251z"/>
		<path style="fill:#029444;" d="M123,251c-17.442-15.173-34.879-30.351-52.329-45.515c-6.659-5.787-13.214-11.707-20.078-17.241
			c-3.168-2.553-4.665-5.265-4.181-9.33c0.39-3.283,0.29-6.625,0.408-9.941c12.006-1.017,24.007-2.189,35.987-3.378
			c8.412-0.835,16.929,0.595,25.21-1.591c5.702,0.253,11.173,2.469,16.96,1.997c0.007,26.087-0.003,52.175,0.054,78.262
			c0.004,1.912-0.718,4.015,0.873,5.716c0.032,0.34,0.065,0.681,0.097,1.021C125,251,124,251,123,251z"/>
		<path style="fill:#017C32;" d="M125.903,249.979c-1.591-1.701-0.869-3.804-0.873-5.716c-0.057-26.087-0.047-52.175-0.053-78.262
			c0-8.994,0.001-17.989,0.001-26.983c6.655,0.324,11.37-2.348,15.709-7.679c4.35-5.344,8.657-10.948,14.155-15.327
			c0.088,8.895,0.176,17.79,0.264,26.685c1.375,11.881-6.326,17.149-15.801,21.481c22.57,1.241,44.718,3.791,66.531,8.814
			c1.352,6.666-1.025,11.124-6.487,15.575C174.611,208.726,150.341,229.456,125.903,249.979z"/>
		<path style="fill:#F3BE9A;" d="M155.987,107.565c-0.353,0.78-0.706,1.56-1.058,2.341c-6.371,5.073-11.057,11.753-16.692,17.531
			c-5.824,5.973-18.91,7.318-25.008,1.788c-6.739-6.111-12.976-12.775-19.432-19.199c-1.783-6.298-2.472-12.679-1.468-19.189
			c0.42-2.723,0.996-4.221,4.709-3.378c6.306,1.433,12.832,1.55,19.007-1.25c1.476,0.924,0.829,2.346,0.843,3.61
			c0.044,3.965,2.715,6.506,7.153,6.8c5.436-0.061,7.088-2.369,6.718-9.387c0.241-0.275,0.481-0.549,0.722-0.824
			c6.928,1.936,13.909,3.085,20.99,0.897c2.494-0.77,3.066,0.373,3.609,2.519C157.585,95.778,156.256,101.657,155.987,107.565z
			 M110.99,102.544c7.381,2.795,14.933,4.918,22.915,1.843C126.242,104.373,118.641,103.759,110.99,102.544z"/>
		<path style="fill:#057D34;" d="M130.758,87.232c0.37,7.018-1.282,9.326-6.718,9.387c-0.015-8.205-0.03-16.41-0.045-24.615
			c0.007-22.281,0.013-44.562,0.02-66.844c11.988-0.038,22.781,3.219,32.375,10.727c5.924,4.636,7.513,10.509,6.973,17.471
			c-1.851,3.071-4.731,5.074-7.556,7.089c-4.586,3.272-9.204,6.504-13.91,9.601c-10.648,7.007-12.672,17.244-10.714,28.823
			c0.991,5.862,3.269,7.105,9.117,5.748c7.634-1.77,14.595-5.269,21.641-8.541c-0.366,6.879-0.735,13.758-1.096,20.637
			c-0.223,4.245-1.37,8.07-4.86,10.849c0.269-5.908,1.598-11.787,0.093-17.741c-0.543-2.146-1.115-3.289-3.609-2.519
			c-7.081,2.187-14.062,1.038-20.991-0.894c-0.394,0.042-0.787,0.081-1.18,0.119C130.452,86.765,130.605,86.998,130.758,87.232z"/>
		<path style="fill:#039641;" d="M124.016,5.162c-0.007,22.281-0.013,44.562-0.02,66.844c-3.361,1.278-3.409,4.294-4.095,7.187
			c-0.599,2.525,0.664,6.357-3.753,6.891c-0.707-0.31-1.414-0.619-2.122-0.929c1.34-0.573,1.916-1.783,2.483-2.995
			c4.29-9.162,1.548-22.872-6.267-29.319c-4.737-3.908-9.905-7.304-14.958-10.815c-3.831-2.662-7.719-5.222-10.427-9.148
			c0.58-13.136,7.359-21.141,21.926-25.503C112.37,5.701,118.126,4.761,124.016,5.162z"/>
		<path style="fill:#F9A222;" d="M84.857,32.877c2.708,3.926,6.596,6.486,10.427,9.148c5.054,3.511,10.221,6.908,14.958,10.815
			c7.815,6.446,10.558,20.157,6.267,29.319c-0.567,1.212-1.143,2.421-2.483,2.995c-3.181,0.034-6.238-0.674-9.268-1.546
			c-6.384-1.838-12.159-5.136-18.269-7.631c-6.772-3.61-8.663-9.846-9.706-16.903c-2.033-13.753-3.284-27.544-3.447-41.561
			C77.159,22.749,80.203,28.419,84.857,32.877z M87.908,61.988c-3.436,1.641-0.888,3.945-0.022,5.098
			c5.256,6.998,12.202,11.646,20.801,13.685c2.411,0.572,3.502-0.302,3.274-2.782c-0.034-3.498-0.132-6.997-0.078-10.494
			c0.03-1.952-0.547-3.125-2.663-3.439C102.148,63.007,95.145,61.316,87.908,61.988z"/>
		<path style="fill:#F9A222;" d="M161.943,76.079c-7.046,3.272-14.007,6.771-21.641,8.541c-5.848,1.356-8.126,0.114-9.117-5.748
			c-1.958-11.578,0.066-21.816,10.714-28.823c4.705-3.096,9.324-6.329,13.91-9.601c2.824-2.015,5.705-4.018,7.556-7.089
			c5.09-4.639,8.267-10.669,12.223-17.016c0.791,4.948-0.339,9.221-0.527,13.503c-0.445,10.103-1.752,20.118-3.186,30.12
			C170.896,66.794,168.661,72.808,161.943,76.079z M160.95,62.019c-3.81-0.373-7.605-0.186-11.371,0.43
			c-12.986,2.125-12.984,2.14-12.595,15.636c-0.107,2.058,0.637,3.301,2.911,2.756c8.532-2.048,15.723-6.255,20.844-13.51
			C161.809,65.813,163.119,63.868,160.95,62.019z"/>
		<path style="fill:#02672A;" d="M205.836,172.993c-21.813-5.024-43.961-7.573-66.531-8.814c9.475-4.332,17.177-9.6,15.801-21.481
			c15.959,3.681,31.9,7.447,47.896,10.957c2.57,0.564,3.112,1.627,3.036,3.932C205.868,162.719,205.891,167.857,205.836,172.993z"/>
		<path style="fill:#039441;" d="M124.978,139.018c0,8.994,0,17.989-0.001,26.983c-5.788,0.472-11.258-1.744-16.96-1.997
			c-1.088-0.698-2.121-1.503-3.271-2.077c-7.126-3.557-12.883-8.01-11.87-17.201c0.059-0.531-0.525-1.133-0.809-1.702
			c0.265-8.692,0.53-17.384,0.796-26.076c6.747,4.297,12.056,10.224,17.393,16.003C114.393,137.433,118.846,139.952,124.978,139.018
			z"/>
		<path style="fill:#02672A;" d="M92.066,143.025c0.285,0.569,0.868,1.171,0.809,1.702c-1.013,9.191,4.744,13.644,11.87,17.201
			c1.149,0.574,2.183,1.379,3.271,2.077c-8.281,2.186-16.798,0.756-25.209,1.591c-11.98,1.189-23.981,2.361-35.987,3.378
			c-0.055-0.157-0.146-0.311-0.159-0.471c-1.108-13.936-1.113-13.958,12.122-17.262C69.87,148.472,80.971,145.761,92.066,143.025z"
			/>
		<path style="fill:#07692C;" d="M124.978,139.018c-6.132,0.933-10.585-1.586-14.723-6.067
			c-5.337-5.779-10.645-11.706-17.393-16.003c-0.616-2.279-0.565-4.566-0.085-6.857c0.34-0.021,0.68-0.043,1.02-0.064
			c6.456,6.423,12.693,13.088,19.432,19.199c6.098,5.53,19.184,4.185,25.008-1.788c5.635-5.778,10.321-12.458,16.692-17.531
			c-0.029,2.035-0.058,4.07-0.087,6.106c-5.498,4.379-9.805,9.983-14.155,15.327C136.347,136.67,131.633,139.342,124.978,139.018z"
			/>
		<path style="fill:#1E9E52;" d="M93.797,110.027c-0.34,0.022-0.68,0.043-1.02,0.064c-3.99-4.151-5.641-9.06-5.577-14.85
			c0.07-6.418-0.448-12.842-0.71-19.263c6.11,2.495,11.885,5.793,18.269,7.631c3.029,0.872,6.087,1.58,9.268,1.546
			c0.707,0.31,1.414,0.619,2.12,0.929c-0.001,0-0.102,0.127-0.102,0.127c-6.175,2.8-12.701,2.682-19.007,1.25
			c-3.712-0.843-4.289,0.655-4.709,3.378C91.325,97.348,92.014,103.729,93.797,110.027z"/>
		<path style="fill:#0F9A43;" d="M116.045,86.21c0,0,0.1-0.128,0.102-0.127c4.418-0.533,3.155-4.366,3.754-6.89
			c0.687-2.893,0.734-5.909,4.095-7.187c0.015,8.205,0.03,16.41,0.045,24.615c-4.438-0.294-7.109-2.836-7.153-6.8
			C116.873,88.555,117.521,87.134,116.045,86.21z"/>
		<path style="fill:#DF8365;" d="M110.99,102.544c7.651,1.216,15.253,1.829,22.915,1.843
			C125.923,107.462,118.371,105.338,110.99,102.544z"/>
		<path style="fill:#F3BE9A;" d="M130.758,87.232c-0.153-0.234-0.306-0.468-0.459-0.702c0.393-0.039,0.786-0.077,1.18-0.119
			C131.24,86.683,130.999,86.958,130.758,87.232z"/>
		<path style="fill:#FEFBF7;" d="M87.908,61.988c7.237-0.672,14.24,1.02,21.311,2.067c2.116,0.313,2.693,1.487,2.663,3.439
			c-0.054,3.497,0.044,6.996,0.078,10.494C101.103,76.923,93.303,71.264,87.908,61.988z"/>
		<path style="fill:#FC7A3A;" d="M87.908,61.988c5.395,9.276,13.195,14.936,24.052,16c0.228,2.48-0.863,3.354-3.274,2.783
			c-8.599-2.039-15.545-6.687-20.801-13.685C87.02,65.933,84.472,63.629,87.908,61.988z"/>
		<path style="fill:#FEFBF7;" d="M136.984,78.085c-0.389-13.496-0.391-13.51,12.595-15.636c3.766-0.616,7.561-0.803,11.371-0.43
			C155.492,71.149,147.693,76.788,136.984,78.085z"/>
		<path style="fill:#FC7A3A;" d="M136.984,78.085c10.709-1.297,18.508-6.935,23.966-16.066c2.169,1.849,0.86,3.794-0.212,5.311
			c-5.121,7.255-12.312,11.462-20.844,13.51C137.621,81.386,136.877,80.143,136.984,78.085z"/>
	</g>
</g>
</svg>
