<?xml version="1.0" encoding="iso-8859-1"?>
<!-- Generator: Adobe Illustrator 23.0.3, SVG Export Plug-In . SVG Version: 6.00 Build 0)  -->
<svg version="1.1" id="Layer_1" xmlns="http://www.w3.org/2000/svg" xmlns:xlink="http://www.w3.org/1999/xlink" x="0px" y="0px"
	 viewBox="0 0 250 250" style="enable-background:new 0 0 250 250;" xml:space="preserve">
<g>
	<g>
		<path style="fill:none;" d="M124,251c-41,0-82,0-123,0C1,167.667,1,84.333,1,1c82,0,164,0.027,246-0.096
			c3.424-0.005,4.101,0.672,4.096,4.096c-0.124,80.666-0.124,161.333,0,242c0.005,3.424-0.67,4.111-4.096,4.099
			C206.334,250.946,165.667,251,125,251c0.383-0.52,0.682-1.14,1.162-1.545c22.124-18.637,44.126-37.424,66.504-55.751
			c5.346-4.378,8.489-8.729,7.423-15.82c-0.514-3.416-0.478-7.027,0-10.453c0.768-5.496-1.252-8.103-6.777-8.018
			c-6.104-1.477-12.208-2.954-18.311-4.432c-0.034-0.436-0.068-0.872-0.101-1.307c9.412,0.358,18.303-1.492,27.579-6.426
			c-2.272-0.178-3.515-0.233-4.747-0.378c-23.722-2.791-29.574-19.303-27.184-37.409c0.895-6.782,3.284-13.468,3.41-20.486
			c2.29-5.626,3.968-11.296,1.214-17.277c0.684-5.566,1.206-11.133,0.137-16.713c-0.625-9.921,1.174-19.769,1.345-30.33
			c-2.141,3.089-3.827,5.524-5.514,7.958c-3.668-10.392-11.078-17.149-20.943-21.496c-7.099-3.128-14.646-4.276-22.299-4.854
			c-24.26-1.833-42.355,8.255-50.885,28.323c-2.655-2.68-3.966-6.246-6.111-9.263c-0.112-0.23-0.224-0.459-0.336-0.689
			c-0.154,0.315-0.308,0.631-0.462,0.946c1.354,15.158,2.708,30.316,4.062,45.474c-4.012,7.121-1.267,13.573,1.977,19.976
			c-1.218,12.383-5.04,23.935-11.395,34.6c-2.574,4.321-5.857,8.073-11.026,9.507c-1.079,0.095-2.158,0.19-3.237,0.285
			c0.385,1.047,1.232,1.392,2.248,1.481c9.369,3.458,18.633,5.409,27.246-1.912c0.364,0.387,0.728,0.775,1.092,1.162
			c-4.25,11.701-14.145,16.198-25.684,19.238c2.747,1.011,4.742,1.746,6.738,2.48c-2.356,0.791-4.712,1.583-7.068,2.374
			c-2.919-0.021-2.944,1.944-2.927,4.093c0.05,6.657,0.229,13.324-0.069,19.968c-0.153,3.411,1.181,5.477,3.641,7.562
			c11.168,9.462,22.169,19.122,33.287,28.643c11.61,9.942,23.287,19.807,34.934,29.705C123.893,250.484,123.918,250.745,124,251z"/>
		<path style="fill:#FBA220;" d="M55.058,160.246c2.356-0.791,4.712-1.583,7.065-2.376c9.799-1.21,19.07-4.751,28.737-6.539
			c8.423,10.832,18.764,18.244,33.087,18.555c0.352,0.059,0.703,0.118,1.055,0.176c-0.008,7.285-0.024,7.221,6.771,5.538
			c18.443-4.569,36.91-9.041,55.339-13.661c2.136-0.535,4.737-0.228,6.2-2.526c5.525-0.085,7.544,2.522,6.777,8.018
			c-0.479,3.426-0.514,7.038,0,10.453c1.067,7.092-2.077,11.442-7.423,15.82c-22.378,18.327-44.38,37.114-66.504,55.751
			c-0.48,0.405-0.779,1.025-1.162,1.545c-0.333,0-0.667,0-1,0c-0.082-0.255-0.107-0.516-0.076-0.783
			c0.026-21.456,0.055-42.913,0.077-64.369c0.009-8.808,0.001-8.806-8.777-10.968c-1.124-0.277-2.233-0.619-3.358-0.891
			C92.931,169.405,73.994,164.826,55.058,160.246z"/>
		<path style="fill:#FAA120;" d="M77.014,34.586c8.53-20.068,26.624-30.156,50.885-28.323c7.653,0.578,15.2,1.726,22.299,4.854
			c9.865,4.347,17.274,11.103,20.942,21.495c-1.152,1.806-2.261,3.641-3.464,5.413c-6.179,9.1-15.546,14.449-24.446,20.185
			c-13.553,8.735-15.852,21.681-11.509,35.212c-2.256-0.327-3.685-2.026-5.416-3.223c-1.083-0.749-2.103-1.136-2.332,0.773
			c-3.662,0.054-5.611,2.859-7.989,4.975c-0.647,0.057-1.294,0.113-1.941,0.17c-0.013-0.321-0.011-0.641,0.006-0.962
			c6.405-12.182,3.413-26.361-7.498-34.611c-4.882-3.691-10.024-7.04-15.045-10.548C85.6,45.87,80.674,40.822,77.014,34.586z"/>
		<path style="fill:#FBBD19;" d="M55.058,160.246c18.936,4.58,37.873,9.159,56.808,13.743c1.125,0.272,2.234,0.614,3.358,0.891
			c8.778,2.162,8.786,2.159,8.777,10.968c-0.022,21.456-0.051,42.912-0.077,64.369c-11.648-9.898-23.324-19.763-34.934-29.705
			c-11.119-9.521-22.119-19.181-33.287-28.643c-2.46-2.085-3.795-4.151-3.641-7.562c0.299-6.644,0.12-13.311,0.069-19.968
			C52.114,162.19,52.139,160.225,55.058,160.246z"/>
		<path style="fill:#402213;" d="M90.863,151.329c-9.669,1.79-18.94,5.332-28.739,6.541c-1.993-0.733-3.988-1.467-6.735-2.479
			c11.539-3.041,21.434-7.537,25.684-19.238c1.161-0.842,0.964-2.224,1.332-3.37c0.698-0.054,0.504-0.558,0.399-0.941
			c-0.034-0.123-0.357-0.168-0.548-0.248c-0.044,0.403-0.087,0.805-0.131,1.208c-1.137,0.316-1.655,1.238-2.144,2.189
			c-8.613,7.321-17.876,5.37-27.242,1.913c0.331-0.588,0.658-1.178,0.985-1.767c5.169-1.434,8.452-5.186,11.026-9.507
			c6.355-10.665,10.177-22.217,11.395-34.599c2.896,2.372,5.355,5.562,9.717,5.188c0.985,8.961,4.608,16.421,11.992,21.948
			c2.623,1.963,4.832,4.479,7.23,6.742c-0.091,1.931-0.183,3.863-0.274,5.794C102.378,139.078,98.814,146.687,90.863,151.329z"/>
		<path style="fill:#4B3C84;" d="M77.014,34.586c3.661,6.236,8.586,11.284,14.491,15.409c5.021,3.508,10.163,6.856,15.045,10.548
			c10.911,8.25,13.904,22.429,7.498,34.611c-1.894,0.904-3.786,0.657-5.791,0.272c-8.202-1.574-15.568-5.307-23.068-8.707
			c-6.616-3.151-9.344-9.039-11.023-15.664c-1.354-15.158-2.708-30.316-4.062-45.467c0.281-0.039,0.547-0.129,0.797-0.264
			C73.048,28.34,74.359,31.906,77.014,34.586z M110.276,88.698c0.068-3.626,0.151-7.253,0.196-10.879
			c0.019-1.484,0.168-3.237-1.8-3.554c-7.592-1.222-15.111-3.29-22.927-2.241c-2.804,0.721-1.544,2.425-0.798,3.79
			c5.147,9.42,13.831,13.688,23.77,15.892C111.604,92.346,111.097,90.411,110.276,88.698z"/>
		<path style="fill:#402213;" d="M173.958,88.974c-0.126,7.018-2.515,13.705-3.41,20.486c-2.39,18.106,3.462,34.618,27.184,37.409
			c1.232,0.145,2.475,0.2,4.747,0.378c-9.276,4.933-18.167,6.783-27.577,6.426c-3.26-0.826-6.523-1.653-9.787-2.48
			c-3.489-1.434-6.643-3.42-9.722-5.587c-1.047-0.737-1.591-2.881-3.593-1.754c-3.6-4.383-3.888-9.997-5.605-15.08
			c-0.114-1.953-0.228-3.907-0.342-5.861c3.451-3.766,6.684-7.768,10.415-11.232c3.778-3.508,5.61-7.61,5.733-12.633
			c0.364-0.972,0.729-1.944,1.093-2.916C168.544,96.522,170.891,92.202,173.958,88.974z"/>
		<path style="fill:#4B3C84;" d="M131.725,93.428c-4.347-13.538-2.048-26.483,11.505-35.218
			c8.899-5.736,18.267-11.085,24.446-20.185c1.203-1.772,2.311-3.607,3.464-5.413c1.687-2.434,3.374-4.868,5.515-7.958
			c-0.171,10.561-1.97,20.41-1.345,30.332c-2.804,4.732-1.683,10.262-3.11,15.272c-0.683,5.701-2.037,11.068-7.241,14.515
			c-9.234,4.915-18.59,9.515-29.049,11.274C134.027,95.953,132.604,95.125,131.725,93.428z M136.121,88.576
			c-0.015,1.638-0.47,3.744,2.339,3.101c9.89-2.263,18.482-6.532,23.602-15.883c0.77-1.406,1.963-3.133-0.897-3.778
			c-3.428-1.181-6.872-0.166-10.239,0.176C136.156,73.691,136.166,73.787,136.121,88.576z"/>
		<path style="fill:#E88E17;" d="M193.313,159.412c-1.463,2.298-4.065,1.991-6.2,2.526c-18.43,4.621-36.896,9.093-55.339,13.661
			c-6.795,1.683-6.779,1.747-6.771-5.538c2.267-0.386,4.601-0.545,6.789-1.197c10.347-3.08,19.243-8.305,25.224-17.658
			c2.653,0.457,5.307,0.913,7.96,1.37c3.156,1.575,6.591,1.988,10.026,2.403C181.105,156.458,187.209,157.935,193.313,159.412z"/>
		<path style="fill:#F59D75;" d="M164.958,84.774c5.204-3.446,6.558-8.813,7.238-14.511c0.99,0.481,1.983,0.958,2.975,1.435
			c2.754,5.981,1.076,11.65-1.214,17.277c-3.066,3.228-5.413,7.548-10.865,7.155C163.714,92.345,164.336,88.559,164.958,84.774z"/>
		<path style="fill:#F59D75;" d="M74.168,71.054c1.679,6.626,4.407,12.513,11.023,15.665c0,0.001-0.211,0.352-0.211,0.352
			c-0.754,0.377-0.603,0.67,0.085,0.913l-0.006-0.069c-0.486,2.841,0.374,5.551,0.803,8.304c-4.362,0.374-6.82-2.816-9.717-5.188
			C72.901,84.627,70.155,78.175,74.168,71.054z"/>
		<path style="fill:#402213;" d="M175.171,71.698c-0.992-0.477-1.985-0.954-2.975-1.435c1.43-5.014,0.309-10.544,3.113-15.276
			C176.378,60.565,175.855,66.132,175.171,71.698z"/>
		<path style="fill:#F6BD99;" d="M175.001,154.98c-3.434-0.415-6.869-0.828-10.026-2.403c0.047-0.461,0.094-0.922,0.141-1.383
			c3.262,0.826,6.524,1.653,9.785,2.479C174.934,154.109,174.968,154.545,175.001,154.98z"/>
		<path style="fill:#B9583F;" d="M53.723,135.137c-0.327,0.589-0.654,1.178-0.985,1.767c-1.02-0.09-1.867-0.435-2.252-1.481
			C51.566,135.327,52.645,135.232,53.723,135.137z"/>
		<path style="fill:#F4F3F7;" d="M79.981,134.991c0.488-0.951,1.006-1.874,2.144-2.189l0.291-0.026
			c-0.379,1.153-0.182,2.535-1.343,3.377C80.708,135.766,80.345,135.378,79.981,134.991z"/>
		<path style="fill:#F6BD99;" d="M70.902,25.323c-0.251,0.135-0.516,0.225-0.797,0.264c0.154-0.322,0.308-0.638,0.462-0.953
			C70.679,24.864,70.791,25.094,70.902,25.323z"/>
		<path style="fill:#F59D75;" d="M157.015,151.207c-5.98,9.352-14.876,14.577-25.224,17.658c-2.188,0.651-4.522,0.81-6.789,1.197
			c-0.352-0.058-0.703-0.117-1.054-0.175c0.019-8.963,0.037-17.926,0.055-26.89c6.067,0.024,11.043-2.241,15.199-6.718
			c2.325-2.505,3.977-5.65,6.993-7.507c1.717,5.083,2.005,10.697,5.605,15.08C152.685,146.908,154.954,148.984,157.015,151.207z"/>
		<path style="fill:#F6BD99;" d="M124.004,142.996c-0.018,8.964-0.037,17.927-0.055,26.89c-14.323-0.311-24.665-7.723-33.088-18.555
			c7.953-4.644,11.517-12.253,13.949-20.628C110.679,135.627,115.802,141.715,124.004,142.996z"/>
		<path style="fill:#F6BD99;" d="M85.861,96.219c-0.429-2.752-1.289-5.463-0.803-8.303c4.438,2.814,8.434,6.354,13.426,8.255
			c5.184,1.974,10.385,3.221,15.559-0.056c0.647-0.057,1.294-0.113,1.941-0.169c-0.715,3.764,2.071,5.631,4.253,7.81
			c4.533,4.526,6.423,4.081,9.194-2.133c-5.417,1.156-5.414,1.156-5.423-4.716c-0.003-1.979-0.023-3.957-0.035-5.936
			c0.229-1.909,1.25-1.521,2.332-0.773c1.732,1.197,3.161,2.896,5.416,3.223c0.882,1.703,2.306,2.531,4.188,2.626
			c8.22,5.153,17.101,4.555,26.091,2.997c-0.123,5.023-1.955,9.125-5.733,12.633c-3.731,3.465-6.964,7.466-10.415,11.232
			c-2.309,2.384-4.743,4.66-6.902,7.173c-6.259,7.286-17.749,8.373-25.138,2.237c-2.936-2.439-5.821-4.939-8.729-7.412
			c-2.398-2.263-4.607-4.779-7.23-6.742C90.469,112.64,86.846,105.18,85.861,96.219z M124.129,111.299
			c-4.426-2.081-8.641-0.566-12.867,0.753c3.845,3.491,6.399,8.905,12.801,8.581c1.973,0.288,3.883,0.596,5.578-1.031
			c2.382-2.287,4.904-4.428,7.366-6.632c0.22-0.249,0.44-0.498,0.661-0.747c-0.211-0.121-0.423-0.242-0.634-0.364
			c-0.632-0.15-1.265-0.301-1.898-0.448C131.473,110.712,127.817,109.421,124.129,111.299z"/>
		<path style="fill:#F59D75;" d="M123.973,90.971c0.012,1.979,0.032,3.957,0.035,5.936c0.009,5.871,0.006,5.871,5.423,4.716
			c-2.771,6.215-4.661,6.66-9.194,2.133c-2.182-2.179-4.968-4.046-4.253-7.81C118.362,93.83,120.311,91.025,123.973,90.971z"/>
		<path style="fill:#F79F22;" d="M114.043,96.115c-5.174,3.277-10.375,2.03-15.559,0.056c-4.992-1.901-8.988-5.441-13.426-8.255
			c0-0.001,0.006,0.068,0.006,0.068c0.04-0.311,0.012-0.615-0.085-0.912c0,0,0.211-0.351,0.211-0.352
			c7.5,3.399,14.865,7.132,23.068,8.706c2.005,0.385,3.896,0.631,5.791-0.272C114.032,95.474,114.03,95.795,114.043,96.115z"/>
		<path style="fill:#B9583F;" d="M105.083,124.909c2.908,2.472,5.793,4.973,8.729,7.412c7.389,6.137,18.879,5.05,25.138-2.237
			c2.159-2.513,4.593-4.789,6.902-7.173c0.114,1.954,0.228,3.908,0.342,5.861c-3.015,1.857-4.667,5.002-6.992,7.507
			c-4.156,4.477-9.132,6.742-15.199,6.718c-8.201-1.282-13.325-7.37-19.194-12.293C104.901,128.772,104.992,126.84,105.083,124.909z
			"/>
		<path style="fill:#F59D75;" d="M82.124,132.802c0.044-0.403,0.087-0.805,0.131-1.208c0.191,0.08,0.514,0.125,0.548,0.248
			c0.105,0.383,0.299,0.886-0.399,0.941C82.415,132.776,82.124,132.802,82.124,132.802z"/>
		<path style="fill:#F4F3F7;" d="M85.745,72.024c7.816-1.049,15.335,1.019,22.927,2.241c1.969,0.317,1.819,2.07,1.8,3.554
			c-0.046,3.627-0.129,7.253-0.196,10.879C99.569,86.861,91.16,81.644,85.745,72.024z"/>
		<path style="fill:#432D7A;" d="M85.745,72.024c5.416,9.62,13.825,14.838,24.531,16.674c0.822,1.713,1.328,3.648-1.56,3.008
			c-9.939-2.204-18.623-6.472-23.77-15.892C84.201,74.449,82.941,72.745,85.745,72.024z"/>
		<path style="fill:#F79F22;" d="M162,99.046c-8.99,1.557-17.871,2.156-26.091-2.997c10.458-1.759,19.814-6.36,29.048-11.274
			c-0.622,3.785-1.244,7.57-1.865,11.356C162.729,97.102,162.365,98.074,162,99.046z"/>
		<path style="fill:#F4F3F7;" d="M157.015,151.207c-2.061-2.223-4.33-4.299-5.215-7.356c2.002-1.126,2.546,1.018,3.593,1.755
			c3.079,2.167,6.233,4.153,9.722,5.587c-0.045,0.462-0.092,0.923-0.139,1.384C162.322,152.12,159.669,151.664,157.015,151.207z"/>
		<path style="fill:#F4F3F7;" d="M136.121,88.576c0.045-14.789,0.035-14.885,14.806-16.383c3.367-0.342,6.811-1.357,10.239-0.176
			C155.47,81.548,147.309,87.35,136.121,88.576z"/>
		<path style="fill:#432D7A;" d="M136.121,88.576c11.187-1.226,19.349-7.028,25.045-16.559c2.86,0.645,1.666,2.372,0.897,3.778
			c-5.12,9.351-13.711,13.62-23.602,15.883C135.651,92.32,136.107,90.215,136.121,88.576z"/>
		<path style="fill:#F6BD99;" d="M84.979,87.071c0.097,0.298,0.125,0.602,0.085,0.912C84.376,87.741,84.224,87.448,84.979,87.071z"
			/>
		<path style="fill:#8A1B22;" d="M137.006,112.97c-2.462,2.204-4.984,4.345-7.366,6.632c-1.695,1.628-3.604,1.319-5.578,1.031
			c-0.019-2.193-0.039-4.386-0.058-6.579l0.049-0.049c3.895-0.006,7.795,0.006,11.082-2.597c0.632,0.15,1.265,0.301,1.897,0.452
			C137.024,112.23,137.015,112.6,137.006,112.97z"/>
		<path style="fill:#A9292B;" d="M124.004,114.054c0.019,2.193,0.038,4.386,0.058,6.579c-6.402,0.324-8.956-5.091-12.802-8.581
			C115.543,112.495,119.582,114.497,124.004,114.054z"/>
		<path style="fill:#EA2F32;" d="M124.004,114.054c-4.423,0.443-8.461-1.558-12.744-2.002c4.228-1.318,8.443-2.833,12.867-0.753
			c-0.025,0.902-0.05,1.804-0.074,2.706L124.004,114.054z"/>
		<path style="fill:#A9292B;" d="M124.054,114.005c0.024-0.902,0.049-1.805,0.074-2.706c3.689-1.877,7.345-0.586,11.008,0.111
			C131.849,114.011,127.949,113.999,124.054,114.005z"/>
		<path style="fill:#A9292B;" d="M137.006,112.97c0.009-0.37,0.018-0.74,0.027-1.11c0.211,0.121,0.423,0.242,0.634,0.363
			C137.446,112.472,137.226,112.721,137.006,112.97z"/>
	</g>
</g>
</svg>
