<?xml version="1.0" encoding="iso-8859-1"?>
<!-- Generator: Adobe Illustrator 23.0.3, SVG Export Plug-In . SVG Version: 6.00 Build 0)  -->
<svg version="1.1" id="Layer_1" xmlns="http://www.w3.org/2000/svg" xmlns:xlink="http://www.w3.org/1999/xlink" x="0px" y="0px"
	 viewBox="0 0 250 250" style="enable-background:new 0 0 250 250;" xml:space="preserve">
<g>
	<g>
		<path style="fill:none;" d="M124,251c-41,0-82,0-123,0C1,167.667,1,84.333,1,1c82,0,164,0.027,246-0.096
			c3.424-0.005,4.101,0.672,4.096,4.096c-0.124,80.666-0.124,161.333,0,242c0.005,3.424-0.67,4.112-4.096,4.099
			C206.667,250.945,166.333,251,126,251c-0.059-0.322-0.061-0.645-0.005-0.968c0.8-0.579,1.64-1.109,2.393-1.743
			c24.302-20.444,48.495-41.018,72.98-61.239c4.431-3.659,6.428-7.317,5.909-13.027c-0.509-5.61-0.315-11.313-0.031-16.955
			c0.157-3.123-0.98-4.323-3.892-4.969c-15.722-3.488-31.41-7.132-47.109-10.721c-0.14-8.796-0.279-17.592-0.419-26.388
			c0.027-2.301,0.055-4.602,0.082-6.904c5.327-5.739,6.856-12.608,6.004-20.186c0.75-10.285,1.501-20.57,2.251-30.855
			c4.202-1.477,8.449-2.842,12.59-4.475c2.203-0.869,3.197-1.853,2.651-5.161c-0.464-2.812-2.681-8.049,3.054-9.745
			c0.757-0.224,1.339-1.021,1.135-1.983c-0.194-0.912-0.922-1.406-1.749-1.532c-1.642-0.25-3.255,0.09-4.901,0.288
			c-4.801,0.577-8.189,4.2-12.615,5.503c-0.054-4.479-0.398-8.979-0.08-13.432c0.3-4.2-1.199-7.302-4.039-10.175
			c-9.703-9.815-21.645-13.672-35.156-13.514c-2.802-0.726-5.606-0.041-8.351,0.243c-10.358,1.072-19.567,4.798-26.886,12.51
			c-3.331,3.509-5.311,7.261-4.55,12.48c0.712,4.881,0.414,9.91,0.56,14.874c-5.456-4.727-11.322-8.597-18.856-8.901
			c-1.132-0.046-2.473-0.149-2.766,1.403c-0.211,1.12,0.489,2.065,1.444,2.352c5.807,1.748,2.974,6.962,2.798,9.769
			c-0.215,3.417,0.743,4.536,3.162,5.43c4.797,1.773,9.668,3.344,14.509,4.998c0.237,1.959,0.569,3.912,0.695,5.878
			c0.472,7.399-0.23,14.858,1.136,22.213c0.095,7.742-1.477,15.875,5.171,22.082c0.016,2.277,0.033,4.554,0.049,6.83
			c-0.097,8.887-0.195,17.774-0.292,26.661c-14.507,3.579-29.015,7.157-43.521,10.737c-1.67,0.412-3.09,0.862-2.933,3.183
			c0.279,4.133,0.283,8.285,0.401,12.429c-0.124,3.145-0.033,6.318-0.425,9.429c-0.559,4.443,1.266,7.324,4.624,10.15
			c13.867,11.671,27.533,23.581,41.207,35.479C102.872,232.307,113.414,241.678,124,251z"/>
		<path style="fill:#E31E35;" d="M92.878,141.641c0.097-8.887,0.195-17.774,0.292-26.661c4.745,3.372,8.802,7.503,12.901,11.598
			c5.254,5.248,9.685,11.944,18.601,11.077c0.109-0.011,0.241,0.211,0.362,0.325c-0.008,5.131-0.198,10.27,0.036,15.39
			c0.177,3.875-1.112,7.892,0.902,11.626c0.007,28.346,0.015,56.691,0.022,85.037c-0.056,0.323-0.054,0.645,0.005,0.968
			c-0.667,0-1.333,0-2,0c-10.586-9.322-21.128-18.693-31.769-27.952c-13.674-11.898-27.341-23.808-41.207-35.479
			c-3.357-2.826-5.183-5.707-4.624-10.15c0.392-3.112,0.3-6.284,0.425-9.429c20.247-3.228,40.773-3.46,62.668-5.348
			C98.766,158.433,91.884,152.909,92.878,141.641z"/>
		<path style="fill:#B51030;" d="M125.995,250.032c-0.007-28.346-0.015-56.691-0.022-85.036c2.867,0.511,5.516-0.746,8.288-1.047
			c13.749-1.491,20.938-8.951,21.985-22.572c15.699,3.59,31.387,7.234,47.109,10.721c2.912,0.646,4.049,1.847,3.892,4.969
			c-0.284,5.642-0.479,11.345,0.031,16.955c0.519,5.71-1.479,9.368-5.909,13.027c-24.485,20.221-48.679,40.795-72.98,61.239
			C127.634,248.923,126.794,249.454,125.995,250.032z"/>
		<path style="fill:#E31F35;" d="M85.829,42.925c-0.146-4.964,0.151-9.992-0.56-14.874c-0.761-5.219,1.219-8.971,4.55-12.48
			c7.319-7.712,16.528-11.437,26.886-12.51c2.744-0.284,5.548-0.969,8.351-0.243c-0.018,20.394-0.035,40.789-0.053,61.183
			c0.005,5.971,0.011,11.943,0.016,17.914c-2.356,0.413-4.713,0.826-7.069,1.239c-6.265,0.997-12.658,1.793-18.728-0.275
			c-4.846-1.651-8.275-0.573-11.272,3.187c-1.365-7.355-0.663-14.814-1.135-22.213c-0.125-1.966-0.457-3.919-0.695-5.878
			C86.022,52.959,85.926,47.942,85.829,42.925z M106.394,76.14c3.888-0.046,8.089-0.227,10.141-3.93
			c2.027-3.659,0.279-7.463-1.893-10.712c-3.598-5.382-13.193-8.049-19.238-5.6c-3.453,1.399-4.7,3.883-4.194,7.485
			C92.318,71.258,98.02,76.074,106.394,76.14z"/>
		<path style="fill:#C61B34;" d="M125.002,64.002c0.018-20.394,0.035-40.789,0.053-61.183c13.511-0.159,25.452,3.699,35.156,13.514
			c2.84,2.872,4.339,5.975,4.039,10.175c-0.318,4.453,0.025,8.953,0.08,13.431c-0.055,5.702-0.11,11.404-0.165,17.106
			c-0.75,10.285-1.501,20.57-2.251,30.855c-2.562-1.069-3.55-5.122-7.443-3.733c-7.816,2.789-15.653,1.591-23.47-0.106
			c-0.034-0.272-0.063-0.544-0.085-0.817C129.678,76.605,129.57,69.618,125.002,64.002z M142.973,75.986
			c7.178,0.102,12.37-3.199,14.476-9.098c2.764-7.742-0.912-12.645-9.024-11.83c-6.117,0.614-11.064,3.431-14.313,8.752
			c-4.046,6.626-1.804,11.19,5.876,12.16C140.969,76.093,141.978,75.986,142.973,75.986z"/>
		<path style="fill:#F5BE9B;" d="M131.001,84.061c7.817,1.697,15.655,2.894,23.47,0.106c3.893-1.389,4.88,2.664,7.443,3.733
			c0.852,7.577-0.677,14.446-6.004,20.186c-5.855,4.951-10.537,11.02-15.662,16.651c-7.773,8.542-20.389,9.098-28.761,0.973
			c-6.078-5.899-12.241-11.71-18.366-17.561c-6.649-6.207-5.076-14.34-5.171-22.082c2.996-3.759,6.425-4.838,11.271-3.187
			c6.07,2.069,12.463,1.272,18.728,0.275c-0.017,1.164,0.101,2.348-0.074,3.488c-0.829,5.405,1.344,7.957,7.164,8.294
			c1.895,0.234,3.147-0.523,4.698-1.793C133.223,90.289,130.686,87.071,131.001,84.061z M113.903,101.02
			c6.305,3.821,13.085,2.91,19.857,2.147C127.14,102.451,120.522,101.735,113.903,101.02z M110.666,100.384
			c0.029,0.112,0.023,0.277,0.094,0.323c0.113,0.072,0.278,0.064,0.42,0.09c-0.04-0.186-0.08-0.371-0.121-0.557
			C110.929,100.287,110.797,100.335,110.666,100.384z"/>
		<path style="fill:#C61A33;" d="M156.246,141.377c-1.047,13.621-8.236,21.081-21.985,22.572c-2.772,0.301-5.422,1.558-8.288,1.047
			c-2.015-3.734-0.725-7.751-0.902-11.626c-0.234-5.12-0.044-10.259-0.037-15.389c7.224-0.07,12.962-3.048,17.293-8.808
			c3.949-5.251,8.481-9.95,13.501-14.183C155.967,123.785,156.106,132.581,156.246,141.377z"/>
		<path style="fill:#B51030;" d="M92.878,141.641c-0.995,11.268,5.888,16.792,16.615,21c-21.896,1.888-42.422,2.121-62.668,5.348
			c-0.119-4.144-0.122-8.296-0.401-12.429c-0.157-2.321,1.263-2.771,2.933-3.183C63.864,148.797,78.371,145.219,92.878,141.641z"/>
		<path style="fill:#B61230;" d="M155.827,114.989c-5.019,4.233-9.552,8.932-13.501,14.183c-4.331,5.76-10.069,8.738-17.293,8.808
			c-0.121-0.114-0.252-0.335-0.361-0.325c-8.917,0.866-13.347-5.829-18.601-11.077c-4.1-4.095-8.156-8.226-12.901-11.598
			c-0.016-2.277-0.033-4.554-0.049-6.831c6.125,5.85,12.288,11.661,18.366,17.561c8.371,8.126,20.988,7.569,28.761-0.973
			c5.125-5.632,9.807-11.701,15.662-16.651C155.882,110.387,155.855,112.688,155.827,114.989z"/>
		<path style="fill:#DBD9CE;" d="M85.829,42.925c0.097,5.017,0.194,10.034,0.291,15.051c-4.84-1.654-9.712-3.225-14.508-4.998
			c-2.419-0.894-3.377-2.013-3.162-5.43c0.176-2.807,3.008-8.021-2.798-9.769c-0.955-0.287-1.655-1.232-1.444-2.352
			c0.292-1.552,1.634-1.449,2.766-1.403C74.507,34.328,80.373,38.199,85.829,42.925z"/>
		<path style="fill:#DBD9CE;" d="M164.164,57.045c0.055-5.702,0.11-11.404,0.165-17.106c4.426-1.303,7.814-4.925,12.615-5.502
			c1.645-0.198,3.259-0.538,4.901-0.288c0.827,0.126,1.555,0.62,1.749,1.532c0.204,0.962-0.379,1.759-1.135,1.983
			c-5.734,1.697-3.518,6.933-3.054,9.745c0.546,3.307-0.448,4.292-2.651,5.161C172.613,54.203,168.367,55.568,164.164,57.045z"/>
		<path style="fill:#F2B998;" d="M106.392,76.135c-8.372-0.061-14.075-4.877-15.182-12.751c-0.506-3.602,0.74-6.086,4.194-7.485
			c6.045-2.449,15.64,0.217,19.238,5.6c2.171,3.248,3.92,7.053,1.893,10.712C114.483,75.913,110.282,76.094,106.392,76.135z
			 M101.152,69.016c0.877,0.309,1.753,0.618,2.63,0.928c3.082-0.659,6.865,2.211,9.272-1.843c0.851-0.849,1.584-2.459,0.146-2.555
			c-6.272-0.419-12.168-2.558-18.302-3.523c-0.801-0.126-1.775-0.283-2.055,0.728c-0.278,1.002,0.749,1.282,1.37,1.745
			C93.698,70.344,98.329,68.291,101.152,69.016z"/>
		<path style="fill:#F49C76;" d="M125.04,94.937c-5.821-0.336-7.994-2.888-7.165-8.293c0.175-1.14,0.057-2.324,0.074-3.488
			c2.356-0.413,4.713-0.826,7.069-1.239c0,0-0.094,0.243-0.094,0.243C124.963,86.419,125.001,90.678,125.04,94.937z"/>
		<path style="fill:#B61230;" d="M125.002,64.002c4.568,5.616,4.676,12.603,5.914,19.24c-1.997-0.362-3.995-0.723-5.992-1.083
			c0,0,0.094-0.243,0.094-0.243C125.013,75.945,125.007,69.974,125.002,64.002z"/>
		<path style="fill:#F09874;" d="M142.973,75.986c-0.995,0-2.004,0.107-2.984-0.017c-7.681-0.97-9.923-5.534-5.876-12.16
			c3.249-5.32,8.196-8.137,14.313-8.752c8.112-0.815,11.788,4.089,9.024,11.83C155.344,72.787,150.152,76.088,142.973,75.986z
			 M145.581,69.958c0.947-0.325,1.894-0.65,2.841-0.975c2.525-0.781,7.235,1.752,6.355-4.192c0.558-0.771,2.129-0.576,2.061-1.803
			c-0.082-1.485-1.362-1.102-2.249-0.97c-6.13,0.913-11.997,3.148-18.285,3.41c-1.876,0.078-0.257,1.718-0.26,2.641
			C138.561,72.042,142.377,69.454,145.581,69.958z"/>
		<path style="fill:#E48561;" d="M124.924,82.16c1.998,0.36,3.995,0.721,5.992,1.083c0.022,0.275,0.05,0.547,0.084,0.819
			c-0.314,3.01,2.223,6.227-1.263,9.083c-1.551,1.27-2.803,2.027-4.698,1.793C125.001,90.678,124.963,86.419,124.924,82.16z"/>
		<path style="fill:#E48561;" d="M113.903,101.02c6.619,0.716,13.238,1.432,19.857,2.147
			C126.988,103.93,120.208,104.84,113.903,101.02z"/>
		<path style="fill:#E48561;" d="M110.666,100.384c0.131-0.048,0.262-0.096,0.394-0.145c0.04,0.186,0.08,0.371,0.121,0.557
			c-0.143-0.026-0.307-0.018-0.42-0.09C110.689,100.661,110.695,100.495,110.666,100.384z"/>
		<path style="fill:#513525;" d="M103.781,69.944c-0.877-0.309-1.753-0.618-2.63-0.928c0.136-5.267-4.206-3.658-6.938-4.52
			c-0.622-0.463-1.648-0.743-1.37-1.745c0.28-1.011,1.254-0.854,2.055-0.728c6.134,0.965,12.03,3.105,18.302,3.523
			c1.438,0.096,0.705,1.706-0.147,2.555C109.784,67.821,106.015,65.023,103.781,69.944z"/>
		<path style="fill:#F9F4F1;" d="M94.213,64.496c2.732,0.862,7.074-0.747,6.938,4.52C98.329,68.291,93.698,70.344,94.213,64.496z"/>
		<path style="fill:#F9F4F1;" d="M103.781,69.944c2.234-4.921,6.002-2.123,9.271-1.843
			C110.646,72.155,106.863,69.285,103.781,69.944z"/>
		<path style="fill:#513525;" d="M136.044,68.07c0.003-0.923-1.616-2.563,0.26-2.641c6.288-0.262,12.155-2.497,18.285-3.41
			c0.887-0.132,2.167-0.515,2.249,0.97c0.067,1.227-1.503,1.033-2.059,1.803c-2.945,0.141-6.32-0.365-6.357,4.192
			c-0.947,0.325-1.894,0.65-2.841,0.975C143.328,64.646,139.313,68.24,136.044,68.07z"/>
		<path style="fill:#F9F4F1;" d="M148.422,68.984c0.037-4.557,3.412-4.051,6.357-4.192
			C155.657,70.736,150.946,68.202,148.422,68.984z"/>
		<path style="fill:#F9F4F1;" d="M136.044,68.07c3.27,0.17,7.285-3.424,9.537,1.888C142.377,69.454,138.561,72.042,136.044,68.07z"
			/>
	</g>
</g>
</svg>
