<?xml version="1.0" encoding="iso-8859-1"?>
<!-- Generator: Adobe Illustrator 23.0.3, SVG Export Plug-In . SVG Version: 6.00 Build 0)  -->
<svg version="1.1" id="Layer_1" xmlns="http://www.w3.org/2000/svg" xmlns:xlink="http://www.w3.org/1999/xlink" x="0px" y="0px"
	 viewBox="0 0 250 250" style="enable-background:new 0 0 250 250;" xml:space="preserve">
<g>
	<g>
		<path style="fill:none;" d="M124,251c-41,0-82,0-123,0C1,167.667,1,84.333,1,1c82,0,164,0.027,246-0.096
			c3.424-0.005,4.101,0.672,4.096,4.096c-0.124,80.666-0.124,161.333,0,242c0.005,3.424-0.67,4.111-4.096,4.099
			C206.334,250.946,165.667,251,125,251c0-0.339,0-0.677,0-1.016c1.847-1.382,3.768-2.676,5.529-4.159
			c22.294-18.773,44.393-37.784,66.968-56.213c5.456-4.453,7.906-8.934,6.44-15.647c0.077-4.65,0.002-9.309,0.284-13.946
			c0.193-3.175-0.682-4.544-4.098-5.278c-15.087-3.241-30.086-6.89-45.117-10.391c-0.157-8.498-0.313-16.996-0.47-25.494
			c0.103-1.943,0.206-3.886,0.31-5.829c0.344-0.028,0.687-0.057,1.031-0.085c0.743,4.029,1.485,8.058,2.228,12.087
			c1.782-9.068,2.87-17.989,3.966-26.908c0.158-1.288-0.037-2.906,1.722-3.191c3.72-0.602,2.721-2.752,1.823-4.994
			c-1.051-2.621-2.027-5.272-3.035-7.909c2.007-6.908,4.081-13.799,5.97-20.739c0.424-1.557,2.043-3.985-1.56-4.244
			c0-14.659,0-29.318,0-45.114c-3.941,3.598-6.952,6.346-9.963,9.095c-9.511-6.927-20.014-10.949-31.907-10.909
			c-4.829-0.499-9.492,0.466-14.203,1.374c-7.483,1.442-13.468,5.854-19.857,9.492c-3.475-2.278-5.824-6.006-10.162-8.271
			c0,15.512,0,30.378,0,45.245c-1.277,0.288-2.295-1.374-3.981-0.352c2.254,7.042,4.658,14.04,7.813,20.782
			c0.811,1.733,2.288,3.369,1.539,5.567c-0.958,2.47-1.932,4.933-2.867,7.412c-0.341,0.904-0.967,2.333,0.147,2.635
			c5.493,1.49,3.77,6.177,4.453,9.707c1.354,6.996,1.317,14.232,3.311,21.965c0.703-3.159,1.205-5.416,1.707-7.672
			c0.293,0.014,0.587,0.028,0.881,0.04c0.116,0.247,0.198,0.504,0.248,0.772c-0.063,8.768-0.125,17.536-0.188,26.304
			c-1.301,0.119-2.643,0.074-3.897,0.382c-9.485,2.332-18.958,4.712-28.424,7.117c-13.222,3.36-13.218,3.375-12.478,17.373
			c-0.054,3.49,0.164,7.011-0.237,10.461c-0.44,3.782,1.21,6.001,3.956,8.345c20.105,17.163,40.112,34.442,60.034,51.817
			C116.722,243.934,121.132,246.661,124,251z"/>
		<path style="fill:#0E64A0;" d="M124,251c-2.868-4.339-7.278-7.066-11.085-10.386c-19.922-17.375-39.929-34.654-60.034-51.817
			c-2.746-2.344-4.395-4.563-3.956-8.345c0.401-3.45,0.182-6.971,0.237-10.461c6.247-0.663,12.482-1.491,18.744-1.954
			c13.397-0.99,26.764-2.633,40.244-2.111c0.587,0.023,1.194-0.469,1.792-0.721c4.925,1.332,9.973,1.81,15.039,2.172
			c0.007,27.536,0.014,55.071,0.02,82.607c0,0.339,0,0.677,0,1.016C124.667,251,124.333,251,124,251z"/>
		<path style="fill:#1D75BB;" d="M125,249.984c-0.007-27.536-0.014-55.071-0.02-82.607c0.643-0.188,1.287-0.377,1.93-0.565
			c3.858,0.629,7.425-0.845,11.102-1.53c5.777,1.557,11.773,1.029,17.633,1.486c16.295,1.27,32.345,3.791,48.293,7.197
			c1.466,6.713-0.984,11.194-6.44,15.647c-22.575,18.428-44.674,37.44-66.968,56.213C128.768,247.308,126.847,248.602,125,249.984z"
			/>
		<path style="fill:#E3E5E6;" d="M91.061,20.983c6.389-3.639,12.374-8.051,19.857-9.493c4.711-0.908,9.374-1.873,14.202-1.375
			c-0.064,20.811-0.126,41.623-0.189,62.436c-13.625-1.038-25.415-7.557-37.695-12.613c-0.13-5.324-0.335-10.647-0.371-15.972
			C86.811,36.051,84.532,27.705,91.061,20.983z"/>
		<path style="fill:#BABDBF;" d="M124.931,72.551c0.063-20.812,0.125-41.624,0.189-62.436c11.893-0.039,22.397,3.983,31.908,10.91
			c4.599,4.558,6.534,9.852,5.958,16.502c-0.614,7.089-0.224,14.265-0.272,21.403c-8.829,5.003-18.505,8.115-27.646,12.413
			C131.746,72.906,128.458,73.388,124.931,72.551z"/>
		<path style="fill:#1468A2;" d="M124.931,72.551c3.527,0.837,6.815,0.355,10.137-1.207c9.141-4.299,18.817-7.411,27.647-12.413
			c1.724,0.047,3.15-0.579,4.276-1.886c3.603,0.259,1.984,2.687,1.56,4.244c-1.89,6.94-3.963,13.831-5.97,20.739
			c-2.612,3.744-4.519,8.56-10.626,6.995c-7.451-2.523-14.817-5.244-21.858-8.799c-1.584-0.8-3.331-1.493-5.212-0.79
			c-2.287-0.414-4.524-0.594-6.628,0.77c-5.495,3.565-11.544,6.024-17.488,8.69c-1.318-0.016-2.604,0.067-3.586,1.124
			c-3.339,0.174-6.105-0.685-7.801-3.912c-0.604-1.149-1.658-2.04-3.113-2.152c0.749-2.198-0.729-3.834-1.539-5.567
			c-3.155-6.742-5.56-13.74-7.813-20.782c1.686-1.022,2.704,0.64,3.981,0.352c2.034,0.913,3.893,2.383,6.337,1.982
			C99.516,64.994,111.306,71.514,124.931,72.551z M85.155,65.976c1.971,6.08,4.248,11.148,7.196,15.921
			c0.944,1.529,2.182,2.516,4.131,1.942c5.569-1.64,10.904-3.774,16.244-7.481C103.374,72.835,94.61,69.536,85.155,65.976z
			 M160.49,66.271c-8.626,3.713-16.222,6.982-24.631,10.602c5.558,2.944,10.365,4.613,15.246,6.075
			c1.818,0.545,3.578,0.697,4.529-1.6C157.512,76.811,159.502,72.319,160.49,66.271z"/>
		<path style="fill:#0D5883;" d="M203.937,173.965c-15.947-3.407-31.997-5.928-48.293-7.197c-5.86-0.457-11.856,0.071-17.632-1.486
			c9.892-3.546,17.944-8.584,16.994-20.931c15.031,3.501,30.03,7.15,45.117,10.391c3.415,0.734,4.29,2.103,4.098,5.278
			C203.94,164.656,204.014,169.315,203.937,173.965z"/>
		<path style="fill:#E3E5E6;" d="M126.91,166.811c-0.643,0.188-1.287,0.377-1.93,0.565c-5.065-0.362-10.113-0.841-15.039-2.172
			c-1.651-0.737-3.334-1.412-4.949-2.221c-7.345-3.678-12.286-8.865-11.03-17.865c0.063-8.768,0.125-17.536,0.187-26.303
			c4.963,4.634,10.24,8.982,14.807,13.978c4.958,5.424,10.261,9.287,18.008,8.241C126.946,149.627,126.928,158.219,126.91,166.811z"
			/>
		<path style="fill:#0D5883;" d="M93.962,145.119c-1.255,8.999,3.686,14.186,11.03,17.865c1.615,0.809,3.298,1.484,4.949,2.221
			c-0.598,0.252-1.205,0.744-1.792,0.721c-13.48-0.522-26.847,1.121-40.244,2.111c-6.262,0.463-12.497,1.291-18.744,1.954
			c-0.74-13.998-0.744-14.013,12.478-17.373c9.466-2.405,18.939-4.785,28.424-7.117C91.319,145.193,92.661,145.238,93.962,145.119z"
			/>
		<path style="fill:#BABDBF;" d="M126.91,166.811c0.018-8.592,0.036-17.184,0.055-25.777c5.673-0.166,9.706-2.788,13.338-7.241
			c4.328-5.306,8.899-10.524,14.234-14.938c0.157,8.498,0.313,16.996,0.47,25.494c0.95,12.347-7.102,17.385-16.994,20.931
			C134.335,165.966,130.767,167.44,126.91,166.811z"/>
		<path style="fill:#9C9B9A;" d="M154.537,118.856c-5.335,4.414-9.906,9.632-14.234,14.938c-3.632,4.453-7.665,7.076-13.338,7.241
			c-7.747,1.046-13.05-2.817-18.008-8.241c-4.567-4.996-9.844-9.344-14.807-13.978c-0.049-0.269-0.132-0.526-0.247-0.773
			c0.008-1.341,0.015-2.683,0.022-4.024c0.074-0.37,0.148-0.74,0.222-1.11c2.047,0.23,3.038,1.932,4.316,3.181
			c4.762,4.656,9.378,9.463,14.215,14.038c5.343,5.054,19.371,5.826,24.159,1.147c4.028-3.935,7.516-8.417,11.349-12.558
			c1.976-2.135,3.349-5.031,6.609-5.696l0.052,0.006C154.743,114.97,154.64,116.913,154.537,118.856z"/>
		<path style="fill:#0D5883;" d="M87.236,59.939c-2.444,0.401-4.303-1.069-6.337-1.982c0-14.866,0-29.732,0-45.245
			c4.338,2.264,6.687,5.992,10.162,8.271c-6.529,6.722-4.25,15.068-4.196,22.984C86.901,49.291,87.106,54.615,87.236,59.939z"/>
		<path style="fill:#257ABD;" d="M151.956,89.023c6.107,1.564,8.013-3.252,10.626-6.996c1.008,2.638,1.984,5.288,3.035,7.909
			c0.899,2.241,1.897,4.391-1.823,4.994c-1.759,0.285-1.564,1.903-1.722,3.191c-1.096,8.919-2.185,17.84-3.966,26.908
			c-0.743-4.029-1.485-8.058-2.227-12.086c0.187-0.855,0.102-1.646-0.555-2.299c-1.164-6.849-2.329-13.698-3.493-20.547
			C151.872,89.74,151.914,89.382,151.956,89.023z"/>
		<path style="fill:#257ABD;" d="M94.146,112.908c-0.074,0.37-0.148,0.74-0.222,1.111c-1.147,1.136-0.911,2.585-0.903,3.983
			c-0.502,2.256-1.004,4.513-1.707,7.672c-1.994-7.733-1.957-14.969-3.311-21.965c-0.683-3.53,1.039-8.217-4.453-9.707
			c-1.114-0.302-0.488-1.731-0.147-2.635c0.935-2.478,1.909-4.942,2.867-7.412c1.455,0.112,2.509,1.003,3.113,2.152
			c1.696,3.226,4.462,4.085,7.801,3.912C97.009,97.759,94.092,105.137,94.146,112.908z"/>
		<path style="fill:#0D5883;" d="M166.991,57.045c-1.126,1.307-2.553,1.933-4.276,1.886c0.048-7.138-0.343-14.314,0.271-21.403
			c0.576-6.65-1.359-11.944-5.958-16.502c3.011-2.748,6.022-5.497,9.963-9.095C166.991,27.727,166.991,42.386,166.991,57.045z"/>
		<path style="fill:#E0E1E2;" d="M93.021,118.002c-0.008-1.398-0.243-2.848,0.903-3.983c-0.008,1.341-0.015,2.683-0.023,4.024
			C93.608,118.03,93.314,118.016,93.021,118.002z"/>
		<path style="fill:#BABDBF;" d="M155.323,110.645c0.657,0.653,0.742,1.444,0.555,2.299c-0.344,0.027-0.687,0.055-1.031,0.084
			c-0.001,0-0.053-0.006-0.051-0.006C154.973,112.229,155.148,111.437,155.323,110.645z"/>
		<path style="fill:#F4BF9C;" d="M155.323,110.645c-0.175,0.792-0.35,1.584-0.527,2.376c-3.263,0.665-4.635,3.562-6.612,5.696
			c-3.833,4.141-7.321,8.623-11.349,12.558c-4.789,4.678-18.816,3.907-24.159-1.147c-4.837-4.575-9.453-9.382-14.215-14.038
			c-1.278-1.25-2.269-2.952-4.316-3.181c-0.053-7.772,2.863-15.149,3.038-22.89c0.982-1.057,2.269-1.14,3.587-1.124
			c4.47,1.77,9.01,1.287,13.569,0.455c1.795-0.328,3.7-1.055,3.37,2.242c-0.456,4.562,2.284,7.479,7.22,8.162
			c4.194,0.134,6.086-2.224,6.033-6.09c-0.044-3.258,0.995-3.811,4.172-3.234c5.519,1.002,11.161,1.263,16.694-0.331
			C152.994,96.947,154.158,103.796,155.323,110.645z M133.797,107.474c-7.115,0.163-14.014-1.698-21.056-2.008
			C119.45,109.289,126.709,107.754,133.797,107.474z M109.788,104.598c0.137,0.042,0.275,0.116,0.41,0.111
			c0.048-0.002,0.088-0.194,0.132-0.3c-0.137-0.043-0.275-0.116-0.41-0.112C109.872,104.299,109.832,104.492,109.788,104.598z"/>
		<path style="fill:#F3F7FA;" d="M85.155,65.976c9.455,3.56,18.218,6.86,27.571,10.382c-5.339,3.708-10.675,5.841-16.244,7.481
			c-1.949,0.574-3.187-0.414-4.131-1.942C89.404,77.124,87.126,72.056,85.155,65.976z"/>
		<path style="fill:#B8BCBF;" d="M151.83,90.098c-5.533,1.594-11.176,1.333-16.694,0.331c-3.178-0.577-4.217-0.024-4.172,3.234
			c0.053,3.866-1.839,6.224-6.032,6.093c-0.015-6.772-0.03-13.547-0.045-20.322c1.881-0.702,3.628-0.01,5.212,0.79
			c7.041,3.555,14.407,6.276,21.858,8.799C151.914,89.382,151.872,89.74,151.83,90.098z"/>
		<path style="fill:#E0E1E2;" d="M124.886,79.434c0.015,6.775,0.031,13.55,0.045,20.322c-4.937-0.686-7.677-3.603-7.221-8.164
			c0.33-3.297-1.575-2.57-3.37-2.242c-4.56,0.833-9.1,1.315-13.569-0.455c5.944-2.666,11.993-5.125,17.488-8.69
			C120.361,78.84,122.599,79.02,124.886,79.434z"/>
		<path style="fill:#F3F7FA;" d="M160.49,66.271c-0.989,6.048-2.978,10.541-4.856,15.077c-0.951,2.297-2.711,2.145-4.529,1.6
			c-4.881-1.463-9.688-3.131-15.246-6.075C144.268,73.253,151.864,69.984,160.49,66.271z"/>
		<path style="fill:#DD7C5E;" d="M133.797,107.474c-7.088,0.28-14.346,1.814-21.056-2.008
			C119.783,105.777,126.682,107.637,133.797,107.474z"/>
		<path style="fill:#DD7C5E;" d="M109.788,104.598c0.044-0.106,0.085-0.3,0.132-0.301c0.135-0.005,0.273,0.069,0.41,0.112
			c-0.044,0.106-0.084,0.298-0.132,0.3C110.063,104.714,109.925,104.641,109.788,104.598z"/>
	</g>
</g>
</svg>
