<?xml version="1.0" encoding="iso-8859-1"?>
<!-- Generator: Adobe Illustrator 23.0.3, SVG Export Plug-In . SVG Version: 6.00 Build 0)  -->
<svg version="1.1" id="Layer_1" xmlns="http://www.w3.org/2000/svg" xmlns:xlink="http://www.w3.org/1999/xlink" x="0px" y="0px"
	 viewBox="0 0 250 250" style="enable-background:new 0 0 250 250;" xml:space="preserve">
<g>
	<g>
		<path style="fill:none;" d="M123,251c-40.667,0-81.333,0-122,0C1,167.667,1,84.333,1,1c82,0,164,0.027,246-0.096
			c3.424-0.005,4.101,0.672,4.096,4.096c-0.124,80.666-0.124,161.333,0,242c0.005,3.424-0.67,4.111-4.096,4.099
			C206,250.946,165,251,124,251c0.301-1.631,1.758-2.305,2.809-3.266c24.283-22.2,48.591-44.373,72.901-66.544
			c1.577-1.438,3.445-2.566,3.324-5.192c-0.16-3.478-0.064-6.968-0.078-10.454c0.204-1.802,0.526-3.598,0.591-5.404
			c0.332-9.295,0.303-9.268-8.552-11.291c-10.156-2.32-20.277-4.794-30.458-6.999c-3.747-0.812-6.19-5.206-10.684-3.727
			c-0.601-8.377,0.716-16.808-0.713-25.161c0.025-1.989,0.051-3.979,0.076-5.969c5.841-5.443,6.292-12.478,5.843-19.78
			c10.066-5.214,13.267-17.547,6.558-25.269c1.555-3.65-2.938-3.669-3.597-5.991c0.532-7.297,1.35-14.586,1.54-21.891
			c0.452-17.402,3.742-12.341-12.205-19.45c-3.783-1.686-7.771-2.981-11.763-4.114c-6.419-1.822-12.912-3.127-19.69-2.083
			c-12.066,1.858-23.531,5.838-35.069,9.598c-2.016,0.657-3.046,1.564-2.817,3.88c1.067,10.757,2.015,21.525,3.005,32.288
			c-5.002,3.866-5.002,3.866-2.898,8.789c-3.512-0.11-4.435,2.433-4.952,5.102c-1.32,6.81,3.31,15.577,9.832,18.897
			c0.231,7.479,0.607,14.92,5.554,21.162c0.034,1.502,0.069,3.004,0.104,4.506c-1.196,8.689-0.094,17.432-0.617,26.137
			c-4.993-1.617-7.664,3.353-11.945,4.182c-9.379,1.816-18.579,4.537-27.927,6.542c-3.374,0.724-5.001,1.98-4.368,5.537
			c0.229,1.288,0.171,2.627,0.244,3.943c-0.07,5.817-0.004,11.641-0.267,17.449c-0.126,2.794,0.945,4.641,2.908,6.455
			c11.718,10.833,23.31,21.803,35.028,32.636c12.426,11.486,24.351,23.514,37.298,34.436C123.011,250.304,123.006,250.652,123,251z"
			/>
		<path style="fill:#F95B10;" d="M123,251c0.006-0.348,0.011-0.696,0.017-1.043c-0.007-24.313-0.014-48.626-0.022-72.939
			c7.263-4.951,14.577-9.829,21.759-14.894c2.428-1.712,4.826-2.474,7.83-2.287c16.891,1.052,33.661,3.11,50.372,5.71
			c0.014,3.485-0.082,6.974,0.078,10.452c0.121,2.626-1.747,3.754-3.324,5.192c-24.31,22.17-48.618,44.344-72.901,66.544
			c-1.051,0.961-2.509,1.635-2.809,3.266C123.667,251,123.333,251,123,251z"/>
		<path style="fill:#FE6D20;" d="M122.995,177.018c0.007,24.313,0.014,48.626,0.022,72.939
			c-12.947-10.921-24.872-22.95-37.298-34.436C74,204.688,62.409,193.718,50.691,182.885c-1.963-1.814-3.034-3.661-2.908-6.455
			c0.263-5.809,0.198-11.632,0.267-17.449c13.783-0.448,27.556-1.111,41.357-1.068c4.034,0.013,7.301,0.97,10.567,3.322
			C107.521,166.671,115.306,171.778,122.995,177.018z"/>
		<path style="fill:#FECC1A;" d="M85.022,54.185c-0.99-10.764-1.938-21.533-3.005-32.289c-0.23-2.316,0.801-3.223,2.817-3.88
			c11.538-3.76,23.003-7.74,35.069-9.598c6.777-1.044,13.271,0.261,19.69,2.083c3.991,1.133,7.98,2.428,11.763,4.114
			c15.948,7.11,12.657,2.048,12.205,19.45c-0.19,7.306-1.007,14.595-1.54,21.891c-1.113-1.01-2.225-2.021-3.336-3.03
			c0.515-3.036-0.296-5.485-3.074-7.116c-1.453-0.853-2.662-1.93-2.79-3.781c0.314-1.625,0.618-3.251,0.943-4.873
			c0.658-3.279,0.713-5.435-3.956-4.06c-8.148,2.399-16.59,3.287-25.076,2.83c-3.503-0.189-5.412,1.261-7.267,3.975
			c-2.085,3.05-1.245,6.55-1.697,10.007c-4.555-1.592-7.728-4.515-7.476-8.41c0.416-6.428-3.096-6.667-7.64-6.575
			c-1.477,0.03-3.024-0.075-4.429-0.49c-2.996-0.885-3.523,0.574-3.266,3.042c0.29,2.788,0.558,5.578,0.836,8.367
			c-2.659,1.962-6.71,2.585-6.769,7.045C86.356,53.319,85.689,53.752,85.022,54.185z"/>
		<path style="fill:#4B3C85;" d="M122.995,177.018c-7.689-5.24-15.474-10.347-23.021-15.783c-3.266-2.353-6.533-3.31-10.567-3.322
			c-13.801-0.043-27.574,0.621-41.357,1.068c-0.073-1.316-0.015-2.655-0.244-3.943c-0.633-3.557,0.994-4.813,4.368-5.537
			c9.347-2.005,18.548-4.725,27.927-6.542c4.281-0.829,6.952-5.799,11.944-4.182c1.794,2.607-0.823,6.333,2.4,8.678
			c9.605,6.989,18.548,14.865,28.529,21.356c7.597-4.467,13.97-10.595,21.171-15.598c5.321-3.697,10.757-7.3,9.708-15.088
			c4.495-1.479,6.937,2.915,10.684,3.727c10.18,2.205,20.302,4.678,30.458,6.999c8.855,2.023,8.885,1.996,8.552,11.291
			c-0.065,1.806-0.387,3.602-0.591,5.404c-16.712-2.599-33.482-4.657-50.372-5.709c-3.003-0.187-5.402,0.575-7.83,2.287
			C137.572,167.189,130.258,172.067,122.995,177.018z"/>
		<path style="fill:#F6BF9C;" d="M122.973,168.811c-9.981-6.491-18.924-14.367-28.529-21.356c-3.223-2.345-0.606-6.071-2.4-8.678
			c0.523-8.705-0.579-17.448,0.617-26.137c5.717,5.542,11.586,10.937,17.098,16.676c3.692,3.843,7.901,5.891,13.181,5.837
			C122.952,146.373,122.963,157.592,122.973,168.811z"/>
		<path style="fill:#F59E78;" d="M122.973,168.811c-0.011-11.219-0.022-22.438-0.033-33.657c7.538,0.764,12.811-2.488,17.295-8.495
			c3.727-4.993,8.56-9.161,12.903-13.694c1.429,8.353,0.112,16.784,0.713,25.161c1.049,7.788-4.386,11.391-9.708,15.088
			C136.943,158.215,130.57,164.344,122.973,168.811z"/>
		<path style="fill:#D41216;" d="M158.682,52.925c1.113,1.01,2.226,2.021,3.338,3.031c0.658,2.321,5.151,2.34,3.597,5.99
			c-1.552,2.445-3.104,4.891-4.656,7.337c-1.512,1.175-2.471,2.734-3.12,4.506c-3.056,3.749-5.296,9.362-11.824,5.172
			c-5.655-2.873-11.696-4.549-17.885-5.766c-1.686-0.1-3.372-0.201-5.058-0.301c-0.349-0.138-0.699-0.276-1.048-0.413
			c-0.002-2.157-0.003-4.315-0.005-6.472c1.608-0.331,3.227-0.621,4.823-1.001c10.523-2.509,20.156-6.344,25.144-17.03
			C154.82,48.814,156.291,51.492,158.682,52.925z M144.752,66.995c-1.169,0.043-2.338,0.087-3.507,0.13
			c-2.773-0.253-5.379,0.417-8.223,1.113c6.838,7.222,15.684,6.328,21.532-2.064C151.139,66.101,147.905,65.864,144.752,66.995z"/>
		<path style="fill:#FE2227;" d="M122.02,66.009c0.002,2.157,0.003,4.315,0.005,6.472c-1.018,0.2-2.036,0.401-3.054,0.601
			c-6.312,0.495-12.289,2.177-17.923,5.071c-3.878,3.345-6.688,2.354-8.926-2.003c-0.797-1.552-2.135-2.826-3.225-4.226
			c-0.723-1.47-1.273-3.07-2.86-3.91c-0.95-1.955-1.833-3.962-3.911-5.043c-2.105-4.922-2.105-4.922,2.897-8.788
			c0.667-0.432,1.333-0.865,2-1.297c2.993-0.938,4.523-4.326,7.856-4.696C101.107,58.424,110.652,63.605,122.02,66.009z
			 M101.252,67.002c-3.135-1.18-6.344-0.873-9.838-0.856c6.13,8.483,14.99,9.29,21.59,2.05c-2.826-0.721-5.474-1.352-8.274-1.054
			C103.571,67.095,102.412,67.049,101.252,67.002z"/>
		<path style="fill:#F69D76;" d="M88.895,71.923c1.091,1.401,2.429,2.675,3.226,4.227c2.239,4.357,5.049,5.347,8.926,2.003
			c-0.015,1.824-0.262,3.681-0.008,5.466c1.542,10.817,0.434,21.772,1.778,32.593c-3.583-2.486-6.164-6.243-10.259-8.079
			c-4.947-6.241-5.323-13.682-5.554-21.162c0.007-2.966,0.014-5.933,0.022-8.899C89.829,76.686,88.627,74.081,88.895,71.923z"/>
		<path style="fill:#F69D76;" d="M146.016,78.961c6.528,4.19,8.769-1.424,11.825-5.172c0.348,1.501-0.303,3.27,1.202,4.458
			c0.005,2.989,0.01,5.979,0.015,8.968c0.45,7.301-0.001,14.337-5.843,19.78c-3.032,3.059-6.064,6.118-9.095,9.177
			c-0.819-9.818,1.589-19.539,0.893-29.352C144.822,84.128,145.249,81.526,146.016,78.961z"/>
		<path style="fill:#B9573F;" d="M144.12,116.173c3.032-3.059,6.063-6.118,9.095-9.177c-0.025,1.99-0.05,3.979-0.076,5.969
			c-4.343,4.533-9.176,8.701-12.903,13.694c-4.484,6.007-9.757,9.26-17.295,8.495c-5.28,0.054-9.489-1.994-13.181-5.837
			c-5.512-5.739-11.381-11.134-17.098-16.676c-0.034-1.502-0.069-3.003-0.103-4.506c4.095,1.835,6.677,5.592,10.26,8.077
			c2.324,2.38,4.589,4.821,6.982,7.13c8.968,8.651,20.376,8.4,28.891-0.664C140.621,120.623,142.316,118.347,144.12,116.173z"/>
		<path style="fill:#DA7659;" d="M87.026,78.073c-0.007,2.966-0.014,5.933-0.022,8.899c-6.522-3.32-11.152-12.088-9.832-18.897
			c0.517-2.669,1.441-5.212,4.952-5.102c2.078,1.08,2.962,3.087,3.911,5.042C86.21,71.383,85.527,74.836,87.026,78.073z"/>
		<path style="fill:#DA7659;" d="M159.058,87.216c-0.005-2.989-0.01-5.979-0.015-8.97c1.929-2.713,1.94-5.834,1.917-8.962
			c1.552-2.446,3.104-4.891,4.656-7.337C172.325,69.669,169.124,82.001,159.058,87.216z"/>
		<path style="fill:#F6BE99;" d="M122.02,66.009c-11.368-2.404-20.913-7.585-27.141-17.818c0.109-1.001-0.12-1.846-1.087-2.349
			c-0.278-2.789-0.547-5.579-0.836-8.367c-0.256-2.468,0.271-3.927,3.266-3.042c1.405,0.415,2.952,0.52,4.429,0.49
			c4.543-0.092,8.056,0.147,7.64,6.575c-0.252,3.895,2.92,6.818,7.476,8.41c0.452-3.457-0.388-6.957,1.697-10.007
			c1.855-2.714,3.765-4.164,7.267-3.975c8.486,0.457,16.929-0.43,25.076-2.83c4.669-1.375,4.615,0.781,3.956,4.06
			c-0.326,1.622-0.63,3.249-0.942,4.873c-1.48,1.814-0.582,3.962-0.833,5.949c-4.988,10.685-14.621,14.521-25.144,17.03
			C125.247,65.389,123.628,65.678,122.02,66.009z"/>
		<path style="fill:#F69D76;" d="M151.988,47.978c0.251-1.987-0.647-4.135,0.833-5.949c0.126,1.852,1.336,2.929,2.789,3.782
			c2.779,1.631,3.59,4.08,3.074,7.116C156.291,51.492,154.82,48.814,151.988,47.978z"/>
		<path style="fill:#F69D76;" d="M93.792,45.842c0.967,0.503,1.195,1.348,1.087,2.349c-3.334,0.37-4.863,3.758-7.857,4.696
			C87.082,48.427,91.133,47.803,93.792,45.842z"/>
		<path style="fill:#F6BE9A;" d="M144.12,116.173c-1.803,2.174-3.498,4.45-5.429,6.505c-8.515,9.064-19.922,9.316-28.891,0.664
			c-2.393-2.308-4.657-4.75-6.982-7.13c-1.344-10.821-0.237-21.775-1.779-32.592c-0.254-1.785-0.008-3.642,0.008-5.466
			c5.634-2.894,11.611-4.576,17.923-5.071c0.253,4.695-1.54,9.074-2.134,13.646c-0.639,4.915,0.922,7.256,6.206,8.232
			c5.43-0.027,7.301-1.718,6.927-7.047c-0.345-4.925-1.206-9.813-1.839-14.717c6.189,1.217,12.23,2.892,17.885,5.766
			c-0.767,2.564-1.194,5.167-1.003,7.859C145.709,96.634,143.3,106.354,144.12,116.173z M110.042,99.943
			c-0.367-0.239-0.731-0.483-1.112-0.699c-0.02-0.011-0.181,0.228-0.277,0.351c0.43,0.154,0.861,0.308,1.291,0.461
			c1.074,1.25,2.468,1.813,4.082,1.905c6.192,1.819,12.44,0.927,18.688,0.546c-6.325-0.044-12.511-1.445-18.79-1.776
			C112.815,99.562,111.365,100.065,110.042,99.943z"/>
		<path style="fill:#DA7659;" d="M128.131,73.196c0.633,4.904,1.494,9.793,1.839,14.717c0.374,5.33-1.497,7.021-6.928,7.048
			c0.01-7.355,0.021-14.711,0.031-22.066C124.759,72.995,126.445,73.095,128.131,73.196z"/>
		<path style="fill:#F69D76;" d="M123.073,72.895c-0.01,7.355-0.021,14.711-0.031,22.066c-5.284-0.976-6.845-3.317-6.205-8.232
			c0.595-4.572,2.387-8.952,2.134-13.646c1.018-0.2,2.036-0.4,3.054-0.601C122.374,72.619,122.724,72.757,123.073,72.895z"/>
		<path style="fill:#F6E5E5;" d="M144.752,66.995c3.153-1.131,6.387-0.894,9.802-0.821c-5.848,8.392-14.693,9.286-21.532,2.064
			c2.844-0.696,5.45-1.365,8.222-1.113c-0.306,1.588-1.018,3.263,0.937,4.365c1.035,0.583,1.881,0.17,2.666-0.518
			C146.399,69.612,145.352,68.308,144.752,66.995z"/>
		<path style="fill:#383435;" d="M144.752,66.995c0.601,1.312,1.647,2.617,0.096,3.977c-0.784,0.688-1.631,1.101-2.666,0.518
			c-1.956-1.102-1.243-2.778-0.937-4.365C142.414,67.082,143.583,67.039,144.752,66.995z"/>
		<path style="fill:#FECC1A;" d="M160.96,69.283c0.023,3.129,0.012,6.25-1.917,8.962c-1.505-1.186-0.854-2.955-1.202-4.456
			C158.49,72.017,159.449,70.458,160.96,69.283z"/>
		<path style="fill:#F6E5E5;" d="M104.73,67.142c2.8-0.298,5.448,0.334,8.274,1.054c-6.599,7.24-15.46,6.433-21.59-2.05
			c3.494-0.018,6.702-0.324,9.838,0.856c-0.608,1.532-1.299,3.067,0.491,4.334c0.744,0.526,1.485,0.521,2.252,0.074
			C105.935,70.278,105.221,68.691,104.73,67.142z"/>
		<path style="fill:#FECC1A;" d="M87.026,78.073c-1.499-3.238-0.816-6.69-0.991-10.058c1.588,0.84,2.138,2.44,2.861,3.91
			C88.627,74.081,89.829,76.686,87.026,78.073z"/>
		<path style="fill:#383435;" d="M104.73,67.142c0.49,1.549,1.205,3.136-0.735,4.267c-0.767,0.447-1.509,0.452-2.252-0.074
			c-1.79-1.266-1.099-2.802-0.491-4.334C102.412,67.049,103.571,67.095,104.73,67.142z"/>
		<path style="fill:#DA7659;" d="M113.924,100.731c6.279,0.332,12.466,1.733,18.79,1.776c-6.248,0.381-12.496,1.273-18.688-0.546
			C113.992,101.551,113.958,101.141,113.924,100.731z"/>
		<path style="fill:#F59E78;" d="M113.924,100.731c0.034,0.41,0.068,0.821,0.102,1.231c-1.614-0.093-3.008-0.656-4.081-1.905
			l0.098-0.115C111.365,100.065,112.815,99.562,113.924,100.731z"/>
		<path style="fill:#F59E78;" d="M109.945,100.056c-0.43-0.154-0.861-0.308-1.291-0.461c0.095-0.123,0.257-0.362,0.277-0.351
			c0.381,0.215,0.744,0.46,1.112,0.698C110.043,99.941,109.945,100.056,109.945,100.056z"/>
	</g>
</g>
</svg>
