<?xml version="1.0" encoding="utf-8"?>
<!-- Generator: Adobe Illustrator 23.0.3, SVG Export Plug-In . SVG Version: 6.00 Build 0)  -->
<svg version="1.1" id="Layer_1" xmlns="http://www.w3.org/2000/svg" xmlns:xlink="http://www.w3.org/1999/xlink" x="0px" y="0px"
	 viewBox="0 0 250 250" style="enable-background:new 0 0 250 250;" xml:space="preserve">
<style type="text/css">
	.st0{fill:none;}
	.st1{fill:#491F90;}
	.st2{fill:#6054AC;}
	.st3{fill:#FE6D23;}
	.st4{fill:#493B84;}
	.st5{fill:#3A1784;}
	.st6{fill:#FE7024;}
	.st7{fill:#F59D76;}
	.st8{fill:#F6BE9B;}
	.st9{fill:#B9573E;}
	.st10{fill:#F6B28D;}
	.st11{fill:#F0088F;}
	.st12{fill:#CD0971;}
	.st13{fill:#F8E7F4;}
	.st14{fill:#30ABE0;}
	.st15{fill:#BA292B;}
</style>
<g>
	<g>
		<path class="st0" d="M123,251c-40.7,0-81.3,0-122,0C1,167.7,1,84.3,1,1c82,0,164,0,246-0.1c3.4,0,4.1,0.7,4.1,4.1
			c-0.1,80.7-0.1,161.3,0,242c0,3.4-0.7,4.1-4.1,4.1c-40.3-0.2-80.7-0.1-121-0.1c0.6-1.9,2.4-2.6,3.7-3.8
			c5.4-4.8,10.9-9.5,16.4-14.2l-0.1,0c0.5-0.3,0.9-0.7,1.4-1c9.5-7.7,19.1-15.4,27.9-23.8c2.2-0.7,3.5-2.5,5.1-3.8
			c4.9-4,11.1-7.3,14.1-12.5c3.1-5.4,0.4-12.7,1.1-19.1c0.6-5.4-1.7-7.2-6.6-7c-11.1-3.1-22.3-5.7-33.6-7.8
			c-5.4-5.3-8.9-11.5-9.4-19.2c4.9,2.6,10,3.9,15.6,3.6c0.5,0,1.6,0.5,1.1-0.7c-0.2-0.4-1.1-0.6-1.6-0.9c-0.1-0.5-0.1-1-0.2-1.5
			c6.3,1.4,12.4,0.5,18.9-1.9c-5.6-3-10.9-5.5-14.2-11.9c3.9,0.3,6,3.1,9.3,2.7c-2.6-9.4-4.1-18.7-4.1-28.2c0.7-2.3,1.1-4.8,3.2-6.4
			c2.9,1.1,2.8-1,3.1-2.8c2.4-13.6,2.5-27.1-0.5-40.6c-6.5-28.4-27.1-42.1-52-41.9c-23.1,0.3-39.8,12.5-50.7,32.5
			c-5.2,9.5-6.2,20-3.2,30.5c1.9,6.6,3.3,12.9-2.6,18.5c2.9,0.6,5,0.1,7-0.7c0.8,5.4,2.7,10.4,6,14.8c-0.5,6.9-2.2,13.6-3.7,20.6
			c3.3-0.5,5.6-2,8-3.4c0.3,0.4,0.7,0.8,1,1.2c-3.1,5.4-8.4,8-13.9,11.1c6.3,2.6,12.2,3,18.4,2.2c0,0.4,0,0.9,0.1,1.3
			c-0.4,0.2-1,0.3-1.3,0.7c-1.1,1.6,0.6,1,1,1c5.4,0.4,10.3-1.4,15.3-3.1c0,1.1,0,2.3,0,3.4c-2,7.8-5.8,14.4-12.4,19.3
			c-11.5,2.2-22.8,5.1-34.1,8.5c-2.3-0.2-2.6,1.1-2.6,3.1c0.1,7.1,0.1,14.3,0,21.4c0,1.6,0.5,2.8,1.8,3.8
			c5.1,4.2,10.1,8.5,15.2,12.7c9.4,8.8,19.3,17.1,29.3,25.3C109.8,239.1,116.4,245,123,251z"/>
		<path class="st1" d="M146.1,233c-5.5,4.7-10.9,9.4-16.4,14.2c-1.3,1.2-3.1,1.9-3.7,3.8c-0.7,0-1.3,0-2,0c0-5.3,0.1-10.6,0.1-15.9
			C131.4,234.6,138.7,232.8,146.1,233z"/>
		<path class="st2" d="M124.1,235.1c0,5.3-0.1,10.6-0.1,15.9c-0.3,0-0.7,0-1,0c-6.6-6-13.2-11.9-19.7-17.9c7,0.4,13.8,2.4,20.8,1.5
			C124.1,234.8,124.1,234.9,124.1,235.1z"/>
		<path class="st3" d="M75.1,89.3c-2,0.7-4.1,1.3-7,0.7c5.9-5.7,4.6-12,2.6-18.5c-3.1-10.5-2-20.9,3.2-30.5
			c10.9-20,27.6-32.3,50.7-32.5c24.9-0.3,45.6,13.4,52,41.9c3.1,13.5,2.9,27,0.5,40.6c-0.3,1.8-0.2,4-3.1,2.8
			c-3.3-1.6-6.7-3.2-10-4.7c-0.5,0-1-0.1-1.6-0.1c-4.4-4.4-8.8-8.8-13.2-13.2c-0.4-0.7-0.8-1.4-1.2-2.1c-3.7-7.7-8.3-14.9-10.7-23.3
			c0,8.5,2.8,16.2,6.7,23.6c0.3,0.8,0.7,1.5,1,2.3c0.6,0.7,1.2,1.4,1.8,2.2c0.5,3,2.4,5.2,4.2,7.4c1.3,3.4-1.4,2.2-2.8,2.4
			c-1.8-0.7-3.5-1.4-5.3-2.1c-1.3-1.4-3-1.9-4.8-2.2c-4.7-4-9.3-7.9-14-11.9c-5.6-6.5-10.2-13.7-14.7-21c1,10.2,5.9,19.2,9.7,28.7
			c-2.9,0.3-4.8-1.3-7-1.7c-0.5-0.8-1.2-0.9-2-0.9l0,0c-0.4-0.9-1.1-1.1-2-1l0,0c-0.6-1.9-2.5-2.2-3.9-3.1c-1.3-1.6-2.6-3.2-4.5-4.2
			c-1,1.4-0.5,2.9-0.6,4.2c-0.1,0.3-0.1,0.6-0.1,1c-2.1,6.1-6,10.8-11.1,14.7c-1,0.3-2.2,0.2-2.9,1.2c-2.4,0.5-4,0.2-2.7-2.9
			c1-2.3,1.2-4.6-0.8-6.9C80.3,84.1,78.6,87.2,75.1,89.3z"/>
		<path class="st1" d="M189,165.9c4.9-0.2,7.2,1.6,6.6,7c-0.7,6.4,2,13.7-1.1,19.1c-3,5.1-9.2,8.4-14.1,12.5c-1.6,1.4-3,3.2-5.1,3.8
			c-12.9-10.4-32.2-9.7-44,1.7c-2.6,2.5-4.8,5.3-7.2,8c-0.1-0.3-0.1-0.6-0.1-0.9c0-11.7,0.1-23.4,0.1-35.1c1.5-0.1,3,0,4.4-0.3
			c12.6-3.1,25.3-6.1,37.9-9.3C174,170.3,181.9,169.4,189,165.9z"/>
		<path class="st4" d="M124.1,182c0,11.7-0.1,23.4-0.1,35.1c-14.4-17.8-32.9-21.3-50-9.3c-5.1-4.3-10.1-8.5-15.2-12.7
			c-1.3-1-1.8-2.2-1.8-3.8c0.1-7.1,0.1-14.3,0-21.4c0-1.9,0.3-3.3,2.6-3.1c11.4,2.8,22.7,5.5,34.1,8.3
			C103.7,177.6,113.7,180.5,124.1,182C124,182,124.1,182,124.1,182z"/>
		<path class="st5" d="M124.1,217.9c2.4-2.7,4.7-5.5,7.2-8c11.8-11.4,31.1-12.1,44-1.7c-8.9,8.4-18.4,16.1-27.9,23.8
			c-0.7,0.1-1.5-0.1-1.4,1l0.1,0c-7.4-0.2-14.7,1.6-22,2.1c0-0.2,0-0.3,0-0.5C124.1,229.1,124.1,223.5,124.1,217.9z"/>
		<path class="st2" d="M124.1,217.9c0,5.6,0,11.1,0,16.7c-7,0.9-13.9-1.2-20.8-1.5c-10-8.2-19.9-16.5-29.3-25.3
			c17.1-12,35.6-8.5,50,9.3C124,217.4,124,217.7,124.1,217.9z"/>
		<path class="st6" d="M161,140.9c0.6,0.3,1.5,0.5,1.6,0.9c0.5,1.2-0.6,0.7-1.1,0.7c-5.5,0.3-10.7-1-15.6-3.6
			c-0.3-0.6-0.7-1.3-1-1.9c0-1.9,0-3.9,0-5.8c6.4-7.7,15.2-13.8,16.2-25.1c4.9,0.6,6.5-4.1,9.8-6.1c-0.1,9.5,1.4,18.8,4.1,28.2
			c-3.3,0.4-5.5-2.4-9.3-2.7c3.3,6.3,8.6,8.9,14.2,11.9c-6.6,2.4-12.6,3.4-18.9,1.9c-0.9-0.5-2.2-1.2-2.4,0
			C158.3,140.5,159.9,140.9,161,140.9z M164.4,124c0.4,0.3,0.5,1.4,1.2,0.8c0.7-0.6-0.3-1-0.6-1.4c-0.2-0.2-0.6-0.6-0.7-0.5
			C163.9,123.3,163.9,123.7,164.4,124z M163.8,121.1c-0.1-0.1-0.2-0.3-0.2-0.4c-0.1,0.1-0.2,0.2-0.3,0.2c0.1,0.2,0.3,0.4,0.4,0.6
			C163.7,121.4,163.7,121.2,163.8,121.1z M156.3,137.5l0.2,0.2l0-0.2L156.3,137.5z"/>
		<path class="st5" d="M189,165.9c-7.2,3.5-15.1,4.4-22.7,6.4c-12.6,3.3-25.2,6.3-37.9,9.3c-1.4,0.3-2.9,0.2-4.4,0.3
			c0,0-0.1,0-0.1,0c0.3-3.2,0.7-6.5,1-9.7c11.9-0.9,22.2-5.3,30.4-14.1C166.7,160.2,177.9,162.8,189,165.9z"/>
		<path class="st2" d="M125,172.3c-0.3,3.2-0.7,6.5-1,9.7c-10.3-1.5-20.3-4.4-30.3-6.9c-11.4-2.8-22.7-5.6-34.1-8.3
			c11.2-3.4,22.5-6.3,34.1-8.5c8,9.2,18.2,13.5,30.3,13.6C124.3,172.1,124.7,172.2,125,172.3z"/>
		<path class="st7" d="M125,172.3c-0.3-0.1-0.7-0.3-1-0.4c0-7.3,0-14.5,0-21.8c7.2,0.5,12.4-3,16.6-8.4c1.3-1.7,2.5-3.5,4.4-4.6
			c0.3,0.6,0.7,1.3,1,1.9c0.5,7.7,4,13.9,9.4,19.2C147.2,167,136.9,171.4,125,172.3z"/>
		<path class="st8" d="M124,150.1c0,7.3,0,14.5,0,21.8c-12.1-0.1-22.3-4.5-30.3-13.6c6.5-4.9,10.4-11.5,12.4-19.3
			C111.7,143.1,116.1,149.5,124,150.1z"/>
		<path class="st6" d="M106,135.6c-4.9,1.8-9.9,3.6-15.3,3.1c-0.3,0-2.1,0.6-1-1c0.2-0.4,0.8-0.5,1.3-0.7c1.4,0,2.5-0.7,3.3-1.7
			c0.4-0.3,1.5-0.3,1-1.1c-0.4-0.6-1.1-0.1-1.6,0.4c-1,0.2-2.1,0.1-2.8,1.1c-6.1,0.8-12.1,0.4-18.4-2.2c5.4-3.1,10.8-5.7,13.8-11.1
			c0.2-0.5,0.4-1,0.6-1.4c0.9-0.4,0.9-1.2,0.9-2c0.3-0.3,0.5-0.6,0.8-0.9c-0.2-0.1-0.4-0.3-0.5-0.4c-0.1,0.4-0.2,0.9-0.3,1.3
			c-1.1,0.3-1.6,1.1-2.1,2c-0.2,0-0.3,0.1-0.4,0.3c-2.4,1.4-4.7,2.9-8,3.4c1.5-7,3.2-13.7,3.7-20.6c2.3,0.5,4.1,2.7,6.8,2.1
			c1.5,11,7.9,18.8,16.6,25.1c0.6,0.5,1,1.3,1.6,1.9C106,134,106,134.8,106,135.6z"/>
		<path class="st9" d="M106,135.6c0-0.8,0-1.7,0.1-2.5c1.5,1.3,3,2.5,4.4,3.8c3.9,3.4,7.7,7.1,13.5,7c5.6,0.8,10-1.4,13.8-5.3
			c2.4-2.5,4.8-5,7.2-7.4c0,1.9,0,3.9,0,5.8c-1.9,1.1-3.1,2.9-4.4,4.6c-4.2,5.4-9.3,9-16.6,8.4c-7.9-0.6-12.2-7-17.9-11.1
			C106,137.9,106,136.7,106,135.6z"/>
		<path class="st7" d="M87.9,106.2c-2.7,0.6-4.4-1.6-6.8-2.1c-3.3-4.4-5.2-9.4-6-14.8c3.4-2,5.2-5.2,6.2-9.3c2,2.4,1.8,4.6,0.8,6.9
			c-1.3,3,0.3,3.3,2.7,2.9C86.1,95.2,87.6,100.6,87.9,106.2z"/>
		<path class="st7" d="M170.9,100.1c-3.3,2-4.9,6.7-9.8,6.1c1-5.7,2-11.5,2.9-17.2c3.3,1.6,6.7,3.2,10,4.7
			C172,95.3,171.6,97.8,170.9,100.1z"/>
		<path class="st8" d="M91,135.8c0.7-1,1.8-0.9,2.8-1.1c0.2,0.3,0.4,0.5,0.6,0.7c-0.9,1-1.9,1.8-3.3,1.7
			C91.1,136.6,91,136.2,91,135.8z"/>
		<path class="st8" d="M161,140.9c-1.2-0.1-2.8-0.4-2.6-1.5c0.2-1.2,1.6-0.5,2.4,0C160.9,139.9,161,140.4,161,140.9z"/>
		<path class="st2" d="M146,233.1c-0.1-1.1,0.7-0.9,1.4-1C146.9,232.4,146.5,232.7,146,233.1z"/>
		<path class="st10" d="M164,89c-1,5.7-2,11.5-2.9,17.2c-0.9,11.2-9.7,17.4-16.2,25.1c-2.4,2.5-4.8,5-7.2,7.4
			c-3.8,3.9-8.2,6-13.8,5.3c0-4,0-8,0-12c5.8,0.1,8-4.8,12.8-7.9c-5-1.6-8.9-1-12.8-1.2c0-1.9,0-3.9,0-5.8c3-0.6,4.5-2.7,5.8-5.3
			c-1.6-0.8-2.5,0.3-3.5,0.6c-1.6,0.6-2.4,0-1.9-1.6c1.5-5.4,0.3-10.9,0.8-16.3c8.6,0.6,16.5,3.8,24.4,6.9c2.7,1.1,4.2,0.7,5.7-1.8
			c2.2-3.7,4.8-7.2,7.3-10.7C163,88.9,163.5,88.9,164,89z"/>
		<path class="st8" d="M124,131.9c0,4,0,8,0,12c-5.7,0-9.5-3.6-13.5-7c-1.5-1.3-3-2.5-4.4-3.8c-0.5-0.6-0.9-1.4-1.6-1.9
			c-8.7-6.3-15.1-14.1-16.6-25.1c-0.2-5.6-1.7-11-3.1-16.3c0.7-1,1.9-0.9,2.9-1.2c2.3,3.3,4.9,6.4,6.9,9.8c2,3.4,3.8,4.2,7.4,1.9
			c5.1-3.2,10.9-4.8,17-5.2c0,1.8,0.1,3.6-0.7,5.3c-3.1,7.2-0.9,12.7,5.6,16.7c0,1.9,0,3.9,0,5.8c-3.6,0.2-7.2-0.3-11.8,1.3
			C116.8,126.8,118.9,131.4,124,131.9z"/>
		<path class="st11" d="M119,95c-6.1,0.4-11.9,2-17,5.2c-3.6,2.3-5.4,1.5-7.4-1.9c-2-3.4-4.6-6.5-6.9-9.8c5.1-3.8,9-8.6,11.1-14.7
			c0.5,0.4,1,0.9,1.5,1.3c6.3,7.2,14.2,11.3,23.7,12.3c0,2.1,0,4.3-0.1,6.4C122.3,94.3,120.7,94.7,119,95z M109,87
			c-1.7-1.2-3.6-1.2-5.5-1.2c-1.8-0.7-3.6-0.6-5.3-0.2c-1,0.2-2.6-0.2-3,1.1c-0.5,1.2,0.7,2.1,1.5,2.9c3,3.5,6.9,4.9,11.5,4.4
			c2.6-0.3,6.4-0.4,6.7-2.8C115.1,88.7,111.6,87.7,109,87z"/>
		<path class="st12" d="M124,94c0-2.1,0-4.3,0.1-6.4l0.1-0.4c5,0.3,9.5-1.6,14-3.4c1.8,0.3,3.5,0.8,4.8,2.2c-0.5,0.3-1,0.7-1.4,1
			c-2.1,0.1-3.6,1.5-5.2,2.7c-1.3,1-1.6,1.9,0.2,2.9c4.7,2.7,12.3,2,16.3-1.8c1.1-1.1,3-2.2,2.3-4c-0.6-1.5-2.6-0.8-4-1
			c-1.8-2.2-3.7-4.4-4.2-7.4c0.7-0.7,1.4-1.5,2.1-2.2c0.2-0.1,0.3-0.2,0.3-0.4c4.4,4.4,8.8,8.8,13.2,13.2c-2.4,3.6-5,7.1-7.3,10.7
			c-1.5,2.5-3,2.8-5.7,1.8c-7.9-3.1-15.8-6.3-24.4-6.9C124.7,94.3,124.3,94.1,124,94z"/>
		<path class="st8" d="M124,87.5c-9.5-1-17.4-5.1-23.7-12.3c2.6-0.4,5,1.5,7.6,0.8l0,0c0.3,1.2,1.2,1,2,1l0,0c0.4,1,1.2,1,2,0.9
			c2.2,0.4,4.2,1.9,7,1.7c-3.7-9.5-8.7-18.5-9.7-28.7c4.5,7.3,9.2,14.5,14.7,21c0,5.1,0,10.2,0,15.3L124,87.5z"/>
		<path class="st10" d="M124.1,87.1c0-5.1,0-10.2,0-15.3c4.7,4,9.3,7.9,14,11.9C133.6,85.6,129.1,87.4,124.1,87.1z"/>
		<path class="st13" d="M151,85.7c1.4,0.2,3.4-0.5,4,1c0.7,1.8-1.2,2.9-2.3,4c-3.9,3.8-11.5,4.5-16.3,1.8c-1.8-1-1.5-1.9-0.2-2.9
			c1.6-1.2,3.1-2.6,5.2-2.7c-0.5,2.5-0.3,4.9,2.7,5.4c3.1,0.5,4.1-1.5,4-4.3C149.6,87.9,152.3,89,151,85.7z"/>
		<path class="st10" d="M144,73.8c-4-7.3-6.7-15-6.7-23.6c2.4,8.3,6.9,15.6,10.7,23.3C146.7,73.6,145.3,73.7,144,73.8z"/>
		<path class="st14" d="M148.2,88.1c0,2.7-1,4.7-4,4.3c-3.1-0.5-3.2-2.9-2.7-5.4c0.5-0.3,1-0.7,1.5-1
			C144.6,86.7,146.4,87.4,148.2,88.1z"/>
		<path class="st9" d="M108,76c-2.6,0.7-5-1.2-7.6-0.8c-0.5-0.4-1-0.9-1.5-1.3c0-0.3,0.1-0.6,0.1-1c1.7,0,3.4,0,5.2-0.1
			C105.5,73.9,107.4,74.1,108,76z"/>
		<path class="st10" d="M104.1,72.9c-1.7,0-3.4,0-5.2,0.1c0.2-1.4-0.3-2.8,0.6-4.2C101.5,69.7,102.8,71.3,104.1,72.9z"/>
		<path class="st9" d="M144,73.8c1.3-0.1,2.6-0.2,3.9-0.3c0.4,0.7,0.8,1.4,1.2,2.1c-0.1,0.2-0.2,0.3-0.3,0.4c-1.3,0-2.6,0-3.9,0.1
			C144.7,75.3,144.4,74.6,144,73.8z"/>
		<path class="st7" d="M145,76.1c1.3,0,2.6,0,3.9-0.1c-0.7,0.7-1.4,1.5-2.1,2.2C146.2,77.5,145.6,76.8,145,76.1z"/>
		<path class="st9" d="M112,77.9c-0.9,0.2-1.7,0.2-2-0.9C110.8,76.9,111.5,77.1,112,77.9z"/>
		<path class="st9" d="M110,77c-0.8,0-1.8,0.2-2-1C108.9,75.9,109.6,76.1,110,77z"/>
		<path class="st7" d="M163.8,121.1c-0.1,0.1-0.1,0.3-0.2,0.4c-0.1-0.2-0.3-0.4-0.4-0.6c0.1-0.1,0.2-0.2,0.3-0.2
			C163.6,120.9,163.7,121,163.8,121.1z"/>
		<path class="st8" d="M164.4,124c-0.6-0.4-0.5-0.8-0.1-1.1c0.1,0,0.4,0.3,0.7,0.5C165,123.8,164.8,124,164.4,124z"/>
		<path class="st0" d="M165,123.4c0.3,0.4,1.3,0.8,0.6,1.4c-0.7,0.7-0.8-0.5-1.2-0.8C164.8,124,165,123.8,165,123.4z"/>
		<polygon class="st7" points="156.3,137.5 156.6,137.4 156.5,137.7 		"/>
		<path class="st13" d="M85.9,121c0.5-0.8,1.1-1.7,2.1-2l0,0c0,0.8,0,1.6-0.9,2C86.7,121,86.3,121,85.9,121z"/>
		<path class="st10" d="M88,119c0.1-0.4,0.2-0.9,0.3-1.3c0.2,0.1,0.4,0.3,0.5,0.4C88.6,118.4,88.3,118.7,88,119
			C88,119,88,119,88,119z"/>
		<path class="st10" d="M93.8,134.7c0.4-0.5,1.2-1,1.6-0.4c0.5,0.8-0.5,0.8-1,1.1C94.2,135.1,94,134.9,93.8,134.7z"/>
		<path class="st0" d="M85.9,121c0.4,0,0.8,0,1.2,0.1c-0.2,0.5-0.4,1-0.6,1.4c-0.3-0.4-0.7-0.8-1-1.2C85.5,121.1,85.7,121,85.9,121z
			"/>
		<path class="st7" d="M124,94c0.4,0.2,0.7,0.3,1.1,0.5c-0.5,5.4,0.7,10.9-0.8,16.3c-0.4,1.5,0.3,2.2,1.9,1.6c1-0.4,1.9-1.5,3.5-0.6
			c-1.2,2.6-2.8,4.7-5.8,5.3c-6.5-4-8.7-9.5-5.6-16.7c0.7-1.7,0.6-3.5,0.7-5.3C120.7,94.7,122.3,94.3,124,94z"/>
		<path class="st15" d="M124,131.9c-5.1-0.5-7.2-5.1-11.9-7.8c4.6-1.6,8.3-1.1,11.8-1.3c3.9,0.2,7.9-0.4,12.8,1.2
			C132,127.1,129.8,132,124,131.9z"/>
		<path class="st13" d="M109,87c2.6,0.7,6.1,1.8,5.8,4.3c-0.3,2.4-4.1,2.5-6.7,2.8c-4.6,0.6-8.5-0.8-11.5-4.4
			c-0.7-0.8-1.9-1.7-1.5-2.9c0.5-1.3,2-0.9,3-1.1c1.8-0.4,3.6-0.5,5.3,0.2c-1.2,1.7-2.2,3.4-0.6,5.4c1.1,1.3,2.6,1.4,4.1,0.8
			C109.5,91.1,109.1,89,109,87z"/>
		<path class="st14" d="M109,87c0.1,2,0.5,4.1-2,5c-1.5,0.6-3,0.4-4.1-0.8c-1.7-1.9-0.7-3.7,0.6-5.4C105.4,85.7,107.3,85.8,109,87z"
			/>
	</g>
</g>
</svg>
