<?xml version="1.0" encoding="iso-8859-1"?>
<!-- Generator: Adobe Illustrator 23.0.3, SVG Export Plug-In . SVG Version: 6.00 Build 0)  -->
<svg version="1.1" id="Layer_1" xmlns="http://www.w3.org/2000/svg" xmlns:xlink="http://www.w3.org/1999/xlink" x="0px" y="0px"
	 viewBox="0 0 250 250" style="enable-background:new 0 0 250 250;" xml:space="preserve">
<g>
	<g>
		<path style="fill:none;" d="M123,251c-40.667,0-81.333,0-122,0C1,167.667,1,84.333,1,1c82,0,164,0.027,246-0.096
			c3.424-0.005,4.101,0.672,4.096,4.096c-0.124,80.666-0.124,161.333,0,242c0.005,3.424-0.67,4.111-4.096,4.099
			C206,250.946,165,251,124,251c0.121-0.235,0.163-0.484,0.125-0.745c0.837-0.51,1.758-0.92,2.498-1.544
			c23.946-20.175,47.713-40.569,71.933-60.409c5.369-4.398,7.402-8.864,6.06-15.304c0.075-4.98,0.033-9.965,0.271-14.937
			c0.128-2.67-0.793-3.661-3.467-4.25c-14.256-3.14-28.434-6.634-42.69-9.779c-3.147-0.694-4.36-1.864-4.286-5.222
			c0.161-7.287-0.157-14.585-0.278-21.878c0.13-1.986,0.26-3.971,0.391-5.957c3.924-5.993,6.709-12.306,5.527-19.73
			c0.677-2.404,0.41-4.85,0.315-7.287c3.187-9.633,7.228-19.024,8.644-29.585c-2.414,0.832-4.4,1.517-6.386,2.201
			c-0.033-0.534-0.067-1.068-0.1-1.601c1.412-15.16,2.825-30.319,4.352-46.713c-4.007,3.83-7.082,6.769-10.158,9.708
			c-9.732-7.216-20.426-11.544-32.77-10.924c-12.842-0.903-24.047,3.138-33.907,11.235c-3.397-2.658-6.012-6.301-10.707-9.014
			c1.826,11.655,3.492,22.282,5.158,32.91c0.446,2.649,0.061,5.449,1.434,7.931c-0.02,2.099-0.04,4.198-0.059,6.296
			c-3.715,1.543-6.732-1.96-10.51-1.705c2.48,8.445,5.218,16.466,9.273,23.918c1.733,3.185,2.877,6.277,2.512,9.88
			c-0.563,8.11-0.272,16.024,5.208,22.752c0.146,1.908,0.293,3.814,0.439,5.72c-0.169,8.723-0.338,17.446-0.507,26.168
			c-10.722,2.693-21.457,5.336-32.162,8.093c-13.769,3.547-13.759,3.587-12.989,17.933c-0.054,2.83,0.193,5.705-0.228,8.479
			c-0.793,5.223,1.475,8.438,5.389,11.742c18.581,15.686,36.925,31.655,55.241,47.651C112.787,241.595,118.582,245.544,123,251z"/>
		<path style="fill:#0E64A0;" d="M123,251c-4.418-5.456-10.213-9.405-15.436-13.967c-18.316-15.996-36.66-31.965-55.241-47.651
			c-3.914-3.304-6.182-6.519-5.389-11.742c0.421-2.774,0.174-5.649,0.228-8.48c12.741-1.27,25.437-2.999,38.251-3.534
			c7.952-0.333,15.891-0.988,23.835-1.499c4.799,1.601,9.814,1.792,14.785,2.271c0.03,27.952,0.06,55.904,0.09,83.856
			c0.038,0.262-0.004,0.51-0.125,0.745C123.667,251,123.333,251,123,251z"/>
		<path style="fill:#1D75BB;" d="M124.125,250.255c-0.03-27.952-0.06-55.904-0.091-83.857c0.648-0.18,1.297-0.359,1.945-0.539
			c26.669-2.649,52.674,2.002,78.636,7.139c1.343,6.44-0.691,10.906-6.06,15.304c-24.22,19.84-47.986,40.234-71.933,60.409
			C125.883,249.335,124.962,249.745,124.125,250.255z"/>
		<path style="fill:#F2BC9A;" d="M160.082,91.245c1.183,7.424-1.602,13.736-5.526,19.73c-2.047-0.126-2.767,1.669-3.843,2.809
			c-3.655,3.872-7.161,7.885-10.766,11.805c-9.277,10.087-19.768,10.589-29.994,1.372c-2.718-2.45-5.052-5.353-7.9-7.625
			c-3.29-2.625-5.259-6.834-9.672-8.091c-5.48-6.727-5.771-14.641-5.207-22.748c3.72-2.15,7.933-0.915,11.848-1.724
			c4.723,1.215,9.471,1.104,14.24,0.296c2.399-0.406,4.148-0.496,3.455,3.107c-0.828,4.306,2.462,7.206,7.325,7.065
			c5.697-0.34,6.951-2.298,5.943-9.284c1.783,0.183,3.57,0.337,5.349,0.553c6.058,0.734,12.092,1.21,17.885-1.404
			c0.859-0.001,1.717-0.002,2.576-0.003C157.023,88.692,158.293,90.237,160.082,91.245z M109.985,103.023
			c-0.305-0.45-0.508-1.225-1.22-0.385c0.421,0.113,0.841,0.225,1.262,0.338c7.544,4.248,15.486,4.331,23.627,2.307
			C125.636,105.911,117.896,103.551,109.985,103.023z"/>
		<path style="fill:#A91926;" d="M85.897,56.403c0.02-2.099,0.04-4.198,0.06-6.297c-0.307-3.006,0.891-6.122-0.659-9.038
			c-0.242-7.981-2.034-16.286,4.774-22.79c9.86-8.097,21.064-12.138,33.907-11.235c-0.007,20.953-0.013,41.905-0.02,62.858
			c-3.376,0.516-6.583-0.024-9.767-1.254c-8.372-3.235-16.782-6.372-25.194-9.503C87.571,58.613,86.061,58.306,85.897,56.403z"/>
		<path style="fill:#871E18;" d="M204.615,172.998c-25.962-5.137-51.968-9.788-78.636-7.139c-0.018-8.918-0.036-17.837-0.053-26.755
			c5.98,0.294,10.008-2.387,13.943-6.999c4.479-5.249,8.762-10.851,14.296-15.174c0.122,7.293,0.44,14.591,0.278,21.879
			c-0.074,3.358,1.139,4.527,4.286,5.222c14.255,3.145,28.433,6.639,42.69,9.779c2.674,0.589,3.594,1.58,3.467,4.25
			C204.648,163.033,204.69,168.018,204.615,172.998z"/>
		<path style="fill:#861C17;" d="M123.96,69.901c0.007-20.953,0.014-41.905,0.02-62.858c12.343-0.62,23.038,3.708,32.771,10.923
			c4.149,4.423,5.813,9.46,5.476,15.696c-0.381,7.067-0.751,14.225,0.328,21.31c0.033,0.534,0.067,1.068,0.102,1.602
			c-7.532,3.302-15.092,6.544-22.589,9.925C134.927,68.818,129.827,71.118,123.96,69.901z"/>
		<path style="fill:#1C1919;" d="M123.96,69.901c5.868,1.217,10.967-1.084,16.108-3.402c7.497-3.381,15.057-6.623,22.589-9.925
			c1.985-0.685,3.971-1.369,6.385-2.201c-1.416,10.561-5.457,19.952-8.645,29.586c-1.534,1.049-3.068,2.096-4.602,3.144
			c-0.859,0.001-1.717,0.002-2.577,0.003c-8.398-2.129-16.213-5.818-24.2-9.044c-1.572-1.156-3.331-1.19-5.151-0.858
			c-2.473-0.3-4.9-0.459-7.147,1.017c-5.521,3.626-11.588,6.138-17.699,8.552c-3.915,0.809-8.128-0.426-11.848,1.724
			c0.364-3.605-0.78-6.698-2.513-9.883c-4.055-7.452-6.792-15.473-9.273-23.918c3.778-0.254,6.795,3.248,10.51,1.705
			c0.163,1.904,1.672,2.211,3.1,2.742c8.412,3.13,16.822,6.268,25.194,9.503C117.377,69.878,120.584,70.418,123.96,69.901z
			 M83.659,63.399c2.036,6.13,4.345,11.017,7.074,15.726c1.223,2.111,2.646,3.018,5.312,2.188c5.337-1.662,10.341-3.893,15.825-7.24
			C102.293,70.449,93.482,67.115,83.659,63.399z M135.043,74.53c5.734,2.83,10.81,4.779,16.054,6.296
			c1.712,0.495,3.18,0.431,4.073-1.622c2.092-4.807,4.109-9.616,5.018-15.427C151.759,67.382,143.885,70.749,135.043,74.53z"/>
		<path style="fill:#A91926;" d="M125.926,139.104c0.018,8.918,0.036,17.837,0.053,26.755c-0.649,0.18-1.297,0.359-1.945,0.539
			c-4.971-0.478-9.986-0.67-14.787-2.271c-9.299-3.352-17.512-7.598-16.347-19.666c0.04-0.419-0.381-0.883-0.587-1.326
			c0.169-8.723,0.338-17.446,0.507-26.168c5.588,4.234,10.46,9.306,14.974,14.55C112.776,137.305,118.324,140.281,125.926,139.104z"
			/>
		<path style="fill:#861F1A;" d="M92.313,143.135c0.206,0.443,0.627,0.907,0.587,1.326c-1.164,12.068,7.048,16.314,16.347,19.666
			c-7.943,0.511-15.882,1.167-23.834,1.5c-12.815,0.536-25.51,2.264-38.251,3.534c-0.769-14.346-0.78-14.386,12.99-17.933
			C70.857,148.47,81.592,145.828,92.313,143.135z"/>
		<path style="fill:#661412;" d="M125.926,139.104c-7.602,1.177-13.149-1.799-18.132-7.588c-4.513-5.244-9.386-10.316-14.974-14.55
			c-0.146-1.906-0.293-3.812-0.439-5.72c4.413,1.256,6.382,5.464,9.672,8.09c2.848,2.272,5.181,5.176,7.9,7.625
			c10.225,9.216,20.717,8.715,29.994-1.372c3.605-3.92,7.111-7.933,10.766-11.805c1.076-1.14,1.796-2.935,3.843-2.809
			c-0.13,1.986-0.26,3.971-0.391,5.957c-5.534,4.323-9.817,9.925-14.296,15.174C135.934,136.717,131.906,139.398,125.926,139.104z"
			/>
		<path style="fill:#2D2322;" d="M162.555,54.972c-1.079-7.085-0.709-14.243-0.328-21.31c0.337-6.236-1.327-11.272-5.476-15.696
			c3.074-2.938,6.149-5.877,10.156-9.707C165.38,24.653,163.968,39.813,162.555,54.972z"/>
		<path style="fill:#222020;" d="M90.073,18.279c-6.808,6.504-5.016,14.809-4.777,22.788c-0.259,0.368-0.515,0.738-0.772,1.108
			c-1.666-10.628-3.331-21.256-5.158-32.91C84.061,11.979,86.676,15.621,90.073,18.279z"/>
		<path style="fill:#871E18;" d="M155.795,87.103c1.534-1.048,3.068-2.095,4.602-3.144c0.095,2.437,0.362,4.882-0.315,7.286
			C158.293,90.237,157.023,88.692,155.795,87.103z"/>
		<path style="fill:#861F1A;" d="M84.524,42.175c0.256-0.37,0.513-0.74,0.772-1.108c1.553,2.917,0.355,6.033,0.662,9.039
			C84.585,47.624,84.97,44.825,84.524,42.175z"/>
		<path style="fill:#A71E29;" d="M99.021,86.773c6.111-2.414,12.178-4.927,17.699-8.552c2.246-1.475,4.674-1.317,7.148-1.017
			c0.058,6.679,0.115,13.359,0.173,20.038c-4.863,0.141-8.152-2.759-7.325-7.065c0.693-3.603-1.056-3.513-3.455-3.107
			C108.492,87.877,103.745,87.989,99.021,86.773z"/>
		<path style="fill:#871E18;" d="M129.018,78.062c7.987,3.227,15.802,6.915,24.2,9.044c-5.793,2.614-11.826,2.139-17.884,1.404
			c-1.779-0.216-3.566-0.37-5.349-0.553C130.132,84.613,128.42,81.45,129.018,78.062z"/>
		<path style="fill:#771310;" d="M129.018,78.062c-0.598,3.389,1.113,6.552,0.966,9.896c1.008,6.985-0.247,8.944-5.943,9.284
			c-0.058-6.68-0.115-13.359-0.173-20.038C125.687,76.871,127.446,76.906,129.018,78.062z"/>
		<path style="fill:#DE8062;" d="M109.985,103.023c7.911,0.527,15.651,2.888,23.669,2.259c-8.141,2.024-16.082,1.941-23.627-2.307
			L109.985,103.023z"/>
		<path style="fill:#DE8062;" d="M110.027,102.975c-0.421-0.112-0.841-0.225-1.262-0.338c0.713-0.84,0.915-0.065,1.22,0.386
			C109.985,103.023,110.027,102.975,110.027,102.975z"/>
		<path style="fill:#F5F5F5;" d="M83.659,63.399c9.823,3.717,18.634,7.051,28.21,10.674c-5.484,3.347-10.487,5.579-15.825,7.24
			c-2.665,0.83-4.088-0.077-5.312-2.188C88.005,74.416,85.695,69.528,83.659,63.399z"/>
		<path style="fill:#F5F5F5;" d="M135.043,74.53c8.842-3.781,16.716-7.148,25.145-10.752c-0.908,5.811-2.925,10.62-5.018,15.427
			c-0.893,2.052-2.362,2.117-4.073,1.622C145.853,79.309,140.777,77.36,135.043,74.53z"/>
	</g>
</g>
</svg>
