<?xml version="1.0" encoding="iso-8859-1"?>
<!-- Generator: Adobe Illustrator 23.0.3, SVG Export Plug-In . SVG Version: 6.00 Build 0)  -->
<svg version="1.1" id="Layer_1" xmlns="http://www.w3.org/2000/svg" xmlns:xlink="http://www.w3.org/1999/xlink" x="0px" y="0px"
	 viewBox="0 0 250 250" style="enable-background:new 0 0 250 250;" xml:space="preserve">
<g>
	<g>
		<path style="fill:none;" d="M123,251c-40.667,0-81.333,0-122,0C1,167.667,1,84.333,1,1c82,0,164,0.027,246-0.096
			c3.424-0.005,4.101,0.672,4.096,4.096c-0.124,80.666-0.124,161.333,0,242c0.005,3.424-0.67,4.111-4.096,4.099
			C206.334,250.946,165.667,251,125,251c-0.089-0.331-0.081-0.66,0.024-0.986c23.69-21.505,47.14-43.283,71.228-64.333
			c6.505-5.684,8.273-11.75,7.362-19.527c0.178-3.314,0.204-6.646,0.576-9.938c0.399-3.532-0.647-5.22-4.449-6
			c-11.537-2.367-22.949-5.339-34.468-7.797c-3.909-0.834-6.586-5.307-11.244-3.621c-0.045-8.596-0.089-17.192-0.134-25.788
			c-0.017-1.703-0.034-3.406-0.05-5.109c3.344-3.951,5.964-8.2,5.978-13.631c0.013-5.089,0.125-10.177,0.194-15.265
			c1.785-1.197,2.272-3.059,2.841-5.004c1.577-5.397,1.574-10.711-0.27-16.022c0.19-2.647,0.311-5.301,0.583-7.939
			c0.869-8.457,0.065-17.111,5.544-24.771c3.848-5.38,6.403-11.684,10.11-18.656c-7.02,2.921-12.898,5.101-18.526,7.8
			c-3.738,1.793-6.949,1.831-10.834,0.243c-11.199-4.578-22.717-7.428-34.921-4.114c-7.343,1.994-14.841,5.712-22.052,5.251
			c-7.222-0.462-14.174-5.156-21.244-7.996c-0.533-0.247-1.084-0.721-1.593-0.679c-0.571,0.046-0.551,0.572-0.027,0.907
			c0.423,0.897,0.769,1.841,1.282,2.684c8.39,13.803,15.772,27.932,14.802,44.828c-0.028,0.48,0.178,0.974,0.275,1.462
			c-0.758,1.97-1.918,3.885-2.199,5.921c-0.808,5.869-0.567,11.603,4.172,16.095c0.061,2.798,0.143,5.596,0.178,8.395
			c0.095,7.55-0.597,15.307,5.707,21.182c-0.468,1.801-0.348,3.6,0.018,5.398c-1.141,1.45-0.671,3.155-0.693,4.755
			c-0.093,6.893-0.118,13.786-0.168,20.679c-2.057,0.523-4.639-1.24-6.206,1.423c-0.928,0.7-1.857,1.401-2.785,2.101
			c-9.643,2.255-19.228,4.825-28.954,6.636c-5.02,0.935-7.316,2.869-6.229,8.022c0.136,0.643,0.155,1.31,0.228,1.966
			c-0.072,5.66,0.011,11.327-0.281,16.976c-0.152,2.95,0.876,4.915,2.992,6.881c16.469,15.3,32.932,30.608,49.198,46.122
			C108.379,236.622,116.586,242.896,123,251z"/>
		<path style="fill:#483A85;" d="M125.024,250.014c-0.105,0.326-0.113,0.655-0.024,0.986c-0.667,0-1.333,0-2,0
			c-6.414-8.104-14.621-14.378-22.036-21.451c-16.266-15.514-32.729-30.822-49.198-46.122c-2.116-1.966-3.145-3.931-2.992-6.881
			c0.292-5.648,0.208-11.316,0.281-16.974c14.657-0.46,29.315-0.921,43.972-1.382c2.64,0.495,4.885,1.746,7.108,3.25
			c7.912,5.35,15.509,11.181,23.879,15.841c-0.009,22.699-0.027,45.398-0.004,68.097
			C124.012,246.962,123.456,248.741,125.024,250.014z"/>
		<path style="fill:#2C2370;" d="M125.024,250.014c-1.568-1.272-1.012-3.052-1.014-4.637c-0.024-22.699-0.005-45.398,0.004-68.098
			c0.128-0.201,0.247-0.407,0.359-0.616c7.738-4.221,14.639-9.707,21.944-14.58c2.183-1.456,4.302-2.073,6.971-1.834
			c16.831,1.51,33.64,3.162,50.325,5.905c0.911,7.777-0.857,13.843-7.362,19.527C172.164,206.73,148.714,228.509,125.024,250.014z"
			/>
		<path style="fill:#493C86;" d="M71.246,7.795c7.07,2.839,14.022,7.534,21.244,7.996c7.211,0.461,14.709-3.257,22.052-5.251
			c12.204-3.314,23.722-0.464,34.921,4.114c3.885,1.588,7.096,1.55,10.834-0.243c5.629-2.699,11.506-4.88,18.526-7.8
			c-3.707,6.972-6.262,13.276-10.11,18.656c-5.479,7.66-4.675,16.314-5.544,24.771c-0.271,2.639-0.393,5.292-0.583,7.939
			c-2.421,0.273-4.685-0.536-6.677-1.619c-4.692-2.55-9.327-2.504-14.381-1.157c-5.715,1.524-11.492,3.13-17.536,2.804
			c-2.038-1.481-4.535-0.736-6.757-1.4c-10.448-3.12-20.901-4.981-31.251,0.39c-0.097-0.488-0.302-0.981-0.275-1.462
			c0.969-16.896-6.413-31.025-14.802-44.828c-0.512-0.843-0.858-1.787-1.281-2.684C70.166,7.947,70.706,7.871,71.246,7.795z"/>
		<path style="fill:#CA1F2C;" d="M203.613,166.153c-16.684-2.742-33.494-4.395-50.325-5.905c-2.669-0.239-4.788,0.378-6.971,1.834
			c-7.305,4.874-14.206,10.359-21.945,14.577c-0.151-2.299-0.302-4.595-0.452-6.891c0.019-0.227,0.063-0.45,0.133-0.667
			c8.293-5.14,15.335-11.996,23.484-17.289c4.966-3.225,7.551-7.064,6.492-13.016c4.658-1.686,7.335,2.787,11.244,3.621
			c11.52,2.457,22.932,5.429,34.468,7.797c3.801,0.78,4.847,2.469,4.449,6C203.818,159.508,203.792,162.839,203.613,166.153z"/>
		<path style="fill:#F6BE9C;" d="M124.053,169.102c-0.07,0.217-0.114,0.439-0.133,0.667c-10.352-7.685-20.885-15.137-30.523-23.741
			c0.406-2.234,0.688-4.461-0.397-6.605c0.05-6.893,0.075-13.787,0.168-20.679c0.022-1.6-0.448-3.305,0.693-4.755
			c4.215,3.989,8.609,7.808,12.599,12.011c4.889,5.15,9.842,9.918,17.565,9.938C124.034,146.992,124.044,158.047,124.053,169.102z"
			/>
		<path style="fill:#F59C75;" d="M124.053,169.102c-0.009-11.055-0.019-22.11-0.028-33.164c4.746,0.061,9.329-0.427,12.795-4.205
			c5.71-6.224,11.385-12.481,17.075-18.724c0.044,8.596,0.089,17.192,0.134,25.788c1.059,5.952-1.526,9.79-6.491,13.015
			C139.388,157.106,132.346,163.962,124.053,169.102z"/>
		<path style="fill:#52489E;" d="M85.984,56.996c10.351-5.371,20.803-3.509,31.251-0.39c2.222,0.663,4.718-0.081,6.757,1.4
			c-0.027,2.701-0.055,5.403-0.081,8.103c-0.547,0.286-1.491,0.48-1.585,0.875c-1.957,8.267-4.61,16.388-5.37,24.912
			c-6.844-0.182-13.049-2.432-18.895-5.842c-2.84-3.105-6.499-5.034-10.104-7.041c-4.739-4.492-4.98-10.227-4.172-16.095
			C84.066,60.882,85.226,58.967,85.984,56.996z M91.996,64.972c-1.354-1.707-2.873-0.789-3.89,0.15
			c-1.262,1.165,0.467,2.017,0.959,2.864c2.853,4.91,8.406,5.614,12.926,7.759c5.973,2.834,10.573,1.086,14.479-4.563
			c0.922-1.333,2.671-2.71,1.92-4.298c-0.825-1.744-2.968-0.642-4.533-0.803C106.571,65.712,99.284,65.342,91.996,64.972z"/>
		<path style="fill:#504389;" d="M123.911,66.111c0.027-2.701,0.055-5.403,0.082-8.104c6.044,0.326,11.821-1.28,17.536-2.804
			c5.054-1.348,9.69-1.393,14.381,1.157c1.992,1.083,4.256,1.891,6.677,1.619c1.844,5.312,1.847,10.625,0.27,16.022
			c-0.568,1.944-1.056,3.807-2.841,5.004c-4.297,2.095-8.774,3.946-11.333,8.389c-0.78-0.338-1.556-0.525-2.321,0.04
			c-4.57,3.373-10.014,3.787-15.359,4.539c-1.657-7.233-3.352-14.459-4.938-21.708c-0.284-1.3-0.695-2.178-2.113-2.284
			C123.938,67.357,123.924,66.734,123.911,66.111z M133.995,66.001c-1.74,0.149-3.569-0.446-5.275,0.557
			c0.243,1.957,1.101,3.629,2.362,4.886c2.758,2.749,5.77,7.308,9.488,6.151c7.378-2.296,15.307-4.6,20.362-12.988
			c-2.134,1.302-3.328-1.684-4.974,0.507C148.637,65.409,141.316,65.705,133.995,66.001z"/>
		<path style="fill:#F31D28;" d="M93.026,158.19c-14.657,0.461-29.315,0.923-43.972,1.382c-0.073-0.658-0.092-1.325-0.228-1.968
			c-1.087-5.153,1.208-7.088,6.229-8.022c9.726-1.811,19.31-4.381,28.954-6.636c-2.84,4.835-0.77,7.66,3.671,10.005
			C89.838,154.091,92.828,154.855,93.026,158.19z"/>
		<path style="fill:#E4232B;" d="M93.026,158.19c-0.199-3.335-3.189-4.099-5.346-5.238c-4.441-2.345-6.511-5.17-3.671-10.005
			c0.928-0.7,1.857-1.401,2.786-2.102c1.455,2.678,4.135,3.795,6.603,5.183c9.638,8.604,20.171,16.056,30.523,23.741
			c0.151,2.296,0.301,4.591,0.452,6.891c-0.112,0.213-0.231,0.419-0.359,0.62c-8.371-4.659-15.968-10.49-23.88-15.84
			C97.911,159.936,95.666,158.685,93.026,158.19z"/>
		<path style="fill:#B9573F;" d="M153.894,113.01c-5.69,6.243-11.364,12.5-17.075,18.724c-3.466,3.777-8.049,4.266-12.795,4.205
			c-7.724-0.021-12.676-4.789-17.565-9.939c-3.99-4.202-8.384-8.022-12.599-12.011c-0.366-1.798-0.486-3.597-0.018-5.394
			c1.497,0.632,2.25,2.449,4.074,2.553c5.103,5.198,10.043,10.569,15.358,15.54c4.532,4.238,16.495,5.138,21.087,1.222
			c5.376-4.585,10.653-9.463,14.117-15.845c2.566-0.385,3.29-3.145,5.365-4.163C153.861,109.603,153.878,111.306,153.894,113.01z"/>
		<path style="fill:#2F2672;" d="M153.844,107.9c-2.075,1.019-2.798,3.778-5.365,4.162c0.068-8.224,0.136-16.447,0.204-24.669
			c2.559-4.443,7.036-6.295,11.334-8.389c-0.069,5.088-0.181,10.177-0.194,15.265C159.808,99.7,157.188,103.95,153.844,107.9z"/>
		<path style="fill:#2F2672;" d="M97.918,111.147c-1.824-0.104-2.577-1.921-4.074-2.553c-6.305-5.88-5.613-13.637-5.708-21.187
			c-0.035-2.799-0.117-5.597-0.178-8.395c3.605,2.007,7.265,3.936,10.104,7.042C98.014,94.419,97.966,102.783,97.918,111.147z"/>
		<path style="fill:#CA1F2C;" d="M93.398,146.028c-2.468-1.388-5.148-2.506-6.603-5.183c1.566-2.662,4.148-0.899,6.205-1.422
			C94.086,141.567,93.804,143.794,93.398,146.028z"/>
		<path style="fill:#6C6BAF;" d="M71.246,7.795c-0.54,0.076-1.079,0.152-1.62,0.228c-0.525-0.335-0.544-0.861,0.027-0.907
			C70.162,7.074,70.713,7.548,71.246,7.795z"/>
		<path style="fill:#F5BE9B;" d="M97.918,111.147c0.048-8.364,0.096-16.728,0.144-25.093c5.846,3.41,12.051,5.66,18.895,5.842
			c0.375,0.155,0.75,0.309,1.124,0.462c1.636,1.895,3.037,4.207,6.157,3.471c2.95,0.463,4.829-0.883,5.946-3.518
			c0.302-0.043,0.575-0.157,0.819-0.34c5.345-0.752,10.789-1.165,15.359-4.539c0.766-0.565,1.542-0.378,2.321-0.04
			c-0.068,8.223-0.136,16.445-0.204,24.669c-3.463,6.384-8.741,11.261-14.116,15.847c-4.592,3.917-16.555,3.017-21.087-1.222
			C107.961,121.717,103.02,116.345,97.918,111.147z M110.017,100.385c7.237,4.204,15.012,4.028,22.883,3.086
			C125.279,102.371,117.568,101.933,110.017,100.385z"/>
		<path style="fill:#6C6BAF;" d="M113.858,66.081c1.565,0.161,3.708-0.941,4.533,0.803c0.751,1.588-0.998,2.965-1.92,4.298
			c-3.906,5.649-8.506,7.398-14.479,4.563c-4.52-2.145-10.073-2.849-12.926-7.759c-0.492-0.847-2.221-1.699-0.959-2.864
			c1.017-0.939,2.536-1.857,3.89-0.15c-0.065,3.248,1.622,4.723,4.773,4.988c2.938,0.246,5.925,0.451,8.769,1.16
			C110.189,72.28,112.628,70.307,113.858,66.081z"/>
		<path style="fill:#6C6BAF;" d="M118.082,92.36c-0.375-0.154-0.749-0.309-1.124-0.463c0.76-8.524,3.413-16.645,5.37-24.913
			c0.093-0.395,1.038-0.589,1.585-0.875c0.013,0.625,0.026,1.248,0.04,1.871c0.058,8.03,0.115,16.06,0.172,24.09
			c-0.055,0.202-0.106,0.405-0.152,0.609C122.037,92.036,120.062,92.144,118.082,92.36z"/>
		<path style="fill:#F2F2F7;" d="M113.858,66.081c-1.23,4.226-3.669,6.199-8.32,5.039c-2.844-0.709-5.831-0.914-8.769-1.16
			c-3.151-0.264-4.837-1.74-4.773-4.988C99.284,65.342,106.571,65.712,113.858,66.081z"/>
		<path style="fill:#6C6BAF;" d="M155.959,65.113c1.645-2.19,2.84,0.795,4.974-0.507c-5.055,8.388-12.985,10.692-20.362,12.988
			c-3.718,1.157-6.73-3.403-9.488-6.151c-1.262-1.257-2.119-2.929-2.362-4.886c1.706-1.003,3.535-0.407,5.275-0.557
			c0.844,4.056,2.667,6.462,7.421,5.173c2.673-0.725,5.521-1.058,8.296-1.091C153.256,70.04,155.263,68.514,155.959,65.113z"/>
		<path style="fill:#F2F2F7;" d="M155.959,65.113c-0.695,3.402-2.703,4.927-6.246,4.969c-2.775,0.033-5.623,0.366-8.296,1.091
			c-4.754,1.289-6.577-1.117-7.421-5.173C141.316,65.705,148.637,65.409,155.959,65.113z"/>
		<path style="fill:#483A85;" d="M124.124,92.071c-0.057-8.03-0.114-16.06-0.172-24.09c1.417,0.106,1.828,0.984,2.113,2.284
			c1.586,7.249,3.281,14.474,4.938,21.708c-0.244,0.183-0.517,0.297-0.819,0.339C128.163,92.231,126.144,92.151,124.124,92.071z"/>
		<path style="fill:#F59C75;" d="M110.017,100.385c7.551,1.548,15.262,1.986,22.883,3.086
			C125.029,104.413,117.253,104.589,110.017,100.385z"/>
		<path style="fill:#B9573F;" d="M124.124,92.071c2.02,0.08,4.04,0.16,6.06,0.241c-1.116,2.636-2.996,3.982-5.947,3.52
			c-0.089-1.05-0.177-2.101-0.265-3.151C124.018,92.476,124.068,92.273,124.124,92.071z"/>
		<path style="fill:#F59C75;" d="M123.972,92.68c0.088,1.051,0.176,2.101,0.265,3.151c-3.119,0.735-4.52-1.577-6.156-3.472
			C120.062,92.144,122.037,92.036,123.972,92.68z"/>
	</g>
</g>
</svg>
