<?xml version="1.0" encoding="iso-8859-1"?>
<!-- Generator: Adobe Illustrator 23.0.3, SVG Export Plug-In . SVG Version: 6.00 Build 0)  -->
<svg version="1.1" id="Layer_1" xmlns="http://www.w3.org/2000/svg" xmlns:xlink="http://www.w3.org/1999/xlink" x="0px" y="0px"
	 viewBox="0 0 250 250" style="enable-background:new 0 0 250 250;" xml:space="preserve">
<g>
	<g>
		<path style="fill:none;" d="M124,251c-41,0-82,0-123,0C1,167.667,1,84.333,1,1c82,0,164,0.027,246-0.096
			c3.424-0.005,4.101,0.672,4.096,4.096c-0.124,80.666-0.124,161.333,0,242c0.005,3.424-0.67,4.111-4.096,4.099
			C206.334,250.946,165.667,251,125,251c0.467-0.465,0.903-0.967,1.405-1.39c25.534-21.531,51.031-43.107,76.674-64.508
			c2.862-2.389,4.003-4.763,3.84-8.428c-0.288-6.472-0.28-12.974,0.002-19.446c0.145-3.334-1.027-4.545-4.197-5.24
			c-15.558-3.415-31.062-7.073-46.584-10.645c-0.185-9.455-0.371-18.911-0.557-28.367c0.05-1.306,0.1-2.613,0.15-3.919
			c0.289-0.93,0.302-2.136,0.911-2.746c4.077-4.081,4.874-9.127,5.073-14.604c0.142-3.915-0.484-7.963,1.089-11.764
			c0.15-1.368,0.301-2.737,0.451-4.105c3.087-2.373,5.402-5.146,6.255-9.172c3.247-15.317,4.012-30.863,5.1-47.943
			c-3.742,6.024-6.374,10.992-10.294,15.027c1.808-11.654-3.623-19.298-13.483-24.596c-13.453-7.229-27.612-7.964-42.138-4.492
			c-8.128,1.943-14.814,6.347-20.475,12.621c-4.613,5.113-2.435,11.019-2.97,16.627c-4.086-3.835-6.394-8.999-10.369-14.479
			c0.587,15.418,1.862,29.516,4.166,43.522c0.882,5.362,2.302,10.418,7.792,13.032c0.196,6.105,0.481,12.21,0.562,18.317
			c0.071,5.351,1.385,10.104,5.627,13.7c0.007,1.334,0.015,2.668,0.022,4.002c-0.151,9.841-0.302,19.682-0.453,29.523
			c-14.349,3.547-28.69,7.128-43.056,10.609c-2.455,0.595-3.527,1.632-3.458,4.369c0.197,7.817,0.176,15.644,0.009,23.462
			c-0.056,2.631,0.949,4.231,2.878,5.877c11.26,9.609,22.365,19.399,33.596,29.042c13.742,11.799,27.557,23.514,41.341,35.265
			C123.954,250.433,123.984,250.716,124,251z"/>
		<path style="fill:#D54202;" d="M124,251c-0.016-0.284-0.046-0.567-0.089-0.848c0.005-9.078,0.01-18.156,0.015-27.234
			c0.096-0.223,0.154-0.456,0.176-0.698c10.527-9.351,19.77-19.989,29.872-29.765c1.751-1.694,0.781-2.642-0.349-4.079
			c-5.938-7.55-12.893-12.536-23.208-10.445c-2.053,0.416-4.285-0.052-6.435-0.112c-0.002-4.258-0.004-8.515-0.006-12.773
			c3.434-0.378,6.953-0.4,10.285-1.201c10.793-2.596,22.372-7.344,21.879-22.503c15.523,3.572,31.027,7.231,46.585,10.645
			c3.17,0.696,4.342,1.907,4.197,5.24c-0.281,6.472-0.289,12.975-0.002,19.446c0.163,3.665-0.978,6.039-3.84,8.428
			c-25.643,21.401-51.14,42.977-76.674,64.508c-0.502,0.423-0.938,0.925-1.405,1.39C124.667,251,124.333,251,124,251z"/>
		<path style="fill:#FE6619;" d="M123.925,222.919c-0.005,9.078-0.009,18.156-0.014,27.233
			c-13.784-11.751-27.598-23.466-41.341-35.266c-11.231-9.643-22.336-19.433-33.596-29.042c-1.929-1.647-2.935-3.246-2.878-5.877
			c0.167-7.818,0.188-15.645-0.009-23.462c-0.069-2.737,1.003-3.774,3.458-4.369c14.365-3.481,28.706-7.062,43.056-10.608
			c-0.611,9.07,3.535,15.161,11.598,19.013c6.284,3.002,12.947,4.051,19.778,4.506c0.002,4.258,0.004,8.515,0.006,12.773
			l0.037,0.375c-5.31-0.065-10.62-0.105-15.93-0.209c-1.558-0.03-2.882,0.268-4.077,1.389c-3.024,2.839-6.078,5.651-9.236,8.339
			c-1.552,1.321-1.996,2.24-0.36,3.956c9.271,9.723,18.432,19.552,27.63,29.345c0.313,0.336,0.626,0.672,0.939,1.007
			C123.299,222.321,123.612,222.62,123.925,222.919z"/>
		<path style="fill:#145988;" d="M85.252,33.911c0.536-5.609-1.642-11.515,2.971-16.628c5.661-6.274,12.347-10.678,20.475-12.621
			c14.526-3.473,28.685-2.737,42.138,4.492c9.859,5.298,15.29,12.942,13.482,24.595c-1.075,1.247-2.099,2.543-3.232,3.736
			c-6.001,6.319-13.943,10.042-20.668,15.41c-8.72,6.962-12.152,17.814-8.822,28.368c1.026,3.253,2.647,5.282,6.333,4.841
			c-4.625,1.004-7.454,4.504-10.334,7.758c-2.079,2.35-3.508,2.222-5.483-0.018c-2.81-3.186-5.785-6.255-9.988-7.671
			c3.651,0.276,4.888-2.254,5.695-5.08c2.569-8.998,0.874-21.96-9.074-28.325c-4.88-3.123-9.518-6.625-14.265-9.955
			C90.94,40.329,87.563,37.672,85.252,33.911z"/>
		<path style="fill:#83584A;" d="M112.126,86.174c4.203,1.416,7.178,4.485,9.988,7.671c1.975,2.239,3.404,2.368,5.483,0.018
			c2.88-3.255,5.709-6.754,10.334-7.759c1.84-1.424,4.182-1.222,6.245-1.927c1.538,1.53,3.064,0.356,4.552-0.072
			c4.703-1.353,9.388-2.77,14.079-4.162c-1.573,3.802-0.947,7.849-1.089,11.765c-0.198,5.476-0.996,10.522-5.073,14.604
			c-0.609,0.61-0.622,1.816-0.911,2.746c-1.985-0.102-2.883,1.499-3.978,2.666c-4.205,4.477-8.257,9.1-12.506,13.533
			c-7.781,8.117-20.018,8.251-27.981,0.456c-6.055-5.927-12.156-11.808-18.237-17.71c-4.242-3.596-5.556-8.348-5.627-13.7
			c-0.081-6.107-0.366-12.211-0.561-18.317C94.703,80.79,103.18,84.063,112.126,86.174z M132.875,102.454
			c-6.98-0.643-13.968,0.058-20.914-0.878C118.844,104.179,125.801,105.037,132.875,102.454z"/>
		<path style="fill:#562D23;" d="M123.976,165.046c-6.83-0.455-13.494-1.504-19.778-4.506c-8.062-3.852-12.209-9.943-11.598-19.013
			c0.151-9.842,0.302-19.683,0.453-29.524c5.03,4.551,10.691,8.587,14.937,13.78c5.823,7.12,12.806,9.209,21.475,8.294
			c3.887-0.41,7.349-1.65,9.474-4.717c3.622-5.228,9.062-8.775,12.455-14.167c0.887-1.41,2.284-2.442,4.189-2.217
			c0.186,9.456,0.372,18.912,0.557,28.367c0.493,15.159-11.087,19.907-21.88,22.502
			C130.929,164.647,127.409,164.668,123.976,165.046z"/>
		<path style="fill:#FA671C;" d="M144.175,84.177c-2.062,0.705-4.404,0.503-6.245,1.927c-3.686,0.442-5.307-1.588-6.333-4.841
			c-3.329-10.554,0.102-21.406,8.822-28.368c6.725-5.369,14.667-9.091,20.668-15.41c1.133-1.193,2.157-2.488,3.232-3.736
			c3.919-4.034,6.552-9.002,10.294-15.026c-1.088,17.08-1.852,32.626-5.1,47.943c-0.854,4.026-3.168,6.8-6.255,9.173
			C156.991,78.836,150.929,82.299,144.175,84.177z M160.201,63.54c-3.485-1.094-6.938-0.129-10.306,0.451
			c-16.034,2.762-12.896-1.392-12.865,15.148c-0.411,1.956-0.22,3.354,2.372,2.702c8.565-2.154,15.989-6.06,20.822-13.794
			C161.071,66.693,162.834,65.015,160.201,63.54z"/>
		<path style="fill:#FB661B;" d="M112.126,86.174c-8.945-2.111-17.423-5.384-25.283-10.188c-5.491-2.614-6.91-7.67-7.793-13.032
			c-2.305-14.006-3.58-28.104-4.166-43.522c3.975,5.48,6.283,10.644,10.369,14.479c2.31,3.762,5.687,6.419,9.229,8.904
			c4.747,3.331,9.385,6.833,14.265,9.955c9.948,6.365,11.643,19.327,9.074,28.325C117.014,83.92,115.777,86.449,112.126,86.174z
			 M89.015,63.616c-1.714,0.88-1.052,2.168-0.538,3.379c2.72,6.403,15.561,14.968,22.334,14.998
			c2.647,0.012,2.067-1.372,1.415-2.881c0.125-3.484,0.247-6.968,0.376-10.451c0.053-1.428-0.127-2.613-1.919-2.902
			C103.502,64.599,96.415,62.54,89.015,63.616z"/>
		<path style="fill:#41221B;" d="M155.584,112.976c-1.905-0.225-3.301,0.807-4.189,2.217c-3.393,5.392-8.833,8.939-12.455,14.167
			c-2.125,3.067-5.587,4.307-9.474,4.717c-8.669,0.915-15.653-1.175-21.475-8.294c-4.247-5.192-9.907-9.228-14.937-13.78
			c-0.007-1.334-0.015-2.668-0.022-4.002c6.081,5.902,12.182,11.782,18.237,17.71c7.964,7.795,20.2,7.661,27.981-0.456
			c4.25-4.433,8.302-9.055,12.506-13.533c1.096-1.167,1.993-2.768,3.978-2.666C155.683,110.364,155.634,111.67,155.584,112.976z"/>
		<path style="fill:#295F85;" d="M144.175,84.177c6.755-1.878,12.817-5.341,19.083-8.338c-0.151,1.367-0.301,2.736-0.451,4.104
			c-4.692,1.392-9.376,2.809-14.079,4.161C147.239,84.533,145.713,85.707,144.175,84.177z"/>
		<path style="fill:#D0D1D1;" d="M123.982,177.819c2.15,0.06,4.382,0.529,6.435,0.112c10.315-2.091,17.271,2.894,23.208,10.445
			c1.13,1.437,2.099,2.385,0.349,4.079c-10.101,9.776-19.345,20.414-29.872,29.765c-0.028-14.676-0.055-29.351-0.083-44.027
			L123.982,177.819z"/>
		<path style="fill:#E5E5E5;" d="M124.019,178.194c0.028,14.675,0.055,29.351,0.083,44.027c-0.022,0.242-0.081,0.474-0.176,0.698
			c-0.314-0.299-0.627-0.598-0.94-0.897c-0.313-0.336-0.626-0.672-0.939-1.008c-9.198-9.793-18.358-19.622-27.63-29.345
			c-1.636-1.716-1.192-2.635,0.36-3.956c3.158-2.688,6.212-5.5,9.236-8.339c1.195-1.121,2.519-1.42,4.077-1.389
			C113.399,178.089,118.709,178.129,124.019,178.194z"/>
		<path style="fill:#D0D1D1;" d="M122.046,221.014c0.313,0.336,0.626,0.672,0.939,1.008
			C122.673,221.686,122.359,221.35,122.046,221.014z"/>
		<path style="fill:#61372C;" d="M132.875,102.454c-7.074,2.584-14.031,1.726-20.914-0.878
			C118.906,102.512,125.895,101.81,132.875,102.454z"/>
		<path style="fill:#FAF8F8;" d="M137.03,79.139c-0.031-16.541-3.169-12.387,12.865-15.148c3.368-0.58,6.821-1.545,10.306-0.449
			C154.881,72.314,147.315,77.746,137.03,79.139z"/>
		<path style="fill:#295F85;" d="M137.03,79.139c10.285-1.393,17.852-6.825,23.17-15.598c2.634,1.474,0.87,3.152,0.024,4.506
			c-4.833,7.733-12.257,11.64-20.822,13.794C136.81,82.493,136.619,81.095,137.03,79.139z"/>
		<path style="fill:#FCF5F2;" d="M89.015,63.616c7.401-1.075,14.488,0.983,21.668,2.142c1.793,0.289,1.972,1.474,1.919,2.902
			c-0.128,3.484-0.251,6.967-0.375,10.451C101.883,77.852,94.639,71.947,89.015,63.616z"/>
		<path style="fill:#28628A;" d="M89.015,63.616c5.624,8.332,12.868,14.236,23.213,15.495c0.651,1.51,1.231,2.894-1.416,2.882
			c-6.773-0.031-19.614-8.595-22.334-14.998C87.962,65.783,87.3,64.496,89.015,63.616z"/>
	</g>
</g>
</svg>
