<?xml version="1.0" encoding="iso-8859-1"?>
<!-- Generator: Adobe Illustrator 23.0.3, SVG Export Plug-In . SVG Version: 6.00 Build 0)  -->
<svg version="1.1" id="Layer_1" xmlns="http://www.w3.org/2000/svg" xmlns:xlink="http://www.w3.org/1999/xlink" x="0px" y="0px"
	 viewBox="0 0 250 250" style="enable-background:new 0 0 250 250;" xml:space="preserve">
<g>
	<g>
		<path style="fill:none;" d="M124,251c-41,0-82,0-123,0C1,167.667,1,84.333,1,1c82,0,164,0.027,246-0.096
			c3.424-0.005,4.101,0.672,4.096,4.096c-0.124,80.666-0.124,161.333,0,242c0.005,3.424-0.67,4.112-4.096,4.099
			C206.667,250.945,166.333,251,126,251c-0.072-0.326-0.144-0.653-0.216-0.979c26.128-21.948,52.249-43.904,78.404-65.819
			c1.395-1.169,2.044-2.391,2.012-4.236c-0.148-8.322-0.179-16.646-0.252-24.969c-0.153-1.427-1.438-1.206-2.27-1.399
			c-15.845-3.685-31.704-7.314-47.56-10.954c-0.175-9.56-0.35-19.119-0.525-28.679c0.038-1.359,0.075-2.719,0.113-4.079
			c0.443-0.925,0.887-1.85,1.33-2.775c1.544-1.069,2.263-2.71,3.016-4.332c1.913-4.126,0.843-8.686,1.889-12.938
			c4.753-0.194,6.454-3.367,6.881-7.429c0.254-2.416-0.065-4.893-0.127-7.343c1.383-4.154,3.744-8.33-0.285-12.371
			c-0.006-0.009-0.056-0.09-0.056-0.09c0.581-1.339-0.301-2.042-1.192-2.74c-0.425-1.6-1.77-2.2-3.083-2.835
			c-0.08-9.274-0.376-18.553-0.14-27.818c0.103-4.028-1.22-7.022-3.879-9.763c-9.885-10.187-22.118-14.118-36.031-13.634
			c-2.643-0.854-5.282-0.043-7.855,0.257c-11.283,1.318-21.044,5.683-28.133,14.963c-1.208,1.582-2.308,3.175-2.226,5.368
			c0.374,9.93,0.668,19.862,0.99,29.794c-1.278,0.925-3.1,1.084-3.858,2.74c-5.557,4.813-6.058,9.592-1.809,17.271
			c-0.095,4.554-1.56,10.006,3.475,12.482c3.58,1.76,3.582,4.009,3.536,6.953c-0.085,5.49,0.981,10.512,5.856,13.922l-0.032-0.125
			c-0.684,1.799-0.571,3.609-0.079,5.425c-0.853,1.902-0.356,3.91-0.436,5.868c-0.306,7.413,0.563,14.852-0.49,22.249
			c-14.04,3.497-28.08,6.994-42.119,10.492c-2.746,0.049-3.532,1.452-3.471,4.133c0.17,7.479,0.19,14.967-0.006,22.445
			c-0.078,2.954,0.898,4.921,3.118,6.817c15.924,13.597,31.838,27.208,47.577,41.019C106.769,235.525,116.08,242.486,124,251z"/>
		<path style="fill:#0E73B6;" d="M124,251c-7.92-8.514-17.231-15.475-25.932-23.11c-15.739-13.81-31.653-27.421-47.577-41.019
			c-2.22-1.896-3.196-3.863-3.118-6.817c0.197-7.478,0.177-14.966,0.006-22.445c-0.061-2.68,0.725-4.084,3.471-4.132
			c3.062,3.84,7.931,3.812,11.991,5.329c20.308,7.59,40.747,14.83,61.139,22.192c0.287,0.036,0.574,0.075,0.861,0.118
			c0.029,21.224,0.043,42.447,0.113,63.67c0.006,1.759-0.598,3.677,0.831,5.234c0.072,0.326,0.144,0.653,0.216,0.979
			C125.333,251,124.667,251,124,251z"/>
		<path style="fill:#065371;" d="M125.784,250.021c-1.428-1.558-0.825-3.476-0.831-5.234c-0.069-21.223-0.084-42.447-0.111-63.672
			c2.07-0.546,4.173-0.99,6.204-1.652c24.973-8.137,49.936-16.306,74.902-24.467c0.073,8.323,0.104,16.647,0.252,24.969
			c0.033,1.845-0.616,3.067-2.012,4.236C178.033,206.117,151.912,228.073,125.784,250.021z"/>
		<path style="fill:#025E8C;" d="M124.029,5.817c13.913-0.484,26.146,3.447,36.031,13.634c2.659,2.741,3.982,5.735,3.879,9.763
			c-0.236,9.266,0.06,18.545,0.139,27.818c-2.387-0.77-4.831-0.921-7.332-0.922c-10.918-0.004-21.837-0.101-32.755-0.164
			C124.004,39.236,124.017,22.526,124.029,5.817z"/>
		<path style="fill:#0F73B9;" d="M124.029,5.817c-0.013,16.709-0.025,33.419-0.038,50.128c-12.395,0.084-24.79,0.169-37.185,0.253
			c-0.323-9.932-0.616-19.864-0.99-29.794c-0.083-2.193,1.017-3.786,2.226-5.368c7.089-9.28,16.85-13.645,28.133-14.963
			C118.747,5.773,121.386,4.963,124.029,5.817z"/>
		<path style="fill:#09485C;" d="M205.948,154.996c-24.966,8.161-49.929,16.33-74.902,24.467c-2.031,0.662-4.133,1.105-6.204,1.652
			c-0.288-0.042-0.575-0.081-0.862-0.117c0.023-4.993,0.047-9.987,0.07-14.98c0.284-0.038,0.567-0.087,0.848-0.147
			c2.618-0.297,5.257-0.469,7.85-0.912c12.376-2.117,24.141-8.404,23.371-22.316c15.856,3.64,31.714,7.269,47.56,10.954
			C204.51,153.79,205.795,153.569,205.948,154.996z"/>
		<path style="fill:#0D71B7;" d="M124.898,165.871c-0.281,0.06-0.563,0.108-0.848,0.147c-4.68-0.838-9.523-1.173-14.006-2.619
			c-9.02-2.909-16.986-7.143-16.164-18.758c0.037-0.528-0.591-1.103-0.91-1.656c1.053-7.397,0.184-14.836,0.49-22.249
			c0.081-1.958-0.416-3.966,0.437-5.867c6.008,4.235,11.142,9.457,16.119,14.785c4.122,4.412,8.718,7.088,14.895,6.426
			C124.907,146.01,124.902,155.941,124.898,165.871z"/>
		<path style="fill:#005D8B;" d="M124.898,165.871c0.004-9.93,0.009-19.861,0.014-29.792c9.226,1.35,13.98-5.061,19.027-10.961
			c3.513-4.107,6.845-8.402,11.654-11.154c0.175,9.56,0.35,19.12,0.525,28.679c0.77,13.912-10.995,20.198-23.371,22.315
			C130.155,165.402,127.515,165.574,124.898,165.871z"/>
		<path style="fill:#1D88C1;" d="M92.969,142.985c0.318,0.553,0.947,1.128,0.91,1.656c-0.822,11.615,7.145,15.849,16.164,18.758
			c4.484,1.446,9.326,1.781,14.006,2.619c-0.023,4.994-0.046,9.987-0.07,14.98c-20.393-7.363-40.831-14.603-61.139-22.192
			c-4.059-1.517-8.928-1.489-11.991-5.329C64.89,149.979,78.93,146.482,92.969,142.985z"/>
		<path style="fill:#F3BE9B;" d="M93.975,109.442c0,0,0.032,0.125,0.032,0.125c-0.802-6.406-2.069-12.799-0.777-19.281
			c0.387-1.939,0.562-3.948,3.704-3.03c7.08,2.068,14.116,1.133,21.05-0.994c-0.514,6.786,1.142,9.377,6.924,10.833
			c0.156,6.421,0.163,6.183-5.855,6.02c-2.412-0.065-4.796-1.696-8.111-0.596c3.791,2.412,7.358,2.436,10.664,3.114
			c2.711,0.556,3.481,1.728,3.429,4.342c-0.144,7.322-0.057,14.648-0.062,21.972c-4.167,0.713-8.127-0.002-11.183-2.907
			C107.059,122.64,100.566,115.99,93.975,109.442z"/>
		<path style="fill:#F9C015;" d="M81.139,76.21c-4.249-7.679-3.748-12.459,1.809-17.271c0,0,0.028,0.039,0.028,0.039
			c-0.033,0.638-0.066,1.276-0.098,1.914c-0.136,0.224-0.274,0.446-0.411,0.669c0.238-0.122,0.476-0.244,0.715-0.365
			c13.936-0.092,27.872-0.184,41.808-0.275c0.009,1.34,0.018,2.679,0.027,4.019c-11.475,0.038-22.95,0.066-34.425,0.124
			c-2.078,0.011-4.477-0.605-4.477,2.937c0,3.543,2.399,2.927,4.477,2.937c11.475,0.058,22.95,0.086,34.425,0.124
			c-0.052,1.412-0.103,2.824-0.155,4.236c-5.085,4.328-11.019,5.233-17.487,4.76c-4.762-0.348-9.576-0.228-14.354-0.022
			C88.52,80.23,84.557,79.171,81.139,76.21z"/>
		<path style="fill:#1575B7;" d="M81.139,76.21c3.418,2.961,7.381,4.021,11.881,3.826c4.778-0.206,9.592-0.326,14.354,0.022
			c6.468,0.473,12.401-0.432,17.487-4.76c0.018,0.229,0.065,0.452,0.142,0.669c-0.03,2.679-0.059,5.359-0.089,8.038
			c-2.31,0.752-4.62,1.505-6.93,2.257c-6.934,2.127-13.97,3.062-21.05,0.994c-3.142-0.918-3.317,1.091-3.704,3.03
			c-1.292,6.482-0.025,12.875,0.777,19.281c-4.875-3.411-5.941-8.432-5.856-13.922c0.046-2.944,0.044-5.193-3.536-6.953
			C79.579,86.216,81.044,80.764,81.139,76.21z"/>
		<path style="fill:#FBDA0F;" d="M125.003,75.967c-0.076-0.217-0.124-0.44-0.142-0.669c0.052-1.412,0.103-2.824,0.155-4.237
			c10.823-0.045,21.646-0.075,32.469-0.146c2.054-0.014,4.479,0.67,4.479-2.915c0-3.584-2.425-2.901-4.479-2.915
			c-10.823-0.072-21.646-0.102-32.469-0.147c-0.009-1.34-0.018-2.679-0.027-4.018c14.01,0.428,28.076-1.309,42.035,1.095
			c0,0-0.049-0.04-0.049-0.04c0.48,0.243,0.961,0.487,1.441,0.73c4.022,4.032,1.661,8.208,0.279,12.362
			c-0.884,0.694-1.768,1.388-2.652,2.082c-0.153-1.69-1.166-2.339-2.725-2.032c-9.693,1.907-19.482,0.423-29.216,0.862
			c-2.15,0.097-4.325-0.137-6.251,1.124C126.901,76.725,125.952,76.346,125.003,75.967z"/>
		<path style="fill:#025E8C;" d="M125.003,75.967c0.949,0.379,1.898,0.758,2.847,1.137c1.146,1.279,2.485,2.258,4.179,2.685
			c9.306-0.016,18.611-0.032,27.917-0.049c0.678,0.03,1.356,0.06,2.034,0.09c-0.013,3.337-0.026,6.673-0.039,10.01
			c-1.046,4.252,0.025,8.811-1.889,12.938c-0.752,1.622-1.472,3.263-3.015,4.331c-0.562,0.002-1.125,0.005-1.688,0.008
			c1.289-5.566,1.366-11.187,0.524-16.804c-0.216-1.44-0.135-3.953-2.65-3.193c-7.591,2.293-15.001,0.787-22.448-0.589
			c-1.849-0.565-3.7-1.128-5.552-1.691c-0.043-0.301-0.146-0.579-0.31-0.835C124.944,81.326,124.973,78.646,125.003,75.967z"/>
		<path style="fill:#065371;" d="M93.975,109.442c6.591,6.548,13.084,13.197,19.815,19.597c3.056,2.906,7.016,3.62,11.183,2.907
			c6.563,1.236,11.458-1.275,15.632-6.314c4.528-5.466,9.493-10.571,14.267-15.833l0.409,0.118l0.424-0.033
			c-0.038,1.36-0.075,2.72-0.113,4.079c-4.809,2.752-8.141,7.047-11.654,11.153c-5.047,5.9-9.802,12.311-19.027,10.961
			c-6.179,0.662-10.775-2.013-14.896-6.425c-4.977-5.328-10.111-10.55-16.119-14.785C93.404,113.052,93.292,111.241,93.975,109.442z
			"/>
		<path style="fill:#F9C015;" d="M86.806,56.198c12.395-0.084,24.79-0.169,37.185-0.253c10.918,0.063,21.837,0.16,32.755,0.164
			c2.501,0.001,4.945,0.152,7.332,0.922c1.313,0.636,2.657,1.236,3.083,2.835l-0.145,0.121c-4.347-2.342-8.946-3.118-13.907-3.045
			c-13.321,0.194-26.648-0.096-39.969,0.095c-10.076,0.144-20.281-1.324-30.165,1.941c0,0-0.028-0.038-0.028-0.039
			C83.707,57.282,85.528,57.123,86.806,56.198z"/>
		<path style="fill:#1D88C1;" d="M161.94,89.84c0.013-3.337,0.026-6.673,0.039-10.01c0.064-0.241,0.136-0.48,0.216-0.717
			c0.924,0.004,1.786-0.135,2.339-0.999c0.716,0.012,1.313-0.161,1.508-0.964c0.884-0.694,1.768-1.388,2.652-2.082
			c0.061,2.449,0.381,4.926,0.127,7.342C168.394,86.473,166.693,89.646,161.94,89.84z"/>
		<path style="fill:#1D88C1;" d="M155.706,109.885l-0.424,0.033c0,0-0.409-0.118-0.409-0.116c0.158-0.894,0.317-1.789,0.476-2.685
			c0.563-0.003,1.126-0.006,1.688-0.008C156.593,108.035,156.149,108.96,155.706,109.885z"/>
		<path style="fill:#F9C015;" d="M167.162,59.866c0.891,0.699,1.773,1.401,1.187,2.734c-0.461-0.213-0.918-0.419-1.374-0.625
			c0,0,0.049,0.04,0.05,0.04c-0.002-0.676-0.005-1.352-0.007-2.028L167.162,59.866z"/>
		<path style="fill:#FCE482;" d="M166.975,61.976c0.456,0.206,0.913,0.412,1.374,0.625c0.005,0.006,0.054,0.088,0.061,0.097
			C167.935,62.462,167.455,62.219,166.975,61.976z"/>
		<path style="fill:#F39D76;" d="M155.349,107.117c-0.159,0.895-0.318,1.791-0.476,2.685c-4.774,5.261-9.738,10.365-14.267,15.831
			c-4.174,5.038-9.069,7.55-15.632,6.314c0.004-7.324-0.083-14.651,0.062-21.972c0.052-2.614-0.718-3.785-3.429-4.342
			c-3.306-0.678-6.873-0.702-10.664-3.114c3.314-1.1,5.698,0.531,8.111,0.596c6.017,0.163,6.011,0.401,5.855-6.021
			c0.001-0.001,0.345-0.351,0.345-0.351c5.336-1.111,6.126-2.572,5.52-10.211c7.449,1.374,14.859,2.88,22.451,0.587
			c2.515-0.76,2.434,1.753,2.65,3.193C156.715,95.93,156.638,101.551,155.349,107.117z"/>
		<path style="fill:#F39D76;" d="M124.914,84.005c0.164,0.256,0.267,0.534,0.308,0.834c0.009,3.967,0.02,7.936,0.031,11.904
			c0,0-0.344,0.35-0.345,0.351c-5.783-1.455-7.439-4.046-6.925-10.833C120.294,85.51,122.604,84.757,124.914,84.005z"/>
		<path style="fill:#EE4C34;" d="M125.016,64.939c10.823,0.045,21.646,0.075,32.469,0.147c2.054,0.014,4.479-0.67,4.479,2.915
			c0,3.584-2.425,2.901-4.479,2.915c-10.823,0.071-21.646,0.102-32.469,0.146c-11.475-0.038-22.95-0.066-34.425-0.124
			c-2.078-0.011-4.477,0.605-4.477-2.937c0-3.543,2.399-2.927,4.477-2.937C102.066,65.005,113.541,64.977,125.016,64.939z"/>
		<path style="fill:#FCE482;" d="M167.017,59.988c0.003,0.676,0.005,1.352,0.007,2.028c-13.959-2.404-28.025-0.667-42.035-1.095
			c-13.936,0.091-27.872,0.183-41.808,0.275c0,0-0.305-0.305-0.305-0.305c0.033-0.638,0.066-1.276,0.099-1.913
			c9.883-3.265,20.088-1.796,30.164-1.941c13.321-0.19,26.648,0.1,39.969-0.095C158.07,56.87,162.67,57.646,167.017,59.988z"/>
		<path style="fill:#FCE482;" d="M83.181,61.195c-0.238,0.122-0.476,0.244-0.715,0.365c0.137-0.223,0.275-0.445,0.411-0.669
			C82.877,60.891,83.181,61.195,83.181,61.195z"/>
		<path style="fill:#F9C015;" d="M166.042,77.15c-0.195,0.803-0.792,0.976-1.509,0.964c-0.725,0.463-2.42-1.349-2.338,0.999
			c-0.079,0.237-0.151,0.476-0.216,0.717c-0.678-0.03-1.356-0.06-2.034-0.09c-9.308-1.208-18.613-1.285-27.916,0.049
			c-1.694-0.426-3.033-1.406-4.179-2.685c1.927-1.261,4.101-1.027,6.251-1.124c9.734-0.439,19.523,1.046,29.216-0.862
			C164.876,74.811,165.889,75.461,166.042,77.15z"/>
		<path style="fill:#EE4C34;" d="M125.253,96.743c-0.011-3.968-0.022-7.937-0.031-11.904c1.853,0.564,3.704,1.127,5.553,1.692
			C131.379,94.171,130.589,95.632,125.253,96.743z"/>
		<path style="fill:#FBDA0F;" d="M132.028,79.789c9.303-1.334,18.609-1.257,27.916-0.049
			C150.64,79.756,141.334,79.772,132.028,79.789z"/>
		<path style="fill:#FBDA0F;" d="M162.195,79.113c-0.082-2.348,1.614-0.536,2.338-0.999
			C163.981,78.978,163.118,79.117,162.195,79.113z"/>
	</g>
</g>
</svg>
