<?xml version="1.0" encoding="iso-8859-1"?>
<!-- Generator: Adobe Illustrator 23.0.3, SVG Export Plug-In . SVG Version: 6.00 Build 0)  -->
<svg version="1.1" id="Layer_1" xmlns="http://www.w3.org/2000/svg" xmlns:xlink="http://www.w3.org/1999/xlink" x="0px" y="0px"
	 viewBox="0 0 250 250" style="enable-background:new 0 0 250 250;" xml:space="preserve">
<g>
	<g>
		<path style="fill:none;" d="M123,251c-40.667,0-81.333,0-122,0C1,167.667,1,84.333,1,1c82,0,164,0.027,246-0.096
			c3.424-0.005,4.101,0.672,4.096,4.096c-0.124,80.666-0.124,161.333,0,242c0.005,3.424-0.67,4.112-4.096,4.099
			C206.667,250.945,166.333,251,126,251c0.306-1.66,1.819-2.264,2.906-3.183c11.79-9.975,23.706-19.804,35.394-29.897
			c4.35-3.756,9.427-6.755,12.769-11.631c5.165-2.464,8.742-6.992,13.306-10.236c2.65-1.883,3.676-4.329,3.55-7.668
			c-0.243-6.462-0.065-12.94-0.061-19.411c5.027-1.687,10.384-2.568,15.749-6.242c-2.77-0.31-4.535-0.505-6.298-0.705
			c-20.793-2.359-34.543-23.071-28.011-42.735c1.541-4.639,2.649-9.202,2.953-14.021c2.178-1.155,0.007-2.824,0.494-4.18
			c0.116-2.002,0.232-4.003,0.348-6.003c4.069-17.309,4.389-34.576-0.904-51.697c-4.85-15.687-15.409-25.506-31.477-28.71
			c-11.181-2.229-22.699-3.341-33.972-3.864c-18.104-0.84-32.093,8.047-40.163,24.516C64.205,52.427,58.683,70.315,62.038,89.76
			c0.697,4.042,1.341,8.247,4.497,11.759c0.58-4.977,1.099-9.438,1.618-13.894c-0.001,0.005,0.38,0.054,0.38,0.054l0.383-0.024
			c0.633,5.094,2.327,10.324,1.693,15.255c-1.658,12.902-5.603,25.237-12.653,36.355c-3.498,5.517-7.784,10.09-15.517,10.429
			c12.172,6.635,26.819,6.818,33.645-1.873c0.478,0.009,0.957,0.018,1.435,0.027c-4.585,14.008-15.304,20.577-29.729,23.613
			c4.127,1.852,7.577,2.83,11.146,3.437c0.023,5.474,0.076,10.949,0.054,16.423c-0.008,1.875,0.081,3.599,1.724,4.921
			c4.504,3.624,8.391,8.001,13.417,10.99c8.801,8.986,18.915,16.492,28.16,24.973C109.159,238.508,116.982,243.761,123,251z"/>
		<path style="fill:#242F6A;" d="M123,251c-6.018-7.239-13.841-12.492-20.711-18.795c-9.245-8.482-19.36-15.987-28.159-24.975
			c2.477-1.851,6.548-1.75,7.162-5.874c1.942-13.06,3.887-26.119,5.83-39.179c12.11-1.128,11.591-11.921,14.763-20.154
			c1.557,1.204,2.699,2.087,3.843,2.971c4.625,4.146,9.164,8.394,13.915,12.39c2.118,1.781,3.665,3.647,3.788,6.477
			c0.262,1.778,0.524,3.555,0.786,5.333c1.933-5.673,4.202-10.776,9.32-14.518c4.487-3.281,8.255-7.544,12.34-11.373
			c2.623-2.265,4.003-1.289,4.679,1.746c1.855,8.327,4.73,15.84,14.468,17.747c1.06,12.194,2.13,24.388,3.167,36.584
			c0.138,1.623,0.762,2.762,2.299,3.49c2.232,1.058,4.389,2.273,6.578,3.422c-3.343,4.873-8.42,7.872-12.77,11.628
			c-11.688,10.092-23.603,19.922-35.394,29.897c-1.087,0.919-2.6,1.523-2.906,3.183C125,251,124,251,123,251z M139.014,224.531
			c-4.782-10.892-2.274-19.187,7.826-25.479c-12.158,0.976-18.715-4.778-21.562-16.376c-3.02,5.616-4.325,11.16-7.812,13.653
			c-3.484,2.49-9.151,1.926-13.952,2.716c0.258,0.597,0.303,0.988,0.521,1.163c6.8,5.451,11.87,11.438,7.969,21.062
			c-1.02,2.516,0.566,3.652,2.761,1.858c7.179-5.87,14.068-4.799,20.97,0.412C136.209,223.9,136.938,223.923,139.014,224.531z"/>
		<path style="fill:#EC028B;" d="M68.153,87.62c-0.52,4.461-1.039,8.922-1.619,13.9c-3.156-3.512-3.8-7.717-4.497-11.759
			c-3.355-19.445,2.168-37.334,10.545-54.428c8.07-16.468,22.059-25.356,40.163-24.516c11.273,0.523,22.79,1.635,33.972,3.864
			c16.068,3.204,26.627,13.022,31.477,28.71c5.293,17.121,4.972,34.388,0.904,51.696c-3.372-0.372-4.416-3.985-7.202-5.174
			c-0.624-0.955-1.247-1.91-1.871-2.864c-0.34-0.351-0.681-0.702-1.021-1.053c-0.052-0.117-0.084-0.25-0.164-0.343
			c-0.049-0.057-0.17-0.051-0.259-0.074c0.138,0.142,0.276,0.284,0.413,0.426c0.003,0.336,0.006,0.672,0.008,1.007
			c0.484,1.933,1.119,3.776,2.94,4.909c1.702,3.478,2.929,7.308,6.806,9.171c-0.487,1.355,1.684,3.024-0.494,4.18
			c-2.492-1.676-5.419-2.258-8.184-3.247c-2.585-1.152-5.169-2.304-7.754-3.456c-2.739-1.923-5.479-3.846-8.219-5.768
			c-0.552-0.415-1.104-0.831-1.657-1.246c-0.232-0.167-0.436-0.364-0.61-0.592c-4.512-4.668-9.024-9.336-13.537-14.004
			c-5.225-7.701-10.372-15.453-14.995-25.166c-3.447,10.948-9.7,18.941-12.555,28.519c-1.861,3.56-3.721,7.119-5.582,10.68
			c-0.38,0.039-0.76,0.076-1.14,0.114c-0.125-1.29-0.249-2.581-0.389-4.03c-1.586,0.748-2.285,1.71-2.518,3.033l-0.263,0.059
			c-0.266,0.46-0.533,0.921-0.799,1.381l0.108-0.078c-1.968,1.237-3.166,3.094-4.138,5.134c-2.496,2.666-4.924,5.382-6.48,8.745
			c-1.5,1.173-2.496,2.726-3.318,4.41c-0.766,0.63-1.822,1.105-2.249,1.914c-2.655,5.025-4.551,2.682-6.277-0.601
			c-5.27-10.025-6.647-20.704-5.272-31.846c0.378-3.064,1.917-6.021,1.289-10.632c-2.751,5.994-4.074,10.903-4.906,15.964
			C67.781,85.405,68.068,86.534,68.153,87.62z M167.01,82.988c0.049,0.116,0.078,0.248,0.153,0.343
			c0.045,0.056,0.162,0.056,0.246,0.081c-0.141-0.134-0.281-0.268-0.422-0.401c-0.254-0.348,0.464-1.354-0.724-1.068
			C166.512,82.29,166.761,82.639,167.01,82.988z M74.363,66.715c-0.045,0.121-0.153,0.258-0.125,0.36
			c0.114,0.424,0.319,0.443,0.507,0.048c0.045-0.094-0.007-0.272-0.076-0.369C74.629,66.698,74.469,66.726,74.363,66.715z
			 M104.66,85.573l-0.212-0.189l-0.047,0.305L104.66,85.573z"/>
		<path style="fill:#BC0375;" d="M68.809,84.558c0.833-5.061,2.156-9.97,4.906-15.964c0.628,4.611-0.911,7.568-1.289,10.632
			c-1.375,11.142,0.002,21.821,5.272,31.846c1.726,3.283,3.622,5.626,6.277,0.601c0.427-0.808,1.484-1.284,2.25-1.913
			c2.389-0.089,3.589,0.944,3.886,3.437c0.829,6.961,4.351,12.335,9.866,16.626c2.595,2.019,4.772,4.574,7.139,6.886
			c-0.087,1.698-0.174,3.397-0.261,5.095c-0.376,1.063-0.752,2.125-1.129,3.188c-1.143-0.884-2.286-1.767-3.842-2.971
			c-3.172,8.233-2.653,19.026-14.764,20.153c-7.538,1.89-15.013,4.113-22.636,5.545c-4.504,0.846-6.31,2.757-5.551,7.177
			c-3.569-0.607-7.019-1.585-11.146-3.437c14.425-3.037,25.144-9.605,29.727-23.611c0.52-0.484,0.749-1.42,0.258-1.601
			c-1.24-0.457-1.268,0.867-1.691,1.572c-6.826,8.691-21.472,8.508-33.645,1.873c7.733-0.339,12.019-4.912,15.517-10.429
			c7.05-11.118,10.995-23.452,12.653-36.355c0.634-4.931-1.06-10.161-1.692-15.251C68.881,86.629,68.845,85.593,68.809,84.558z"/>
		<path style="fill:#BC0375;" d="M170.071,102.025c2.765,0.988,5.691,1.571,8.184,3.247c-0.303,4.818-1.411,9.382-2.952,14.021
			c-6.532,19.664,7.218,40.377,28.011,42.735c1.764,0.2,3.528,0.395,6.298,0.705c-5.365,3.674-10.722,4.555-15.748,6.242
			c-9.612-2.06-19.226-4.119-28.839-6.178c-9.739-1.907-12.613-9.421-14.468-17.747c-0.676-3.036-2.057-4.011-4.679-1.749
			c-0.951-0.895-0.781-2.146-1.038-3.259c-0.285-1.685-0.57-3.371-0.855-5.057c6.057-7.839,15.445-13.516,16.12-24.847
			C165.499,109.979,167.991,106.254,170.071,102.025z"/>
		<path style="fill:#F5BE9C;" d="M165.025,162.796c9.614,2.059,19.227,4.118,28.839,6.178c-0.005,6.471-0.183,12.949,0.06,19.411
			c0.125,3.339-0.9,5.785-3.55,7.668c-4.564,3.244-8.141,7.772-13.306,10.236c-2.188-1.145-4.345-2.361-6.577-3.419
			c-1.537-0.728-2.161-1.867-2.299-3.49C167.155,187.183,166.085,174.99,165.025,162.796z"/>
		<path style="fill:#F5BD9B;" d="M58.935,174.898c-0.759-4.42,1.047-6.331,5.551-7.177c7.623-1.432,15.098-3.655,22.636-5.545
			c-1.943,13.061-3.888,26.12-5.83,39.18c-0.613,4.124-4.685,4.024-7.162,5.874c-5.027-2.987-8.914-7.364-13.418-10.988
			c-1.642-1.321-1.731-3.046-1.724-4.921C59.011,185.847,58.958,180.372,58.935,174.898z"/>
		<path style="fill:#BC0375;" d="M171.896,89.912c2.785,1.189,3.83,4.801,7.202,5.174c-0.116,2.001-0.232,4.002-0.348,6.004
			c-3.877-1.862-5.105-5.692-6.806-9.169C171.928,91.252,171.912,90.582,171.896,89.912z"/>
		<path style="fill:#EC9875;" d="M68.809,84.558c0.036,1.035,0.072,2.07,0.106,3.101c-0.001-0.004-0.384,0.02-0.384,0.02
			s-0.38-0.049-0.38-0.054C68.068,86.534,67.781,85.405,68.809,84.558z"/>
		<path style="fill:#F5BE9C;" d="M76.083,147.821c0.423-0.705,0.451-2.029,1.691-1.572c0.491,0.181,0.261,1.117-0.258,1.601
			C77.039,147.839,76.561,147.83,76.083,147.821z"/>
		<path style="fill:#F4AC41;" d="M139.014,224.531c-2.076-0.608-2.805-0.631-3.281-0.99c-6.902-5.21-13.791-6.282-20.97-0.412
			c-2.195,1.794-3.781,0.659-2.761-1.858c3.901-9.624-1.168-15.612-7.969-21.062c-0.218-0.175-0.263-0.566-0.521-1.163
			c4.801-0.79,10.468-0.226,13.952-2.716c3.487-2.493,4.793-8.037,7.812-13.653c2.847,11.597,9.404,17.351,21.562,16.376
			C136.74,205.345,134.232,213.639,139.014,224.531z"/>
		<path style="fill:#EC9875;" d="M144.839,140.039c0.258,1.114,0.088,2.364,1.039,3.26c-4.086,3.832-7.854,8.096-12.341,11.376
			c-5.118,3.742-7.387,8.845-9.32,14.518c-0.262-1.778-0.524-3.555-0.787-5.334c1.288-3.594,0.245-7.325,0.645-10.971
			c5.932-0.172,10.871-2.262,14.693-7.019C140.511,143.701,142.798,141.969,144.839,140.039z"/>
		<path style="fill:#F5BC9A;" d="M124.075,152.888c-0.4,3.646,0.642,7.377-0.645,10.972c-0.123-2.829-1.67-4.696-3.788-6.477
			c-4.751-3.995-9.29-8.244-13.915-12.39c0.376-1.063,0.752-2.126,1.129-3.188C112.08,146.304,116.866,151.478,124.075,152.888z"/>
		<path style="fill:#F5BC9A;" d="M160.105,110.136c-0.675,11.33-10.063,17.008-16.12,24.846c-1.869,1.847-3.882,3.571-5.581,5.563
			c-6.738,7.895-16.579,8.647-24.481,1.821c-2.231-1.927-3.95-4.48-6.806-5.656c-2.367-2.312-4.544-4.867-7.139-6.886
			c-5.515-4.291-9.037-9.665-9.866-16.626c-0.297-2.494-1.497-3.526-3.886-3.437c0.822-1.684,1.817-3.238,3.319-4.405
			c8.72,8.401,12.6,8.831,22.771,2.497c1.551-0.966,3.065-1.99,4.596-2.988c0.026,1.816,0.285,3.665,0.032,5.441
			c-0.692,4.852,2.741,7.077,5.815,9.525c1.837,1.463,2.999,0.027,4.106-1.233c0.666-0.759,1.313-1.517,0.134-2.44
			c-5.209-4.079-2.882-9.236-1.992-14.183c0.653,0.489,1.344,0.936,1.955,1.474c13.777,12.143,18.344,12.245,32.788,0.712
			c0.128-0.102,0.278-0.178,0.417-0.266C162.07,105.994,159.304,108.048,160.105,110.136z M136.137,126.943
			c-7.962-1.292-15.232-1.422-22.842,0.134C123.014,137.371,126.331,137.389,136.137,126.943z"/>
		<path style="fill:#252F6A;" d="M116.911,104.865c-1.531,0.997-3.045,2.022-4.596,2.988c-10.171,6.333-14.051,5.904-22.771-2.497
			c1.554-3.368,3.982-6.085,6.479-8.75c5.568,3.406,11.076,3.112,16.96-0.199c-2.027-2.183-3.828-4.002-6.701-4.191
			c-0.373-0.408-0.746-0.817-1.12-1.225c1.861-3.56,3.721-7.119,5.583-10.675c11.459,6.836,15.367,6.836,23.838-0.053
			c1.284-1.044,2.476-2.2,3.711-3.304c4.512,4.668,9.024,9.336,13.538,14.004c-1.664-0.008-3.33-0.016-4.995-0.024
			c-2.332-1.399-4.304-0.883-5.995,1.127c-3.168-0.348-4.919,1.583-6.864,3.725c7.655,3.936,12.212,3.368,17.729-1.905
			c0.997,0.079,1.883-0.089,2.391-1.086c2.739,1.923,5.479,3.846,8.217,5.772c-0.345,1.927-0.91,3.761-2.149,5.323
			c-0.139,0.088-0.289,0.164-0.417,0.266c-14.444,11.533-19.012,11.431-32.788-0.712c-0.61-0.538-1.301-0.984-1.955-1.473
			c-0.753-2.262-2.013-2.959-3.944-1.187C119.635,102.099,117.73,102.932,116.911,104.865z"/>
		<path style="fill:#F5BC9A;" d="M138.295,76.959c-1.235,1.104-2.427,2.26-3.711,3.304c-8.471,6.889-12.379,6.889-23.838,0.053
			c2.854-9.581,9.107-17.574,12.554-28.522C127.923,61.506,133.07,69.257,138.295,76.959z"/>
		<path style="fill:#F0F1F2;" d="M146.837,90.939c1.665,0.008,3.331,0.016,4.995,0.024c0.173,0.227,0.377,0.424,0.608,0.594
			c-0.245,0.778-0.489,1.554-0.734,2.329c-5.517,5.272-10.075,5.84-17.729,1.905c1.945-2.142,3.696-4.073,6.865-3.724
			c0.062,2.164,1.145,3.391,3.335,3.138C146.698,94.913,147.164,93.121,146.837,90.939z"/>
		<path style="fill:#DF8162;" d="M160.167,103.895c1.239-1.562,1.805-3.396,2.149-5.323c2.585,1.149,5.17,2.3,7.755,3.453
			c-2.08,4.23-4.571,7.954-9.966,8.112C159.304,108.048,162.07,105.994,160.167,103.895z"/>
		<path style="fill:#F0F1F2;" d="M106.283,92.215c2.872,0.189,4.673,2.007,6.701,4.191c-5.884,3.311-11.392,3.605-16.96,0.199
			c0.971-2.041,2.17-3.898,4.138-5.133c-0.023,1.302,0.03,2.581,0.974,3.62c0.121,0.664,0.242,1.33,0.364,1.995
			c0.458-0.385,0.915-0.769,1.373-1.154C105.619,96.172,106.23,94.45,106.283,92.215z"/>
		<path style="fill:#07090E;" d="M101.136,95.093c-0.944-1.04-0.997-2.319-0.975-3.621c0-0.002-0.108,0.076-0.108,0.076
			c0.781-0.163,0.84-0.743,0.799-1.381c0,0,0.263-0.059,0.263-0.059c0.629,0.215,1.258,0.429,1.887,0.646
			c-0.072,0.736-0.143,1.47-0.214,2.203c-0.351,0.713-0.702,1.426-1.053,2.138C101.536,95.001,101.336,95,101.136,95.093z"/>
		<path style="fill:#07090E;" d="M106.283,92.215c-0.053,2.234-0.664,3.956-3.41,3.718c-0.053-0.214-0.18-0.367-0.382-0.458
			c0.448-0.838,0.897-1.676,1.345-2.515c0.291-0.614,0.862-1.197,0.216-1.916l-0.029,0.061c0.38-0.038,0.76-0.075,1.14-0.114
			C105.536,91.399,105.909,91.807,106.283,92.215z"/>
		<path style="fill:#DF8162;" d="M171.896,89.912c0.016,0.67,0.032,1.339,0.048,2.008c-1.821-1.133-2.457-2.976-2.941-4.909
			c0.341,0.012,0.681,0.024,1.022,0.037C170.649,88.003,171.272,88.958,171.896,89.912z"/>
		<path style="fill:#252F6A;" d="M103.003,90.752c-0.629-0.215-1.258-0.43-1.888-0.644c0.233-1.322,0.932-2.285,2.518-3.033
			c0.14,1.45,0.265,2.74,0.389,4.03c0,0,0.029-0.061,0.029-0.061C103.702,90.947,103.353,90.849,103.003,90.752z"/>
		<path style="fill:#242F6A;" d="M151.707,93.886c0.244-0.775,0.488-1.551,0.734-2.329c0.553,0.413,1.106,0.828,1.658,1.244
			C153.59,93.797,152.704,93.964,151.707,93.886z"/>
		<path style="fill:#BC0375;" d="M74.363,66.715c0.106,0.01,0.266-0.018,0.306,0.039c0.068,0.096,0.12,0.274,0.076,0.369
			c-0.188,0.396-0.392,0.376-0.507-0.048C74.211,66.974,74.318,66.836,74.363,66.715z"/>
		<path style="fill:#BC0375;" d="M167.01,82.987c-0.249-0.349-0.498-0.697-0.746-1.046c1.188-0.285,0.47,0.721,0.724,1.068
			L167.01,82.987z"/>
		<path style="fill:#EC9875;" d="M100.852,90.167c0.041,0.638-0.018,1.218-0.799,1.381
			C100.319,91.088,100.586,90.627,100.852,90.167z"/>
		<path style="fill:#BC0375;" d="M170.025,87.048c-0.341-0.012-0.681-0.024-1.022-0.037c-0.003-0.336-0.006-0.671-0.008-1.007
			l0.009-0.009C169.344,86.346,169.685,86.697,170.025,87.048z"/>
		<path style="fill:#BC0375;" d="M168.995,86.004c-0.138-0.142-0.276-0.284-0.413-0.426c0.089,0.022,0.211,0.017,0.259,0.074
			c0.08,0.093,0.111,0.227,0.164,0.343C169.004,85.995,168.995,86.004,168.995,86.004z"/>
		<polygon style="fill:#252F6A;" points="104.66,85.573 104.4,85.689 104.447,85.384 		"/>
		<path style="fill:#BC0375;" d="M166.987,83.01c0.141,0.134,0.281,0.268,0.422,0.401c-0.085-0.025-0.202-0.024-0.246-0.081
			c-0.075-0.095-0.105-0.227-0.153-0.344C167.01,82.987,166.987,83.01,166.987,83.01z"/>
		<path style="fill:#B9573F;" d="M107.117,136.711c2.856,1.176,4.575,3.728,6.806,5.656c7.902,6.826,17.743,6.073,24.481-1.821
			c1.7-1.991,3.712-3.716,5.581-5.563c0.285,1.686,0.571,3.372,0.855,5.057c-2.041,1.93-4.329,3.661-6.072,5.831
			c-3.822,4.757-8.761,6.847-14.693,7.019c-7.209-1.411-11.995-6.585-17.218-11.083C106.943,140.107,107.03,138.409,107.117,136.711
			z"/>
		<path style="fill:#B9282B;" d="M136.137,126.943c-9.806,10.446-13.124,10.428-22.842,0.134
			C120.905,125.521,128.175,125.651,136.137,126.943z"/>
		<path style="fill:#F49F78;" d="M116.912,104.865c0.818-1.933,2.723-2.766,4.151-4.077c1.93-1.772,3.191-1.075,3.944,1.187
			c-0.89,4.947-3.217,10.104,1.992,14.183c1.179,0.923,0.532,1.682-0.134,2.44c-1.106,1.26-2.269,2.696-4.106,1.233
			c-3.074-2.448-6.507-4.673-5.815-9.525C117.197,108.53,116.937,106.681,116.912,104.865z"/>
		<path style="fill:#07090E;" d="M146.837,90.939c0.327,2.182-0.139,3.974-2.66,4.266c-2.189,0.253-3.273-0.974-3.335-3.138
			C142.533,90.055,144.505,89.54,146.837,90.939z"/>
		<path style="fill:#DF8162;" d="M102.49,95.475c0.202,0.091,0.329,0.243,0.382,0.458c-0.459,0.384-0.916,0.769-1.374,1.154
			c-0.122-0.665-0.243-1.331-0.364-1.995c0.201-0.092,0.401-0.091,0.602,0.003C101.963,95.275,102.213,95.402,102.49,95.475z"/>
		<path style="fill:#BC0375;" d="M102.49,95.475c-0.277-0.074-0.528-0.201-0.753-0.38c0.349-0.712,0.7-1.425,1.051-2.138
			c0.349,0.001,0.698,0.002,1.047,0.004C103.387,93.799,102.939,94.637,102.49,95.475z"/>
		<path style="fill:#EC028B;" d="M103.836,92.961c-0.349-0.001-0.698-0.002-1.047-0.004c0.071-0.734,0.143-1.468,0.214-2.203
			c0.35,0.096,0.7,0.193,1.049,0.291C104.697,91.764,104.127,92.347,103.836,92.961z"/>
	</g>
</g>
</svg>
