<?xml version="1.0" encoding="utf-8"?>
<!-- Generator: Adobe Illustrator 23.0.3, SVG Export Plug-In . SVG Version: 6.00 Build 0)  -->
<svg version="1.1" id="Layer_1" xmlns="http://www.w3.org/2000/svg" xmlns:xlink="http://www.w3.org/1999/xlink" x="0px" y="0px"
	 viewBox="0 0 250.2 250.2" style="enable-background:new 0 0 250.2 250.2;" xml:space="preserve">
<style type="text/css">
	.st0{fill:#FFFFFF;}
	.st1{fill:none;}
	.st2{fill:#262222;}
	.st3{fill:#825034;}
	.st4{fill:#30BA25;}
	.st5{fill:#472318;}
	.st6{fill:#633D2E;}
	.st7{fill:#562C1B;}
	.st8{fill:#FEDC19;}
	.st9{fill:#FCDA17;}
	.st10{fill:#ECAB20;}
	.st11{fill:#FCC51A;}
	.st12{fill:#512E28;}
	.st13{fill:#61EA21;}
	.st14{fill:#BC2824;}
	.st15{fill:#483B36;}
	.st16{fill:#8A1A21;}
	.st17{fill:#B8573F;}
	.st18{fill:#444444;}
	.st19{fill:#38A6D5;}
</style>
<rect x="79.1" y="67.4" class="st0" width="88.8" height="33.8"/>
<title>51</title>
<path class="st1" d="M250.1,125.6c0,40.3,0,80.7,0.1,121c0,3-0.6,3.6-3.6,3.6c-81-0.1-162-0.1-243,0c-3,0-3.6-0.6-3.6-3.6
	c0.1-81,0.1-162,0-243C0,0.6,0.6,0,3.6,0c81,0.1,162,0.1,243,0c3,0,3.6,0.6,3.6,3.6C250,44.3,250,84.9,250.1,125.6z M88.9,220.1
	l2.2,1.9c9.8,8.6,19.5,17.1,29.3,25.7c1.8,1.6,3.5,1.7,5.3,0.1l27.7-23.7c1.1-0.3,2-1.1,2.5-2.1l5.9-5c4.8-3.7,9.8-7.3,13.7-12
	c5.1-2.8,8.7-7.5,13.6-10.5c6.1-3.8,7.9-9,7-15.9c-0.4-3.8-0.4-7.6,0-11.4c0.3-3.7-1.3-4.8-4.6-4.2c-12.1-4.4-24.8-6.1-37.2-9.2
	c0.1-0.3,0.1-0.7-0.1-0.9l9.4-1.1c-2.5-3.3-1.4-6.3,0.5-9c1.5-2.4,2.6-5,3.1-7.8c5.4-23.1,10.8-46.3,16.4-69.4
	c0.7-2.4,0.6-4.9-0.3-7.2c-4.8-12.4-9.5-24.8-14.2-37.2c-0.7-2.2-2.2-4.1-4.1-5.3c-26.2-17-56.7-14.5-81.7,0.5
	c-2.1,1.3-2.7,3.2-3.3,5.3c-3.2,13.1-6.4,26.1-9.8,39.2c-1.7,6.8-2.5,13.7-2.2,20.7c0.8,22.5,8.9,42.7,19.5,62.2
	c2.1,3.8,4.5,6,8.9,5.5c-0.1,2.7-3.4,2.8-4.1,5l-33.9,8.1c-2.7,0.1-4.3,1.1-4.2,4.2c0.1,7.1,0.1,14.3,0,21.4c-0.2,1.5,0.4,3,1.5,4
	c5.3,4.4,10.7,8.8,16,13.3c4,4,8.2,7.7,12.8,11.1C85.6,217.8,87.1,219.2,88.9,220.1z"/>
<path class="st2" d="M96.2,149.2c-4.4,0.4-6.8-1.8-8.9-5.5C76.7,124.2,68.6,104,67.8,81.5c-0.3-7,0.4-14,2.2-20.7
	c3.4-13,6.6-26.1,9.8-39.2c0.5-2.1,1.1-4,3.3-5.3c25-15,55.5-17.5,81.7-0.4c1.9,1.3,3.4,3.1,4.1,5.3c4.7,12.4,9.4,24.8,14.2,37.2
	c0.9,2.3,1,4.9,0.3,7.2c-5.6,23.1-10.9,46.3-16.4,69.4c-0.5,2.8-1.5,5.4-3.1,7.8c-1.9,2.6-3,5.6-0.5,9l-9.3,1
	c-1.8-1.2-3.3-2.8-4.3-4.7c-3-4.7-4.2-10-5.5-15.3c-0.1-2-0.3-4-0.4-5.9c6-8,15.8-13.5,16.5-25c0.2,0.1,0.5,0.1,0.7,0.1
	c0.6,0.9,1.2,1.9,1.8,2.9c0.4,0.8-1.2,2.9,0.8,2.4c1.6-0.4,4.6,0.8,4.9-2.6c0.1-1.2,2.5-2.3-0.1-3.4c-1.3-0.5-1.5-1.6-1.4-2.8
	c4.4-4.1,6.7-10.1,6.1-16.1c-0.4-4.1-2.2-7-7-6.4c4.3-11.1-1.5-17.6-10.4-22.7c-0.1-0.1-0.3-0.1-0.5-0.2
	c-8.3-7.9-16.2-16.3-23.6-25.1c-0.4-0.6-0.6-1.3-1.5-1.1h0.1c0.1-0.8,0.1-1.4-1-1.1l0.1,0.1c0.7-1.3-0.2-1.6-1.1-2l0,0
	c-0.4-2-2.1-3.3-3.1-4.9c-1.9-3-2.6-1.2-3.1,0.9h0.1c-0.8,0-1.1,0.6-1.3,1.2C110.8,34.6,99.3,47,86.7,58c-8.3,5.3-8.3,5.3-6.4,14.6
	c0.2,1.1,0.5,2.2,0.7,3.3c-5.9,0.2-7.8,2.1-7.9,8.1c-0.1,5.3,2,10.4,5.8,14.1c-0.3,0.4-0.6,0.7-0.9,1.1c-0.6,0.8-3.4,0.5-1.6,2.3
	c1.2,1.2-0.4,4.5,2.2,3.8c1.4-0.4,4.8,2,4.6-2.2c-0.1-1.1,1.1-1.6,1.9-2.1l1,0.2c1,9.8,5.9,17.3,13.8,23.1c1.7,1.4,3.2,2.8,4.7,4.4
	l-0.3,5.5C102.5,139.8,101.3,145.6,96.2,149.2z"/>
<path class="st3" d="M71.6,205.1l-16-13.3c-1.1-1-1.7-2.5-1.5-4c0-7.1,0.1-14.3,0-21.4c-0.1-3.1,1.5-4.1,4.2-4.2
	c0.1,1.6,1.3,1.6,2.5,1.9c5,1.1,9.9,2.4,14.9,3.6c15.9,3.8,31.7,7.5,47.6,11.3c14.1-3.3,28.2-6.7,42.3-10c8.7-2,17.1-4.9,26-6
	c3.4-0.6,4.9,0.6,4.6,4.2c-0.4,3.8-0.4,7.6,0,11.4c0.9,6.9-0.9,12.1-7,15.9c-4.9,3-8.5,7.8-13.6,10.5c-18.2-12.5-38.6-7.5-48.7,5.8
	c-3.6,4.8-4.8,3.2-7.6-0.4C108.1,196.2,85.6,193.8,71.6,205.1z"/>
<path class="st4" d="M71.6,205.1c14-11.4,36.5-9,47.7,5.4c2.8,3.6,4,5.2,7.6,0.4c10-13.3,30.4-18.4,48.6-5.8c-4,4.7-8.9,8.3-13.7,12
	c-9.3-0.3-18.2,1.8-26.9,4.4c-5.2,1.6-8.8,1.7-11-3.8c-0.1-0.2-0.6-0.1-0.9-0.2c-2.1,1.1-1,6.5-6.1,3.9c-10.2-5.3-21.3-6.1-32.6-5.1
	C79.8,212.9,75.5,209.2,71.6,205.1z"/>
<path class="st5" d="M191.4,163.1c-8.9,1-17.3,4-26,6c-14.1,3.3-28.2,6.7-42.3,10c0-3.6,0-7.3,0-10.9c5.8,0.6,11.6-0.6,16.7-3.3
	c5.4-2.8,11.6-4.8,14.4-11.1C166.6,156.9,179.3,158.7,191.4,163.1z"/>
<path class="st6" d="M123.1,168.1c0,3.6,0,7.3,0,10.9l-47.6-11.3c-5-1.2-9.9-2.4-14.9-3.6c-1.2-0.3-2.3-0.3-2.5-1.9l33.9-8.1
	c0,1.9,1.4,3,2.7,4C103.2,164.4,112.2,169,123.1,168.1L123.1,168.1z"/>
<path class="st7" d="M154.2,153.8c-2.8,6.2-9,8.3-14.4,11.1c-5.1,2.7-11,3.8-16.8,3.3v-0.1v-21.9c5.4,0.2,10.6-2.2,14-6.4
	c2.2-2.5,4.8-4.6,7.1-6.9c1.3,5.3,2.6,10.6,5.5,15.3c1,1.9,2.5,3.5,4.3,4.7C154.3,153.1,154.3,153.5,154.2,153.8z"/>
<path class="st3" d="M123.1,146.2v21.9c-10.9,0.9-19.9-3.8-28.3-9.9c-1.3-1-2.7-2-2.7-4c0.7-2.2,4-2.3,4.1-5
	c5.2-3.6,6.3-9.4,8.1-14.9C110.1,139,114.8,145.4,123.1,146.2z"/>
<path class="st8" d="M153.4,224.1l-27.7,23.7c-1.8,1.6-3.6,1.5-5.3-0.1c-9.7-8.6-19.5-17.1-29.3-25.7h5l9,1l0,0c0.4,0.9,1.2,1,2,1
	l0,0c0.7,1.2,1.9,1,3,1l0,0c0.4,0.7,1.2,1.1,2,1l0,0l1,1l0,0c0.4,0.7,1.2,1.1,2,1l0,0c0.4,0.7,1.2,1.1,2,1l0,0l1,1l0,0l1,1l0,0
	c1.5,2.4,0.8,5,1,7.6c0.1,0.8,0,2,1,1.8c1.2-0.2,0.9-1.5,0.9-2.4l0,0l3,1l0,0c0.1,0.4,0.2,0.8,0.4,1.1c0.8-0.1,0.5-0.9,0.6-1.4
	c0-0.2,0-0.4,0-0.6c1.9-2.2,0.7-4.8,1-7.2l0,0l1-1l0,0c0.9,0,1.6-0.1,2-1l0,0c1.1,0,2.3,0.2,3-1l0,0c0.8,0.1,1.6-0.3,2-1l0,0
	c1.1,0,2.3,0.2,3-1l0,0c1.1,0,2.3,0.2,3-1l0,0c1.4-0.1,3,0.5,4.1-1h0.8L153.4,224.1z"/>
<path class="st9" d="M126.1,238.2c0,0.2,0,0.4,0,0.6l-1,0.2l0,0c0-1.1-0.2-2.1-1.3-2.4c-0.9-0.2-1.4,0.6-1.7,1.4l0,0
	c-2.6-1.7,1.1-6-3-7l0,0l-1-1l0,0l-1-1l0,0c-0.4-0.7-1.2-1.1-2-1l0,0c-0.4-0.9-1.2-1-2-1l0,0l-1-1l0,0c-0.4-0.7-1.2-1.1-2-1l0,0
	c-0.7-1.2-1.9-1-3-1l0,0c-0.4-0.7-1.2-1.1-2-1l0,0c-2.8-1.8-5.9-2.1-9-2c-2.2-1.4-4.7-1-7.1-0.9c-1.8-1-3.4-2.3-4.6-3.9
	c11.3-1,22.4-0.2,32.6,5.1c5.1,2.6,4-2.8,6.1-3.9c0.3,0.1,0.8,0.1,0.9,0.2c2.2,5.6,5.8,5.4,11,3.8c8.7-2.6,17.7-4.7,26.9-4.4l-5.9,5
	c-3.4,0.3-6.7,0.6-9.9,2h-0.8c-1.4,0.1-3-0.4-4.1,1l0,0c-1.1,0-2.3-0.2-3,1l0,0c-1.1,0-2.3-0.2-3,1l0,0c-0.8-0.1-1.6,0.3-2,1l0,0
	c-1.1,0-2.3-0.2-3,1l0,0c-0.8-0.1-1.6,0.3-2,1l0,0c-0.3,0.3-0.7,0.7-1,1l0,0C125.1,233.2,126.5,235.9,126.1,238.2z"/>
<path class="st10" d="M146,224.1c3.1-1.4,6.5-1.7,9.9-2c-0.5,1-1.4,1.7-2.5,2.1L146,224.1z"/>
<path class="st11" d="M88.9,220.1c2.4,0,4.9-0.5,7.1,0.9c0,0.3,0,0.7,0,1h-5L88.9,220.1z"/>
<path class="st3" d="M81,76c-0.2-1.1-0.5-2.2-0.7-3.3c-1.9-9.3-1.9-9.3,6.4-14.6c13.3-0.8,26.3-0.5,36.4,10
	c9.6-7.4,19.5-13.9,32.1-14.9c0.1,0.1,0.3,0.1,0.4,0.2c8.9,5.1,14.7,11.6,10.4,22.8c-2.5,8.1-4.6,16.3-5,24.8l-0.8,1.1
	c-0.6,11.5-10.5,17-16.5,25c-2.2,2.2-4.4,4.4-6.6,6.7c-7.8,8.1-17,8.5-25.5,1.2c-2.4-2-4.7-4.1-7.1-6.2c-1.5-1.6-3-3.1-4.7-4.4
	c-8-5.7-12.8-13.2-13.9-23.1l-0.9-1.2l0,0C85,91.8,82.1,84.1,81,76z M156.1,72.1l0.3,0.3L156.1,72.1l-1.4-0.8l-0.2,0.4L156.1,72.1z
	 M110,83.1L110,83.1c-0.1-1.1-0.9-1.5-1.9-1.8c-5.9-4.9-13.3-2.4-19.9-4c-0.2,2.6,1.2,4.3,2.9,5.9c0.4,1,1.2,1.8,2.2,2.1
	c0.3,0.9,1.1,0.8,1.8,0.8c6.1,3.9,10.3,3.9,16.4-0.2c0.8-0.8,0.8-1.4-0.4-1.8c0-0.6-0.4-1-0.9-1.1C110.1,83.1,110,83.1,110,83.1z
	 M150,68.3l-3.9-0.9c-6.5-0.3-12,2.7-13.7,8.1c4.6-2.8,8.3-6.8,13.7-6.6l3.9,0.7c0.7,0.4,1.8,1,2,0.1S150.9,68.5,150,68.3L150,68.3z
	 M135.2,83.1c-1,0.1-1.1,0.8-1.1,1.6c-1.4,2.4,0.7,2.7,2.1,3.2c5.9,2.2,11.2,1.3,15.4-3.8c4.3-0.3,4.5-3.7,5.9-7.5
	c-4.3,2-8.1,0.9-11.8,1.4C141.6,78.6,137.4,79,135.2,83.1L135.2,83.1z M135.5,117.2c0.1-0.2,0.1-0.5,0.2-0.8c0-0.1-0.2-0.3-0.4-0.3
	c-8.3-1.6-16.5-1.4-26.3,0.4c5.7,2.9,7.6,9.1,14.1,8.2C129.2,125.5,131.5,119.9,135.5,117.2L135.5,117.2z M129.1,106.1l-6,1.3
	c0-6.7-0.1-13.2,0-19.7c0.1-2.9-1.2-3.7-3.9-3.7s-4.4,0.5-4.2,3.8c0.3,4.3,0.3,8.7,0,13c-0.4,5.6,3.8,8.4,7.3,10.4
	C125.2,112.8,127,108.2,129.1,106.1c0.1,0,0.2-0.1,0.3-0.1c0.1,0,0-0.2,0.1-0.2L129.1,106.1z M92.4,71c8.2-3.4,14.7-0.3,20.5,5.7
	C110.7,68.1,100.5,65.4,92.4,71z M90.7,71.8l0.2-0.3h-0.4L90.7,71.8z"/>
<path class="st9" d="M123.1,68.1c-10.1-10.6-23.1-10.8-36.4-10c12.7-11,24.1-23.3,34.1-36.8l1.3-1.2H122l1.2,0.9
	c-0.1,3.5-0.1,7-0.2,10.6c-2.3,5.3-5.6,9.2-12.4,9.4c5.7,3.7,6.4,8.6,4.3,14.3c3.5-0.6,5.4-3,8.2-3.1L123.1,68.1z"/>
<path class="st11" d="M123,31.4c0.1-3.5,0.1-7,0.2-10.5c1.9,0.7,2.2,3.8,5,3.2l0,0c-0.4,0.7-0.1,1.5,0.6,1.8
	c0.2,0.1,0.3,0.1,0.5,0.2l-0.1-0.1c0,0.6,0.4,1,0.9,1.1c0,0,0,0,0.1,0h-0.1c0.2,0.7,0.8,1.1,1.5,1.1c7.4,8.8,15.2,17.1,23.5,25
	c-12.6,0.9-22.5,7.5-32.1,14.9c0-5.3,0-10.7,0-16.1c-0.1-0.2-0.1-0.4-0.1-0.6l7.2,3.8c-2.1-6.4,0.7-10.6,5.2-14.9
	c-6.9,0.8-9.8-3.5-12.4-8.2C123,31.9,123,31.7,123,31.4z"/>
<path class="st12" d="M104.5,128.8c2.4,2.1,4.7,4.1,7.1,6.2c8.6,7.3,17.7,6.8,25.5-1.2c2.2-2.3,4.4-4.5,6.6-6.7c0.2,2,0.3,4,0.4,5.9
	c-2.4,2.3-5,4.4-7.1,6.9c-3.4,4.2-8.6,6.5-14,6.4c-8.3-0.8-13-7.2-18.8-11.9C104.3,132.4,104.4,130.6,104.5,128.8z"/>
<path class="st7" d="M161.1,100.9c0.4-8.5,2.5-16.7,5-24.8c4.8-0.6,6.6,2.3,7,6.4c0.6,6-1.6,12-6.1,16.1c-2.2-0.4-2.4,2.2-3.9,2.6
	L161.1,100.9z"/>
<path class="st7" d="M81,76c1.1,8.1,4,15.9,4.1,24.1c-2.7,1.2-3.4-3.6-6.2-1.9c-3.8-3.7-5.9-8.8-5.8-14.1C73.2,78.1,75.1,76.2,81,76
	z"/>
<path class="st13" d="M78.9,98.2c2.8-1.7,3.5,3.2,6.2,1.9l0,0c0,0.3,0,0.6-0.1,1c-0.8,0.6-1.9,1-1.9,2.1c0.2,4.2-3.2,1.8-4.6,2.2
	c-2.7,0.8-1-2.5-2.2-3.8c-1.8-1.8,1-1.6,1.6-2.3C78.3,98.9,78.6,98.5,78.9,98.2z"/>
<path class="st13" d="M163.1,101.2c1.6-0.5,1.8-3.1,3.9-2.6c-0.1,1.2,0,2.2,1.4,2.8c2.6,1,0.2,2.2,0.1,3.4c-0.3,3.4-3.3,2.2-4.9,2.6
	c-2,0.5-0.4-1.6-0.8-2.4c-0.5-1-1.2-1.9-1.8-2.9L163.1,101.2z"/>
<path class="st11" d="M128.1,24.1c-2.7,0.6-3.1-2.5-5-3.2l-1.2-0.9c0.5-2.1,1.1-3.9,3-0.9C126.1,20.7,127.7,22,128.1,24.1z"/>
<path class="st4" d="M163.1,101.2l-2,0.9c-0.3,0-0.5-0.1-0.7-0.1l0.8-1.1L163.1,101.2z"/>
<path class="st11" d="M129.2,26.1c-0.8-0.1-1.3-0.7-1.3-1.5c0-0.2,0.1-0.4,0.2-0.5C129,24.5,129.9,24.8,129.2,26.1z"/>
<path class="st11" d="M122.1,20l-1.3,1.2C121,20.6,121.2,20,122.1,20z"/>
<path class="st3" d="M85,101.1c0-0.3,0-0.7,0.1-1l0.9,1.2L85,101.1z"/>
<path class="st11" d="M131.6,28.1c-0.7,0-1.3-0.4-1.5-1.1C131,26.8,131.3,27.5,131.6,28.1z"/>
<path class="st11" d="M130.2,27.1c-0.6,0-1-0.4-1-1c0,0,0,0,0-0.1C130.2,25.6,130.3,26.2,130.2,27.1z"/>
<path class="st10" d="M119.1,231.1c4.1,1,0.4,5.4,3,7c0,0.9,0.3,2.2-1,2.4c-1,0.1-1-1-1-1.8C119.9,236.1,120.6,233.4,119.1,231.1z"
	/>
<path class="st10" d="M96.1,222.1c0-0.3,0-0.7,0-1c3.2,0,6.3,0.3,9,2L96.1,222.1z"/>
<path class="st10" d="M126.1,238.2c0.4-2.4-0.9-5,1-7.2C126.8,233.5,127.9,236.1,126.1,238.2z"/>
<path class="st10" d="M122.1,238.1c0.3-0.8,0.8-1.7,1.7-1.4c1.1,0.3,1.3,1.4,1.3,2.4L122.1,238.1z"/>
<path class="st10" d="M141.1,225.1c1.1-1.5,2.7-0.9,4.1-1C144.1,225.6,142.5,225,141.1,225.1z"/>
<path class="st10" d="M135.1,227.1c0.7-1.2,1.9-1,3-1C137.4,227.3,136.2,227.1,135.1,227.1z"/>
<path class="st10" d="M130.1,229.1c0.7-1.2,1.9-1,3-1C132.4,229.3,131.2,229.1,130.1,229.1z"/>
<path class="st10" d="M107.1,224.1c1.1,0,2.3-0.2,3,1C109,225.1,107.8,225.2,107.1,224.1z"/>
<path class="st10" d="M138.1,226.1c0.7-1.2,1.9-1,3-1C140.4,226.3,139.2,226.1,138.1,226.1z"/>
<path class="st10" d="M133.1,228.1c0.4-0.7,1.2-1.1,2-1C134.7,227.8,133.9,228.2,133.1,228.1z"/>
<path class="st10" d="M113.1,227.1c0.8,0,1.6,0.1,2,1C114.3,228.2,113.5,227.8,113.1,227.1z"/>
<path class="st10" d="M115.1,228.1c0.8-0.1,1.6,0.3,2,1C116.3,229.2,115.5,228.8,115.1,228.1z"/>
<path class="st10" d="M128.1,230.1c0.4-0.7,1.2-1.1,2-1C129.7,229.8,128.9,230.2,128.1,230.1z"/>
<path class="st10" d="M105.1,223.1c0.8-0.1,1.6,0.3,2,1C106.3,224.2,105.5,223.8,105.1,223.1z"/>
<path class="st10" d="M110.1,225.1c0.8-0.1,1.6,0.3,2,1C111.3,226.2,110.5,225.8,110.1,225.1z"/>
<path class="st10" d="M125.1,239.1l1-0.2c-0.1,0.5,0.2,1.2-0.6,1.4C125.3,239.9,125.2,239.5,125.1,239.1z"/>
<path class="st10" d="M112.1,226.1l1,1L112.1,226.1z"/>
<path class="st10" d="M117.1,229.1l1,1L117.1,229.1z"/>
<path class="st10" d="M118.1,230.1l1,1L118.1,230.1z"/>
<path class="st10" d="M127.1,231.1l1-1L127.1,231.1z"/>
<path class="st7" d="M129.1,106.1c-2,2.2-3.8,6.8-6.8,5.1c-3.5-1.9-7.7-4.8-7.3-10.4c0.3-4.3,0.3-8.7,0-13c-0.2-3.3,1.4-3.8,4.2-3.8
	s3.9,0.7,3.9,3.7c-0.2,6.5,0,13,0,19.7L129.1,106.1L129.1,106.1z"/>
<path class="st14" d="M123.1,124.7c-6.4,0.8-8.4-5.3-14.1-8.2c9.8-1.8,18-2,26.3-0.4c0.1,0,0.4,0.2,0.4,0.3c0,0.3-0.1,0.5-0.2,0.8
	c-2-0.1-3.9,0.4-5.8,0.4C124.7,117.7,121.7,119.1,123.1,124.7z"/>
<path class="st1" d="M151.5,84.1c-4.2,5.1-9.4,6-15.4,3.8c-1.4-0.5-3.5-0.8-2.1-3.2c0.5-0.5,1.3-0.7,1.1-1.6l-0.1,0.1l4.9-1.4
	c0.2,2.3,1.2,3.9,3.7,3.7c2.7-0.2,2.9-2.2,2.7-4.4C148.2,81.8,152.5,78.6,151.5,84.1z"/>
<path class="st1" d="M111.4,85.9c-6,4.1-10.3,4.1-16.4,0.2l-1.5-1.8l-1-1.3c0.8-3.8,3.7-1.6,5.7-2.1c-0.3,2.3,0.2,4.3,3,4.5
	c2.5,0.2,3.4-1.3,3.2-3.7l3.6,1c0.7,0.3,1.1,1.4,2.1,0.5l-0.1-0.1c-0.3,0.3-0.3,0.8,0,1c0.1,0.1,0.2,0.2,0.4,0.2L111.4,85.9z"/>
<path class="st15" d="M151.5,84.1c1-5.5-3.3-2.2-5.1-3c-2.2-0.4-4.4-0.1-6.4,0.7l-4.9,1.3c2.3-4.2,6.5-4.6,10.5-5.2
	c3.7-0.5,7.5,0.6,11.8-1.4C156,80.3,155.8,83.8,151.5,84.1z"/>
<path class="st2" d="M108,82.7l-3.6-1c-1.9-1.2-4-1.1-6.2-0.8c-2,0.5-5-1.8-5.7,2.1L91,83.1c-1.7-1.6-3.2-3.2-2.9-5.9
	c6.7,1.6,14-0.9,19.9,4C108,81.7,108,82.2,108,82.7z"/>
<path class="st16" d="M123.1,124.7c-1.3-5.6,1.6-7,6.6-7.2c1.9,0,3.9-0.5,5.8-0.4C131.5,119.9,129.2,125.5,123.1,124.7z"/>
<path class="st15" d="M92.4,71c8.1-5.6,18.3-2.9,20.5,5.7C107.1,70.7,100.6,67.6,92.4,71z"/>
<path class="st15" d="M146.1,68.9c-5.4-0.1-9.1,3.8-13.7,6.6c1.7-5.4,7.2-8.4,13.8-8.1C146.1,67.9,146.1,68.4,146.1,68.9z"/>
<path class="st2" d="M146.1,68.9c0-0.5,0-1,0-1.5l3.9,0.9v1.3L146.1,68.9z"/>
<path class="st15" d="M150.1,69.6v-1.3c0.9,0.2,2.3,0.3,2.1,1.4S150.8,70,150.1,69.6z"/>
<path class="st17" d="M111.4,85.9l-1-1.6l0.3-0.2h0.3C112.2,84.5,112.1,85.1,111.4,85.9z"/>
<path class="st15" d="M91,83.1l1.5-0.1l1,1.3c-0.1,0.3-0.2,0.6-0.3,1C92.2,84.9,91.4,84.1,91,83.1z"/>
<path class="st15" d="M108,82.7v-1.4c1,0.3,1.9,0.8,2,1.9C109.1,84.1,108.7,83,108,82.7z"/>
<path class="st17" d="M93.2,85.2c0.1-0.3,0.2-0.6,0.3-1l1.5,1.8C94.3,86,93.6,86.1,93.2,85.2z"/>
<path class="st18" d="M156.1,72.1l-1.6-0.4l0.2-0.4L156.1,72.1z"/>
<path class="st15" d="M135.2,83.1c0.2,0.9-0.6,1.1-1.1,1.6C134.1,83.8,134.2,83.2,135.2,83.1z"/>
<path class="st15" d="M111,84.2h-0.3l-0.3,0.2c-0.4-0.1-0.7-0.5-0.6-0.9c0-0.1,0.1-0.3,0.2-0.4C110.5,83.1,111,83.6,111,84.2
	C111,84.1,111,84.2,111,84.2z"/>
<path class="st17" d="M156.1,72.1l0.3,0.2L156.1,72.1z"/>
<polygon class="st17" points="90.7,71.8 90.5,71.5 90.9,71.5 "/>
<path class="st3" d="M129.1,106.1l0.4-0.4c0,0.1,0,0.2-0.1,0.2C129.3,106,129.2,106,129.1,106.1z"/>
<path class="st13" d="M123,31.4c0,0.3,0,0.5,0.1,0.8c0,6.4,0,12.8-0.1,19.2c0,0.2,0,0.4,0.1,0.6c-2.7,0.1-4.6,2.4-8.2,3.1
	c2.1-5.7,1.4-10.5-4.3-14.3C117.4,40.6,120.7,36.7,123,31.4z"/>
<path class="st4" d="M123,51.4c0-6.4,0-12.8,0.1-19.2c2.6,4.6,5.5,8.9,12.4,8.2c-4.5,4.2-7.3,8.5-5.2,14.8L123,51.4z"/>
<path class="st19" d="M140,81.7c2-0.9,4.3-1.1,6.4-0.7c0.2,2.1,0,4.2-2.7,4.4C141.2,85.6,140.2,84,140,81.7z"/>
<path class="st19" d="M98.2,80.9c2.1-0.3,4.2-0.3,6.2,0.8c0.2,2.3-0.7,3.8-3.2,3.7C98.4,85.2,97.9,83.2,98.2,80.9z"/>
</svg>
