<?xml version="1.0" encoding="utf-8"?>
<!-- Generator: Adobe Illustrator 23.0.3, SVG Export Plug-In . SVG Version: 6.00 Build 0)  -->
<svg version="1.1" id="Layer_1" xmlns="http://www.w3.org/2000/svg" xmlns:xlink="http://www.w3.org/1999/xlink" x="0px" y="0px"
	 viewBox="0 0 250 250" style="enable-background:new 0 0 250 250;" xml:space="preserve">
<style type="text/css">
	.st0{fill:none;}
	.st1{fill:#262666;}
	.st2{fill:#EC028B;}
	.st3{fill:#BC0375;}
	.st4{fill:#825034;}
	.st5{fill:#EC9875;}
	.st6{fill:#F5BE9C;}
	.st7{fill:#F4AC41;}
	.st8{fill:#562C1B;}
	.st9{fill:#F0F1F2;}
	.st10{fill:#512E28;}
	.st11{fill:#07090E;}
	.st12{fill:#252F6A;}
	.st13{fill:#242F6A;}
	.st14{fill:#B9282B;}
	.st15{fill:#DF8162;}
</style>
<g>
	<g>
		<path class="st0" d="M123,251c-40.7,0-81.3,0-122,0C1,167.7,1,84.3,1,1c82,0,164,0,246-0.1c3.4,0,4.1,0.7,4.1,4.1
			c-0.1,80.7-0.1,161.3,0,242c0,3.4-0.7,4.1-4.1,4.1c-40.3-0.2-80.7-0.1-121-0.1c0.3-1.7,1.8-2.3,2.9-3.2
			c11.8-10,23.7-19.8,35.4-29.9c4.4-3.8,9.4-6.8,12.8-11.6c5.2-2.5,8.7-7,13.3-10.2c2.6-1.9,3.7-4.3,3.6-7.7
			c-0.2-6.5-0.1-12.9-0.1-19.4c5-1.7,10.4-2.6,15.7-6.2c-2.8-0.3-4.5-0.5-6.3-0.7c-20.8-2.4-34.5-23.1-28-42.7c1.5-4.6,2.6-9.2,3-14
			c2.2-1.2,0-2.8,0.5-4.2c0.1-2,0.2-4,0.3-6c4.1-17.3,4.4-34.6-0.9-51.7c-4.9-15.7-15.4-25.5-31.5-28.7c-11.2-2.2-22.7-3.3-34-3.9
			c-18.1-0.8-32.1,8-40.2,24.5c-8.4,17.1-13.9,35-10.5,54.4c0.7,4,1.3,8.2,4.5,11.8c0.6-5,1.1-9.4,1.6-13.9c0,0,0.4,0.1,0.4,0.1
			l0.4,0c0.6,5.1,2.3,10.3,1.7,15.3C69,115.8,65,128.1,58,139.3c-3.5,5.5-7.8,10.1-15.5,10.4c12.2,6.6,26.8,6.8,33.6-1.9
			c0.5,0,1,0,1.4,0c-4.6,14-15.3,20.6-29.7,23.6c4.1,1.9,7.6,2.8,11.1,3.4c0,5.5,0.1,10.9,0.1,16.4c0,1.9,0.1,3.6,1.7,4.9
			c4.5,3.6,8.4,8,13.4,11c8.8,9,18.9,16.5,28.2,25C109.2,238.5,117,243.8,123,251z"/>
		<path class="st1" d="M123,251c-6-7.2-13.8-12.5-20.7-18.8c-9.2-8.5-19.4-16-28.2-25c2.5-1.9,6.5-1.8,7.2-5.9
			c1.9-13.1,3.9-26.1,5.8-39.2c12.1-1.1,11.6-11.9,14.8-20.2c1.6,1.2,2.7,2.1,3.8,3c4.6,4.1,9.2,8.4,13.9,12.4
			c2.1,1.8,3.7,3.6,3.8,6.5c0.3,1.8,0.5,3.6,0.8,5.3c1.9-5.7,4.2-10.8,9.3-14.5c4.5-3.3,8.3-7.5,12.3-11.4c2.6-2.3,4-1.3,4.7,1.7
			c1.9,8.3,4.7,15.8,14.5,17.7c1.1,12.2,2.1,24.4,3.2,36.6c0.1,1.6,0.8,2.8,2.3,3.5c2.2,1.1,4.4,2.3,6.6,3.4
			c-3.3,4.9-8.4,7.9-12.8,11.6c-11.7,10.1-23.6,19.9-35.4,29.9c-1.1,0.9-2.6,1.5-2.9,3.2C125,251,124,251,123,251z M139,224.5
			c-4.8-10.9-2.3-19.2,7.8-25.5c-12.2,1-18.7-4.8-21.6-16.4c-3,5.6-4.3,11.2-7.8,13.7c-3.5,2.5-9.2,1.9-14,2.7
			c0.3,0.6,0.3,1,0.5,1.2c6.8,5.5,11.9,11.4,8,21.1c-1,2.5,0.6,3.7,2.8,1.9c7.2-5.9,14.1-4.8,21,0.4
			C136.2,223.9,136.9,223.9,139,224.5z"/>
		<path class="st2" d="M68.2,87.6c-0.5,4.5-1,8.9-1.6,13.9c-3.2-3.5-3.8-7.7-4.5-11.8c-3.4-19.4,2.2-37.3,10.5-54.4
			c8.1-16.5,22.1-25.4,40.2-24.5c11.3,0.5,22.8,1.6,34,3.9c16.1,3.2,26.6,13,31.5,28.7c5.3,17.1,5,34.4,0.9,51.7
			c-3.4-0.4-4.4-4-7.2-5.2c-0.6-1-1.2-1.9-1.9-2.9c-0.3-0.4-0.7-0.7-1-1.1c-0.1-0.1-0.1-0.2-0.2-0.3c0-0.1-0.2-0.1-0.3-0.1
			c0.1,0.1,0.3,0.3,0.4,0.4c0,0.3,0,0.7,0,1c0.5,1.9,1.1,3.8,2.9,4.9c1.7,3.5,2.9,7.3,6.8,9.2c-0.5,1.4,1.7,3-0.5,4.2
			c-2.5-1.7-5.4-2.3-8.2-3.2c-2.6-1.2-5.2-2.3-7.8-3.5c-2.7-1.9-5.5-3.8-8.2-5.8c-0.6-0.4-1.1-0.8-1.7-1.2c-0.2-0.2-0.4-0.4-0.6-0.6
			c-4.5-4.7-9-9.3-13.5-14c-5.2-7.7-10.4-15.5-15-25.2c-3.4,10.9-9.7,18.9-12.6,28.5c-1.9,3.6-3.7,7.1-5.6,10.7
			c-0.4,0-0.8,0.1-1.1,0.1c-0.1-1.3-0.2-2.6-0.4-4c-1.6,0.7-2.3,1.7-2.5,3l-0.3,0.1c-0.3,0.5-0.5,0.9-0.8,1.4l0.1-0.1
			c-2,1.2-3.2,3.1-4.1,5.1c-2.5,2.7-4.9,5.4-6.5,8.7c-1.5,1.2-2.5,2.7-3.3,4.4c-0.8,0.6-1.8,1.1-2.2,1.9c-2.7,5-4.6,2.7-6.3-0.6
			c-5.3-10-6.6-20.7-5.3-31.8c0.4-3.1,1.9-6,1.3-10.6c-2.8,6-4.1,10.9-4.9,16C67.8,85.4,68.1,86.5,68.2,87.6z M167,83
			c0,0.1,0.1,0.2,0.2,0.3c0,0.1,0.2,0.1,0.2,0.1C167.3,83.3,167.1,83.1,167,83c-0.3-0.3,0.4-1.3-0.7-1C166.5,82.3,166.8,82.6,167,83
			z M74.4,66.7c0,0.1-0.2,0.3-0.1,0.4c0.1,0.4,0.3,0.4,0.5,0c0-0.1,0-0.3-0.1-0.4C74.6,66.7,74.5,66.7,74.4,66.7z M104.7,85.6
			l-0.2-0.2l0,0.3L104.7,85.6z"/>
		<path class="st3" d="M68.8,84.6c0.8-5.1,2.2-10,4.9-16c0.6,4.6-0.9,7.6-1.3,10.6c-1.4,11.1,0,21.8,5.3,31.8
			c1.7,3.3,3.6,5.6,6.3,0.6c0.4-0.8,1.5-1.3,2.2-1.9c2.4-0.1,3.6,0.9,3.9,3.4c0.8,7,4.4,12.3,9.9,16.6c2.6,2,4.8,4.6,7.1,6.9
			c-0.1,1.7-0.2,3.4-0.3,5.1c-0.4,1.1-0.8,2.1-1.1,3.2c-1.1-0.9-2.3-1.8-3.8-3c-3.2,8.2-2.7,19-14.8,20.2c-7.5,1.9-15,4.1-22.6,5.5
			c-4.5,0.8-6.3,2.8-5.6,7.2c-3.6-0.6-7-1.6-11.1-3.4c14.4-3,25.1-9.6,29.7-23.6c0.5-0.5,0.7-1.4,0.3-1.6c-1.2-0.5-1.3,0.9-1.7,1.6
			c-6.8,8.7-21.5,8.5-33.6,1.9c7.7-0.3,12-4.9,15.5-10.4c7.1-11.1,11-23.5,12.7-36.4c0.6-4.9-1.1-10.2-1.7-15.3
			C68.9,86.6,68.8,85.6,68.8,84.6z"/>
		<path class="st3" d="M170.1,102c2.8,1,5.7,1.6,8.2,3.2c-0.3,4.8-1.4,9.4-3,14c-6.5,19.7,7.2,40.4,28,42.7c1.8,0.2,3.5,0.4,6.3,0.7
			c-5.4,3.7-10.7,4.6-15.7,6.2c-9.6-2.1-19.2-4.1-28.8-6.2c-9.7-1.9-12.6-9.4-14.5-17.7c-0.7-3-2.1-4-4.7-1.7c-1-0.9-0.8-2.1-1-3.3
			c-0.3-1.7-0.6-3.4-0.9-5.1c6.1-7.8,15.4-13.5,16.1-24.8C165.5,110,168,106.3,170.1,102z"/>
		<path class="st4" d="M165,162.8c9.6,2.1,19.2,4.1,28.8,6.2c0,6.5-0.2,12.9,0.1,19.4c0.1,3.3-0.9,5.8-3.6,7.7
			c-4.6,3.2-8.1,7.8-13.3,10.2c-2.2-1.1-4.3-2.4-6.6-3.4c-1.5-0.7-2.2-1.9-2.3-3.5C167.2,187.2,166.1,175,165,162.8z"/>
		<path class="st4" d="M58.9,174.9c-0.8-4.4,1-6.3,5.6-7.2c7.6-1.4,15.1-3.7,22.6-5.5c-1.9,13.1-3.9,26.1-5.8,39.2
			c-0.6,4.1-4.7,4-7.2,5.9c-5-3-8.9-7.4-13.4-11c-1.6-1.3-1.7-3-1.7-4.9C59,185.8,59,180.4,58.9,174.9z"/>
		<path class="st3" d="M171.9,89.9c2.8,1.2,3.8,4.8,7.2,5.2c-0.1,2-0.2,4-0.3,6c-3.9-1.9-5.1-5.7-6.8-9.2
			C171.9,91.3,171.9,90.6,171.9,89.9z"/>
		<path class="st5" d="M68.8,84.6c0,1,0.1,2.1,0.1,3.1c0,0-0.4,0-0.4,0s-0.4,0-0.4-0.1C68.1,86.5,67.8,85.4,68.8,84.6z"/>
		<path class="st6" d="M76.1,147.8c0.4-0.7,0.5-2,1.7-1.6c0.5,0.2,0.3,1.1-0.3,1.6C77,147.8,76.6,147.8,76.1,147.8z"/>
		<path class="st7" d="M139,224.5c-2.1-0.6-2.8-0.6-3.3-1c-6.9-5.2-13.8-6.3-21-0.4c-2.2,1.8-3.8,0.7-2.8-1.9
			c3.9-9.6-1.2-15.6-8-21.1c-0.2-0.2-0.3-0.6-0.5-1.2c4.8-0.8,10.5-0.2,14-2.7c3.5-2.5,4.8-8,7.8-13.7c2.8,11.6,9.4,17.4,21.6,16.4
			C136.7,205.3,134.2,213.6,139,224.5z"/>
		<path class="st8" d="M144.8,140c0.3,1.1,0.1,2.4,1,3.3c-4.1,3.8-7.9,8.1-12.3,11.4c-5.1,3.7-7.4,8.8-9.3,14.5
			c-0.3-1.8-0.5-3.6-0.8-5.3c1.3-3.6,0.2-7.3,0.6-11c5.9-0.2,10.9-2.3,14.7-7C140.5,143.7,142.8,142,144.8,140z"/>
		<path class="st4" d="M124.1,152.9c-0.4,3.6,0.6,7.4-0.6,11c-0.1-2.8-1.7-4.7-3.8-6.5c-4.8-4-9.3-8.2-13.9-12.4
			c0.4-1.1,0.8-2.1,1.1-3.2C112.1,146.3,116.9,151.5,124.1,152.9z"/>
		<path class="st4" d="M160.1,110.1c-0.7,11.3-10.1,17-16.1,24.8c-1.9,1.8-3.9,3.6-5.6,5.6c-6.7,7.9-16.6,8.6-24.5,1.8
			c-2.2-1.9-3.9-4.5-6.8-5.7c-2.4-2.3-4.5-4.9-7.1-6.9c-5.5-4.3-9-9.7-9.9-16.6c-0.3-2.5-1.5-3.5-3.9-3.4c0.8-1.7,1.8-3.2,3.3-4.4
			c8.7,8.4,12.6,8.8,22.8,2.5c1.6-1,3.1-2,4.6-3c0,1.8,0.3,3.7,0,5.4c-0.7,4.9,2.7,7.1,5.8,9.5c1.8,1.5,3,0,4.1-1.2
			c0.7-0.8,1.3-1.5,0.1-2.4c-5.2-4.1-2.9-9.2-2-14.2c0.7,0.5,1.3,0.9,2,1.5c13.8,12.1,18.3,12.2,32.8,0.7c0.1-0.1,0.3-0.2,0.4-0.3
			C162.1,106,159.3,108,160.1,110.1z M136.1,126.9c-8-1.3-15.2-1.4-22.8,0.1C123,137.4,126.3,137.4,136.1,126.9z"/>
		<path class="st1" d="M116.9,104.9c-1.5,1-3,2-4.6,3c-10.2,6.3-14.1,5.9-22.8-2.5c1.6-3.4,4-6.1,6.5-8.8c5.6,3.4,11.1,3.1,17-0.2
			c-2-2.2-3.8-4-6.7-4.2c-0.4-0.4-0.7-0.8-1.1-1.2c1.9-3.6,3.7-7.1,5.6-10.7c11.5,6.8,15.4,6.8,23.8-0.1c1.3-1,2.5-2.2,3.7-3.3
			c4.5,4.7,9,9.3,13.5,14c-1.7,0-3.3,0-5,0c-2.3-1.4-4.3-0.9-6,1.1c-3.2-0.3-4.9,1.6-6.9,3.7c7.7,3.9,12.2,3.4,17.7-1.9
			c1,0.1,1.9-0.1,2.4-1.1c2.7,1.9,5.5,3.8,8.2,5.8c-0.3,1.9-0.9,3.8-2.1,5.3c-0.1,0.1-0.3,0.2-0.4,0.3c-14.4,11.5-19,11.4-32.8-0.7
			c-0.6-0.5-1.3-1-2-1.5c-0.8-2.3-2-3-3.9-1.2C119.6,102.1,117.7,102.9,116.9,104.9z"/>
		<path class="st4" d="M138.3,77c-1.2,1.1-2.4,2.3-3.7,3.3c-8.5,6.9-12.4,6.9-23.8,0.1c2.9-9.6,9.1-17.6,12.6-28.5
			C127.9,61.5,133.1,69.3,138.3,77z"/>
		<path class="st9" d="M146.8,90.9c1.7,0,3.3,0,5,0c0.2,0.2,0.4,0.4,0.6,0.6c-0.2,0.8-0.5,1.6-0.7,2.3c-5.5,5.3-10.1,5.8-17.7,1.9
			c1.9-2.1,3.7-4.1,6.9-3.7c0.1,2.2,1.1,3.4,3.3,3.1C146.7,94.9,147.2,93.1,146.8,90.9z"/>
		<path class="st10" d="M160.2,103.9c1.2-1.6,1.8-3.4,2.1-5.3c2.6,1.1,5.2,2.3,7.8,3.5c-2.1,4.2-4.6,8-10,8.1
			C159.3,108,162.1,106,160.2,103.9z"/>
		<path class="st9" d="M106.3,92.2c2.9,0.2,4.7,2,6.7,4.2c-5.9,3.3-11.4,3.6-17,0.2c1-2,2.2-3.9,4.1-5.1c0,1.3,0,2.6,1,3.6
			c0.1,0.7,0.2,1.3,0.4,2c0.5-0.4,0.9-0.8,1.4-1.2C105.6,96.2,106.2,94.4,106.3,92.2z"/>
		<path class="st11" d="M101.1,95.1c-0.9-1-1-2.3-1-3.6c0,0-0.1,0.1-0.1,0.1c0.8-0.2,0.8-0.7,0.8-1.4l0.3-0.1
			c0.6,0.2,1.3,0.4,1.9,0.6c-0.1,0.7-0.1,1.5-0.2,2.2c-0.4,0.7-0.7,1.4-1.1,2.1C101.5,95,101.3,95,101.1,95.1z"/>
		<path class="st11" d="M106.3,92.2c-0.1,2.2-0.7,4-3.4,3.7c-0.1-0.2-0.2-0.4-0.4-0.5c0.4-0.8,0.9-1.7,1.3-2.5
			c0.3-0.6,0.9-1.2,0.2-1.9l0,0.1c0.4,0,0.8-0.1,1.1-0.1C105.5,91.4,105.9,91.8,106.3,92.2z"/>
		<path class="st10" d="M171.9,89.9c0,0.7,0,1.3,0,2c-1.8-1.1-2.5-3-2.9-4.9c0.3,0,0.7,0,1,0C170.6,88,171.3,89,171.9,89.9z"/>
		<path class="st12" d="M103,90.8c-0.6-0.2-1.3-0.4-1.9-0.6c0.2-1.3,0.9-2.3,2.5-3c0.1,1.4,0.3,2.7,0.4,4l0-0.1
			C103.7,90.9,103.4,90.8,103,90.8z"/>
		<path class="st13" d="M151.7,93.9c0.2-0.8,0.5-1.6,0.7-2.3c0.6,0.4,1.1,0.8,1.7,1.2C153.6,93.8,152.7,94,151.7,93.9z"/>
		<path class="st3" d="M74.4,66.7c0.1,0,0.3,0,0.3,0c0.1,0.1,0.1,0.3,0.1,0.4c-0.2,0.4-0.4,0.4-0.5,0C74.2,67,74.3,66.8,74.4,66.7z"
			/>
		<path class="st3" d="M167,83c-0.2-0.3-0.5-0.7-0.7-1C167.5,81.7,166.7,82.7,167,83L167,83z"/>
		<path class="st5" d="M100.9,90.2c0,0.6,0,1.2-0.8,1.4C100.3,91.1,100.6,90.6,100.9,90.2z"/>
		<path class="st3" d="M170,87c-0.3,0-0.7,0-1,0c0-0.3,0-0.7,0-1l0,0C169.3,86.3,169.7,86.7,170,87z"/>
		<path class="st3" d="M169,86c-0.1-0.1-0.3-0.3-0.4-0.4c0.1,0,0.2,0,0.3,0.1C168.9,85.7,169,85.9,169,86C169,86,169,86,169,86z"/>
		<polygon class="st12" points="104.7,85.6 104.4,85.7 104.4,85.4 		"/>
		<path class="st3" d="M167,83c0.1,0.1,0.3,0.3,0.4,0.4c-0.1,0-0.2,0-0.2-0.1C167.1,83.2,167.1,83.1,167,83C167,83,167,83,167,83z"
			/>
		<path class="st10" d="M107.1,136.7c2.9,1.2,4.6,3.7,6.8,5.7c7.9,6.8,17.7,6.1,24.5-1.8c1.7-2,3.7-3.7,5.6-5.6
			c0.3,1.7,0.6,3.4,0.9,5.1c-2,1.9-4.3,3.7-6.1,5.8c-3.8,4.8-8.8,6.8-14.7,7c-7.2-1.4-12-6.6-17.2-11.1
			C106.9,140.1,107,138.4,107.1,136.7z"/>
		<path class="st14" d="M136.1,126.9c-9.8,10.4-13.1,10.4-22.8,0.1C120.9,125.5,128.2,125.7,136.1,126.9z"/>
		<path class="st8" d="M116.9,104.9c0.8-1.9,2.7-2.8,4.2-4.1c1.9-1.8,3.2-1.1,3.9,1.2c-0.9,4.9-3.2,10.1,2,14.2
			c1.2,0.9,0.5,1.7-0.1,2.4c-1.1,1.3-2.3,2.7-4.1,1.2c-3.1-2.4-6.5-4.7-5.8-9.5C117.2,108.5,116.9,106.7,116.9,104.9z"/>
		<path class="st11" d="M146.8,90.9c0.3,2.2-0.1,4-2.7,4.3c-2.2,0.3-3.3-1-3.3-3.1C142.5,90.1,144.5,89.5,146.8,90.9z"/>
		<path class="st15" d="M102.5,95.5c0.2,0.1,0.3,0.2,0.4,0.5c-0.5,0.4-0.9,0.8-1.4,1.2c-0.1-0.7-0.2-1.3-0.4-2
			c0.2-0.1,0.4-0.1,0.6,0C102,95.3,102.2,95.4,102.5,95.5z"/>
		<path class="st3" d="M102.5,95.5c-0.3-0.1-0.5-0.2-0.8-0.4c0.3-0.7,0.7-1.4,1.1-2.1c0.3,0,0.7,0,1,0
			C103.4,93.8,102.9,94.6,102.5,95.5z"/>
		<path class="st2" d="M103.8,93c-0.3,0-0.7,0-1,0c0.1-0.7,0.1-1.5,0.2-2.2c0.3,0.1,0.7,0.2,1,0.3C104.7,91.8,104.1,92.3,103.8,93z"
			/>
	</g>
</g>
</svg>
