<?xml version="1.0" encoding="utf-8"?>
<!-- Generator: Adobe Illustrator 23.0.3, SVG Export Plug-In . SVG Version: 6.00 Build 0)  -->
<svg version="1.1" id="Layer_1" xmlns="http://www.w3.org/2000/svg" xmlns:xlink="http://www.w3.org/1999/xlink" x="0px" y="0px"
	 viewBox="0 0 250 250" style="enable-background:new 0 0 250 250;" xml:space="preserve">
<style type="text/css">
	.st0{fill:none;}
	.st1{fill:#7B14F4;}
	.st2{fill:#7623F9;}
	.st3{fill:#46843D;}
	.st4{fill:#825034;}
	.st5{fill:#844530;}
	.st6{fill:#30BA25;}
	.st7{fill:#61EA21;}
	.st8{fill:#512E28;}
	.st9{fill:#562C1B;}
	.st10{fill:#F6E5E5;}
	.st11{fill:#383435;}
</style>
<g>
	<g>
		<path class="st0" d="M123,251c-40.7,0-81.3,0-122,0C1,167.7,1,84.3,1,1c82,0,164,0,246-0.1c3.4,0,4.1,0.7,4.1,4.1
			c-0.1,80.7-0.1,161.3,0,242c0,3.4-0.7,4.1-4.1,4.1c-41-0.2-82-0.1-123-0.1c0.3-1.6,1.8-2.3,2.8-3.3c24.3-22.2,48.6-44.4,72.9-66.5
			c1.6-1.4,3.4-2.6,3.3-5.2c-0.2-3.5-0.1-7-0.1-10.5c0.2-1.8,0.5-3.6,0.6-5.4c0.3-9.3,0.3-9.3-8.6-11.3c-10.2-2.3-20.3-4.8-30.5-7
			c-3.7-0.8-6.2-5.2-10.7-3.7c-0.6-8.4,0.7-16.8-0.7-25.2c0-2,0.1-4,0.1-6c5.8-5.4,6.3-12.5,5.8-19.8c10.1-5.2,13.3-17.5,6.6-25.3
			c1.6-3.7-2.9-3.7-3.6-6c0.5-7.3,1.4-14.6,1.5-21.9c0.5-17.4,3.7-12.3-12.2-19.5c-3.8-1.7-7.8-3-11.8-4.1
			c-6.4-1.8-12.9-3.1-19.7-2.1c-12.1,1.9-23.5,5.8-35.1,9.6c-2,0.7-3,1.6-2.8,3.9c1.1,10.8,2,21.5,3,32.3C80,58,80,58,82.1,63
			c-3.5-0.1-4.4,2.4-5,5.1C75.9,74.9,80.5,83.6,87,87c0.2,7.5,0.6,14.9,5.6,21.2c0,1.5,0.1,3,0.1,4.5c-1.2,8.7-0.1,17.4-0.6,26.1
			c-5-1.6-7.7,3.4-11.9,4.2c-9.4,1.8-18.6,4.5-27.9,6.5c-3.4,0.7-5,2-4.4,5.5c0.2,1.3,0.2,2.6,0.2,3.9c-0.1,5.8,0,11.6-0.3,17.4
			c-0.1,2.8,0.9,4.6,2.9,6.5c11.7,10.8,23.3,21.8,35,32.6C98.1,227,110.1,239,123,250C123,250.3,123,250.7,123,251z"/>
		<path class="st1" d="M123,251c0-0.3,0-0.7,0-1c0-24.3,0-48.6,0-72.9c7.3-5,14.6-9.8,21.8-14.9c2.4-1.7,4.8-2.5,7.8-2.3
			c16.9,1.1,33.7,3.1,50.4,5.7c0,3.5-0.1,7,0.1,10.5c0.1,2.6-1.7,3.8-3.3,5.2c-24.3,22.2-48.6,44.3-72.9,66.5
			c-1.1,1-2.5,1.6-2.8,3.3C123.7,251,123.3,251,123,251z"/>
		<path class="st2" d="M123,177c0,24.3,0,48.6,0,72.9C110.1,239,98.1,227,85.7,215.5c-11.7-10.8-23.3-21.8-35-32.6
			c-2-1.8-3-3.7-2.9-6.5C48,170.6,48,164.8,48,159c13.8-0.4,27.6-1.1,41.4-1.1c4,0,7.3,1,10.6,3.3C107.5,166.7,115.3,171.8,123,177z
			"/>
		<path d="M85,54.2c-1-10.8-1.9-21.5-3-32.3c-0.2-2.3,0.8-3.2,2.8-3.9c11.5-3.8,23-7.7,35.1-9.6c6.8-1,13.3,0.3,19.7,2.1
			c4,1.1,8,2.4,11.8,4.1c15.9,7.1,12.7,2,12.2,19.5c-0.2,7.3-1,14.6-1.5,21.9c-1.1-1-2.2-2-3.3-3c0.5-3-0.3-5.5-3.1-7.1
			c-1.5-0.9-2.7-1.9-2.8-3.8c0.3-1.6,0.6-3.3,0.9-4.9c0.7-3.3,0.7-5.4-4-4.1c-8.1,2.4-16.6,3.3-25.1,2.8c-3.5-0.2-5.4,1.3-7.3,4
			c-2.1,3-1.2,6.5-1.7,10c-4.6-1.6-7.7-4.5-7.5-8.4c0.4-6.4-3.1-6.7-7.6-6.6c-1.5,0-3-0.1-4.4-0.5c-3-0.9-3.5,0.6-3.3,3
			c0.3,2.8,0.6,5.6,0.8,8.4c-2.7,2-6.7,2.6-6.8,7C86.4,53.3,85.7,53.8,85,54.2z"/>
		<path class="st3" d="M123,177c-7.7-5.2-15.5-10.3-23-15.8c-3.3-2.4-6.5-3.3-10.6-3.3c-13.8,0-27.6,0.6-41.4,1.1
			c-0.1-1.3,0-2.7-0.2-3.9c-0.6-3.6,1-4.8,4.4-5.5c9.3-2,18.5-4.7,27.9-6.5c4.3-0.8,7-5.8,11.9-4.2c1.8,2.6-0.8,6.3,2.4,8.7
			c9.6,7,18.5,14.9,28.5,21.4c7.6-4.5,14-10.6,21.2-15.6c5.3-3.7,10.8-7.3,9.7-15.1c4.5-1.5,6.9,2.9,10.7,3.7
			c10.2,2.2,20.3,4.7,30.5,7c8.9,2,8.9,2,8.6,11.3c-0.1,1.8-0.4,3.6-0.6,5.4c-16.7-2.6-33.5-4.7-50.4-5.7c-3-0.2-5.4,0.6-7.8,2.3
			C137.6,167.2,130.3,172.1,123,177z"/>
		<path class="st4" d="M123,168.8c-10-6.5-18.9-14.4-28.5-21.4c-3.2-2.3-0.6-6.1-2.4-8.7c0.5-8.7-0.6-17.4,0.6-26.1
			c5.7,5.5,11.6,10.9,17.1,16.7c3.7,3.8,7.9,5.9,13.2,5.8C123,146.4,123,157.6,123,168.8z"/>
		<path class="st5" d="M123,168.8c0-11.2,0-22.4,0-33.7c7.5,0.8,12.8-2.5,17.3-8.5c3.7-5,8.6-9.2,12.9-13.7
			c1.4,8.4,0.1,16.8,0.7,25.2c1,7.8-4.4,11.4-9.7,15.1C136.9,158.2,130.6,164.3,123,168.8z"/>
		<path class="st6" d="M158.7,52.9c1.1,1,2.2,2,3.3,3c0.7,2.3,5.2,2.3,3.6,6c-1.6,2.4-3.1,4.9-4.7,7.3c-1.5,1.2-2.5,2.7-3.1,4.5
			c-3.1,3.7-5.3,9.4-11.8,5.2c-5.7-2.9-11.7-4.5-17.9-5.8c-1.7-0.1-3.4-0.2-5.1-0.3c-0.3-0.1-0.7-0.3-1-0.4c0-2.2,0-4.3,0-6.5
			c1.6-0.3,3.2-0.6,4.8-1c10.5-2.5,20.2-6.3,25.1-17C154.8,48.8,156.3,51.5,158.7,52.9z M144.8,67c-1.2,0-2.3,0.1-3.5,0.1
			c-2.8-0.3-5.4,0.4-8.2,1.1c6.8,7.2,15.7,6.3,21.5-2.1C151.1,66.1,147.9,65.9,144.8,67z"/>
		<path class="st7" d="M122,66c0,2.2,0,4.3,0,6.5c-1,0.2-2,0.4-3.1,0.6c-6.3,0.5-12.3,2.2-17.9,5.1c-3.9,3.3-6.7,2.4-8.9-2
			c-0.8-1.6-2.1-2.8-3.2-4.2c-0.7-1.5-1.3-3.1-2.9-3.9c-0.9-2-1.8-4-3.9-5C80,58,80,58,85,54.2c0.7-0.4,1.3-0.9,2-1.3
			c3-0.9,4.5-4.3,7.9-4.7C101.1,58.4,110.7,63.6,122,66z M101.3,67c-3.1-1.2-6.3-0.9-9.8-0.9c6.1,8.5,15,9.3,21.6,2.1
			c-2.8-0.7-5.5-1.4-8.3-1.1C103.6,67.1,102.4,67,101.3,67z"/>
		<path class="st5" d="M88.9,71.9c1.1,1.4,2.4,2.7,3.2,4.2c2.2,4.4,5,5.3,8.9,2c0,1.8-0.3,3.7,0,5.5c1.5,10.8,0.4,21.8,1.8,32.6
			c-3.6-2.5-6.2-6.2-10.3-8.1c-4.9-6.2-5.3-13.7-5.6-21.2c0-3,0-5.9,0-8.9C89.8,76.7,88.6,74.1,88.9,71.9z"/>
		<path class="st5" d="M146,79c6.5,4.2,8.8-1.4,11.8-5.2c0.3,1.5-0.3,3.3,1.2,4.5c0,3,0,6,0,9c0.4,7.3,0,14.3-5.8,19.8
			c-3,3.1-6.1,6.1-9.1,9.2c-0.8-9.8,1.6-19.5,0.9-29.4C144.8,84.1,145.2,81.5,146,79z"/>
		<path class="st8" d="M144.1,116.2c3-3.1,6.1-6.1,9.1-9.2c0,2-0.1,4-0.1,6c-4.3,4.5-9.2,8.7-12.9,13.7c-4.5,6-9.8,9.3-17.3,8.5
			c-5.3,0.1-9.5-2-13.2-5.8c-5.5-5.7-11.4-11.1-17.1-16.7c0-1.5-0.1-3-0.1-4.5c4.1,1.8,6.7,5.6,10.3,8.1c2.3,2.4,4.6,4.8,7,7.1
			c9,8.7,20.4,8.4,28.9-0.7C140.6,120.6,142.3,118.3,144.1,116.2z"/>
		<path class="st8" d="M87,78.1c0,3,0,5.9,0,8.9c-6.5-3.3-11.2-12.1-9.8-18.9c0.5-2.7,1.4-5.2,5-5.1c2.1,1.1,3,3.1,3.9,5
			C86.2,71.4,85.5,74.8,87,78.1z"/>
		<path class="st8" d="M159.1,87.2c0-3,0-6,0-9c1.9-2.7,1.9-5.8,1.9-9c1.6-2.4,3.1-4.9,4.7-7.3C172.3,69.7,169.1,82,159.1,87.2z"/>
		<path class="st4" d="M122,66c-11.4-2.4-20.9-7.6-27.1-17.8c0.1-1-0.1-1.8-1.1-2.3c-0.3-2.8-0.5-5.6-0.8-8.4
			c-0.3-2.5,0.3-3.9,3.3-3c1.4,0.4,3,0.5,4.4,0.5c4.5-0.1,8.1,0.1,7.6,6.6c-0.3,3.9,2.9,6.8,7.5,8.4c0.5-3.5-0.4-7,1.7-10
			c1.9-2.7,3.8-4.2,7.3-4c8.5,0.5,16.9-0.4,25.1-2.8c4.7-1.4,4.6,0.8,4,4.1c-0.3,1.6-0.6,3.2-0.9,4.9c-1.5,1.8-0.6,4-0.8,5.9
			c-5,10.7-14.6,14.5-25.1,17C125.2,65.4,123.6,65.7,122,66z"/>
		<path class="st5" d="M152,48c0.3-2-0.6-4.1,0.8-5.9c0.1,1.9,1.3,2.9,2.8,3.8c2.8,1.6,3.6,4.1,3.1,7.1
			C156.3,51.5,154.8,48.8,152,48z"/>
		<path class="st5" d="M93.8,45.8c1,0.5,1.2,1.3,1.1,2.3c-3.3,0.4-4.9,3.8-7.9,4.7C87.1,48.4,91.1,47.8,93.8,45.8z"/>
		<path class="st4" d="M144.1,116.2c-1.8,2.2-3.5,4.4-5.4,6.5c-8.5,9.1-19.9,9.3-28.9,0.7c-2.4-2.3-4.7-4.8-7-7.1
			c-1.3-10.8-0.2-21.8-1.8-32.6c-0.3-1.8,0-3.6,0-5.5c5.6-2.9,11.6-4.6,17.9-5.1c0.3,4.7-1.5,9.1-2.1,13.6c-0.6,4.9,0.9,7.3,6.2,8.2
			c5.4,0,7.3-1.7,6.9-7c-0.3-4.9-1.2-9.8-1.8-14.7c6.2,1.2,12.2,2.9,17.9,5.8c-0.8,2.6-1.2,5.2-1,7.9
			C145.7,96.6,143.3,106.4,144.1,116.2z M110,99.9c-0.4-0.2-0.7-0.5-1.1-0.7c0,0-0.2,0.2-0.3,0.4c0.4,0.2,0.9,0.3,1.3,0.5
			c1.1,1.2,2.5,1.8,4.1,1.9c6.2,1.8,12.4,0.9,18.7,0.5c-6.3,0-12.5-1.4-18.8-1.8C112.8,99.6,111.4,100.1,110,99.9z"/>
		<path class="st8" d="M128.1,73.2c0.6,4.9,1.5,9.8,1.8,14.7c0.4,5.3-1.5,7-6.9,7c0-7.4,0-14.7,0-22.1
			C124.8,73,126.4,73.1,128.1,73.2z"/>
		<path class="st9" d="M123.1,72.9c0,7.4,0,14.7,0,22.1c-5.3-1-6.8-3.3-6.2-8.2c0.6-4.6,2.4-9,2.1-13.6c1-0.2,2-0.4,3.1-0.6
			C122.4,72.6,122.7,72.8,123.1,72.9z"/>
		<path class="st10" d="M144.8,67c3.2-1.1,6.4-0.9,9.8-0.8c-5.8,8.4-14.7,9.3-21.5,2.1c2.8-0.7,5.4-1.4,8.2-1.1
			c-0.3,1.6-1,3.3,0.9,4.4c1,0.6,1.9,0.2,2.7-0.5C146.4,69.6,145.4,68.3,144.8,67z"/>
		<path class="st11" d="M144.8,67c0.6,1.3,1.6,2.6,0.1,4c-0.8,0.7-1.6,1.1-2.7,0.5c-2-1.1-1.2-2.8-0.9-4.4
			C142.4,67.1,143.6,67,144.8,67z"/>
		<path d="M161,69.3c0,3.1,0,6.2-1.9,9c-1.5-1.2-0.9-3-1.2-4.5C158.5,72,159.4,70.5,161,69.3z"/>
		<path class="st10" d="M104.7,67.1c2.8-0.3,5.4,0.3,8.3,1.1c-6.6,7.2-15.5,6.4-21.6-2.1c3.5,0,6.7-0.3,9.8,0.9
			c-0.6,1.5-1.3,3.1,0.5,4.3c0.7,0.5,1.5,0.5,2.3,0.1C105.9,70.3,105.2,68.7,104.7,67.1z"/>
		<path d="M87,78.1c-1.5-3.2-0.8-6.7-1-10.1c1.6,0.8,2.1,2.4,2.9,3.9C88.6,74.1,89.8,76.7,87,78.1z"/>
		<path class="st11" d="M104.7,67.1c0.5,1.5,1.2,3.1-0.7,4.3c-0.8,0.4-1.5,0.5-2.3-0.1c-1.8-1.3-1.1-2.8-0.5-4.3
			C102.4,67,103.6,67.1,104.7,67.1z"/>
		<path class="st8" d="M113.9,100.7c6.3,0.3,12.5,1.7,18.8,1.8c-6.2,0.4-12.5,1.3-18.7-0.5C114,101.6,114,101.1,113.9,100.7z"/>
		<path class="st9" d="M113.9,100.7c0,0.4,0.1,0.8,0.1,1.2c-1.6-0.1-3-0.7-4.1-1.9l0.1-0.1C111.4,100.1,112.8,99.6,113.9,100.7z"/>
		<path class="st9" d="M109.9,100.1c-0.4-0.2-0.9-0.3-1.3-0.5c0.1-0.1,0.3-0.4,0.3-0.4c0.4,0.2,0.7,0.5,1.1,0.7
			C110,99.9,109.9,100.1,109.9,100.1z"/>
	</g>
</g>
</svg>
