<?xml version="1.0" encoding="utf-8"?>
<!-- Generator: Adobe Illustrator 23.0.3, SVG Export Plug-In . SVG Version: 6.00 Build 0)  -->
<svg version="1.1" id="Layer_1" xmlns="http://www.w3.org/2000/svg" xmlns:xlink="http://www.w3.org/1999/xlink" x="0px" y="0px"
	 viewBox="0 0 250 250" style="enable-background:new 0 0 250 250;" xml:space="preserve">
<style type="text/css">
	.st0{fill:none;}
	.st1{fill:#B72525;}
	.st2{fill:#702222;}
	.st3{fill:#8E2525;}
	.st4{fill:#512E28;}
	.st5{fill:#825034;}
	.st6{fill:#7A5935;}
	.st7{fill:#E5E5E5;}
	.st8{fill:#D1D4D6;}
	.st9{fill:#FCC51A;}
	.st10{fill:#FFE088;}
	.st11{fill:#0F6594;}
	.st12{fill:#A62527;}
	.st13{fill:#F9FAFB;}
	.st14{fill:#151515;}
	.st15{fill:#D3624C;}
	.st16{fill:#1473B7;}
</style>
<g>
	<g>
		<path class="st0" d="M125,251c-41.3,0-82.7,0-124,0C1,167.7,1,84.3,1,1c82,0,164,0,246-0.1c3.4,0,4.1,0.7,4.1,4.1
			c-0.1,80.7-0.1,161.3,0,242c0,3.4-0.7,4.1-4.1,4.1c-40-0.2-80-0.1-120-0.1c0.7-0.7,1.5-1.4,2.2-2c17.6-15,35.3-30,52.9-44.9
			c5.9-4.9,11.7-9.9,17.7-14.5c2.5-2,3.3-4.1,3.2-7.2c-0.2-5.7-0.4-11.4,0-17c0.4-4.9-1.6-6.6-6.1-6.3c-12.2-3.5-24.6-6-36.9-8.8
			c-3.6-2.5-6-5.9-7.4-10c5.5,1.3,10.7,0.8,16.2-1.8c-2.3-0.7-4.1-1.3-6-1.8c7.6,0.2,13.9-2.5,20.3-8c-6.7-0.7-12.4-1.9-16.7-6.2
			c0.3-0.3,0.5-0.6,0.8-0.9c2.7,0.3,5.3,1.5,8.8,0.7c-5.2-7.6-8.8-15.6-12-23.7c2-9.5,4-19,6-28.4c5.4-2.5,12.7-3,11.9-11.9
			c-0.2-2.8,2.5-2.1,4.1-2.1c2.9-0.1,6.2,0.6,7.7-3c0.7-1,1.4-2,2.1-2.9c2.2-0.1,4.7,0.2,5-3c0.7-0.7,1.3-1.3,2-2
			c1.8-1,4.2-1.1,5.6-3.1c0.7-1.1,2.2-2,1.5-3.4c-0.6-1.1-2.1-0.5-3.2-0.5c-7.6,0-15.3-0.1-22.9,0c-5.1,0-8.9,3.9-9,9c0,3,0,6,0,9
			c0,2-0.3,3.7-2.7,4c1.6-8.1,1.8-16.2-0.9-24.1C165.6,19,152.8,9.7,136,6.3c-18.9-3.8-36.1,0.2-49.8,14.6
			C75.7,32,73.9,45.5,76.9,60c-2.8,0.2-3.9-1.2-3.9-3.9c0.1-3.3,0.1-6.7,0-10c-0.2-4.4-3.2-7.6-6.9-7.9C56.7,37.6,47.3,38,37.4,38
			c2.8,6.2,8.9,7.8,12.7,11.9c0.3,0.3,1.3,0.1,1.9,0.1c0.7,1.3,1.7,2.3,3,3c0.8,4.3,4.3,2.9,6.8,2.8c3.2,0,4.7,0.9,4.3,4.2
			c-0.3,2.5,0.4,4.6,2.8,5.8c3.4,1.7,6.7,3.4,10.1,5.1c2.5,9.6,4.2,19.3,5.9,29.1c-3.3,8.6-7.3,16.8-13.1,25.1c3.6,0,6,0,9.4,0
			c-4.9,4.7-10.3,5.1-16.1,6.3c6,4.9,12.1,7.8,19.6,7.7c-1.8,1.7-4,0.6-6.1,1.6c7.2,4.1,14.2,3.3,21.3,1.1c-1,4.1-4.4,6-7.3,8.3
			c-12.4,3.2-24.7,6.4-37.1,9.5c-2-0.1-2.4,1-2.4,2.8c0.1,7.8,0.1,15.6,0,23.4c0,1.6,0.4,2.8,1.7,3.9c5.7,4.7,11.4,9.6,17.1,14.3
			c6.4,5.7,12.9,11.3,19.3,17.1C102.4,231.2,114.3,240.4,125,251z"/>
		<path class="st1" d="M182.1,204.1c-17.6,15-35.3,29.9-52.9,44.9c-0.8,0.6-1.5,1.3-2.2,2c-0.7,0-1.3,0-2,0
			c-10.7-10.6-22.6-19.8-33.8-29.8c-6.4-5.7-12.9-11.4-19.3-17.1c8.1-8.7,29.2-9.7,39.7-3.1c2.8,1.8,5.6,3.3,8.5,5
			c-3.9,2.4-8.9,0.9-13.8,3.6c9.7,5,10.9,12.5,8,21.3c0,0.3,0.1,0.5,0.1,0.8c0.4-0.1,0.7-0.3,1.1-0.4c3.5-1.8,7.1-3.7,10.6-5.5
			c4.1,1.3,7.4,4.4,11.7,5.3c0.7-1.9,0.5-3.6,0-5.1c-2-5.7-0.5-10,4.5-13.2c0.3-0.2,0.6-0.4,0.8-0.6c0.8-1,2.5-1.6,2-3.1
			c-0.4-1.2-2-0.9-3.1-1.1c-3.1-0.5-6.3-0.5-9.2-1.8c0.9-0.4,2-0.5,2.7-1.2c10.3-10.2,31.9-11.1,44.2-2.2
			C180.2,203.5,181.2,203.7,182.1,204.1z"/>
		<path class="st1" d="M84.9,100.1C83.2,90.3,81.4,80.6,79,71c-0.7-3.7-1.4-7.4-2.1-11c-3-14.5-1.2-27.9,9.3-39
			C99.9,6.5,117.1,2.5,136,6.3c16.8,3.4,29.6,12.7,35.3,29.6c2.7,7.9,2.5,16,0.9,24.1c-0.7,3.4-1.4,6.7-2.1,10.1c-2,9.5-4,19-6,28.4
			c-2,8.1-2.6,16.9-11.2,21.5c0.8-3.7,1.6-7.4,2.5-11.1c0.4-1.7,0.2-2.9-1.6-3.5c-10-3.4-19.6-8-29.9-10.7c-3.1,0.3-6.1,1.2-8.9,2.5
			c-6.5,1.8-13.1,3.7-19.7,5.3c-3.2,0.7-4,2.4-3.4,5.3c1,4.2,2,8.3,3,12.4c-3.5-0.4-4.4-3.5-5.9-5.9
			C86.3,109.9,86.6,104.7,84.9,100.1z M124,48.2c2,1.3,6.1-1.1,6.4,2.2c0.6,6.8,5.2,5.3,9.3,5.5c2.6,0.1,3.1-0.8,2.5-3.2
			c-1.1-4.3-2.1-8.7-3-13c-2.5-10.9-2.5-10.9-13.7-10.2c-0.5,0-1,0.2-1.4,0.4c-2.5-0.1-5-0.1-7.4-0.4c-3.8-0.5-5.6,1-6.3,4.8
			c-1,5.7-2.6,11.3-3.8,17c-0.3,1.5-1.9,4.2,0.9,4.3c3.1,0.1,8.2,2.4,9.1-1.8C117.5,48.8,120.2,48.4,124,48.2z M90.3,70.2
			c-7.9-0.2-8.3,0.2-6.1,5.4c3,7.2,7.8,12.6,15,16c7.4,3.5,13.6,2,19-4.4c1.7-2,1.9-3.3-0.3-5.2C109.1,74.5,99.1,70.7,90.3,70.2z
			 M158,71.9c-10.6,0.6-19.9,4.4-28,11.4c-1.9,1.6-2.1,2.9-0.4,4.9c5,6.1,10.3,7.5,17.5,4.3c6.8-3.1,11.6-8.2,14.6-14.9
			C164.1,72.3,163.8,71.7,158,71.9z"/>
		<path class="st2" d="M182.1,204.1c-0.9-0.4-1.9-0.6-2.7-1.2c-12.3-8.9-33.9-8.1-44.2,2.2c-0.6,0.6-1.8,0.8-2.7,1.2
			c-2.8-3.5-3.4-8.2-6.6-11.4c0-6.3,0-12.6,0.1-18.8c1.5-0.1,3,0,4.4-0.3c11.4-2.7,22.7-5.5,34.1-8.4c10.8-2.7,21.9-4.4,32.4-8.3
			c4.5-0.2,6.5,1.4,6.1,6.3c-0.5,5.6-0.3,11.3,0,17c0.1,3.1-0.7,5.3-3.2,7.2C193.8,194.2,188,199.2,182.1,204.1z"/>
		<path class="st3" d="M126,176c0,6.3,0,12.6-0.1,18.8c-0.1,0.3-0.1,0.5,0,0.8c-2,3.5-3.9,6.9-5.9,10.4c-2.8-1.7-5.7-3.3-8.5-5
			c-10.5-6.6-31.6-5.6-39.7,3.1c-5.7-4.8-11.4-9.6-17.1-14.3c-1.3-1.1-1.7-2.3-1.7-3.9c0.1-7.8,0.1-15.6,0-23.4
			c0-1.8,0.4-2.9,2.4-2.8c12.2,2.9,24.4,5.9,36.6,8.7C103.4,171.1,114.4,174.8,126,176C126,176,126,176,126,176z"/>
		<path class="st4" d="M84.9,100.1c1.7,4.6,1.4,9.9,4.2,14.1c1.5,2.3,2.5,5.4,5.9,5.9L95,120c-0.5,1.7,1.3,1.8,1.9,2.7
			c3,2.8,6.1,5.6,9.1,8.4c-0.3,0.9-0.6,1.9-0.9,2.8c-0.7,2.7-1.9,5.2-4.1,7c-0.4,0.3-0.7,0.7-1.1,1l0-0.1c-7.1,2.2-14.2,3-21.3-1.1
			c2.1-1,4.3,0,6.1-1.6c-7.5,0.2-13.6-2.7-19.6-7.7c5.8-1.2,11.2-1.6,16.1-6.3c-3.4,0-5.8,0-9.4,0C77.6,116.9,81.6,108.7,84.9,100.1
			z M81.2,124.7c0.1,0.1,0.2,0.3,0.3,0.3c0.1,0,0.2-0.2,0.3-0.3c-0.2-0.1-0.3-0.2-0.5-0.3C81.3,124.5,81.2,124.6,81.2,124.7z
			 M83.6,123.5l-0.3-0.2l0,0.3L83.6,123.5z"/>
		<path class="st3" d="M197,159c-10.5,3.9-21.6,5.6-32.4,8.3c-11.4,2.9-22.7,5.6-34.1,8.4c-1.4,0.3-3,0.2-4.4,0.3l0,0
			c0-3.5,0-7,0-10.5c13.5-0.3,24.7-5.7,34.1-15.3C172.4,153,184.8,155.5,197,159z"/>
		<path class="st1" d="M126,165.5c0,3.5,0,7,0,10.5c-11.6-1.2-22.6-4.9-33.8-7.5c-12.2-2.8-24.4-5.8-36.6-8.7
			c12.4-3.2,24.7-6.4,37.1-9.5c8.8,10,19.9,15,33.2,14.9L126,165.5z"/>
		<path class="st5" d="M160.1,150.2c-9.4,9.6-20.6,15-34.1,15.3c0,0-0.1-0.4-0.1-0.4c0-6.6,0-13.3,0-19.9c6.4-0.1,11.3-3.1,15-8.2
			c2.3-3.1,5-5.7,7.9-8.1c0.7,4,1.5,7.9,3.9,11.3C154.1,144.4,156.5,147.7,160.1,150.2z"/>
		<path class="st4" d="M152.7,140.2c-2.3-3.4-3.2-7.3-3.9-11.3c0.1-1.1,0.2-2.2-0.8-2.9c1.3-1.7,2.7-3.4,4-5.1c0.3-0.3,0.6-0.7,1-1
			l-0.1,0c8.6-4.7,9.2-13.4,11.2-21.5c3.2,8.1,6.8,16.1,12,23.7c-3.4,0.9-6.1-0.4-8.8-0.6c-0.5-0.3-1-0.6-1.4-1
			c-0.5-0.5-1.2-1-1.5-0.2c-0.3,0.8,0.6,1.3,1.4,1.6c0.2,0.2,0.5,0.3,0.7,0.4c4.3,4.3,10,5.5,16.7,6.2c-6.4,5.4-12.7,8.1-20.3,8
			c1.8,0.6,3.6,1.1,6,1.8C163.4,141,158.2,141.5,152.7,140.2z"/>
		<path class="st6" d="M125.9,145.3c0,6.6,0,13.3,0,19.9c-13.4,0.1-24.4-4.9-33.2-14.9c2.9-2.3,6.3-4.3,7.3-8.3l0,0.1
			c0.4-0.3,0.7-0.7,1.1-1c2.2-1.9,3.4-4.3,4.1-7c1.4,1.1,3,2.1,4.3,3.4C114,141.9,119,145.6,125.9,145.3z"/>
		<path class="st7" d="M76.9,60c0.7,3.7,1.4,7.4,2.1,11c-3.4-1.7-6.7-3.4-10.1-5.1c-2.4-1.2-3.1-3.3-2.8-5.8
			c0.4-3.3-1.1-4.3-4.3-4.2c-2.5,0-6,1.5-6.8-2.8c3-0.1,6,0,8.9-0.3c1.3-0.1,2.5-1.1,2.6-2.6c0.1-0.7-0.7-1.1-1.4-1.1
			c-4.4,0.4-8.9-1.2-13.1,0.9c-0.7,0-1.6,0.2-1.9-0.1c-3.8-4.1-9.9-5.7-12.7-11.9c9.9,0,19.3-0.4,28.7,0.2c3.8,0.3,6.7,3.5,6.9,7.9
			c0.2,3.3,0.1,6.7,0,10C72.9,58.8,74.1,60.2,76.9,60z"/>
		<path class="st7" d="M170.2,70c0.7-3.4,1.4-6.7,2.1-10.1c2.4-0.3,2.8-2,2.7-4c0-3,0-6,0-9c0.1-5.2,3.8-9,9-9
			c7.6-0.1,15.3,0,22.9,0c1.1,0,2.6-0.6,3.2,0.5c0.7,1.4-0.7,2.3-1.5,3.4c-1.4,1.9-3.7,2-5.6,3.1c-5.8-2.2-11.7-0.6-17.6-0.9
			c-1,0-2,0.6-1.8,1.9c0.2,1.1,1.2,1,2,1c5.1,0,10.3,0,15.4,0.1c-0.3,3.2-2.8,2.9-5,3c-3.5-2.2-7.4-0.6-11.1-1
			c-1.2-0.1-3.2-0.7-3.3,1c-0.2,1.9,1.6,2.8,3.4,2.8c3,0.1,6,0,8.9,0c-1.5,3.7-4.7,2.9-7.7,3c-1.7,0.1-4.4-0.7-4.1,2.1
			C182.9,67,175.6,67.5,170.2,70z"/>
		<path class="st8" d="M201,47c-5.1,0-10.3,0-15.4-0.1c-0.8,0-1.8,0.1-2-1c-0.2-1.3,0.9-1.9,1.8-1.9c5.9,0.3,11.8-1.3,17.6,0.9
			C202.3,45.7,201.7,46.3,201,47z"/>
		<path class="st8" d="M193.9,53c-3,0-6,0.1-8.9,0c-1.8-0.1-3.6-1-3.4-2.8c0.1-1.8,2.2-1.2,3.3-1c3.7,0.4,7.6-1.2,11.1,1
			C195.3,51,194.6,52,193.9,53z"/>
		<path class="st8" d="M52,50c4.2-2.2,8.8-0.5,13.1-0.9c0.7-0.1,1.5,0.4,1.4,1.1c-0.1,1.5-1.3,2.5-2.6,2.6c-3,0.3-6,0.2-8.9,0.3
			C53.6,52.3,52.7,51.3,52,50z"/>
		<path class="st9" d="M125.9,195.7c-0.1-0.3,0-0.5,0-0.8c3.2,3.2,3.8,7.9,6.6,11.4c2.9,1.3,6.1,1.4,9.2,1.8
			c1.1,0.2,2.7-0.1,3.1,1.1c0.5,1.5-1.2,2.1-2,3.1c-0.2,0.3-0.5,0.5-0.8,0.6c-5,3.2-6.5,7.5-4.5,13.2c0.5,1.5,0.8,3.2,0,5.1
			c-4.3-0.8-7.6-3.9-11.7-5.3C126,215.8,126,205.7,125.9,195.7z"/>
		<path class="st10" d="M125.9,195.7c0,10.1,0,20.2,0,30.3c-3.5,1.8-7.1,3.7-10.6,5.5c-0.4-0.1-0.8-0.3-1.2-0.4
			c2.9-8.8,1.7-16.4-8-21.3c5-2.7,9.9-1.2,13.8-3.6C122,202.6,124,199.1,125.9,195.7z"/>
		<path class="st8" d="M114.2,231c0.4,0.1,0.8,0.3,1.2,0.4c-0.4,0.1-0.7,0.3-1.1,0.4C114.3,231.5,114.2,231.3,114.2,231z"/>
		<path class="st5" d="M152.1,120.9c-1.3,1.7-2.7,3.4-4,5.1c-3.3,3.5-6.6,7-10,10.4c-6.7,6.7-15.2,7.6-23,2.3
			c-3.2-2.2-6.1-5-9.2-7.6c-3-2.8-6.1-5.6-9.1-8.4c-0.2-1.2-0.2-2.5-1.9-2.7c0,0,0.1,0.1,0.1,0.1c-1-4.1-2-8.3-3-12.4
			c-0.7-2.9,0.1-4.5,3.4-5.3c6.6-1.5,13.1-3.5,19.7-5.3c0,1,0,2,0,3c0,3.6,5.5,12.4,8.4,12.4c3.8-0.1,5.3-3.9,7.6-6.4
			c0.1-0.1,0.2-0.1,0.3-0.2c0.1,0,0.1-0.2,0.1-0.2c-0.1,0.1-0.3,0.3-0.4,0.4c-1,0.2-2.1,0.1-2.9,0.5c-4,2.4-4.3,0.2-4.2-3.1
			c0.1-3,0-5.9,0-8.9c10.3,2.7,19.9,7.3,29.9,10.7c1.8,0.6,2,1.8,1.6,3.5c-0.9,3.7-1.7,7.4-2.5,11.1l0.1,0
			C152.7,120.3,152.4,120.6,152.1,120.9z M110.1,117.1c12.6,12.9,15.9,13.2,28.6,0C129.1,115.3,119.9,115.6,110.1,117.1z"/>
		<path class="st9" d="M124,29.8c0.5-0.1,0.9-0.3,1.4-0.4c11.2-0.7,11.2-0.7,13.7,10.2c1,4.4,1.9,8.7,3,13c0.6,2.4,0.1,3.3-2.5,3.2
			c-4.1-0.2-8.7,1.3-9.3-5.5c-0.3-3.3-4.4-0.9-6.4-2.2c0-1.9,0-3.8,0-5.7c1.4-0.7,4,1.1,4.1-1.9c0.1-2.7-0.9-4.8-4.1-4.6
			C124,33.9,124,31.9,124,29.8z"/>
		<path class="st10" d="M124,42.5c0,1.9,0,3.8,0,5.7c-3.7,0.2-6.4,0.6-7.5,5.6c-0.9,4.2-6,1.9-9.1,1.8c-2.8-0.1-1.2-2.9-0.9-4.3
			c1.2-5.7,2.8-11.3,3.8-17c0.7-3.9,2.5-5.3,6.3-4.8c2.5,0.3,5,0.3,7.4,0.4c0,2,0,4.1,0,6.1c-3.3-0.1-4.1,2-4.1,4.7
			C120,43.7,122.6,41.9,124,42.5z"/>
		<path class="st6" d="M90.3,70.2c8.9,0.5,18.9,4.3,27.5,11.8c2.2,1.9,2,3.2,0.3,5.2c-5.4,6.3-11.5,7.8-19,4.4
			c-7.1-3.3-12-8.8-15-16C82,70.4,82.4,70,90.3,70.2z M111.9,82L111.9,82c0.1-0.1,0.2-0.2,0.1-0.3c-0.1-0.2-0.2-0.4-0.3-0.5
			c-6.4-7.6-15.6-4.3-24-6.2c1.3,3.6,2.1,7.1,6.3,7.9L94,82.9c-0.1,1.2,0.9,0.9,1.5,1.1c5.4,4,11.3,3.8,16.9-0.5
			C112.7,82.9,113.2,82.2,111.9,82z"/>
		<path class="st6" d="M158,71.9c5.8-0.2,6.1,0.3,3.7,5.7c-3.1,6.7-7.8,11.8-14.6,14.9c-7.1,3.2-12.5,1.8-17.5-4.3
			c-1.6-2-1.4-3.3,0.4-4.9C138.1,76.3,147.4,72.5,158,71.9z M152.9,85.1c0.7-0.5,2.1-0.8,1-2.1l0,0c3.5-1.3,4.7-3.3,4.5-7.8
			c-3.8,2.7-8.1,0.9-12.1,1.9c-4.1,1.1-8.9,1.2-10.3,6.6c-1.3,1.9-0.1,2.6,1.5,3.1c4.6,1.6,9.2,2.3,13.6-0.7
			C151.9,86,152.6,86,152.9,85.1z"/>
		<path class="st4" d="M131,106c-2.3,2.5-3.8,6.3-7.6,6.4c-2.9,0.1-8.4-8.7-8.4-12.4c0-1,0-2,0-3c2.8-1.3,5.8-2.2,8.9-2.5
			c0,3,0.1,5.9,0,8.9c-0.1,3.2,0.2,5.4,4.2,3.1C128.9,106.1,130,106.2,131,106L131,106z"/>
		<path class="st4" d="M106,131.2c3,2.5,5.9,5.3,9.2,7.6c7.8,5.3,16.3,4.4,23-2.3c3.4-3.4,6.7-6.9,10-10.4c1,0.8,0.8,1.9,0.8,2.9
			c-3,2.4-5.7,5.1-7.9,8.1c-3.8,5.1-8.6,8.1-15,8.2c-6.9,0.3-11.9-3.3-16.5-8c-1.3-1.3-2.9-2.3-4.3-3.4
			C105.4,133,105.7,132.1,106,131.2z"/>
		<path class="st1" d="M95,120c1.7,0.2,1.6,1.5,1.9,2.7C96.2,121.8,94.4,121.7,95,120z"/>
		<path class="st0" d="M101,141c-0.4,0.3-0.7,0.7-1.1,1C100.3,141.7,100.7,141.3,101,141z"/>
		<path class="st4" d="M81.2,124.7c0.1-0.1,0.1-0.2,0.2-0.3c0.2,0.1,0.3,0.2,0.5,0.3c-0.1,0.1-0.2,0.3-0.3,0.3
			C81.4,125,81.3,124.8,81.2,124.7z"/>
		<polygon class="st4" points="83.6,123.5 83.2,123.6 83.3,123.3 		"/>
		<path class="st4" d="M165.9,122c-0.7-0.3-1.7-0.8-1.4-1.6c0.3-0.8,1-0.3,1.5,0.2C166,121,165.9,121.5,165.9,122z"/>
		<path class="st0" d="M165.9,122c0-0.5,0.1-1,0.1-1.5c0.5,0.3,1,0.6,1.4,1c-0.3,0.3-0.5,0.6-0.8,0.9
			C166.4,122.3,166.1,122.2,165.9,122z"/>
		<path class="st11" d="M152.1,120.9c0.3-0.3,0.6-0.7,1-1C152.7,120.3,152.4,120.6,152.1,120.9z"/>
		<path class="st12" d="M110.1,117.1c9.8-1.5,19-1.8,28.6,0C126,130.3,122.7,130.1,110.1,117.1z"/>
		<path class="st4" d="M131,106c0.1-0.1,0.3-0.3,0.4-0.4c0,0.1,0,0.2-0.1,0.2C131.2,105.9,131.1,105.9,131,106
			C131,106,131,106,131,106z"/>
		<path class="st1" d="M124,42.5c-1.4-0.6-4,1.2-4-1.9c-0.1-2.6,0.8-4.8,4.1-4.7c3.3-0.1,4.3,1.9,4.1,4.6
			C128,43.6,125.4,41.9,124,42.5z"/>
		<path class="st13" d="M112.4,83.5c-5.6,4.4-11.5,4.6-16.9,0.5c-0.5-0.4-1-0.8-1.5-1.1l0.1,0.1c-1.4-2.5-1.5-4.2,2.1-4.1
			c1.3,0,2.5-0.1,3.8-0.1c-0.1,2.1-0.3,4.5,2.5,5c2.8,0.5,3.5-1.6,3.8-3.8c1.3,0.5,2.6,1.1,3.9,1.6c0.4,0.5,0.8,1.3,1.6,0.5l0,0
			C111.4,82.8,112.2,83,112.4,83.5z"/>
		<path class="st14" d="M100,78.8c-1.3,0-2.5,0.1-3.8,0.1c-3.6-0.1-3.6,1.6-2.1,4.1c-4.2-0.9-5-4.4-6.3-7.9c8.3,1.9,17.5-1.4,24,6.2
			c-0.5,0.1-0.9,0.2-1.4,0.3c-1.3-0.5-2.6-1.1-3.9-1.6C104.5,78.4,102.3,78.7,100,78.8z"/>
		<path class="st12" d="M110.3,81.5c0.5-0.1,0.9-0.2,1.4-0.3c0.1,0.2,0.3,0.4,0.3,0.5c0,0.1-0.1,0.2-0.1,0.3
			C111.1,82.8,110.8,82,110.3,81.5z"/>
		<path class="st12" d="M112.4,83.5c-0.2-0.5-1-0.8-0.5-1.5C113.2,82.2,112.7,82.9,112.4,83.5z"/>
		<path class="st14" d="M94,82.9c0.5,0.4,1,0.8,1.5,1.1C94.9,83.8,93.9,84.1,94,82.9z"/>
		<path class="st13" d="M151.1,86c-4.4,3-9,2.3-13.6,0.7c-1.5-0.5-2.7-1.3-1.5-3.1c1.9-1.5,3.9-2.6,6.2-3.3c0.2,2.4,0.5,4.9,3.7,4.7
			c3.4-0.3,3-2.8,2.7-5.2c2.1,0.5,5.8-1.7,5.3,3.2l0,0c-0.4,0.4-0.9,0.8-1.3,1.3C151.9,84.6,151.1,85,151.1,86z"/>
		<path class="st14" d="M153.9,82.9c0.5-4.9-3.2-2.7-5.3-3.2c-2.2-0.5-4.3-0.1-6.4,0.6c-2.3,0.6-4.3,1.8-6.2,3.3
			c1.4-5.4,6.2-5.5,10.4-6.6c4-1,8.3,0.8,12.1-1.9C158.6,79.6,157.4,81.7,153.9,82.9z"/>
		<path class="st15" d="M151.1,86c0-1,0.8-1.4,1.5-1.8c0.2,0.3,0.3,0.6,0.3,0.9C152.6,86,151.9,86,151.1,86z"/>
		<path class="st14" d="M152.9,85.1c0-0.3-0.1-0.6-0.3-0.9c0.4-0.4,0.9-0.8,1.3-1.3C155,84.3,153.7,84.6,152.9,85.1z"/>
		<path class="st16" d="M100,78.8c2.2-0.1,4.4-0.3,6.4,1.2c-0.3,2.2-1.1,4.3-3.8,3.8C99.8,83.3,100,80.9,100,78.8z"/>
		<path class="st16" d="M142.2,80.3c2.1-0.7,4.2-1,6.4-0.6c0.3,2.4,0.7,4.9-2.7,5.2C142.7,85.2,142.4,82.7,142.2,80.3z"/>
	</g>
</g>
</svg>
