<?xml version="1.0" encoding="utf-8"?>
<!-- Generator: Adobe Illustrator 23.0.3, SVG Export Plug-In . SVG Version: 6.00 Build 0)  -->
<svg version="1.1" id="Layer_1" xmlns="http://www.w3.org/2000/svg" xmlns:xlink="http://www.w3.org/1999/xlink" x="0px" y="0px"
	 viewBox="0 0 250 250" style="enable-background:new 0 0 250 250;" xml:space="preserve">
<style type="text/css">
	.st0{fill:none;}
	.st1{fill:#481277;}
	.st2{fill:#974CD8;}
	.st3{fill:#8A24D3;}
	.st4{fill:#9E53E0;}
	.st5{fill:#FFFFFF;}
	.st6{fill:#352A2C;}
	.st7{fill:#4E3525;}
	.st8{fill:#B27746;}
	.st9{fill:#9D62D1;}
	.st10{fill:#F8F2EE;}
	.st11{fill:#DD471F;}
</style>
<g>
	<g>
		<path class="st0" d="M124,251c-41,0-82,0-123,0C1,167.7,1,84.3,1,1c82,0,164,0,246-0.1c3.4,0,4.1,0.7,4.1,4.1
			c-0.1,80.7-0.1,161.3,0,242c0,3.4-0.7,4.1-4.1,4.1c-40.7-0.2-81.3-0.1-122-0.1c0.4-1.6,1.9-2.2,3-3.1
			c24.2-20.4,48.3-40.8,72.6-61.1c4.1-3.4,6.6-6.8,5.2-12.2c0-4.9,0-9.8,0-14.7c0-1.4,0-2.8,0-4.2c0.6-1.9-0.8-2.3-2.1-2.5
			c-2.7-0.6-5.4-1-8.1-1.5c-11.9-2.9-23.7-6-35.7-8.5c-4.1-0.9-4.9-2.5-4.8-6.3c0.2-9.6,0-19.3-0.1-28.9c4-2.2,5.8-6.1,5.9-10.2
			c0.4-17.2,3.1-34.4,2.3-51.7c6.1-2.5,12.7-3.7,18.7-6.6c7.5-3.6,11.5-9.9,13.8-17.7c-6.7,13.4-18.8,18.1-32.4,20.3
			c0.1-4.2-0.2-8.3,0.3-12.5c0.6-5.2-1.7-8.9-5.2-12.3c-10-9.2-21.9-12.7-35.3-12.3C111.3,4.9,100.7,8,91.8,15.9
			c-4.5,4-7.9,8.5-6.5,15.1c0.6,2.7,0.3,5.6,0.4,8.4C73.7,37.4,64,32,57.8,21c-0.3-0.8-0.6-2.1-1.5-1.8c-0.8,0.3-0.1,1.3,0.6,1.7
			c2.3,7.9,7,13.7,14.6,16.9c4.7,2,9.6,3.5,14.3,5.2c0.7,18.2,1.4,36.5,2.1,54.7c0.2,4.2,1.2,7.8,4.8,10.3c0,0.4,0.1,0.7,0.4,0.9
			c0,1.3,0,2.6,0,3.8c-0.1,9.9-0.3,19.7-0.4,29.6c-11.5,2.9-23,5.8-34.5,8.7c-2.9,0.7-5.8,1.3-8.7,2c-1.5,0.3-3,0.7-2.4,2.9
			c0,3.1,0,6.2,0,9.3c0,4.3,0,8.5,0,12.8c-0.9,4,0.6,6.7,3.8,9.4c10.1,8.4,19.9,17.1,29.9,25.7c14.4,12.3,28.8,24.6,43.2,36.9
			C124,250.3,124,250.7,124,251z M196.9,20.5c-0.1-0.3-0.2-0.5-0.3-0.8c-0.1,0.1-0.3,0.1-0.3,0.2c-0.1,0.2-0.1,0.5-0.1,0.8
			C196.4,20.6,196.6,20.6,196.9,20.5z M55.3,16.6c-0.1,0.3-0.2,0.6-0.1,0.9c0.1,0.5,0.4,0.5,0.6,0c0.1-0.1,0.1-0.3,0-0.4
			C55.7,16.9,55.5,16.8,55.3,16.6z"/>
		<path class="st1" d="M205.8,155.8c0,1.4,0,2.8,0,4.2c-17.3,15.2-34.6,30.5-51.9,45.7c-1.3,1.1-2.2,2.4-2.1,4.3
			c0.3,3.9-1.1,7.5-2,11.2c-0.2,0.4-0.4,0.7-0.6,1.1c1.1,0.5,1.2-0.5,1.7-1.1c7.5-6.4,15-12.7,22.5-19.1
			c10.8-9.1,21.6-18.2,32.4-27.4c1.4,5.4-1.1,8.8-5.2,12.2c-24.3,20.2-48.5,40.7-72.6,61.1c-1.1,0.9-2.6,1.5-3,3.1c-0.3,0-0.7,0-1,0
			c0-0.3,0-0.7,0-1c0-5.6,0-11.3,0-16.9c16.7-2,26.2-14.6,21.9-29.4c-3.1-10.8-11.3-15.5-21.9-16.7c0-7.3,0-14.6,0-22
			c0-8.6,0-17.3,0.1-25.9c0-2,0.3-4.1-2.8-4.1c-4.1,0-7.1-2.3-9.9-5.1c-5.8-5.9-11.6-11.9-18.2-17c0-1.3,0-2.6,0-3.8
			c0.2,0,0.5,0,0.7,0c6.1,7.3,13.1,13.7,20.2,20c5.2,4.6,17.8,4.5,22.5-0.3c6.5-6.6,13.1-13.3,18.5-20.8l-0.1,0
			c0.1,9.6,0.3,19.3,0.1,28.9c-0.1,3.7,0.7,5.4,4.8,6.3c12,2.5,23.8,5.6,35.7,8.5c-4.1,4.7-9.1,8.3-13.7,12.3c-10.4,9-21,18-31.4,27
			c-1.4,1.2-3.6,2.3-2.4,4.9c1,2.2,2,4.5,3.2,7.1c6.3-5.5,12.3-10.7,18.3-15.9C181.6,176.6,193.7,166.2,205.8,155.8z"/>
		<path class="st2" d="M124,233c0,5.6,0,11.3,0,16.9c-14.4-12.3-28.8-24.5-43.2-36.9c-10-8.5-19.8-17.3-29.9-25.7
			c-3.2-2.6-4.7-5.4-3.8-9.4C63.5,191,79.9,204,96.7,217.2c0-3.6-0.2-6.6,0.1-9.5c0.2-2.3-0.5-3.6-2.3-5
			c-15.8-12.4-31.5-25-47.3-37.5c0-3.1,0-6.2,0-9.3c2.4,2,4.9,4,7.3,6c13.4,11.6,26.9,23.3,40.3,34.9c1,0.9,2.4,3,3.6,1.8
			c1.9-1.8,3.3-4.2,4.3-6.6c0.7-1.7-1.7-2.6-2.8-3.7C86,176,72.1,163.6,58.3,151.2c11.5-2.9,23-5.8,34.5-8.7c0.3,5,0.5,9.6,4.7,13.6
			c7.6,7.3,16.7,9,26.5,8.9c0,7.3,0,14.6,0,22c-1.1,0.3-2.2,0.6-3.4,0.7c-11,1.8-18.7,10.5-19,21.6C101.3,222.5,108.8,230.4,124,233
			z"/>
		<path class="st3" d="M123,5.2c13.3-0.4,25.3,3.1,35.3,12.3c3.6,3.3,5.8,7,5.2,12.3c-0.5,4.1-0.2,8.3-0.3,12.5
			c-9.9,0.9-16,7.9-23.6,14.1c6,1.5,9.2-1.9,12.7-4.2c3.5-2.3,6.5-5.3,10.8-5.9c0.8,17.3-1.8,34.4-2.3,51.7c-0.1,4.2-1.9,8-5.9,10.2
			c0,0,0.1,0,0.1,0c0.8-6.4,2-12.8,0.2-19.2c-0.3-1.2-0.1-2.9-2.3-2.2c-7.2,2.4-14.4,1.5-21.5-0.5c-1.1,9.4-2.5,11-8.5,9.9
			c0-9.4,0-18.7,0-28.1c1.6-1.5,1-3.4,0.9-5.2C123.7,43.6,123.4,24.4,123,5.2z M136.1,67.1c-1.5-0.1-2.6,0.4-3.2,1.9
			c-1.9-0.2-4.5-1-2.9,2.7c2.5,5.7,10,8.9,16.5,7c6-1.8,10.2-8.1,9.6-14.1c-0.2-2.3-1-2.8-3.2-2.1C147.3,64.2,141.7,65.6,136.1,67.1
			z"/>
		<path class="st4" d="M123,5.2c0.3,19.2,0.7,38.4,0.9,57.7c0,1.7,0.7,3.7-0.9,5.2c-4,5.4-4.1,11.9-5.1,18.2
			c-7.3,1.4-14.6,2.9-22.1,0.7c-2.4-0.7-2.5,1.1-3,2.8C91.1,95.9,93,101.9,93,108l-0.2,0.2c-3.7-2.5-4.7-6.2-4.8-10.3
			c-0.7-18.2-1.4-36.5-2.1-54.7c7.4,0.8,12.4,6,18.2,9.6c2.4,1.5,4.7,2.9,8.6,1C105,49,100.2,40.9,90.5,40.8c-1.6,0-3.1-0.9-4.7-1.4
			c-0.1-2.8,0.2-5.7-0.4-8.4c-1.4-6.7,2-11.2,6.5-15.1C100.7,8,111.3,4.9,123,5.2z M92.8,69.1c-0.1,0.4,0,0.6,0.4,0.7
			c-1.3,1.9,0.2,3.1,1.1,4.3c5.4,7,16.4,6.7,21.7-0.7c2.7-3.7,2.3-4.5-2.5-5.3l-0.2,0c-5.8-2.7-12.2-3.6-18.3-5.4
			c-1.3-0.4-3-1.4-3.7,0.6c-0.6,1.6-1,3.7,1.7,4.3l0-0.1C92.5,68,92.4,68.5,92.8,69.1z"/>
		<path class="st3" d="M124,165c-9.9,0.1-19-1.6-26.5-8.9c-4.1-4-4.4-8.6-4.7-13.6c0.1-9.9,0.3-19.7,0.4-29.6
			c6.6,5.1,12.3,11.1,18.2,17c2.8,2.8,5.8,5.1,9.9,5.1c3.1,0,2.8,2.1,2.8,4.1C124,147.8,124,156.4,124,165z"/>
		<path class="st5" d="M205.8,174.7c-10.8,9.1-21.6,18.2-32.4,27.4c-7.5,6.3-15,12.7-22.5,19.1c-0.4,0-0.7,0-1.1,0
			c0.8-3.7,2.3-7.3,2-11.2c-0.2-1.9,0.8-3.1,2.1-4.3c17.3-15.2,34.6-30.4,51.9-45.7C205.8,164.9,205.8,169.8,205.8,174.7z"/>
		<path class="st5" d="M58.3,151.2C72.1,163.6,86,176,99.8,188.4c1.2,1,3.5,1.9,2.8,3.7c-0.9,2.4-2.4,4.9-4.3,6.6
			c-1.2,1.2-2.6-0.9-3.6-1.8c-13.5-11.6-26.9-23.3-40.3-34.9c-2.4-2.1-4.8-4-7.3-6c-0.7-2.2,0.8-2.5,2.4-2.9
			C52.4,152.5,55.4,151.8,58.3,151.2z"/>
		<path class="st5" d="M205.8,155.8c-12.1,10.4-24.2,20.8-36.3,31.2c-6,5.2-12,10.4-18.3,15.9c-1.2-2.6-2.2-4.8-3.2-7.1
			c-1.2-2.6,1-3.6,2.4-4.9c10.4-9,21-17.9,31.4-27c4.6-4,9.7-7.6,13.7-12.3c2.7,0.5,5.4,0.9,8.1,1.5
			C205,153.5,206.4,153.9,205.8,155.8z"/>
		<path class="st5" d="M47.2,165.3c15.7,12.5,31.5,25,47.3,37.5c1.7,1.4,2.5,2.7,2.3,5c-0.3,2.9-0.1,5.8-0.1,9.5
			C79.9,204,63.5,191,47.2,178.1C47.2,173.8,47.2,169.5,47.2,165.3z"/>
		<path class="st6" d="M163.1,46.1c-4.3,0.6-7.3,3.6-10.8,5.9c-3.5,2.3-6.7,5.7-12.7,4.2c7.6-6.2,13.8-13.1,23.6-14.1
			c13.6-2.2,25.6-6.9,32.4-20.3c-2.3,7.8-6.2,14.1-13.8,17.7C175.9,42.4,169.3,43.7,163.1,46.1z"/>
		<path class="st6" d="M85.8,39.4c1.6,0.5,3.1,1.4,4.7,1.4c9.7,0.1,14.5,8.1,22.2,12.9c-3.8,1.9-6.2,0.5-8.6-1
			c-5.9-3.6-10.9-8.8-18.2-9.6c-4.8-1.7-9.7-3.2-14.3-5.2c-7.6-3.2-12.3-9.1-14.6-16.9l0.5,0l0.5,0C64,32,73.7,37.4,85.8,39.4z"/>
		<path class="st7" d="M57.8,21l-0.5,0l-0.5,0c-0.7-0.5-1.4-1.4-0.6-1.7C57.2,18.9,57.5,20.2,57.8,21z"/>
		<path class="st7" d="M196.9,20.5c-0.2,0.1-0.4,0.1-0.6,0.2c0-0.3,0-0.5,0.1-0.8c0-0.1,0.2-0.1,0.3-0.2
			C196.7,20,196.8,20.3,196.9,20.5z"/>
		<path d="M55.3,16.6c0.2,0.2,0.4,0.3,0.5,0.5c0.1,0.1,0,0.3,0,0.4c-0.2,0.4-0.5,0.4-0.6,0C55.1,17.2,55.3,17,55.3,16.6z"/>
		<path class="st3" d="M93.9,109.1c-0.2,0-0.5,0-0.7,0c-0.3-0.2-0.4-0.5-0.4-0.9L93,108C93.8,108,93.9,108.5,93.9,109.1z"/>
		<path class="st8" d="M93.9,109.1c0-0.6-0.1-1.1-0.9-1.1c0.1-6.1-1.9-12.1-0.1-18.3c0.5-1.7,0.6-3.5,3-2.8
			c7.5,2.2,14.8,0.7,22.1-0.7c-1.5,5.9-0.6,7.7,5.1,9.9c6,1,7.3-0.5,8.5-9.9c7.1,2,14.3,2.9,21.5,0.5c2.2-0.7,1.9,1,2.3,2.2
			c1.8,6.4,0.6,12.8-0.2,19.2c-5.4,7.6-12,14.3-18.5,20.8c-4.7,4.7-17.3,4.9-22.5,0.3C107,122.8,100,116.4,93.9,109.1z M111,102
			c-0.3-0.5-0.6-1.3-1.3-0.4C110.1,101.8,110.6,101.9,111,102c7.2,4.8,15.3,2.5,23,2.4C126.2,104.8,118.7,102.4,111,102z"/>
		<path class="st5" d="M124,233c-15.2-2.6-22.7-10.5-22.4-23.7c0.2-11.1,8-19.8,19-21.6c1.1-0.2,2.3-0.5,3.4-0.7
			c10.6,1.2,18.8,5.9,21.9,16.7C150.2,218.5,140.7,231,124,233z"/>
		<path class="st6" d="M149.9,221.1c0.4,0,0.7,0,1.1,0c-0.4,0.6-0.6,1.5-1.7,1.1C149.5,221.8,149.7,221.4,149.9,221.1z"/>
		<path class="st8" d="M136.1,67.1c5.6-1.5,11.2-2.9,16.8-4.6c2.2-0.6,3-0.2,3.2,2.1c0.6,6-3.6,12.3-9.6,14.1
			c-6.5,1.9-14-1.3-16.5-7c-1.6-3.7,0.9-2.9,2.9-2.7c0,0,0.1,0,0.1,0c-0.6,1.2,0,1.8,1,2.3c3.5,3.3,7.3,1.8,11.1,0.7l0,0
			c3.3-0.1,7.1,0.7,7.9-4.2c1.5-2,1.3-3.1-1.5-2.5c-5.2,1.1-10.3,2.3-15.5,3.4C135.9,68.2,136,67.7,136.1,67.1z"/>
		<path class="st9" d="M123,96.1c-5.7-2.2-6.6-4-5.1-9.9c0.9-6.3,1.1-12.7,5.1-18.2C123,77.4,123,86.7,123,96.1z"/>
		<path class="st8" d="M136.1,67.1c-0.1,0.5-0.1,1.1-0.2,1.6c-1,0.1-2,0.2-2.9,0.2c0,0-0.1,0-0.1,0C133.4,67.6,134.6,67,136.1,67.1z
			"/>
		<path class="st8" d="M113.7,68.1c4.7,0.8,5.1,1.6,2.5,5.3c-5.3,7.3-16.4,7.7-21.7,0.7c-0.9-1.2-2.4-2.4-1.1-4.3
			c2.3,2.2,5.4,2.3,8.2,3.1c0.8,0,1.6,0,2.4,0.1c3.3,0.6,6.7,2.3,9.1-1.7C113.7,70.3,114.1,69.3,113.7,68.1z"/>
		<path class="st7" d="M103.8,73c-0.8,0-1.6,0-2.4-0.1c-0.5-4.5-3.6-5.2-7.4-4.9c-0.4-0.2-0.7-0.4-1.1-0.5l0,0.1
			c-0.8-2.3,0.3-2.6,2.2-2.1c2.6,0.6,5.1,1.3,7.8,1.6c3.5,0.4,6.7,3.1,10.4,1l0.2,0c0.4,1.2,0.1,2.2-0.7,3.2
			C109.9,71.6,106,67.8,103.8,73z"/>
		<path class="st8" d="M113.4,68c-3.7,2-6.9-0.6-10.4-1c-2.6-0.3-5.2-1-7.8-1.6c-1.9-0.4-3-0.2-2.2,2.1c-2.6-0.6-2.2-2.7-1.7-4.3
			c0.7-2,2.4-1,3.7-0.6C101.2,64.5,107.6,65.4,113.4,68z"/>
		<path class="st10" d="M94.1,68c3.8-0.3,6.8,0.4,7.4,4.9c-2.8-0.8-5.9-1-8.2-3.1c-0.4-0.1-0.5-0.3-0.4-0.7
			C93.3,68.8,93.7,68.4,94.1,68z"/>
		<path class="st8" d="M94.1,68c-0.4,0.4-0.9,0.8-1.3,1.1c-0.4-0.6-0.3-1.2,0.2-1.7C93.4,67.6,93.7,67.8,94.1,68z"/>
		<path class="st11" d="M111,102c7.7,0.3,15.2,2.8,23,2.4C126.2,104.5,118.2,106.9,111,102L111,102z"/>
		<path class="st11" d="M111,102c-0.4-0.1-0.9-0.2-1.3-0.3C110.4,100.7,110.7,101.5,111,102C111,102,111,102,111,102z"/>
		<path class="st7" d="M132.9,69c1-0.1,2-0.2,2.9-0.2c5.2-1.1,10.3-2.3,15.5-3.4c2.8-0.6,3,0.4,1.5,2.5c-3.3,0.1-6.8,0-7.9,4.2
			c0,0,0,0,0,0c-3.7-0.5-7.2-3-11.1-0.7C133,70.8,132.4,70.2,132.9,69z"/>
		<path class="st10" d="M145,72c1.1-4.3,4.5-4.2,7.9-4.2C152.1,72.7,148.3,71.9,145,72z"/>
		<path class="st10" d="M134,71.3c3.8-2.3,7.4,0.2,11.1,0.7C141.3,73.1,137.5,74.6,134,71.3z"/>
		<path class="st10" d="M103.8,73c2.2-5.2,6-1.4,9.1-1.7C110.6,75.3,107.1,73.5,103.8,73z"/>
	</g>
</g>
</svg>
