<?xml version="1.0" encoding="utf-8"?>
<!-- Generator: Adobe Illustrator 23.0.3, SVG Export Plug-In . SVG Version: 6.00 Build 0)  -->
<svg version="1.1" id="Layer_1" xmlns="http://www.w3.org/2000/svg" xmlns:xlink="http://www.w3.org/1999/xlink" x="0px" y="0px"
	 viewBox="0 0 250 250" style="enable-background:new 0 0 250 250;" xml:space="preserve">
<style type="text/css">
	.st0{fill:#FFFFFF;}
	.st1{fill:none;}
	.st2{fill:#D7292C;}
	.st3{fill:#7A5935;}
	.st4{fill:#F0EFEF;}
	.st5{fill:#512E28;}
	.st6{fill:#EA2429;}
	.st7{fill:#D62329;}
	.st8{fill:#312C28;}
	.st9{fill:#EB2125;}
	.st10{fill:#FCE402;}
	.st11{fill:#61472F;}
	.st12{fill:#B9573E;}
	.st13{fill:#FEB932;}
	.st14{fill:#CC965C;}
	.st15{fill:#AA7F61;}
	.st16{fill:#B27746;}
	.st17{fill:#36AADB;}
	.st18{fill:#F6BE9A;}
	.st19{fill:#D3AB84;}
	.st20{fill:#AA292B;}
	.st21{fill:#F69D75;}
</style>
<rect x="84.1" y="68" class="st0" width="83.9" height="29.4"/>
<g>
	<g>
		<path class="st1" d="M122,251c-40.3,0-80.7,0-121,0C1,167.7,1,84.3,1,1c82,0,164,0,246-0.1c3.4,0,4.1,0.7,4.1,4.1
			c-0.1,80.7-0.1,161.3,0,242c0,3.4-0.7,4.1-4.1,4.1c-40-0.2-80-0.1-120-0.1c-0.6-1,0.4-1.5,0.8-2.2l-0.1,0.1
			c10.6-8.9,21.5-17.4,31.5-26.9c0.7-0.3,1.6-0.5,2.2-1c10.7-9,21.4-18.1,32.2-27.1c3.7-3.1,6.2-6.6,5.5-11.9
			c-0.5-3.7-0.1-7.6-0.1-11.4c0-8.2-0.9-9.1-9.3-9.6c-0.8,0-1.7,0-2.5,0c-1.6-1.9-4.2-1.5-6.2-2.3c-0.1-0.5-0.3-0.9-1-0.8h0.1
			c-1.2-2.5-2.4-5.1-3.6-7.6c-4.4-9.5-5.2-19.1-1.5-29c4.9-13.3,6.4-27.1,5.6-41.2c0.2-7.6-0.2-15.1-1.5-22.5
			c-0.2-1.9-0.4-3.7-0.5-5.6c-0.2-6.4-1.6-12.5-4.4-18.3C160.1,3.9,119.8-6.2,92.3,13.5C76.4,24.8,68.2,40.2,71.4,60.3
			c0.2,1.3,0.3,2.6,0.5,3.9c-2,4.8-2.2,9.7-1.9,14.8c-0.2,2.7-2.8,3.9-3.7,6.2c1.2,1.3,2.6,0.1,3.8,0.7c0.8,10.3,2.7,20.4,6.5,30
			c5.5,13.8,6,27.3,0.2,41c-4.6,1.3-9.2,2.5-13.8,3.8c0.5,2,2,2.6,3.1,3.5c12.3,9.6,24.6,19.3,37,28.9c7.2,5.6,14.1,11.6,21.9,16.4
			l-0.1,0.3c0,0.4,0,0.7,0,1.1c-4.1-0.1-8.3,0.3-12.4-0.3c-8.5-1.3-14.9,1.9-20.5,8.1c-2,2.2-1.9,3.1,0,5
			c8.2,8.5,17.6,15.6,26.4,23.4l0,0c0.8,0.5,1.1,1.9,2.5,1.1l0,0c-0.5,1.2,0.2,1.2,1.1,1h-0.1c0,0.1-0.2,0.3-0.1,0.4
			c0.1,0.2,0.3,0.4,0.4,0.6C122.1,250.3,122.1,250.7,122,251z"/>
		<path class="st2" d="M122,251c0.1-0.3,0.1-0.7,0.2-1c0.3,0,0.7-0.1,1-0.1c1.8,0.7,2.9-1.3,4.6-1.1c-0.4,0.7-1.4,1.1-0.8,2.2
			C125.3,251,123.7,251,122,251z"/>
		<path class="st3" d="M70.1,85.9c-1.1-0.6-2.6,0.6-3.8-0.7c0.9-2.3,3.6-3.5,3.7-6.2c3.3-3.9,3.2-8.6,2.8-13.3c0-2,0.8-4.1-1-5.7
			c0.3-4.6,0.6-9.3,1.8-13.8C79.7,23.3,101.7,8,126.9,8.9c25.6,1,45.7,18.2,50.3,43c-0.3,4.4,0.3,8.7,1.5,14.2
			c0.2-3.7,0.4-6.1,0.5-8.6c1.3,7.5,1.7,15,1.5,22.5c-1.1,1.5-0.5,3.1-0.6,4.7c-0.4,6.2-0.8,6.6-6.8,6.1c-2.1-2.6-5.4-3.3-8.2-4.9
			c-2.7-1.8-5.3-3.5-8-5.3c-0.5-0.9-0.8-1.9-2.1-1.8l0.1,0.1c-0.6-2-2.4-3-4-4.1c-1.9-2.2-3-5.2-6-6.5c0.3-1.2-0.2-1.9-1.3-2.2
			c-1.1-2.1-1.8-4.4-4.8-7c1.1,3.7,2.1,5.9,3.7,7.7c0.1,0.9,0.5,1.6,1.4,2.1c0.7,2.7,2.2,4.8,4.4,6.4c-0.3,1.8,1.3,2.3,2.2,3.4
			c0.5,1,1.1,2.1,1.6,3.1c-1.9-0.3-3.8-0.6-5.7-1c-1.6-0.7-3.3-1.4-4.9-2.1c-0.8-0.8-1.7-1.2-2.8-0.8c-7.4-5.9-15.4-11-20.9-19
			c-2.3-3.3-4.7-6.5-7.1-9.8c0.8,8.1,3.9,15.2,8.4,21.6c2.5,3.6-0.2,2.7-2,2.8v0.1c-0.3-0.3-0.7-0.6-1-0.9c-2.4-1.1-4.5-2.7-7.1-3.1
			c-0.3-0.1-0.6-0.2-0.9-0.3c-0.3-1-0.6-2-2-1.7L106,68c-0.1-1.9-1.8-2.4-3-3.2c-0.5-0.7-1-1.8-2.1-1.4c-0.3,0.1-0.4,1-0.6,1.5
			c0,0.5,0,1.1,0,1.6c-0.8,2.8-1.6,5.6-2.4,8.4c-1,0.8-1.9,1.7-2,3.1c-1.1,0.8-2,1.8-2.5,3.1c-0.2,0.5-0.4,1.1-0.7,1.6
			c-3.4,1-5.5,4.1-8.7,5.4c-0.7-0.4-2.8,2.5-2.1-1c0.3-1.7,1.4-3.3,1.1-5.2c0.2-1.4,0.8-2.8,0.6-4.1c-0.4-1.8-1.2-1.7-1.6,0.1
			c-1.9,3.7-6,4.7-8.9,7C71.9,85,70.8,84.8,70.1,85.9z M137.5,56.4c0.1-0.1,0.2-0.1,0.3-0.2c0-0.1,0-0.3,0-0.4
			c-0.1,0.1-0.3,0.2-0.4,0.2C137.3,56.2,137.4,56.3,137.5,56.4z"/>
		<path class="st4" d="M124.9,209.7l0.1-0.3l-0.1-0.4c1.5-1,3.1-1.9,4.5-3c19.3-15,38.6-30,57.8-45c0.8,0,1.7-0.1,2.5,0
			c8.4,0.5,9.3,1.4,9.3,9.6c0,3.8-0.4,7.7,0.1,11.4c0.7,5.3-1.8,8.8-5.5,11.9c-10.7,9-21.4,18.1-32.2,27.1c-0.6,0.5-1.5,0.7-2.2,1
			c-2.3-2.4-4.7-4.6-6.7-7.2c-2.8-3.6-6.3-4.6-10.8-4.5C136.1,210.4,130.5,211.2,124.9,209.7z"/>
		<path class="st5" d="M173.2,91c6,0.5,6.5,0.1,6.8-6.1c0.1-1.6-0.4-3.3,0.6-4.7c0.8,14.1-0.6,27.9-5.6,41.2
			c-3.7,9.9-2.9,19.5,1.5,29c1.2,2.5,2.4,5.1,3.6,7.6c-3.4,0.6-6.5-1.8-9.8-0.8c-1.1-1.5-3.1-1.5-4.5-1.6
			c-11.9-0.9-15.9-9.3-18.7-19c-0.5-1.6-0.8-3.2-1.2-4.8c0-2,0.7-4.1-0.8-5.9c7-8.3,16.3-15.1,17.9-26.9C168.4,99,170.8,95,173.2,91
			z"/>
		<path class="st5" d="M70.1,85.9c0.7-1.1,1.9-0.8,2.9-0.9c2,6.8,4.5,13.2,12.9,14.1c1.1,10.1,6.1,17.9,14.3,23.8
			c1.8,1.3,3.2,3.3,4.8,4.9c0,1.9,0,3.8,0,5.8c-0.3,0.7-0.8,1.4-1,2.2c-3,10.2-8.4,17.7-19.8,19.4c-1.8,0.3-4,0.4-5.5,1.9
			c-0.7-0.1-1.3-0.2-2-0.2c5.9-13.7,5.4-27.2-0.2-41C72.8,106.3,70.9,96.2,70.1,85.9z"/>
		<path class="st6" d="M76.8,156.8c0.7,0.1,1.3,0.2,2,0.2c14.9,12.6,29.8,25.1,45.2,37c0.3,0.3,0.7,0.6,1,0.8c0,4.7,0,9.3,0,14
			l0.1,0.4c-7.8-4.8-14.7-10.9-21.9-16.4c-12.4-9.5-24.7-19.2-37-28.9c-1.1-0.9-2.6-1.4-3.1-3.5C67.6,159.4,72.2,158.1,76.8,156.8z"
			/>
		<path class="st7" d="M125,208.9c0-4.7,0-9.3,0-14c4.4-3.7,8.9-7.4,13.3-11.1c10.7-8.9,21.3-17.8,32-26.7c3.4-1,6.5,1.5,9.8,0.8
			H180c0.1,0.6,0.4,0.8,1,0.8c2,0.8,4.6,0.4,6.2,2.3c-19.3,15-38.5,29.9-57.8,44.9C128,207,126.5,207.9,125,208.9z"/>
		<path class="st8" d="M177.2,52c-4.5-24.8-24.6-42.1-50.3-43c-25.2-1-47.2,14.3-53.3,37.2c-1.2,4.5-1.5,9.2-1.8,13.8h-0.3l-0.1,0.3
			c-3.2-20.1,5-35.5,20.9-46.8c27.5-19.7,67.8-9.5,81.9,20.3c2.8,5.8,4.2,11.9,4.4,18.3C178.2,52,177.7,52,177.2,52z"/>
		<path class="st9" d="M118.4,246.9c-8.8-7.8-18.2-14.9-26.4-23.4c-1.9-1.9-2-2.8,0-5c5.6-6.2,12-9.4,20.5-8.1
			c4.1,0.6,8.3,0.3,12.4,0.3c0,1.7,0.1,3.4,0.1,5.2c-2.6,0.3-5.3,0.4-7.7,1.6c-1.8,0.8-3.7,1.8-3.5,4.3c0.2,2.3,2.1,2.9,3.9,3.2
			c2.4,0.5,4.9,0.7,7.3,1c0,2.9,0,5.9,0,8.8c-5.2,0.6-10.4-0.2-16.3-0.8c1.7,2.4,2.5,4.7,5.7,3.2c1.4-0.7,3.3-0.7,4.1,0.6
			c1.6,2.4,4.4,2,6.5,3.1c0,1.3,0,2.7,0,4c-1.3-0.1-2.6-0.1-3.7-0.5C118.5,243.4,118.6,245.3,118.4,246.9z M105.7,216.1
			c-4.3,0-6.2,3-8.1,5.4c-1.2,1.5,0.9,2.8,2,3.4c2.1,1,1.2-1.1,1.4-1.8C101.5,220.2,103.7,218.6,105.7,216.1z"/>
		<path class="st2" d="M125,234.8c0-2.9,0-5.9,0-8.8c5.4,0.4,11.4-3.2,16,0.2c4.3,3.3,5.8,1,8.5-1.4c3.3-3,2.5-4.7-1.1-6.3
			c-0.9,4.1-6.7,6.7-9.3,3.7c-3.9-4.5-8.9-5.3-14.1-6.3c0-1.7-0.1-3.4-0.1-5.2c0-0.4,0-0.7,0-1.1c5.5,1.5,11.2,0.7,16.7,0.6
			c4.5-0.1,8,0.8,10.8,4.5c2,2.6,4.5,4.8,6.7,7.2c-10,9.6-20.9,18.1-31.5,26.9c1-2.6,1.1-4.7-2.7-4.1c0-1.3,0-2.7,0-4
			c2.8,0.1,5.6,0,8.3-0.9c1-0.3,2.1-0.7,2.2-1.7c0.1-1.4-1.1-1.8-2.2-2.2C130.6,235,127.8,235.1,125,234.8z"/>
		<path class="st10" d="M125,244.8c3.8-0.6,3.7,1.5,2.7,4.1l0.1-0.1c-1.7-0.2-2.8,1.8-4.6,1.1c-0.3-0.6-0.6-1-1.3-0.9h0.1
			c0.1-0.8-0.3-1.1-1.1-1l0,0c0.2-0.6-0.1-1-0.6-1.2c-0.4-0.2-0.7-0.5-1.1-0.7c-0.1,0.2-0.2,0.4-0.3,0.7l-0.4,0.1l0,0
			c0.2-1.7,0.1-3.6,2.8-2.6C122.4,244.7,123.7,244.7,125,244.8z"/>
		<path class="st5" d="M72.8,65.7c0.4,4.7,0.6,9.4-2.8,13.3c-0.4-5.1-0.1-10,1.9-14.8C72.2,64.7,72.5,65.2,72.8,65.7z"/>
		<path class="st11" d="M177.2,52c0.5,0,1,0,1.5,0c0.2,1.9,0.4,3.7,0.5,5.6c-0.1,2.4-0.3,4.8-0.5,8.6
			C177.5,60.6,176.9,56.3,177.2,52z"/>
		<path class="st12" d="M72.8,65.7c-0.3-0.5-0.6-1-0.9-1.5c-0.2-1.3-0.3-2.6-0.5-3.9l0.1-0.3h0.3C73.6,61.6,72.8,63.7,72.8,65.7z"/>
		<path class="st6" d="M120.3,246.9c0.5,0.2,0.9,0.6,0.6,1.2c-1.4,0.8-1.7-0.7-2.5-1.1l0.4-0.1C119.4,246.8,119.8,246.9,120.3,246.9
			z"/>
		<path class="st13" d="M181,158.7c-0.6,0-0.9-0.2-1-0.8C180.7,157.8,180.9,158.2,181,158.7z"/>
		<path class="st6" d="M120.9,248c0.8-0.1,1.1,0.3,1.1,1C121.1,249.3,120.5,249.2,120.9,248z"/>
		<path class="st6" d="M121.9,249c0.7-0.1,1.1,0.3,1.3,0.9c-0.3,0-0.7,0.1-1,0.1c-0.1-0.2-0.3-0.4-0.4-0.6
			C121.7,249.3,121.9,249.2,121.9,249z"/>
		<path class="st14" d="M105.1,127.8c-1.6-1.7-3-3.6-4.8-4.9C92.1,117,87.1,109.2,86,99.1c-0.6-3.7-1.3-7.3-1.9-11
			c3.2-1.3,5.3-4.4,8.7-5.4c0.4,0.1,0.9,0.2,1.3,0.3L94,82.9c0.4,0.4,0.9,0.7,1.3,1.1c4.7,2.9,9.6,2.5,14.7,1.1
			c2.5-0.7,2.1-2,1.1-3.6c0.2-2.4-1.8-2.8-3.3-3.8c-3-2-6.5-2.1-9.9-2.8c0.8-2.8,1.6-5.6,2.4-8.4c1.9,0.5,3.8,1,5.8,1.4L106,68
			c0.2,1.1,1.2,1.3,2,1.7c0.3,0.1,0.6,0.2,0.9,0.3c7.1,8.9,8.1,19.2,7.1,29.9c0,0.3-0.1,0.7,0,1c1.3,4.2,4.5,7.5,8.1,8.7
			c2.6,0.9,4.9-2.5,5.8-5.5c0.1,0,0.2-0.1,0.3-0.2c0.1,0,0.1-0.2,0.1-0.3c-0.1,0.1-0.3,0.3-0.4,0.4c-6,1.9-6,1.9-6-4.7
			c0-1.3-0.1-2.7,0-4c0.7-8.1,0.4-15.9-7-21.4c1.8-0.1,4.5,0.8,2-2.8c-4.4-6.4-7.5-13.5-8.4-21.6c2.4,3.3,4.8,6.5,7.1,9.8
			c5.5,7.9,13.5,13.1,20.9,19c-0.6,0.9-2.4,1.1-1.6,2.8l0,0c-1-0.3-1.2,0.1-1.1,1l0.1-0.1c-0.8-0.1-1,0.4-1.1,1
			c4.2,4.7,10.4,5,17.1,1c0.9-0.4,2.5-0.2,1.9-2.1l0,0c1.6,1.1,2-0.9,3.1-1.1c2.7,1.8,5.3,3.5,8,5.3c-1,4.2-2.2,8.4-2.1,12.8
			c-1.6,11.9-10.9,18.6-17.9,26.9c-1.9,1.9-3.9,3.6-5.6,5.6c-7.9,9.3-18.3,10.1-27.5,2C109.7,131.5,108,128.8,105.1,127.8z
			 M124,115.4c-4.7-2.4-9.4-0.2-14,0.4c-0.7,0.1-0.2,1,0.5,1.3c4,3,6.7,7.8,12.2,8.6c7.8,1.2,10.5-6.1,15.8-9.5
			C133.6,115.4,129,112.9,124,115.4z"/>
		<path class="st15" d="M130,104c-0.9,3-3.2,6.4-5.8,5.5c-3.7-1.2-6.9-4.4-8.1-8.7c-0.1-0.3-0.1-0.7,0-1c1-10.8,0-21.1-7.1-29.9
			c2.6,0.4,4.8,2.1,7.1,3.1c0.3,0.3,0.7,0.6,1,0.9v-0.1c7.4,5.5,7.7,13.3,7,21.4c-0.1,1.3,0,2.7,0,4C124,105.9,124,105.9,130,104
			L130,104z"/>
		<path class="st16" d="M84,88.1c0.6,3.7,1.3,7.3,1.9,11C77.5,98.2,75,91.8,73,85c3-2.4,7-3.4,8.9-7c0.3,1.4-0.4,2.9,1,4
			c0.3,1.9-0.7,3.4-1.1,5.2C81.2,90.6,83.3,87.7,84,88.1z"/>
		<path class="st4" d="M111,81.6c1.1,1.6,1.4,2.9-1.1,3.6c-5.1,1.4-10,1.8-14.7-1.1C95,83.4,94.7,83,93.9,83l0.1,0.1
			c-0.2-0.6-0.4-1.3-0.7-1.9c0.4-1.3,1.3-2.3,2.5-3.1c1.8,0.1,3.6,0.2,5.3,0.4c-0.5,2.3-0.4,4.5,2.3,5.2c2.7,0.7,3.9-1.1,4.2-3.5
			C108.8,80.5,109.9,81.1,111,81.6z"/>
		<path class="st16" d="M162.9,98.9c-0.1-4.4,1.1-8.6,2.1-12.8c2.7,1.6,6.1,2.2,8.2,4.9C170.8,95,168.4,99,162.9,98.9z"/>
		<path class="st1" d="M152.1,84c-6.7,4.1-12.9,3.7-17.1-1c0.4-0.3,0.7-0.7,1.1-1l-0.1,0.1c0.6-0.1,1-0.4,1.1-1l0,0
			c0.9-0.3,1.7-0.5,2.6-0.8c0.2,1.9,0.9,3.5,3.1,3.7c2.1,0.2,3.3-0.9,3.7-2.9c1.9,0.3,3.8,0.6,5.7,1h-0.1c0.1,0.4,0.1,0.8,0.2,1.2
			C152.2,83.5,152.2,83.7,152.1,84z"/>
		<path class="st8" d="M101.2,78.4c-1.8-0.1-3.6-0.2-5.3-0.4c0.1-1.4,1-2.3,2-3.1c3.4,0.7,6.9,0.9,9.9,2.8c1.4,0.9,3.5,1.4,3.3,3.8
			c-1.1-0.5-2.2-1-3.3-1.6C105.7,78.8,103.5,78.4,101.2,78.4z"/>
		<path class="st17" d="M146.4,81.1c-0.4,2-1.6,3.1-3.7,2.9c-2.1-0.2-2.8-1.8-3.1-3.7c0.6-0.4,1.2-0.8,1.8-1.2
			C143.1,79.7,144.8,80.4,146.4,81.1z"/>
		<path class="st14" d="M145,68.5c3,1.3,4.1,4.3,6,6.5c-0.9,0.2-1.8,0.3-2.7,0.5c-2.2-1.6-3.7-3.8-4.4-6.4
			C144.2,68.9,144.6,68.7,145,68.5z"/>
		<path class="st11" d="M148.3,75.5c0.9-0.2,1.8-0.3,2.7-0.5c1.6,1.1,3.3,2,4,4.1c-1.5,0-3-0.1-4.5-0.1
			C149.6,77.9,147.9,77.4,148.3,75.5z"/>
		<path class="st14" d="M142.5,67c-1.6-1.9-2.6-4-3.7-7.7c3,2.6,3.8,4.9,4.8,7C143.2,66.6,142.9,66.8,142.5,67z"/>
		<path class="st11" d="M106,68c-1.9-0.5-3.8-1-5.8-1.4c0-0.5,0-1.1,0-1.6c0.9-0.1,1.8-0.1,2.7-0.2C104.2,65.7,105.9,66.1,106,68z"
			/>
		<path class="st4" d="M150.5,78.9c1.5,0,3,0.1,4.5,0.1l-0.1-0.1c-0.3,1-0.7,2-1,2.9l0,0c-0.3,0-0.5,0.1-0.8,0.2
			c-0.4,0-0.8-0.1-1.2-0.1h0.1C151.5,81,151,80,150.5,78.9z"/>
		<path class="st11" d="M141.5,79c-0.6,0.4-1.2,0.8-1.8,1.2c-0.9,0.3-1.7,0.5-2.6,0.8c-0.8-1.7,1.1-1.9,1.6-2.8
			C139.8,77.8,140.7,78.2,141.5,79z"/>
		<path class="st14" d="M82.9,82c-1.4-1.1-0.8-2.6-1-4c0.4-1.8,1.2-2,1.6-0.1C83.8,79.1,83.2,80.6,82.9,82z"/>
		<path class="st11" d="M153.9,82c0.3-1,0.7-2,1-2.9c1.3-0.1,1.6,0.9,2.1,1.8C156,81.1,155.5,83.1,153.9,82z"/>
		<path class="st11" d="M142.5,67c0.4-0.2,0.8-0.5,1.1-0.7c1.2,0.3,1.6,1,1.4,2.2c-0.4,0.2-0.7,0.4-1.1,0.6
			C143,68.7,142.6,68,142.5,67z"/>
		<path class="st14" d="M103,64.8c-0.9,0.1-1.8,0.1-2.7,0.2c0.2-0.5,0.3-1.4,0.6-1.5C102,63.1,102.4,64.1,103,64.8z"/>
		<path class="st11" d="M108,69.7c-0.8-0.4-1.8-0.6-2-1.7C107.4,67.6,107.7,68.6,108,69.7z"/>
		<path class="st18" d="M137.5,56.4c-0.1-0.1-0.1-0.2-0.2-0.3c0.1-0.1,0.3-0.2,0.4-0.2c0,0.1,0.1,0.3,0,0.4
			C137.7,56.3,137.6,56.3,137.5,56.4z"/>
		<path class="st11" d="M93.4,81.1c0.2,0.6,0.4,1.3,0.7,1.9c-0.4-0.1-0.9-0.2-1.3-0.3C92.9,82.2,93.2,81.6,93.4,81.1z"/>
		<path class="st18" d="M117.1,74c-0.3-0.3-0.7-0.6-1-0.9C116.4,73.4,116.7,73.7,117.1,74z"/>
		<path class="st16" d="M170.3,157.1c-10.7,8.9-21.3,17.8-32,26.7c-4.4,3.7-8.9,7.4-13.3,11.1c-0.3-0.3-0.7-0.6-1-0.8
			c0-16.3,0-32.6,0-48.9c6.2,0.2,11.2-2.1,15.3-6.8c2-2.4,4.4-4.4,6.7-6.6c0.4,1.6,0.7,3.2,1.2,4.8c2.8,9.7,6.8,18.1,18.7,19
			C167.2,155.6,169.1,155.6,170.3,157.1z"/>
		<path class="st12" d="M145.9,131.7c-2.2,2.2-4.7,4.2-6.7,6.6c-4,4.7-9,7.1-15.3,6.8c-4.4-0.8-8.5-2.4-11.8-5.6
			c-2.2-2.1-4.2-4.6-7.1-6c0-1.9,0-3.8,0-5.8c3,1,4.7,3.7,6.9,5.6c9.2,8.1,19.5,7.4,27.5-2c1.7-2,3.7-3.8,5.6-5.6
			C146.5,127.6,145.8,129.7,145.9,131.7z"/>
		<path class="st19" d="M105.1,133.6c2.8,1.5,4.8,3.9,7.1,6c3.3,3.2,7.4,4.8,11.8,5.6c0,16.3,0,32.6,0,48.9
			c-15.4-12-30.4-24.4-45.2-37c1.5-1.5,3.7-1.6,5.5-1.9c11.3-1.8,16.8-9.3,19.8-19.4C104.3,135,104.7,134.3,105.1,133.6z"/>
		<path class="st10" d="M125,215.9c5.2,0.9,10.2,1.7,14.1,6.3c2.6,3,8.4,0.5,9.3-3.7c3.6,1.6,4.4,3.3,1.1,6.3
			c-2.7,2.4-4.2,4.7-8.5,1.4c-4.6-3.5-10.6,0.1-16-0.2c-2.4-0.3-4.9-0.5-7.3-1c-1.8-0.4-3.7-1-3.9-3.2c-0.2-2.4,1.6-3.4,3.5-4.3
			C119.7,216.4,122.4,216.2,125,215.9z"/>
		<path class="st10" d="M125,234.8c2.8,0.2,5.6,0.2,8.2,1.2c1.1,0.4,2.4,0.8,2.2,2.2c-0.1,1-1.2,1.4-2.2,1.7
			c-2.7,0.9-5.5,0.9-8.3,0.9c-2.1-1-4.9-0.6-6.5-3.1c-0.9-1.3-2.8-1.2-4.1-0.6c-3.1,1.5-3.9-0.8-5.7-3.2
			C114.6,234.7,119.8,235.4,125,234.8z"/>
		<path class="st10" d="M105.7,216.1c-1.9,2.5-4.2,4.1-4.7,6.9c-0.1,0.7,0.7,2.9-1.4,1.8c-1.1-0.5-3.2-1.8-2-3.4
			C99.5,219.1,101.3,216,105.7,216.1z"/>
		<path class="st9" d="M120.3,246.9c-0.5,0-0.9,0-1.4-0.1c0.1-0.2,0.2-0.4,0.3-0.7C119.6,246.4,119.9,246.6,120.3,246.9z"/>
		<path class="st20" d="M124,115.4c4.9-2.5,9.6,0.1,14.5,0.8c-5.3,3.4-7.9,10.7-15.8,9.5c-5.5-0.8-8.3-5.6-12.2-8.6
			c3.4-0.6,6.6,0.5,9.7,1.3C123.5,119.2,124.2,118.1,124,115.4z"/>
		<path class="st6" d="M124,115.4c0.1,2.7-0.5,3.8-3.7,3c-3.1-0.8-6.4-1.9-9.7-1.3c-0.7-0.3-1.2-1.2-0.5-1.3
			C114.7,115.2,119.3,112.9,124,115.4z"/>
		<path class="st11" d="M153.2,82.1c0.3-0.1,0.5-0.1,0.8-0.2c0.6,1.8-1,1.7-1.9,2.1c0.1-0.3,0.1-0.5,0.1-0.8
			C152.5,82.8,152.8,82.5,153.2,82.1z"/>
		<path class="st11" d="M94,82.9c0.7,0,1.1,0.4,1.3,1.1C94.8,83.7,94.4,83.3,94,82.9z"/>
		<path class="st21" d="M130,104c0.1-0.1,0.3-0.3,0.4-0.4c0,0.1,0,0.2-0.1,0.3C130.3,103.9,130.1,104,130,104L130,104z"/>
		<path class="st11" d="M136.1,82c-0.4,0.3-0.7,0.7-1.1,1C135.1,82.4,135.2,81.9,136.1,82z"/>
		<path class="st11" d="M137.1,81c0,0.7-0.5,0.9-1.1,1C135.8,81.2,136.1,80.7,137.1,81z"/>
		<path class="st17" d="M101.2,78.4c2.3,0,4.5,0.5,6.5,1.7c-0.4,2.4-1.5,4.2-4.2,3.5S100.7,80.6,101.2,78.4z"/>
		<path class="st18" d="M153.2,82.1c-0.3,0.4-0.6,0.7-0.9,1.1c-0.1-0.4-0.1-0.8-0.2-1.2C152.4,82.1,152.8,82.1,153.2,82.1z"/>
	</g>
</g>
</svg>
