<?xml version="1.0" encoding="utf-8"?>
<!-- Generator: Adobe Illustrator 23.0.3, SVG Export Plug-In . SVG Version: 6.00 Build 0)  -->
<svg version="1.1" id="Layer_1" xmlns="http://www.w3.org/2000/svg" xmlns:xlink="http://www.w3.org/1999/xlink" x="0px" y="0px"
	 viewBox="0 0 250 250" style="enable-background:new 0 0 250 250;" xml:space="preserve">
<style type="text/css">
	.st0{fill:none;}
	.st1{fill:#BD212D;}
	.st2{fill:#2D231D;}
	.st3{fill:#EA2228;}
	.st4{fill:#825034;}
	.st5{fill:#E8A328;}
	.st6{fill:#F5D21D;}
	.st7{fill:#523120;}
	.st8{fill:#512E28;}
	.st9{fill:#4B2A1B;}
	.st10{fill:#EA5C27;}
	.st11{fill:#8A1D23;}
	.st12{fill:#FF003D;}
	.st13{fill:#562C1B;}
	.st14{fill:#7A5935;}
	.st15{fill:#050301;}
	.st16{fill:#F0F3F5;}
	.st17{fill:#4C300A;}
</style>
<g>
	<g>
		<path class="st0" d="M123,251c-40.7,0-81.3,0-122,0C1,167.7,1,84.3,1,1c82,0,164,0,246-0.1c3.4,0,4.1,0.7,4.1,4.1
			c-0.1,80.7-0.1,161.3,0,242c0,3.4-0.7,4.1-4.1,4.1c-40.7-0.2-81.3-0.1-122-0.1c0-0.4,0-0.7,0-1.1c22.9-19.2,45.9-38.4,68.8-57.6
			c1.2-1,1.8-2.2,1.8-3.9c-0.1-6.7-0.1-13.3,0-20c0-2-0.8-3-2.7-3.4c-12.5-2.7-25-5.5-37.4-8.3c-6.7-5.6-9-13.4-10.6-21.5
			c-0.1-1.4-0.2-2.7-0.4-4.1c0.4-2.2,1.8-3.8,3.3-5.3c3.2-3.3,6.3-6.7,9.4-10c0.5-0.1,1.3,0.2,1-0.9l-0.1,0.1c1.3,1.1,2.2-0.1,3-0.6
			c9.5-5.5,16.3-13.3,21.1-23.2c10.5-21.9-1.3-56.2-12.7-67.7c-5.1-5.1-11.2-7.5-18.4-7.5c-1-1.8-2.3-3.2-4.3-3.9
			c-11.9-4.3-24-6.5-36.6-3.5c-20.8,5-33.4,19.3-42.8,37.3c-2.7,5.3-3.8,10.9-3.4,16.9c0.7,11.8,6.3,21.4,13,30.7
			c0.1,0.1,0.1,0.2,0.2,0.3c-0.1-0.1-0.1-0.2-0.2-0.3c0.4,0.5,0.9,1.1,1.3,1.6c-0.4,7.9,1.8,16.9-8.5,20.8
			c7.2,7.3,15.7,9.1,23.9,5.3c4.6,2.9,8.7,6.5,12,10.9c-0.1,1.7-0.2,3.3-0.3,5c-1.5,8.2-5.8,14.7-12.5,19.7
			c-11.5,2.8-22.9,5.6-34.4,8.2c-2.5,0.6-2.4,2.2-2.4,4.1c0,6.7,0.1,13.3,0,20c-0.1,2.4,0.8,4,2.5,5.5
			c12.8,10.9,25.6,21.8,38.2,32.9C105.5,235.3,114.9,242.4,123,251z"/>
		<path class="st1" d="M123,251c-8.1-8.6-17.5-15.7-26.3-23.4c-12.6-11.1-25.4-22-38.2-32.9c-1.8-1.5-2.6-3.1-2.5-5.5
			c0.2-6.7,0.1-13.3,0-20c0-1.9-0.1-3.5,2.4-4.1c11.5-2.7,22.9-5.5,34.4-8.2c8,9.1,18.2,13.5,30.2,14c0.7,0.1,1.4,0.2,2,0.3
			c0,6.3-0.1,12.6-0.1,18.9c-6.1-2.4-8.2-1.7-11.1,3.8c-5,1.7-9.2,4.5-12.6,8.5c-6,7.2-4.1,16.1,4.2,20.3c3.5,1.8,7.1,2.7,11,2.3
			c0,0,0.3,0,0.3,0l0.3,0c1.7,1.3,3.4,1.5,5.1,0c1,0.1,2,0.2,3,0.3c0,8.2,0,16.4,0,24.6c0,0.4,0,0.7,0,1.1
			C124.3,251,123.7,251,123,251z"/>
		<path class="st2" d="M76.8,93.5c-6.6-9.3-12.3-18.9-13-30.7c-0.3-5.9,0.7-11.6,3.4-16.9c9.3-18.1,22-32.4,42.8-37.3
			c12.6-3,24.7-0.8,36.6,3.5c2,0.7,3.3,2.2,4.3,3.9c0.3,3.3-0.8,6.2-2,9.1c-1.1,2.6-3.1,4.8-2.9,7.8c-1.6-0.2-2.3,1-3.1,2.1
			c-9.7,12.8-21,24-33.5,34c-1,0.8-2.5,1.2-2.4,2.9c-6.4,1.5-11,5.8-15.6,10.1c-3.6,3.3-6.9,6.8-5.7,12.4c-1.1,1.3-0.8,2.6,0.1,3.8
			c-0.4,2,1.9,3.7,0.6,5.7c-3.5-2.2-4.6-6.7-8.3-8.8C77.7,94.6,77.3,94.1,76.8,93.5C76.9,93.6,76.8,93.5,76.8,93.5z"/>
		<path class="st3" d="M124.9,190.1c0-6.3,0.1-12.6,0.1-18.9c11.9-1.1,22.1-5.6,30.4-14.4c12.5,2.8,24.9,5.6,37.4,8.3
			c2,0.4,2.8,1.4,2.7,3.4c-0.1,6.7-0.1,13.3,0,20c0,1.7-0.6,2.8-1.8,3.9c-22.9,19.2-45.9,38.4-68.8,57.6c0-8.2,0-16.4,0-24.6
			c2.4-0.6,5-0.6,7.1-2.3c7.2-1.3,12.3-5.6,16.1-11.5c3.6-5.6,2.8-10.6-2.2-15.1c-5.7-5.2-12.8-5.7-20-5.3
			C125.6,190.8,125.2,190.4,124.9,190.1z"/>
		<path d="M146,33c-0.2-3,1.8-5.3,2.9-7.8c1.3-2.9,2.4-5.8,2-9.1c7.2,0,13.3,2.4,18.4,7.5c11.5,11.6,23.3,45.8,12.7,67.7
			c-4.8,9.9-11.6,17.7-21.1,23.2c-0.9,0.5-1.8,1.7-3,0.6c0.9-3.6,1.9-7.2,2.8-10.8c6.4-0.9,11.8-7.9,12.1-15.9
			c0.2-5.8-1.8-7.6-7.8-7.1c-0.1-2.3-0.1-4.6-0.2-6.9C165.1,57.6,160.2,43.2,146,33z"/>
		<path class="st4" d="M160.9,104.3c-0.9,3.6-1.9,7.2-2.8,10.8l0.1-0.1c-0.3,0.3-0.7,0.6-1,0.9c-3.1,3.3-6.2,6.7-9.4,10
			c-1.5,1.6-2.9,3.1-3.3,5.3c-3.7,1.2-5.5,4.6-8.1,7c-5.1,4.7-10.6,5.9-17.3,3.5c-5.5-2-8.6-7.1-13.5-9.5c-3.4-4.3-7.4-7.9-12-10.9
			c-2.5-4.8-5.2-9.5-5.6-15.1c-0.1-1-0.4-1.9-1.5-2.3c1.3-2-1-3.7-0.5-5.7c0.1-0.8,0.1-1.6,0.2-2.3c14.3,12.8,15.1,12.9,29.8,3.8
			c0,1.8,0.2,3.6,0.1,5.4c-0.3,5,3.5,7.7,6.9,9.4c2.8,1.4,4.4-2.5,6.2-4.5c0.1-0.1,0.2-0.1,0.3-0.2c0.1,0,0-0.2,0.1-0.3
			c-0.1,0.1-0.3,0.3-0.4,0.4c-1.5-1-4.5,2.5-4.7-0.8c-0.3-4.7-1.4-9.7,0.8-14.3c16.3,14.3,20.4,14.6,36.1,3.1
			C162.4,100.2,160.4,102.2,160.9,104.3z M111.8,121c4.1,2.6,6.1,8.4,12.3,7.6c7,1.2,9-5.4,13.4-8.1c-4.6-0.8-8.9-2.9-13.3-0.5
			C119.9,118.2,115.7,118.6,111.8,121z"/>
		<path class="st5" d="M155.4,156.8c-8.2,8.8-18.5,13.2-30.4,14.4c-0.7-0.1-1.4-0.2-2-0.3c0-7.3,0-14.6,0-22
			c6.2,0.2,11.3-2,15.3-6.8c2-2.4,4.3-4.6,6.5-6.9C146.5,143.4,148.7,151.2,155.4,156.8z"/>
		<path class="st6" d="M123,148.9c0,7.3,0,14.6,0,22c-12-0.5-22.2-4.9-30.2-14c6.7-5,11-11.4,12.5-19.7
			C110.8,141.6,115.5,147.4,123,148.9z"/>
		<path class="st7" d="M86.4,104c1.1,0.3,1.5,1.2,1.5,2.3c0.4,5.6,3.1,10.3,5.6,15.1c-8.2,3.8-16.7,1.9-23.9-5.3
			c10.3-3.9,8.1-12.9,8.5-20.8C81.8,97.2,82.9,101.8,86.4,104z"/>
		<path class="st8" d="M123,148.9c-7.5-1.5-12.2-7.3-17.7-11.7c0.1-1.7,0.2-3.3,0.3-5c5,2.5,8,7.6,13.6,9.5
			c6.7,2.4,12.2,1.2,17.3-3.5c2.6-2.4,4.4-5.8,8.1-7c0.1,1.4,0.2,2.7,0.4,4.1c-2.2,2.3-4.4,4.5-6.5,6.9
			C134.3,146.9,129.2,149.1,123,148.9z"/>
		<path class="st7" d="M76.8,93.5C76.8,93.5,76.9,93.6,76.8,93.5c0.1,0.1,0.1,0.2,0.2,0.3C77,93.7,76.9,93.6,76.8,93.5z"/>
		<path class="st9" d="M157.1,115.9c0.3-0.3,0.7-0.6,1-0.9C158.4,116.1,157.6,115.8,157.1,115.9z"/>
		<path class="st10" d="M116.4,225c-3.9,0.4-7.5-0.5-11-2.3c-8.3-4.2-10.2-13.1-4.2-20.3c3.4-4,7.6-6.8,12.6-8.5
			c0.1,2.1,0.1,4.3,1.4,6.2c-2.4,1.9-5.3,3.2-7.5,5.4c-6.6,6.8-4.9,14.4,4.1,17.6c1.4,0.5,2.9,0.7,4.3,1
			C116.1,224.4,116.2,224.7,116.4,225z"/>
		<path class="st6" d="M132.1,223c-2.1,1.7-4.7,1.7-7.1,2.3c-1-0.1-2-0.2-3-0.3c-0.1-0.3-0.3-0.6-0.4-1c-0.6-3.2-1.1-6.5-1.8-9.7
			c-1.5-7.3-1.4-7.4,5.5-9.9c1.8-0.7,2.5-0.6,3,1.5c0.9,3.7,1,7.5,2.7,11C130.7,219.1,131.5,221,132.1,223z"/>
		<path class="st6" d="M115.2,200.1c-1.2-1.9-1.3-4-1.4-6.2c3-5.5,5.1-6.2,11.1-3.8c0.3,0.3,0.6,0.7,1,1c0.2,0.3,0.4,0.6,0.6,0.9
			c1,3.4,0.9,6.5-2.3,8.8C121.1,203.1,118,201.9,115.2,200.1z M120.4,198.9c2.1-0.3,3.5-1.5,3.3-3.7c-0.1-2.1-1.5-3.3-3.7-3.1
			c-2,0.1-3,1.3-3,3.3C117,197.5,118.4,198.5,120.4,198.9z"/>
		<path class="st10" d="M121.6,224c0.1,0.3,0.3,0.6,0.4,1c-1.7,1.5-3.4,1.3-5.1,0c0.1-0.2,0.2-0.4,0.2-0.7
			C118.6,224.2,120.1,224.1,121.6,224z"/>
		<path class="st11" d="M117.1,224.3c0,0.3,0,0.5-0.2,0.7c0,0-0.3,0-0.3,0s-0.3,0-0.3,0c-0.2-0.3-0.3-0.5-0.4-0.9
			C116.3,224.2,116.7,224.3,117.1,224.3z"/>
		<path class="st12" d="M115.9,99.7c-14.7,9.1-15.6,9-29.8-3.8c-0.1-0.5-0.2-1-0.3-1.5c-1.2-5.6,2.1-9.1,5.7-12.4
			c4.6-4.3,9.2-8.6,15.6-10.1c2.4,1.4,4.9,2.8,7.2,4.3c7.6,4.7,14.6,4.3,21.3-1.8c2.3-2.1,4.8-4,7.3-5.9c4.1-3.2,8.4-3.2,13-0.8
			c3.4,1.8,6,4.6,9.2,6.7c0.1,2.3,0.1,4.6,0.2,6.9c-1.2,5.6-1.5,11.4-4.1,16.7c-15.7,11.5-19.8,11.2-36.1-3.1
			c-0.7-1.6-1.7-1.7-3-0.7C119.9,95.9,117.4,97.3,115.9,99.7z M146.8,83.7c-2.4-0.6-4.6,0.1-6.8,1.1c-2.5,0.5-4.6,1.6-6,4
			c4.9,3.2,10,4.6,15.5,2.2c2.4-1.1,5.5-2.7,5.2-5.3c-0.2-2.1-3.8-1.6-6-2C148.1,83.6,147.5,83.7,146.8,83.7z M100.6,83.5
			c-1.6,0.2-3.3,0.3-4.9,0.6c-1.2,0.2-3,0.2-3.3,1.6c-0.3,1.3,1.2,2.3,2.1,3.1c5,4.6,12,4.5,18.9-0.4c-1.7-1.9-3.6-3.4-6.2-3.7
			C105.1,83.6,102.9,83.3,100.6,83.5z"/>
		<path class="st4" d="M165,74.4c-3.2-2.1-5.7-5-9.2-6.7c-4.6-2.4-8.9-2.4-13,0.8c-2.5,1.9-5,3.8-7.3,5.9
			c-6.7,6.1-13.7,6.5-21.3,1.8c-2.4-1.5-4.8-2.9-7.2-4.3c-0.1-1.7,1.4-2.1,2.4-2.9c12.5-10,23.8-21.2,33.5-34
			c0.8-1.1,1.5-2.3,3.1-2.1C160.2,43.2,165.1,57.6,165,74.4z"/>
		<path class="st2" d="M85.7,94.4c0.1,0.5,0.2,1,0.3,1.5c-0.1,0.8-0.1,1.6-0.2,2.3C84.9,97,84.7,95.7,85.7,94.4z"/>
		<path class="st10" d="M126.5,192c-0.2-0.3-0.4-0.6-0.6-0.9c7.3-0.4,14.3,0.1,20,5.3c5,4.6,5.9,9.5,2.2,15.1
			c-3.8,5.9-8.9,10.2-16.1,11.5c-0.5-2-1.3-4-1.1-6.1c4.3-1.9,8.4-4,11.2-7.9c4.1-5.5,2.8-11.3-3.2-14.5
			C135.1,192.4,130.8,191.8,126.5,192z"/>
		<path class="st8" d="M161.1,98c2.6-5.2,2.9-11.1,4.1-16.7c5.9-0.6,8,1.3,7.8,7.1c-0.3,8-5.7,15-12.1,15.9
			C160.4,102.2,162.4,100.2,161.1,98z"/>
		<path class="st13" d="M115.9,99.7c1.6-2.4,4-3.8,6.1-5.5c1.3-1,2.3-0.9,3,0.7c-2.2,4.7-1.1,9.6-0.8,14.3c0.2,3.3,3.2-0.2,4.7,0.8
			l0,0c-1.7,2-3.3,5.9-6.2,4.5c-3.4-1.7-7.2-4.3-6.9-9.4C116.1,103.3,115.9,101.5,115.9,99.7z"/>
		<path class="st11" d="M124.2,120c4.4-2.3,8.7-0.2,13.3,0.5c-4.5,2.7-6.5,9.3-13.4,8.1c0-1.9-0.1-3.8-0.1-5.7
			C124,122,124.1,121,124.2,120z"/>
		<path class="st1" d="M123.9,122.9c0,1.9,0.1,3.8,0.1,5.7c-6.1,0.8-8.2-5-12.3-7.6C115.8,121.7,119.9,122.3,123.9,122.9z"/>
		<path class="st3" d="M123.9,122.9c-4-0.6-8.1-1.3-12.1-1.9c4-2.4,8.1-2.8,12.4-1C124.1,121,124,122,123.9,122.9z"/>
		<path class="st14" d="M129,110c0.1-0.1,0.3-0.3,0.4-0.4c0,0.1,0,0.2-0.1,0.3C129.3,109.9,129.1,110,129,110L129,110z"/>
		<path class="st15" d="M126.5,192c4.4-0.3,8.6,0.4,12.5,2.5c6.1,3.2,7.3,9,3.2,14.5c-2.9,3.9-7,6-11.2,7.9c-1.7-3.4-1.8-7.3-2.7-11
			c-0.5-2.1-1.1-2.2-3-1.5c-6.8,2.5-6.9,2.6-5.5,9.9c0.7,3.2,1.2,6.5,1.8,9.7c-1.5,0.1-3,0.2-4.5,0.3c-0.4-0.1-0.8-0.1-1.1-0.2
			c-1.4-0.3-2.9-0.6-4.3-1c-9-3.2-10.7-10.8-4.1-17.6c2.2-2.3,5.1-3.5,7.5-5.4c2.9,1.8,5.9,3,9.1,0.7
			C127.3,198.5,127.4,195.4,126.5,192z"/>
		<path class="st0" d="M120.4,198.9c-2-0.3-3.4-1.3-3.4-3.5c0-1.9,1-3.1,3-3.3c2.2-0.1,3.6,1,3.7,3.1
			C123.9,197.3,122.6,198.5,120.4,198.9z"/>
		<path class="st16" d="M107.2,84.7c2.6,0.3,4.5,1.8,6.2,3.7c-7,4.9-13.9,5-18.9,0.4c-1-0.9-2.4-1.8-2.1-3.1
			c0.3-1.4,2.1-1.3,3.3-1.6c1.6-0.3,3.3-0.4,4.9-0.6c-0.8,2.9-1.1,5.9,2.8,6.4C107.1,90.4,107.5,87.6,107.2,84.7z"/>
		<path class="st16" d="M146.8,83.7c0.7,0,1.3-0.1,2,0c2.2,0.4,5.8-0.1,6,2c0.3,2.5-2.8,4.2-5.2,5.3c-5.5,2.4-10.6,1-15.5-2.2
			c1.4-2.4,3.5-3.5,6-4c-0.2,3,0.6,5.6,4.2,5.1C148.1,89.4,147.2,86.3,146.8,83.7z"/>
		<path class="st17" d="M107.2,84.7c0.3,2.9-0.1,5.7-3.8,5.2c-3.9-0.5-3.6-3.5-2.8-6.4C102.9,83.3,105.1,83.6,107.2,84.7z"/>
		<path class="st17" d="M146.8,83.7c0.4,2.6,1.3,5.7-2.6,6.2c-3.6,0.5-4.4-2.1-4.2-5.1C142.2,83.8,144.4,83.1,146.8,83.7z"/>
	</g>
</g>
</svg>
