<?xml version="1.0" encoding="utf-8"?>
<!-- Generator: Adobe Illustrator 23.0.3, SVG Export Plug-In . SVG Version: 6.00 Build 0)  -->
<svg version="1.1" id="Layer_1" xmlns="http://www.w3.org/2000/svg" xmlns:xlink="http://www.w3.org/1999/xlink" x="0px" y="0px"
	 viewBox="0 0 250 250" style="enable-background:new 0 0 250 250;" xml:space="preserve">
<style type="text/css">
	.st0{fill:#FFFFFF;}
	.st1{fill:none;}
	.st2{fill:#2A8E09;}
	.st3{fill:#00FF73;}
	.st4{fill:#42230F;}
	.st5{fill:#D3AB84;}
	.st6{fill:#7A5935;}
	.st7{fill:#2D2827;}
	.st8{fill:#937B5D;}
	.st9{fill:#272222;}
	.st10{fill:#AA7F61;}
	.st11{fill:#B27746;}
	.st12{fill:#272221;}
	.st13{fill:#F59D75;}
	.st14{fill:#CC965C;}
	.st15{fill:#362F2E;}
	.st16{fill:#F7F1ED;}
	.st17{fill:#CA5A40;}
	.st18{fill:#D27154;}
</style>
<rect x="87.6" y="64.6" class="st0" width="76.4" height="24.4"/>
<g>
	<g>
		<path class="st1" d="M125,251c-41.3,0-82.7,0-124,0C1,167.7,1,84.3,1,1c82,0,164,0,246-0.1c3.4,0,4.1,0.7,4.1,4.1
			c-0.1,80.7-0.1,161.3,0,242c0,3.4-0.7,4.1-4.1,4.1c-39.7-0.2-79.3-0.1-119-0.1c0.5-0.7,0.8-1.4,1.4-2c24-22.5,47.8-45.3,72.3-67.4
			c5.8-5.2,7.1-10.6,6.4-17.4c0-0.3-0.1-0.7-0.2-1c0.1-4.5,0-9,0.3-13.5c0.2-3.1-0.8-4.3-3.9-4.9c-13.2-2.8-26.3-6-39.4-9
			c-4.1-0.9-8.8-1.1-9.1-6.9c-0.1-5.6-0.3-11.2-0.4-16.9c4.8-4.8,7.6-10.3,6.9-17.3c-0.2-1.7,0.5-3.6,0.8-5.3
			c7.2-2.4,9.3-8.7,10.6-15c1.7-8.2-2.3-11.5-10.2-9c0.4-9.1,0.7-18.2,1.2-27.4c0.8-17.7,0.8-17.6-15.8-24.8
			c-11.8-5.2-23.7-6.9-36.4-3.5c-8.7,2.3-17.2,4.8-25.7,7.9c-2.7,1-8,0.4-4.7,6.2c0.1,0.2,0,0.8-0.2,0.8c-3.8,1.2-1.9,4.2-1.7,6.2
			c1.3,11.5,3,23,4.5,34.6c-5.8-2-8.4-1.1-9.6,3c-2.2,7.9,3.7,18.8,11.7,21.5c0.1,1.8,0.4,3.6,0.3,5.5c-0.5,8.4,2.7,14.8,9.7,19.4
			c-0.2,0.3-0.2,0.5,0,0.8c0,4.7-0.1,9.5-0.1,14.2c-1.5,2.7-3.7,3.8-6.7,4.4c-11.3,2.6-22.5,5.6-33.7,8.4
			C43.1,146,43.1,146,44,160.1c-0.1,3.8,0.1,7.7-0.3,11.5c-0.3,3.8,1,6.4,3.9,8.9c20.4,18.1,40.7,36.3,60.8,54.7
			C114.1,240.4,120.4,244.8,125,251z"/>
		<path class="st2" d="M125,251c-4.6-6.2-10.9-10.6-16.5-15.7c-20.1-18.4-40.4-36.6-60.8-54.7c-2.9-2.6-4.3-5.1-3.9-8.9
			c0.3-3.8,0.2-7.6,0.3-11.5c9.9-2.3,19.8-4.4,29.6-7c3.9-1,6.5-0.5,9.5,2.6c13.3,13.7,27,27.1,40.4,40.7c2.5,2.5,3.8,2.5,6.2,0
			c12.8-13.1,25.9-25.9,38.7-38.9c2.1-2.2,4-2.7,7-1.9c10.8,2.7,21.7,5.1,32.5,7.6c0.1,0.3,0.1,0.7,0.2,1c0.7,6.8-0.7,12.2-6.4,17.4
			c-24.5,22.1-48.2,44.9-72.3,67.4c-0.6,0.5-0.9,1.3-1.4,2C127,251,126,251,125,251z"/>
		<path class="st3" d="M208,163.3c-10.8-2.5-21.7-4.9-32.5-7.6c-3-0.8-4.8-0.2-7,1.9c-12.8,13-25.9,25.9-38.7,38.9
			c-2.4,2.5-3.7,2.5-6.2,0c-13.4-13.7-27.1-27-40.4-40.7c-3-3.1-5.6-3.6-9.5-2.6c-9.8,2.6-19.7,4.7-29.6,7c-1-14.1-1-14.1,12.3-17.5
			c11.2-2.8,22.4-5.8,33.7-8.4c3-0.7,5.3-1.8,6.7-4.4c4.5,3.1,9.5,5.3,14.5,7.5c3.8,1.7,6.5,4.1,8.1,8.1c1.3,3.3,2.5,6.7,5.2,9.6
			c2.1-2.9,3.6-5.8,4.7-8.9c2.2-4.9,6.2-7.7,11-9.7c5.3-2.3,10.4-5,15.5-7.5c0.3,5.9,5.1,6,9.1,6.9c13.1,3,26.2,6.2,39.4,9
			c3.1,0.7,4.1,1.8,3.9,4.9C207.9,154.3,208,158.8,208,163.3z"/>
		<path class="st4" d="M84.7,65.5c-1.5-11.5-3.2-23-4.5-34.6c-0.2-2-2.1-5,1.7-6.2c0.1,0,0.3-0.6,0.2-0.8c-3.3-5.8,2-5.2,4.7-6.2
			c8.4-3,17-5.6,25.7-7.9c12.7-3.4,24.6-1.7,36.4,3.5c16.6,7.2,16.6,7.1,15.8,24.8c-0.4,9.1-0.8,18.2-1.2,27.4
			c-1,3.6,0.3,7.3-0.9,10.8c-1.1-3-0.1-6.2-0.7-9.2c0-4.6,0-9.2,0.2-13.8c0.1-2.2-0.6-4.1-2.4-5.1c-3.3-1.9-4.1-4.8-3.7-8.3V40
			c0.3-0.3,0.6-0.6,0.9-0.9c0.2-1.1,0.4-2.3,0.7-3.4c0.7-2.3,0.2-3-2.3-2.3c-18.9,5.2-38.1,4.2-57.3,2c-5.5-0.6-5.6-0.6-4,5
			c-0.2,3,1.3,6.7-2.4,8.5c-4.5,2.1-4.9,5.8-4.5,10c0.3,3.3,0.5,6.6,0.8,9.9c-1.4,2,1.4,4.7-1.2,6.5C84.9,72.1,85.2,68.7,84.7,65.5z
			"/>
		<path class="st5" d="M87.8,68.6c-0.3-3.3-0.5-6.6-0.8-9.9c-0.4-4.2,0-7.8,4.5-10c3.7-1.8,2.2-5.5,2.4-8.5
			c10,4.7,20.1,9.5,30.1,14.2c0,8.2,0,16.3,0,24.5c-1.7,0.1-3.7-0.4-4,2.4c-0.5,3.9-1,7.9-2,11.7c-1.5,5.6,1.6,8.1,6.1,9.9
			c0,0.9-0.1,1.9-0.1,2.8c-1.7,0.3-3.7-0.3-5.2,1c-1.6,0.1-3.2,0.2-5.7,0.4c2.7,1,4.4,1.1,6.1,0.1c1.6,0.1,3.3,0.1,4.9,0.2
			c0,9.1,0,18.2-0.1,27.2c-2.4,0.7-4.6-0.7-6.9-0.8c-2.5-1.8-5.1-3.5-7.3-5.8c-4.1-4.3-8.5-8.3-12.8-12.5c-0.3-0.3-0.3-0.5,0-0.8
			c0-6.9-0.7-14,0.2-20.8C98.3,83.8,94.2,75.9,87.8,68.6z M106,79c3.4,0.5,6.2-0.4,8.3-3.2c2.4-0.9,1.7-2.7,1.6-5.1
			c-2.2,2-4.2,1.6-6.2,1.4c-4.5-0.5-8.9-1.1-13.4-1.6c-3-0.3-3-0.2-2.2,2.8C97.3,76.7,100.4,80.4,106,79z"/>
		<path class="st6" d="M117,133.9c2.3,0,4.5,1.5,6.9,0.8c5,0.6,9.8,0.3,13.5-3.5c5.8-6,11.2-12.2,16.8-18.3c0.4-0.3,0.9-0.5,1.3-0.8
			c0.1,5.6,0.3,11.2,0.4,16.9c-5.2,2.5-10.3,5.2-15.5,7.5c-4.8,2.1-8.9,4.8-11,9.7C124.7,142.6,120.6,138.5,117,133.9z"/>
		<path class="st7" d="M87.8,68.6c6.4,7.3,10.5,15.1,9.2,25.5c-0.8,6.8-0.2,13.9-0.2,20.8c-7.1-4.6-10.2-11-9.7-19.4
			c0.1-1.8-0.2-3.6-0.3-5.5c-0.1-5-0.1-10-0.2-15C89.1,73.3,86.4,70.6,87.8,68.6z"/>
		<path class="st8" d="M117,133.9c3.6,4.5,7.7,8.6,12.2,12.2c-1.1,3.1-2.7,6-4.7,8.9c-2.6-2.9-3.9-6.4-5.2-9.6
			c-1.6-4-4.3-6.4-8.1-8.1c-5-2.2-10-4.4-14.5-7.5c0-4.7,0.1-9.4,0.1-14.2c4.3,4.1,8.7,8.2,12.8,12.5
			C111.9,130.4,114.5,132.1,117,133.9z"/>
		<path class="st9" d="M155.4,112.1c-0.4,0.3-0.9,0.5-1.3,0.8c0-6.2-0.3-12.3-0.1-18.5c0.2-6-0.9-12,0.7-17.9
			c0.2-0.4,0.4-0.7,0.6-1.1v-0.1c0.3-0.4,0.6-0.9,0.9-1.3c0.4-0.4,0.8-0.7,1.2-1.1c0.3-0.1,0.5-0.3,0.7-0.7c1.1-1.9,2-3.9,3.8-5.3
			c0.5,3-0.5,6.2,0.7,9.2c1.2,4.4-0.4,8.8,0.5,13.2c-0.3,1.8-0.9,3.6-0.8,5.3C163,101.8,160.2,107.3,155.4,112.1z"/>
		<path class="st10" d="M86.6,75.1c0.1,5,0.1,10,0.2,15c-8-2.8-13.9-13.6-11.7-21.5c1.2-4.2,3.8-5,9.6-3
			C85.2,68.7,84.9,72.1,86.6,75.1z"/>
		<path class="st10" d="M163,89.5c-0.9-4.4,0.7-8.9-0.5-13.2c1.3-3.5,0-7.3,1-10.8c7.9-2.5,11.9,0.8,10.2,9
			C172.3,80.8,170.2,87,163,89.5z"/>
		<path class="st11" d="M161.9,67c-1.8,1.4-2.7,3.4-3.8,5.3c-2-1.9-4.2-2-7-1.7c-5.8,0.6-11.6,2.6-17.7,0.7c0.4,1.9-0.1,3.9,2.4,4
			c0.3,1.9,1.9,2.5,3.4,3.2c5.6,2.9,10.1-0.1,14.5-2.9c0.3,0.3,0.7,0.6,1,0.8c-1.6,5.9-0.5,11.9-0.7,17.9c-0.2,6.2,0,12.3,0.1,18.5
			c-5.6,6.1-11,12.4-16.8,18.3c-3.6,3.8-8.5,4.1-13.5,3.5c0-9.1,0-18.2,0.1-27.2c3-1.3,6.1,1.2,9.5,0.1c-3.3-2-6.5-1.5-9.5-1.8
			c0-0.9,0.1-1.9,0.1-2.8c0.4,0,0.7,0,1.1-0.1c4.8,0.2,7-2.2,7-6.9c0-4.3-1.2-8.5-1.7-12.7c-0.4-3.7-1.9-4.9-5.4-4.3
			c-0.4,0-0.7,0-1.1-0.1c0-8.2,0-16.3,0-24.5c2.2-0.1,4-1.5,6-2.4c8.7-4,17-8.9,26-12.3c-0.3,3.5,0.4,6.3,3.7,8.3
			c1.8,1,2.4,2.9,2.4,5.1C161.9,57.8,161.9,62.4,161.9,67z"/>
		<path class="st12" d="M156,39.9c-9,3.4-17.3,8.3-26,12.3c-1.9,0.9-3.7,2.2-6,2.4c-10-4.7-20.1-9.5-30.1-14.2c-1.6-5.5-1.5-5.6,4-5
			c19.2,2.2,38.4,3.2,57.3-2c2.6-0.7,3,0,2.3,2.3c-0.3,1.1-0.5,2.3-0.7,3.4c-0.5,0.1-0.9,0.2-0.9,0.9L156,39.9z"/>
		<path class="st13" d="M155.9,40c-0.1-0.6,0.4-0.8,0.9-0.9C156.5,39.4,156.2,39.7,155.9,40z"/>
		<path class="st14" d="M124,79c0.4,0,0.7,0,1.1,0.1c0,8,0,15.9,0,23.9c-0.4,0-0.7,0-1.1,0.1c-4.5-1.8-7.6-4.3-6.1-9.9
			c1-3.8,1.6-7.7,2-11.7C120.3,78.6,122.2,79.1,124,79z"/>
		<path class="st15" d="M94.1,73.2c-0.7-3.1-0.7-3.2,2.2-2.8c4.5,0.5,8.9,1.1,13.4,1.6c2,0.2,4,0.6,6.2-1.4c0.1,2.5,0.8,4.2-1.6,5.1
			c-3.5-1.6-6.3-0.9-8.3,2.5c-0.6-0.2-1.7-0.2-1.8-0.5C102.5,72.3,97.9,73.8,94.1,73.2z"/>
		<path class="st16" d="M94.1,73.2c3.8,0.5,8.5-0.9,10.1,4.5c0.1,0.3,1.2,0.3,1.8,0.5c0,0.2,0,0.5,0,0.7
			C100.4,80.4,97.3,76.7,94.1,73.2z"/>
		<path class="st1" d="M106,79c0-0.2,0-0.5,0-0.7c2-3.4,4.8-4.1,8.3-2.5C112.2,78.5,109.4,79.5,106,79z"/>
		<path class="st17" d="M123.9,105.8c3.1,0.3,6.2-0.2,9.5,1.8c-3.5,1.1-6.5-1.4-9.5-0.1c-1.6-0.1-3.2-0.1-4.9-0.2
			c0-0.2-0.2-0.4-0.4-0.5C120.3,105.5,122.2,106.2,123.9,105.8z"/>
		<path class="st18" d="M119.1,107.3c-1.7,1-3.4,0.9-6.1-0.1c2.5-0.2,4.1-0.3,5.7-0.4C118.9,106.9,119,107.1,119.1,107.3z"/>
		<path class="st15" d="M135.8,75.4c-2.6-0.1-2-2.1-2.4-4c6.1,1.9,11.9-0.1,17.7-0.7c2.8-0.3,5-0.2,7,1.7c-0.1,0.3-0.3,0.5-0.7,0.7
			c-1.1,0.1-2.3,0.3-3.4,0.4c-3,0.6-6.9-0.9-8,3.9c-0.3,1.1-2.5,1.3-2.9,0.3C141.4,73.7,138.5,75,135.8,75.4z"/>
		<path class="st11" d="M154,73.4c1.1-0.1,2.3-0.3,3.4-0.4c-0.4,0.4-0.8,0.7-1.2,1.1c-0.6,0.2-1,0.6-0.9,1.3v0.1
			c-0.4-0.1-0.9-0.3-1.3-0.4C154,74.5,154,73.9,154,73.4z"/>
		<path class="st11" d="M155.3,75.3c-0.1-0.7,0.2-1.1,0.9-1.3C155.9,74.5,155.6,74.9,155.3,75.3z"/>
		<path class="st11" d="M154.1,75c0.4,0.1,0.9,0.3,1.3,0.4c-0.2,0.4-0.4,0.7-0.6,1.1c-0.3-0.3-0.7-0.6-1-0.8
			C153.8,75.5,153.9,75.2,154.1,75z"/>
		<path class="st6" d="M125.1,103c0-8,0-15.9,0-23.9c3.4-0.6,5,0.6,5.4,4.3c0.4,4.2,1.7,8.4,1.7,12.7
			C132,100.8,129.9,103.2,125.1,103z"/>
		<path class="st16" d="M154.1,75c-0.2,0.2-0.3,0.4-0.4,0.7c-4.5,2.8-8.9,5.8-14.5,2.9c-1.4-0.7-3-1.3-3.4-3.2
			c2.7-0.3,5.7-1.6,7.3,2.3c0.4,1,2.7,0.8,2.9-0.3c1.1-4.8,5-3.3,8-3.9C154,73.9,154,74.5,154.1,75z"/>
	</g>
</g>
</svg>
