<?xml version="1.0" encoding="iso-8859-1"?>
<!-- Generator: Adobe Illustrator 23.0.3, SVG Export Plug-In . SVG Version: 6.00 Build 0)  -->
<svg version="1.1" id="Layer_1" xmlns="http://www.w3.org/2000/svg" xmlns:xlink="http://www.w3.org/1999/xlink" x="0px" y="0px"
	 viewBox="0 0 250 250" style="enable-background:new 0 0 250 250;" xml:space="preserve">
<g>
	<g>
		<path style="fill:none;" d="M1,251C1,169,1.027,87,0.904,5C0.899,1.576,1.576,0.899,5,0.904c80.666,0.124,161.333,0.124,242,0
			c3.424-0.005,4.102,0.672,4.096,4.096c-0.124,80.666-0.124,161.333,0,242c0.005,3.424-0.672,4.101-4.096,4.096
			C165,250.973,83,251,1,251z M174.21,69.069l-0.175,0.17c-7.249-0.206-9.583,1.362-11.999,8.335
			c-1.962,5.663-2.626,11.616-3.56,17.491c-2.156,13.556-4.504,27.103-4.122,40.919c-0.25,1.278-0.499,2.556-0.749,3.835
			c-1.832-0.363-3.663-0.725-5.495-1.088c-0.067-10.91-0.135-21.82-0.202-32.73c0.238-0.277,0.295-0.588,0.17-0.931
			c3.934-2.522,5.446-6.426,5.714-10.795c0.31-5.076,0.249-10.176,0.349-15.265c1.114-2.235,0.861-4.62,0.763-6.988
			c6.342-12.035,7.399-24.952,6.799-38.297c-2.636,0.349-3.055,3.573-5.631,3.239c0.032-1.656-0.239-3.386,0.144-4.957
			c2.63-10.766-3.654-16.707-11.608-21.766c-1.108-0.705-2.354-1.194-3.536-1.783c-4.398-2.437-9.078-3.953-14.111-4.313
			c-5.986-1.343-11.985-1.509-18-0.19c-5.774,0.269-11.094,2.025-16.072,4.904c-9.704,5.077-15.875,12.13-13.59,24.02
			c0.308,1.602,0.198,3.284,0.281,4.929c-3.006,0.144-3.523-3.649-6.369-4.163c-1.299,14.01,0.374,27.206,7.748,39.289
			c0.169,7.771,0.216,15.548,0.561,23.312c0.157,3.543,1.434,6.788,4.523,8.986c0.124,0.643,0.249,1.287,0.373,1.93
			c-0.072,10.651-0.143,21.301-0.215,31.952c-14.394,3.667-28.788,7.334-43.182,11.001c-2.917-0.105-1.963,2.139-1.978,3.533
			c-0.085,7.637,0.097,15.279-0.112,22.911c-0.078,2.823,1,4.517,3.046,6.261c11.238,9.58,22.325,19.338,33.531,28.956
			c13.081,11.226,26.231,22.371,39.352,33.552c1.877,1.691,2.65-0.486,3.531-1.225c25.074-21.02,50.074-42.127,75.136-63.161
			c1.945-1.632,2.759-3.344,2.709-5.932c-0.161-8.306-0.038-16.618-0.025-24.928c11.191-14.338,20.193-30.012,28.201-46.286
			c0.651-1.322,1.054-2.819,1.298-4.28c0.73-4.383-0.249-7.954-5.01-9.477c-0.243-2.256,1.191-3.978,1.898-5.93
			c0.279-0.77,0.69-1.675-0.158-2.178c-1.052-0.624-1.776,0.09-2.273,1.039c-0.959,1.833-1.138,4.101-3.017,5.422
			c-4.382-2.284-7.635-0.639-10.271,3c-2.365,3.264-3.749,6.983-4.928,10.798c-4.752,15.375-9.098,30.854-12.025,46.699
			c-4.629-1.011-9.257-2.023-13.883-3.033c0.091-0.876,0.183-1.752,0.274-2.627l0.025,0c9.373-12.139,15.44-26.144,22.337-39.676
			c2.026-3.975,4.019-7.997,5.05-12.381c1.529-6.504,0.325-9.137-5.412-12.128c0.613-2.015,1.264-4.02,1.819-6.051
			c0.211-0.773,0.3-1.701-0.745-2.011c-1.025-0.304-1.395,0.457-1.728,1.249c-0.814,1.934-1.664,3.853-2.499,5.778
			c-5.54-1.517-8.396-0.247-11.198,5.23c-3.065,5.99-4.119,12.602-5.489,19.081c-2.846,13.458-6.446,26.808-6.484,40.716
			c-0.235,0.539-0.47,1.077-0.705,1.616c-5.717-1.818-11.882-1.963-17.37-4.638c0.706-1.632,1.412-3.264,2.117-4.897
			c10.415-15.958,17.46-33.492,23.933-51.289c0.449-1.236,0.693-2.594,0.764-3.91c0.237-4.383-0.902-7.945-5.879-8.932
			c-0.032-0.655-0.052-1.31-0.098-1.964c-0.149-2.097,2.932-5.302,0.322-5.859C174.608,62.635,175.103,66.934,174.21,69.069z"/>
		<path style="fill:#301639;" d="M198.208,150.08c-0.013,8.31-0.136,16.621,0.025,24.928c0.05,2.589-0.764,4.3-2.709,5.932
			c-25.062,21.034-50.062,42.141-75.136,63.161c-0.882,0.739-1.655,2.916-3.531,1.225c0.05-21.111,0.099-42.221,0.149-63.332
			c1.431-0.4,2.914-0.672,4.286-1.221c15.668-6.271,31.394-12.407,46.947-18.954c9.263-3.899,18.916-6.897,27.748-11.809
			c0.334-0.002,0.669-0.004,1.003-0.006C197.395,150.029,197.802,150.055,198.208,150.08z"/>
		<path style="fill:#461F51;" d="M117.006,181.994c-0.05,21.111-0.099,42.221-0.149,63.332
			c-13.12-11.18-26.271-22.325-39.352-33.552c-11.206-9.618-22.293-19.376-33.531-28.956c-2.046-1.744-3.124-3.438-3.046-6.261
			c0.21-7.632,0.027-15.274,0.112-22.911c0.015-1.394-0.939-3.638,1.979-3.533c1.413,2.347,3.978,2.861,6.227,3.801
			c12.982,5.43,25.904,11.019,39.021,16.104c9.548,3.702,18.607,8.688,28.664,11.066
			C116.937,181.389,116.962,181.692,117.006,181.994z"/>
		<path style="fill:#1D1123;" d="M117.006,181.994c-0.044-0.302-0.069-0.605-0.075-0.911c0.025-6.359,0.05-12.717,0.075-19.075
			c0,0-0.011-0.013-0.011-0.013c3.543,0.563,6.925-0.652,10.338-1.14c13.593-1.943,20.34-9.299,20.778-22.124
			c1.832,0.363,3.663,0.725,5.495,1.088c0.769,0.064,1.539,0.129,2.308,0.193c5.489,2.675,11.653,2.82,17.371,4.639
			c1.135,0.146,2.269,0.291,3.403,0.436c0.449,0.255,0.899,0.511,1.348,0.766c4.629,1.011,9.257,2.023,13.885,3.034
			c0.69,0.027,1.381,0.055,2.071,0.082c0.419,0.818,1.178,0.984,1.993,1.041c-8.832,4.912-18.485,7.91-27.748,11.809
			c-15.552,6.547-31.279,12.683-46.947,18.954C119.92,181.323,118.437,181.594,117.006,181.994z"/>
		<path style="fill:#2B1333;" d="M117.006,162.008c-0.025,6.358-0.049,12.716-0.075,19.075
			c-10.058-2.376-19.117-7.363-28.665-11.065c-13.117-5.086-26.039-10.675-39.021-16.104c-2.248-0.94-4.813-1.454-6.227-3.801
			c14.394-3.667,28.788-7.334,43.181-11.001c0.794,0.772,0.867,1.778,0.765,2.765c-0.678,6.596,2.646,10.823,7.947,14.137
			C101.707,160.262,109.256,161.437,117.006,162.008z"/>
		<path style="fill:#451D4F;" d="M117.006,162.008c-7.75-0.571-15.299-1.746-22.094-5.993c-5.301-3.314-8.625-7.541-7.947-14.137
			c0.101-0.987,0.028-1.993-0.765-2.765c0.072-10.651,0.143-21.301,0.215-31.949c2.048-0.238,2.785,1.557,3.92,2.632
			c4.941,4.676,9.898,9.34,14.667,14.187c3.357,3.412,7.332,4.973,12.005,5.075c-0.005,10.979-0.009,21.958-0.014,32.937
			L117.006,162.008z"/>
		<path style="fill:#F1BC9B;" d="M117.008,129.058c-4.673-0.103-8.649-1.663-12.005-5.075c-4.769-4.848-9.727-9.512-14.667-14.187
			c-1.136-1.075-1.873-2.87-3.92-2.632c-0.124-0.646-0.248-1.29-0.373-1.933c-0.802-5.573-1.565-11.136-0.896-16.803
			c0.415-3.514,1.376-5.203,5.608-4.137c7.265,1.831,14.463,0.82,21.269-2.464c1.656-0.622,3.313-1.244,4.969-1.867
			c0,0-0.104,0.231-0.104,0.231c0.048,4.257,0.097,8.514,0.145,12.771c1.283,2.232,0.863,4.704,0.999,7.097
			c-3.632,2.363-7.419-1.371-11.154,0.361c3.416,2.371,7.358,1.245,11.015,1.786c0.012,8.801,0.024,17.601,0.036,26.402
			C117.624,128.758,117.316,128.908,117.008,129.058z"/>
		<path style="fill:#301639;" d="M117.008,129.058c0.308-0.15,0.615-0.299,0.923-0.449c4.262,0.737,8.533,0.339,11.576-2.767
			c6.207-6.338,12.43-12.699,17.768-19.831l0.317,0.002l0.317-0.012c0.067,10.91,0.135,21.82,0.202,32.73
			c-0.438,12.825-7.185,20.182-20.778,22.124c-3.413,0.488-6.794,1.703-10.338,1.14
			C116.999,151.016,117.004,140.037,117.008,129.058z"/>
		<path style="fill:#6B407F;" d="M126.96,4.144c5.033,0.36,9.713,1.876,14.112,4.313c-0.025,14.513-0.051,29.025-0.076,43.537
			c-4.883,4.296-9.984,8.276-15.95,11.001c-0.015-4.12-0.039-8.24-0.043-12.36c-0.007-8.412-0.002-8.412-8.088-8.819
			c0.027-4.603,0.054-9.206,0.081-13.809c1.326-0.012,2.68-0.203,3.974-0.004c4.768,0.735,6.408-1.112,6.072-5.958
			C126.629,16.105,126.954,10.113,126.96,4.144z"/>
		<path style="fill:#855497;" d="M116.996,28.007c-0.027,4.603-0.054,9.206-0.081,13.81c-1.643,0.041-3.308,0.267-4.926,0.082
			c-3.739-0.427-5.364,0.755-5.077,4.841c0.334,4.743,0.014,9.533-0.022,14.302c-4.898-2.242-9.232-5.278-12.934-9.201
			c0.015-12.795,0.05-25.59,0.02-38.385c-0.004-1.578,0.588-3.382-1.087-4.599c4.977-2.879,10.297-4.635,16.071-4.904
			c-0.008,5.27-0.02,10.54-0.023,15.81C108.934,27.832,108.937,27.832,116.996,28.007z"/>
		<path style="fill:#4C3E86;" d="M125.045,62.995c5.966-2.725,11.067-6.704,15.95-11.001c2.412-1.942,5.041-3.672,7.182-5.877
			c2.8-2.884,6.63-4.937,7.894-9.155c2.576,0.334,2.996-2.889,5.631-3.239c0.601,13.346-0.457,26.262-6.799,38.297
			c-0.588,0.903-1.176,1.806-1.764,2.709c-0.875,0.753-1.768,1.486-2.621,2.262c-9.972,9.078-22.508,7.421-29.46-3.931
			c-0.988-1.614-2.032-3.029-4.119-3.145c-0.037-1.532-0.074-3.064-0.112-4.597C119.729,65.114,122.561,64.671,125.045,62.995z
			 M131.035,67.01c-0.781-0.096-1.466,0-1.762,0.878c-0.899,0.282-1.29,0.965-1.447,1.833c-1.508,0.264-2.832,0.776-3.471,2.807
			c3.563,1.336,7.128,2.256,10.892,2.748c10.806,1.412,17.208-3.215,19.291-13.664c0.903-4.53-1.049-5.391-4.671-4.592
			c-7.196,1.586-13.704,4.59-18.906,10.003L131.035,67.01z"/>
		<path style="fill:#6D6CAE;" d="M116.829,65.319c0.037,1.532,0.074,3.064,0.112,4.597c0,0,0.077,0.117,0.077,0.117
			c-2.563,0.697-4.018,2.566-5.106,4.824c-3.781,5.739-8.77,8.633-15.851,6.969c-5.98-1.405-10.572-5.076-15.102-8.894
			c-7.374-12.083-9.047-25.279-7.748-39.289c2.846,0.513,3.362,4.306,6.369,4.161c3.368,6.137,9.093,9.86,14.376,14.036
			c3.702,3.923,8.035,6.96,12.934,9.201C109.648,63.758,113.102,64.856,116.829,65.319z M104.997,67.076
			c-0.318-0.31-0.637-0.619-0.955-0.928c-5.194-4.578-11.16-7.73-17.942-9.051c-1.732-0.337-4.452-1.509-5.091,2.003
			c-1.24,6.811,4.384,14.975,11.241,15.842c5.491,0.695,10.906,0.036,16.142-1.851c0.885-0.319,2.189-0.335,1.991-1.666
			c-0.164-1.1-1.308-1.363-2.288-1.601c-0.355-1.085-1.151-1.687-2.201-2.013c-0.319-0.267-0.638-0.533-0.957-0.8L104.997,67.076z"
			/>
		<path style="fill:#461F51;" d="M156.072,36.962c-1.264,4.218-5.094,6.271-7.894,9.155c-2.141,2.205-4.77,3.935-7.182,5.877
			c0.025-14.512,0.051-29.025,0.076-43.537c1.182,0.589,2.428,1.078,3.536,1.783c7.955,5.059,14.238,10.999,11.608,21.766
			C155.832,33.576,156.104,35.306,156.072,36.962z"/>
		<path style="fill:#461F51;" d="M93.957,51.841c-5.283-4.176-11.009-7.899-14.376-14.036c-0.084-1.644,0.026-3.326-0.282-4.928
			c-2.285-11.89,3.886-18.943,13.59-24.02c1.676,1.217,1.084,3.022,1.088,4.599C94.006,26.251,93.972,39.046,93.957,51.841z"/>
		<path style="fill:#4C3E86;" d="M193.993,148.968c-0.691-0.027-1.381-0.054-2.071-0.082c2.927-15.845,7.273-31.324,12.025-46.699
			c1.179-3.815,2.563-7.535,4.928-10.798c2.637-3.638,5.889-5.284,10.271-3c-0.717,2.195-1.278,4.457-2.175,6.576
			C209.346,112.981,201.66,130.971,193.993,148.968z"/>
		<path style="fill:#4C3E86;" d="M173.989,143.035c0.039-13.909,3.639-27.258,6.484-40.717c1.37-6.479,2.424-13.091,5.489-19.081
			c2.802-5.477,5.658-6.746,11.198-5.23c0,0,0.337,0.273,0.337,0.273c-4.799,13.572-9.457,27.196-14.449,40.696
			C180.078,127.012,177.903,135.354,173.989,143.035z"/>
		<path style="fill:#4C3E86;" d="M198.208,150.08c-0.406-0.025-0.813-0.051-1.219-0.076c0.251-1.116,0.338-2.302,0.778-3.338
			c4.979-11.721,9.851-23.491,15.089-35.096c3.245-7.191,5.506-14.841,9.841-21.533c4.762,1.523,5.74,5.093,5.01,9.477
			c-0.243,1.461-0.647,2.957-1.298,4.28C218.401,120.068,209.399,135.742,198.208,150.08z"/>
		<path style="fill:#4C3E86;" d="M200.314,79.041c5.738,2.991,6.942,5.624,5.413,12.128c-1.031,4.384-3.024,8.406-5.05,12.381
			c-6.897,13.532-12.964,27.537-22.338,39.676c-0.399-1.161-0.187-2.248,0.221-3.387c2.847-7.952,5.679-15.91,8.456-23.887
			c4.296-12.338,8.545-24.693,12.814-37.041C200.002,78.911,200.164,78.955,200.314,79.041z"/>
		<path style="fill:#461F51;" d="M116.996,28.007c-8.059-0.174-8.062-0.174-8.058-8.243c0.002-5.27,0.015-10.54,0.023-15.81
			c6.014-1.319,12.013-1.152,18,0.19c-0.006,5.969-0.331,11.961,0.081,17.902c0.336,4.846-1.304,6.693-6.072,5.958
			C119.676,27.804,118.322,27.995,116.996,28.007z"/>
		<path style="fill:#4C3E86;" d="M154.354,135.983c-0.382-13.816,1.966-27.362,4.122-40.918c0.934-5.875,1.598-11.829,3.56-17.491
			c2.416-6.972,4.75-8.54,11.999-8.335c-1.354,4.608-2.703,9.219-4.063,13.826C164.768,100.704,159.56,118.344,154.354,135.983z"/>
		<path style="fill:#4C3E86;" d="M176.847,70.983c4.979,0.988,6.117,4.549,5.88,8.933c-0.071,1.316-0.315,2.675-0.764,3.91
			c-6.473,17.797-13.518,35.33-23.933,51.288c-0.37-2.414,0.724-4.537,1.358-6.745c5.508-19.187,11.03-38.369,16.548-57.553
			C176.255,70.797,176.558,70.852,176.847,70.983z"/>
		<path style="fill:#331B41;" d="M116.94,69.916c2.087,0.116,3.131,1.532,4.119,3.145c6.952,11.353,19.488,13.01,29.46,3.931
			c0.853-0.777,1.746-1.509,2.619-2.259c0.141,1.473-0.445,3.113,1.003,4.276c-0.1,5.089-0.039,10.188-0.349,15.265
			c-0.267,4.369-1.779,8.273-5.714,10.795c-0.001,0-0.041-0.044-0.041-0.044c0.416-6.061,1.849-12.085,0.301-18.211
			c-0.512-2.028-0.907-3.429-3.484-2.684c-6.563,1.898-13.097,1.114-19.595-0.474c-2.79-1.155-5.58-2.31-8.37-3.465
			c0,0,0.104-0.231,0.104-0.231c0.008-3.309,0.016-6.618,0.024-9.927L116.94,69.916z"/>
		<path style="fill:#5C2B67;" d="M80.959,72.933c4.53,3.818,9.122,7.489,15.102,8.894c7.081,1.663,12.069-1.231,15.851-6.968
			c0.038,2.324,0.075,4.646,0.112,6.969c-6.806,3.284-14.004,4.295-21.269,2.464c-4.232-1.067-5.194,0.623-5.608,4.137
			c-0.669,5.667,0.094,11.229,0.896,16.803c-3.088-2.198-4.365-5.443-4.523-8.986C81.174,88.481,81.127,80.704,80.959,72.933z"/>
		<path style="fill:#331B41;" d="M222.696,90.037c-4.335,6.692-6.596,14.342-9.841,21.533c-5.237,11.605-10.11,23.375-15.089,35.096
			c-0.44,1.036-0.527,2.222-0.778,3.338c-0.334,0.002-0.668,0.004-1.003,0.006c-0.816-0.058-1.575-0.223-1.993-1.041
			c7.667-17.998,15.353-35.987,22.977-54.003c0.897-2.119,1.458-4.381,2.175-6.576c1.88-1.321,2.059-3.588,3.018-5.421
			c0.496-0.949,1.221-1.663,2.273-1.039c0.848,0.503,0.437,1.408,0.158,2.178C223.887,86.059,222.453,87.781,222.696,90.037z"/>
		<path style="fill:#331B41;" d="M199.829,78.911c-4.269,12.348-8.518,24.703-12.814,37.041c-2.777,7.977-5.609,15.935-8.456,23.887
			c-0.408,1.139-0.62,2.226-0.221,3.387c0,0-0.025,0-0.025,0c-1.198,0.048-1.287,1.062-1.625,1.86
			c-1.134-0.145-2.268-0.29-3.403-0.436c0.234-0.539,0.469-1.078,0.704-1.616c3.913-7.68,6.089-16.022,9.06-24.058
			c4.991-13.501,9.65-27.124,14.445-40.697C198.402,78.003,199.291,77.809,199.829,78.911z"/>
		<path style="fill:#331B41;" d="M175.937,70.816c-5.518,19.184-11.041,38.366-16.548,57.553c-0.634,2.208-1.728,4.332-1.358,6.745
			c-0.706,1.633-1.412,3.265-2.117,4.897c-0.769-0.064-1.539-0.129-2.308-0.193c0.25-1.278,0.499-2.556,0.749-3.835
			c5.206-17.64,10.414-35.279,15.618-52.919c1.359-4.607,2.709-9.218,4.063-13.826c0,0.001,0.175-0.169,0.175-0.169
			C175.326,69.117,175.908,69.693,175.937,70.816z"/>
		<path style="fill:#5C2B67;" d="M199.829,78.911c-0.538-1.102-1.427-0.908-2.334-0.631c0.003,0.001-0.334-0.272-0.334-0.272
			c0.835-1.925,1.685-3.844,2.499-5.778c0.333-0.792,0.704-1.553,1.728-1.249c1.045,0.31,0.956,1.237,0.745,2.011
			c-0.555,2.031-1.206,4.036-1.819,6.051C200.164,78.955,200.002,78.911,199.829,78.911z"/>
		<path style="fill:#451D4F;" d="M175.937,70.816c-0.029-1.123-0.612-1.699-1.728-1.747c0.894-2.136,0.399-6.434,2.863-5.908
			c2.61,0.557-0.471,3.762-0.322,5.859c0.046,0.654,0.066,1.309,0.097,1.963C176.558,70.852,176.255,70.797,175.937,70.816z"/>
		<path style="fill:#6B407F;" d="M154.141,79.009c-1.448-1.162-0.862-2.803-1.003-4.276c0.59-0.906,1.178-1.81,1.766-2.713
			C155.002,74.389,155.255,76.773,154.141,79.009z"/>
		<path style="fill:#4C3E86;" d="M176.688,145.086c0.337-0.798,0.427-1.813,1.625-1.86c-0.091,0.876-0.182,1.751-0.275,2.627
			C177.587,145.597,177.138,145.342,176.688,145.086z"/>
		<path style="fill:#331B41;" d="M147.908,106l-0.317,0.012c0,0-0.317-0.002-0.317-0.002c0.254-0.329,0.508-0.657,0.762-0.986
			c0,0,0.04,0.043,0.041,0.044C148.203,105.412,148.146,105.723,147.908,106z"/>
		<path style="fill:#F1A278;" d="M148.037,105.025c-0.254,0.329-0.508,0.657-0.762,0.986c-5.338,7.132-11.561,13.494-17.768,19.831
			c-3.042,3.107-7.314,3.504-11.576,2.767c-0.012-8.801-0.024-17.601-0.036-26.404c3.321-0.627,7.019,0.647,10.495-2.145
			c-3.821,0-7.089,0-10.357,0c-0.135-2.394,0.284-4.865-0.999-7.097c4.724,0.598,7.401-1.083,7-6.245
			c-0.093-1.2,0.14-2.312,1.225-3.062c6.498,1.588,13.031,2.371,19.595,0.474c2.578-0.745,2.972,0.655,3.484,2.684
			C149.885,92.94,148.452,98.963,148.037,105.025z"/>
		<path style="fill:#D87356;" d="M125.259,83.657c-1.085,0.749-1.318,1.862-1.225,3.062c0.401,5.162-2.276,6.843-7,6.245
			c-0.048-4.257-0.097-8.514-0.145-12.771C119.679,81.347,122.469,82.502,125.259,83.657z"/>
		<path style="fill:#461F51;" d="M112.023,81.827c-0.037-2.323-0.074-4.645-0.112-6.969c1.088-2.259,2.543-4.128,5.106-4.825
			c-0.008,3.309-0.016,6.618-0.024,9.927C115.336,80.582,113.68,81.205,112.023,81.827z"/>
		<path style="fill:#D87356;" d="M118.033,100.06c3.268,0,6.536,0,10.357,0c-3.475,2.792-7.174,1.519-10.495,2.145
			c-3.658-0.54-7.6,0.587-11.016-1.784C110.614,98.689,114.401,102.423,118.033,100.06z"/>
		<path style="fill:#461F51;" d="M116.829,65.319c-3.727-0.464-7.18-1.561-9.938-4.277c0.035-4.769,0.355-9.558,0.021-14.302
			c-0.288-4.087,1.338-5.268,5.077-4.841c1.618,0.185,3.283-0.041,4.926-0.082c8.085,0.406,8.081,0.406,8.087,8.818
			c0.003,4.12,0.027,8.24,0.043,12.36C122.561,64.671,119.729,65.114,116.829,65.319z"/>
		<path style="fill:#F1A278;" d="M130.962,67.022c5.202-5.412,11.709-8.416,18.906-10.002c3.622-0.798,5.574,0.062,4.671,4.592
			c-2.083,10.449-8.485,15.075-19.291,13.664c-3.765-0.492-7.329-1.411-10.892-2.748c0.639-2.031,1.963-2.543,3.474-2.806
			c0.218,0.134,0.307,0.325,0.269,0.575c3.339,3.007,7.04,1.698,10.698,0.896l0.26-0.281l0.374,0.08
			c2.976-0.404,6.756,0.643,7.347-4.069c1.053-1.602,2.097-3.143-1.294-2.557C140.633,65.205,135.983,67.132,130.962,67.022z"/>
		<path style="fill:#4F3424;" d="M139.43,70.992l-0.374-0.08c0,0-0.26,0.281-0.259,0.281c-3.443-1.769-6.972-2.511-10.698-0.896
			c0.038-0.25-0.051-0.442-0.269-0.575c0.153-0.869,0.545-1.552,1.443-1.834c0.697-0.072,1.541,0.149,1.763-0.878
			c0,0-0.073,0.013-0.073,0.013c5.021,0.109,9.672-1.818,14.521-2.656c3.392-0.586,2.347,0.955,1.297,2.557
			C143.589,66.939,140.255,66.698,139.43,70.992z"/>
		<path style="fill:#D87356;" d="M131.035,67.01c-0.222,1.027-1.066,0.806-1.763,0.878C129.568,67.01,130.254,66.914,131.035,67.01z
			"/>
		<path style="fill:#F1BC9B;" d="M108.094,69.824c0.979,0.238,2.124,0.501,2.288,1.601c0.198,1.331-1.106,1.347-1.991,1.666
			c-5.236,1.887-10.651,2.546-16.142,1.851c-6.856-0.867-12.48-9.031-11.241-15.842c0.639-3.512,3.359-2.341,5.091-2.003
			c6.781,1.321,12.748,4.473,17.941,9.05c-0.009,0.324,0.006,0.648,0.046,0.97c-4.626-0.925-9.241-1.914-13.882-2.754
			c-3.583-0.649-2.115,1.075-1.089,2.519c0.563,4.604,4.2,3.792,7.207,4.09c0.596,0.098,1.191,0.196,1.787,0.293
			c3.092,0.585,6.312,2.239,8.939-1.069C107.397,70.072,107.746,69.948,108.094,69.824z"/>
		<path style="fill:#4F3424;" d="M108.094,69.824c-0.349,0.124-0.697,0.248-1.047,0.372c-3.097-0.618-6.325-2.342-8.938,1.069
			c-0.596-0.098-1.191-0.196-1.787-0.294c-0.754-4.268-4.074-4.014-7.207-4.09c-1.027-1.445-2.494-3.168,1.089-2.519
			c4.641,0.841,9.256,1.829,13.882,2.754c-0.001,0,0.464,0.18,0.464,0.18l0.447-0.221c0,0-0.06-0.065-0.06-0.065
			c-0.078,0.742,0.455,0.752,0.957,0.8C106.943,68.136,107.74,68.738,108.094,69.824z"/>
		<path style="fill:#F1A278;" d="M105.894,67.811c-0.502-0.048-1.035-0.058-0.957-0.8C105.256,67.278,105.575,67.544,105.894,67.811
			z"/>
		<path style="fill:#F1A278;" d="M104.997,67.076l-0.447,0.221c0,0-0.465-0.181-0.464-0.18c-0.039-0.322-0.055-0.646-0.046-0.97
			C104.36,66.457,104.679,66.767,104.997,67.076z"/>
		<path style="fill:#FDFDFD;" d="M128.099,70.298c3.727-1.615,7.256-0.873,10.698,0.896
			C135.138,71.996,131.438,73.305,128.099,70.298z"/>
		<path style="fill:#FDFDFD;" d="M139.43,70.992c0.824-4.294,4.159-4.054,7.349-4.069C146.186,71.635,142.406,70.588,139.43,70.992z
			"/>
		<path style="fill:#FDFDFD;" d="M89.116,66.882c3.133,0.076,6.452-0.178,7.207,4.09C93.316,70.674,89.679,71.486,89.116,66.882z"/>
		<path style="fill:#FDFDFD;" d="M98.11,71.265c2.613-3.411,5.841-1.687,8.938-1.069C104.422,73.504,101.202,71.85,98.11,71.265z"/>
	</g>
</g>
</svg>
