<?xml version="1.0" encoding="utf-8"?>
<!-- Generator: Adobe Illustrator 23.0.3, SVG Export Plug-In . SVG Version: 6.00 Build 0)  -->
<svg version="1.1" id="Layer_1" xmlns="http://www.w3.org/2000/svg" xmlns:xlink="http://www.w3.org/1999/xlink" x="0px" y="0px"
	 viewBox="0 0 250 250" style="enable-background:new 0 0 250 250;" xml:space="preserve">
<style type="text/css">
	.st0{fill:none;}
	.st1{fill:#23CC43;}
	.st2{fill:#020101;}
	.st3{fill:#1FE883;}
	.st4{fill:#EAE2A9;}
	.st5{fill:#CC965C;}
	.st6{fill:#B27746;}
	.st7{fill:#131C89;}
	.st8{fill:#825034;}
	.st9{fill:#AA7F61;}
	.st10{fill:#131989;}
	.st11{fill:#E53333;}
	.st12{fill:#2A2424;}
	.st13{fill:#6D6D6D;}
	.st14{fill:#686868;}
	.st15{fill:#C8553B;}
	.st16{fill:#EC7955;}
</style>
<g>
	<g>
		<path class="st0" d="M125,251c-41.3,0-82.7,0-124,0C1,167.7,1,84.3,1,1c82,0,164,0,246-0.1c3.4,0,4.1,0.7,4.1,4.1
			c-0.1,80.7-0.1,161.3,0,242c0,3.4-0.7,4.1-4.1,4.1c-39.7-0.2-79.3-0.1-119-0.1c8-9.1,17.4-16.7,26.1-25.1
			c14-13.4,28.1-26.7,42.2-40c1.4-1.2,2.6-2.5,4.1-3.5c7.6-4.7,9.9-11.6,8.3-20.1c0-4.3-0.3-8.7,0.2-12.9c0.5-3.8-1.4-4.7-4.5-5.4
			c-14.2-3.2-28.4-6.6-42.7-9.7c-2.9-0.6-3.8-1.8-3.7-4.6c0.1-1.3,1.4-4.1-2.1-3.5c-0.1-4.7-0.1-9.4-0.2-14.1
			c5.5-6.7,7.7-14.5,7.3-23.1c7-1.3,12.5-8.4,13-16.8c0.2-3.2,0.4-6.5-2.7-8.5c-3.1-2-5.7,0-8.3,1.6c-1.9-1-0.8-2.8-1.3-4.2
			c0-0.4,0.1-0.7,0.1-1.1c0.4-10.3,0.3-20.7,1.3-30.9c0.7-7-1.6-10.8-8-13.7C144.6,9.9,132.3,4.1,117.9,7
			c-12.3,2.4-24,6.7-35.9,10.4c-2,0.6-2,1.5-1.1,3.2c1.2,2.4,1,3,0.2,3c-3.5-0.2-1.8,2-1.6,3.3c1.4,10.9,2.9,21.8,4.2,32.7
			c0.2,1.8,1.4,4-1,5.4c-4.8-2.9-7.9-2.5-9.6,1.1c-4,8.6,4.4,22.6,13.8,22.9c-0.7,9.1-0.3,17.9,8.2,23.9c0.6,0.4,0.7,1.4,1.1,2.2
			c0,4.1-0.1,8.2-0.1,12.3c-1.1-0.3-2.6-0.8-2.3,1.2c0.8,4.2-2.1,4.5-4.9,5.2c-11,2.7-21.9,5.5-32.9,8.2
			c-13.4,3.3-13.5,3.3-12.8,17.2c-0.1,5-0.1,10-0.2,15c0,1.6,0.4,2.8,1.6,3.9c3.6,3,7,6.1,10.5,9.1c5.7,5.3,11.4,10.6,17.2,15.8
			c17.5,15.7,35.1,31.4,52.6,47.1C125.1,250.3,125,250.7,125,251z"/>
		<path class="st1" d="M125,251c0-0.3,0.1-0.7,0.1-1c1.4-1.4,0.8-3.1,0.8-4.7c0.1-7.4,0-14.9,0-22.3c2.8-0.1,5.6-0.1,8.4-0.2
			c1,0,2.1-0.1,2.3-1.4c0.2-1.5-1-1.9-2.2-2c-2.8-0.1-5.6-0.1-8.4-0.1c0-0.9,0-1.8,0-2.7c2.8,0,5.6,0,8.4-0.1c1.2,0,2.4-0.4,2.2-2
			c-0.1-1.2-1.2-1.3-2.3-1.4c-2.8-0.1-5.6-0.1-8.4-0.2c0-0.9,0-1.9,0-2.8c3-0.1,5.9-0.1,8.9-0.2c0.9,0,1.7-0.4,1.7-1.4
			c0-1-0.8-1.4-1.7-1.4c-3-0.1-5.9-0.1-8.9-0.2c0-3.2,0-6.4,0-9.7c1.4-1.1,2.9-2.2,4.3-3.4c12.5-11.6,25.2-23.2,37.5-35.1
			c3.2-3.1,6.2-4.2,10.6-2.8c5.9,1.8,11.9,2.9,17.9,4.3c0,8.5,0.1,17.1,0.1,25.6c-14.1,13.3-28.2,26.6-42.2,40
			c-8.7,8.3-18.1,16-26.1,25.1C127,251,126,251,125,251z M164.7,192.7c0.7,1.2,1.7,1.9,3.1,2.1c3.2,1.7,6.4,1.6,9.6,0
			c1.2-0.3,2.2-0.8,2.8-2c4.3-4.8,4.8-8.3,1.9-13.6c-4.7-7-11.6-7.8-17.4-2.1C159.9,182.2,159.9,187,164.7,192.7z"/>
		<path class="st2" d="M196.2,160.4c-6-1.4-12-2.5-17.9-4.3c-4.4-1.3-7.3-0.3-10.6,2.8c-12.3,11.9-25,23.4-37.5,35.1
			c-1.3,1.2-2.8,2.3-4.3,3.4C111,183.2,96.1,169.1,81.1,155c-1.8-1.7-3.3-3.8-6.4-3c-6.4,1.7-12.8,3.3-19.2,5c-4.2,0-8,2.4-12.3,2.1
			c-0.7-13.9-0.7-13.9,12.8-17.2c11-2.7,21.9-5.5,32.9-8.2c2.8-0.7,5.7-1,4.9-5.2c-0.4-2,1.1-1.4,2.3-1.2c1.9,1,3.7,2.2,5.7,3
			c10.8,4.5,20.8,9.8,22,24.2c2.8-3.2,3.4-5.9,4.4-8.5c1.7-6.2,6-9.7,11.9-12c5.5-2.2,10.6-5.3,15.9-7.9c3.6-0.6,2.2,2.2,2.1,3.5
			c-0.2,2.8,0.8,4,3.7,4.6c14.3,3.1,28.4,6.6,42.7,9.7c3.1,0.7,5,1.6,4.5,5.4c-0.5,4.3-0.2,8.6-0.2,12.9
			C204.4,162.9,200.4,160.6,196.2,160.4z"/>
		<path class="st3" d="M55.6,157c6.4-1.7,12.8-3.3,19.2-5c3-0.8,4.6,1.3,6.4,3c14.9,14.1,29.9,28.3,44.8,42.4c0,3.2,0,6.4,0,9.7
			c-3,0.1-5.9,0.1-8.9,0.2c-0.9,0-1.7,0.5-1.7,1.4c0,1,0.8,1.4,1.7,1.4c3,0.1,5.9,0.1,8.9,0.2c0,0.9,0,1.9,0,2.8
			c-2.8,0.1-5.6,0.1-8.3,0.2c-1,0-2.1,0.1-2.3,1.4c-0.2,1.5,1,1.9,2.2,2c2.8,0.1,5.6,0.1,8.4,0.1c0,0.9,0,1.8,0,2.7
			c-2.8,0-5.6,0-8.4,0.1c-1.2,0-2.4,0.4-2.2,2c0.1,1.2,1.2,1.3,2.3,1.4c2.8,0.1,5.6,0.1,8.3,0.2c0,7.4,0,14.9,0,22.3
			c0,1.6,0.5,3.3-0.8,4.7c-17.5-15.7-35.1-31.4-52.6-47.1c-5.8-5.2-11.5-10.5-17.2-15.8C55.4,177.1,55.5,167.1,55.6,157z"/>
		<path class="st4" d="M82.8,64.9c2.4-1.4,1.2-3.6,1-5.4c-1.3-10.9-2.9-21.8-4.2-32.7c-0.2-1.3-1.9-3.5,1.6-3.3c0.8,0,1-0.6-0.2-3
			c-0.9-1.7-0.8-2.6,1.1-3.2C94,13.6,105.7,9.4,117.9,7c14.4-2.9,26.6,2.9,39.2,8.4c6.4,2.8,8.7,6.6,8,13.7
			c-1,10.2-0.9,20.6-1.3,30.9c-0.5,0-0.9,0-1.4,0c-0.1-2.1-0.1-4.3-0.2-6.4c-0.1-2.3,0.8-5.2-1.6-6.4c-5.6-2.6-4.1-6.9-3.3-11.2
			c0.3-1.5,1.4-3,0.1-4.7c-10.8,3.8-22.1,3.9-33.3,4.6c-8.6-0.6-17.2-1.2-25.8-1.8c-5.9-0.4-5.9-0.5-5.1,5.6c0.3,2.5,2,5.6-1.3,7.1
			c-7.1,3.4-5.1,9.2-4.7,15.6c3.5-2.5,6.4-4.6,9.5-6.8c6.8,9.2,15.3,16,27.2,17.1c11.5-1.1,21.6-4.9,28.1-15.1
			c1.4-2.1,2.2-1.5,3.7-0.3c2.1,1.7,3.4,4.5,6.6,4.9c0.5-0.3,0.9-0.7,1.4-1c0.5,1.4-0.6,3.3,1.3,4.2c1.2,1.5,2.6,2.8,0.6,4.9
			c-1.5,1.6-2.5,3.8-3.7,5.7c-2.1,2.9-4.4,5.7-6.3,8.8c-1.6,2.5-3,3.2-5.9,1.8c-6-2.7-12.2-4.9-18.7-6.1c-2.3-0.5-4.6-1.7-7.1-0.6
			c-1.3,0.1-2.6,0.3-4,0.4c-6.8,0.4-13.1,2.5-18.8,6c-2.2,1.3-3.3,1.3-4.7-0.9c-2.2-3.5-4.9-6.8-7.2-10.2c-0.8-1.2-1.5-2.2-3.1-1.1
			C85,71,83.9,67.9,82.8,64.9z M94.3,69.1c4.7,9.2,13.5,11.5,20.4,5.4C108.4,71.3,101.8,69.4,94.3,69.1z M135.5,74.9
			c8.1,4.7,15.8,3.4,19.8-3c0.4-0.7,1.1-1.3,0.7-2.2c-0.5-0.9-1.5-0.6-2.2-0.6C147.5,69.9,141.5,71.4,135.5,74.9z"/>
		<path class="st5" d="M131,80.3c6.5,1.2,12.7,3.4,18.7,6.1c2.9,1.3,4.4,0.6,5.9-1.8c1.9-3,4.2-5.8,6.3-8.8c2.3,4.2,0.4,8.8,1,13.1
			c0.5,8.6-1.8,16.4-7.3,23.1c-6.1,3.1-9.7,9-13.7,14c-5,6.1-10.5,8.8-18.1,7.8c0-9.1,0-18.3,0-27.4c3.1-0.2,6.1,1.1,9.3,0.2
			c-2.9-2.2-6.2-1.5-9.3-1.8c0-1,0.1-1.9,0.1-2.9c6.3,0,8-1.7,8-7.8C132,89.5,130.4,85,131,80.3z M136.3,107.6c0-0.1,0-0.3-0.1-0.3
			c-0.1-0.1-0.2-0.1-0.4-0.1c0,0.2,0.1,0.3,0.1,0.5C136,107.7,136.2,107.7,136.3,107.6z"/>
		<path class="st6" d="M124.1,101.9c0,1-0.1,1.9-0.1,2.9c-0.6,0.1-1.3,0.1-1.9,0.2c-2.8-0.4-5.4,0.5-9,1.7c3.7,0.4,6.4,0.8,9-0.3
			c0.7,0,1.3,0.1,2,0.1c0,9.1,0,18.3,0,27.4c-2.1,0.2-4.2,0.3-6.2-0.7c-3.5-1.2-5.8-4-8.5-6.4c-4.4-3.8-7.4-9.1-13-11.7
			c-0.4-0.7-0.5-1.7-1.1-2.2c-8.5-6.1-8.8-14.8-8.2-23.9c-0.1-5,0.1-10-0.9-15c1.6-1.1,2.3-0.1,3.1,1.1c2.4,3.4,5,6.7,7.2,10.2
			c1.4,2.2,2.6,2.2,4.7,0.9c5.8-3.5,12-5.6,18.8-6c-0.7,4-1.1,8.1-2,12.1C116.6,97.7,119.5,100.3,124.1,101.9L124.1,101.9z"/>
		<path class="st7" d="M55.6,157c-0.1,10-0.2,20.1-0.3,30.1c-3.5-3.1-7-6.1-10.5-9.1c-1.3-1.1-1.7-2.3-1.6-3.9c0.1-5,0.1-10,0.2-15
			C47.6,159.4,51.4,157,55.6,157z"/>
		<path class="st8" d="M117.7,133.2c2,1,4.1,0.9,6.2,0.7c7.6,1,13.1-1.8,18.1-7.8c4.1-5,7.7-10.8,13.7-14c0.1,4.7,0.1,9.4,0.2,14.1
			c-5.3,2.7-10.4,5.8-15.9,7.9c-5.9,2.3-10.2,5.7-11.9,12c-0.2-2-1.8-3-3-4.4C122.7,138.8,119.2,136.9,117.7,133.2z"/>
		<path class="st9" d="M86.1,74c1,5,0.8,10,0.9,15c-9.4-0.3-17.8-14.3-13.8-22.9c1.7-3.6,4.7-4,9.6-1.1C83.9,67.9,85,71,86.1,74z"/>
		<path class="st5" d="M117.7,133.2c1.5,3.7,5,5.6,7.5,8.5c1.2,1.4,2.8,2.4,3,4.4c-1,2.6-1.6,5.3-4.4,8.5
			c-1.2-14.4-11.1-19.7-22-24.2c-2-0.8-3.8-2-5.7-3c0-4.1,0.1-8.2,0.1-12.3c5.5,2.6,8.6,7.9,13,11.7
			C111.9,129.2,114.2,132,117.7,133.2z"/>
		<path class="st10" d="M196.2,160.4c4.2,0.3,8.2,2.5,12.6,2c1.6,8.5-0.7,15.4-8.3,20.1c-1.5,0.9-2.8,2.3-4.1,3.5
			C196.2,177.4,196.2,168.9,196.2,160.4z"/>
		<path class="st9" d="M163,89c-0.6-4.4,1.2-8.9-1-13.1c1.2-1.9,2.1-4.1,3.7-5.7c2-2.1,0.6-3.4-0.6-4.9c2.6-1.5,5.2-3.5,8.3-1.6
			c3.1,2,2.9,5.4,2.7,8.6C175.5,80.7,170,87.7,163,89z"/>
		<path class="st4" d="M163.7,61c-0.5,0.3-0.9,0.7-1.4,1c0-0.7,0.1-1.4,0.1-2.1c0.5,0,0.9,0,1.4,0C163.8,60.3,163.7,60.7,163.7,61z"
			/>
		<path class="st11" d="M164.7,177.1c5.8-5.7,12.7-4.9,17.4,2.1c0,1.7,0,3.8-1.2,4.7c-4,2.9-1.8,5.9-0.6,8.9c-0.6,1.2-1.6,1.8-2.8,2
			c-0.7-1.7-1.5-3.3-2-5c-0.9-3.2-3.3-2.7-5.6-2.6c-3.1,0.2-1.6,2.6-1.9,4.2c-0.2,1.1-0.1,2.3-0.1,3.5c-1.4-0.2-2.4-1-3.1-2.1
			C164.7,187.5,164.7,182.3,164.7,177.1z M171.8,176.6c-1.8-0.1-4.4-0.5-4,3.6c0.3,2.5-0.4,5.1,3.7,4.7c3.3-0.4,6.9-0.2,6.9-4.6
			C178.5,176.6,175.3,176.6,171.8,176.6z"/>
		<path class="st11" d="M126,223c-2.8-0.1-5.6-0.1-8.3-0.2c-1,0-2.1-0.1-2.3-1.4c-0.2-1.5,1-1.9,2.2-2c2.8-0.1,5.6-0.1,8.4-0.1
			c2.8,0,5.6,0.1,8.4,0.1c1.2,0,2.4,0.4,2.2,2c-0.1,1.2-1.2,1.3-2.3,1.4C131.6,222.9,128.8,222.9,126,223z"/>
		<path class="st11" d="M126,216.7c-2.8,0-5.6,0-8.4-0.1c-1.2,0-2.4-0.4-2.2-2c0.1-1.2,1.2-1.3,2.3-1.4c2.8-0.1,5.6-0.1,8.3-0.2
			c2.8,0.1,5.6,0.1,8.4,0.2c1,0,2.1,0.1,2.3,1.4c0.2,1.5-1,1.9-2.2,2C131.6,216.6,128.8,216.6,126,216.7z"/>
		<path class="st12" d="M167.8,194.9c0-1.2-0.1-2.3,0.1-3.5c0.3-1.5-1.1-4,1.9-4.2c2.3-0.1,4.7-0.6,5.6,2.6c0.5,1.7,1.3,3.4,2,5
			C174.2,196.5,171,196.6,167.8,194.9z"/>
		<path class="st11" d="M126,210.2c-3-0.1-5.9-0.1-8.9-0.2c-0.9,0-1.7-0.4-1.7-1.4c0-1,0.8-1.4,1.7-1.4c3-0.1,5.9-0.1,8.9-0.2
			c3,0.1,5.9,0.1,8.9,0.2c0.9,0,1.7,0.5,1.7,1.4c0,1-0.8,1.4-1.7,1.4C131.9,210.1,129,210.2,126,210.2z"/>
		<path class="st12" d="M164.7,177.1c0,5.2,0,10.4,0,15.6C159.9,187,159.9,182.2,164.7,177.1z"/>
		<path class="st12" d="M180.2,192.8c-1.2-3.1-3.4-6.1,0.6-8.9c1.3-0.9,1.2-3,1.2-4.7C185,184.5,184.5,188.1,180.2,192.8z"/>
		<path class="st5" d="M162.4,60c0,0.7-0.1,1.4-0.1,2.1c-3.1-0.3-4.4-3.2-6.6-4.9c-1.5-1.2-2.4-1.8-3.7,0.3
			c-6.5,10.3-16.6,14.1-28.1,15.1c0-12.3,0.1-24.5,0.1-36.8c11.2-0.6,22.5-0.8,33.3-4.6c1.3,1.7,0.2,3.2-0.1,4.7
			c-0.8,4.3-2.3,8.6,3.3,11.2c2.4,1.1,1.5,4.1,1.6,6.4C162.3,55.7,162.3,57.8,162.4,60z"/>
		<path class="st6" d="M124,35.8c0,12.3-0.1,24.5-0.1,36.8c-11.9-1.2-20.4-7.9-27.2-17.1c-3.1,2.2-6,4.3-9.5,6.8
			c-0.4-6.4-2.5-12.2,4.7-15.6c3.3-1.6,1.6-4.6,1.3-7.1c-0.7-6.1-0.7-6,5.1-5.6C106.8,34.6,115.4,35.2,124,35.8z"/>
		<path class="st9" d="M131,80.3c-0.6,4.7,1,9.2,1,13.8c0,6.1-1.7,7.8-8,7.8c0,0,0,0,0,0c0-7.4-0.1-14.8-0.1-22.2
			C126.4,78.7,128.7,79.9,131,80.3z"/>
		<path class="st13" d="M94.3,69.1c7.5,0.2,14.1,2.2,20.4,5.4C107.8,80.6,98.9,78.4,94.3,69.1z"/>
		<path class="st14" d="M135.5,74.9c6.1-3.5,12-5,18.3-5.8c0.7-0.1,1.7-0.3,2.2,0.6c0.5,0.9-0.2,1.5-0.7,2.2
			C151.3,78.3,143.6,79.7,135.5,74.9z"/>
		<path class="st5" d="M123.9,79.7c0,7.4,0.1,14.8,0.1,22.2c-4.6-1.6-7.4-4.2-6.1-9.7c0.9-4,1.4-8,2-12.1
			C121.3,80,122.6,79.9,123.9,79.7z"/>
		<path class="st15" d="M122,105c0.6-0.1,1.3-0.1,1.9-0.2c3.1,0.4,6.4-0.4,9.3,1.8c-3.3,0.9-6.3-0.3-9.3-0.2c-0.7,0-1.3-0.1-2-0.1
			C122,105.9,122,105.5,122,105z"/>
		<path class="st16" d="M136.3,107.6c-0.1,0-0.2,0.1-0.4,0.1c0-0.2-0.1-0.3-0.1-0.5c0.1,0,0.3,0,0.4,0.1
			C136.3,107.4,136.2,107.5,136.3,107.6z"/>
		<path class="st16" d="M122,105c0,0.4,0,0.9-0.1,1.3c-2.6,1.1-5.3,0.7-9,0.3C116.6,105.5,119.2,104.7,122,105z"/>
		<path class="st12" d="M171.8,176.6c3.5,0,6.7,0,6.6,3.7c-0.1,4.3-3.7,4.2-6.9,4.6c-4.1,0.4-3.4-2.2-3.7-4.7
			C167.4,176.1,170,176.5,171.8,176.6z"/>
	</g>
</g>
</svg>
