<?xml version="1.0" encoding="utf-8"?>
<!-- Generator: Adobe Illustrator 23.0.3, SVG Export Plug-In . SVG Version: 6.00 Build 0)  -->
<svg version="1.1" id="Layer_1" xmlns="http://www.w3.org/2000/svg" xmlns:xlink="http://www.w3.org/1999/xlink" x="0px" y="0px"
	 viewBox="0 0 250 250" style="enable-background:new 0 0 250 250;" xml:space="preserve">
<style type="text/css">
	.st0{fill:none;}
	.st1{fill:#969595;}
	.st2{fill:#020202;}
	.st3{fill:#040404;}
	.st4{fill:#B2B1AF;}
	.st5{fill:#512E28;}
	.st6{fill:#825034;}
	.st7{fill:#8E8E8E;}
	.st8{fill:#B1B1B1;}
	.st9{fill:#656564;}
	.st10{fill:#352C2A;}
	.st11{fill:#EDEDED;}
	.st12{fill:#C55235;}
	.st13{fill:#D96C49;}
</style>
<g>
	<g>
		<path class="st0" d="M125,251c-41.3,0-82.7,0-124,0C1,167.7,1,84.3,1,1c82,0,164,0,246-0.1c3.4,0,4.1,0.7,4.1,4.1
			c-0.1,80.7-0.1,161.3,0,242c0,3.4-0.7,4.1-4.1,4.1c-39.7-0.2-79.3-0.1-119-0.1c0.4-0.6,0.6-1.2,1.1-1.6
			c19.1-17.9,38.2-35.7,57.2-53.6c4.2-3.9,9.1-7.2,11.9-12.4c2.1-0.8,1.7-2.6,1.7-4.2c0-6.1-0.1-12.3,0.1-18.4
			c0.1-3-0.6-4.3-3.8-4.9c-12.5-2.7-24.8-5.9-37.3-8.6c-3-0.7-4.1-1.7-4-4.8c0.2-10.5,0-20.9,0-31.4c0.2-0.3,0.3-0.6,0.2-0.9
			c3.3-2.9,4.7-6.7,4.9-11c1.1-31,2.2-62,3.3-93c0.9-0.5,0.9-1.2,0.7-2c0-0.1-0.6-0.3-0.7-0.2c-1,0.5-1.2,1.4-0.9,2.4
			c-1.9,8.1-3.9,16.1-6,25.1c-7.9-10.6-17.8-15.4-29.5-14.9c-11.4,0.6-22.3,3.1-29.8,14.7c-2.2-9-4-16.5-5.8-24
			c0.4-1.6-0.1-2.8-1.8-3.9c0,1.5-0.3,2.8,0.7,3.9c0.2,9.3,0.7,18.6,0.5,27.9c-0.5,21.9,1.3,43.8,2.1,65.6c0.1,3.9,0.9,7.6,4.5,9.9
			c1.3,1.5,2.6,3,4,4.6c-0.1,8.6-0.3,17.2-0.1,25.9c0.1,2.9-0.9,3.9-3.7,4.6c-13.8,3.3-27.6,7-41.4,10.3c-2.8,0.7-3.8,1.7-3.7,4.6
			c0.2,5.5,0.1,10.9,0.1,16.4c0.1,3.7-1,7.3,2.7,10.5c12.8,11.1,25.2,22.6,37.9,33.9c10.8,9.6,21.6,19.2,32.3,28.8
			C125,250.3,125,250.6,125,251z"/>
		<path class="st1" d="M125,251c0-0.4,0-0.7,0-1.1c0-7.1,0.1-14.1,0.1-21.2c1,0.7,1.5,0.6,2.1-0.8c1.8-4.1,4.6-6.6,9.3-3.7
			c0.9,0.6,1.6,0.5,2-0.4c1.2-2.3,2.5-4.2,5.6-4c2.8,0.2,3.7,2.8,5.7,4.7c0.4-4.4,0.7-8.1-0.8-11.8c-2.4-5.9-5.7-6.5-9.7-1.7
			c-0.9,1.1-2.1,2.1-3.4,2.9c-5,2.9-7.2,1.9-7.7-3.7c-1.6,0.2-0.2,2.8-2.2,2.6c0.1-1.7-0.2-3.3-1.1-4.8c0.1-1.4,0.1-2.8,0.2-4.2
			c2.9,1.4,4-1.3,5.1-2.7c4.6-6.1,10.5-8.8,18.2-8.9c8.8-0.1,17.4-1.9,26-3.7c7.9-1.6,15.8-3.4,23.6-5.1c-2.8,5.2-7.7,8.5-11.9,12.4
			c-19,17.9-38.1,35.7-57.2,53.6c-0.5,0.4-0.7,1.1-1.1,1.6C127,251,126,251,125,251z"/>
		<path class="st2" d="M198.1,183.4c-7.9,1.7-15.7,3.5-23.6,5.1c-8.6,1.8-17.3,3.6-26,3.7c-7.7,0.1-13.6,2.8-18.2,8.9
			c-1.1,1.5-2.2,4.1-5.1,2.7c-2-2.2-4.2-4.2-6.1-6.5c-2.5-3-5.4-4.1-9.3-4.5c-20.1-1.8-39.6-6.3-57.5-15.9c0-5.5,0.1-11-0.1-16.4
			c-0.1-2.9,0.9-3.9,3.7-4.6c13.8-3.3,27.6-6.9,41.4-10.3c2.7-0.7,3.7-1.7,3.7-4.6c-0.2-8.6,0.1-17.2,0.1-25.9
			c4.4,4.2,8.9,8.4,13.3,12.7c3.3,3.2,7,5,11.6,4.2c5.9,1.1,10.4-0.9,14.4-5.5c4.6-5.3,9.1-10.8,14.5-15.5c0,10.5,0.2,20.9,0,31.4
			c-0.1,3.1,1,4.2,4,4.8c12.5,2.7,24.8,5.9,37.3,8.6c3.2,0.7,3.9,2,3.8,4.9c-0.2,6.1-0.1,12.3-0.1,18.4
			C199.8,180.7,200.2,182.5,198.1,183.4z"/>
		<path class="st3" d="M163.1,6c-1.1,31-2.2,62-3.3,93c-0.2,4.3-1.6,8.1-4.9,11c-0.1-5.8-0.4-11.6-0.3-17.4c0-2.6-0.7-3.4-3.4-3.3
			c-4.8,0.2-9.6,0.3-14.4,0c-4.4-0.3-5.4,1.1-4.4,5.3c1.4,5.8-0.5,8.1-6.4,9.1l0.1-0.5c-0.1-5.9-0.1-11.9-0.2-17.8
			c0-1.4,0.4-3.2-1.9-3.3c-1.9-0.1-1.8,1.4-2.1,2.7c-0.3,1.6-0.9,3.1-1.4,4.7c-7.7,0-15.4,0-23.5,0c0,6.7,0,13.8,0,20.9
			c-3.7-2.3-4.4-6.1-4.5-9.9c-0.8-21.9-2.6-43.7-2.1-65.6c0.2-9.3-0.3-18.6-0.5-27.9c0.3,0,0.7,0.1,1,0.1c1.8,7.5,3.6,15,5.8,24
			c7.5-11.6,18.4-14.1,29.8-14.7c11.8-0.6,21.6,4.3,29.5,14.9c2.2-9,4.1-17.1,6-25.1C162.4,6,162.7,6,163.1,6z M117.8,79.5
			c-6.1-3.1-12-5.1-18.8-4.9C103.2,82.6,109.5,84.3,117.8,79.5z M135.9,79.4c7.2,5.2,15.2,3,18-4.9
			C147.4,74.5,141.6,76.4,135.9,79.4z"/>
		<path class="st4" d="M52.2,176.8c18,9.6,37.4,14.2,57.5,15.9c4,0.4,6.9,1.5,9.3,4.5c1.9,2.3,4,4.4,6.1,6.5
			c-0.1,1.4-0.1,2.8-0.2,4.2c-1.7,1.5-1.2,3.2-0.5,4.9c-0.1,1.2,0.6,2.9-1.7,2.7c-4.6-0.5-9.1-1.5-11.1-6.2
			c-1.3-3.2-2.6-2.1-4.2-0.7c-4.8,4.2-6.2,9.4-4.9,16.1c4-3.5,7.8-5.7,11.5-0.5c0.8,1.1,1.7,0.3,2.7,0.1c4.3-1.3,7.1,0.2,8.5,4.4
			c0,7.1-0.1,14.1-0.1,21.2c-10.8-9.6-21.6-19.2-32.3-28.8c-12.6-11.3-25.1-22.7-37.9-33.9C51.2,184.1,52.3,180.4,52.2,176.8z"/>
		<path class="st5" d="M126.1,103.8c5.9-1,7.8-3.3,6.4-9.1c-1-4.2-0.1-5.6,4.4-5.3c4.8,0.4,9.6,0.2,14.4,0c2.7-0.1,3.4,0.7,3.4,3.3
			c-0.1,5.8,0.2,11.6,0.3,17.4c0.1,0.3,0.1,0.6-0.2,0.9c-5.4,4.7-9.9,10.1-14.5,15.5c-3.9,4.6-8.4,6.6-14.4,5.5c0-7.9,0-15.9,0-23.8
			c2.4,0,4.7,0,7.1,0c0-0.3,0-0.6,0.1-0.9c-2.4-0.4-4.7-0.8-7.1-1.3C126,105.2,126.1,104.5,126.1,103.8z"/>
		<path class="st6" d="M125.9,108.1c0,7.9,0,15.9,0,23.8c-4.7,0.8-8.4-0.9-11.6-4.2c-4.3-4.3-8.8-8.5-13.3-12.7
			c-1.3-1.5-2.6-3-4-4.6c0-7.1,0-14.2,0-20.9c8.1,0,15.8,0,23.5,0c-0.3,2.1-0.5,4.2-0.8,6.3c-0.6,4.1,1.7,6.8,6.4,7.4
			c0,0-0.1,0.5-0.1,0.5c-0.1,0.7-0.1,1.4-0.2,2.1l0.1,0.2c-2.7,0.4-5.4,0.7-8,1.1c0,0.3,0.1,0.6,0.1,0.8c2.6,0,5.2,0,7.9,0
			L125.9,108.1z"/>
		<path class="st7" d="M90.9,7.1c-0.3,0-0.7-0.1-1-0.1c-1-1.1-0.7-2.3-0.7-3.9C90.8,4.3,91.3,5.5,90.9,7.1z"/>
		<path class="st8" d="M163.1,6c-0.3,0-0.7,0-1,0.1c-0.3-1-0.1-1.9,0.9-2.4c0.2-0.1,0.7,0.1,0.7,0.2C164,4.8,164,5.5,163.1,6z"/>
		<path class="st3" d="M125.1,228.8c-1.4-4.2-4.2-5.8-8.5-4.4c-0.9,0.3-1.9,1-2.7-0.1c-3.7-5.3-7.5-3.1-11.5,0.5
			c-1.3-6.7,0.1-12,4.9-16.1c1.6-1.4,2.9-2.5,4.2,0.7c2,4.7,6.5,5.7,11.1,6.2c2.3,0.2,1.7-1.5,1.7-2.7c0.5,0,1.1-0.1,1.6-0.1
			c2,0.2,0.6-2.4,2.2-2.6c0.5,5.6,2.7,6.6,7.7,3.7c1.3-0.7,2.4-1.8,3.4-2.9c3.9-4.8,7.2-4.2,9.7,1.7c1.5,3.7,1.2,7.4,0.8,11.8
			c-2-1.8-2.9-4.5-5.7-4.7c-3.1-0.2-4.4,1.7-5.6,4c-0.4,0.9-1.1,1-2,0.4c-4.7-3-7.4-0.5-9.3,3.7
			C126.6,229.3,126.2,229.4,125.1,228.8z"/>
		<path class="st9" d="M126.1,212.8c-0.5,0-1.1,0.1-1.6,0.1c-0.6-1.7-1.1-3.4,0.5-4.9C125.9,209.5,126.2,211.1,126.1,212.8z"/>
		<path class="st10" d="M126.2,103.3c-4.6-0.7-6.9-3.4-6.4-7.4c0.3-2.1,0.5-4.2,0.8-6.3c0.5-1.6,1.1-3.1,1.4-4.7
			c0.3-1.3,0.1-2.8,2.1-2.7c2.3,0.1,1.9,1.9,1.9,3.3C126.1,91.4,126.1,97.4,126.2,103.3z"/>
		<path class="st11" d="M117.8,79.5c-8.3,4.8-14.6,3.1-18.8-4.9C105.8,74.4,111.7,76.4,117.8,79.5z"/>
		<path class="st11" d="M135.9,79.4c5.7-3,11.5-4.9,18-4.9C151.1,82.4,143.1,84.5,135.9,79.4z"/>
		<path class="st12" d="M125.9,105.9c2.4,0.4,4.7,0.8,7.1,1.3c0,0.3,0,0.6-0.1,0.9c-2.4,0-4.7,0-7.1,0l0.1-0.1c0-0.6,0-1.3,0-1.9
			L125.9,105.9z"/>
		<path class="st13" d="M126,106.1c0,0.6,0,1.3,0,1.9c-2.6,0-5.2,0-7.9,0c0-0.3-0.1-0.6-0.1-0.8C120.7,106.8,123.4,106.4,126,106.1z
			"/>
	</g>
</g>
</svg>
