<?xml version="1.0" encoding="utf-8"?>
<!-- Generator: Adobe Illustrator 23.0.3, SVG Export Plug-In . SVG Version: 6.00 Build 0)  -->
<svg version="1.1" id="Layer_1" xmlns="http://www.w3.org/2000/svg" xmlns:xlink="http://www.w3.org/1999/xlink" x="0px" y="0px"
	 viewBox="0 0 250 250" style="enable-background:new 0 0 250 250;" xml:space="preserve">
<style type="text/css">
	.st0{fill:#FFFFFF;}
	.st1{fill:none;}
	.st2{fill:#038BCF;}
	.st3{fill:#096DB6;}
	.st4{fill:#272223;}
	.st5{fill:#C9202D;}
	.st6{fill:#825034;}
	.st7{fill:#512E28;}
	.st8{fill:#F0202C;}
	.st9{fill:#E7242A;}
	.st10{fill:#2B160E;}
	.st11{fill:#562C1B;}
	.st12{fill:#E92025;}
	.st13{fill:#D52227;}
	.st14{fill:#3A302D;}
	.st15{fill:#FCE402;}
	.st16{fill:#B27746;}
</style>
<rect x="89.4" y="57.2" class="st0" width="66.5" height="17.4"/>
<g>
	<g>
		<path class="st1" d="M123,251c-40.7,0-81.3,0-122,0C1,167.7,1,84.3,1,1c82,0,164,0,246-0.1c3.4,0,4.1,0.7,4.1,4.1
			c-0.1,80.7-0.1,161.3,0,242c0,3.4-0.7,4.1-4.1,4.1c-40.3-0.2-80.7-0.1-121-0.1c0.4-1.8,2-2.5,3.2-3.6c23.2-21,46.3-42.3,70-62.9
			c6.6-5.7,7.9-11.9,7-19.6c0.2-2.1,0.6-4.3,0.6-6.4c0.2-8.7,0.2-8.7-8.2-10.6c-10.6-2.4-21.3-4.9-31.9-7.3c-4-0.9-6.8-5.4-11.6-3.8
			c0-8.6,0-17.3-0.1-25.9c0-2,0-3.9-0.1-5.9c6.2-5.4,6.5-12.6,6.1-20c7.4-3.6,10.3-10,10.5-17.7c0.2-5.4-2-7.2-7.6-7.1
			c0.5-9.4,1-18.9,1.6-28.3c1.1-15.7,1-15.3-13.7-21.4c-15-6.2-30-7.8-45.6-2.6C99.6,10.1,93,12.3,86.3,14c-3.9,1-4.7,2.9-4.4,6.6
			C83.1,34.1,84,47.5,85,61c-4.9-1.3-7.3-0.1-8.1,4.2c-1.4,7.6,2.9,16.1,10,19.9c0.3,7.5-0.1,15.1,6,21c0.1,2,0.1,3.9,0.2,5.9
			c-0.1,8.7-0.1,17.4-0.2,26.1c-2.4,0.3-5.1-1.3-7.1,1.1c-1,0.7-1.9,1.4-2.9,2.1c-9.8,2.3-19.5,4.6-29.3,6.9
			c-7.9,1.9-7.9,1.9-6.9,10.1c-0.9,5.8,0,11.6-0.4,17.4c-0.2,3,1,4.9,3.1,6.9c12,11,23.9,22.1,35.8,33.2
			C97.9,227.3,110.4,239.2,123,251z"/>
		<path class="st2" d="M123,251c-12.6-11.8-25.1-23.7-37.7-35.4c-11.9-11.1-23.8-22.2-35.8-33.2c-2.1-1.9-3.3-3.9-3.1-6.9
			c0.4-5.8-0.4-11.6,0.4-17.4c15.4-0.4,30.8-0.7,46.2-1.1c2.1,0.1,3.7,1.2,5.4,2.3c8.6,5.5,16.5,12,25.6,16.7l-0.1,0.4
			c0,3.7,0,7.5,0,11.2c-7.5,0.1-14.9,0.2-22.4,0.2c-1.9,0-3.6,0.1-5.1,1.5c-2.9,2.7-5.9,5.4-8.9,8c-1.4,1.2-1.8,2.1-0.3,3.6
			c12.4,12.7,23.9,26.2,36.7,38.5c0,3.9,0,7.7,0,11.6C123.7,251,123.3,251,123,251z"/>
		<path class="st3" d="M124,251c0-3.9,0-7.7,0-11.6c0.4-0.4,0.7-0.9,1.1-1.3c10-10,20-19.9,30-29.9c8-8,8.1-8.1,0-15.9
			c-1.9-1.9-3.3-4.7-6.7-4.6c-7.8,0.2-15.6,0.2-23.4,0.3c-0.3-0.1-0.7-0.3-1-0.4c0-3.7,0-7.5,0-11.2c6.9-4.6,14.1-8.9,20.7-13.9
			c4.1-3.1,8.2-3.8,13-3.3c16.2,1.5,32.5,3.1,48.5,5.8c0.9,7.7-0.4,13.8-7,19.6c-23.7,20.5-46.7,41.8-70,62.9
			c-1.2,1.1-2.8,1.8-3.2,3.6C125.3,251,124.7,251,124,251z"/>
		<path class="st4" d="M85,61c-1-13.4-1.9-26.8-3.1-40.2c-0.3-3.7,0.5-5.6,4.4-6.6c6.7-1.7,13.3-3.9,19.9-6.1
			c15.6-5.2,30.6-3.5,45.6,2.6c14.7,6,14.7,5.7,13.7,21.4c-0.6,9.4-1.1,18.9-1.6,28.3c-1.7,5.1,0,10.9-3,15.8
			c-1.7-1.4-1.1-3.3-1.1-5.1c0-6.1-0.3-12.3,0.4-18.3c0.7-5.7-1.1-9.5-6.1-12.1c0.6-3.8,2.2-7.5,1.5-11.7c-9.7,2.8-19.2,4-28.8,4
			c-8.3,0-12.2,5.7-9.6,13.8c-0.2,0.1-0.4,0.3-0.5,0.5c-5.7-2.2-9.1-5.9-8-12.4c0.4-2.2-0.8-2.6-2.4-2.7c-1.6-0.1-3.3-0.2-4.9-0.3
			c-9.5-0.7-9.5-0.7-7.4,9.1c-0.3,1.9-1.8,2.9-3.2,3.6c-3.8,1.9-4.3,5-3.9,8.7c0.7,5.9,1.1,11.9,1.6,17.9c0.1,1.8,0.8,3.7-1.5,4.7
			C86.4,70.9,85.7,65.9,85,61z"/>
		<path class="st5" d="M206.2,165c-16.1-2.8-32.3-4.3-48.5-5.8c-4.8-0.5-8.9,0.3-13,3.3c-6.6,5-13.8,9.3-20.7,13.9l0.1-0.4
			c0-2.5,0.1-5,0.1-7.5L124,168c8.7-5.1,15.9-12.3,24.4-17.7c5.2-3.3,7.7-7.3,6.6-13.4c4.8-1.6,7.6,2.9,11.6,3.8
			c10.7,2.4,21.3,4.8,31.9,7.3c8.4,1.9,8.4,1.9,8.2,10.6C206.8,160.7,206.4,162.9,206.2,165z"/>
		<path class="st6" d="M93,137.9c0.1-8.7,0.1-17.4,0.2-26.1c6.4,4.9,12,10.8,17.6,16.5c3.7,3.8,8,5.7,13.2,5.6c0,11.3,0,22.7,0.1,34
			l0.1,0.4c-10.8-7.3-20.9-15.5-31.3-23.5C92.9,142.6,92.9,140.3,93,137.9z"/>
		<path class="st7" d="M124,168c0-11.3,0-22.7-0.1-34c6.8,0.5,12.2-1.8,16.6-7.2c4.5-5.5,9.6-10.6,14.4-15.8c0,8.6,0,17.3,0.1,25.9
			c1.1,6.1-1.4,10.1-6.6,13.4C139.9,155.7,132.7,162.9,124,168z"/>
		<path class="st7" d="M87,75.9c2.3-1,1.7-2.9,1.5-4.7c-0.5-6-0.9-11.9-1.6-17.9c-0.4-3.8,0.1-6.8,3.9-8.7c1.4-0.7,2.9-1.7,3.2-3.6
			c1.9,5.3,2,10.9,2.9,16.4c-1.3,0.5-3.8-1.3-3.8,1.4c0,2.1,2.4,0.9,3.6,1.5c0.4,0.2,0.9,0.4,1.3,0.6c0,1.1,0.1,2.1,0.1,3.2
			c-1.3,1.1-3.7,0-4.7,2.3c1.3,0.9,2.5,1.7,3.7,2.5c0.1,3.3,3.7,5,4,8.3c1,12.3,1.9,24.6,1.8,37c-4-1.9-6-6.2-9.8-8.3
			c-6.1-5.8-5.7-13.5-6-21C87,82,87,78.9,87,75.9z"/>
		<path class="st7" d="M154.2,40.6c4.9,2.6,6.8,6.3,6.1,12.1c-0.7,6-0.3,12.2-0.4,18.3c0,1.7-0.6,3.7,1.1,5.1c0,3,0,6.1,0.1,9.1
			c0.4,7.4,0.1,14.6-6.1,20c-2.9,3.1-5.5,6.4-8.9,9c0.7-15.5-1.9-31.4,4.9-46.2c2.9-2,2-3.2-0.9-3.9c0-1.2,0-2.3,0-3.5
			c1.1-1,3.7,0.5,3.9-1.8c0.2-2-1.7-1.3-2.9-1.6C152.1,51.6,153.2,46.1,154.2,40.6z"/>
		<path class="st8" d="M93,157c-15.4,0.4-30.8,0.7-46.2,1.1c-1-8.2-1-8.2,6.9-10.1c9.8-2.3,19.5-4.6,29.3-6.9
			c-3.8,5.8,0.4,8.1,4.5,10.6C89.6,153.1,92.1,154.2,93,157z"/>
		<path class="st9" d="M93,157c-0.9-2.7-3.4-3.9-5.5-5.2c-4.1-2.5-8.2-4.9-4.5-10.6c1-0.7,1.9-1.4,2.9-2.1c1.6,2.8,4.5,4.1,7,5.9
			c10.3,7.9,20.5,16.2,31.3,23.5c0,2.5-0.1,5-0.1,7.5c-9.1-4.7-17-11.2-25.6-16.7C96.7,158.2,95.1,157.1,93,157z"/>
		<path class="st10" d="M146,114.1c3.4-2.5,6-5.9,8.9-9c0,2,0,3.9,0.1,5.9c-4.8,5.2-9.9,10.3-14.4,15.8c-4.4,5.4-9.8,7.7-16.6,7.2
			c-5.2,0-9.5-1.9-13.2-5.6c-5.7-5.7-11.2-11.6-17.6-16.6c-0.1-2-0.1-3.9-0.2-5.9c3.8,2.1,5.8,6.4,9.8,8.3c2.7,2.7,5.3,5.5,8,8.1
			c8.8,8.5,20.5,8.2,28.9-0.7C141.9,119.3,143.9,116.6,146,114.1z"/>
		<path class="st11" d="M87,75.9c0,3,0,6,0,9.1c-7.1-3.7-11.4-12.2-10-19.9c0.8-4.2,3.1-5.5,8.1-4.2C85.7,65.9,86.4,70.9,87,75.9z"
			/>
		<path class="st11" d="M161.1,85.1c0-3,0-6.1-0.1-9.1c3-4.9,1.2-10.7,3-15.8c5.6,0,7.8,1.7,7.6,7.1
			C171.3,75.1,168.5,81.6,161.1,85.1z"/>
		<path class="st5" d="M92.8,145c-2.5-1.8-5.3-3.1-7-5.9c2-2.4,4.7-0.9,7.1-1.1C92.9,140.3,92.9,142.6,92.8,145z"/>
		<path class="st12" d="M124,187.6c0.3,0.1,0.7,0.3,1,0.4c0,1.9,0,3.8,0,5.7c-3.4,0.2-6.9,0.3-10,2.2c-1.4,0.9-2.8,1.9-2.8,3.8
			c0.1,2.1,1.8,3.2,3.6,3.6c3,0.7,6.1,1,9.2,1.5c0,3.1,0,6.2,0,9.3c-5.9,1.7-11.7-0.8-18.2-0.2c2,2.3,3.1,4.7,6.5,3
			c1.3-0.7,3.4-0.7,4.2,0.5c1.9,2.8,4.9,2.5,7.4,3.5c0,1.4,0,2.8,0,4.2c-2.3,0-4.7-0.1-7-0.1c-0.1-0.2-0.2-0.3-0.3-0.5
			c0,0.1,0,0.2,0.1,0.2c0.1,0.1,0.2,0.1,0.3,0.2c1.7,2.7,3.8,5.1,7,6.2c0,2.3,0,4.6,0.1,7c-0.4,0.4-0.7,0.9-1.1,1.3
			c-12.8-12.3-24.3-25.8-36.7-38.5c-1.5-1.5-1-2.4,0.3-3.6c3-2.6,6-5.3,8.9-8c1.5-1.4,3.2-1.5,5.1-1.5
			C109,187.8,116.5,187.7,124,187.6z M98,204.7c-0.1-5,2.3-7.7,5.2-10.7c-4.8,0-6.5,3.4-8.4,5.9C93.3,201.6,96.2,202.5,98,204.7z"/>
		<path class="st13" d="M125,214.1c0-3.1,0-6.2,0-9.3c3.1-0.3,6.3-0.6,9.4-0.9c3.7-0.3,7.5-0.8,10.3,2.2c1.9,2.1,3,1.9,4.6-0.1
			c0.8-1.1,1.8-2,2.8-2.8c4.3-3.3,2.2-5.1-1.4-6.9c-1,4.6-7.6,7-10.5,3.8c-4.2-4.5-9.5-5.6-15.2-6.3c0-1.9,0-3.8,0-5.7
			c7.8-0.1,15.6-0.1,23.4-0.3c3.5-0.1,4.8,2.7,6.7,4.6c8,7.8,8,7.9,0,15.9c-10,10-20,19.9-30,29.9c0-2.3,0-4.6-0.1-7
			c1.3-2.1,4-3.2,4.8-6.1c-1.8,0-3.3,0-4.8,0c0-1.4,0-2.8,0-4.2c2.8-0.2,5.6,0.2,8.4-0.8c1.2-0.4,2.9-0.6,3-2.1
			c0.2-1.9-1.8-2.3-3.1-2.6C130.6,214.9,127.8,214.6,125,214.1z"/>
		<path class="st6" d="M146,114.1c-2.1,2.5-4.1,5.2-6.4,7.6c-8.4,8.9-20.1,9.2-28.9,0.7c-2.7-2.6-5.4-5.4-8-8.1
			c0.2-12.4-0.7-24.7-1.8-37c-0.3-3.3-3.8-5-4-8.3c1.5,0,3.1,0,4.6-0.1l0.2,0.1c0.7,0.8,1.7,1.1,2.7,0.9c2.7-0.4,7.2,1.6,7.6-1.6
			c0.3-2.6-4.4-2.7-7.2-3.1c-1.3,0-2.6-0.1-3.8-0.1c-0.8-0.9-1.9-0.8-3-0.9c0-1.1-0.1-2.1-0.1-3.2c4.3,0.5,8.5,1,12.8,1.4
			c1.2,0.1,3.1,1.6,3.4-1.1c0.2-2.2-1.5-2.1-3-2.2c-4.8-0.5-9.5-1.1-14.3-1.6C96,51.9,96,46.3,94.1,41c-2.1-9.8-2.1-9.8,7.4-9.1
			c1.6,0.1,3.3,0.2,4.9,0.3c1.6,0.1,2.8,0.5,2.4,2.7c-1.1,6.5,2.3,10.2,8,12.4c0.3,0.1,0.6,0.2,1,0.3c-0.2-0.3-0.3-0.6-0.5-0.9
			c-2.6-8.1,1.4-13.8,9.6-13.8c9.7,0,19.2-1.2,28.8-4c0.6,4.2-0.9,7.9-1.5,11.7c-1.1,5.5-2.1,11-3.2,16.4c-5.2,0.7-10.5,1.4-15.7,2
			c-1.5,0.2-2.7,0.6-2.5,2.3c0.2,2.4,1.9,1.3,3,1.1c4.8-0.6,9.5-1.3,14.2-2c0,1.2,0,2.3,0,3.5c-1.8,0.1-3.5,0.3-5.3,0.4
			c-1.2,0.2-2.3,0.4-3.5,0.6c-2.9-0.1-5.5,0.6-7.6,2.7c-0.1,0.1,0.3,1,0.6,1.1c2.8,1.2,5.7,1.6,8.4-0.2c0.5,0,1.1,0,1.6,0.1
			c2.3,0.6,4.4-0.9,6.7-0.9C144.2,82.7,146.7,98.6,146,114.1z M124.1,93c5.9,0,7.8-2,7-7.6c-0.6-4.2-1.4-8.5-1.9-12.7
			c-0.3-2.6-2-4.5-3.5-6.4c-0.9-1.2-1.6-0.7-1.8,0.6c-2.4,1-3.5,2.9-3.8,5.3c-0.6,4.2-2,8.3-2.3,12.6C117.4,89.7,118.8,92,124.1,93z
			 M114.9,99.5c6.3,2.2,12.5,3.6,19.9,0.5C127.5,100.4,121.2,99.7,114.9,99.5z M111.6,98.4c0,0.1,0,0.3,0.1,0.4s0.3,0.1,0.4,0.1
			c0-0.2-0.1-0.4-0.1-0.6C111.9,98.3,111.8,98.3,111.6,98.4z"/>
		<path class="st14" d="M96.9,57.4c4.8,0.5,9.5,1.1,14.3,1.6c1.5,0.2,3.3,0,3,2.2c-0.3,2.6-2.2,1.2-3.4,1.1
			c-4.3-0.4-8.5-0.9-12.8-1.4c-0.4-0.2-0.9-0.4-1.3-0.6c-1.2-0.6-3.6,0.6-3.6-1.5C93.1,56,95.6,57.9,96.9,57.4z"/>
		<path class="st1" d="M98.1,64.1c1.1,0,2.2,0,3,0.9c-0.6,1.4-0.3,2.7,0.6,3.9c-1.5,0-3.1,0-4.6,0.1c-1.2-0.8-2.4-1.6-3.7-2.5
			C94.4,64.1,96.7,65.2,98.1,64.1z"/>
		<path class="st14" d="M150,60.5c-4.7,0.7-9.5,1.4-14.2,2c-1.1,0.1-2.8,1.2-3-1.1c-0.1-1.8,1.1-2.1,2.5-2.3
			c5.2-0.6,10.5-1.3,15.7-2c1.1,0.3,3.1-0.4,2.9,1.6C153.7,61,151.1,59.5,150,60.5z"/>
		<path class="st1" d="M150.9,67.9c-2.3,0-4.3,1.5-6.7,0.9c1.4-1.3,2.2-2.7,0.5-4.4c1.8-0.1,3.5-0.3,5.3-0.4
			C152.9,64.7,153.8,65.8,150.9,67.9z"/>
		<path class="st15" d="M125,193.8c5.6,0.7,11,1.7,15.2,6.3c3,3.2,9.5,0.8,10.5-3.8c3.6,1.8,5.7,3.6,1.4,6.9c-1,0.8-2,1.8-2.8,2.8
			c-1.5,2-2.7,2.2-4.6,0.1c-2.8-3-6.7-2.5-10.3-2.2c-3.1,0.3-6.3,0.6-9.4,0.9c-3.1-0.5-6.2-0.9-9.2-1.5c-1.8-0.4-3.5-1.4-3.6-3.6
			c-0.1-1.8,1.3-2.9,2.8-3.8C118.1,194.1,121.6,194.1,125,193.8z"/>
		<path class="st15" d="M125,214.1c2.8,0.5,5.6,0.8,8.3,1.4c1.4,0.3,3.3,0.7,3.1,2.6c-0.1,1.5-1.8,1.6-3,2.1c-2.7,1-5.6,0.6-8.4,0.8
			c-2.5-1-5.5-0.8-7.4-3.5c-0.8-1.2-2.9-1.2-4.2-0.5c-3.4,1.7-4.6-0.7-6.5-3C113.3,213.3,119.1,215.8,125,214.1z"/>
		<path class="st15" d="M125,225.1c1.5,0,2.9,0,4.8,0c-0.8,2.9-3.4,4-4.8,6.1c-3.2-1.1-5.2-3.5-7-6.2v0
			C120.3,225.1,122.6,225.1,125,225.1z"/>
		<path class="st15" d="M98,204.7c-1.8-2.1-4.6-3-3.3-4.8c1.9-2.5,3.7-5.9,8.4-5.9C100.2,197,97.8,199.6,98,204.7z"/>
		<path class="st15" d="M118,225c-0.1-0.1-0.2-0.1-0.3-0.2c-0.1,0,0-0.2-0.1-0.2C117.7,224.7,117.9,224.9,118,225L118,225z"/>
		<path class="st7" d="M123.9,66.9c0.2-1.3,0.9-1.9,1.8-0.6c1.5,2,3.1,3.8,3.5,6.4c0.5,4.2,1.3,8.5,1.9,12.7c0.8,5.6-1.1,7.6-7,7.6
			C124,84.3,123.9,75.6,123.9,66.9z"/>
		<path class="st16" d="M123.9,66.9c0.1,8.7,0.1,17.4,0.2,26.1c-5.3-1-6.6-3.2-6.3-8.2c0.3-4.3,1.7-8.4,2.3-12.6
			C120.4,69.8,121.5,67.9,123.9,66.9z"/>
		<path class="st1" d="M104.9,65.1c2.8,0.5,7.5,0.5,7.2,3.1c-0.4,3.2-4.9,1.1-7.6,1.6c-1,0.2-1.9-0.2-2.7-0.9
			C104.7,69.2,105.3,67.5,104.9,65.1z"/>
		<path class="st7" d="M114.9,99.5c6.3,0.2,12.6,0.9,19.9,0.5C127.5,103.1,121.2,101.6,114.9,99.5z"/>
		<path class="st1" d="M142.7,68.7c-2.8,1.8-5.6,1.4-8.4,0.2c-0.3-0.1-0.7-1-0.6-1.1c2.1-2.1,4.7-2.8,7.6-2.7
			C140.8,66.6,141.5,67.7,142.7,68.7z"/>
		<path class="st2" d="M142.7,68.7c-1.1-1-1.9-2.1-1.4-3.7c1.2-0.2,2.3-0.4,3.5-0.7c1.7,1.7,0.9,3.1-0.5,4.4
			C143.7,68.8,143.2,68.7,142.7,68.7z"/>
		<path class="st2" d="M104.9,65.1c0.3,2.4-0.2,4-3.1,3.8l-0.2-0.1c-1-1.2-1.2-2.4-0.6-3.9C102.4,65.1,103.6,65.1,104.9,65.1z"/>
		<path class="st7" d="M111.6,98.4c0.1-0.1,0.3-0.1,0.4-0.2c0,0.2,0.1,0.4,0.1,0.6c-0.2,0-0.3,0-0.4-0.1
			C111.7,98.7,111.7,98.5,111.6,98.4z"/>
		<path class="st14" d="M117.3,46.8c0.2,0.3,0.3,0.6,0.5,0.9c-0.3-0.1-0.6-0.2-1-0.3C116.9,47.1,117,46.9,117.3,46.8z"/>
	</g>
</g>
</svg>
