<?xml version="1.0" encoding="utf-8"?>
<!-- Generator: Adobe Illustrator 23.0.3, SVG Export Plug-In . SVG Version: 6.00 Build 0)  -->
<svg version="1.1" id="Layer_1" xmlns="http://www.w3.org/2000/svg" xmlns:xlink="http://www.w3.org/1999/xlink" x="0px" y="0px"
	 viewBox="0 0 250 250" style="enable-background:new 0 0 250 250;" xml:space="preserve">
<style type="text/css">
	.st0{fill:#FFFFFF;}
	.st1{fill:none;}
	.st2{fill:#2BB206;}
	.st3{fill:#4C3711;}
	.st4{fill:#CC965C;}
	.st5{fill:#68C949;}
	.st6{fill:#1F600A;}
	.st7{fill:#2B2B2D;}
	.st8{fill:#020202;}
	.st9{fill:#B27746;}
	.st10{fill:#F7BE99;}
	.st11{fill:#F69E77;}
	.st12{fill:#F99C39;}
	.st13{fill:#393838;}
	.st14{fill:#5B6066;}
	.st15{fill:#7A5935;}
	.st16{fill:#A72426;}
	.st17{fill:#AA7F61;}
	.st18{fill:#E28964;}
	.st19{fill:#939292;}
	.st20{fill:#C6C5C5;}
	.st21{fill:#512E28;}
</style>
<rect x="79.8" y="73.9" class="st0" width="81.6" height="26"/>
<g>
	<g>
		<path class="st1" d="M123,251c-40.7,0-81.3,0-122,0C1,167.7,1,84.3,1,1c82,0,164,0,246-0.1c3.4,0,4.1,0.7,4.1,4.1
			c-0.1,80.7-0.1,161.3,0,242c0,3.4-0.7,4.1-4.1,4.1c-40.7-0.2-81.3-0.1-122-0.1c0-0.3,0-0.6,0-0.9c1.6-1.2,3.2-2.3,4.7-3.6
			c20.8-17.5,41.6-35.2,62.6-52.6c4.1-3.4,6.2-6.8,5.6-12.2c-0.5-4.1-0.4-8.3,0-12.4c0.5-4.8-1.2-7.2-6-7.1
			c-11.9-2.7-23.7-5.4-35.6-8.1c-0.6-0.7-1.2-1.3-1.8-2c3-0.5,6.2-0.4,9.4-2.5c-3.2-0.7-5.4-2.1-7-4.5c-0.1-0.6-0.2-1.2-0.3-1.8
			c12,5,23.1,2.4,35.1-3.9c-10.5-1.1-17.3-5.4-21.6-13.6c-3.7-7-4-14.2-2-21.7c2.7-5.9,5.4-11.9,8.1-17.8c3.9-0.6,4.5-3.5,4.9-6.8
			c1-8.5,1.1-16.9-0.1-25.4c-1.4-11-3.5-21.6-12.1-29.8c-15.3-14.6-33.3-20.5-54-17c-15.2,2.4-29.9,6-39.5,20.8
			c-7.1,10.8-11.1,22.1-12.5,34.7c-3,9.8-1.6,19.7-0.5,29.6c1.2,11.2,5.8,21.4,8.9,32.1c2.7,9.5,3.5,19-2,27.9
			c-0.2,0.1-0.4,0.2-0.5,0.5c-0.4,0.6-0.8,1.2-1.3,1.9c-0.5,0.4-1,0.9-1.6,1.3c-0.1,0.1-0.1,0.3-0.2,0.4c0.1-0.2,0.1-0.3,0.2-0.5
			c0.9,0.1,1.6,0,2.1-0.9c0.3-0.3,0.6-0.5,1-0.8c0.4-0.4,0.7-0.7,1.1-1.1c3.2-1.9,5.1-5,6.9-8.1c0.6-0.1,1.2-0.2,1.8-0.3
			c-0.7,4.1-3,7.6-4.9,11.2c-0.2,0.2-0.5,0.4-0.7,0.6c0.4,0.5,0.9,0.3,1.3,0c7-1.2,10.1-7.1,14.6-11.5l0,0c0.4,1.3-0.9,2.7,0,4
			c-0.2,0-0.5,0.1-0.7,0.1c0,0.1,0.1,0.3,0.1,0.4c0.2-0.2,0.4-0.4,0.6-0.5c2.6-2.6,7.4-1,9.3-4.9c0.5,0.4,1.1,0.7,1.6,1.1
			c0,0.5,0,1.1,0,1.6c-2.7,2.4-5.3,4.9-8,7.3c-11.4,2.7-22.8,5.2-34,8.6c-2.9-0.2-4.1,1-3.9,4.1c0.2,6.5,0.3,13,0,19.4
			c-0.1,3.3,1,5.5,3.5,7.6c13.5,11.5,27,23.1,40.4,34.8C106.2,236,115.2,242.9,123,251z"/>
		<path class="st2" d="M156.4,154.1c11.9,2.7,23.7,5.4,35.6,8.1c-0.8,0.5-1.6,1.3-2.5,1.5c-17,4.1-34,8.5-51.1,12.2
			c-13.4,2.9-13.5,2.5-13.4,15.9c-0.3,0.1-0.7,0.2-1,0.3c-11.3,0.2-20,8.8-19.9,19.8c0.1,11.3,8.9,20,19.8,19.8
			c0.3,0.1,0.7,0.2,1,0.3c0,6,0.1,12,0.1,18c-0.1,0.3-0.1,0.6,0,0.9c-0.7,0-1.3,0-2,0c-7.8-8.1-16.8-15-25.2-22.4
			c-13.4-11.7-26.8-23.3-40.4-34.8c-2.5-2.1-3.6-4.3-3.5-7.6c0.3-6.5,0.2-13,0-19.4c-0.1-3.1,1-4.3,3.9-4.1c0.6,1,1.6,1.1,2.5,1.3
			c17.8,4.3,35.6,8.7,53.4,13c10.2,2.5,10.2,2.5,10.2-8C136.5,167.9,147.7,163.6,156.4,154.1z"/>
		<path class="st3" d="M62.9,62.7c1.4-12.5,5.4-23.8,12.5-34.7C85,13.3,99.7,9.7,114.9,7.2c20.6-3.5,38.7,2.4,54,17
			C177.5,32.4,179.6,43,181,54c1.1,8.5,1,16.9,0.1,25.4c-0.4,3.4-1,6.2-4.9,6.8c-3.8-0.3-7.2-2.7-11.2-2.2
			c-20.6-8.3-32.8-24.9-42.8-44.2c-0.7,1.1-1,1.4-1.1,1.9c-5.8,19.1-19.5,30.3-37.5,37.1c-1.4,0.5-2.9,0.8-3.7,2.2
			c-2,0.1-4-0.1-5.8,1.1c-1.3,0.1-2.6,0.2-3.9,0.5c-5.8,1.3-7,0.3-7.1-5.8C63,72,62.9,67.4,62.9,62.7z"/>
		<path class="st4" d="M79.8,80.9c0.8-1.5,2.3-1.7,3.7-2.2c18-6.8,31.7-18,37.5-37.1c0.1-0.4,0.5-0.8,1.1-1.9
			c10,19.3,22.2,35.9,42.8,44.2c-1.7,7.7-3.3,15.4-5,23.1c-1.2,7.9-4.7,14.5-11,19.5c-1.5,1.2-2.7,2.9-4,4.3c-0.8,0.5-1.2,1.1-1,2.1
			v0.1c-0.6,0-1,0.3-0.9,0.9l-0.1,0.1c-0.6,0-0.9,0.3-0.9,0.9h-0.1c-2.4,0.3-3.6,1.7-4,4v0.1c-0.3,0.3-0.6,0.6-0.9,0.9v0.1
			c-0.3,0.3-0.6,0.6-0.9,0.9L136,141c-0.3,0.3-0.6,0.6-0.9,0.9L135,142c-0.3,0.3-0.6,0.6-0.9,0.9L134,143
			c-6.7,3.5-13.6,3.8-20.6,0.7c-0.4-1-1.1-1.7-2.1-2c-0.3-0.3-0.7-0.7-1-1s-0.7-0.8-1.1-0.1c-0.1,0.1,0.3,0.5,0.5,0.7
			c0.3,0.3,0.7,0.7,1,1c0.2,1.1,1,1.7,2,2c3.2,2.9,7.1,3.7,11.2,3.9c0,1.2,0,2.4,0,3.5l0.1,0.4c-8.4-0.1-16.5-1.6-24.2-5.3
			c0-0.5,0-1.1,0-1.6c2.9-1.9,3-5.2,4.3-7.9h0.3l0.3,0.1c0.3,0.3,0.7,0.6,1,0.9c0.4,0.5,1.1,1.2,1.6,0.5c0.6-0.8-0.4-0.9-1-1.1
			c-0.3-0.3-0.7-0.7-1-1c-0.4-0.3-0.7-0.7-1.1-1c-1.4-1.4-2.9-2.8-4.2-4.2c-3.8-4.3-9.1-7.1-11.9-12.5c-2.1-3.9-1.6-8.4-3.9-12.2
			C82.8,98.2,81.3,89.6,79.8,80.9z M133.1,90c-0.9,0.1-0.9,0.9-1.1,1.6c8.3,4,12.9,3.7,18.4-1.5c4.7-0.4,5-4.4,7-8.6
			c-3.9,2.1-7.2,1.4-10.5,1.6c-4.9,0.2-9.5,1.4-13,5.2C133.1,88.6,132.7,89.1,133.1,90L133.1,90z M109.9,90L109.9,90
			c0.4-0.9-0.1-1.4-0.9-1.8c-0.4,0-0.7-0.1-1.1-0.1l0.1,0.1c-1-3.2-4.1-3.3-6.6-4.2c-4.3-1.7-8.9-0.2-13.2-1.1
			c-0.7-0.6-1.4-1.7-1.9,0.1c1.4,3,2,6.7,6.3,7.1c5.6,5.2,10.5,5.6,18.4,1.4C110.9,90.8,110.8,90.1,109.9,90z M128,112
			c-1.9,0.4-3.8,0.8-6,1.3c0-6.6-0.1-12.9,0-19.2c0.1-2.9-0.7-4.2-3.9-4.2c-3.3,0-4.4,1.2-4.2,4.4c0.2,4.1,0.3,8.3,0,12.5
			c-0.4,5.6,3.8,8.4,7.3,10.4C124.2,118.7,126,114.2,128,112c0.2-0.1,0.3-0.3,0.4-0.4C128.3,111.7,128.1,111.9,128,112z
			 M135.2,123.7c-8.8-1.2-16.7-1.1-25.1,0.2C119.6,134.4,124.3,135.6,135.2,123.7z"/>
		<path class="st5" d="M125,250.1c0-6-0.1-12-0.1-18c11.6-1.4,19-9.1,19.1-19.8c0.1-11-7.1-18.8-19.1-20.4c-0.1-13.4,0-13,13.4-15.9
			c17.1-3.7,34.1-8.1,51.1-12.2c0.9-0.2,1.7-1,2.5-1.5c4.9,0,6.5,2.3,6,7.1c-0.4,4.1-0.5,8.3,0,12.4c0.6,5.4-1.5,8.8-5.6,12.2
			c-21,17.4-41.7,35-62.6,52.6C128.3,247.8,126.6,248.9,125,250.1z"/>
		<path d="M104.2,137.3c-1.3,2.7-1.4,6.1-4.3,7.9c-0.5-0.4-1.1-0.7-1.6-1.1c-1.9,3.9-6.7,2.3-9.3,4.9l0,0c-0.9-1.3,0.4-2.7,0-4
			c0.6,0,0.9-0.4,0.8-1c0-0.1-0.2-0.2-0.3-0.3c-0.1,0.4-0.3,0.9-0.4,1.3c-4.4,4.4-7.6,10.3-14.6,11.5c-0.2-0.2-0.4-0.4-0.5-0.6
			c1.9-3.6,4.2-7,4.9-11.2c0.4-1.1,0.7-2.1-0.5-3.3c-0.4,1.3-0.8,2.5-1.2,3.6c-1.8,3.1-3.6,6.2-6.9,8.1c-0.3-0.3-0.5-0.5-0.8-0.8
			c5.5-9,4.7-18.4,2-27.9c-3.1-10.7-7.7-20.9-8.9-32.1c-1.1-9.9-2.5-19.8,0.5-29.6c0,4.6,0,9.3,0.1,13.9c0.1,6.2,1.3,7.1,7.1,5.8
			c1.3-0.3,2.6-0.3,3.9-0.5c-2.8,3.8-2.4,8.2-1.9,12.4c0.9,6.6,6.1,11.8,12.1,12.5c2.3,3.7,1.8,8.2,3.9,12.2
			c2.8,5.4,8.1,8.2,11.9,12.5c1.3,1.5,2.8,2.8,4.2,4.2C104.2,136.2,104.2,136.8,104.2,137.3z"/>
		<path d="M145,130.8c1.3-1.4,2.5-3.1,4-4.3c6.4-5,9.9-11.6,11-19.5c3.3,0.5,5.1-2.7,8.1-3c-2,7.5-1.7,14.8,2,21.7
			c4.3,8.1,11.1,12.5,21.6,13.6c-12,6.3-23.1,9-35.1,3.9c-1.6,0.9-0.3,1.3,0.3,1.8c1.6,2.4,3.8,3.8,7,4.5c-3.2,2.1-6.3,2-9.4,2.5
			c-2.7-1.7-3.4-4.9-5.5-7c-1.3-4.3-2.6-8.6-3.8-12.9C145.1,131.7,145,131.2,145,130.8z"/>
		<path class="st6" d="M124,169.1c0,10.5,0,10.5-10.2,8c-17.8-4.3-35.6-8.7-53.4-13c-1-0.2-2-0.3-2.5-1.3c11.2-3.4,22.6-6,34-8.6
			c8.5,9.7,19.4,14.1,32.2,14.5C124,168.8,124,168.9,124,169.1z"/>
		<path class="st7" d="M149,145c2.2,2.1,2.9,5.3,5.5,7c0.6,0.7,1.2,1.3,1.8,2c-8.7,9.5-19.8,13.9-32.4,15.1c0-0.2,0-0.4,0-0.5
			c0-5.5,0-11,0-16.4l-0.1-0.4C133,152.2,141.2,149.2,149,145z"/>
		<path class="st8" d="M124,152.1c0,5.5,0,11,0,16.4c-12.7-0.3-23.7-4.7-32.2-14.5c2.7-2.4,5.3-4.9,8-7.3
			C107.5,150.5,115.6,152,124,152.1z"/>
		<path class="st9" d="M168.1,104c-2.9,0.4-4.8,3.6-8.1,3c1.7-7.7,3.3-15.4,5-23.1c4-0.5,7.4,2,11.2,2.2
			C173.5,92.1,170.8,98,168.1,104z"/>
		<path class="st10" d="M77,145c0.4-1.2,0.8-2.3,1.2-3.6c1.2,1.2,1,2.3,0.5,3.3C78.2,144.8,77.6,144.9,77,145z"/>
		<path class="st11" d="M68.1,155.1c-0.5,0.9-1.2,1-2.1,0.9h0.1c0.5-0.4,1-0.9,1.6-1.3C67.8,154.8,67.9,154.9,68.1,155.1z"/>
		<path class="st11" d="M67.6,154.7c0.4-0.6,0.8-1.2,1.3-1.9c0.1,0.5,0.1,0.9,0.2,1.4c-0.3,0.3-0.6,0.5-1,0.8
			C67.9,154.9,67.8,154.8,67.6,154.7z"/>
		<path class="st10" d="M156.9,145c-0.6-0.5-1.9-1-0.3-1.8C156.7,143.8,156.8,144.4,156.9,145z"/>
		<path class="st12" d="M89,149c-0.2,0.2-0.4,0.4-0.6,0.5c0-0.1-0.1-0.3-0.1-0.4C88.5,149.1,88.8,149,89,149L89,149z"/>
		<path class="st12" d="M69,154.3c-0.1-0.5-0.1-0.9-0.2-1.4c0.1-0.2,0.3-0.4,0.5-0.5c0.3,0.3,0.5,0.5,0.8,0.8
			C69.8,153.5,69.4,153.9,69,154.3z"/>
		<path class="st11" d="M66,156c-0.1,0.2-0.1,0.3-0.2,0.5C65.9,156.3,66,156.1,66,156L66,156z"/>
		<path class="st12" d="M74.4,156.5c-0.4,0.4-0.8,0.6-1.3,0c0.2-0.2,0.5-0.4,0.7-0.6C74.1,156.1,74.3,156.3,74.4,156.5z"/>
		<path class="st13" d="M123.9,231.7c-11,0.3-19.7-8.5-19.8-19.8c-0.1-11,8.6-19.7,19.9-19.8c0,0.9,0,1.7,0,2.6
			c-7.5,0.6-13,4.3-15.8,11.2c-4.2,10.5,2.7,20.5,15.7,23.2C123.9,230,123.9,230.9,123.9,231.7z"/>
		<path class="st14" d="M123.9,231.7c0-0.8,0-1.7,0-2.5c1-0.2,2.1-0.4,3.1-0.6c9.2-2.7,13.8-8.2,13.8-16.7
			c-0.1-8.5-4.4-13.8-13.6-16.5c-1-0.1-2.1-0.2-3.1-0.3v-0.4c0-0.9,0-1.7,0-2.6c0.3-0.1,0.7-0.2,1-0.3c11.9,1.6,19.2,9.3,19.1,20.4
			c-0.1,10.7-7.5,18.4-19.1,19.8C124.6,231.9,124.3,231.8,123.9,231.7z"/>
		<path class="st9" d="M84.2,106.8c-5.9-0.7-11.2-5.8-12.1-12.5c-0.6-4.2-0.9-8.6,1.9-12.4c1.8-1.1,3.8-1,5.8-1.1
			C81.3,89.6,82.8,98.2,84.2,106.8z"/>
		<path class="st9" d="M128,112c-2,2.2-3.8,6.7-6.8,5.1c-3.5-2-7.7-4.8-7.3-10.4c0.3-4.1,0.2-8.3,0-12.5c-0.2-3.2,0.9-4.4,4.2-4.4
			c3.2,0,4,1.3,3.9,4.2c-0.1,6.3,0,12.6,0,19.2C124.2,112.8,126.1,112.4,128,112L128,112z"/>
		<path class="st15" d="M149,145c-7.8,4.2-16,7.2-25.1,6.8c0-1.2,0-2.4,0-3.5c3.9-0.7,8.1-0.9,10.1-5.2l0.1-0.1
			c0.3-0.3,0.6-0.6,0.9-0.9l0.1-0.1c0.3-0.3,0.6-0.6,0.9-0.9l0.1-0.1c0.3-0.3,0.6-0.6,0.9-0.9l0.1-0.1c0.3-0.3,0.6-0.6,0.9-0.9V139
			c2.4-0.2,3.7-1.5,4-4h0.1c0.3-0.3,0.6-0.6,0.9-0.9l0.1-0.1c0.3-0.3,0.6-0.6,0.9-0.9V133c0.4-0.3,0.8-0.6,1.2-0.9
			C146.4,136.4,147.7,140.7,149,145z"/>
		<path class="st16" d="M135.2,123.7c-10.9,11.9-15.6,10.6-25.1,0.2C118.5,122.6,126.4,122.5,135.2,123.7z"/>
		<path class="st1" d="M111,91.4c-7.9,4.2-12.9,3.8-18.4-1.4c-3.1-6.7,2.8-2.8,4.5-3.8c-0.2,2.3,0.1,4.5,3,4.7
			c2.7,0.2,3.2-1.8,3.6-3.9c1.5,0.4,2.9,0.7,4.4,1.1L108,88c-0.1,0.8,0.5,1,1,1.2c0.1,0.6,0.4,0.8,1,0.8v-0.1
			C110.3,90.5,110.6,90.9,111,91.4z"/>
		<path class="st1" d="M150.4,90c-5.5,5.2-10.2,5.6-18.4,1.5c0.4-0.5,0.7-1,1.1-1.6V90c0.6,0.1,1-0.1,1-0.7c1.8-0.7,3.2-2.2,5.3-2.3
			c0.4,2,1,4,3.6,3.8c2.9-0.2,3.1-2.4,3-4.7C147.6,87.3,153.4,83.5,150.4,90z"/>
		<path class="st13" d="M150.4,90c3-6.5-2.8-2.7-4.5-3.8c-2.3-0.4-4.5-0.1-6.6,0.9c-2.1,0-3.5,1.5-5.3,2.3c0-0.4-0.1-0.8-0.1-1.2
			c3.5-3.8,8.1-4.9,13-5.2c3.3-0.2,6.6,0.6,10.5-1.6C155.5,85.6,155.1,89.6,150.4,90z"/>
		<path class="st7" d="M108,88.1c-1.5-0.4-2.9-0.7-4.4-1.1c-2.1-0.9-4.3-1.2-6.5-0.9c-1.7,1.1-7.6-2.8-4.5,3.8
			c-4.3-0.4-5-4.1-6.3-7.1c0.6,0,1.3-0.1,1.9-0.1c4.4,0.9,9-0.5,13.2,1.1C103.9,84.8,106.9,84.9,108,88.1z"/>
		<path class="st17" d="M133.9,143c-2,4.3-6.2,4.6-10.1,5.2c-4.1-0.2-8-1-11.2-3.9c0.2-0.2,0.4-0.5,0.7-0.7
			C120.4,146.8,127.2,146.5,133.9,143z"/>
		<path class="st17" d="M141.9,135c-0.2,2.4-1.5,3.8-4,4C138.3,136.7,139.6,135.3,141.9,135z"/>
		<path class="st17" d="M112.7,144.4c-1-0.4-1.8-0.9-2-2c0.2-0.2,0.4-0.4,0.6-0.6c1.1,0.3,1.8,0.9,2.1,2
			C113.1,143.9,112.9,144.1,112.7,144.4z"/>
		<path class="st17" d="M145.2,132.1c-0.4,0.3-0.8,0.6-1.2,0.9c-0.3-1,0.2-1.6,1-2.1C145,131.2,145.1,131.7,145.2,132.1z"/>
		<path class="st14" d="M88.2,82.7c-0.6,0-1.3,0.1-1.9,0.1C86.8,81.1,87.5,82.1,88.2,82.7z"/>
		<path class="st17" d="M106.3,137.7c0.6,0.2,1.5,0.3,1,1.1c-0.4,0.6-1.1,0-1.6-0.5C105.9,138.1,106.1,137.9,106.3,137.7z"/>
		<path class="st14" d="M110,90.1c-0.6,0-1-0.2-1-0.8c0-0.4,0-0.7,0.1-1.1C109.8,88.6,110.3,89.1,110,90.1z"/>
		<path class="st14" d="M133.9,88.2c0,0.4,0.1,0.8,0.1,1.2c-0.1,0.6-0.5,0.8-1,0.7C132.7,89.1,133.1,88.6,133.9,88.2z"/>
		<path class="st14" d="M111,91.4c-0.3-0.5-0.7-1-1.1-1.4C110.8,90.1,110.9,90.8,111,91.4z"/>
		<path class="st18" d="M135,142c-0.3,0.3-0.6,0.6-0.9,0.9C134.3,142.6,134.6,142.3,135,142z"/>
		<path class="st7" d="M109,88.2c0,0.4,0,0.7-0.1,1.1c-0.6-0.2-1.2-0.4-1-1.2C108.3,88.1,108.7,88.1,109,88.2z"/>
		<path class="st18" d="M136,141c-0.3,0.3-0.6,0.6-0.9,0.9C135.3,141.6,135.6,141.3,136,141z"/>
		<path class="st17" d="M110.7,142.3c-0.3-0.3-0.7-0.7-1-1c0.2-0.2,0.4-0.4,0.5-0.6c0.3,0.3,0.7,0.7,1,1
			C111.1,141.9,110.9,142.1,110.7,142.3z"/>
		<path class="st18" d="M137,140c-0.3,0.3-0.6,0.6-0.9,0.9C136.3,140.6,136.6,140.3,137,140z"/>
		<path class="st17" d="M109.7,141.3c-0.2-0.2-0.6-0.6-0.5-0.7c0.4-0.7,0.7-0.2,1.1,0.1C110.1,140.9,109.9,141.1,109.7,141.3z"/>
		<path class="st11" d="M128,112c0.1-0.1,0.3-0.3,0.4-0.4C128.3,111.7,128.1,111.9,128,112L128,112z"/>
		<path class="st17" d="M105.3,136.7c0.3,0.3,0.7,0.7,1,1c-0.2,0.2-0.4,0.4-0.6,0.6c-0.3-0.3-0.7-0.6-1-0.9
			C104.9,137.1,105.1,136.9,105.3,136.7z"/>
		<path class="st17" d="M104.2,137.3c0-0.5,0.1-1,0.1-1.6c0.4,0.3,0.7,0.7,1.1,1c-0.2,0.2-0.4,0.4-0.6,0.6l-0.3-0.1L104.2,137.3z"/>
		<path class="st17" d="M142.9,134c-0.3,0.3-0.6,0.6-0.9,0.9C142,134.3,142.3,134,142.9,134z"/>
		<path class="st17" d="M143.9,133c-0.3,0.3-0.6,0.6-0.9,0.9C143,133.3,143.3,133,143.9,133z"/>
		<path class="st14" d="M133.1,90c-0.4,0.5-0.7,1-1.1,1.6C132.1,90.9,132.2,90.1,133.1,90z"/>
		<path class="st18" d="M138,139c-0.3,0.3-0.6,0.6-0.9,0.9C137.3,139.6,137.6,139.3,138,139z"/>
		<path class="st10" d="M89,145c0.1-0.4,0.3-0.9,0.4-1.3c0.1,0.1,0.3,0.2,0.3,0.3C89.9,144.6,89.6,144.9,89,145L89,145z"/>
		<path class="st19" d="M127,228.6c-1,0.2-2.1,0.4-3.1,0.6c-13-2.6-19.9-12.7-15.7-23.2c2.8-7,8.3-10.6,15.8-11.2v0.4
			c-0.2,1.2-0.4,2.4,1.1,3c-5.1,4.9-10.3,9.7-15.2,14.4c1.2,1.8,2.1,1.5,2.9,1.5c3.1,0.1,7.1-0.9,9.2,0.6c2.7,1.9,0.9,6.2,1,9.4
			c0.1,3,1.5,3.3,3.8,2.8C126.9,227.4,126.9,228,127,228.6z"/>
		<path class="st1" d="M127.1,195.3c9.2,2.8,13.5,8,13.6,16.5c-1.9,0-3.7,0-5.6,0c-0.4-0.5-0.8-1.2-1.2-1.3c-7.1-1.6-7.1-1.6-7.1-9
			c0-1.5,0-2.9,0-4.4C127,196.6,127.1,196,127.1,195.3z"/>
		<path class="st20" d="M135.2,211.9c1.9,0,3.7,0,5.6,0c0,8.5-4.5,14-13.8,16.7c-0.1-0.6-0.2-1.2-0.3-1.8c0-3,0.3-5.9,0-8.9
			c-0.2-3,0.7-4.2,3.8-3.9C132.3,214.1,134.8,215.2,135.2,211.9z"/>
		<path class="st20" d="M127.1,195.3c-0.1,0.6-0.2,1.2-0.3,1.9c-0.6,0.3-1.2,0.6-1.8,0.9c-1.5-0.6-1.3-1.8-1.1-3
			C125.1,195.2,126.1,195.3,127.1,195.3z"/>
		<path class="st21" d="M97.1,86.2c2.3-0.4,4.4-0.1,6.5,0.9c-0.4,2-0.9,4.1-3.6,3.9C97.2,90.7,96.9,88.5,97.1,86.2z"/>
		<path class="st21" d="M139.4,87.1c2.1-0.9,4.3-1.3,6.6-0.9c0.2,2.3-0.1,4.5-3,4.7C140.4,91.1,139.8,89.1,139.4,87.1z"/>
		<path class="st13" d="M125.1,198.1c0.6-0.3,1.2-0.6,1.8-0.9c0,1.5,0,2.9,0,4.4c0,7.4,0,7.4,7.1,9c0.5,0.1,0.8,0.9,1.2,1.3
			c-0.4,3.2-2.9,2.1-4.6,2c-3.2-0.3-4,1-3.8,3.9s0,5.9,0,8.9c-2.3,0.5-3.7,0.3-3.8-2.8c-0.1-3.2,1.7-7.5-1-9.4
			c-2.1-1.5-6.1-0.4-9.2-0.6c-0.8,0-1.7,0.3-2.9-1.5C114.8,207.8,120,202.9,125.1,198.1z M122.8,206c-1.7,1.4-3.7,2-3.4,4.2
			c0.1,0.8,1.4,0.8,2.2,0.5C124.1,209.9,123.1,208.1,122.8,206z"/>
		<path class="st19" d="M122.8,206c0.3,2.1,1.2,3.9-1.3,4.7c-0.7,0.2-2.1,0.3-2.2-0.5C119.1,208,121.1,207.4,122.8,206z"/>
	</g>
</g>
</svg>
