<?xml version="1.0" encoding="utf-8"?>
<!-- Generator: Adobe Illustrator 23.0.3, SVG Export Plug-In . SVG Version: 6.00 Build 0)  -->
<svg version="1.1" id="Layer_1" xmlns="http://www.w3.org/2000/svg" xmlns:xlink="http://www.w3.org/1999/xlink" x="0px" y="0px"
	 viewBox="0 0 250 250" style="enable-background:new 0 0 250 250;" xml:space="preserve">
<style type="text/css">
	.st0{fill:none;}
	.st1{fill:#BC212C;}
	.st2{fill:#825034;}
	.st3{fill:#EA2227;}
	.st4{fill:#2D220B;}
	.st5{fill:#3F210D;}
	.st6{fill:#562C1B;}
	.st7{fill:#EA5D27;}
	.st8{fill:#F4D11D;}
	.st9{fill:#050403;}
	.st10{fill:#512E28;}
	.st11{fill:#AA7F61;}
	.st12{fill:#DA7659;}
	.st13{fill:#BC5C43;}
	.st14{fill:#050301;}
	.st15{fill:#E9EBED;}
</style>
<g>
	<g>
		<path class="st0" d="M122,251c-40.3,0-80.7,0-121,0C1,167.7,1,84.3,1,1c82,0,164,0,246-0.1c3.4,0,4.1,0.7,4.1,4.1
			c-0.1,80.7-0.1,161.3,0,242c0,3.4-0.7,4.1-4.1,4.1c-41-0.2-82-0.1-123-0.1c0.2-0.2,0.3-0.4,0.1-0.7c30.3-23.1,60.6-46.2,90.9-69.3
			c1.3-1,1.9-2.1,1.9-3.8c-0.1-8-0.1-16,0-24c0-2.2-0.6-3.2-2.9-3.7c-14.3-2.9-28.7-5.8-43-8.8c-1.8-4.9-2.5-10.2-5-14.8
			c0-0.6-0.1-1.3-0.1-1.9c4.6-10.9,5.6-22.4,5.1-34.1c7.7-1.3,12.9-8.5,12.9-18c0-8.9-4.2-13.5-12.9-14c0-4.6,0.2-9.3-0.2-13.9
			c-1.2-15.4-6.5-30.6-28.4-35.2c-1.3-0.3-2.9-0.4-3.8-1.2C133.8,3.4,128.1,2.7,122,3c-3.2-0.6-6.6-0.2-9.2,1.4
			c-5.3,3.3-11.4,4-17.2,5.6c-12.4,3.5-19.5,11.9-22.7,24c-2.1,8-2.2,16.1-1.1,24.2c-3-0.3-5.8,0.4-7.7,2.6c-5,5.5-5.1,12-2.9,18.6
			c2,6,5.6,10.6,12.7,10.7c-0.8,12.8,1.3,24.9,8.1,35.9c0,0.7-0.1,1.3-0.1,2c-1.8,3.9-1.7,8.2-3,12.2c-13.4,3-26.9,6.1-40.3,9
			c-2.9,0.6-4,1.8-3.9,4.9c0.2,7.8,0.2,15.6,0,23.4c-0.1,3,0.8,4.8,3.2,6.7c22.3,17.4,44.5,34.8,66.7,52.3
			C110.5,241.2,117,245.2,122,251z"/>
		<path class="st1" d="M124.1,250.3c0.1,0.3,0.1,0.5-0.1,0.7c-0.7,0-1.3,0-2,0c-5-5.8-11.5-9.8-17.4-14.5
			c-22.1-17.6-44.4-35-66.7-52.3c-2.3-1.8-3.3-3.7-3.2-6.7c0.2-7.8,0.2-15.6,0-23.4c-0.1-3.1,1-4.3,3.9-4.9c13.5-2.9,26.9-6,40.3-9
			c-1.5,6.4,1.3,11,6.3,14.5c2.7,1.9,5.5,3.7,8.4,5.2c9.1,4.9,19,6.7,29.1,7.8c2.6,5.5,0.7,11.2,1.1,16.8c-6.4-1.1-8.4,0-12,6.3
			c-6.9,1.2-12.2,5.2-16.3,10.5c-5.8,7.6-3.7,15.8,4.7,20.3c6.9,3.7,14.3,5.1,22.1,4c0.6,0.1,1.1,0.3,1.7,0.4
			C124,234.1,124.1,242.2,124.1,250.3z"/>
		<path class="st2" d="M82.1,126c-6.8-11-8.9-23.2-8.1-35.9c2.3-3.5,0.4-7.6,1.8-11.2c0.1-0.4,0.2-0.8,0.3-1.2
			c7.5,5.9,15.7,6.5,24.5,3.5c4.8-1.7,9.7-3.4,14.5-5.1c-0.2,1.3-0.2,2.6-0.5,3.9c-1.9,6.8,1,10.9,8.6,11.9
			c8.3,0.1,11.6-3.7,9.8-11.5c-0.3-1.4-0.6-2.9-0.9-4.4c3.7,0,7,1.6,10.6,2.4c7.8,1.7,15.4,1.9,22.5-2.4c0.7-0.4,1.3-0.7,2-1.1
			c3.1,4.6,2.3,10.2,4,15.2c0.5,11.7-0.5,23.2-5.1,34.1c-0.9,0.3-1.1,1.1-0.9,1.9l0.1,0c-0.5,0.4-1,0.7-1.5,1.1
			c-1.8,1.9-3.7,3.9-5.5,5.8c-0.4,0.4-0.9,0.8-1.3,1.2c-0.2-0.1-0.4-0.1-0.6-0.1c-0.4,0.3-0.8,0.7-1.1,1l0,0c-0.3,0.3-0.7,0.7-1,1
			l0,0c-1.2-0.2-2.3-0.1-3.1,1c-17.2,6-34.4,5.7-51.8,0.9c-1.5-1.2-3.1-2.1-5.2-1.8l0,0c-0.3-1.1-1.2-1.1-2-1l0,0c0-0.7-0.4-0.9-1-1
			l0,0c-0.3-0.3-0.7-0.7-1-1l0.1,0c-0.5-0.8-1.2-1.1-2.1-1l0,0c0-0.6-0.4-1-1-1l0,0c-0.4-0.4-0.7-0.7-1.1-1.1L86,130
			c-0.4-0.5-0.7-1.1-1.1-1.6c-0.1-0.1-0.3-0.3-0.4-0.4C83.7,127.4,82.9,126.7,82.1,126z M103.6,97.5c13.1,2,24.7,2.1,37.8,0
			C128.3,95.5,116.7,95.5,103.6,97.5z"/>
		<path class="st3" d="M123.8,184.6c-0.4-5.6,1.6-11.4-1.1-16.8c0.1-0.2,0.2-0.5,0.3-0.7c14.5,0.1,27.7-4.4,39.9-12.1
			c5.1-3.2,9.1-7.4,8.1-14.2c14.3,2.9,28.6,5.9,43,8.8c2.3,0.5,2.9,1.5,2.9,3.7c-0.1,8-0.1,16,0,24c0,1.7-0.5,2.8-1.9,3.8
			c-30.3,23.1-60.6,46.2-90.9,69.3c0-8.1-0.1-16.2-0.1-24.3c3.7-1.1,7.8-0.6,11.1-3c8.4-1.7,15.6-5.6,20.4-13
			c4.2-6.5,2.8-13.3-3.5-17.7c-7.4-5.2-15.6-6-24.3-5.2C126.4,186.3,125.1,185.5,123.8,184.6z"/>
		<path class="st4" d="M167,74.9c-0.7,0.4-1.3,0.7-2,1.1c-0.4-2.9-0.7-5.9-1.2-8.8c-1.6-8.9-1.4-18.2-5.7-26.5
			c-2.8-10.1-9.7-16.3-19.2-20.2c-2.3-0.9-3.6,0-4.2,2.1c-1.8,6.9-6.5,8.5-12.8,7.3c0-8.9,0-17.9,0-26.8c6.1-0.4,11.8,0.4,16.6,4.7
			c0.9,0.8,2.5,0.9,3.8,1.2c22,4.6,27.2,19.8,28.4,35.2c0.4,4.6,0.1,9.3,0.2,13.9l0-0.1c-0.7-0.1-0.7,0.4-0.8,0.9
			C169.8,64.3,168.4,69.6,167,74.9z"/>
		<path class="st5" d="M122,3c0,8.9,0,17.9,0,26.8c-7.2,0.3-8.9-0.5-11.5-7.4c-1.2-3.3-2.7-3.4-5.5-2.6c-11,3.4-18.7,10.2-22.9,20.9
			c-5.6,11.7-6,24.2-6.1,36.8c-0.1,0.4-0.2,0.8-0.3,1.2c-1.3-6.9-2.6-13.8-3.9-20.6c-1-8.1-0.9-16.2,1.1-24.2
			c3.2-12.1,10.3-20.5,22.7-24c5.8-1.6,11.8-2.3,17.2-5.6C115.4,2.8,118.8,2.5,122,3z"/>
		<path class="st6" d="M171,140.8c1,6.8-3,11-8.1,14.2c-12.1,7.7-25.3,12.1-39.9,12.1c0-6.7,0-13.5,0-20.2
			c10.6-0.6,20.9-2.2,29.2-9.8c0.8,0,1.4-0.3,1.7-1.1l0,0c0.3-0.3,0.7-0.7,1-1l0,0c0.4-0.3,0.8-0.7,1.1-1c0.2,0,0.4,0,0.6,0.1
			c0.4-0.4,0.9-0.8,1.3-1.2c1.8-1.9,3.7-3.9,5.5-5.8c0.5-0.4,1-0.7,1.5-1.1l-0.1,0c0.4,0,0.7,0,1.1,0
			C168.5,130.6,169.2,135.9,171,140.8z"/>
		<path class="st2" d="M123.1,146.9c0,6.7,0,13.5,0,20.2c-0.1,0.2-0.2,0.4-0.3,0.7c-10.1-1.1-20-2.9-29.1-7.8
			c-2.9-1.6-5.7-3.3-8.4-5.2c-5-3.5-7.8-8.1-6.3-14.5c1.3-4,1.2-8.3,3-12.2c0.9,0,1.7,0,2.6,0c0.1,0.1,0.3,0.3,0.4,0.4
			c-0.1,0.8,0.2,1.4,1.1,1.6L86,130c0.4,0.4,0.7,0.7,1.1,1.1l0,0c0.3,0.3,0.7,0.7,1,1l0,0c0.4,1,1.2,1.1,2.1,1l-0.1,0
			c0.3,0.3,0.7,0.7,1,1l0,0c0.3,0.3,0.7,0.7,1,1l0,0c0.4,0.8,1.2,1.1,2,1l0,0c0.6,1.5,1.9,2,3.4,2.2c1.5,0.9,3,1.9,4.6,2.8
			C108.6,144.4,115.9,145.6,123.1,146.9z"/>
		<path class="st6" d="M167,74.9c1.3-5.3,2.7-10.6,3.2-16c0.4-0.1,1-0.2,0.8-0.9c0,0,0,0.1,0,0.1c8.6,0.6,12.9,5.2,12.9,14
			c0,9.4-5.1,16.6-12.9,18C169.3,85.1,170.1,79.4,167,74.9z"/>
		<path class="st6" d="M71.8,58.2c1.3,6.9,2.6,13.8,3.9,20.6c-1.5,3.6,0.4,7.8-1.8,11.2c-7.1-0.1-10.7-4.7-12.7-10.7
			c-2.2-6.6-2.2-13.1,2.9-18.6C66.1,58.7,68.9,57.9,71.8,58.2z"/>
		<path class="st6" d="M84.5,128c-0.9,0-1.7,0-2.6,0c0-0.7,0.1-1.3,0.1-2C82.9,126.7,83.7,127.4,84.5,128z"/>
		<path class="st6" d="M166,126c-0.4,0-0.7,0-1.1,0c-0.1-0.8,0-1.6,0.9-1.9C165.9,124.7,166,125.3,166,126z"/>
		<path class="st7" d="M122.3,225.7c-7.8,1.1-15.1-0.3-22.1-4c-8.4-4.5-10.5-12.7-4.7-20.3c4.1-5.3,9.4-9.3,16.3-10.5
			c0.2,2.3,1.3,4.2,2.3,6.2c-3.6,2.3-7.7,3.9-10.7,7.1c-6.3,6.6-5,13.8,3.1,17.8c4.9,2.4,10.2,3,15.5,2.9
			C122.2,225.1,122.3,225.4,122.3,225.7z"/>
		<path class="st8" d="M122.3,225.7c0-0.3-0.1-0.5-0.2-0.8c0.1-3.7-1.3-7.1-2-10.7c-2-9.2-2.1-9.2,6.9-12.2c0.2-0.1,0.3-0.1,0.5-0.2
			c1.9-1.2,2.3-0.2,2.9,1.6c1.3,4.2,1.3,8.8,3.5,12.8c0.5,2.3,0.9,4.5,1.4,6.8c-3.3,2.4-7.4,1.9-11.1,3
			C123.4,225.9,122.9,225.8,122.3,225.7z"/>
		<path class="st8" d="M114.1,197.1c-1-2-2.1-3.9-2.3-6.2c3.6-6.3,5.6-7.3,12-6.3c1.3,0.9,2.6,1.7,3.9,2.6c0,0.3,0.1,0.6,0.3,0.8
			c1.5,6-0.5,10-5.5,11C119.4,199.7,116.8,198.5,114.1,197.1z M124.8,191.7c-0.3-2.5-1.9-3.7-4.3-3.7c-2.5,0-4.2,1.4-4.2,3.8
			c0,2.5,2,3.9,4.3,3.9C122.9,195.7,124.5,194.3,124.8,191.7z"/>
		<path class="st9" d="M76.1,77.6c0.1-12.6,0.4-25.1,6.1-36.8c9.9-2.5,18.1,1.7,25.2,7.7c9.1,7.6,26.1,8.6,35.7-1
			c4-4,9.1-6.7,15.1-6.8c4.4,8.3,4.1,17.6,5.7,26.5c0.5,2.9,0.8,5.9,1.2,8.8c-7.1,4.4-14.7,4.2-22.5,2.4c-3.5-0.8-6.9-2.4-10.6-2.4
			c-2.9-1.3-5.8-2.6-9.1-1.7c-2.7,0.2-5.4,0.6-7.9,1.7c-4.8,1.7-9.7,3.4-14.5,5.1C91.8,84.1,83.5,83.5,76.1,77.6z M146.2,60.9
			c-1,0-2.1,0-3.1,0c-2-0.2-3.9,0.2-5.8,0.9c-1.1,0.4-2.4,0.6-2.4,2c0,1.6,1.5,1.6,2.5,1.8c2.2,0.4,4.5,0.6,6.8,0.8
			c1.6,0.8,3.1,0.7,4.6-0.4c3.3,0.3,6.5-0.3,9.6-1.4c0.8-0.3,2.1-0.6,1.9-1.9c-0.1-0.6-1.1-1.4-1.7-1.5c-3.8-0.5-7.6-2.1-11.5-0.3
			C146.9,60.9,146.6,60.8,146.2,60.9z M102.9,61.5c-1-0.7-2-0.3-2.9,0.1c-0.2-0.1-0.3-0.1-0.5-0.1c-0.6-0.1-1.2-0.2-1.8-0.4
			c-3.4-0.5-6.6,0-9.9,0.9c-0.7,0.2-1.8,0.8-1.9,1.4c-0.3,1.2,0.8,1.7,1.8,2c3.3,1.1,6.7,1.9,10.3,1.5c1.1,0,2.2,0.1,3.2,0.1
			c0.5,0,1,0.1,1.5,0.1c3.1-0.2,8,0.7,8.3-2.7C111.1,61.8,105.9,62,102.9,61.5z"/>
		<path class="st10" d="M123.1,146.9c-7.2-1.2-14.5-2.4-21.1-5.9c-1.6-0.8-3.1-1.8-4.6-2.8c0.6-0.1,1.2-0.2,1.7-0.3
			c17.3,4.8,34.6,5.1,51.8-0.9c0.5,0,0.9,0.1,1.4,0.1C144,144.6,133.7,146.2,123.1,146.9z"/>
		<path class="st10" d="M122.9,74.3c3.3-0.8,6.2,0.4,9.1,1.7c0.3,1.5,0.6,2.9,0.9,4.4c1.8,7.7-1.5,11.6-9.8,11.5
			C123,86,123,80.2,122.9,74.3z"/>
		<path class="st11" d="M122.9,74.3c0.1,5.8,0.1,11.7,0.2,17.5c-7.6-1.1-10.5-5.1-8.6-11.9c0.3-1.3,0.4-2.6,0.5-3.9
			C117.5,75,120.2,74.5,122.9,74.3z"/>
		<path class="st10" d="M103.6,97.5c13.1-2,24.7-2,37.8,0C128.3,99.5,116.7,99.5,103.6,97.5z"/>
		<path class="st6" d="M99.2,137.8c-0.6,0.1-1.2,0.2-1.7,0.3c-1.5-0.1-2.8-0.6-3.4-2.2C96,135.7,97.6,136.6,99.2,137.8z"/>
		<path class="st6" d="M152.3,137c-0.5,0-0.9-0.1-1.4-0.1c0.8-1,1.9-1.2,3.1-1C153.7,136.8,153.1,137,152.3,137z"/>
		<path class="st6" d="M90,133c-0.9,0-1.7-0.1-2.1-1C88.9,131.9,89.6,132.2,90,133z"/>
		<path class="st6" d="M94,136c-0.9,0.1-1.6-0.2-2-1C92.8,134.9,93.7,134.9,94,136z"/>
		<path class="st6" d="M86,130c-0.8-0.2-1.1-0.8-1.1-1.6C85.3,129,85.7,129.5,86,130z"/>
		<path class="st10" d="M87,131c-0.4-0.4-0.7-0.7-1.1-1.1C86.3,130.3,86.7,130.7,87,131z"/>
		<path class="st6" d="M88,132c-0.3-0.3-0.7-0.7-1-1C87.6,131.1,88,131.4,88,132z"/>
		<path class="st10" d="M91,134c-0.3-0.3-0.7-0.7-1-1C90.3,133.3,90.7,133.7,91,134z"/>
		<path class="st12" d="M158,132.8c-0.4,0.4-0.9,0.8-1.3,1.2C157.1,133.6,157.6,133.2,158,132.8z"/>
		<path class="st6" d="M92,135c-0.3-0.3-0.7-0.7-1-1C91.6,134.1,92,134.4,92,135z"/>
		<path class="st12" d="M156.1,134c-0.4,0.3-0.8,0.7-1.1,1C155.3,134.6,155.7,134.3,156.1,134z"/>
		<path class="st12" d="M155,135c-0.3,0.3-0.7,0.7-1,1C154.3,135.6,154.7,135.3,155,135z"/>
		<path class="st13" d="M165,126c-0.5,0.4-1,0.7-1.5,1.1C164,126.7,164.5,126.3,165,126z"/>
		<path class="st7" d="M128.1,188c-0.2-0.3-0.3-0.5-0.3-0.8c8.6-0.8,16.9,0,24.3,5.2c6.3,4.4,7.8,11.2,3.5,17.7
			c-4.8,7.4-12,11.2-20.4,13c-0.5-2.3-0.9-4.5-1.4-6.8c5.2-2.3,10.4-4.4,14.1-9c4.8-6,3.7-12.1-2.9-15.9
			C139.7,188.4,134,187.5,128.1,188z"/>
		<path class="st2" d="M158.1,40.7c-6,0.1-11.1,2.8-15.1,6.8c-9.6,9.6-26.5,8.6-35.7,1c-7.2-6-15.3-10.1-25.2-7.7
			C86.3,30.1,94,23.3,105,19.9c2.8-0.9,4.3-0.7,5.5,2.6c2.6,6.9,4.3,7.7,11.5,7.4c6.4,1.2,11-0.4,12.8-7.3c0.5-2.1,1.9-3,4.2-2.1
			C148.4,24.4,155.3,30.6,158.1,40.7z"/>
		<path class="st0" d="M171,58c0.2,0.7-0.4,0.7-0.8,0.9C170.3,58.3,170.3,57.8,171,58z"/>
		<path class="st14" d="M128.1,188c5.9-0.5,11.6,0.4,16.9,3.3c6.7,3.8,7.8,9.8,2.9,15.9c-3.7,4.6-8.9,6.8-14.1,9
			c-2.1-4-2.2-8.6-3.5-12.8c-0.5-1.8-0.9-2.8-2.9-1.6c-0.1,0.1-0.3,0.1-0.5,0.2c-8.9,3.1-8.9,3.1-6.9,12.2c0.8,3.5,2.2,7,2,10.7
			c-5.4,0-10.6-0.6-15.5-2.9c-8.1-3.9-9.4-11.2-3.1-17.8c3-3.2,7.1-4.8,10.7-7.1c2.6,1.4,5.3,2.6,8.4,1.9
			C127.6,198,129.6,194,128.1,188z"/>
		<path class="st0" d="M124.8,191.7c-0.3,2.6-1.9,4-4.2,4c-2.3,0-4.2-1.4-4.3-3.9c0-2.4,1.7-3.9,4.2-3.8
			C123,187.9,124.5,189.2,124.8,191.7z"/>
		<path class="st15" d="M99.5,61.5c0.2,0,0.4,0,0.5,0.1c0.7,1.8,0,2.9-1.7,3.4c-1.5,0.4-0.4,1.2-0.4,1.9c-3.6,0.4-6.9-0.4-10.3-1.5
			c-0.9-0.3-2.1-0.8-1.8-2c0.2-0.6,1.2-1.2,1.9-1.4c3.2-0.8,6.5-1.3,9.9-0.9C98.1,61.9,98.7,61.9,99.5,61.5z"/>
		<path class="st15" d="M147.2,61.1c3.9-1.8,7.7-0.2,11.5,0.3c0.6,0.1,1.6,0.9,1.7,1.5c0.3,1.2-1,1.6-1.9,1.9
			c-3.1,1.1-6.3,1.7-9.6,1.4c0.1-0.8,0.1-1.5,0.2-2.3C148.9,62.6,148.2,61.7,147.2,61.1z"/>
		<path class="st15" d="M102.9,61.5c3,0.5,8.2,0.2,8,2.8c-0.3,3.4-5.2,2.4-8.3,2.7c-0.5,0-1,0-1.5-0.1
			C102.9,65.5,103.6,63.7,102.9,61.5z"/>
		<path class="st15" d="M144.3,66.5c-2.3-0.2-4.6-0.4-6.8-0.8c-1-0.2-2.5-0.3-2.5-1.8c0-1.4,1.3-1.6,2.4-2c1.9-0.7,3.8-1,5.8-0.9
			C142.6,63,143.6,64.7,144.3,66.5z"/>
		<path class="st10" d="M144.3,66.5c-0.7-1.8-1.7-3.5-1.1-5.5c1,0,2.1,0,3.1,0c-0.5,2.4,0.2,3.5,2.8,2.9c-0.1,0.8-0.1,1.5-0.2,2.3
			C147.4,67.2,145.9,67.3,144.3,66.5z"/>
		<path class="st10" d="M102.9,61.5c0.7,2.2,0,4-1.8,5.4c-1.1,0-2.2-0.1-3.2-0.1c0-0.6-1.1-1.4,0.4-1.9c1.8-0.5,2.4-1.6,1.7-3.4
			C100.9,61.2,101.9,60.8,102.9,61.5z"/>
		<path class="st0" d="M149,63.8c-2.6,0.6-3.3-0.5-2.8-2.9c0.3-0.1,0.6,0,0.9,0.1C148.2,61.7,148.9,62.6,149,63.8z"/>
		<path class="st10" d="M99.5,61.5c-0.7,0.4-1.3,0.3-1.8-0.4C98.2,61.3,98.8,61.4,99.5,61.5z"/>
	</g>
</g>
</svg>
