<?xml version="1.0" encoding="utf-8"?>
<!-- Generator: Adobe Illustrator 23.0.3, SVG Export Plug-In . SVG Version: 6.00 Build 0)  -->
<svg version="1.1" id="Layer_1" xmlns="http://www.w3.org/2000/svg" xmlns:xlink="http://www.w3.org/1999/xlink" x="0px" y="0px"
	 viewBox="0 0 250 250" style="enable-background:new 0 0 250 250;" xml:space="preserve">
<style type="text/css">
	.st0{fill:none;}
	.st1{fill:#41DED0;}
	.st2{fill:#82EBDB;}
	.st3{fill:#42DDCF;}
	.st4{fill:#82EBD9;}
	.st5{fill:#38CAB0;}
	.st6{fill:#42DCCF;}
	.st7{fill:#56E0CE;}
	.st8{fill:#42DFD1;}
	.st9{fill:#43C5B3;}
	.st10{fill:#34C1B1;}
	.st11{fill:#937B5D;}
	.st12{fill:#512E28;}
	.st13{fill:#562C1B;}
</style>
<g>
	<g>
		<path class="st0" d="M123,251c-40.7,0-81.3,0-122,0C1,167.7,1,84.3,1,1c82,0,164,0,246-0.1c3.4,0,4.1,0.7,4.1,4.1
			c-0.1,80.7-0.1,161.3,0,242c0,3.4-0.7,4.1-4.1,4.1c-40.7-0.2-81.3-0.1-122-0.1c0.8-0.8,1.6-1.7,2.4-2.4c25-21,50-41.9,75-62.8
			c1.9-1.6,3.9-2.8,3.8-5.9c-0.2-7.7-0.1-15.3-0.1-23c0-1.5,0.3-3.2-2.1-3c-2.2-0.6-4.4-1.3-6.6-1.9c-14.1-3.4-28.2-6.8-42.3-10.2
			c0-11.3-0.1-22.5-0.1-33.8c4-2.5,5.8-6.4,5.9-10.8c0.3-16.1,2.8-32,2.3-48.1c6,0,9.8-3.1,11.8-8.6c0.4-1.2,0.8-2.8-0.1-3.8
			c-0.9-1.1-2.1,0.2-3.1,0.5c-2.7,0.7-5.2,2.1-8.1,1.6c0-2.8-0.4-5.7,0-8.5c0.8-5.9-1.5-10.2-5.8-14c-9.7-8.6-21.1-12-33.9-11.9
			c-10.9-0.3-21.1,2-29.9,8.7c-5.9,4.4-10.6,9.6-9.1,17.9c0.5,2.6,0,5.3,0,7.9c-3.6,0.3-6.8-1.2-10.1-2.2c-1.1-0.3-1.1-0.3-2.1,1.2
			c0.8,6.5,3.3,9.8,9.5,10.7c3.2,0.5,3.6,1.9,3.6,4.5c0.4,13.3,0.9,26.5,1.3,39.8c0.2,5.9,0.5,11.7,5.3,16c0,3.1,0.1,6.3,0,9.4
			c-0.3,8.2,0.8,16.4-0.6,24.6c-14.7,3.2-29.4,6.8-43.9,11c-2.9,0.2-1.7,2.4-1.7,3.8c-0.1,7.5,0.1,15-0.1,22.5c-0.1,3,1,4.9,3.2,6.8
			c11.1,9.5,22.2,19.1,33.2,28.7C96,227.4,109.5,239.2,123,251z"/>
		<path class="st1" d="M204,153.9c2.4-0.2,2.1,1.5,2.1,3c0,7.7-0.2,15.3,0.1,23c0.1,3.1-2,4.4-3.8,5.9c-25,21-50,41.9-75,62.8
			c-0.9,0.7-1.6,1.6-2.4,2.4c-0.3,0-0.7,0-1,0c0-16.3,0-32.6-0.1-48.9c13-7.7,26-15.3,39-23.1C176.7,170.7,190.3,162.2,204,153.9z"
			/>
		<path class="st2" d="M123.9,202.1c0,16.3,0,32.6,0.1,48.9c-0.3,0-0.7,0-1,0c-13.5-11.8-27-23.6-40.5-35.4
			c-11-9.6-22.1-19.2-33.2-28.7c-2.2-1.9-3.3-3.8-3.2-6.8c0.2-7.5,0-15,0.1-22.5c0-1.4-1.1-3.6,1.7-3.8c15.3,9.9,30.6,19.8,46,29.5
			C103.9,189.8,114,195.9,123.9,202.1L123.9,202.1z"/>
		<path class="st3" d="M123.9,4.4c12.7-0.1,24.2,3.3,33.9,11.9c4.3,3.8,6.6,8.1,5.8,14c-0.4,2.8,0,5.6,0,8.5c-2.3,1.5-5.2,2.7-5.1,6
			c0,2.9,2.7,3.4,4.7,4.3c0.5,16.1-2,32-2.3,48.1c-0.1,4.4-1.9,8.3-5.9,10.8l0,0c0.5-6.4,1.9-12.7,0.3-19.2c-0.6-2.3-1.2-3-3.6-2.2
			c-5.8,1.9-11.8,1.5-17.6-0.1c-2.2-0.6-3.3-0.6-3.3,2.3c0,5.8-1.9,7.4-7.8,7.2C123.1,65.4,124.6,34.9,123.9,4.4z M153.7,65.8
			c-7.8,1.6-15.5,3.2-23.8,4.9C141.7,77.5,152.6,74.6,153.7,65.8z"/>
		<path class="st4" d="M123.9,4.4c0.7,30.5-0.8,61-0.9,91.6c-3.9-0.6-6.6-2.4-6-6.7c0.4-3.5-0.9-3.4-3.6-2.6
			c-5.7,1.6-11.6,1.9-17.2,0.1c-3-1-3.4,0.5-3.8,2.6c-1.2,6.3-0.5,12.5,0.6,18.8c-0.2,0.3-0.4,0.6-0.6,0.9c-4.8-4.3-5.1-10.1-5.3-16
			c-0.4-13.3-0.9-26.5-1.3-39.8c-0.1-2.5-0.4-4-3.6-4.5c-6.2-0.9-8.7-4.2-9.5-10.7c3,2.6,5.5,6.3,10.1,6.1c1.9-0.1,4.7,0.7,5.4-1.3
			c0.6-1.7-1.7-2.9-3.3-3.8c0-2.6,0.5-5.4,0-7.9c-1.5-8.4,3.2-13.5,9.1-17.9C102.8,6.4,113,4.1,123.9,4.4z M116.7,70.8
			c-8.4-1.7-16-3.3-23.8-4.9C94.1,75.2,105.7,77,116.7,70.8z"/>
		<path class="st5" d="M204,153.9c-13.7,8.4-27.4,16.8-41.1,25.1c-12.9,7.8-26,15.4-39,23.1c0,0,0,0,0,0c0-12,0-24,0-36l0,0
			c2.8-0.1,5.5-0.9,8.3-1.1c13.7-0.9,22.4-9.8,22.8-23.1c14.1,3.4,28.2,6.8,42.3,10.2C199.7,152.5,201.8,153.2,204,153.9z"/>
		<path class="st6" d="M124,166c0,12,0,24,0,36c-10-6.2-20.1-12.3-30-18.6c-15.4-9.8-30.7-19.7-46-29.5c14.5-4.3,29.1-7.8,43.9-11
			c0.9,0.6,1.2,1.5,1.2,2.6c-0.5,6.8,3.1,11,8.4,14.5C108.3,164.6,116.2,164.9,124,166z"/>
		<path class="st7" d="M124,166c-7.8-1.1-15.7-1.5-22.6-6c-5.3-3.5-8.9-7.8-8.4-14.5c0.1-1-0.2-2-1.2-2.6c1.5-8.2,0.3-16.4,0.6-24.6
			c0.1-3.1,0-6.3,0-9.4c0.2-0.3,0.4-0.6,0.6-0.9c4.4,7.4,11.9,11.9,17.4,18.2c3.6,4.1,8.1,6.2,13.6,6C124,143.4,124,154.7,124,166
			L124,166z"/>
		<path class="st8" d="M124,166c0-11.3,0-22.6,0-33.8c4.6-0.2,9.5,0.2,13-3.7c6.1-6.8,12.6-13.1,18.1-20.4l0,0
			c0,11.3,0.1,22.5,0.1,33.8c-0.5,13.3-9.1,22.2-22.8,23.1C129.5,165.1,126.8,165.9,124,166z"/>
		<path class="st9" d="M163.2,49.1c-2-1-4.7-1.4-4.7-4.3c-0.1-3.4,2.8-4.5,5.1-6c2.9,0.5,5.5-0.9,8.1-1.6c1-0.3,2.2-1.5,3.1-0.5
			c0.9,1,0.5,2.6,0.1,3.8C173.1,46,169.3,49.1,163.2,49.1z"/>
		<path class="st10" d="M84.9,38.9c1.6,0.9,3.9,2.2,3.3,3.8c-0.7,2.1-3.5,1.3-5.4,1.3c-4.7,0.1-7.1-3.5-10.1-6.1
			c1-1.5,1-1.5,2.1-1.2C78.1,37.7,81.3,39.2,84.9,38.9z"/>
		<path class="st11" d="M155,108c-5.4,7.3-12,13.7-18.1,20.4c-3.5,3.9-8.3,3.6-13,3.7c-5.5,0.2-10-1.9-13.6-6
			c-5.5-6.3-13-10.8-17.4-18.2c-1.2-6.2-1.8-12.5-0.6-18.8c0.4-2.1,0.8-3.6,3.8-2.6c5.6,1.9,11.5,1.6,17.2-0.1
			c2.7-0.8,4-0.9,3.6,2.6c-0.5,4.3,2.1,6.2,6,6.7c5.9,0.2,7.9-1.4,7.8-7.2c0-2.9,1-2.9,3.3-2.3c5.8,1.6,11.8,2.1,17.6,0.1
			c2.4-0.8,3-0.1,3.6,2.2C157,95.3,155.5,101.6,155,108z M111,102c-0.4-0.3-0.7-0.5-1.1-0.7c0,0-0.2,0.2-0.3,0.4
			C110.1,101.7,110.5,101.9,111,102c1,1.3,2.4,1.8,4,1.9c6.2,1.7,12.4,1.1,18.7,0.3c-6.2-0.5-12.5-0.9-18.7-1.4
			C113.9,101.6,112.4,102,111,102z"/>
		<path class="st11" d="M153.7,65.8c-1.1,8.8-12,11.7-23.8,4.9C138.2,69,145.9,67.4,153.7,65.8z"/>
		<path class="st11" d="M116.7,70.8c-11,6.2-22.6,4.4-23.8-4.9C100.7,67.5,108.3,69,116.7,70.8z"/>
		<path class="st12" d="M115,102.8c6.2,0.5,12.5,0.9,18.7,1.4c-6.3,0.8-12.5,1.4-18.7-0.3C115,103.5,115,103.2,115,102.8z"/>
		<path class="st13" d="M115,102.8c0,0.4,0,0.7,0,1.1c-1.6-0.1-3-0.6-4.1-1.9l0,0C112.4,102,113.9,101.6,115,102.8z"/>
		<path class="st13" d="M111,102c-0.5-0.1-0.9-0.3-1.4-0.4c0.1-0.1,0.3-0.4,0.3-0.4C110.3,101.5,110.6,101.7,111,102
			C111,102,111,102,111,102z"/>
	</g>
</g>
</svg>
