<?xml version="1.0" encoding="utf-8"?>
<!-- Generator: Adobe Illustrator 23.0.3, SVG Export Plug-In . SVG Version: 6.00 Build 0)  -->
<svg version="1.1" id="Layer_1" xmlns="http://www.w3.org/2000/svg" xmlns:xlink="http://www.w3.org/1999/xlink" x="0px" y="0px"
	 viewBox="0 0 250 250" style="enable-background:new 0 0 250 250;" xml:space="preserve">
<style type="text/css">
	.st0{fill:none;}
	.st1{fill:#F18C49;}
	.st2{fill:#F9AC8E;}
	.st3{fill:#FDA173;}
	.st4{fill:#F08C46;}
	.st5{fill:#F6B7A3;}
	.st6{fill:#F28E48;}
	.st7{fill:#FFA274;}
	.st8{fill:#E2773E;}
	.st9{fill:#AA7F61;}
	.st10{fill:#F9C015;}
	.st11{fill:#EA8A48;}
	.st12{fill:#FBDA0F;}
	.st13{fill:#1D88C1;}
	.st14{fill:#FCE482;}
	.st15{fill:#825034;}
	.st16{fill:#7A5935;}
	.st17{fill:#EE4C34;}
	.st18{fill:#512E28;}
</style>
<g>
	<g>
		<path class="st0" d="M124,251c-41,0-82,0-123,0C1,167.7,1,84.3,1,1c82,0,164,0,246-0.1c3.4,0,4.1,0.7,4.1,4.1
			c-0.1,80.7-0.1,161.3,0,242c0,3.4-0.7,4.1-4.1,4.1c-40.3-0.2-80.7-0.1-121-0.1c-0.1-0.3-0.1-0.7-0.2-1
			c26.1-21.9,52.2-43.9,78.4-65.8c1.4-1.2,2-2.4,2-4.2c-0.1-8.3-0.2-16.6-0.3-25c-0.2-1.4-1.4-1.2-2.3-1.4
			c-15.8-3.7-31.7-7.3-47.6-11c-0.2-9.6-0.4-19.1-0.5-28.7c0-1.4,0.1-2.7,0.1-4.1c0.4-0.9,0.9-1.8,1.3-2.8c1.5-1.1,2.3-2.7,3-4.3
			c1.9-4.1,0.8-8.7,1.9-12.9c4.8-0.2,6.5-3.4,6.9-7.4c0.3-2.4-0.1-4.9-0.1-7.3c1.4-4.2,3.7-8.3-0.3-12.4c0,0-0.1-0.1-0.1-0.1
			c0.6-1.3-0.3-2-1.2-2.7c-0.4-1.6-1.8-2.2-3.1-2.8c-0.1-9.3-0.4-18.6-0.1-27.8c0.1-4-1.2-7-3.9-9.8c-9.9-10.2-22.1-14.1-36-13.6
			c-2.6-0.9-5.3,0-7.9,0.3c-11.3,1.3-21,5.7-28.1,15c-1.2,1.6-2.3,3.2-2.2,5.4c0.4,9.9,0.7,19.9,1,29.8c-1.3,0.9-3.1,1.1-3.9,2.7
			c-5.6,4.8-6.1,9.6-1.8,17.3c-0.1,4.6-1.6,10,3.5,12.5c3.6,1.8,3.6,4,3.5,7c-0.1,5.5,1,10.5,5.9,13.9l0-0.1
			c-0.7,1.8-0.6,3.6-0.1,5.4c-0.9,1.9-0.4,3.9-0.4,5.9c-0.3,7.4,0.6,14.9-0.5,22.2c-14,3.5-28.1,7-42.1,10.5c-2.7,0-3.5,1.5-3.5,4.1
			c0.2,7.5,0.2,15,0,22.4c-0.1,3,0.9,4.9,3.1,6.8c15.9,13.6,31.8,27.2,47.6,41C106.8,235.5,116.1,242.5,124,251z"/>
		<path class="st1" d="M124,251c-7.9-8.5-17.2-15.5-25.9-23.1c-15.7-13.8-31.7-27.4-47.6-41c-2.2-1.9-3.2-3.9-3.1-6.8
			c0.2-7.5,0.2-15,0-22.4c-0.1-2.7,0.7-4.1,3.5-4.1c3.1,3.8,7.9,3.8,12,5.3c20.3,7.6,40.7,14.8,61.1,22.2c0.3,0,0.6,0.1,0.9,0.1
			c0,21.2,0,42.4,0.1,63.7c0,1.8-0.6,3.7,0.8,5.2c0.1,0.3,0.1,0.7,0.2,1C125.3,251,124.7,251,124,251z"/>
		<path class="st2" d="M125.8,250c-1.4-1.6-0.8-3.5-0.8-5.2c-0.1-21.2-0.1-42.4-0.1-63.7c2.1-0.5,4.2-1,6.2-1.7
			c25-8.1,49.9-16.3,74.9-24.5c0.1,8.3,0.1,16.6,0.3,25c0,1.8-0.6,3.1-2,4.2C178,206.1,151.9,228.1,125.8,250z"/>
		<path class="st3" d="M124,5.8c13.9-0.5,26.1,3.4,36,13.6c2.7,2.7,4,5.7,3.9,9.8c-0.2,9.3,0.1,18.5,0.1,27.8
			c-2.4-0.8-4.8-0.9-7.3-0.9c-10.9,0-21.8-0.1-32.8-0.2C124,39.2,124,22.5,124,5.8z"/>
		<path class="st4" d="M124,5.8c0,16.7,0,33.4,0,50.1c-12.4,0.1-24.8,0.2-37.2,0.3c-0.3-9.9-0.6-19.9-1-29.8c-0.1-2.2,1-3.8,2.2-5.4
			c7.1-9.3,16.8-13.6,28.1-15C118.7,5.8,121.4,5,124,5.8z"/>
		<path class="st5" d="M205.9,155c-25,8.2-49.9,16.3-74.9,24.5c-2,0.7-4.1,1.1-6.2,1.7c-0.3,0-0.6-0.1-0.9-0.1c0-5,0-10,0.1-15
			c0.3,0,0.6-0.1,0.8-0.1c2.6-0.3,5.3-0.5,7.8-0.9c12.4-2.1,24.1-8.4,23.4-22.3c15.9,3.6,31.7,7.3,47.6,11
			C204.5,153.8,205.8,153.6,205.9,155z"/>
		<path class="st6" d="M124.9,165.9c-0.3,0.1-0.6,0.1-0.8,0.1c-4.7-0.8-9.5-1.2-14-2.6c-9-2.9-17-7.1-16.2-18.8
			c0-0.5-0.6-1.1-0.9-1.7c1.1-7.4,0.2-14.8,0.5-22.2c0.1-2-0.4-4,0.4-5.9c6,4.2,11.1,9.5,16.1,14.8c4.1,4.4,8.7,7.1,14.9,6.4
			C124.9,146,124.9,155.9,124.9,165.9z"/>
		<path class="st7" d="M124.9,165.9c0-9.9,0-19.9,0-29.8c9.2,1.4,14-5.1,19-11c3.5-4.1,6.8-8.4,11.7-11.2c0.2,9.6,0.4,19.1,0.5,28.7
			c0.8,13.9-11,20.2-23.4,22.3C130.2,165.4,127.5,165.6,124.9,165.9z"/>
		<path class="st8" d="M93,143c0.3,0.6,0.9,1.1,0.9,1.7c-0.8,11.6,7.1,15.8,16.2,18.8c4.5,1.4,9.3,1.8,14,2.6c0,5,0,10-0.1,15
			c-20.4-7.4-40.8-14.6-61.1-22.2c-4.1-1.5-8.9-1.5-12-5.3C64.9,150,78.9,146.5,93,143z"/>
		<path class="st9" d="M94,109.4l0,0.1c-0.8-6.4-2.1-12.8-0.8-19.3c0.4-1.9,0.6-3.9,3.7-3c7.1,2.1,14.1,1.1,21-1
			c-0.5,6.8,1.1,9.4,6.9,10.8c0.2,6.4,0.2,6.2-5.9,6c-2.4-0.1-4.8-1.7-8.1-0.6c3.8,2.4,7.4,2.4,10.7,3.1c2.7,0.6,3.5,1.7,3.4,4.3
			c-0.1,7.3-0.1,14.6-0.1,22c-4.2,0.7-8.1,0-11.2-2.9C107.1,122.6,100.6,116,94,109.4z"/>
		<path class="st10" d="M81.1,76.2c-4.2-7.7-3.7-12.5,1.8-17.3l0,0c0,0.6-0.1,1.3-0.1,1.9c-0.1,0.2-0.3,0.4-0.4,0.7
			c0.2-0.1,0.5-0.2,0.7-0.4c13.9-0.1,27.9-0.2,41.8-0.3c0,1.3,0,2.7,0,4c-11.5,0-23,0.1-34.4,0.1c-2.1,0-4.5-0.6-4.5,2.9
			c0,3.5,2.4,2.9,4.5,2.9c11.5,0.1,22.9,0.1,34.4,0.1c-0.1,1.4-0.1,2.8-0.2,4.2c-5.1,4.3-11,5.2-17.5,4.8c-4.8-0.3-9.6-0.2-14.4,0
			C88.5,80.2,84.6,79.2,81.1,76.2z"/>
		<path class="st11" d="M81.1,76.2c3.4,3,7.4,4,11.9,3.8c4.8-0.2,9.6-0.3,14.4,0c6.5,0.5,12.4-0.4,17.5-4.8c0,0.2,0.1,0.5,0.1,0.7
			c0,2.7-0.1,5.4-0.1,8c-2.3,0.8-4.6,1.5-6.9,2.3c-6.9,2.1-14,3.1-21.1,1c-3.1-0.9-3.3,1.1-3.7,3c-1.3,6.5,0,12.9,0.8,19.3
			c-4.9-3.4-5.9-8.4-5.9-13.9c0-2.9,0-5.2-3.5-7C79.6,86.2,81,80.8,81.1,76.2z"/>
		<path class="st12" d="M125,76c-0.1-0.2-0.1-0.4-0.1-0.7c0.1-1.4,0.1-2.8,0.2-4.2c10.8,0,21.6-0.1,32.5-0.1c2.1,0,4.5,0.7,4.5-2.9
			c0-3.6-2.4-2.9-4.5-2.9C146.7,65,135.8,65,125,64.9c0-1.3,0-2.7,0-4c14,0.4,28.1-1.3,42,1.1l0,0c0.5,0.2,1,0.5,1.4,0.7
			c4,4,1.7,8.2,0.3,12.4c-0.9,0.7-1.8,1.4-2.7,2.1c-0.2-1.7-1.2-2.3-2.7-2c-9.7,1.9-19.5,0.4-29.2,0.9c-2.1,0.1-4.3-0.1-6.3,1.1
			C126.9,76.7,126,76.3,125,76z"/>
		<path class="st3" d="M125,76c0.9,0.4,1.9,0.8,2.8,1.1c1.1,1.3,2.5,2.3,4.2,2.7c9.3,0,18.6,0,27.9,0c0.7,0,1.4,0.1,2,0.1
			c0,3.3,0,6.7,0,10c-1,4.3,0,8.8-1.9,12.9c-0.8,1.6-1.5,3.3-3,4.3c-0.6,0-1.1,0-1.7,0c1.3-5.6,1.4-11.2,0.5-16.8
			c-0.2-1.4-0.1-4-2.6-3.2c-7.6,2.3-15,0.8-22.4-0.6c-1.8-0.6-3.7-1.1-5.6-1.7c0-0.3-0.1-0.6-0.3-0.8C124.9,81.3,125,78.6,125,76z"
			/>
		<path class="st8" d="M94,109.4c6.6,6.5,13.1,13.2,19.8,19.6c3.1,2.9,7,3.6,11.2,2.9c6.6,1.2,11.5-1.3,15.6-6.3
			c4.5-5.5,9.5-10.6,14.3-15.8l0.4,0.1l0.4,0c0,1.4-0.1,2.7-0.1,4.1c-4.8,2.8-8.1,7-11.7,11.2c-5,5.9-9.8,12.3-19,11
			c-6.2,0.7-10.8-2-14.9-6.4c-5-5.3-10.1-10.6-16.1-14.8C93.4,113.1,93.3,111.2,94,109.4z"/>
		<path class="st10" d="M86.8,56.2c12.4-0.1,24.8-0.2,37.2-0.3c10.9,0.1,21.8,0.2,32.8,0.2c2.5,0,4.9,0.2,7.3,0.9
			c1.3,0.6,2.7,1.2,3.1,2.8L167,60c-4.3-2.3-8.9-3.1-13.9-3c-13.3,0.2-26.6-0.1-40,0.1C103.1,57.2,92.9,55.7,83,59c0,0,0,0,0,0
			C83.7,57.3,85.5,57.1,86.8,56.2z"/>
		<path class="st8" d="M161.9,89.8c0-3.3,0-6.7,0-10c0.1-0.2,0.1-0.5,0.2-0.7c0.9,0,1.8-0.1,2.3-1c0.7,0,1.3-0.2,1.5-1
			c0.9-0.7,1.8-1.4,2.7-2.1c0.1,2.4,0.4,4.9,0.1,7.3C168.4,86.5,166.7,89.6,161.9,89.8z"/>
		<path class="st13" d="M155.7,109.9l-0.4,0c0,0-0.4-0.1-0.4-0.1c0.2-0.9,0.3-1.8,0.5-2.7c0.6,0,1.1,0,1.7,0
			C156.6,108,156.1,109,155.7,109.9z"/>
		<path class="st10" d="M167.2,59.9c0.9,0.7,1.8,1.4,1.2,2.7c-0.5-0.2-0.9-0.4-1.4-0.6c0,0,0,0,0.1,0c0-0.7,0-1.4,0-2L167.2,59.9z"
			/>
		<path class="st14" d="M167,62c0.5,0.2,0.9,0.4,1.4,0.6c0,0,0.1,0.1,0.1,0.1C167.9,62.5,167.5,62.2,167,62z"/>
		<path class="st15" d="M155.3,107.1c-0.2,0.9-0.3,1.8-0.5,2.7c-4.8,5.3-9.7,10.4-14.3,15.8c-4.2,5-9.1,7.6-15.6,6.3
			c0-7.3-0.1-14.7,0.1-22c0.1-2.6-0.7-3.8-3.4-4.3c-3.3-0.7-6.9-0.7-10.7-3.1c3.3-1.1,5.7,0.5,8.1,0.6c6,0.2,6,0.4,5.9-6
			c0,0,0.3-0.4,0.3-0.4c5.3-1.1,6.1-2.6,5.5-10.2c7.4,1.4,14.9,2.9,22.5,0.6c2.5-0.8,2.4,1.8,2.6,3.2
			C156.7,95.9,156.6,101.6,155.3,107.1z"/>
		<path class="st16" d="M124.9,84c0.2,0.3,0.3,0.5,0.3,0.8c0,4,0,7.9,0,11.9c0,0-0.3,0.3-0.3,0.4c-5.8-1.5-7.4-4-6.9-10.8
			C120.3,85.5,122.6,84.8,124.9,84z"/>
		<path class="st17" d="M125,64.9c10.8,0,21.6,0.1,32.5,0.1c2.1,0,4.5-0.7,4.5,2.9c0,3.6-2.4,2.9-4.5,2.9
			C146.7,71,135.8,71,125,71.1c-11.5,0-23-0.1-34.4-0.1c-2.1,0-4.5,0.6-4.5-2.9c0-3.5,2.4-2.9,4.5-2.9C102.1,65,113.5,65,125,64.9z"
			/>
		<path class="st14" d="M167,60c0,0.7,0,1.4,0,2c-14-2.4-28-0.7-42-1.1c-13.9,0.1-27.9,0.2-41.8,0.3l-0.3-0.3c0-0.6,0.1-1.3,0.1-1.9
			c9.9-3.3,20.1-1.8,30.2-1.9c13.3-0.2,26.6,0.1,40-0.1C158.1,56.9,162.7,57.6,167,60z"/>
		<path class="st14" d="M83.2,61.2c-0.2,0.1-0.5,0.2-0.7,0.4c0.1-0.2,0.3-0.4,0.4-0.7C82.9,60.9,83.2,61.2,83.2,61.2z"/>
		<path class="st10" d="M166,77.2c-0.2,0.8-0.8,1-1.5,1c-0.7,0.5-2.4-1.3-2.3,1c-0.1,0.2-0.2,0.5-0.2,0.7c-0.7,0-1.4-0.1-2-0.1
			c-9.3-1.2-18.6-1.3-27.9,0c-1.7-0.4-3-1.4-4.2-2.7c1.9-1.3,4.1-1,6.3-1.1c9.7-0.4,19.5,1,29.2-0.9C164.9,74.8,165.9,75.5,166,77.2
			z"/>
		<path class="st18" d="M125.3,96.7c0-4,0-7.9,0-11.9c1.9,0.6,3.7,1.1,5.6,1.7C131.4,94.2,130.6,95.6,125.3,96.7z"/>
		<path class="st12" d="M132,79.8c9.3-1.3,18.6-1.3,27.9,0C150.6,79.8,141.3,79.8,132,79.8z"/>
		<path class="st12" d="M162.2,79.1c-0.1-2.3,1.6-0.5,2.3-1C164,79,163.1,79.1,162.2,79.1z"/>
	</g>
</g>
</svg>
