<?xml version="1.0" encoding="utf-8"?>
<!-- Generator: Adobe Illustrator 23.0.3, SVG Export Plug-In . SVG Version: 6.00 Build 0)  -->
<svg version="1.1" id="Layer_1" xmlns="http://www.w3.org/2000/svg" xmlns:xlink="http://www.w3.org/1999/xlink" x="0px" y="0px"
	 viewBox="0 0 250 250" style="enable-background:new 0 0 250 250;" xml:space="preserve">
<style type="text/css">
	.st0{fill:#FFFFFF;}
	.st1{fill:none;}
	.st2{fill:#FBEF0D;}
	.st3{fill:#FCDF8D;}
	.st4{fill:#FCD797;}
	.st5{fill:#1F29EA;}
	.st6{fill:#101CBF;}
	.st7{fill:#FFC67B;}
	.st8{fill:#F8E00E;}
	.st9{fill:#2278BA;}
	.st10{fill:#238CBC;}
	.st11{fill:#CC965C;}
	.st12{fill:#2D2DF7;}
	.st13{fill:#B27746;}
	.st14{fill:#4B3422;}
	.st15{fill:#F6BF9A;}
	.st16{fill:#F82A37;}
	.st17{fill:#FEC71A;}
	.st18{fill:#C10E22;}
	.st19{fill:#7A5935;}
	.st20{fill:#BA593F;}
	.st21{fill:#F69F78;}
</style>
<rect x="81.8" y="67.5" class="st0" width="83.8" height="30.3"/>
<g>
	<g>
		<path class="st1" d="M122,251c-40.3,0-80.7,0-121,0C1,167.7,1,84.3,1,1c82,0,164,0,246-0.1c3.4,0,4.1,0.7,4.1,4.1
			c-0.1,80.7-0.1,161.3,0,242c0,3.4-0.7,4.1-4.1,4.1c-41.3-0.2-82.7-0.1-124-0.1c0.3-0.6,0.7-1.3,1-1.9c0.7-0.6,1.3-1.1,2-1.7
			c4.9-3.6,9.5-7.4,13.8-11.6c0.7-0.6,1.4-1.3,2.2-1.9c15.7-13.1,31.2-26.5,47.2-39.2c5.9-4.6,8.2-9.5,6.7-16.5c0-4.7,0-9.4,0-14.1
			c-0.4-2.3-2.5-1.8-3.9-2.1c-6.1-1.6-12.1-3.1-18.2-4.6c0.1-2.9,0.3-5.7,0.4-9.1c3.5,2.7,5.6,5.8,8.9,7.5
			c5.3,2.9,10.6,2.2,14.5-1.9c1.5-1.6,2.2-2.7-0.3-4.1c-6.6-3.8-10.6-9.8-13.9-16.5c-5.4-10.8-7.5-22.6-9.7-34.3
			c0.4-1.6,0.7-3.2,1.2-4.8c4.4-14.9,6.8-30.1,5-45.7c-2.1-17.7-8.1-33.1-25.6-40.9C144.7,3.3,134.5,1.3,124,5
			c-3.6-1.5-7.5-1.2-11.3-1.2C88.5,3.7,72.5,15.9,67.1,39.4c-5.3,22.9-2,45.2,6.4,66.9c0.8,2.2,2,4.2,1.5,6.7
			c-0.2,0.3-0.4,0.6-0.5,0.9c-4.3,12-8.6,23.9-20.7,30.6c-1.8,1-0.8,2.1,0.1,3.2c4,5.2,10.4,5.6,17,1.3c2.4-1.6,3.8-4.4,6.9-5.5
			c0.4,4.6,0.2,8.7-0.6,12.8c-5.5,1.5-11.1,3.1-16.6,4.5c-8.8,2.2-8.8,2.2-8.2,11.2c0,3.3,0,6.6,0,9.8c-1.3,5.6,0.6,9.6,5.2,13.2
			c8,6.2,15.4,13.3,23.2,19.8c9.1,7.6,17.5,15.9,27.1,22.8v-0.1c3.9,4.4,8.3,8.2,13.2,11.4l-0.1-0.1c0.3,0.3,0.5,0.6,0.8,0.9
			C121.8,250.3,121.9,250.6,122,251z"/>
		<path class="st2" d="M124,249.1c-0.3,0.6-0.7,1.3-1,1.9c-0.3,0-0.7,0-1,0c-0.1-0.4-0.2-0.7-0.2-1.1c-0.1-0.5,0-1.1-0.8-0.9
			l0.1,0.1c0.5-1.9-0.2-3.6-0.6-5.4c-0.7-3.1-0.5-7.2-2.4-8.9c-2.8-2.5-5.4,2.3-8.6,2.4c-0.2,0-0.3,0-0.5-0.1
			c-0.7-1.8,0.5-3.3,1.4-4.5c2.9-4.3,1.3-6.1-3.2-7.4c-4.4-1.2-8.6-3-13.6-4.9c2.5-1.4,4.2-1.4,6-1.3c2.5-0.4,4.8-1.6,6.8-3.1
			c1.2,0.4,2.6,1.9,3.5,0.4c1.3-2.2-2.1-3.5-1.8-5.7c3.4-1.4,6.8,4.3,9.8,0.6c2.2-2.7,3.2-6.5,4.7-9.8c0.2-0.4,0.4-0.9,0.6-1.4
			c0.3,0,0.6,0,0.9,0c0,0.3,0,0.6,0,1C124,217,124,233.1,124,249.1z"/>
		<path class="st3" d="M124.1,200.9c0-0.3,0-0.6,0-0.9c-0.3-0.3-0.6-0.6-0.8-0.9c-1-11.2,0.2-22.4-1.4-33.7
			c-1.1-7.7-2.7-12.7-10-15.4c-1.4-0.5-2.7-1.4-3.9-2.3c-2.9-2.2-4.4-2.6-5.2,2.1c-1.8,9.8-11.9,15.8-21.2,13.3
			c2.6-3,6.1-5.3,7.6-9.1c6.3-7.8,3.4-18.6-1.4-24.7c-3.5-4.4-6.8-8.9-9.8-13.7c-0.7-1.1-1.1-2.5-2.7-2.5c0.5-2.4-0.7-4.5-1.5-6.7
			c-8.5-21.7-11.7-44-6.4-66.9C72.8,16,88.8,3.7,113,3.9c3.8,0,7.7-0.3,11.3,1.2c0,6.2,0,12.5,0,18.7c-3.3,0.5-4.3,5-8.5,4.3
			c-10-1.6-17.9,7.1-20.6,14.6C92,51.5,91.4,60.8,91.1,70c0,0.5,0,1,0,1.4c-1.4,1.6-0.8,3.6-1,5.4c-4.1,0.9-0.3,2.9-0.6,4.4
			c-0.9,5.2,0.2,10.3,0.8,15.4c1.7,12.3,5,24.1,14.9,32.7c-0.1,1-0.2,2-0.3,3c-3.3,6-2.5,9.4,3.1,12.6c3.6,2,7.1,4.3,10.8,5.9
			c3.4,1.5,4.9,3.6,4.6,7.2c-0.1,1.5-0.6,3.2,1.7,5c0-2.6,0-4.3,0-6.1c-0.1-1.9,0.2-3.6,2.3-4.5c3.9-1.7,7.8-3.6,11.7-5.3
			c0.3,1,0.7,2,1,3.1c-0.3,0-0.7,0-1,0.1c-9.7,2.6-14.2,8.5-12.2,18.7c-1.9,1.6-1.1,3.7-1.2,5.6c-0.3,8.3,0.6,16.6-0.5,24.9
			C124.8,200,124.4,200.4,124.1,200.9z"/>
		<path class="st4" d="M140,150.1c-0.3-1-0.7-2-1-3.1c0-2.4,0-4.8,0-7.2c1.2-2.8,1.5-5.8,2-8.7c1.6-3.6,2.4-7.5,4.6-10.9
			c6.9-10.9,9.5-23,9.3-35.8c0.9-1.2,1.8-2.3,2.6-3.5c0.6-1.1,1.9-2.3,1.1-3.4c-1-1.3-2.3,0.6-3.5,0.4c0.1-2.2-0.1-4.3-0.9-6.4
			c-0.1-0.6-0.1-1.2-0.2-1.8c-0.1-9.6-0.4-19.2-3.9-28.3s-9.6-13.5-19.3-13.4c-3.4,0-5.2-1.5-6.7-4.1c0-6.2,0-12.5,0-18.7
			c10.5-3.7,20.7-1.7,30.3,2.6C171.9,15.6,178,31,180,48.7c1.8,15.6-0.5,30.8-5,45.7c-0.5,1.6-0.8,3.2-1.2,4.8
			c-4.6,10.5-9.2,20.8-17.3,29.4c-3.7,3.9-6.2,9-6.4,14.8c0,0.6,0.1,1.2,0.1,1.9c-0.2,2.1,1,3.8,1.8,5.6c0.4,0.5,0.7,0.9,1.1,1.4
			L153,152c-0.4,1.8,0.4,3.1,1.8,4.2c0.8,3.3,4.5,4.6,5.7,7.7c-4.6,0.9-8.4-1-12.3-2.1C144,158.9,140.8,155.3,140,150.1z"/>
		<path class="st5" d="M89,154c-1.5,3.9-5,6.1-7.6,9.1c9.3,2.6,19.5-3.5,21.2-13.3c0.8-4.7,2.3-4.3,5.2-2.1c1.2,0.9,2.5,1.8,3.9,2.3
			c7.3,2.7,8.9,7.7,10,15.4c1.6,11.3,0.4,22.5,1.4,33.7c-0.1,0.3-0.1,0.6,0,1c-0.2,0.5-0.4,0.9-0.6,1.4c-1.5,3.3-2.5,7.1-4.7,9.8
			c-3,3.6-6.4-2-9.8-0.6c-0.4,2.2,3.1,3.5,1.8,5.7c-0.9,1.5-2.3,0-3.5-0.4c-18-14.6-35.9-29.2-53.9-43.8c-0.6-9-0.6-8.9,8.2-11.2
			c5.6-1.4,11.1-3,16.6-4.5C81.1,155.5,85.1,154.7,89,154z"/>
		<path class="st6" d="M148.2,161.8c4,1,7.8,3,12.3,2.1c-1.2-3.2-4.9-4.4-5.7-7.7c1-0.4,1.2-1.3,1.2-2.2c5.9,1.2,11.9,2.3,17.8,3.5
			c6.1,1.5,12.1,3,18.2,4.6c1.5,0.4,3.5-0.1,3.9,2.1c-0.9,0.7-1.8,1.4-2.7,2.2c-18.9,17.1-37.9,34.1-56.8,51.2
			c-0.2-0.2-0.4-0.4-0.6-0.6c0.3-2.7,2.9-4.7,2.7-8.1c-1.6,0.8-2.9,1.4-4.1,2.2c-3.1,2.1-5.1,2.2-6.1-2.1c-0.7-3.2-2.1-6.3-3.2-9.4
			c1.1-8.3,0.2-16.6,0.5-24.9c0.1-1.9-0.7-4.1,1.2-5.6C134.8,169.2,141.5,165.4,148.2,161.8z"/>
		<path class="st7" d="M173.9,157.4c-5.9-1.2-11.9-2.3-17.8-3.5c-0.3-0.3-0.7-0.6-1-0.9c-0.1-0.6-0.2-1.2-1.1-1h0.1
			c0.3-2.9-1.8-4.9-3-7.2c0-0.8-0.2-1.4-1-1.7c0.2-5.8,2.7-10.8,6.4-14.8c8.1-8.5,12.7-18.9,17.3-29.4c2.3,11.7,4.4,23.5,9.7,34.3
			c3.3,6.6,7.3,12.7,13.9,16.5c2.5,1.4,1.8,2.5,0.3,4.1c-3.9,4.1-9.3,4.8-14.5,1.9c-3.2-1.8-5.4-4.8-8.9-7.5
			C174.1,151.7,174,154.5,173.9,157.4z"/>
		<path class="st8" d="M136.5,217.5c18.9-17.1,37.9-34.1,56.8-51.2c0.9-0.8,1.8-1.4,2.7-2.2c0,4.7,0,9.4,0,14.1
			c-17.2,13.7-34.5,27.4-51.7,41c0.5,1.3,2.6,0.7,2.2,2.5c-1.7,0.5-3.5,0.9-5.3,1.4c-5.9,1.7-6.3,3.1-2.2,7.5c1,1.1,2,2.2,3,3.3
			c-0.7,0.6-1.4,1.3-2.2,1.9c-3.2-0.8-6.4-1.5-9.6-2.5c-2.2-0.7-2.6,0.6-2.8,2.2c-0.5,3.9-0.9,7.9-1.4,11.9c-0.7,0.6-1.3,1.1-2,1.7
			c0-16.1,0-32.1,0-48.2c0.4-0.5,0.8-1,1.1-1.5c1.1,3.1,2.4,6.2,3.2,9.4c1,4.3,3,4.2,6.1,2.1c1.2-0.8,2.5-1.4,4.1-2.2
			c0.2,3.3-2.4,5.3-2.7,8.1c-0.2,0.2-0.6,0.6-0.5,0.7C135.7,218.2,136.1,217.8,136.5,217.5z M184.7,182.4c0.1-0.2,0.2-0.3,0.3-0.4
			c-0.3,0-0.6,0-0.9,0.1c-0.5,0.1-0.5,0.4-0.1,0.6c0.2,0.1,0.5-0.2,1-0.7l0.4-0.2l-0.2-0.2C185.2,181.6,185,182,184.7,182.4z
			 M160.6,201.3c-0.2,0.2-0.4,0.5-0.6,0.7c0.2,0,0.3,0,0.5,0c0.3-0.1,0.6-0.2,0.8-0.3c-0.2-0.1-0.5-0.2-1.3,0.4l-0.4,0.2l0.2,0.2
			C159.8,202.4,160,202,160.6,201.3z M166.3,197.7c0.1-0.3,0.3-0.5,0.4-0.8c-0.3,0-0.5-0.1-0.8,0c-0.1,0-0.3,0.4-0.2,0.4
			C165.8,197.4,166.1,197.5,166.3,197.7z M178.9,187.3c0.1-0.3,0.3-0.5,0.4-0.8c-0.3,0-0.6-0.1-0.8,0c-0.1,0-0.2,0.3-0.2,0.4
			C178.5,187.1,178.7,187.2,178.9,187.3z M172.8,192c-0.1-0.1-0.1-0.3-0.2-0.4c-0.1,0.1-0.3,0.2-0.3,0.3s0.1,0.3,0.2,0.4
			C172.6,192.3,172.7,192.1,172.8,192z"/>
		<path class="st7" d="M89,154c-4,0.8-7.9,1.5-11.9,2.3c0.9-4.1,1.1-8.2,0.6-12.8c-3,1.1-4.5,3.9-6.9,5.5c-6.6,4.3-12.9,3.9-17-1.3
			c-0.9-1.1-1.9-2.2-0.1-3.2c12-6.7,16.4-18.6,20.7-30.6c0.1-0.3,0.3-0.6,0.5-0.9c1.7,0,2.1,1.4,2.7,2.5c3,4.8,6.3,9.3,9.8,13.7
			C92.5,135.4,95.4,146.2,89,154z"/>
		<path class="st9" d="M142,233.9c-1-1.1-2-2.2-3-3.3c-4.1-4.4-3.7-5.9,2.2-7.5c1.8-0.5,3.5-0.9,5.3-1.4c0.4-1.8-1.7-1.2-2.2-2.5
			c17.2-13.6,34.4-27.3,51.7-41c1.5,7-0.8,11.9-6.7,16.5C173.2,207.4,157.7,220.8,142,233.9z"/>
		<path class="st10" d="M99.5,218.9c-1.8,0-3.5-0.1-6,1.3c5.1,1.9,9.3,3.7,13.6,4.9c4.5,1.2,6.1,3.1,3.2,7.4c-0.8,1.2-2,2.7-1.4,4.5
			l0.1-0.1c-0.4,0.2-0.8,0.5-1.2,0.7c-9.6-6.9-18-15.2-27.1-22.8c-7.8-6.5-15.2-13.6-23.2-19.8c-4.7-3.6-6.5-7.6-5.2-13.2
			c15.4,11.4,30.8,22.9,46.3,34.3C99.6,216.9,100.7,217.5,99.5,218.9z"/>
		<path class="st8" d="M99.5,218.9c1.2-1.4,0.1-2-0.8-2.7c-15.4-11.4-30.8-22.9-46.3-34.3c0-3.3,0-6.6,0-9.8
			c18,14.6,35.9,29.2,53.9,43.8C104.2,217.3,102,218.5,99.5,218.9z M95,211c-0.1-0.1-0.3-0.2-0.4-0.2C94.7,210.8,94.9,210.9,95,211
			c0.4,0.4,0.6,1.3,1.3,0.4C95.9,211.2,95.4,211.1,95,211z"/>
		<path class="st9" d="M126,247.4c0.5-4,0.9-7.9,1.4-11.9c0.2-1.6,0.6-2.9,2.8-2.2c3.2,1,6.4,1.7,9.6,2.5
			C135.5,240,130.9,243.9,126,247.4z"/>
		<path class="st10" d="M108.9,237c0.2,0,0.3,0.1,0.5,0.1c3.2-0.1,5.8-4.9,8.6-2.4c1.9,1.8,1.7,5.9,2.4,8.9c0.4,1.8,1.1,3.5,0.6,5.4
			c-4.9-3.2-9.3-7-13.2-11.4C108.5,238,108.9,237.8,108.9,237L108.9,237z"/>
		<path class="st2" d="M109.1,236.9c-0.1,0.8-0.5,1-1.2,0.6v0.1C108.3,237.4,108.7,237.2,109.1,236.9z"/>
		<path class="st10" d="M121,248.9c0.8-0.2,0.7,0.5,0.8,0.9C121.5,249.6,121.2,249.2,121,248.9z"/>
		<path class="st8" d="M123.2,200c-0.1-0.3-0.1-0.6,0-1c0.3,0.3,0.6,0.6,0.8,0.9C123.7,200,123.4,200,123.2,200z"/>
		<path class="st11" d="M124,23.8c1.4,2.6,3.2,4.2,6.6,4.1c9.7-0.1,15.7,4.2,19.3,13.4c3.5,9.1,3.9,18.7,3.9,28.3
			c-8.4-2.7-16.7-0.2-18.5,6.3c5.9-4.3,11.6-7.8,18.7-4.5c0.8,2,1,4.2,0.9,6.4c-2,0-3.9,0.1-5.9,0.1c-5,0.2-9.8,0.7-13.1,5.1
			l0.1-0.1c-0.6,0.1-1,0.4-1.1,1.1c-1.2,0.2-0.8,0.9-0.5,1.5c5.1,4.6,12.1,4.5,17.4-0.2c1-0.3,2-0.7,3-1c0.2,12.8-2.4,24.9-9.3,35.8
			c-2.1,3.4-3,7.3-4.6,10.9c-0.6,0.5-1.3,1-1.8,1.6c-8,9.4-18,10.2-27.4,2.2c-2.3-1.9-4.5-3.9-6.7-5.8c-9.9-8.6-13.3-20.4-14.9-32.7
			c-0.7-5-1.7-10.2-0.8-15.4c1.8,1.5,2.9,4.1,5.8,4.2c1.7,2,4.1,2.7,6.5,3.2c4.3,0.9,9.7-1.3,11-4.5c-0.5-0.4-1.1-0.7-1.6-1.1
			l0.1,0.1c-2.4-3.6-6.2-4.3-10.1-5.3c-3.7-0.9-7.6,0.9-11.1-1c0.3-1.8-0.4-3.8,1-5.4c0.4-0.3,0.8-0.5,1.2-0.8
			c-0.4-0.2-0.8-0.4-1.2-0.6c0.3-9.3,0.9-18.5,4.1-27.3c2.7-7.5,10.6-16.2,20.6-14.6C119.7,28.8,120.7,24.3,124,23.8z M111,119.1
			L111,119.1c10.7,11.9,16.3,10.5,27.5-1.9c-5.4,0.7-9.8-2.6-14.6,0.1c-4.7-2.4-9.3-0.6-13.8,0.7C109.9,118.7,110.4,118.9,111,119.1
			z M130,106c-1.9,0.4-3.8,0.8-6,1.3c0-6.6-0.2-12.9,0.1-19.2c0.1-3.4-1.3-4.2-4.4-4.2c-3.3,0-5,0.7-4.7,4.4c0.3,4.1,0,8.3,0.1,12.5
			c0,3.2,4.6,10.2,7.6,10.8c3.7,0.8,4.7-3.1,6.9-4.8C129.8,106.7,129.8,106.3,130,106c0.1,0,0.3-0.1,0.3-0.2c0.1,0,0-0.2,0.1-0.3
			C130.3,105.7,130.1,105.9,130,106z M93.1,70.1c7.8-3.6,13.6,1,19.4,5.2C109.2,67.6,99.8,65.1,93.1,70.1z"/>
		<path class="st12" d="M148.2,161.8c-6.7,3.7-13.3,7.4-21.3,7.2c-2.1-10.2,2.5-16.1,12.2-18.7c0.3-0.1,0.7-0.1,1-0.1
			C140.8,155.3,144,158.9,148.2,161.8z"/>
		<path class="st13" d="M105.1,129.2c2.2,1.9,4.5,3.9,6.7,5.8c9.4,8,19.4,7.2,27.4-2.2c0.5-0.6,1.2-1.1,1.8-1.6
			c-0.5,2.9-0.7,5.9-2,8.7c-4.1,4.2-9,6.8-15,7.1c-1.1-0.3-2.2-0.6-3.3-1c-7-2.6-12.9-6.6-16-13.8
			C104.9,131.2,105,130.2,105.1,129.2z"/>
		<path class="st11" d="M104.8,132.2c3.1,7.2,9,11.1,16,13.8c1.1,0.4,2.2,0.7,3.3,1c-0.4,3.6,0.8,7.4-0.8,10.9
			c0.3-3.5-1.2-5.7-4.6-7.2c-3.8-1.6-7.3-3.9-10.8-5.9C102.2,141.6,101.4,138.2,104.8,132.2z"/>
		<path class="st13" d="M123.3,157.9c1.6-3.6,0.3-7.3,0.8-10.9c6-0.3,10.9-2.9,15-7.1c0,2.4,0,4.8,0,7.2c-3.9,1.8-7.8,3.6-11.7,5.3
			c-2.1,0.9-2.3,2.5-2.3,4.5c0.1,1.7,0,3.5,0,6.1C122.7,161.1,123.2,159.4,123.3,157.9z"/>
		<path class="st14" d="M89.9,76.8c3.5,2,7.4,0.1,11.1,1c3.8,1,7.7,1.7,10.1,5.3c-1.3,0.6-2.1-0.5-3.2-0.8c-2.1-1.2-4.3-1.7-6.7-1.5
			c-1.5-0.1-3-0.3-4.4-0.1c-1.2,0.1-3.1-0.3-3.6,1c-0.6,1.5,0.8,2.7,1.9,3.7c-2.9-0.1-3.9-2.7-5.8-4.2
			C89.6,79.7,85.8,77.7,89.9,76.8z"/>
		<path class="st14" d="M90.9,70c0.4,0.2,0.8,0.4,1.2,0.6c-0.4,0.3-0.8,0.5-1.2,0.8C90.9,70.9,90.9,70.5,90.9,70z"/>
		<path class="st14" d="M136,83.1c3.3-4.4,8.1-5,13.1-5.1c2-0.1,3.9-0.1,5.9-0.1c1.2,0.2,2.5-1.7,3.5-0.4c0.8,1.1-0.5,2.4-1.1,3.4
			c-0.7,1.2-1.7,2.3-2.6,3.5c-1,0.3-2,0.7-3,1c0.9-1.1,2.5-2.2,1.6-3.6c-0.5-0.7-2.3-0.7-3.6-0.8c-1.4-0.1-2.9,0-4.3,0
			c-2.4-0.2-4.6,0.4-6.6,1.6C137.9,82.6,137.2,84,136,83.1z"/>
		<path class="st14" d="M154.1,71.5c-7.1-3.3-12.8,0.2-18.7,4.5c1.8-6.5,10.1-9,18.5-6.3C153.9,70.3,154,70.9,154.1,71.5z"/>
		<path class="st1" d="M151.1,144.9c1.2,2.3,3.2,4.3,3,7.2c-0.3,0-0.7,0-1-0.1l0.1,0.1c-0.4-0.5-0.7-0.9-1.1-1.4
			c-0.8-1.8-2-3.5-1.8-5.6C150.5,145,150.8,145,151.1,144.9z"/>
		<path class="st12" d="M153,152c0.3,0,0.7,0,1,0.1h-0.1c0.1,0.7,0.4,1,1.1,1c0.3,0.3,0.7,0.6,1,0.9c0,1-0.2,1.8-1.2,2.2
			C153.3,155.1,152.6,153.8,153,152z"/>
		<path class="st15" d="M151.1,144.9c-0.3,0.1-0.6,0.1-0.9,0.2c0-0.6-0.1-1.2-0.1-1.9C150.9,143.4,151.1,144.1,151.1,144.9z"/>
		<path class="st16" d="M152,150.7c0.4,0.5,0.7,0.9,1.1,1.4C152.7,151.6,152.3,151.1,152,150.7z"/>
		<path class="st1" d="M155,153c-0.7,0-1-0.3-1.1-1C154.8,151.7,154.9,152.4,155,153z"/>
		<path class="st17" d="M166.3,197.7c-0.2-0.1-0.4-0.3-0.6-0.4c0,0,0.1-0.4,0.2-0.4c0.3,0,0.5,0,0.8,0
			C166.6,197.2,166.4,197.4,166.3,197.7z"/>
		<path class="st17" d="M178.9,187.3c-0.2-0.1-0.4-0.3-0.6-0.4c0,0,0.1-0.4,0.2-0.4c0.3,0,0.5,0,0.8,0
			C179.2,186.8,179.1,187.1,178.9,187.3z"/>
		<path class="st17" d="M160.6,201.3c0.2,0.1,0.5,0.2,0.7,0.3c-0.3,0.1-0.5,0.2-0.8,0.3c-0.1,0-0.3,0-0.5,0
			C160.2,201.8,160.4,201.5,160.6,201.3z"/>
		<path class="st17" d="M172.8,192c-0.1,0.1-0.2,0.2-0.3,0.3c-0.1-0.1-0.2-0.3-0.2-0.4c0-0.1,0.2-0.2,0.3-0.3
			C172.6,191.8,172.7,191.9,172.8,192z"/>
		<path class="st17" d="M184.7,182.4c-0.3,0.1-0.6,0.4-0.8,0.3c-0.4-0.2-0.3-0.5,0.1-0.6c0.3-0.1,0.6-0.1,0.9-0.1
			C184.9,182.1,184.8,182.3,184.7,182.4z"/>
		<polygon class="st17" points="185,182 185.2,181.6 185.4,181.8 		"/>
		<polygon class="st17" points="160,202 159.8,202.4 159.6,202.2 		"/>
		<path class="st18" d="M136.5,217.5c-0.4,0.3-0.8,0.7-1.1,0.1c-0.1-0.1,0.3-0.5,0.5-0.7C136,217,136.3,217.3,136.5,217.5z"/>
		<path class="st17" d="M95,211c0.4,0.1,0.9,0.2,1.3,0.4C95.6,212.3,95.4,211.4,95,211L95,211z"/>
		<path class="st17" d="M95,211c-0.1-0.1-0.3-0.2-0.4-0.2C94.7,210.8,94.9,210.9,95,211L95,211z"/>
		<path class="st19" d="M130,106c-0.2,0.3-0.2,0.7-0.5,0.9c-2.3,1.7-3.2,5.5-6.9,4.8c-2.9-0.6-7.5-7.6-7.6-10.8
			c0-4.2,0.2-8.3-0.1-12.5c-0.3-3.7,1.4-4.4,4.7-4.4c3.1,0,4.5,0.8,4.4,4.2c-0.2,6.3-0.1,12.6-0.1,19.2
			C126.2,106.8,128.1,106.4,130,106L130,106z"/>
		<path class="st18" d="M123.9,117.3c4.8-2.8,9.1,0.5,14.6-0.1c-11.2,12.4-16.8,13.8-27.6,1.9c2.8-0.5,5.4,0.5,8.1,0.8
			C120.9,120,123.9,121.2,123.9,117.3z"/>
		<path class="st1" d="M145.5,81c1.4,0,2.9-0.1,4.3,0c1.2,0.1,3.1,0.1,3.6,0.8c0.9,1.4-0.6,2.5-1.6,3.6c-5.2,4.7-12.3,4.8-17.4,0.2
			c0.4-0.5,0.9-0.9,1.3-1.4c0.6-0.3,0.7-0.7,0.3-1.2l-0.1,0.1c1.2,0.9,1.9-0.5,2.9-0.5c0.6,2.4,1.9,4,4.6,3.3
			C146.1,85.1,145.9,83,145.5,81z"/>
		<path class="st1" d="M107.8,82.3c1.1,0.3,1.9,1.4,3.2,0.8l-0.1-0.1c0,1.2,0.5,1.7,1.6,1.1c-1.3,3.1-6.7,5.4-11,4.5
			c-2.4-0.5-4.8-1.2-6.5-3.2c-1.1-1-2.5-2.2-1.9-3.7c0.5-1.3,2.3-0.8,3.6-1c1.5-0.2,2.9,0.1,4.4,0.1c-0.3,2.1-0.3,4.2,2.1,4.9
			C106.1,86.5,107,84.3,107.8,82.3z"/>
		<path class="st14" d="M93.1,70.1c6.7-4.9,16.1-2.5,19.4,5.2C106.7,71.1,100.9,66.5,93.1,70.1z"/>
		<path class="st16" d="M123.9,117.3c0,3.9-3,2.7-4.9,2.5c-2.7-0.3-5.3-1.2-8.1-0.8h0.1c-0.3-0.4-0.6-0.7-0.9-1.1
			C114.7,116.7,119.2,114.8,123.9,117.3z"/>
		<path class="st20" d="M135.8,84.2c-0.4,0.5-0.9,0.9-1.3,1.4c-0.3-0.7-0.7-1.4,0.5-1.5h0.4L135.8,84.2z"/>
		<path class="st18" d="M110.1,118c0.3,0.4,0.6,0.7,0.9,1.1C110.4,118.9,109.9,118.7,110.1,118z"/>
		<path class="st21" d="M130,106c0.1-0.1,0.3-0.3,0.4-0.4c0,0.1,0,0.2-0.1,0.3C130.2,105.9,130.1,106,130,106L130,106z"/>
		<path class="st14" d="M135.8,84.2l-0.4-0.2H135c0.1-0.7,0.4-1,1.1-1.1C136.5,83.5,136.4,83.9,135.8,84.2z"/>
		<path class="st14" d="M112.5,84.1c-1.2,0.6-1.7,0.1-1.6-1.1C111.5,83.3,112,83.7,112.5,84.1z"/>
		<path class="st10" d="M107.8,82.3c-0.8,2.1-1.7,4.3-4.6,3.4c-2.5-0.7-2.4-2.8-2.1-4.9C103.5,80.6,105.8,81,107.8,82.3z"/>
		<path class="st10" d="M145.5,81c0.3,2,0.5,4.2-2,4.9c-2.7,0.8-3.9-0.9-4.6-3.3C141,81.4,143.2,80.8,145.5,81z"/>
	</g>
</g>
</svg>
