<?xml version="1.0" encoding="utf-8"?>
<!-- Generator: Adobe Illustrator 23.0.3, SVG Export Plug-In . SVG Version: 6.00 Build 0)  -->
<svg version="1.1" id="Layer_1" xmlns="http://www.w3.org/2000/svg" xmlns:xlink="http://www.w3.org/1999/xlink" x="0px" y="0px"
	 viewBox="0 0 250 250" style="enable-background:new 0 0 250 250;" xml:space="preserve">
<style type="text/css">
	.st0{fill:#FFFFFF;}
	.st1{fill:none;}
	.st2{fill:#262222;}
	.st3{fill:#F7BF9B;}
	.st4{fill:#EB2026;}
	.st5{fill:#E98E6B;}
	.st6{fill:#F59D76;}
	.st7{fill:#F5BE9A;}
	.st8{fill:#FEDC19;}
	.st9{fill:#FCDA17;}
	.st10{fill:#ECAB20;}
	.st11{fill:#FCC51A;}
	.st12{fill:#B8573F;}
	.st13{fill:#BC2824;}
	.st14{fill:#8A1A21;}
	.st15{fill:#483B36;}
	.st16{fill:#38A6D5;}
</style>
<rect x="87.6" y="68.3" class="st0" width="73.6" height="32.7"/>
<g>
	<g>
		<path class="st1" d="M251,126.5c0,40.3,0,80.7,0.1,121c0,3-0.6,3.6-3.6,3.6c-81-0.1-162-0.1-243,0c-3,0-3.6-0.6-3.6-3.6
			c0.1-81,0.1-162,0-243c0-3,0.6-3.6,3.6-3.6c81,0.1,162,0.1,243,0c3,0,3.6,0.6,3.6,3.6C251,45.2,251,85.8,251,126.5z M89.8,221.1
			c0.7,0.6,1.5,1.3,2.2,1.9c9.8,8.6,19.5,17.1,29.3,25.7c1.8,1.6,3.5,1.7,5.3,0.1c9.2-7.9,18.4-15.8,27.7-23.7c1.1-0.4,2-1,2.5-2.1
			c2-1.7,4-3.3,5.9-5c4.8-3.7,9.7-7.3,13.7-12c5.1-2.8,8.7-7.5,13.6-10.5c6.1-3.8,7.9-9,7-15.9c-0.5-3.7-0.3-7.6,0-11.4
			c0.3-3.7-1.3-4.8-4.6-4.3c-12.1-4.4-24.8-6.1-37.2-9.2c0.1-0.3,0.1-0.6-0.1-0.9c3-0.3,5.9-0.7,9.4-1.1c-2.5-3.3-1.4-6.3,0.5-9
			c1.7-2.4,2.4-5.1,3.1-7.8c5.4-23.1,10.8-46.3,16.4-69.4c0.6-2.6,0.6-4.8-0.3-7.2c-4.8-12.4-9.5-24.8-14.2-37.2
			c-0.8-2.2-2-4-4.1-5.3C139.4-0.3,109,2.2,84,17.2c-2.1,1.3-2.7,3.2-3.3,5.3c-3.3,13.1-6.4,26.1-9.8,39.1
			c-1.8,6.8-2.4,13.7-2.2,20.7c0.8,22.5,8.9,42.7,19.5,62.2c2.1,3.8,4.5,6,8.9,5.5c-0.1,2.7-3.4,2.8-4.1,5
			c-11.3,2.7-22.6,5.4-33.9,8.1c-2.7,0.1-4.3,1.1-4.2,4.2c0.1,7.1,0.1,14.3,0,21.4c0,1.6,0.3,2.9,1.5,4c5.3,4.4,10.7,8.8,16,13.3
			c3.9,4.1,8.3,7.7,12.8,11.1C86.4,218.9,88.1,220,89.8,221.1z"/>
		<path class="st2" d="M97.1,150.1c-4.4,0.4-6.8-1.8-8.9-5.5c-10.6-19.5-18.7-39.7-19.4-62.2c-0.2-7,0.4-13.9,2.2-20.7
			c3.4-13,6.6-26.1,9.8-39.1c0.5-2.1,1.1-4,3.3-5.3c25-15,55.5-17.5,81.7-0.4c2.1,1.4,3.3,3.1,4.1,5.3c4.7,12.4,9.4,24.8,14.2,37.2
			c0.9,2.4,0.9,4.7,0.3,7.2c-5.6,23.1-10.9,46.3-16.4,69.4c-0.6,2.7-1.3,5.4-3.1,7.8c-1.9,2.6-3,5.6-0.5,9c-3.4,0.4-6.4,0.7-9.4,1.1
			c-1.9-1.1-3.2-2.8-4.3-4.7c-3-4.7-4.2-10-5.5-15.3c-0.1-2-0.3-4-0.4-5.9c6-8,15.8-13.5,16.5-25c0.2,0.1,0.5,0.1,0.7,0.1
			c0.6,1,1.2,1.9,1.8,2.9c0.4,0.8-1.2,2.9,0.8,2.4c1.6-0.4,4.6,0.8,4.9-2.6c0.1-1.2,2.5-2.3-0.1-3.4c-1.3-0.5-1.5-1.6-1.4-2.8
			c4.5-4.5,6.6-9.8,6.1-16.1c-0.4-4.1-2.2-7-7-6.4c4.3-11.1-1.5-17.6-10.4-22.7c-0.1-0.1-0.3-0.1-0.5-0.2
			c-8.4-7.8-16.1-16.3-23.6-25.1c-0.4-0.6-0.6-1.3-1.5-1.1h0.1c0.1-0.8,0.1-1.4-1-1.1l0.1,0.1c0.7-1.3-0.2-1.6-1.1-2l0,0
			c-0.4-2.1-2.1-3.3-3.1-4.9c-1.9-3-2.5-1.2-3,0.9h0.1c-0.8,0-1.1,0.6-1.3,1.2C111.5,35.5,100.4,48,87.6,58.9
			c-8.3,5.3-8.3,5.3-6.4,14.6c0.2,1.1,0.5,2.2,0.7,3.4c-5.9,0.2-7.8,2.1-7.9,8c-0.1,5.5,2,10.2,5.8,14.1c-0.3,0.4-0.6,0.7-0.9,1.1
			c-0.6,0.8-3.4,0.5-1.6,2.3c1.2,1.2-0.4,4.5,2.2,3.8c1.4-0.4,4.8,2,4.6-2.2c-0.1-1.1,1.1-1.6,1.9-2.1c0.3,0.1,0.7,0.1,1,0.2
			c1.1,9.8,5.9,17.3,13.8,23.1c1.7,1.2,3.1,2.9,4.7,4.4c-0.1,1.8-0.2,3.7-0.3,5.5C103.4,140.7,102.2,146.5,97.1,150.1z"/>
		<path class="st3" d="M72.5,206.1c-5.3-4.4-10.7-8.9-16-13.3c-1.3-1.1-1.6-2.4-1.5-4c0-7.1,0.1-14.3,0-21.4
			c-0.1-3.1,1.5-4.1,4.2-4.2c0.1,1.6,1.3,1.6,2.4,1.9c5,1.1,9.9,2.4,14.9,3.6c15.9,3.8,31.7,7.5,47.6,11.3
			c14.1-3.3,28.2-6.7,42.3-10c8.7-2,17.1-4.9,26-6c3.3-0.5,4.9,0.6,4.6,4.3c-0.3,3.8-0.5,7.7,0,11.4c0.9,6.8-0.9,12.1-7,15.9
			c-4.9,3-8.5,7.8-13.6,10.5c-18.2-12.5-38.6-7.5-48.7,5.8c-3.6,4.8-4.8,3.2-7.6-0.4C109,197.1,86.5,194.7,72.5,206.1z"/>
		<path class="st4" d="M72.5,206.1c14-11.4,36.5-9,47.7,5.4c2.8,3.6,4,5.2,7.6,0.4c10-13.3,30.4-18.3,48.7-5.8
			c-4,4.7-8.9,8.3-13.7,12c-9.3-0.3-18.2,1.8-26.9,4.4c-5.2,1.6-8.8,1.7-11-3.8c-0.1-0.2-0.6-0.1-0.9-0.2c-2.1,1.1-1,6.5-6,3.9
			c-10.2-5.3-21.3-6.1-32.6-5.1C80.7,213.7,76.4,210.1,72.5,206.1z"/>
		<path class="st5" d="M192.4,164c-8.9,1-17.3,4-26,6c-14.1,3.3-28.2,6.7-42.3,10c0-3.6,0-7.3,0-10.9c5.9,0.6,11.6-0.6,16.7-3.3
			c5.4-2.8,11.6-4.8,14.4-11.1C167.5,157.8,180.3,159.6,192.4,164z"/>
		<path class="st6" d="M124,169c0,3.6,0,7.3,0,10.9c-15.9-3.8-31.7-7.5-47.6-11.3c-5-1.2-9.9-2.4-14.9-3.6c-1.2-0.3-2.3-0.3-2.4-1.9
			c11.3-2.7,22.6-5.4,33.9-8.1c0,1.9,1.4,3,2.7,3.9C104.1,165.2,113.1,169.9,124,169L124,169z"/>
		<path class="st6" d="M155.1,154.7c-2.8,6.2-9,8.3-14.4,11.1c-5.1,2.6-10.8,3.9-16.7,3.3l-0.1-0.1c0-7.3,0-14.6,0-21.9
			c5.7,0.1,10.2-2.1,14-6.4c2.2-2.5,4.8-4.6,7.2-6.9c1.3,5.3,2.6,10.6,5.5,15.3c1.2,1.8,2.4,3.5,4.3,4.7
			C155.2,154.1,155.2,154.4,155.1,154.7z"/>
		<path class="st7" d="M124,147.1c0,7.3,0,14.6,0,21.9c-10.9,0.9-19.9-3.8-28.3-9.9c-1.3-0.9-2.7-2-2.7-3.9c0.7-2.2,4-2.3,4.1-5
			c5.2-3.6,6.3-9.4,8.1-14.9C111,139.9,115.7,146.3,124,147.1z"/>
		<path class="st8" d="M154.3,225.1c-9.2,7.9-18.4,15.8-27.7,23.7c-1.8,1.6-3.6,1.5-5.3-0.1c-9.7-8.6-19.5-17.1-29.3-25.7
			c1.7,0,3.3,0,5,0c3,0.3,6,0.7,9,1l0,0c0.4,0.9,1.2,1,2,1l0,0c0.7,1.2,1.9,1,3,1l0,0c0.4,0.9,1.2,1,2,1l0,0c0.3,0.3,0.7,0.7,1,1
			l0,0c0.4,0.8,1.2,1,2,1l0,0c0.4,0.8,1.2,1,2,1l0,0c0.3,0.3,0.7,0.7,1,1l0,0c0.3,0.3,0.7,0.7,1,1l0,0c1.5,2.4,0.9,5,1,7.6
			c0.1,0.8,0,2,1,1.8c1.2-0.2,0.9-1.5,0.9-2.4l0,0c1,0.3,2,0.7,3,1l0,0c0.1,0.4,0.4,1.2,0.4,1.1c0.8-0.1,0.5-0.8,0.6-1.4
			c0-0.2,0-0.4,0-0.6c1.8-2.2,0.7-4.8,1-7.2l0,0c0.3-0.3,0.7-0.7,1-1l0,0c0.8,0,1.6-0.1,2-1l0,0c1.1,0,2.3,0.2,3-1l0,0
			c0.8,0,1.6-0.2,2-1l0,0c1.1,0,2.3,0.2,3-1l0,0c1.1-0.1,2.3,0.2,3-1l0,0c1.4-0.1,3,0.5,4.1-1c0.3,0,0.5,0,0.8,0
			C149.3,225,151.8,225,154.3,225.1z"/>
		<path class="st9" d="M127,239.2c0,0.2,0,0.4,0,0.6c-0.3,0.1-0.7,0.1-1,0.2l0,0c0-1.1-0.2-2.1-1.3-2.4c-0.9-0.2-1.4,0.6-1.7,1.4
			l0,0c-2.6-1.7,1.1-6-3-7l0,0c-0.3-0.3-0.7-0.7-1-1l0,0c-0.3-0.3-0.7-0.7-1-1l0,0c-0.4-0.8-1.2-1-2-1l0,0c-0.4-0.9-1.2-1-2-1l0,0
			c-0.3-0.3-0.7-0.7-1-1l0,0c-0.4-0.8-1.2-1-2-1l0,0c-0.7-1.2-1.9-1-3-1l0,0c-0.4-0.9-1.2-1-2-1l0,0c-2.8-1.8-5.9-2.1-9-2
			c-2.2-1.4-4.7-1-7.1-0.9c-1.7-1.1-3.4-2.2-4.6-3.9c11.3-1,22.4-0.2,32.6,5.1c5.1,2.6,4-2.8,6-3.9c0.3,0.1,0.8,0.1,0.9,0.2
			c2.2,5.6,5.8,5.4,11,3.8c8.7-2.6,17.7-4.7,26.9-4.4c-2,1.7-4,3.3-5.9,5c-3.4,0.3-6.7,0.6-9.9,2c-0.3,0-0.5,0-0.8,0
			c-1.4,0.1-3-0.4-4.1,1l0,0c-1.1,0-2.3-0.2-3,1l0,0c-1.1,0-2.3-0.2-3,1l0,0c-0.8,0-1.6,0.2-2,1l0,0c-1.1,0-2.3-0.2-3,1l0,0
			c-0.8,0-1.6,0.2-2,1l0,0c-0.3,0.3-0.7,0.7-1,1l0,0C126.1,234.2,127.4,236.8,127,239.2z"/>
		<path class="st10" d="M146.9,225c3.1-1.4,6.5-1.7,9.9-2c-0.5,1.1-1.4,1.7-2.5,2.1C151.8,225,149.3,225,146.9,225z"/>
		<path class="st11" d="M89.8,221.1c2.4,0,4.9-0.5,7.1,0.9c0,0.3,0,0.7,0,1c-1.7,0-3.3,0-5,0C91.3,222.4,90.6,221.7,89.8,221.1z"/>
		<path class="st7" d="M81.9,76.9c-0.2-1.1-0.5-2.2-0.7-3.4c-1.9-9.3-1.9-9.3,6.4-14.6c13.3-0.8,26.3-0.6,36.4,10
			c9.6-7.4,19.5-13.9,32.1-14.9c0.2,0.1,0.3,0.1,0.5,0.2c8.9,5.1,14.7,11.6,10.4,22.7c-2.5,8.1-4.6,16.3-5,24.8
			c-0.3,0.4-0.5,0.7-0.8,1.1c-0.6,11.5-10.5,17-16.5,25c-2.2,2.2-4.4,4.4-6.6,6.7c-7.8,8.1-17,8.5-25.5,1.3c-2.4-2-4.7-4.1-7.1-6.2
			c-1.6-1.5-3-3.2-4.7-4.4C92.9,119.5,88,112,87,102.1c-0.3-0.4-0.6-0.8-0.9-1.2l0,0C85.9,92.7,83,85,81.9,76.9z M157,73
			c0.1,0.1,0.2,0.2,0.3,0.3C157.2,73.2,157.1,73.1,157,73c-0.5-0.2-0.9-0.5-1.4-0.8c-0.1,0.1-0.1,0.3-0.2,0.4
			C155.9,72.7,156.5,72.8,157,73z M110.9,84L110.9,84c-0.1-1.1-1-1.5-2-1.8c-5.9-4.9-13.3-2.4-19.9-4c-0.2,2.6,1.2,4.3,2.9,5.9
			c0.4,1,1.2,1.7,2.2,2.1c0.3,0.9,1.1,0.8,1.8,0.8c6.1,3.9,10.3,3.9,16.4-0.2c0.8-0.8,0.8-1.4-0.4-1.8
			C111.9,84.4,111.6,84.1,110.9,84z M151,69.2c-1.3-0.3-2.6-0.6-3.9-0.9c-6.5-0.4-12.1,2.7-13.7,8.1c4.6-2.8,8.3-6.7,13.7-6.6
			c1.3,0.2,2.6,0.5,3.9,0.7c0.7,0.4,1.8,1,2,0.1C153.2,69.6,151.9,69.4,151,69.2z M136.1,84c-1,0.1-1.1,0.8-1.1,1.6
			c-1.4,2.5,0.7,2.7,2.1,3.2c5.9,2.2,11.2,1.3,15.3-3.8c4.3-0.3,4.5-3.7,5.9-7.5c-4.3,2-8.1,0.9-11.8,1.5
			C142.5,79.5,138.3,79.9,136.1,84L136.1,84z M136.4,118.1c0.1-0.3,0.2-0.5,0.2-0.8c0-0.1-0.2-0.3-0.4-0.3
			c-8.3-1.6-16.5-1.4-26.3,0.4c5.7,2.9,7.6,9.1,14.1,8.3C130.2,126.4,132.4,120.8,136.4,118.1z M130,107c-1.9,0.4-3.8,0.8-6,1.3
			c0-6.7-0.1-13.2,0-19.7c0.1-2.9-1.2-3.7-3.9-3.7c-2.8,0-4.4,0.5-4.2,3.8c0.2,4.3,0.3,8.7,0,13c-0.4,5.6,3.8,8.4,7.3,10.4
			C126.2,113.7,128,109.2,130,107c0.1-0.1,0.2-0.1,0.3-0.2c0.1,0,0-0.2,0.1-0.3C130.3,106.7,130.1,106.9,130,107z M93.3,71.9
			c8.2-3.4,14.7-0.3,20.5,5.7C111.6,69,101.4,66.3,93.3,71.9z M91.6,72.8l0.2-0.3h-0.4L91.6,72.8z"/>
		<path class="st9" d="M124,69c-10.1-10.6-23.1-10.8-36.4-10c12.8-10.9,23.9-23.4,34.1-36.8c0.4-0.4,0.9-0.8,1.3-1.2h-0.1
			c0.4,0.3,0.8,0.6,1.2,0.9c-0.1,3.5-0.1,7-0.2,10.6c-2.3,5.2-5.6,9.2-12.4,9.4c5.7,3.7,6.4,8.6,4.3,14.3c3.5-0.6,5.4-3,8.2-3.1
			C124,58.3,124,63.6,124,69z"/>
		<path class="st11" d="M123.9,32.3c0.1-3.5,0.1-7,0.2-10.5c1.9,0.7,2.3,3.8,5,3.2l0,0c-0.4,1.1,0,1.7,1.1,2l-0.1-0.1
			c0,0.7,0.4,1,1,1.1H131c0.2,0.8,0.8,1,1.5,1.1c7.5,8.7,15.2,17.2,23.6,25.1c-12.6,1-22.5,7.5-32.1,14.9c0-5.4,0-10.7,0-16.1
			c-0.1-0.2-0.1-0.4-0.1-0.6c2.4,1.3,4.8,2.5,7.2,3.8c-2.1-6.4,0.7-10.6,5.2-14.9c-6.9,0.8-9.8-3.5-12.4-8.2
			C123.9,32.8,123.9,32.6,123.9,32.3z"/>
		<path class="st12" d="M105.5,129.7c2.4,2.1,4.7,4.1,7.1,6.2c8.5,7.3,17.7,6.8,25.5-1.3c2.2-2.3,4.4-4.5,6.6-6.7
			c0.1,2,0.3,4,0.4,5.9c-2.4,2.3-5,4.4-7.2,6.9c-3.8,4.3-8.3,6.4-14,6.4c-8.3-0.7-13-7.2-18.8-11.9
			C105.3,133.4,105.4,131.5,105.5,129.7z"/>
		<path class="st6" d="M162,101.8c0.4-8.5,2.5-16.7,5-24.8c4.8-0.6,6.6,2.3,7,6.4c0.6,6.3-1.6,11.7-6.1,16.1
			c-2.2-0.4-2.4,2.2-3.9,2.6C163.3,102,162.6,101.9,162,101.8z"/>
		<path class="st6" d="M81.9,76.9C83,85,85.9,92.7,86,101c-2.7,1.3-3.4-3.6-6.2-1.9c-3.8-4-5.8-8.7-5.8-14.2
			C74.1,79,76,77.1,81.9,76.9z"/>
		<path class="st13" d="M79.8,99.1c2.8-1.7,3.5,3.2,6.2,1.9l0,0c0,0.3-0.1,0.6-0.1,1c-0.8,0.6-1.9,1-1.9,2.1
			c0.2,4.2-3.2,1.8-4.6,2.2c-2.7,0.7-1-2.5-2.2-3.8c-1.8-1.8,1-1.6,1.6-2.3C79.2,99.8,79.5,99.4,79.8,99.1z"/>
		<path class="st13" d="M163.9,102.1c1.6-0.5,1.8-3.1,3.9-2.6c-0.1,1.2,0,2.3,1.4,2.8c2.6,1.1,0.2,2.2,0.1,3.4
			c-0.3,3.4-3.3,2.2-4.9,2.6c-2,0.5-0.3-1.6-0.8-2.4c-0.5-1-1.2-1.9-1.8-2.9C162.6,102.7,163.3,102.4,163.9,102.1z"/>
		<path class="st7" d="M129.1,25c-2.7,0.6-3.1-2.5-5-3.2c-0.4-0.3-0.8-0.6-1.2-0.9c0.5-2.1,1.1-3.9,3-0.9
			C127,21.7,128.7,22.9,129.1,25z"/>
		<path class="st14" d="M163.9,102.1c-0.7,0.3-1.4,0.6-2,0.9c-0.2,0-0.5-0.1-0.7-0.1c0.3-0.4,0.5-0.7,0.8-1.1
			C162.6,101.9,163.3,102,163.9,102.1z"/>
		<path class="st7" d="M130.1,27c-1.1-0.3-1.5-1-1.1-2C129.9,25.4,130.8,25.7,130.1,27z"/>
		<path class="st7" d="M123,20.9c-0.4,0.4-0.9,0.8-1.3,1.2C121.9,21.5,122.1,20.9,123,20.9z"/>
		<path class="st6" d="M85.9,102c0-0.3,0-0.6,0.1-1c0.3,0.4,0.6,0.8,0.9,1.2C86.6,102.1,86.3,102,85.9,102z"/>
		<path class="st7" d="M132.5,29c-0.7-0.1-1.3-0.3-1.5-1.1C131.9,27.7,132.2,28.4,132.5,29z"/>
		<path class="st7" d="M131.1,28c-0.6-0.1-1-0.4-1-1.1C131.1,26.5,131.2,27.1,131.1,28z"/>
		<path class="st10" d="M120,232c4.1,1,0.4,5.4,3,7c0,0.9,0.3,2.2-0.9,2.4c-1,0.1-1-1-1-1.8C120.8,237,121.5,234.4,120,232z"/>
		<path class="st10" d="M97,223c0-0.3,0-0.7,0-1c3.2-0.1,6.3,0.3,9,2C103,223.7,100,223.3,97,223z"/>
		<path class="st10" d="M127,239.2c0.4-2.4-0.9-5,1-7.2C127.7,234.4,128.8,237,127,239.2z"/>
		<path class="st10" d="M123,239c0.3-0.8,0.8-1.7,1.7-1.4c1.1,0.3,1.3,1.4,1.3,2.4C125,239.7,124,239.3,123,239z"/>
		<path class="st10" d="M142,226c1.1-1.5,2.7-0.9,4.1-1C145,226.5,143.4,225.9,142,226z"/>
		<path class="st10" d="M136,228c0.7-1.2,1.9-1,3-1C138.3,228.2,137.1,228,136,228z"/>
		<path class="st10" d="M131,230c0.7-1.2,1.9-1,3-1C133.3,230.2,132.1,230,131,230z"/>
		<path class="st10" d="M108,225c1.1,0,2.3-0.2,3,1C109.9,226,108.7,226.2,108,225z"/>
		<path class="st10" d="M139,227c0.7-1.2,1.9-1,3-1C141.3,227.3,140.1,227,139,227z"/>
		<path class="st10" d="M134,229c0.4-0.9,1.2-1,2-1C135.6,228.9,134.8,229,134,229z"/>
		<path class="st10" d="M114,228c0.8,0,1.6,0.1,2,1C115.2,229,114.4,228.8,114,228z"/>
		<path class="st10" d="M116,229c0.8,0,1.6,0.2,2,1C117.2,230,116.4,229.8,116,229z"/>
		<path class="st10" d="M129,231c0.4-0.8,1.2-1,2-1C130.6,230.9,129.8,231,129,231z"/>
		<path class="st10" d="M106,224c0.8,0,1.6,0.1,2,1C107.2,225,106.4,224.9,106,224z"/>
		<path class="st10" d="M111,226c0.8,0,1.6,0.2,2,1C112.2,227,111.4,226.9,111,226z"/>
		<path class="st10" d="M126,240c0.3-0.1,0.7-0.1,1-0.2c-0.1,0.5,0.2,1.2-0.6,1.4C126.3,241.2,126.1,240.4,126,240z"/>
		<path class="st10" d="M113,227c0.3,0.3,0.7,0.7,1,1C113.7,227.7,113.3,227.3,113,227z"/>
		<path class="st10" d="M118,230c0.3,0.3,0.7,0.7,1,1C118.7,230.7,118.3,230.3,118,230z"/>
		<path class="st10" d="M119,231c0.3,0.3,0.7,0.7,1,1C119.7,231.7,119.3,231.3,119,231z"/>
		<path class="st10" d="M128,232c0.3-0.3,0.7-0.7,1-1C128.7,231.3,128.3,231.7,128,232z"/>
		<path class="st6" d="M130,107c-2,2.2-3.8,6.7-6.8,5.1c-3.5-1.9-7.7-4.8-7.3-10.4c0.3-4.3,0.2-8.7,0-13c-0.2-3.3,1.4-3.8,4.2-3.8
			c2.7,0,3.9,0.7,3.9,3.7c-0.2,6.5,0,13,0,19.7C126.2,107.8,128.1,107.4,130,107L130,107z"/>
		<path class="st13" d="M124,125.7c-6.4,0.8-8.4-5.4-14.1-8.3c9.8-1.8,18-2,26.3-0.4c0.1,0,0.4,0.2,0.4,0.3c0,0.3-0.1,0.5-0.2,0.8
			c-2-0.1-3.9,0.4-5.8,0.4C125.6,118.6,122.7,120,124,125.7z"/>
		<path class="st1" d="M152.4,85c-4.2,5.1-9.4,6-15.3,3.8c-1.4-0.5-3.5-0.8-2.1-3.2c0.5-0.5,1.3-0.7,1.1-1.6l-0.1,0.1
			c1.6-0.5,3.2-0.9,4.9-1.4c0.2,2.3,1.2,3.9,3.7,3.7c2.7-0.2,2.9-2.3,2.7-4.4C149.1,82.7,153.4,79.5,152.4,85z"/>
		<path class="st1" d="M112.3,86.8c-6,4.1-10.3,4.1-16.4,0.2c-0.5-0.6-1-1.2-1.5-1.8c-0.3-0.4-0.7-0.9-1-1.3
			c0.8-3.8,3.7-1.6,5.7-2.1c-0.3,2.3,0.2,4.3,3,4.5c2.5,0.2,3.4-1.3,3.2-3.6c1.2,0.3,2.4,0.6,3.6,1c0.7,0.3,1.1,1.4,2.1,0.5
			l-0.1-0.1c-0.3,0.6-0.2,1,0.4,1.2C111.6,85.8,112,86.3,112.3,86.8z"/>
		<path class="st15" d="M152.4,85c1-5.5-3.3-2.3-5.1-3.1c-2.2-0.2-4.4-0.3-6.4,0.7c-1.6,0.5-3.2,0.9-4.9,1.4
			c2.3-4.2,6.5-4.6,10.5-5.2c3.7-0.5,7.5,0.6,11.8-1.5C156.9,81.2,156.7,84.7,152.4,85z"/>
		<path class="st2" d="M108.9,83.6c-1.2-0.3-2.4-0.6-3.6-1c-1.9-1.2-4.1-1.1-6.2-0.8c-2,0.5-5-1.7-5.7,2.1c-0.5,0-1,0.1-1.5,0.1
			c-1.7-1.5-3.1-3.2-2.9-5.9c6.7,1.6,14-0.9,19.9,4C108.9,82.6,108.9,83.1,108.9,83.6z"/>
		<path class="st14" d="M124,125.7c-1.3-5.6,1.6-7,6.6-7.2c1.9-0.1,3.9-0.5,5.8-0.4C132.4,120.8,130.2,126.4,124,125.7z"/>
		<path class="st15" d="M93.3,71.9c8.1-5.6,18.3-2.9,20.5,5.7C108,71.6,101.5,68.5,93.3,71.9z"/>
		<path class="st15" d="M147,69.8c-5.4-0.1-9.1,3.8-13.7,6.6c1.6-5.4,7.2-8.5,13.7-8.1C147,68.8,147,69.3,147,69.8z"/>
		<path class="st2" d="M147,69.8c0-0.5,0-1,0-1.5c1.3,0.3,2.6,0.6,3.9,0.9c0,0.4,0,0.9,0,1.3C149.7,70.3,148.4,70.1,147,69.8z"/>
		<path class="st15" d="M151,70.6c0-0.4,0-0.9,0-1.3c0.9,0.2,2.3,0.3,2,1.4C152.8,71.6,151.7,70.9,151,70.6z"/>
		<path class="st12" d="M112.3,86.8c-0.3-0.5-0.7-1.1-1-1.6l0.3-0.2h0.3C113.1,85.4,113.1,86,112.3,86.8z"/>
		<path class="st15" d="M91.9,84c0.5,0,1-0.1,1.5-0.1c0.3,0.4,0.7,0.9,1,1.3c-0.1,0.3-0.2,0.6-0.3,1C93.1,85.8,92.3,85.1,91.9,84z"
			/>
		<path class="st15" d="M108.9,83.6c0-0.5,0-0.9,0-1.4c1,0.3,1.9,0.8,2.1,1.9C110,85,109.6,83.9,108.9,83.6z"/>
		<path class="st12" d="M94.2,86.2c0.1-0.3,0.2-0.6,0.3-1c0.5,0.6,1,1.2,1.5,1.8C95.2,86.9,94.5,87,94.2,86.2z"/>
		<path class="st12" d="M157,73c-0.5-0.1-1.1-0.3-1.6-0.4c0.1-0.1,0.1-0.3,0.2-0.4C156.1,72.4,156.5,72.7,157,73L157,73z"/>
		<path class="st15" d="M136.1,84c0.2,0.9-0.6,1.1-1.1,1.6C135,84.8,135.1,84.1,136.1,84z"/>
		<path class="st15" d="M111.9,85.1h-0.3c0,0-0.3,0.1-0.3,0.2c-0.6-0.3-0.7-0.7-0.4-1.2C111.6,84.1,111.9,84.4,111.9,85.1z"/>
		<path class="st12" d="M157,73c0.1,0.1,0.2,0.2,0.3,0.2C157.2,73.1,157.1,73.1,157,73L157,73z"/>
		<polygon class="st12" points="91.6,72.8 91.4,72.4 91.8,72.4 		"/>
		<path class="st6" d="M130,107c0.1-0.1,0.3-0.3,0.4-0.4c0,0.1,0,0.2-0.1,0.3C130.2,106.9,130.1,106.9,130,107L130,107z"/>
		<path class="st4" d="M123.9,32.3c0,0.3,0,0.5,0.1,0.8c0,6.4-0.1,12.8-0.1,19.2c0,0.2,0,0.4,0.1,0.6c-2.7,0.1-4.6,2.4-8.2,3.1
			c2.1-5.7,1.4-10.6-4.3-14.3C118.3,41.5,121.6,37.6,123.9,32.3z"/>
		<path class="st13" d="M123.9,52.3c0-6.4,0.1-12.8,0.1-19.2c2.6,4.6,5.5,8.9,12.4,8.1c-4.5,4.2-7.3,8.5-5.2,14.9
			C128.7,54.8,126.3,53.6,123.9,52.3z"/>
		<path class="st16" d="M140.9,82.7c2.1-1.1,4.2-1,6.4-0.7c0.2,2.1,0,4.2-2.7,4.4C142.1,86.5,141.1,84.9,140.9,82.7z"/>
		<path class="st16" d="M99.1,81.8c2.1-0.3,4.2-0.3,6.2,0.8c0.2,2.3-0.7,3.8-3.2,3.6C99.3,86.1,98.8,84.2,99.1,81.8z"/>
	</g>
</g>
</svg>
