<?xml version="1.0" encoding="utf-8"?>
<!-- Generator: Adobe Illustrator 23.0.3, SVG Export Plug-In . SVG Version: 6.00 Build 0)  -->
<svg version="1.1" id="Layer_1" xmlns="http://www.w3.org/2000/svg" xmlns:xlink="http://www.w3.org/1999/xlink" x="0px" y="0px"
	 viewBox="0 0 250 250" style="enable-background:new 0 0 250 250;" xml:space="preserve">
<style type="text/css">
	.st0{fill:#FFFFFF;}
	.st1{fill:none;}
	.st2{fill:#4CBC22;}
	.st3{fill:#512E28;}
	.st4{fill:#315571;}
	.st5{fill:#352724;}
	.st6{fill:#35415B;}
	.st7{fill:#F3B996;}
	.st8{fill:#283853;}
	.st9{fill:#825034;}
	.st10{fill:#CC965C;}
	.st11{fill:#1E4259;}
	.st12{fill:#BD212F;}
	.st13{fill:#7A5935;}
	.st14{fill:#1A283D;}
	.st15{fill:#EC3A28;}
	.st16{fill:#F69D76;}
	.st17{fill:#30A9DB;}
</style>
<rect x="82.1" y="69" class="st0" width="76.8" height="41.8"/>
<g>
	<g>
		<path class="st1" d="M122,251c-40.3,0-80.7,0-121,0C1,167.7,1,84.3,1,1c82,0,164,0,246-0.1c3.4,0,4.1,0.7,4.1,4.1
			c-0.1,80.7-0.1,161.3,0,242c0,3.4-0.7,4.1-4.1,4.1c-40.3-0.2-80.7-0.1-121-0.1c1.1-2.8,3.7-4,5.8-5.8c16-13.7,32.1-27.3,48.2-40.9
			c4.9-4,9.7-8,14.6-12c1.4-1.1,2.1-2.4,2-4.3c-0.2-3.5-0.2-7-0.3-10.5c2.1-4.6,5.6-8.3,8.9-11.9c3.6-3.9,1.7-4.7-2.1-5.7
			c-8.7-2.3-17.3-3-26.1-0.9c2.6-32.2-0.5-64.4-0.5-96.7c4.5-3.2,7.9-7.3,10-12.4c0.6-1.2,1.8-2.3,0.9-4.4c-0.9,1.6-1.7,3-2.5,4.3
			c-2.9,2.9-4.3,7.1-8.3,9c-0.6-20.7-9.7-35.7-28.2-45.9c-25.1-14-70.1-7-79.4,33.3c-0.9,3.7-1.8,7.4-2.7,11.1
			c-2.4-2.8-4.7-5.6-7.1-8.4c-0.1-0.3-0.2-0.6-0.3-0.9c-0.3-0.7-0.6-2.1-1.5-1.7c-0.7,0.3-0.2,1.3,0.6,1.7c0.2,0.5,0.3,1,0.5,1.5
			c1.5,4.6,4.6,8,7.8,11.5c-1.5,7.9-1.7,15.9-1.6,23.8c0.2,25.2,0.3,50.4,2.6,75.5c-7.6-0.2-15,1.1-22.4,4.1
			c3.6,4.8,7,9.2,10.4,13.7c0,3.8-0.1,7.6-0.2,11.3c0,1.5-0.1,2.9,1.3,4c5.4,4.5,10.8,9,16.2,13.6c12.4,10.8,24.9,21.6,37.2,32.6
			C113.9,243.3,118.8,246.3,122,251z M188.5,44.2c-0.1,0.1-0.3,0.2-0.3,0.3s0.2,0.2,0.2,0.3c0.1-0.1,0.3-0.2,0.3-0.3
			C188.8,44.4,188.6,44.3,188.5,44.2z M56.8,44.6c-0.1-0.1-0.1-0.2-0.2-0.3c-0.1,0.1-0.3,0.2-0.3,0.3s0.1,0.2,0.2,0.3
			C56.6,44.8,56.7,44.7,56.8,44.6z"/>
		<path class="st2" d="M122,251c-3.2-4.7-8.1-7.7-12.3-11.4c-12.3-10.9-24.8-21.7-37.2-32.6c2.5-2.9,1.2-5.8-0.6-8.1
			c-5.4-7.1-11.2-13.9-16.8-20.8c-3.4-4.5-6.8-8.9-10.4-13.7c7.4-3,14.8-4.3,22.4-4.1c1.9,3.9,1.4,9,5.5,12.6
			c0.6-4.2,2.3-7,5.6-10.3c0.5,5.5,2.9,9.6,3.8,14.2c0,2.3,0.1,4.5,3,5.2v-0.1c-0.2,1-0.2,1.8,1,2.1v-0.1c-0.2,0.9,0,1.6,0.8,2.1
			c1.4,4,4.1,7.2,6.4,10.6c1,1.4,1.7,3.1,3.9,3.4c10.8,1.4,19.3,6.4,25.3,15.6c1,1.5,2,1.8,2.6-0.3c3.9-4.7,8.1-9.3,13.9-11.7
			c10-4.2,14-13.3,19.1-21.6l0,0c0.3-0.3,0.7-0.6,1-0.8c3.3-2.9,4.5-7.3,7.4-10.5c0.2-0.6,0.4-1.1,0.6-1.7c-0.1-0.3-0.1-0.6,0-0.9
			c0.3-0.4,0.7-0.8,1-1.2v0.1c1.1-0.8,1.3-1.9,1-3.1v0.1c1.4,0,1.6-1.3,2.3-2.1c1.9,2.4,2.8,5.2,3.1,8.8c1.7-4.2,2.6-7.8,2.7-11.6
			c8.8-2.2,17.4-1.4,26.1,0.9c3.8,1,5.6,1.7,2.1,5.7c-3.3,3.6-6.8,7.3-8.9,11.9c-4.5,3.5-7.2,8.6-11,12.7c-3.7,4-5.2,8.7-5.4,14
			c-16.1,13.6-32.2,27.2-48.2,40.9c-2.1,1.8-4.7,3-5.8,5.8C124.7,251,123.3,251,122,251z"/>
		<path class="st3" d="M66.2,57.3c0.9-3.7,1.9-7.4,2.7-11.1c9.4-40.3,54.3-47.3,79.7-33.3c18.4,10.2,27.6,25.2,28.2,45.9
			c-6.7,3.9-14.1,6-21.7,7.4c-1-4-1.9-8-2.9-12c-1.5-5.9-1.6-5.9-7-2.7C130.5,60.2,115,66.7,98,69c-1.6-1.1-3.3-1.7-5.3-2.1
			C83.5,65,74,63.3,66.2,57.3z"/>
		<path class="st3" d="M82.1,176.8c-0.9-4.6-3.4-8.7-3.8-14.2c-3.2,3.3-5,6.1-5.6,10.3c-4.1-3.6-3.6-8.7-5.5-12.6
			c-2.4-25.1-2.5-50.3-2.6-75.5c-0.1-7.9,0.2-15.9,1.6-23.8c6.2,3.8,13.2,5.4,19.9,8c0.2,4-1.6,7.9-1,12c0.3,2.7-0.5,5.5,0.7,8.1
			c-1.3,7.3-1,14.6-0.8,21.9c-0.2,15.6-0.4,31.1,0.2,46.7c-0.9,8.9,1.1,17.7,1.9,26.5c-0.4,0-0.7-0.1-1.1-0.1v0.1
			c0-0.9-0.1-1.7-1-2.1v0.1C84.6,180,83.9,178.1,82.1,176.8z"/>
		<path class="st3" d="M167,168.1c-0.1,0.3-0.1,0.6,0,0.9c-0.2,0.6-0.4,1.1-0.6,1.7c-2.9,3.2-4,7.6-7.4,10.5c-0.3,0.3-0.7,0.6-1,0.8
			l0.1-0.1c-1.7,0.1-2.5-0.2-1.2-2.1c1.5-2.1,2.9-4.2,3.3-6.9c2.4-4.8,3.2-10,3.6-15.4c2.2-12.2,1.2-24.5,0.1-36.7
			c-0.6-6.3-0.6-12.9-2.7-19c0.1-5.5-0.4-10.9-2.9-15.9c0.4-1.4,0.8-2.7-0.1-4c-0.7-4-1.3-8-2-12c6.7-2.8,14.1-4.1,20.6-7.5
			c-0.1,32.2,3.1,64.4,0.5,96.7c-0.1,3.8-1,7.5-2.7,11.6c-0.4-3.6-1.2-6.4-3.1-8.8c-0.2-0.6-0.4-1.6-1-1.3c-1.1,0.7-1.4,2-1.3,3.3
			v-0.1c-1.2,0.7-1.1,1.9-1,3.1l0.1-0.1C167.3,167,167.1,167.5,167,168.1z"/>
		<path class="st4" d="M55.2,178.1c5.6,6.9,11.4,13.7,16.8,20.8c1.8,2.3,3.1,5.2,0.6,8.1c-5.4-4.5-10.8-9.1-16.2-13.6
			c-1.4-1.1-1.3-2.5-1.3-4C55.1,185.7,55.1,181.9,55.2,178.1z"/>
		<path class="st5" d="M86,68.9c-6.7-2.6-13.7-4.1-19.9-8c-3.1-3.5-6.3-6.9-7.8-11.5c0.3-0.2,0.5-0.4,0.8-0.6
			c2.4,2.8,4.7,5.6,7.1,8.4c7.8,6,17.2,7.7,26.5,9.6c2,0.4,3.7,1,5.3,2.1c3.6,3,7.1,6.1,11.2,9.6c-6.1,1.2-9.5-2.3-13-5
			C93.1,71.3,89.9,69.5,86,68.9z"/>
		<path class="st5" d="M176.6,62.4c-6.5,3.4-13.9,4.6-20.6,7.5c-5.2,0.9-8.2,5.5-12.7,7.6c-2.2,1-4.2,2.1-7.2,0.4
			c6.6-4.1,10.9-10.9,19-11.7c7.6-1.3,15-3.4,21.7-7.4c3.9-1.9,5.4-6.1,8.3-9c0.5,0,1.1,0.1,1.6,0.1
			C184.5,55.2,181.1,59.2,176.6,62.4z"/>
		<path class="st6" d="M179.9,204.3c0.2-5.3,1.7-10,5.4-14c3.8-4.1,6.4-9.2,11-12.7c0.1,3.5,0.1,7,0.3,10.5c0.1,1.9-0.6,3.1-2,4.3
			C189.7,196.3,184.8,200.3,179.9,204.3z"/>
		<path class="st4" d="M186.6,50c-0.5,0-1.1-0.1-1.6-0.1c0.8-1.3,1.5-2.7,2.5-4.3C188.4,47.7,187.3,48.8,186.6,50z"/>
		<path class="st4" d="M57.9,48c-0.8-0.4-1.3-1.4-0.6-1.7c1-0.4,1.2,0.9,1.5,1.7C58.5,48,58.2,48,57.9,48z"/>
		<path class="st5" d="M57.9,48c0.3,0.1,0.6,0.1,0.9,0c0.1,0.3,0.2,0.6,0.3,0.9c-0.2,0.2-0.5,0.4-0.8,0.6C58.2,49,58.1,48.5,57.9,48
			z"/>
		<path class="st7" d="M188.5,44.2c0.1,0.1,0.2,0.2,0.2,0.3s-0.2,0.2-0.3,0.3c-0.1-0.1-0.2-0.2-0.2-0.3S188.4,44.3,188.5,44.2z"/>
		<path class="st7" d="M56.8,44.6c-0.1,0.1-0.2,0.2-0.3,0.3c-0.1-0.1-0.2-0.2-0.2-0.3s0.2-0.2,0.3-0.3
			C56.6,44.4,56.7,44.5,56.8,44.6z"/>
		<path class="st4" d="M87.1,184.1c-0.7-8.8-2.8-17.5-1.9-26.5c2.3-0.5,4.6-0.9,6.8-1.4c6.7,8,15.5,12.2,25.6,13.7
			c4.2,0.6,7.4,1.6,6.4,6.9c-0.3,1.4-0.5,3,0.9,4.2c0,11.4,0.1,22.9,0.1,34.3c-0.6,2.2-1.6,1.9-2.6,0.3c-6-9.2-14.6-14.2-25.3-15.6
			c-2.3-0.3-2.9-2-3.9-3.4c-2.4-3.4-5-6.6-6.4-10.6l0.2-0.3C88,185.1,88,184.6,87.1,184.1L87.1,184.1z"/>
		<path class="st8" d="M125.1,215.3c0-11.4-0.1-22.9-0.1-34.3c11.6-3,23.1-6.4,35.1-8c-0.3,2.7-1.8,4.8-3.3,6.9
			c-1.3,1.8-0.5,2.2,1.2,2.1c-5,8.4-9.1,17.5-19.1,21.6C133.2,206,129,210.6,125.1,215.3z"/>
		<path class="st6" d="M82.1,176.8c1.8,1.3,2.5,3.2,3,5.2C82.2,181.3,82.1,179.1,82.1,176.8z"/>
		<path class="st6" d="M169,164c-0.1-1.3,0.1-2.6,1.3-3.3c0.5-0.3,0.8,0.7,1,1.3C170.6,162.7,170.3,164,169,164z"/>
		<path class="st6" d="M168,167c0-1.1-0.1-2.3,1-3.1C169.2,165.2,169,166.3,168,167z"/>
		<path class="st6" d="M166.3,170.7c0.2-0.6,0.4-1.1,0.6-1.7C166.7,169.6,166.5,170.1,166.3,170.7z"/>
		<path class="st6" d="M85,182c0.9,0.4,1.1,1.2,1,2.1C84.8,183.8,84.8,182.9,85,182z"/>
		<path class="st6" d="M86,184c0.4,0,0.7,0.1,1.1,0.1L87,184c0,0.6,0.1,1.2,0.1,1.8l-0.2,0.3C86,185.6,85.8,184.9,86,184z"/>
		<path class="st6" d="M167,168.1c0.1-0.6,0.3-1.1,1-1.2C167.7,167.3,167.3,167.7,167,168.1z"/>
		<path class="st8" d="M158,182c0.3-0.3,0.7-0.6,1-0.8C158.6,181.5,158.3,181.7,158,182z"/>
		<path class="st2" d="M155.1,66.2c-8.1,0.8-12.3,7.7-19,11.7c3,1.7,5,0.6,7.2-0.4c4.5-2.1,7.5-6.8,12.7-7.6c0.7,4,1.3,8,2,12
			c-11.2-0.2-21.2,3.2-29.8,10.5c-1.2,1-2.8,1.9-1.8,4.1c1.9,4,9.6,7.7,13.9,6.4c8.7-2.7,14.4-8.6,17.8-16.9
			c2.5,5,2.9,10.4,2.9,15.9c-1.1,2.8-1.8,5.6-2.1,8.6c-0.9,8.4-4.8,14.9-12.2,19.1c1.4-3.7,2.9-7.4,4-11.2c0.5-1.8,1.3-4-1.5-5
			c-9.1-3.3-17.9-7.5-27.5-9.8c-2.8,0.2-5.5,0.5-7.8,2.1c-7.1,1.1-13.7,3.7-20.6,5.5c-2,0.5-2.3,1.7-2,3.8c0.7,4.5,2.3,8.6,3.6,12.9
			c-2.7-0.1-3.7-2.3-5.1-4c-3.1-3.8-3-8.8-5-13c-0.2-7.3-0.5-14.6,0.8-21.9c2.9,4.8,6.6,8.7,11.6,11.2c7.7,3.8,12.1,3,18.2-3
			c2.4-2.4,2.6-4.1-0.2-6.3c-8.9-7-18.8-11.1-30.3-10.1c-0.6-4.1,1.1-7.9,1-12c3.8,0.6,7.1,2.3,10.1,4.7c3.5,2.7,6.9,6.1,13,5
			c-4.1-3.5-7.6-6.5-11.2-9.6c17-2.3,32.5-8.9,47.2-17.5c5.4-3.2,5.6-3.2,7,2.7C153.2,58.2,154.1,62.2,155.1,66.2z"/>
		<path class="st9" d="M85,110.9c2,4.2,1.9,9.2,5,13c1.4,1.8,2.5,3.9,5.1,4l0,0c0,0.9,0.2,1.7,1.2,2c2.8,2.7,5.5,5.4,8.3,8.1
			c-1.7,7.7-5.8,13.8-12.4,18.2c-2.3,0.5-4.6,0.9-6.8,1.4C84.5,142.1,84.7,126.5,85,110.9z"/>
		<path class="st10" d="M85,80.9c11.6-1,21.4,3.1,30.3,10.1c2.8,2.2,2.6,3.9,0.2,6.3c-6,6-10.5,6.8-18.2,3
			c-5.1-2.5-8.8-6.4-11.6-11.2C84.5,86.4,85.3,83.6,85,80.9z M94.1,93L94.1,93c-0.2,0.8,0.4,0.8,0.9,1c5.5,3.3,10.8,2.8,15.9-0.9
			c0.1-0.8,0.2-1.6-0.8-2c-5.9-7.7-14.8-3.9-22.3-6.1c0,2.9,1.3,4.7,3,6.3c0.6,0.7,1,1.9,2.2,0.7l0,0C92.3,93.3,93.2,93.1,94.1,93z"
			/>
		<path class="st11" d="M92,156.2c6.6-4.3,10.7-10.5,12.4-18.2c5.9,4.7,11.2,10.5,19.5,10.7c0,5.3,0.3,10.7-0.1,16
			c-0.4,4.7,1.7,5.9,5.8,5.3c10.3-1.6,19.1-6.3,26.3-13.8c2.6,0.5,5.1,1,7.7,1.5c-0.4,5.3-1.2,10.5-3.6,15.4
			c-11.9,1.6-23.5,5-35.1,8c-1.4-1.2-1.2-2.8-0.9-4.2c1-5.3-2.3-6.2-6.4-6.9C107.5,168.4,98.7,164.2,92,156.2z"/>
		<path class="st9" d="M163.6,157.7c-2.6-0.5-5.1-1-7.7-1.5c-1.3-1.2-2.8-2.4-3.9-3.7c-4.6-5.7-5.9-12.7-7.5-19.5
			c0.4-0.6,0.8-1.3,1.2-1.9c0.4-0.4,0.7-0.8,1.1-1.1l-0.1-0.1c7.5-4.2,11.4-10.7,12.2-19.1c0.3-3,0.9-5.9,2.1-8.6
			c2.2,6.1,2.2,12.7,2.7,19C164.9,133.1,165.9,145.4,163.6,157.7z"/>
		<path class="st10" d="M158.1,86c-3.4,8.3-9.2,14.2-17.8,16.9c-4.3,1.3-12.1-2.4-13.9-6.4c-1-2.2,0.6-3.1,1.8-4.1
			c8.6-7.3,18.6-10.7,29.8-10.5C158.9,83.3,158.6,84.6,158.1,86z M133.1,93c-1.1-0.3-1,0.5-1.1,1.2c5.5,4.2,12,4.2,16.5-0.2
			c0.9,0.2,1.8,0.4,1.5-1.1l0,0c3.4-1.4,4.2-2.6,4.9-7.9c-4.3,2.2-8.9,0.7-13.2,2c-2.9,0.9-6.7,0.9-7.6,5l0,0
			C132.7,91.3,132.9,92.3,133.1,93L133.1,93z"/>
		<path class="st12" d="M87.1,185.8c0-0.6-0.1-1.2-0.1-1.8C88,184.6,88,185.1,87.1,185.8z"/>
		<path class="st10" d="M145.8,131c-0.4,0.6-0.8,1.3-1.2,1.9c-6.3,6-10.6,14.6-20.6,15.9c-8.4-0.2-13.7-6-19.5-10.7
			c-2.8-2.7-5.5-5.4-8.3-8.1c-0.4-0.7-0.8-1.3-1.2-2l0,0c-1.3-4.3-2.9-8.4-3.6-12.9c-0.3-2,0-3.3,2-3.8c6.9-1.7,13.5-4.4,20.6-5.5
			c0,2-0.3,4,0.1,5.9c0.8,4.2,4.3,7.1,7.6,8.5c2.3,1,4.5-2.5,5.3-5.3c0.4-0.1,0.9-0.3,1.3-0.4c-0.1-0.1-0.2-0.3-0.3-0.4
			c-0.4,0.2-0.7,0.5-1.1,0.7c-3.8,1.5-5.5,0.6-5-3.8c0.3-2.5-0.1-5-0.1-7.5c9.5,2.2,18.3,6.5,27.5,9.8c2.7,1,2,3.2,1.5,5
			c-1.2,3.8-2.7,7.4-4,11.2l0.1,0.1C146.5,130.2,146.2,130.6,145.8,131z M135.1,125.2c-6.5-2.2-21.7-1.8-25.7,0.4
			C120.7,137.3,124.3,136.9,135.1,125.2z"/>
		<path class="st13" d="M127,115c-0.8,2.8-3.1,6.3-5.3,5.3c-3.3-1.4-6.8-4.3-7.6-8.5c-0.4-1.9-0.1-4-0.1-5.9
			c2.4-1.6,5.1-1.9,7.8-2.1c0.1,2.5,0.4,5,0.1,7.5C121.5,115.6,123.2,116.5,127,115L127,115z"/>
		<path class="st13" d="M95,127.9c0.4,0.7,0.8,1.3,1.2,2C95.2,129.6,95,128.9,95,127.9z"/>
		<path class="st1" d="M110.9,93c-5.1,3.8-10.4,4.2-15.9,0.9c-0.3-0.3-0.7-0.7-1-1l0.1,0.1c-0.1-0.6-0.4-1-1-1.1l0,0
			c-0.1-0.3-0.2-0.7-0.3-1c1.1-3.6,4-1.8,6.2-2c-0.2,2.1,0.1,4,2.7,4.4c2.5,0.3,3.5-1.1,3.7-3.4c1.2,0.4,2.4,0.8,3.5,1.2
			C109.5,91.8,110.2,92.4,110.9,93z"/>
		<path class="st5" d="M108.9,91.1c-1.2-0.4-2.4-0.8-3.5-1.2c-2-1.4-4.2-1.2-6.4-1c-2.2,0.1-5.1-1.6-6.2,2c-0.6,0.1-1.2,0.2-1.8,0.3
			c-1.7-1.6-3-3.4-3-6.3c7.5,2.2,16.4-1.6,22.3,6.1C109.7,91.1,109.3,91.1,108.9,91.1z"/>
		<path class="st6" d="M108.9,91.1c0.4,0,0.9-0.1,1.3-0.1c1,0.4,0.9,1.2,0.8,2C110.2,92.4,109.5,91.8,108.9,91.1z"/>
		<path class="st6" d="M90.9,91.2c0.6-0.1,1.2-0.2,1.8-0.3c0.1,0.3,0.2,0.7,0.3,1C91.9,93.1,91.4,91.9,90.9,91.2z"/>
		<path class="st6" d="M94,92.9c0.3,0.3,0.7,0.7,1,1C94.5,93.8,93.8,93.8,94,92.9z"/>
		<path class="st6" d="M93.1,91.9c0.7,0,1,0.4,1,1.1C93.2,93.1,92.3,93.3,93.1,91.9z"/>
		<path class="st14" d="M124,148.8c10-1.2,14.3-9.9,20.6-15.9c1.6,6.8,2.9,13.8,7.5,19.5c1.1,1.4,2.6,2.5,3.9,3.7
			c-7.2,7.5-16,12.2-26.3,13.8c-4.1,0.7-6.2-0.5-5.8-5.3C124.3,159.4,124,154.1,124,148.8z"/>
		<path class="st15" d="M145.8,131c0.4-0.4,0.7-0.8,1.1-1.1C146.5,130.2,146.2,130.6,145.8,131z"/>
		<path class="st1" d="M148.4,94c-4.5,4.3-10.9,4.4-16.5,0.2c0.4-0.4,0.7-0.8,1.1-1.2l-0.1,0.1c0.6-0.1,1-0.3,1.1-1l0,0
			c1.6-0.6,3.3-1.2,4.9-1.8c0,2.6,0.8,4.8,3.7,4.5c3.2-0.4,2.8-3,2.4-5.3c2.3,0.2,5.6-0.9,4.8,3.5l0,0
			C149.5,93.3,148.9,93.6,148.4,94z"/>
		<path class="st5" d="M149.9,92.9c0.7-4.4-2.5-3.3-4.8-3.5c-2.1-0.5-4.1,0.4-6.1,0.8c-1.6,0.6-3.3,1.2-4.9,1.8
			c0.9-4.2,4.7-4.1,7.6-5c4.2-1.4,8.9,0.2,13.2-2C154.1,90.3,153.3,91.5,149.9,92.9z"/>
		<path class="st5" d="M148.4,94c0.5-0.4,1-0.7,1.5-1.1C150.3,94.4,149.3,94.2,148.4,94z"/>
		<path class="st5" d="M134.1,92.1c0,0.7-0.5,0.9-1.1,1C132.9,92.3,132.7,91.3,134.1,92.1z"/>
		<path class="st5" d="M133.1,93c-0.4,0.4-0.7,0.8-1.1,1.2C132.1,93.5,132,92.7,133.1,93z"/>
		<path class="st12" d="M135.1,125.2c-10.8,11.7-14.4,12.1-25.7,0.4C113.4,123.4,128.6,123,135.1,125.2z"/>
		<path class="st16" d="M127,115c0.4-0.2,0.7-0.5,1.1-0.7c0.1,0.1,0.2,0.3,0.3,0.4C127.9,114.8,127.5,114.9,127,115L127,115z"/>
		<path class="st17" d="M99,88.9c2.2-0.2,4.4-0.4,6.4,1c-0.2,2.3-1.2,3.7-3.7,3.4C99.1,93,98.8,91,99,88.9z"/>
		<path class="st17" d="M139,90.3c2-0.4,4-1.3,6.1-0.8c0.4,2.3,0.8,4.9-2.4,5.3C139.8,95,138.9,92.8,139,90.3z"/>
	</g>
</g>
</svg>
