<?xml version="1.0" encoding="utf-8"?>
<!-- Generator: Adobe Illustrator 23.0.3, SVG Export Plug-In . SVG Version: 6.00 Build 0)  -->
<svg version="1.1" id="Layer_1" xmlns="http://www.w3.org/2000/svg" xmlns:xlink="http://www.w3.org/1999/xlink" x="0px" y="0px"
	 viewBox="0 0 250 250" style="enable-background:new 0 0 250 250;" xml:space="preserve">
<style type="text/css">
	.st0{fill:none;}
	.st1{fill:#F9FF00;}
	.st2{fill:#25292B;}
	.st3{fill:#323954;}
	.st4{fill:#4C4E7A;}
	.st5{fill:#16191A;}
	.st6{fill:#171A1A;}
	.st7{fill:#825034;}
	.st8{fill:#512E28;}
	.st9{fill:#D8D323;}
	.st10{fill:#7A5935;}
	.st11{fill:#4C747B;}
	.st12{fill:#324C56;}
	.st13{fill:#B27746;}
	.st14{fill:#F4F2F1;}
	.st15{fill:#B8563E;}
	.st16{fill:#562C1B;}
	.st17{fill:#FEFEFE;}
	.st18{fill:#B9282A;}
	.st19{fill:#8B1B22;}
</style>
<g>
	<g>
		<path class="st0" d="M124,251c-41,0-82,0-123,0C1,167.7,1,84.3,1,1c82,0,164,0,246-0.1c3.4,0,4.1,0.7,4.1,4.1
			c-0.1,80.7-0.1,161.3,0,242c0,3.4-0.7,4.1-4.1,4.1c-40.7-0.2-81.3-0.1-122-0.1c0.8-2.2,2.9-3.1,4.4-4.5
			c15.4-13.2,30.9-26.3,46.3-39.4c4-3.2,7.7-6.8,12-9.6c6.1-4,8.5-9.1,7.5-16.2c-0.5-3.6-0.3-7.3,0-10.9c0.3-3.5-1.2-4.8-4.4-4.8
			c-11.9-2.7-23.8-5.5-35.7-8.2c-0.3-0.4-0.7-0.8-1-1.2c2-0.6,4-1.1,6.9-2c-6.2-3.7-9.6-8.3-9.9-15.2c15.6,12,35.5,13.7,47.8,4.2
			c-2.1-0.3-4.3-0.6-6.4-0.9c-12.7-2.1-20.9-9.5-23.1-21.5c-1.1-6-1.7-12.2,0.7-18.2c0.4-0.9,1-1.9-0.7-2.3l0-0.1
			c1.7,1,1.4-0.4,1.6-1.3c0-0.5,0.1-1,0.1-1.5l-0.1,0.2c2.3-4.2,2.1-8.7,1.7-13.3c2.4-12.3,3.1-24.7,1.2-37.2
			c-3.4-22.6-18-35.3-40.8-35.5c-3,0-6,0.4-8.9-0.5c-16.4-4.9-34.5,1.2-43,15.6c-8.9,15-13.7,31.3-12.2,49c0.4,4.7,1.4,9.3,4.3,13.7
			c1.2-3.4,0.2-6.8,2.7-9.2c0.1,0.3,0.1,0.6,0.2,1c0,0.7,0.1,1.4,0.1,2.1c-1.4,4.3-1,8.6-0.1,12.9c-1.9,8.1-4.4,16-8.4,23.4
			c-3.3,5.9-7.1,11.4-14.7,12.8c9.8,3.9,19.4,6.7,28.4-1.5c0.3,0.3,0.7,0.6,1,0.9c-4.1,10.9-12.6,16.3-23.5,18.7
			c-0.6-0.1-1.2-0.4-1.4,0.4c0,0.1,0.7,0.4,1.1,0.6c12.6,4.8,25.4,5.8,38.5,2.1c-0.5,2.3-2.7,2.8-4.1,4.1
			c-11.2,2.6-22.4,5.1-33.3,8.5c-2.7-0.3-2.9,1.3-2.9,3.4c0.1,6.8,0.1,13.7,0,20.5c0,2,0.6,3.4,2.1,4.7c5,4.1,9.9,8.3,14.9,12.5
			c1.4,1.4,2.8,2.8,4.3,4.1C93.4,224.4,108.7,237.7,124,251z"/>
		<path class="st1" d="M175.8,207.1c-15.5,13.1-30.9,26.2-46.3,39.4c-1.6,1.4-3.7,2.3-4.4,4.5c-0.3,0-0.7,0-1,0
			c-15.3-13.3-30.6-26.6-45.8-39.9c-1.5-1.3-2.9-2.7-4.3-4.1c2.9-2.5,2.2-5.6,1.7-8.8c-0.6-4-2.7-7.7-2.4-12.6
			c11.5,5.7,22.5,11.2,33.5,16.5c6.4,3.1,12.1,6.9,16,13c0.5,0.8,0.9,2.5,2.3,0.7c3.2-3.8,6.2-7.9,10.6-10.3
			c12.4-6.8,24.9-13.2,38.7-16.6c1.4-0.3,3-1.7,4.2-0.5c1.3,1.4-0.2,3.1-0.5,4.6C177.2,197.8,174.6,202.1,175.8,207.1z"/>
		<path class="st2" d="M76.3,83.1c0-0.7-0.1-1.4-0.1-2.1c0.1-0.1,0.3-0.3,0.3-0.3c-0.1-0.2-0.3-0.4-0.5-0.6
			c-2.5,2.4-1.5,5.8-2.7,9.2c-2.9-4.4-3.9-9-4.3-13.7c-1.5-17.7,3.4-34,12.2-49c8.5-14.4,26.6-20.5,43-15.6c3,0.9,5.9,0.5,8.9,0.5
			c22.8,0.2,37.4,12.9,40.8,35.5c1.9,12.5,1.2,24.8-1.2,37.2c-2.2-0.8-3.4-4.2-6.7-2.6c1.3,2.6,2.6,5,3.9,7.5l0.1-0.1
			c-2.2,1.1-4-0.9-6.1-0.8c-3.3-1.3-6.6-5.1-10,0c-0.5-0.1-1-0.1-1.5-0.2c0.4-3.4-2.4-1.6-3.7-2.1c-1.6-0.6-1.5,0.8-1.9,1.9
			c-1.2,3.3-4.1,3.9-5.6,0.9c-1.3-2.6-3.1-0.8-4.4-1.5c4.1-4.8,9.9-4,16-4.3c-3.2-2.5-6.2-4.2-8.1-6.7c-3.1-4.1-6.2,0.8-9.2-0.4
			c0.5-2.7,3.5-1.9,4.6-3.9c-6.8-7.3-11.9-15.9-17-25.5c-1,2.9-1.7,4.7-2.2,6.6c-2.5,9.5-5.6,18.8-9.6,27.7
			c-1.3,2.9-1.6,5.5-0.3,8.3c-5.3-3.2-3.5,2.7-5.2,4.1c-1.7,3-3.4,6-5.1,9c-0.3,0-0.6,0-0.9,0c0.7-2.9,1.5-5.9,2.2-8.8
			c2.4-3.8-4.3-4-2.7-7.6c-1.9,1.5-4.3,2.5-2.9,5.5c-1.6-0.9-2.4,0.3-3.2,1.3c-2.1,2.9-4.3,5.8-6.4,8.6c-4.7-1.9-4.9-6.8-7.3-10.3
			C78.2,88.4,79.1,84.9,76.3,83.1z M161.9,71.7c-0.2-0.3-0.5-0.6-0.7-0.9c-0.2-0.5-0.5-1-0.7-1.5c-0.1,0.1-0.3,0.2-0.3,0.3
			c0.2,0.5,0.4,1,0.6,1.5c0,0.2,0.1,0.4,0.3,0.5c0,0.6,0.1,1.2,1,1.3c0.2,2.7,1.5,4.9,3.7,7.2c0.5-3.7-1.8-5.4-3.7-7.3
			C162,72.6,161.9,72.2,161.9,71.7z M105.2,77c-1.4,1.8-2.8,3.6-4.5,5.9C107.3,84.7,105,79.7,105.2,77z M76.8,76.9
			c-0.1-0.1-0.2-0.2-0.2-0.3c-0.1,0.1-0.2,0.2-0.3,0.3c0.1,0.1,0.3,0.3,0.4,0.4C76.7,77.2,76.7,77.1,76.8,76.9z M158.4,64.7
			c0,0.1-0.1,0.2-0.1,0.4c0.2,0,0.3,0,0.5,0.1c0-0.1,0-0.3-0.1-0.4C158.6,64.7,158.5,64.8,158.4,64.7z"/>
		<path class="st3" d="M175.8,207.1c-1.2-5,1.4-9.3,2.3-13.9c0.3-1.6,1.9-3.2,0.5-4.6c-1.2-1.2-2.8,0.1-4.2,0.5
			c-13.9,3.3-26.4,9.8-38.7,16.6c-4.4,2.4-7.4,6.5-10.6,10.3c0-11.5,0-22.9,0-34.4c21.9-5.4,43.9-10.7,65.9-16.1
			c3.2,0,4.7,1.3,4.4,4.8c-0.3,3.6-0.5,7.4,0,10.9c1.1,7.2-1.4,12.3-7.5,16.2C183.5,200.3,179.8,203.9,175.8,207.1z"/>
		<path class="st4" d="M125,181.5c0,11.5,0,22.9,0,34.4c-1.4,1.8-1.8,0.1-2.3-0.7c-3.9-6.1-9.6-9.9-16-13c-11-5.3-22-10.8-33.5-16.5
			c-0.3,4.9,1.8,8.6,2.4,12.6c0.5,3.2,1.1,6.3-1.7,8.8c-5-4.2-9.9-8.4-14.9-12.5c-1.6-1.3-2.2-2.7-2.1-4.7c0.1-6.8,0.1-13.7,0-20.5
			c0-2.1,0.2-3.7,2.9-3.4c9,2.2,17.9,4.7,27,6.7c12.8,2.7,25.3,6.8,38.3,8.5L125,181.5z"/>
		<path class="st5" d="M59,150.2c10.9-2.4,19.4-7.8,23.5-18.7c0.3-0.8,0.7-1.7,1-2.5c0.6-0.5,0.7-1.3,0-1.4
			c-0.8-0.1-0.7,0.7-0.5,1.3c-0.5,0.6-1,1.2-1.5,1.7c-9,8.2-18.6,5.5-28.4,1.5c7.5-1.4,11.4-6.8,14.7-12.8
			c4.1-7.3,6.5-15.2,8.4-23.4c3.1,4.3,5.3,9.7,11.8,10c1,10.1,6.6,17.2,14.4,23.1c1.4,1.1,2.6,2.5,3.8,3.8c-0.2,1.9-0.3,3.7-0.5,5.6
			c-1.8,5.6-3.2,11.4-8.6,14.9c-13.1,3.8-25.9,2.8-38.5-2C58.8,150.9,58.9,150.5,59,150.2z"/>
		<path class="st6" d="M169.5,100.2c1.6,0.3,1,1.4,0.7,2.3c-2.4,6-1.8,12.2-0.7,18.2c2.1,12.1,10.4,19.4,23.1,21.5
			c2.1,0.4,4.3,0.6,6.4,0.9c-12.3,9.5-32.2,7.8-47.8-4.2c0.3,6.9,3.7,11.5,9.9,15.2c-2.8,0.8-4.9,1.4-6.9,2
			c-6-5.3-7.7-12.6-9.3-19.9c-0.2-1.7-0.4-3.4-0.7-5c6-8.2,16.1-13.7,16.8-25.4C165,105.8,167.4,103.1,169.5,100.2z"/>
		<path class="st7" d="M144.8,136.1c1.7,7.3,3.3,14.7,9.3,19.9c0.3,0.4,0.7,0.8,1,1.2c-7.4,10.3-17.5,16.2-30.2,17.8
			c-0.4-0.1-0.7-0.2-1.1-0.3c0-8.5,0-16.9,0-25.4c7.7,0.5,12.8-3.6,17.1-9.3C142.1,138.6,143.5,137.4,144.8,136.1z"/>
		<path class="st8" d="M123.9,149.3c0,8.5,0,16.9,0,25.4c-13.4-0.2-23.2-6.9-30.9-17.2c1.4-1.3,3.6-1.9,4.1-4.1
			c5.4-3.5,6.8-9.3,8.6-14.9c2.1,0.8,3.5,2.4,5,3.9C114.4,146,118.5,148.8,123.9,149.3z"/>
		<path class="st9" d="M125,175c12.6-1.6,22.7-7.4,30.2-17.8c11.9,2.7,23.8,5.5,35.7,8.2c-22,5.4-43.9,10.7-65.9,16.1
			c0,0-0.1-0.4-0.1-0.4C125,179.1,125,177,125,175z"/>
		<path class="st1" d="M125,175c0,2-0.1,4.1-0.1,6.1c-13-1.7-25.5-5.8-38.3-8.5c-9.1-1.9-18-4.4-27-6.7c10.9-3.4,22.1-5.9,33.3-8.5
			c7.7,10.4,17.5,17,30.9,17.2C124.3,174.8,124.6,174.9,125,175z"/>
		<path class="st10" d="M169.5,100.2c-2.1,3-4.4,5.6-8.6,5.5c-0.1-6,2.3-11.7,3.1-17.6c2.1,0,3.9,1.9,6.1,0.8c0,0.2,0,0.5,0.1,0.7
			c0.1,0,0.3-0.1,0.4-0.1c-0.2-0.2-0.4-0.4-0.6-0.5c-1.3-2.4-2.6-4.9-3.9-7.5c3.3-1.6,4.5,1.8,6.7,2.6c0.4,4.6,0.6,9.1-1.7,13.3
			c0,0,0.1-0.2,0.1-0.2c0,0.5-0.1,1-0.1,1.5C170.5,99.2,170,99.7,169.5,100.2L169.5,100.2z"/>
		<path class="st10" d="M88,106c-6.5-0.3-8.7-5.6-11.8-10c-0.9-4.3-1.3-8.6,0.1-12.9c2.7,1.8,1.8,5.3,3.4,7.6
			c2.3,3.5,2.6,8.4,7.3,10.3C87.3,102.7,87.7,104.3,88,106z"/>
		<path class="st11" d="M59,150.2c-0.1,0.4-0.3,0.7-0.4,1.1c-0.4-0.2-1.1-0.5-1.1-0.6C57.8,149.8,58.4,150.1,59,150.2z"/>
		<path class="st12" d="M169.5,100.1c0.5-0.4,1-0.9,1.6-1.3C170.9,99.7,171.2,101.1,169.5,100.1z"/>
		<path class="st5" d="M76,80c0.2,0.2,0.4,0.4,0.5,0.6c0,0-0.2,0.2-0.3,0.3C76.1,80.6,76.1,80.3,76,80z"/>
		<path class="st12" d="M171.2,97.3c0,0-0.1,0.2-0.1,0.2C171.1,97.5,171.2,97.3,171.2,97.3z"/>
		<path class="st13" d="M88,106c-0.3-1.6-0.7-3.3-1-4.9c2.1-2.9,4.2-5.8,6.4-8.6c0.8-1,1.6-2.2,3.2-1.3c1.7,1.1,3.4,2.2,5.6,2.1
			c-0.7,2.9-1.5,5.9-2.2,8.8c-0.9,0.4-0.9,1.3-1,2.1c-0.3,0.6-0.6,1.1-0.8,1.7c0,0.1,0.3,0.3,0.5,0.5c0.1-0.5,0.2-0.9,0.3-1.4
			c1.3-0.5,1.6-1.7,1.9-2.9c1.7-3,3.4-6,5.1-9c1.6-0.2,3.2-0.2,4.7-0.6c2.8-0.7,2.2-2.1,0.5-3.5c-1.4-2.8-1.1-5.4,0.3-8.3
			c4-8.9,7.1-18.2,9.6-27.7c0.5-1.9,1.2-3.7,2.2-6.6c5.1,9.6,10.2,18.2,17,25.5c-1.1,2-4.1,1.3-4.6,3.9c3,1.2,6.1-3.7,9.2,0.4
			c1.9,2.5,5,4.2,8.1,6.7c-6.1,0.3-11.9-0.5-16,4.3l0.1-0.1c-1,0.1-1.4,0.6-1.1,1.6c-1.6,1.7-2.5,3.2,0.7,4.1
			c4.8,1.4,9.4,2.1,13.4-1.8c0.8,0.1,1.5,0,1.9-0.9c1.1-0.1,1.7-0.9,2.1-1.8c3.3-5.1,6.6-1.3,10,0c-0.8,5.9-3.2,11.5-3.1,17.6
			c-0.7,11.7-10.7,17.2-16.8,25.4c-2.3,2.4-4.6,4.7-6.9,7.1c-7,7.1-16.3,7.4-23.9,0.7c-2.3-2.1-4.8-4-7.2-6
			c-1.3-1.3-2.4-2.7-3.8-3.8C94.6,123.2,89,116,88,106z M136.3,121.1c0.1-0.1,0.2-0.3,0.2-0.4c0-0.1-0.1-0.3-0.2-0.3
			c-8.2-1.8-16.4-1.4-24.7,0.5c4.5,2.1,6,8.8,12.4,7.8C130.2,129.5,132.5,124,136.3,121.1z M130,110.5c-6,1.2-6,1.2-6-5.1
			c0-4.5-0.1-9,0-13.4c0.1-3-1.8-3.1-3.9-3c-2,0-4.1-0.2-4.1,2.8c0.1,5-0.4,10,0.1,14.9c0.5,4.4,4.3,7.3,7.9,8.8
			C126.7,116.7,128.4,113.1,130,110.5z"/>
		<path class="st14" d="M150.1,90.9c-4,3.9-8.6,3.2-13.4,1.8c-3.2-0.9-2.3-2.4-0.7-4.1c0.5-0.5,1.5-0.5,1.1-1.6l-0.1,0.1
			c1.3,0.7,3.1-1.1,4.4,1.5c1.5,3,4.3,2.4,5.6-0.9c0.4-1.1,0.3-2.5,1.9-1.9c1.3,0.5,4.1-1.3,3.7,2.1c-0.2,0.4-0.5,0.7-0.7,1.1
			C151.3,89.6,150.7,90.2,150.1,90.9z"/>
		<path class="st14" d="M102.2,93.2c-2.2,0.1-3.9-1.1-5.6-2.1c-1.4-2.9,0.9-3.9,2.9-5.5C97.9,89.2,104.6,89.4,102.2,93.2z"/>
		<path class="st14" d="M111.2,88.9c1.7,1.4,2.3,2.8-0.5,3.5c-1.5,0.4-3.1,0.4-4.7,0.6C107.7,91.6,105.8,85.7,111.2,88.9z"/>
		<path class="st13" d="M105.2,77c-0.2,2.7,2.1,7.8-4.5,5.9C102.4,80.6,103.8,78.8,105.2,77z"/>
		<path class="st13" d="M162,73c1.8,1.9,4.2,3.6,3.7,7.3C163.5,78,162.2,75.8,162,73C162,73,162,73,162,73z"/>
		<path class="st12" d="M99,104.1c0.1-0.8,0.1-1.7,1-2.1c0.3,0,0.6,0,0.9,0c-0.4,1.1-0.6,2.3-1.9,2.9
			C99.1,104.6,99.1,104.4,99,104.1z"/>
		<path class="st12" d="M151.9,89c0.2-0.4,0.5-0.7,0.7-1.1c0.5,0.1,1,0.1,1.5,0.2c-0.4,0.9-1,1.7-2.1,1.8
			C152,89.6,152,89.3,151.9,89z"/>
		<path class="st5" d="M76.8,76.9c0,0.1-0.1,0.2-0.1,0.3c-0.1-0.1-0.3-0.3-0.4-0.4c0.1-0.1,0.2-0.2,0.3-0.3
			C76.6,76.7,76.7,76.8,76.8,76.9z"/>
		<path class="st15" d="M160.7,71.2c-0.2-0.5-0.4-1-0.6-1.5c0-0.1,0.2-0.2,0.3-0.3c0.2,0.5,0.5,1,0.7,1.5
			C161,71,160.9,71.1,160.7,71.2z"/>
		<path class="st12" d="M158.4,64.7c0.1,0,0.3,0,0.3,0c0.1,0.1,0.1,0.2,0.1,0.4c-0.2,0-0.3,0-0.5-0.1
			C158.3,65,158.3,64.9,158.4,64.7z"/>
		<path class="st13" d="M161.9,71.7c0.1,0.4,0.1,0.8,0.2,1.2c0,0-0.1,0.1-0.1,0.1c-0.8,0-0.9-0.6-1-1.3c0,0,0.4,0,0.4,0L161.9,71.7z
			"/>
		<path class="st13" d="M161.9,71.7l-0.4,0.1c0,0-0.4,0-0.4,0c-0.2-0.1-0.3-0.3-0.3-0.5c0.1-0.1,0.3-0.2,0.4-0.4
			C161.4,71.2,161.6,71.5,161.9,71.7z"/>
		<path class="st16" d="M106.2,132.8c2.4,2,4.8,4,7.2,6c7.6,6.7,16.9,6.4,23.9-0.7c2.3-2.3,4.6-4.7,6.9-7.1c0.2,1.7,0.4,3.4,0.7,5
			c-1.3,1.3-2.7,2.5-3.8,3.9c-4.3,5.7-9.4,9.8-17.1,9.3c-5.4-0.4-9.5-3.3-13.2-7c-1.5-1.5-3-3.1-5-3.9
			C105.9,136.5,106,134.7,106.2,132.8z"/>
		<path class="st11" d="M83,128.9c-0.2-0.6-0.3-1.4,0.5-1.3c0.7,0.1,0.6,0.9,0,1.4c0,0-0.3,0.2-0.3,0.2L83,128.9z"/>
		<path class="st17" d="M81.5,130.6c0.5-0.6,1-1.2,1.5-1.7l0.2,0.2c0,0,0.3-0.2,0.3-0.2c-0.3,0.8-0.7,1.7-1,2.5
			C82.2,131.2,81.9,130.9,81.5,130.6z"/>
		<path class="st2" d="M170,89c0.2,0.2,0.4,0.4,0.6,0.5c-0.1,0-0.3,0.1-0.4,0.1C170.1,89.4,170.1,89.2,170,89
			C170.1,89,170,89,170,89z"/>
		<path class="st8" d="M130,110.5c-1.6,2.6-3.3,6.2-5.9,5c-3.6-1.5-7.4-4.4-7.9-8.8c-0.6-4.9-0.1-9.9-0.1-14.9
			c0-3.1,2.1-2.8,4.1-2.8c2.1,0,4,0,3.9,3c-0.1,4.5,0,8.9,0,13.4C124,111.8,124,111.8,130,110.5z"/>
		<path class="st18" d="M124,128.6c-6.4,1-7.8-5.7-12.4-7.8c8.3-1.9,16.5-2.3,24.7-0.5c0.1,0,0.2,0.2,0.2,0.3c0,0.2-0.1,0.3-0.2,0.4
			c-2.4-0.6-4.5,0.8-6.9,0.9C125.2,122.2,123.1,124.2,124,128.6z"/>
		<path class="st19" d="M124,128.6c-0.9-4.5,1.1-6.5,5.5-6.7c2.3-0.1,4.5-1.5,6.9-0.9C132.5,124,130.2,129.5,124,128.6z"/>
		<path class="st11" d="M151.9,89c0.1,0.3,0.1,0.6,0,0.9c-0.3,0.9-1.1,1-1.9,0.9C150.7,90.2,151.3,89.6,151.9,89z"/>
		<path class="st15" d="M99,104.1c0.1,0.3,0.1,0.5,0,0.7c-0.1,0.5-0.2,0.9-0.3,1.4c-0.2-0.2-0.6-0.4-0.5-0.5
			C98.4,105.2,98.7,104.7,99,104.1z"/>
		<path class="st2" d="M137.1,87c0.4,1.1-0.6,1.1-1.1,1.6C135.7,87.6,136.1,87.1,137.1,87z"/>
	</g>
</g>
</svg>
