<?xml version="1.0" encoding="utf-8"?>
<!-- Generator: Adobe Illustrator 23.0.3, SVG Export Plug-In . SVG Version: 6.00 Build 0)  -->
<svg version="1.1" id="Layer_1" xmlns="http://www.w3.org/2000/svg" xmlns:xlink="http://www.w3.org/1999/xlink" x="0px" y="0px"
	 viewBox="0 0 250 250" style="enable-background:new 0 0 250 250;" xml:space="preserve">
<style type="text/css">
	.st0{fill:none;}
	.st1{fill:#0A104F;}
	.st2{fill:#424260;}
	.st3{fill:#B27746;}
	.st4{fill:#272A5B;}
	.st5{fill:#292928;}
	.st6{fill:#5F5753;}
	.st7{fill:#222221;}
	.st8{fill:#7A5935;}
	.st9{fill:#EFEEEE;}
	.st10{fill:#A52325;}
	.st11{fill:#0F0D0D;}
	.st12{fill:#443731;}
</style>
<g>
	<g>
		<path class="st0" d="M124,251c-41,0-82,0-123,0C1,167.7,1,84.3,1,1c82,0,164,0,246-0.1c3.4,0,4.1,0.7,4.1,4.1
			c-0.1,80.7-0.1,161.3,0,242c0,3.4-0.7,4.1-4.1,4.1c-40.7-0.2-81.3-0.1-122-0.1c0.2-0.3,0.4-0.5,0.6-0.8
			c17.8-15.1,35.6-30.2,53.4-45.3c2.1-1.6,4.2-3.2,6.2-4.9c4.8-4.1,11.2-7.3,14-12.5c2.9-5.4,0.7-12.6,0.8-19.1
			c0.1-7.7,0-7.7-7.9-8.7c-9.3-2.3-18.5-5.1-27.9-6.6c-7.4-1.2-11.3-5.5-14-11.7c-0.9-2.1-1.6-4.3-2.4-6.5c-2.1-5.5-0.4-10,4.2-13.4
			c6.1-4.5,8-10.8,9.3-17.9c3-16.3,6.6-32.4,9.9-48.6c6.4-10.1,7.2-21.7,8.5-33.1c0.6-4.2,1.7-8.4,1.1-13
			c-8.1,1.7-15.1,5.4-22.3,8.9c-2.5,1.2-4.2,1.3-6.7-0.3c-14.3-9.1-30.2-11.8-45.6-5.3c-10.5,4.4-18.7,4-27.9-1.4
			C75.3,9,70.7,6.2,68.7,8c-2.5,2.2-0.8,7.1-0.1,10.8c0.1,11.5,2.1,22.6,6.6,33.2c0,1.8-0.2,3.7,0.2,5.4C78,71.3,81.4,85,83.5,98.9
			c1.8,12,5.5,22.4,16.4,29.2c0.7,0.7,1.3,1.4,2,2c0.7,0.8,1.5,1.6,2.2,2.4l-0.1,0.3l0.2,0.2c-0.1,1.3-0.3,2.6-0.4,4
			c-0.8,1.4-1.6,2.9-2.4,4.3c-3.5,6.1-8.1,10.5-15.5,12c-9.4,1.8-18.6,4.7-28,7.1c-4,0-5.3,1.7-5,5.8c0.4,6.5,0.2,13,0.1,19.5
			c-0.1,2.5,0.6,4.3,2.6,5.9c9.4,7.9,18.7,16,28,24.1C97,227.4,111,238.6,124,251z"/>
		<path class="st1" d="M179,205c-17.8,15.1-35.6,30.2-53.4,45.3c-0.2,0.2-0.4,0.5-0.6,0.8c-0.3,0-0.7,0-1,0
			c-13-12.4-27-23.6-40.4-35.4c-9.2-8.1-18.6-16.2-28-24.1c-2-1.7-2.7-3.4-2.6-5.9c0.2-6.5,0.3-13-0.1-19.5c-0.3-4.1,1.1-5.8,5-5.8
			c1.3,2.5,3.9,2.1,6,2.6c20.3,5.1,40.7,10,61.1,15c0,11.7,0.1,23.4,0.1,35c0.3,0.8,0.6,0.7,0.9,0c0.5-0.4,1.1-0.7,1.5-1.2
			C140.2,195.1,162.6,192.1,179,205z"/>
		<path class="st1" d="M68.6,18.8c-0.7-3.7-2.4-8.6,0.1-10.8c2-1.8,6.6,0.9,9.5,2.7c9.1,5.5,17.4,5.8,27.9,1.4
			c15.4-6.5,31.3-3.8,45.6,5.3c2.5,1.6,4.2,1.5,6.7,0.3c7.1-3.4,14.2-7.2,22.3-8.9c0.7,4.6-0.4,8.8-1.1,13c-0.5,0.4-1.2,0.6-1.5,1.1
			c-3.8,7.5-7.5,15-12.2,22c-0.8,1.2-1,2.4-0.1,3.6c1.7,2.2,2.8,4.8,5.3,6.4c-3.3,16.2-6.9,32.4-9.9,48.6
			c-1.3,7.1-3.2,13.4-9.3,17.9c-4.6,3.4-6.3,7.8-4.2,13.4c-2.2,0.4-3.5,2-4.6,3.6c-4.3,6.6-10.1,10.8-18.1,11.5
			c-6-1.4-11.2-4-15.3-8.7c-1.6-1.9-3.5-3.6-6-4.3c0.1-1.3,0.3-2.6,0.4-4c3.5,0.8,4.9,4,7.4,6c7.4,5.9,17.9,6.6,23.6,0.1
			c6.5-7.4,12.1-15.7,17.5-24c1.1-1.7,3.7-5.7-0.9-7.4c-9.6-3.6-19.2-7.1-28.8-10.6c-3.7,0-7,1.4-10.4,2.6
			c-5.9,1.6-11.8,3.4-17.7,4.8c-2.5,0.6-2.7,1.8-2.7,4.2c0,8,5.1,13.3,9.4,19.2c-0.6,0.1-1.2,0.2-1.8,0.2
			c-10.8-6.7-14.5-17.2-16.4-29.2C81.4,85,78,71.3,75.3,57.5c-0.3-1.8-0.1-3.6-0.2-5.4c7.2-3.4,8.7-7.1,4.6-13.5
			C75.6,32.2,73.3,24.8,68.6,18.8z M116.1,82.9L116.1,82.9c-0.4-0.9-0.7-1.9-2-1.1c0,0,0.1,0,0.1,0c0.8-1.3-0.4-1.4-1.1-1.8
			c-2.1-1.7-4.2-3.4-6.9-4.2c-6.1-3.7-12.7-5.1-19.7-5.2c-7.3,0-7.3,0-5,6.9c0.2,0.5,0.4,0.9,0.6,1.4c-0.1,1.7,0.9,3,1.7,4.3
			c1.5,4.3,4.5,7.4,8.2,9.8c9,7.6,17.6,6.6,25.5-3.1c0.6-0.8,1.2-1.7,1.8-2.5c2.3,0.1,4.7-0.8,6.7,1.1c0.1,2.1,1.2,3.5,3.1,4.4l0,0
			c6.9,8.7,17.5,8.3,26.2-0.8c2.2-2,4.1-4.1,5.2-6.8c-0.1-0.3-0.2-0.5-0.3-0.8c2.8-2.2,3.1-5.5,3.7-8.6c1.2-3.2-0.3-3.9-3.2-4.1
			c-10.4-0.6-19.9,1.9-28.4,8.1c-1,0.3-1,1-0.8,1.8c-2.9-0.1-4.1,1.5-4.5,4.1l-0.1-0.1c-3.3-0.2-6.9,0.7-9.8-1.9l0,0
			C117.1,83.2,116.7,82.9,116.1,82.9z"/>
		<path class="st2" d="M179,205c-16.4-12.9-38.8-9.9-51.5,6.8c-0.4,0.5-1,0.8-1.5,1.2c-0.3,0-0.6,0-0.9,0c0-11.7-0.1-23.4-0.1-35
			c0-0.3,0-0.6,0-0.9c0.8,0,1.7,0.1,2.5-0.1c20.5-5,41.1-10,61.6-14.9c1.4-0.3,2.4-0.9,3-2.3c7.9,1,8,1,7.9,8.7
			c-0.1,6.4,2.1,13.7-0.8,19.1c-2.8,5.2-9.1,8.4-14,12.5C183.2,201.8,181.1,203.4,179,205z"/>
		<path class="st3" d="M123,97.1c9.6,3.5,19.3,7,28.8,10.6c4.6,1.7,2,5.8,0.9,7.4c-5.4,8.3-11,16.6-17.5,24
			c-5.7,6.5-16.2,5.8-23.6-0.1c-2.5-2-3.9-5.3-7.4-6c0,0-0.2-0.2-0.2-0.2l0.1-0.3c0.9-1.1,0.2-1.8-0.5-2.5c-0.6-0.7-1.2-1.4-1.9-2.2
			c-4.2-5.8-9.4-11.1-9.4-19.2c0-2.4,0.1-3.6,2.7-4.2c5.9-1.4,11.8-3.2,17.7-4.8c2,3.9,2,8.6,6.1,11.8c5,3.8,7.6,3.4,9.5-3.1
			c-5.2,1.6-5.2,1.6-5.2-3.9C123,102.1,123,99.6,123,97.1z M108.9,119.2c13,13.9,18.3,10.5,27.7-0.1
			C127.4,117.6,118.5,117.4,108.9,119.2z"/>
		<path class="st2" d="M125,177c0,0.3,0,0.6,0,0.9c-20.4-5-40.7-9.9-61.1-15c-2.1-0.5-4.8-0.1-6-2.6c9.3-2.4,18.5-5.3,28-7.1
			c7.5-1.5,12-5.9,15.5-12c0.8-1.4,1.6-2.9,2.4-4.3c2.5,0.8,4.3,2.5,6,4.3c4.1,4.7,9.3,7.3,15.3,8.7C125,159,125,168,125,177z"/>
		<path class="st4" d="M125,177c0-9,0-18,0-27c8.1-0.6,13.8-4.8,18.1-11.5c1-1.6,2.4-3.2,4.6-3.6c0.8,2.2,1.5,4.4,2.4,6.5
			c2.7,6.2,6.6,10.5,14,11.7c9.4,1.5,18.6,4.3,27.9,6.6c-0.5,1.4-1.6,1.9-3,2.3c-20.5,4.9-41.1,9.9-61.6,14.9
			C126.7,177.1,125.8,177,125,177z"/>
		<path class="st2" d="M68.6,18.8c4.8,6,7,13.4,11.1,19.8c4.1,6.4,2.7,10.1-4.6,13.5C70.7,41.4,68.7,30.3,68.6,18.8z"/>
		<path class="st2" d="M171.2,55c-2.5-1.5-3.6-4.2-5.3-6.4c-0.9-1.2-0.8-2.4,0.1-3.6c4.7-7,8.4-14.5,12.2-22c0.3-0.5,1-0.8,1.5-1.1
			C178.4,33.3,177.6,44.9,171.2,55z"/>
		<path class="st5" d="M101.6,127.8c0.6,0.7,1.2,1.4,1.9,2.2c-0.6,0-1.1,0.1-1.7,0.1c-0.7-0.7-1.3-1.4-2-2
			C100.4,128,101,127.9,101.6,127.8z"/>
		<path class="st6" d="M101.8,130.1c0.6,0,1.1-0.1,1.7-0.1c0.8,0.7,1.4,1.5,0.5,2.5C103.3,131.7,102.6,130.9,101.8,130.1z"/>
		<path class="st7" d="M125.1,213c0.3,0,0.6,0,0.9,0C125.7,213.7,125.4,213.8,125.1,213z"/>
		<path class="st8" d="M123,97.1c0,2.5,0,5,0,7.5c0,5.5,0,5.5,5.2,3.9c-1.9,6.5-4.5,6.9-9.5,3.1c-4.1-3.2-4.1-7.9-6.1-11.8
			C116,98.5,119.3,97.1,123,97.1z"/>
		<path class="st3" d="M160.4,85.4c-1.2,2.7-3.1,4.9-5.2,6.8c-1-0.3-2-0.5-1.8-1.8c0.1-0.4,0.3-0.7,0.4-1.1
			c-0.4,0.1-0.7,0.3-1.1,0.4c-1.6,1.2-2.9,2.7-4.9,3.2c-5.1-2.6-10.2,1-15.3,0.1c-1.2,0-2.3,0-3.5,0l0,0c0.4-2.3-1.9-4.7,0.1-7l0,0
			c0.3-0.3,0.7-0.7,1-1l0,0c1.6,0,3.1,0.3,3.9,2c-0.8,1.4,0.4,1.7,1.2,2.1c6.6,3.2,10.8,2.4,16.3-3.1c0.6,0,1.1,0.1,1.7,0.1
			c0.9,0,1.8,0,2.6-0.1c0.1,0.3,0.3,0.5,0.4,0.8c0.3-0.3,0.6-0.5,0.9-0.8l-0.1,0c0.3-0.1,0.5-0.3,0.7-0.5
			C158.6,85.5,159.5,85.4,160.4,85.4z"/>
		<path class="st3" d="M117.3,90.1c-7.9,9.7-16.5,10.7-25.5,3.1c1.5,0,2.1-1.4,3.1-2.1c4.1,2.1,7.8,5.4,12.9,3.8
			c4.9-2.2,1-4.1-0.1-6.2c1.2-0.5,2.3-1.1,3.5-1.6C113.8,87,114.6,90.3,117.3,90.1z"/>
		<path class="st3" d="M147.8,93c2-0.5,3.4-2.1,4.9-3.2c0.2,0.2,0.4,0.4,0.7,0.7c-0.2,1.4,0.8,1.6,1.8,1.8
			c-8.7,9.2-19.3,9.5-26.2,0.8c1.2,0,2.3,0,3.5,0C137.2,98,139.5,98,147.8,93z"/>
		<path class="st3" d="M83.6,83.3c-0.9-1.3-1.8-2.6-1.7-4.3c0.3-0.3,0.7-0.6,1-0.9c0.5,0.2,0.9,0.4,1.4,0.7c0,0,0,0,0.1-0.1
			c-0.5-2.4-0.6-4.6,2.4-5.6c1.5-0.1,3-0.6,4.3,0.7c-1.8,1.8,0.4,3.2,0.5,4.8c-1.4-0.3-2.8-0.6-5-1.1c1.7,3.2,2.3,6.2,5.6,7.4
			L92,84.9c0.4,0.6,0.7,1.1,1.1,1.7c1.3-0.5,1.7,0.4,2,1.3c-0.1,0.9-0.3,1.7-1.2,2.2C93.6,90,93.3,90,93,89.9l0,0
			c-0.4-0.8-1-1.3-2-1l0,0c0.1-1.5-1-2.3-2-3l0,0.1c-0.3-0.5-0.7-1-1-1.6C86.9,82.7,85.2,83.2,83.6,83.3z"/>
		<path class="st9" d="M132.2,80c8.5-6.2,18-8.7,28.4-8.1c3,0.2,4.4,0.9,3.2,4.1c-0.5,0-1,0-1.5,0c-0.1-2.8-2.3-1.9-3.7-1.8
			c-8,0.2-15.6,1.8-22.6,6C134.8,80.5,133.4,80.9,132.2,80z"/>
		<path class="st3" d="M117.3,90.1c-2.7,0.3-3.6-3.1-6.1-3.1c-0.4-0.7-0.9-1.5-1.3-2.2c-0.5-4.2-4.6-4-7-5.9c0-0.7,0-1.5,0-2.2
			c1,0.3,2.1,0.7,3.1,1c2,1.1,4.1,2.3,6.1,3.4c0.5,0.8,1.1,1.2,2,0.9c0,0-0.1,0-0.1,0c0.2,1.2,0.9,1.5,2,1l0,0c-0.2,0.8,0.2,1.1,1,1
			l0,0c-0.3,1.8,1.4,2.4,2.1,3.6C118.5,88.4,117.9,89.2,117.3,90.1z"/>
		<path class="st9" d="M106,77.6c-1-0.3-2.1-0.7-3.1-1c-3.6-2.2-7.8-2.5-11.9-2.7c-1.3-1.2-2.8-0.8-4.3-0.7
			c-2.2,0.2-6.1-1.7-4.3,3.5c-0.4,0.4-0.7,0.7-1.1,1.1c-2.3-7-2.3-6.9,5-6.9c7,0,13.6,1.5,19.7,5.2C106.1,76.5,106,77.1,106,77.6z"
			/>
		<path class="st3" d="M83.6,83.3c1.6-0.2,3.3-0.7,4.4,1.1c0,0.8,0.1,1.4,1,1.6l0-0.1c-0.3,1.7,0.5,2.6,2,3l0,0c0.3,1.2,1,1.3,2,1
			l0,0c0.1,1,0.8,1.1,1.6,1l0.4,0c-1,0.8-1.6,2.1-3.1,2.1C88.1,90.7,85.2,87.6,83.6,83.3z"/>
		<path class="st3" d="M160.4,85.4c-0.9,0-1.8,0.1-2.7,0.1c-0.1-0.3-0.1-0.8-0.2-0.8c-1,0.1-0.4,0.9-0.6,1.4l0.1,0
			c-0.4,0-0.9,0-1.3,0c-0.9,0-1.8,0-2.6,0.1c1.3-2,2.6-4,3.9-6c1.6-0.3,1.8,1.5,2.9,1.9c0.1,0.9,0.1,1.8,0.2,2.6
			C160.2,84.8,160.3,85.1,160.4,85.4z"/>
		<path class="st3" d="M132.2,80c1.3,0.9,2.6,0.4,3.9,0.2c0,0.9-0.1,1.8-0.1,2.7c0.1,0.4,0.2,0.8,0.3,1.3l0-0.1c-1,0-1,0.8-1.1,1.5
			c-0.4,0.5-0.7,0.9-1.1,1.4c-0.8-1.7-2.3-2-3.9-2c0.3-1.1,1.7-1.8,1.4-3.2C131.2,81.1,131.2,80.3,132.2,80z"/>
		<path class="st3" d="M160.1,84.6c-0.1-0.9-0.1-1.8-0.2-2.6c0.8-2,1.6-4,2.4-5.9c0.5,0,1,0,1.5,0C163.2,79.1,162.9,82.4,160.1,84.6
			z"/>
		<path class="st3" d="M119.1,87.5c-0.7-1.2-2.4-1.8-2.1-3.6c2.9,2.6,6.4,1.7,9.8,1.9c-0.3,1-0.7,1.9-1,2.9
			C123.9,86.7,121.4,87.6,119.1,87.5z"/>
		<path class="st9" d="M106,77.6c0-0.6,0-1.1,0.1-1.7c2.7,0.8,4.8,2.5,6.9,4.2c-0.3,0.3-0.6,0.6-0.9,0.9
			C110.1,79.9,108,78.8,106,77.6z"/>
		<path class="st3" d="M125.8,88.7c0.3-1,0.7-1.9,1-2.9c0,0,0.1,0.1,0.1,0.1c0.7,0,1.4,0,2.1,0.1c-2,2.3,0.3,4.7-0.1,7
			C127,92.2,126,90.8,125.8,88.7z"/>
		<path class="st3" d="M129,86c-0.7,0-1.4,0-2.1-0.1c0.4-2.6,1.6-4.2,4.5-4.1c0.3,1.4-1.1,2-1.4,3.2l0,0
			C129.7,85.3,129.3,85.7,129,86L129,86z"/>
		<path class="st9" d="M112.1,81c0.3-0.3,0.6-0.6,0.9-0.9c0.7,0.4,1.9,0.5,1.1,1.8C113.2,82.2,112.6,81.8,112.1,81z"/>
		<path class="st9" d="M116.1,82.9c-1.1,0.5-1.8,0.1-2-1C115.4,81,115.7,82,116.1,82.9z"/>
		<path class="st9" d="M82.9,78.2c-0.3,0.3-0.7,0.6-1,0.9c-0.2-0.5-0.4-0.9-0.6-1.4c0.4-0.4,0.7-0.7,1.1-1.1
			C82.6,77.2,82.8,77.7,82.9,78.2z"/>
		<path class="st9" d="M117.1,84c-0.8,0.1-1.2-0.2-1-1C116.7,82.9,117.1,83.2,117.1,84z"/>
		<path class="st10" d="M108.9,119.2c9.6-1.8,18.5-1.6,27.7-0.1C127.2,129.7,121.9,133.1,108.9,119.2z"/>
		<path class="st9" d="M133.9,87c0.4-0.5,0.7-0.9,1.1-1.4c0.5-0.4,1.3-0.6,1.1-1.5c0,0,0,0.1,0,0.1c0.6-0.1,1.2-0.3,1.8-0.4
			c1,0.2,1,1.1,1.2,1.9c0.6,2.3,2.2,3.3,4.5,2.4c2.4-1,3-2.8,1.4-5.1c5.5-1.6,7-0.9,6.3,3c-5.5,5.5-9.6,6.3-16.3,3.1
			C134.3,88.6,133.1,88.4,133.9,87z"/>
		<path class="st11" d="M138,83.8c-0.6,0.1-1.2,0.3-1.8,0.4c-0.1-0.4-0.2-0.8-0.3-1.3c6-4.2,13.1-3.5,19.8-4.6
			c1.1-0.2,1.1,0.9,1.3,1.7c-1.3,2-2.6,4-3.9,6c-0.6,0-1.1-0.1-1.7-0.1c0.7-3.9-0.9-4.6-6.3-3C142.7,83.5,140.2,82.2,138,83.8z"/>
		<path class="st3" d="M147.8,93c-8.3,5-10.6,5-15.3,0.1C137.6,94,142.7,90.4,147.8,93z"/>
		<path class="st3" d="M157,86.1c0.2-0.5-0.4-1.3,0.6-1.4c0,0,0.1,0.5,0.2,0.8C157.5,85.8,157.3,85.9,157,86.1z"/>
		<path class="st3" d="M152.7,89.7c0.4-0.1,0.7-0.3,1.1-0.4c-0.1,0.4-0.3,0.7-0.4,1.1C153.2,90.2,152.9,89.9,152.7,89.7z"/>
		<path class="st3" d="M155.8,86c0.4,0,0.9,0,1.3,0c-0.3,0.3-0.6,0.5-0.9,0.8C156.1,86.5,155.9,86.3,155.8,86z"/>
		<path class="st3" d="M129,86c0.3-0.3,0.7-0.7,1-1C129.7,85.3,129.3,85.7,129,86z"/>
		<path class="st9" d="M109.9,84.8c0.4,0.7,0.9,1.5,1.3,2.2c-1.2,0.5-2.3,1.1-3.5,1.6c-1.2,0.2-2.4,0.4-3.6,0.5
			c-3-0.2-6.1,0.1-9-1.3c-0.4-0.9-0.8-1.8-2-1.3c0.2-0.9,0.2-1.7-1.1-1.7l0.1,0.1c-0.5-5.1,3.7-3.1,6-3.8c2.3-0.7,2.7,0.6,2.2,2.7
			c-0.4,1.6,0.7,2.8,2.3,3.2c1.5,0.3,3.2,0.2,3.7-1.5C107,82.7,108.4,83.6,109.9,84.8z"/>
		<path class="st3" d="M95.1,87.9c2.9,1.3,6,1.1,9,1.3c-0.4,3,4.1,2.7,3.7,5.6c-5.1,1.6-8.9-1.7-12.9-3.8c0,0-0.4,0-0.4,0
			c-0.2-0.3-0.4-0.6-0.7-0.9C94.8,89.6,95,88.8,95.1,87.9z"/>
		<path class="st3" d="M107.8,94.8c0.3-2.9-4.2-2.6-3.7-5.6c1.2-0.2,2.4-0.4,3.6-0.5C108.9,90.7,112.7,92.6,107.8,94.8z"/>
		<path class="st11" d="M109.9,84.8c-1.5-1.2-2.9-2.1-3.7,0.8c-0.5,1.8-2.1,1.9-3.7,1.5c-1.6-0.4-2.7-1.6-2.3-3.2
			c0.5-2.1,0.1-3.3-2.2-2.7c-2.3,0.7-6.5-1.3-6,3.8c-3.3-1.2-3.9-4.2-5.6-7.4c2.3,0.5,3.7,0.8,5,1.1c3.8,0.1,7.6,0.1,11.4,0.2
			C105.3,80.8,109.5,80.6,109.9,84.8z"/>
		<path class="st3" d="M102.9,78.8c-3.8-0.1-7.6-0.1-11.4-0.2c-0.1-1.6-2.3-3-0.5-4.8c4.1,0.3,8.2,0.5,11.9,2.7
			C102.9,77.4,102.9,78.1,102.9,78.8z"/>
		<path class="st3" d="M82.9,78.2c-0.2-0.5-0.3-1-0.5-1.5c-1.8-5.2,2.2-3.2,4.3-3.5c-2.9,1-2.8,3.2-2.4,5.6l-0.1,0.1
			C83.9,78.6,83.4,78.4,82.9,78.2z"/>
		<path class="st3" d="M91.1,89c-1.5-0.4-2.3-1.4-2-3C90.1,86.7,91.1,87.5,91.1,89z"/>
		<path class="st3" d="M93,90c-1,0.3-1.8,0.1-2-1C92,88.6,92.6,89.1,93,90z"/>
		<path class="st9" d="M84.4,78.8C84.4,78.8,84.4,78.8,84.4,78.8C84.4,78.9,84.4,78.8,84.4,78.8z"/>
		<path class="st3" d="M93.9,90.1c0.2,0.3,0.4,0.6,0.7,0.9c-0.8,0-1.4-0.1-1.6-1C93.3,90,93.6,90,93.9,90.1z"/>
		<path class="st11" d="M92,84.9c1.2,0,1.3,0.7,1.1,1.7C92.7,86,92.3,85.5,92,84.9z"/>
		<path class="st3" d="M89.1,86c-0.9-0.1-1.1-0.8-1-1.6C88.4,85,88.7,85.5,89.1,86z"/>
		<path class="st3" d="M157,80c-0.2-0.8-0.2-1.9-1.3-1.7c-6.7,1.1-13.8,0.4-19.8,4.6c0-0.9,0.1-1.8,0.1-2.7c6.9-4.2,14.6-5.9,22.6-6
			c1.4,0,3.6-1,3.7,1.8c-0.8,2-1.6,4-2.4,5.9C158.8,81.5,158.6,79.8,157,80z"/>
		<path class="st11" d="M136.1,84.1c0.2,0.9-0.7,1.1-1.1,1.5C135.1,84.9,135.2,84.1,136.1,84.1z"/>
		<path class="st12" d="M138,83.8c2.2-1.6,4.8-0.3,7.1-0.8c1.6,2.3,1,4.1-1.4,5.1c-2.2,0.9-3.8-0.1-4.5-2.4
			C139,84.9,139,84,138,83.8z"/>
	</g>
</g>
</svg>
