<?xml version="1.0" encoding="utf-8"?>
<!-- Generator: Adobe Illustrator 23.0.3, SVG Export Plug-In . SVG Version: 6.00 Build 0)  -->
<svg version="1.1" id="Layer_1" xmlns="http://www.w3.org/2000/svg" xmlns:xlink="http://www.w3.org/1999/xlink" x="0px" y="0px"
	 viewBox="0 0 250 250" style="enable-background:new 0 0 250 250;" xml:space="preserve">
<style type="text/css">
	.st0{fill:none;}
	.st1{fill:#1F29EA;}
	.st2{fill:#030303;}
	.st3{fill:#1010BF;}
	.st4{fill:#342521;}
	.st5{fill:#2A3EF4;}
	.st6{fill:#1F1FE8;}
	.st7{fill:#825034;}
	.st8{fill:#101BA0;}
	.st9{fill:#231FE8;}
	.st10{fill:#0404A3;}
	.st11{fill:#0413A3;}
	.st12{fill:#F23636;}
	.st13{fill:#F43131;}
	.st14{fill:#512E28;}
	.st15{fill:#C00E24;}
	.st16{fill:#A30F23;}
	.st17{fill:#FEFEFE;}
	.st18{fill:#E0E0E0;}
	.st19{fill:#E53838;}
</style>
<g>
	<g>
		<path class="st0" d="M124,251c-41,0-82,0-123,0C1,167.7,1,84.3,1,1c82,0,164,0,246-0.1c3.4,0,4.1,0.7,4.1,4.1
			c-0.1,80.2-0.1,159.9,0,242c0,3.4-0.7,4.1-4.1,4.1c-40.7-0.2-81.3-0.1-122-0.1c0-0.3,0-0.6,0.1-0.9c1.1-0.7,2.3-1.4,3.2-2.2
			c17.6-14.9,35.3-29.7,52.9-44.7c5.1-4.4,12.5-7.6,14.7-13.6c2.2-6,0.6-13.4,0.6-20.2c0-0.5-0.1-1,0-1.5c0.4-2.2-1.2-2.8-2.7-3.5
			c7.2-3.8,13-9.1,17.4-16.7c-3.3,0.7-6,1.3-8.7,1.9c-18.7,3.6-30.4-7.5-27.7-26.1c0.7-4.8,2.2-9.4,3.8-13.9
			c6.2-17.9,8.7-36.1,5.4-55c-3.5-20.1-14.8-34.2-32.6-43.2c-9.5-4.8-19.2-8.1-30.8-6.3C107.9,6.8,96,9.6,86.2,18
			C79.4,23.7,75,31.5,72,39.9c-8.7,24.5-7.1,49.1-0.3,73.6c1.7,6.3,3.7,12.2,2.3,19c-3.2,16.1-13.3,22.7-29,18.2
			c-0.9-0.3-1.7-1.1-3.4-0.1c3.4,6.6,8.1,11.8,14.6,15.5c0.1,7.3,0.3,14.6,0.2,21.9c-0.1,3,1,4.9,3.2,6.8
			c13.3,11.3,26.5,22.6,39.6,34.1C107.5,236.3,116.3,243,124,251z"/>
		<path class="st1" d="M125.1,250.1c0,0.3-0.1,0.6-0.1,0.9c-0.3,0-0.7,0-1,0c-7.7-8-16.5-14.7-24.8-22
			c-13.1-11.5-26.3-22.9-39.6-34.1c-2.2-1.9-3.2-3.8-3.2-6.8c0.1-7.3-0.1-14.6-0.2-21.9c1-1.2,2.3-1.3,3.7-1.4
			c4.1,2.3,8.9,2.2,13.1,4.2c-1.2,3.8-4.4,6.3-6.8,9.7c8.4-0.1,15.7-2.3,21.8-7.6c0.6,1.1,1.5,1.6,2.7,1.9c11.4,2.6,22.8,5.3,34.2,8
			c0,5,0,10,0,15c-10.5,0.1-20.9,0.1-31.4,0.2c-1.6,0-3.8-0.8-4.5,1.1c-0.7,1.8,1.5,2.8,2.6,3.9c9.6,9.7,19.2,19.3,28.9,28.9
			c1.3,1.3,2.4,2.8,4.4,3.1C125,238.8,125,244.5,125.1,250.1z"/>
		<path class="st2" d="M59.9,164.8c-1.4,0-2.7,0.2-3.7,1.4c-6.4-3.7-11.2-9-14.6-15.5c1.7-1,2.5-0.1,3.4,0.1
			c15.7,4.5,25.9-2.1,29-18.2c1.3-6.7-0.6-12.7-2.3-19C64.9,89,63.3,64.4,72,39.9c3-8.4,7.4-16.2,14.2-22
			C96,9.6,107.9,6.8,120.6,4.9c11.6-1.8,21.3,1.5,30.8,6.3c17.8,9,29.1,23.2,32.6,43.2c3.2,18.9,0.7,37.1-5.4,55
			c-1.6,4.6-3.1,9.1-3.8,13.9c-2.7,18.7,9.1,29.7,27.7,26.1c2.7-0.5,5.4-1.2,8.7-1.9c-4.4,7.7-10.2,12.9-17.4,16.7
			c-1.6-0.1-3.3-0.2-4.9-0.3c-2.9-1.7-6.3-2-9.4-2.5c-3.1-0.6-7.2-3.7-9.1-0.6c-1.7,2.7,1.5,6.3,3.4,9.2c1,3.1,4,4.8,5.6,7.7
			c-7.8,0.3-14.3-2.3-20.5-6.1c-2.9-3.2-5.1-6.9-7.1-10.8c-1.2-9.3-4.3-18.2-6.9-27.1c1.4-1.6,2.6-3.5,4.1-4.9
			c4.2-3.8,6.7-8.3,6.8-14l-0.1,0.1c1.2,0,1-0.9,1-1.6c2.2-2.6,3-5.9,3.7-9.1c1.9-8.4,3.3-17,5.4-25.3c3.7-14.7-0.5-27.9-6.7-40.8
			c-1.1-2.3-2.5-3.5-5.3-3.5c-20.6,0.1-41.3,0.1-61.9,0c-2,0-3.5,0.4-4.6,2.3c-7.5,14-12.1,28.4-6.7,44.3c0.4,1.9-0.7,4.1,1.3,5.7
			c0.1,1.1-1,2.8,1.3,3c0,0.3,0.1,0.5,0.4,0.6c-2,5.8,1.2,10.9,2.1,16.3c-0.1,1.1-0.2,2.3,0.9,3.1c3,10.2,6.6,19.9,16.3,25.9
			c1.1,0.7,1.8,1.9,2.7,2.8c-0.6,1.4-1.2,2.9-1.8,4.3c-1.9,3.9-4.1,7.6-7.4,10.5c-1.7,1.5-1.9,3.4-2,5.3c-1.7,4.4-3.6,8.6-6.7,12.3
			c-6.1,5.3-13.3,7.5-21.8,7.6c2.3-3.4,5.6-5.9,6.8-9.7c0.7-1.3,1.4-2.5,2-3.9c0.5-1.2,1.6-2.6,0.7-3.7c-1.1-1.3-2.7-0.3-4.1,0.1
			C67.7,162.6,63.8,163.7,59.9,164.8z"/>
		<path class="st3" d="M159.1,171.8c6.2,3.7,12.7,6.4,20.5,6.1c-1.7-3-4.6-4.7-5.6-7.7c2.4-2.7,6-2.1,9-3.2c2.1-0.7,5.1,0.3,6.1-2.8
			c1.6,0.1,3.3,0.2,4.9,0.3c1.5,0.7,3.1,1.4,2.7,3.5c-0.1,0.5,0,1,0,1.5c-0.1,6.8,1.6,14.2-0.6,20.2c-2.2,6.1-9.6,9.3-14.7,13.6
			c-17.5,15-35.2,29.8-52.9,44.7c-1,0.8-2.2,1.5-3.2,2.2c0-5.7-0.1-11.4-0.1-17c1.2-0.9,2.4-1.8,3.5-2.8
			c9.9-9.8,19.8-19.7,29.6-29.6c1-1,3-1.9,2.4-3.5c-0.7-1.8-2.9-1.1-4.5-1.1c-10.3-0.1-20.6-0.1-30.9-0.1c0-5,0-10,0-15
			c0,0,0.2,0,0.2,0c6.2-1.5,12.5-2.7,18.6-4.5C148.9,175,154.5,175.1,159.1,171.8z"/>
		<path class="st4" d="M125,195.9c10.3,0,20.6,0.1,30.9,0.1c1.6,0,3.8-0.7,4.5,1.1c0.6,1.5-1.4,2.5-2.4,3.5
			c-9.8,9.9-19.7,19.8-29.6,29.6c-1,1-2.3,1.9-3.5,2.8c-2-0.3-3.1-1.8-4.4-3.1c-9.6-9.6-19.3-19.2-28.9-28.9
			c-1.1-1.1-3.2-2.1-2.6-3.9c0.7-1.9,2.9-1.1,4.5-1.1C104,196,114.5,196,125,195.9z M125,200.1c-8.3-0.1-16.6-0.1-24.9-0.2
			c-0.9,0-2.1-0.4-2.7,0.8c-0.6,1.2,0.6,1.8,1.3,2.4c7.7,7.8,15.5,15.5,23.2,23.2c1.2,1.1,2.4,2.6,4.2,0.8
			c8.7-7.5,16.3-16.1,24.6-24.1c0.7-0.6,1.7-1.3,1-2.5c-0.6-1-1.8-0.6-2.7-0.6C141,199.9,133,200,125,200.1z"/>
		<path class="st5" d="M88,171.1c3.1-3.6,5-7.9,6.7-12.3c9,6.5,18.3,12.2,30.1,11.2c0.1,0.3,0.1,0.6,0.2,1c0,3.3,0,6.7,0.1,10
			c0,0-0.2,0-0.2,0c-11.4-2.7-22.8-5.4-34.2-8C89.5,172.7,88.6,172.2,88,171.1z"/>
		<path class="st5" d="M59.9,164.8c3.9-1.1,7.8-2.2,11.8-3.2c1.4-0.4,3-1.4,4.1-0.1c0.8,1-0.2,2.5-0.7,3.7c-0.6,1.3-1.3,2.6-2,3.9
			C68.8,167,64,167.1,59.9,164.8z"/>
		<path class="st6" d="M80.9,81.4c-5.4-15.9-0.8-30.4,6.7-44.3c1-1.9,2.6-2.3,4.6-2.3c20.6,0,41.3,0.1,61.9,0c2.9,0,4.2,1.2,5.3,3.5
			c6.3,12.9,10.4,26.2,6.7,40.8c-2.1,8.4-3.5,16.9-5.4,25.3c-0.7,3.2-1.5,6.4-3.7,9.1c-0.3,0.5-0.7,1.1-1,1.6l0.1-0.1
			c-2.5,0.9-4,3.1-5.3,5c-3,4.4-5.5,3.5-9,0.4c-5.7-5.1-11.8-9.7-17.8-14.5c-0.8-1.2-1.9-1.3-3-0.4c-2.3,1.9-5.2,3-7.1,5.5
			c-3.3,2.5-6.7,4.8-9.8,7.6c-2.3,2-4.1,1.6-6-0.2c-3.4-3.1-6.8-6.3-10.2-9.4c-0.7-0.7-1.3-1.4-2-2c-0.9-5.4-4.1-10.5-2.1-16.3
			c2.2,6,6.6,9.9,12.1,12.6c7.2,3.6,11.7,2.7,17.4-3c4.2-4.3,4.2-5.7-0.4-9.4C103.6,83.3,92.9,80.1,80.9,81.4z M141.2,105.8
			c9.3-0.4,21.3-12.4,22.3-22.1c0.2-2.5-1.1-2.4-2.6-2.4c-12-0.5-22.5,3.2-31.3,11.5c-0.9,0.9-2,1.7-1.5,3.4
			C129,99.6,137.4,105.9,141.2,105.8z M123.3,49.8c-7,0-14,0-21,0c-1,0-2.2-0.3-2.7,0.6c-0.8,1.4,0.6,2.1,1.3,2.8
			c6.3,6.4,12.7,12.7,19,19.1c2.2,2.3,4.1,2.2,6.4-0.1c6.3-6.4,12.7-12.7,19-19.1c0.7-0.7,1.8-1.3,1.4-2.4c-0.5-1.5-1.9-1-3-1
			C136.9,49.8,130.1,49.8,123.3,49.8z"/>
		<path class="st7" d="M88,109c3.4,3.1,6.8,6.3,10.2,9.4c2,1.8,3.7,2.2,6,0.2c3.1-2.7,6.5-5.1,9.8-7.6c1.4,1.4,1.7,3.4,3.2,4.8
			c6.2,6.3,6.1,6.3,11.8-0.8c0.1-0.1,0.2-0.3,0.2-0.4c-0.1,0.1-0.1,0.3-0.2,0.4c-1.9,0.4-3.8,0.8-6.2,1.3c0.8-3.6-1-7.2,1.2-10.4
			c5.9,4.8,12.1,9.4,17.8,14.5c3.5,3.1,5.9,4,9-0.4c1.3-1.9,2.8-4.1,5.3-5c-0.2,5.7-2.7,10.2-6.8,14c-1.6,1.4-2.8,3.2-4.1,4.9
			c-3.6,2.5-6,6.2-9,9.2c-6.6,6.7-16,7.3-23.4,1.4c-2.3-1.9-4.6-3.8-6.9-5.7c-0.9-0.9-1.6-2.1-2.7-2.8c-9.7-6-13.3-15.7-16.3-25.9
			C87.3,109.7,87.6,109.4,88,109z M122.9,133.8c6.2,0.7,8.5-4.9,12.5-7.8c0.1-0.2,0.2-0.5,0.2-0.7c0-0.1-0.2-0.2-0.4-0.3
			c-8.3-1.4-16.5-1.4-25,0.2C115.4,131.7,118.8,133.8,122.9,133.8z"/>
		<path class="st8" d="M105.9,138.8c2.3,1.9,4.6,3.9,6.9,5.7c7.4,5.9,16.8,5.3,23.4-1.4c3-3.1,5.4-6.7,9-9.2
			c2.6,9,5.6,17.8,6.9,27.1c-8.3,5.2-17,9.2-26.9,10c-0.1-0.3-0.1-0.6-0.2-1c0-4.3,0.1-8.6,0.1-12.9c0-1.6-0.1-3-2.2-3.1
			c-6.3-0.5-11-4.1-15-8.7c-1-1.1-1.9-2.4-3.6-2.3C104.7,141.6,105.3,140.2,105.9,138.8z"/>
		<path class="st9" d="M104.1,143.1c1.7-0.1,2.7,1.2,3.6,2.3c4.1,4.6,8.7,8.1,15,8.7c2.1,0.2,2.2,1.6,2.2,3.1
			c0,4.3-0.1,8.6-0.1,12.9c-11.8,1-21.1-4.7-30.1-11.2c0.1-2,0.3-3.8,2-5.3C100.1,150.7,102.3,147,104.1,143.1z"/>
		<path class="st10" d="M125.1,171c9.9-0.8,18.7-4.8,26.9-10c2,3.9,4.2,7.5,7.1,10.8c-4.6,3.3-10.2,3.2-15.3,4.7
			c-6.1,1.8-12.4,3-18.6,4.5C125.1,177.7,125.1,174.3,125.1,171z"/>
		<path class="st4" d="M80.9,81.4c12-1.3,22.7,1.9,32.1,9.4c4.6,3.7,4.6,5.1,0.4,9.4c-5.7,5.8-10.1,6.7-17.4,3
			c-5.5-2.7-9.9-6.6-12.1-12.6c-0.3-0.1-0.4-0.3-0.4-0.6c-0.4-1-0.9-2-1.3-3C80.2,85.6,81.3,83.3,80.9,81.4z M84,84.1
			c2.2,7.7,6.2,13.3,13,16.7c6,3,10.4,2,15-2.9c1.8-1.9,1.6-3.1-0.4-4.7C103.7,86.8,94.8,83.5,84,84.1z"/>
		<path class="st11" d="M189,164.1c-1,3.2-4,2.1-6.1,2.8c-3,1.1-6.5,0.5-9,3.2c-1.9-2.9-5.1-6.5-3.4-9.2c1.9-3,6,0.1,9.1,0.6
			C182.7,162.1,186.1,162.4,189,164.1z"/>
		<path class="st7" d="M88,109c-0.4,0.4-0.7,0.7-1.1,1.1c-1.1-0.8-1-1.9-0.9-3.1C86.7,107.6,87.3,108.3,88,109z"/>
		<path class="st6" d="M82.2,87.1c0.4,1,0.9,2,1.3,3C81.2,89.9,82.3,88.2,82.2,87.1z"/>
		<path class="st7" d="M156,115.1c0.3-0.5,0.7-1.1,1-1.6C157,114.2,157.3,115.1,156,115.1z"/>
		<path class="st12" d="M126.1,227.1c-1.8,1.8-3,0.4-4.2-0.8c-7.8-7.7-15.5-15.5-23.2-23.2c-0.6-0.6-1.8-1.2-1.3-2.4
			c0.5-1.1,1.7-0.8,2.7-0.8c8.3,0,16.6,0.1,24.9,0.2c0,7.1-0.1,14.3,0,21.4C125.1,223.4,124.2,225.5,126.1,227.1z"/>
		<path class="st13" d="M126.1,227.1c-1.9-1.6-1.1-3.7-1.1-5.6c-0.1-7.1,0-14.3,0-21.4c8-0.1,16-0.1,24-0.2c0.9,0,2.1-0.3,2.7,0.6
			c0.8,1.1-0.3,1.8-1,2.5C142.5,211,134.9,219.6,126.1,227.1z"/>
		<path class="st4" d="M141.2,105.8c-3.8,0.2-12.2-6.1-13.1-9.7c-0.4-1.6,0.6-2.5,1.5-3.4c8.8-8.3,19.3-12,31.3-11.5
			c1.5,0.1,2.8-0.1,2.6,2.4C162.6,93.3,150.6,105.4,141.2,105.8z M159.9,84.3c-9.4-0.9-20.6,2.7-27,9c-0.8,0.8-2.3,1.3-1.5,3.2
			c1.3,2.7,7.8,6.7,10.7,6.3C150.5,101.6,158.9,92.9,159.9,84.3z"/>
		<path class="st4" d="M123.3,49.8c6.8,0,13.6,0,20.5,0c1.1,0,2.5-0.5,3,1c0.3,1.1-0.7,1.7-1.4,2.4c-6.3,6.4-12.7,12.7-19,19.1
			c-2.2,2.2-4.1,2.3-6.4,0.1c-6.3-6.4-12.7-12.7-19-19.1c-0.7-0.8-2.2-1.4-1.3-2.8c0.6-1,1.8-0.6,2.7-0.6
			C109.3,49.8,116.3,49.8,123.3,49.8z M121.9,70.4c0.9,0.7,2,0.8,2.7,0.1c5.3-5.2,10.8-10.2,15.8-15.7c2-2.2-0.4-2.6-2.1-2.6
			c-5.4,0-10.9,0.1-16.3,0.2c-4.8-0.1-9.6-0.1-14.3-0.2c-0.9,0-2.2-0.2-2.4,1c-0.1,0.6,0.5,1.6,1,2.1
			C111.5,60.3,116.1,66,121.9,70.4z"/>
		<path class="st14" d="M129,115c-5.7,7.2-5.6,7.1-11.8,0.8c-1.4-1.5-1.8-3.4-3.2-4.8c1.9-2.4,4.7-3.6,7.1-5.5c1-0.8,2.2-0.8,3,0.4
			c-2.2,3.2-0.4,6.7-1.2,10.4C125.2,115.8,127.1,115.4,129,115L129,115z"/>
		<path class="st15" d="M122.9,133.8c-4.2,0-7.5-2.2-12.8-8.5c8.5-1.6,16.7-1.6,25-0.2c0.1,0,0.4,0.2,0.4,0.3c0,0.2-0.1,0.5-0.2,0.7
			c-2-0.4-3.9,0.6-5.8,0.7C125.1,127.1,121.9,128.4,122.9,133.8z"/>
		<path class="st16" d="M122.9,133.8c-1-5.4,2.2-6.7,6.7-7c1.9-0.2,3.8-1.1,5.8-0.7C131.4,129,129.1,134.6,122.9,133.8z"/>
		<path class="st7" d="M129,115c0.1-0.1,0.1-0.3,0.2-0.4C129.1,114.7,129.1,114.9,129,115C129,115,129,115,129,115z"/>
		<path class="st17" d="M84,84.1c10.8-0.6,19.7,2.6,27.6,9.1c1.9,1.6,2.2,2.8,0.4,4.7c-4.6,5-8.9,6-15,2.9
			C90.3,97.4,86.2,91.9,84,84.1z"/>
		<path class="st18" d="M159.9,84.3c-1,8.6-9.4,17.3-17.8,18.5c-2.9,0.4-9.4-3.6-10.7-6.3c-0.9-1.9,0.6-2.4,1.5-3.2
			C139.4,87.1,150.5,83.4,159.9,84.3z"/>
		<path class="st19" d="M122,52.4c5.4-0.1,10.9-0.2,16.3-0.2c1.7,0,4.1,0.4,2.1,2.6c-5,5.5-10.5,10.5-15.8,15.7
			c-0.7,0.7-1.8,0.6-2.7-0.1C121.9,64.4,121.9,58.4,122,52.4z"/>
		<path class="st12" d="M122,52.4c0,6,0,12-0.1,18c-5.8-4.4-10.4-10.1-15.6-15.1c-0.5-0.5-1.1-1.4-1-2.1c0.2-1.3,1.5-1.1,2.4-1
			C112.4,52.2,117.2,52.3,122,52.4z"/>
	</g>
</g>
</svg>
