<?xml version="1.0" encoding="iso-8859-1"?>
<!-- Generator: Adobe Illustrator 23.0.3, SVG Export Plug-In . SVG Version: 6.00 Build 0)  -->
<svg version="1.1" id="Layer_1" xmlns="http://www.w3.org/2000/svg" xmlns:xlink="http://www.w3.org/1999/xlink" x="0px" y="0px"
	 viewBox="0 0 250 250" style="enable-background:new 0 0 250 250;" xml:space="preserve">
<g>
	<g>
		<path style="fill:none;" d="M123,251c-40.667,0-81.333,0-122,0C1,167.667,1,84.333,1,1c82,0,164,0.027,246-0.096
			c3.424-0.005,4.101,0.672,4.096,4.096c-0.124,80.666-0.124,161.333,0,242c0.005,3.424-0.67,4.111-4.096,4.099
			C206,250.946,165,251,124,251c-0.176-0.308-0.161-0.607,0.045-0.896c1.213-0.824,2.511-1.547,3.627-2.486
			c17.431-14.667,34.256-30.14,52.463-43.767c11.463-8.58,16.705-17.962,14.634-32.144c-0.629-4.306-1.568-6.305-5.777-6.449
			c-1.567-0.473-3.134-0.945-4.701-1.417c-2.323-2.411-5.754-3.572-7.494-6.641c0.233-0.263,0.465-0.526,0.698-0.789
			c10.756,4.573,16.759,5.26,22.969,2.627c-0.094-0.123-0.163-0.311-0.286-0.359c-0.613-0.234-1.227-0.488-1.864-0.634
			c-13.664-3.116-22.359-11.086-26.233-24.889c-3.73-13.287-6.813-26.68-9.373-40.217c0.32-2.297,0.555-4.61,0.977-6.889
			c1.176-6.364,3.294-12.688,3.482-19.074c0.465-15.795,0.056-31.616,0.006-47.426c-0.014-4.57-0.002-9.14-0.002-13.711
			c-4.328,8.19-7.872,16.497-11.106,24.922c-1.202,3.131-2.074,4.459-5.213,1.699c-2.992-2.631-6.698-4.287-10.487-5.609
			c-17.935-6.26-34.612-3.893-50.157,7.591c-4.127-9.983-8.181-19.79-12.235-29.597c0.661,28.306-4.077,56.58,3.375,84.254
			c0.29,15.121-0.465,30.164-2.251,45.206c-1.468,12.365-7.545,20.915-18.588,26.274c-1.662,0.807-3.707,1.154-5.008,2.817
			c2.578,1.739,5.66-1.082,7.72,1.597c-1.182,0.019-2.333,0.141-3.283,0.953c-3.121-0.397-3.526,1.435-3.49,3.963
			c0.093,6.494,0.157,12.994-0.03,19.484c-0.076,2.655,1.01,4.259,2.917,5.888c12.655,10.807,25.325,21.6,37.788,32.627
			C105.782,235.568,115.16,242.425,123,251z"/>
		<path style="fill:#1A1644;" d="M123,251c-7.84-8.575-17.218-15.432-25.875-23.092c-12.463-11.027-25.133-21.82-37.788-32.627
			c-1.907-1.629-2.994-3.233-2.917-5.888c0.187-6.49,0.123-12.99,0.03-19.484c-0.036-2.528,0.368-4.36,3.49-3.964
			c0.707,0.361,1.375,0.877,2.124,1.06c20.648,5.034,41.304,10.034,61.959,15.04c-0.007,6.263-0.015,12.526-0.022,18.788
			c-2.307-0.605,0.268-3.48-2.175-4.291c0,1.14-0.133,2.148,0.023,3.11c0.69,4.25-1.28,5.2-5.052,4.38
			c-5.239-1.138-9.925-2.971-11.854-8.581c-0.681-1.981-1.619-2.036-3.314-1.08c-6.556,3.698-10.137,13.998-7.255,21.187
			c7.005-5.494,7.016-5.509,14.092-0.172c0.715,0.539,1.306,0.978,2.188,0.561c7.023-3.324,10.428,0.976,13.337,6.325
			c0.017,9.277,0.035,18.553,0.052,27.83c-0.206,0.289-0.221,0.588-0.045,0.896C123.667,251,123.333,251,123,251z"/>
		<path style="fill:#252122;" d="M81.349,89.099c-7.452-27.674-2.714-55.948-3.375-84.254c4.054,9.807,8.108,19.614,12.235,29.597
			c15.545-11.484,32.222-13.85,50.157-7.591c3.788,1.322,7.494,2.978,10.487,5.609c3.139,2.761,4.011,1.432,5.213-1.699
			c3.235-8.425,6.778-16.732,11.106-24.922c0,4.57-0.012,9.14,0.002,13.711c0.05,15.811,0.458,31.631-0.006,47.426
			c-0.188,6.386-2.306,12.71-3.482,19.074c-0.421,2.279-0.657,4.592-0.977,6.89c-2.676,6.507-2.823,13.609-4.782,20.285
			c-0.327,0.262-0.654,0.524-0.981,0.786c0,0,0.042-0.059,0.043-0.059c-0.318,0.332-0.637,0.664-0.955,0.997
			c-2.732,2.868-5.625,5.602-8.139,8.649c-1.771,2.145-2.966,2.138-5.067,0.38c-6.829-5.714-13.845-11.204-20.789-16.781
			c-3.571,0.481-5.723,3.124-8.15,5.348c-3.435,2.6-7.02,5.029-10.254,7.86c-2.281,1.996-3.965,1.717-5.963-0.171
			c-3.857-3.644-7.789-7.208-11.69-10.805C83.294,102.913,83.196,95.807,81.349,89.099z M85.101,84.05
			c1.304,9.877,10.446,19.303,19.882,20.761c3.18,0.491,10.685-4.132,11.857-7.151c0.568-1.462-0.219-2.131-1.119-2.917
			C106.951,87.084,96.832,83.407,85.101,84.05z M136.122,106.082c8.156,0.22,20.616-10.963,21.696-18.828
			c0.291-2.122-0.808-2.131-2.246-2.13c-10.731,0.002-20.136,3.537-28.202,10.609c-1.157,1.014-2.256,2.113-0.949,3.784
			C129.064,102.896,132.461,105.102,136.122,106.082z"/>
		<path style="fill:#29235A;" d="M124.002,200.835c0.007-6.263,0.015-12.526,0.022-18.789c0.057-0.279,0.105-0.559,0.142-0.841
			c1.478-0.179,2.991-0.214,4.43-0.558c14.623-3.496,29.256-6.956,43.837-10.619c5.566-1.398,11.426-1.855,16.561-4.77
			c4.209,0.144,5.148,2.143,5.776,6.449c2.071,14.182-3.171,23.564-14.634,32.144c-18.207,13.627-35.032,29.1-52.463,43.767
			c-1.116,0.939-2.414,1.662-3.627,2.486c-0.017-9.277-0.035-18.553-0.052-27.83c0.285-0.399,0.636-0.766,0.847-1.201
			c3.707-7.629,4.404-8.043,12.463-5.417c2.548,0.83,2.28-1.18,2.979-2.195c2.874-4.175,6.836-5.124,10.033-2.105
			c1.333,1.259,2.228,2.981,3.518,4.762c0.226-2.041,0.559-3.692,0.565-5.343c0.021-6.303-0.565-12.416-6.638-16.222
			c-2.186-1.37-4.023-2.016-5.338,1.371c-1.374,3.539-4.286,5.84-7.853,7.249c-6.35,2.509-7.419,1.848-7.564-4.737
			c-0.018-0.8-0.114-1.598-0.177-2.43C124.488,196.917,127.672,200.796,124.002,200.835z"/>
		<path style="fill:#623B17;" d="M157.926,113.225c1.959-6.675,2.106-13.778,4.782-20.285c2.56,13.536,5.643,26.929,9.373,40.216
			c3.875,13.803,12.569,21.774,26.233,24.889c0.637,0.145,1.251,0.399,1.864,0.634c0.123,0.047,0.192,0.235,0.286,0.359
			c-6.21,2.632-12.213,1.946-22.969-2.626c-0.47-0.28-0.961-0.825-1.415-0.069c-0.063,0.105,0.464,0.562,0.717,0.857
			c1.74,3.069,5.171,4.23,7.494,6.641c-6.747-1.439-13.495-2.878-20.242-4.317c-0.786-2.457-2.348-4.352-4.269-6.463
			c-1.314,1.81-0.919,3.389-0.777,4.926c-1.63-0.076-3.26-0.152-4.889-0.228c-3.773-4.828-6.638-10.175-9.021-15.797
			c-0.063-2.462-0.127-4.924-0.19-7.386c1.373-2.891,3.846-4.867,6.123-6.912c3.871-3.475,6.268-7.505,6.219-12.806
			c-0.086-0.302-0.172-0.603-0.258-0.905c0,0-0.042,0.059-0.042,0.059C157.642,114.211,157.708,113.624,157.926,113.225z"/>
		<path style="fill:#643D1A;" d="M81.349,89.099c1.847,6.708,1.945,13.814,4.631,20.33c0.397,8.724,2.743,16.499,10.004,22.21
			c3.216,2.53,6.03,5.569,9.027,8.377c-0.304,0.988-0.607,1.976-0.911,2.964c-2.06,4.005-3.46,8.461-7.576,11.057
			c-0.15-1.232,0.118-2.901-1.39-3.234c-1.531-0.338-1.275,1.52-1.824,2.353c-0.781,1.183-1.236,2.582-1.83,3.888
			c-0.159,0.266-0.318,0.532-0.476,0.798c-4.699,1.094-9.232,2.936-14.13,3.127c0.727-1.308,1.455-2.617,2.182-3.925
			c0.697-0.281,1.177-0.975,0.67-1.446c-0.623-0.577-0.913,0.474-1.376,0.77c-1.759,1.14-3.643,2.13-5.242,3.463
			c-1.628,1.356-4.727,0.718-5.082,3.749c-1.463,0.937-3.037,1.493-4.799,1.413c-2.062-2.679-5.143,0.142-7.722-1.597
			c1.301-1.663,3.346-2.01,5.008-2.817c11.043-5.359,17.12-13.909,18.588-26.274C80.885,119.263,81.639,104.22,81.349,89.099z"/>
		<path style="fill:#131213;" d="M164.05,159.523c6.747,1.439,13.494,2.878,20.242,4.317c1.567,0.472,3.134,0.945,4.701,1.417
			c-5.135,2.915-10.995,3.372-16.561,4.77c-14.581,3.663-29.214,7.123-43.837,10.619c-1.439,0.344-2.951,0.379-4.431,0.556
			c-0.057-3.087-0.113-6.173-0.169-9.258c-0.009-0.317-0.008-0.635,0.001-0.953c12.169,0.433,22.094-4.238,30.119-13.235
			c1.63,0.076,3.26,0.152,4.889,0.228C160.686,158.498,162.368,159.011,164.05,159.523z"/>
		<path style="fill:#030303;" d="M123.994,171.945c0.056,3.085,0.112,6.171,0.169,9.258c-0.036,0.284-0.083,0.564-0.14,0.843
			c-20.655-5.005-41.311-10.005-61.959-15.039c-0.75-0.183-1.418-0.699-2.124-1.06c0.949-0.813,2.1-0.934,3.282-0.953
			c1.764,0.08,3.339-0.476,4.801-1.413c2.969-0.804,6.117-1.002,8.849-2.611c4.899-0.191,9.432-2.034,14.132-3.127
			c0.631-0.014,1.261-0.028,1.891-0.042C101.109,167.248,112.006,170.797,123.994,171.945z"/>
		<path style="fill:#F7C21B;" d="M124.002,200.835c3.671-0.038,0.486-3.917,2.826-4.828c0.063,0.833,0.159,1.631,0.177,2.43
			c0.146,6.585,1.215,7.246,7.564,4.737c3.567-1.409,6.479-3.71,7.853-7.249c1.315-3.387,3.151-2.742,5.338-1.371
			c6.073,3.807,6.659,9.919,6.638,16.222c-0.006,1.652-0.339,3.302-0.565,5.343c-1.29-1.782-2.186-3.504-3.518-4.762
			c-3.197-3.019-7.159-2.071-10.033,2.105c-0.698,1.015-0.431,3.025-2.979,2.195c-8.059-2.626-8.756-2.212-12.463,5.417
			c-0.211,0.435-0.561,0.802-0.847,1.201c-2.909-5.348-6.314-9.649-13.337-6.325c-0.882,0.417-1.474-0.022-2.188-0.561
			c-7.076-5.337-7.087-5.322-14.092,0.172c-2.882-7.189,0.699-17.489,7.255-21.187c1.695-0.956,2.632-0.901,3.314,1.08
			c1.93,5.61,6.615,7.443,11.854,8.581c3.772,0.819,5.742-0.13,5.052-4.38c-0.156-0.962-0.023-1.97-0.023-3.11
			C124.27,197.354,121.695,200.23,124.002,200.835z"/>
		<path style="fill:#F3BC98;" d="M105.011,140.017c-2.997-2.808-5.811-5.848-9.027-8.377c-7.26-5.711-9.606-13.486-10.004-22.21
			c3.901,3.597,7.833,7.162,11.69,10.805c1.998,1.888,3.683,2.167,5.963,0.171c3.234-2.83,6.819-5.259,10.254-7.859
			c0.196,5.196,4.269,7.918,7.902,9.81c1.895,0.987,4.446-2.487,5.505-5.708c0.098-0.117-0.098,0.117-0.295,0.351
			c0.155-0.004,0.322,0.027,0.463-0.018c0.286-0.093,0.559-0.227,0.837-0.344c-0.234-0.112-0.468-0.223-1.001,0.014
			c-1.985,0.186-3.222,1.991-5.262,1.368c0-3.57,0-7.195,0-10.82c6.944,5.576,13.96,11.067,20.789,16.781
			c2.1,1.757,3.296,1.765,5.067-0.38c2.515-3.047,5.408-5.781,8.139-8.649c0.404-0.03,0.809-0.061,1.214-0.093
			c0.049,5.301-2.348,9.331-6.219,12.806c-2.277,2.044-4.75,4.021-6.123,6.911c-3.257,3.302-6.507,6.612-9.776,9.904
			c-6.865,6.912-15.606,7.395-23.27,1.258C109.537,143.879,107.291,141.926,105.011,140.017z M134.831,126.978
			c-8.621-1.587-16.901-1.338-25.693,0.072C120.924,139.553,124.895,137.883,134.831,126.978z"/>
		<path style="fill:#E8B493;" d="M85.101,84.05c11.731-0.642,21.85,3.034,30.621,10.693c0.9,0.786,1.687,1.454,1.119,2.917
			c-1.172,3.019-8.677,7.643-11.857,7.151C95.547,103.353,86.405,93.927,85.101,84.05z M94.074,95.998l-0.101-0.069
			c0.226,0.884,0.991,0.749,1.626,0.862c3.973,3.072,8.208,2.462,12.642,1.157c2.256-0.664,2.385-2.098,2.329-3.887
			c-0.555-0.353-1.111-0.706-1.666-1.059c0,0,0.102,0.097,0.102,0.097c-5.519-6.848-13.617-2.665-20.413-5.135
			c0.411,3.426,2.02,5.613,4.415,7.317C93.107,95.9,93.509,96.071,94.074,95.998z"/>
		<path style="fill:#E8B493;" d="M136.122,106.082c-3.662-0.98-7.058-3.186-9.7-6.565c-1.307-1.671-0.208-2.77,0.949-3.784
			c8.066-7.072,17.47-10.607,28.202-10.609c1.438,0,2.537,0.008,2.246,2.13C156.738,95.119,144.278,106.302,136.122,106.082z
			 M134.095,94.009c-0.555,0.352-1.11,0.704-1.665,1.056c-0.325,2.343,0.29,3.725,2.964,4.33c5.044,1.141,9.726,1.715,13.051-3.395
			c3.731-1.169,4.894-2.897,5.026-7.779c-2.146,1.313-4.44,1.06-6.693,1.276c-4.613,0.442-9.64-0.02-12.777,4.603
			C134.002,94.099,134.095,94.009,134.095,94.009z"/>
		<path style="fill:#F39D76;" d="M127,117c-0.764,2.87-3.315,6.344-5.21,5.357c-3.633-1.892-7.706-4.615-7.902-9.81
			c2.427-2.224,4.579-4.867,8.15-5.348c0,3.625,0,7.251,0,10.82C124.077,118.642,125.314,116.837,127,117z"/>
		<path style="fill:#F39D76;" d="M157.926,113.225c-0.218,0.398-0.284,0.986-0.981,0.786
			C157.272,113.75,157.599,113.488,157.926,113.225z"/>
		<path style="fill:#F39D76;" d="M157.246,114.858c-0.405,0.031-0.809,0.062-1.214,0.093c0.319-0.333,0.637-0.665,0.956-0.997
			C157.074,114.255,157.16,114.556,157.246,114.858z"/>
		<path style="fill:#212120;" d="M154.115,157.758c-8.024,8.998-17.95,13.668-30.119,13.235c-0.009-5.287-0.017-10.575-0.026-15.863
			c5.468,0.502,10.145-1.218,13.557-5.5c2.269-2.848,4.55-5.597,7.566-7.669C147.476,147.583,150.341,152.93,154.115,157.758z"/>
		<path style="fill:#030303;" d="M145.093,141.961c-3.015,2.072-5.297,4.821-7.566,7.669c-3.412,4.283-8.089,6.003-13.557,5.499
			c-3.963,0.152-7.31-1.304-10.257-3.869c-3.189-2.777-6.408-5.521-9.614-8.279c0.303-0.988,0.607-1.976,0.911-2.964
			c2.28,1.909,4.526,3.861,6.847,5.72c7.665,6.137,16.405,5.654,23.27-1.258c3.269-3.291,6.518-6.602,9.776-9.904
			C144.966,137.037,145.03,139.499,145.093,141.961z"/>
		<path style="fill:#EEEDEC;" d="M164.05,159.523c-1.682-0.512-3.364-1.025-5.046-1.537c-0.142-1.537-0.537-3.116,0.777-4.926
			C161.702,155.171,163.264,157.066,164.05,159.523z"/>
		<path style="fill:#FEFEFE;" d="M176.798,157.2c-0.254-0.294-0.78-0.752-0.717-0.857c0.453-0.756,0.945-0.211,1.415,0.069
			C177.263,156.674,177.031,156.937,176.798,157.2z"/>
		<path style="fill:#282826;" d="M104.1,142.982c3.206,2.758,6.424,5.502,9.614,8.279c2.946,2.565,6.294,4.021,10.257,3.869
			c0.008,5.289,0.017,10.577,0.025,15.864c-0.01,0.318-0.01,0.635-0.001,0.952c-11.988-1.149-22.885-4.698-31.099-14.145
			c-0.043-0.21-0.043-0.419,0.002-0.628c1.693-0.485,2.926-1.502,3.626-3.135C100.64,151.443,102.041,146.986,104.1,142.982z"/>
		<path style="fill:#EEEDEC;" d="M76.873,160.97c-2.732,1.608-5.88,1.806-8.849,2.611c0.355-3.031,3.454-2.393,5.083-3.749
			c1.599-1.332,3.483-2.322,5.242-3.463c0.211,0.251,0.446,0.477,0.706,0.676C78.327,158.353,77.6,159.661,76.873,160.97z"/>
		<path style="fill:#EEEDEC;" d="M96.524,154.038c-0.7,1.633-1.934,2.65-3.624,3.134c-0.472-0.043-0.946-0.085-1.421-0.128
			c0.594-1.306,1.05-2.705,1.83-3.888c0.549-0.833,0.293-2.691,1.824-2.353C96.642,151.137,96.374,152.806,96.524,154.038z"/>
		<path style="fill:#EEEDEC;" d="M78.348,156.368c0.463-0.296,0.754-1.347,1.376-0.77c0.507,0.47,0.027,1.165-0.67,1.446
			C78.795,156.845,78.559,156.62,78.348,156.368z"/>
		<path style="fill:#E8B493;" d="M91.479,157.045c0.475,0.042,0.949,0.084,1.421,0.128c-0.048,0.21-0.048,0.419-0.005,0.629
			c-0.63,0.014-1.26,0.029-1.891,0.042C91.162,157.577,91.321,157.311,91.479,157.045z"/>
		<path style="fill:#931D23;" d="M134.831,126.978c-9.936,10.906-13.907,12.576-25.693,0.072
			C117.93,125.64,126.21,125.39,134.831,126.978z"/>
		<path style="fill:#F39D76;" d="M127.594,116.301c0.238,0.114,0.472,0.225,0.707,0.337c-0.278,0.117-0.551,0.251-0.837,0.344
			c-0.142,0.046-0.308,0.015-0.463,0.018C127.197,116.766,127.393,116.532,127.594,116.301z"/>
		<path style="fill:#EEEDEC;" d="M110.57,94.06c0.057,1.79-0.072,3.223-2.329,3.887c-4.434,1.305-8.669,1.915-12.642-1.159
			c-0.503-0.361-0.596-1.499-1.626-0.86c0,0,0.101,0.069,0.101,0.069c0.516-1.024-0.153-1.538-0.874-2.029
			c1.792-3.976,4.884-2.772,7.874-1.976c-0.361,1.761-0.364,3.463,1.776,4.003c2.404,0.606,3.786-0.606,4.336-2.911
			c0.607-0.011,1.205,0.93,1.819,0.015l-0.102-0.097C108.848,94.317,109.493,94.529,110.57,94.06z"/>
		<path style="fill:#131213;" d="M101.075,91.993c-2.99-0.795-6.082-1.999-7.875,1.975c-0.065,0.437-0.128,0.875-0.192,1.313
			c-2.395-1.704-4.004-3.891-4.415-7.317c6.797,2.47,14.894-1.713,20.414,5.135c-0.614,0.915-1.213-0.026-1.819-0.015
			C105.147,92.734,103.235,91.667,101.075,91.993z"/>
		<path style="fill:#643D1A;" d="M93.973,95.929c1.03-0.638,1.123,0.499,1.626,0.86C94.965,96.678,94.199,96.813,93.973,95.929z"/>
		<path style="fill:#643D1A;" d="M93.008,95.28c0.064-0.438,0.127-0.876,0.192-1.313c0.722,0.493,1.39,1.007,0.875,2.031
			C93.509,96.071,93.107,95.9,93.008,95.28z"/>
		<path style="fill:#131213;" d="M110.57,94.06c-1.077,0.469-1.722,0.257-1.666-1.059C109.46,93.355,110.015,93.708,110.57,94.06z"
			/>
		<path style="fill:#EEEDEC;" d="M148.446,96c-3.325,5.109-8.007,4.536-13.051,3.395c-2.674-0.605-3.29-1.987-2.964-4.33
			c1.108,0.52,1.7,0.227,1.665-1.056c0,0-0.093,0.09-0.093,0.09c1.041,0.993,1.985-0.742,3.013-0.106
			c0.044,2.527,1.513,3.58,3.801,3.148c2.26-0.427,2.59-2.164,2.035-4.159c2.129-1.614,4.404-1.048,6.284,0.15
			C150.394,93.935,148.79,95.037,148.446,96z"/>
		<path style="fill:#131213;" d="M148.446,96c0.344-0.963,1.947-2.065,0.689-2.868c-1.879-1.198-4.155-1.764-6.284-0.15
			c-2.005-0.01-4.026-0.11-5.836,1.011c-1.028-0.635-1.972,1.099-3.013,0.106c3.137-4.623,8.164-4.161,12.777-4.603
			c2.253-0.216,4.547,0.037,6.693-1.276C153.34,93.103,152.177,94.831,148.446,96z"/>
		<path style="fill:#131213;" d="M134.095,94.009c0.036,1.283-0.557,1.576-1.665,1.056C132.986,94.713,133.54,94.361,134.095,94.009
			z"/>
		<path style="fill:#252122;" d="M101.075,91.993c2.161-0.325,4.072,0.742,6.112,1.091c-0.551,2.306-1.932,3.518-4.336,2.911
			C100.711,95.456,100.714,93.754,101.075,91.993z"/>
		<path style="fill:#282826;" d="M137.015,93.993c1.809-1.121,3.83-1.021,5.836-1.011c0.555,1.995,0.225,3.732-2.035,4.159
			C138.528,97.573,137.059,96.52,137.015,93.993z"/>
	</g>
</g>
</svg>
