<?xml version="1.0" encoding="iso-8859-1"?>
<!-- Generator: Adobe Illustrator 23.0.3, SVG Export Plug-In . SVG Version: 6.00 Build 0)  -->
<svg version="1.1" id="Layer_1" xmlns="http://www.w3.org/2000/svg" xmlns:xlink="http://www.w3.org/1999/xlink" x="0px" y="0px"
	 viewBox="0 0 250 250" style="enable-background:new 0 0 250 250;" xml:space="preserve">
<g>
	<g>
		<path style="fill:none;" d="M124,251c-41,0-82,0-123,0C1,167.667,1,84.333,1,1c82,0,164,0.027,246-0.096
			c3.424-0.005,4.101,0.672,4.096,4.096c-0.124,80.666-0.124,161.333,0,242c0.005,3.424-0.67,4.111-4.096,4.099
			C206.334,250.946,165.667,251,125,251c0.823-0.898,1.646-1.796,2.461-2.686c0.4-0.27,0.809-0.547,1.218-0.824
			c0.133-0.476,0.266-0.952,0.398-1.429l-0.026,0.043c1.199,0.792,1.536-0.307,2.082-0.949c0.117-0.372,0.234-0.744,0.351-1.117
			l0.055-0.04c0.722,0.476,1.216,0.005,1.712-0.42c8.587-7.334,17.172-14.671,25.757-22.006
			c8.799-7.287,17.197-15.144,26.512-21.698c8.977-6.316,12.858-13.658,11.717-24.834c-1.094-10.712-0.236-10.799-11.312-12.831
			c-5.549-1.462-11.028-3.259-16.829-3.51c-0.209-0.261-0.418-0.521-0.627-0.782c-0.601-6.911-2.166-13.704-0.43-20.776
			c5.625-22.911,10.888-45.911,16.427-68.843c0.782-3.238,0.652-6.131-0.553-9.208c-4.603-11.754-9.176-23.522-13.513-35.375
			c-1.11-3.035-2.846-5.044-5.543-6.65c-26.512-15.785-52.803-13.949-79.051,0.708c-2.833,1.582-3.804,4.025-4.493,6.782
			c-3.182,12.732-6.167,25.514-9.509,38.203c-3.071,11.658-2.677,23.363-1.213,35.132c2.5,20.091,8.461,39.254,15.653,58.083
			c-1.19,1.992-3.837,1.38-5.266,2.945c-5.622,0.347-10.932,2.054-16.25,3.726c-0.988,0.146-1.972,0.372-2.966,0.425
			c-4.808,0.255-6.265,2.679-5.881,7.437c0.481,5.958,0.135,11.985,0.104,17.982c-0.009,1.696,0.087,3.166,1.592,4.435
			c11.828,9.976,23.59,20.031,35.372,30.062c7.772,7.322,15.841,14.301,24.172,20.978c1.072,1.3,2.149,2.595,3.864,3.094
			l-0.043-0.052c0.038,0.678,0.427,0.995,1.076,1.046l-0.069-0.054c0.495,0.717,0.774,1.833,2.048,1.104l-0.118-0.027
			C123.918,249.715,123.959,250.357,124,251z"/>
		<path style="fill:#E82329;" d="M127.47,248.306c-0.823,0.898-1.646,1.796-2.47,2.694c-0.333,0-0.667,0-1,0
			c-0.041-0.643-0.082-1.285-0.123-1.928C125.075,248.817,126.272,248.562,127.47,248.306z"/>
		<path style="fill:#FEC71B;" d="M86.245,155.973c-7.192-18.829-13.154-37.993-15.654-58.083
			c-1.464-11.769-1.858-23.474,1.213-35.132c3.342-12.689,6.328-25.472,9.509-38.203c0.689-2.758,1.66-5.2,4.493-6.782
			c26.249-14.657,52.54-16.492,79.051-0.708c2.697,1.606,4.433,3.615,5.543,6.65c4.337,11.853,8.91,23.621,13.513,35.375
			c1.205,3.077,1.336,5.97,0.553,9.208c-5.539,22.932-10.802,45.932-16.427,68.843c-1.736,7.073-0.171,13.865,0.428,20.777
			c-11.281-0.537-18.43-6.139-21.093-17.222c-0.54-2.247-1.03-4.506-1.542-6.759c0.048-1.828,0.35-3.698-0.878-5.316
			c6.167-8.242,16.007-14.057,16.991-25.723c7.464-1.06,13.973-10.75,12.661-18.597c-0.734-4.389-2.599-7.123-7.539-6.403
			c0.411-2.765,0.459-5.65,1.32-8.267c1.181-3.592,0.213-5.638-2.831-7.853c-4.928-3.586-9.5-7.7-13.967-11.866
			c-2.062-1.923-3.422-2.18-5.142,0.141c-5.228,7.055-9.304,14.495-8.313,23.721c-0.029,0.874-0.059,1.749-0.088,2.624
			c-0.347,2.125,0.645,4.013,1.061,6.002c-0.464,0.305-0.928,0.61-1.392,0.915c-9.415-6.351-14.609-15.406-16.862-26.342
			c-0.365-2.97-0.73-5.939-1.094-8.909c-0.178,0.021-0.355,0.043-0.533,0.064c0,2.957,0,5.914,0,8.87
			c-0.559,3.362,0.445,6.609,0.702,9.912c0.348,4.492-0.735,5.212-4.732,3.007c-2.166-1.195-4.307-2.61-6.063-4.33
			c-2.467-2.417-4.565-5.21-7.036-8.093c-0.638,4.571,0.462,8.451,1.085,12.378c0.238,0.724,0.477,1.448,0.715,2.172
			c0,1.117,0,2.235,0,3.861c-2.1-1.59-3.772-2.856-5.445-4.122c-0.21-0.834-0.409-1.676-1.337-2.039
			c-1.578-3.259-3.249-6.478-4.699-9.793c-0.82-1.875-1.679-1.952-3.379-1.009c-7.355,4.08-8.514,6.316-7.086,14.447
			c0.256,1.46,0.567,2.91,0.853,4.365c-3.456-0.147-6.197,0.79-7.396,4.474c-2.127,6.538,3.295,20.572,11.696,20.597
			c1.206,0.908,1.275,2.404,1.423,3.613c0.82,6.688,4.332,11.693,9.27,15.98c2.871,2.492,5.539,5.218,8.298,7.838
			c-0.033,1.912-0.065,3.823-0.098,5.735c-1.838,6.598-4.624,12.669-9.913,17.266C93.27,155.705,90.109,157.187,86.245,155.973z
			 M101.528,55.351c0.131-0.298,0.344-0.565,0.334-0.825c-0.009-0.262-0.239-0.516-0.372-0.774
			c-0.123,0.263-0.344,0.528-0.341,0.789C101.152,54.802,101.381,55.059,101.528,55.351z"/>
		<path style="fill:#359AD4;" d="M185.927,162.208c11.076,2.032,10.218,2.119,11.312,12.831c1.141,11.177-2.74,18.519-11.717,24.834
			c-9.315,6.554-17.713,14.411-26.511,21.696c-2.701-2.696-5.408-5.385-8.104-8.085c-1.401-1.403-2.667-2.762-5.016-2.693
			c-6.961,0.205-13.929,0.181-20.895,0.246l0.096-0.403c0.259-0.415,0.518-0.831,0.779-1.247c1.419-1.157,2.817-2.338,4.256-3.466
			C148.724,191.347,167.326,176.778,185.927,162.208z"/>
		<path style="fill:#0671B3;" d="M125.87,209.39c-0.259,0.415-0.518,0.831-0.778,1.246c-6.615,0.069-13.23,0.13-19.845,0.212
			c-2.846,0.036-12.658,7.281-13.236,9.934c-0.138,0.635,0.602,1.462,0.938,2.201c-11.782-10.031-23.544-20.086-35.372-30.062
			c-1.504-1.269-1.601-2.739-1.592-4.435c0.032-5.997,0.378-12.024-0.104-17.982c-0.384-4.757,1.073-7.181,5.881-7.437
			c0.993-0.053,1.977-0.279,2.966-0.424c13.86,10.855,27.682,21.759,41.598,32.541c6.131,4.75,11.915,9.98,18.692,13.863
			C125.26,209.266,125.544,209.38,125.87,209.39z"/>
		<path style="fill:#F69D75;" d="M145.832,133.935c0.513,2.253,1.003,4.512,1.543,6.759c2.663,11.083,9.812,16.685,21.093,17.222
			c0.211,0.26,0.42,0.521,0.628,0.782c-0.584,0.778-1.041,1.709-1.77,2.309c-8.349,6.873-16.658,13.799-25.147,20.497
			c-5.711,4.506-10.683,9.974-17.241,13.388c-0.009-15.841-0.017-31.681-0.026-47.523c6.094,0.114,10.698-2.691,14.578-7.175
			C141.427,137.955,143.707,136.012,145.832,133.935z"/>
		<path style="fill:#F7BE9A;" d="M124.912,147.37c0.009,15.841,0.017,31.681,0.026,47.522l0.145,0.37
			c-2.754-2.129-5.604-4.147-8.247-6.405c-11.839-10.116-24.416-19.349-35.858-29.939c1.429-1.565,4.076-0.953,5.266-2.945
			c3.864,1.216,7.026-0.267,9.841-2.714c5.289-4.597,8.075-10.668,9.913-17.266c1.374,1.148,2.77,2.271,4.116,3.45
			C114.437,143.23,118.706,147.104,124.912,147.37z"/>
		<path style="fill:#D4232A;" d="M124.938,194.891c6.558-3.414,11.53-8.882,17.241-13.388c8.488-6.698,16.798-13.623,25.147-20.497
			c0.729-0.6,1.186-1.532,1.77-2.309c5.802,0.251,11.281,2.048,16.83,3.51c-18.6,14.57-37.203,29.138-55.799,43.714
			c-1.439,1.128-2.837,2.309-4.256,3.466c-0.327-0.009-0.611-0.123-0.854-0.341c0.021-4.596,0.043-9.191,0.065-13.787
			L124.938,194.891z"/>
		<path style="fill:#E82329;" d="M125.083,195.261c-0.022,4.596-0.043,9.191-0.065,13.787c-6.777-3.883-12.561-9.113-18.692-13.863
			c-13.916-10.782-27.737-21.686-41.598-32.541c5.318-1.673,10.628-3.38,16.25-3.726c11.442,10.59,24.018,19.823,35.857,29.939
			C119.479,191.114,122.328,193.132,125.083,195.261z"/>
		<path style="fill:#EB2125;" d="M92.949,222.983c-0.336-0.739-1.077-1.566-0.938-2.201c0.578-2.653,10.391-9.899,13.236-9.934
			c6.615-0.083,13.23-0.143,19.845-0.212c0,0-0.095,0.403-0.096,0.403c0.003,1.634,0.006,3.268,0.008,4.902
			c-2.628,0.251-5.248,0.46-7.649,1.776c-1.519,0.832-3.051,1.798-2.936,3.626c0.133,2.109,1.991,2.959,3.795,3.377
			c2.232,0.518,4.525,0.768,6.792,1.134c-0.001,2.696-0.002,5.391-0.004,8.087c-4.871,0.646-9.731-0.025-14.805,0.263
			c4.573,2.847,10.29,2.876,14.811,5.746c-0.002,1.279-0.004,2.558-0.007,3.837c-1.969,0.921-4.074-1.954-5.999,0.214
			c-0.628-0.013-1.256-0.026-1.883-0.039C108.79,237.283,100.72,230.305,92.949,222.983z M103.395,217.271
			c-1.982,2.097-6.826,3.515-1.707,7.928c0.383-2.925,1.399-4.959,2.562-6.934c0.854-0.455,2.371-1.269,1.908-1.823
			C105.325,215.446,104.041,215.985,103.395,217.271z"/>
		<path style="fill:#D62529;" d="M125.003,243.786c0.002-1.279,0.004-2.558,0.006-3.836c2.763-0.231,5.584,0.266,8.289-0.763
			c0.952-0.362,2.101-0.675,2.197-1.708c0.128-1.376-1.157-1.973-2.259-2.196c-2.723-0.552-5.486-0.908-8.233-1.343
			c0.001-2.696,0.002-5.391,0.004-8.086c5.412-0.344,11.62-3.138,16.014,0.285c4.534,3.532,5.739,0.592,7.953-1.7
			c3.389-3.508,3.351-3.602-1.253-5.811c-0.929,4.306-6.127,6.309-8.9,3.08c-3.762-4.38-8.694-5.105-13.817-5.768
			c-0.003-1.634-0.006-3.268-0.008-4.902c6.965-0.065,13.934-0.041,20.895-0.246c2.349-0.069,3.615,1.29,5.016,2.693
			c2.696,2.7,5.402,5.389,8.104,8.085c-8.587,7.338-17.172,14.674-25.758,22.008c-0.497,0.424-0.991,0.896-1.714,0.42
			c-0.258-0.08-0.513-0.159-0.769-0.239c0.238,0.093,0.477,0.186,0.715,0.28c-0.117,0.372-0.234,0.744-0.35,1.116
			c-0.573-0.04-1.146-0.079-1.72-0.119C128.392,243.036,126.398,244.468,125.003,243.786z"/>
		<path style="fill:#FCE402;" d="M125.003,243.786c1.395,0.682,3.389-0.75,4.412,1.248c-0.121,0.356-0.242,0.713-0.363,1.07
			c0,0,0.026-0.043,0.026-0.043c-1.087,0.21-1.265,0.674-0.398,1.429c-0.409,0.277-0.818,0.554-1.218,0.824
			c-1.189,0.248-2.386,0.503-3.584,0.759c0,0,0.118,0.027,0.118,0.027c-0.4-0.892-0.919-1.564-2.048-1.104
			c0,0,0.069,0.054,0.069,0.054c0.196-0.918-0.145-1.286-1.076-1.046c0,0,0.043,0.052,0.043,0.052
			c0.564-1.812-0.961-2.269-1.98-3.055C120.929,241.833,123.034,244.707,125.003,243.786z"/>
		<path style="fill:#E82329;" d="M119.004,244.001c1.02,0.785,2.544,1.243,1.98,3.055c-1.715-0.499-2.791-1.793-3.864-3.094
			C117.748,243.974,118.376,243.987,119.004,244.001z"/>
		<path style="fill:#BA583E;" d="M129.052,246.104c0.121-0.357,0.242-0.714,0.363-1.07c0.573,0.041,1.147,0.08,1.72,0.12
			C130.588,245.797,130.251,246.896,129.052,246.104z"/>
		<path style="fill:#E82329;" d="M121.947,247.995c1.129-0.46,1.648,0.211,2.048,1.104
			C122.722,249.828,122.442,248.713,121.947,247.995z"/>
		<path style="fill:#BA583E;" d="M128.679,247.489c-0.867-0.755-0.688-1.218,0.398-1.429
			C128.945,246.537,128.812,247.013,128.679,247.489z"/>
		<path style="fill:#E82329;" d="M120.941,247.004c0.931-0.24,1.271,0.128,1.076,1.046
			C121.368,247.999,120.979,247.682,120.941,247.004z"/>
		<path style="fill:#F6BE9A;" d="M98.452,71.784c1.673,1.266,3.345,2.533,5.445,4.122c0-1.626,0-2.744,0.001-3.861
			c3.823,0.403,5.985,4.229,9.839,4.667c-2.436-3.96-5.917-6.277-10.555-6.839c-0.623-3.927-1.723-7.807-1.085-12.378
			c2.471,2.883,4.569,5.676,7.036,8.093c1.756,1.72,3.897,3.135,6.063,4.33c3.997,2.205,5.08,1.485,4.732-3.007
			c-0.256-3.303-1.26-6.55-0.703-9.911c0.542-0.008,1.086-0.017,1.629-0.026c2.254,10.936,7.447,19.99,16.864,26.338
			c-0.736,1.25-2.617,1.88-2.089,3.824c-0.427,0.872-0.287,1.452,0.661,1.961c5.673,3.04,11.279,2.347,16.179-2.073
			c0.807,0.04,1.655,0.136,1.521-1.112l-0.1,0.078c3.594-0.767,4.145-3.731,5.153-6.893c-6.823,1.701-13.79-0.148-19.933,3.303
			c-0.417-1.99-1.408-3.878-1.062-6.003c5.762-3.56,11.65-5.7,18.087-1.594c0.547,0.307,1.023,0.445,1.051-0.455
			c-6.187-5.614-12.582-4.296-19.05-0.574c-0.99-9.226,3.086-16.667,8.314-23.722c1.72-2.321,3.08-2.064,5.142-0.141
			c4.467,4.166,9.038,8.28,13.967,11.866c3.044,2.215,4.012,4.261,2.831,7.853c-0.861,2.617-0.909,5.502-1.32,8.268
			c-2.034,8.266-4.287,16.487-5.121,24.999c-0.984,11.665-10.823,17.481-16.991,25.726c-2.214,2.217-4.461,4.399-6.637,6.651
			c-7.027,7.274-15.806,8.053-23.931,1.942c-2.879-2.166-5.534-4.629-8.292-6.957c-2.759-2.621-5.428-5.346-8.298-7.838
			c-4.938-4.287-8.451-9.292-9.27-15.98c-0.148-1.209-0.217-2.705-1.424-3.612c-0.357-8.541-3.293-16.641-4.299-25.072
			c-0.286-1.455-0.596-2.905-0.853-4.365c-1.428-8.131-0.269-10.366,7.086-14.447c1.7-0.943,2.558-0.866,3.379,1.009
			c1.45,3.315,3.121,6.534,4.698,9.793c-0.393,0.307-0.785,0.614-1.177,0.92c-1.13,0.383-2.357,0.646-2.951,2.432
			c1.622-0.475,2.854-0.837,4.087-1.198C97.532,71.861,97.992,71.823,98.452,71.784z M112.981,86.065
			c-0.026-0.673-0.339-1.045-1.048-1.004c0,0,0.016,0.02,0.016,0.019c0.027-1.215-0.839-1.66-1.769-2.051
			c-6.252-4.877-13.79-2.245-20.943-3.996c0.998,3.197,2.007,5.727,4.863,6.955c0,0-0.088-0.087-0.087-0.087
			c0.011,0.694,0.425,1.025,1.051,1.164c0.323,0.971,1.145,0.924,1.933,0.946c5.597,3.182,11.096,3.201,16.477-0.516
			c0.332-0.681,0.472-1.293-0.539-1.486L112.981,86.065z M124.967,127.981c6.117,1.181,8.062-4.667,12.014-7.133
			c1.349-0.74,2.779-1.731-0.02-2.15c-8.732-1.307-17.453-1.233-26.238,0.866C115.649,122.267,117.788,129.358,124.967,127.981z
			 M129.993,107.991c-4.012,1.269-5.557,0.071-5.103-4.337c0.423-4.099-0.055-8.283,0.135-12.418
			c0.159-3.47-0.292-5.472-4.704-5.404c-4.256,0.066-4.481,2.13-4.313,5.282c0.14,2.644,0.025,5.301,0.03,7.953
			c0.003,1.657-0.299,3.393,0.089,4.956c1.071,4.318,4.66,7.135,8.025,8.953c2.105,1.138,4.138-2.875,5.858-4.97
			c0.115-0.052,0.247-0.084,0.338-0.164c0.056-0.049,0.049-0.17,0.071-0.259C130.276,107.72,130.134,107.855,129.993,107.991z
			 M158.437,75.207c-0.123,0.094-0.246,0.189-0.37,0.283c0.105,0.114,0.203,0.31,0.317,0.32c0.114,0.01,0.245-0.166,0.368-0.26
			C158.647,75.435,158.542,75.321,158.437,75.207z M91.588,73.204c-0.12,0.101-0.239,0.202-0.359,0.303
			c0.114,0.108,0.225,0.297,0.341,0.3c0.117,0.003,0.238-0.179,0.358-0.28C91.815,73.419,91.701,73.311,91.588,73.204z"/>
		<path style="fill:#BA583E;" d="M106.095,130.258c2.757,2.328,5.412,4.792,8.292,6.957c8.125,6.111,16.905,5.332,23.931-1.942
			c2.175-2.252,4.422-4.434,6.637-6.651c1.229,1.614,0.927,3.485,0.879,5.313c-2.126,2.076-4.406,4.019-6.343,6.258
			c-3.88,4.484-8.484,7.288-14.578,7.175c-6.206-0.264-10.475-4.138-14.798-7.925c-1.346-1.18-2.743-2.302-4.116-3.45
			C106.03,134.081,106.062,132.169,106.095,130.258z"/>
		<path style="fill:#F69D75;" d="M161.946,102.897c0.834-8.511,3.087-16.732,5.121-24.999c4.941-0.721,6.806,2.013,7.54,6.402
			C175.919,92.147,169.41,101.837,161.946,102.897z"/>
		<path style="fill:#F69D75;" d="M82.804,77.755c1.006,8.431,3.942,16.531,4.299,25.072c-8.4-0.025-13.822-14.059-11.695-20.598
			C76.606,78.545,79.348,77.607,82.804,77.755z"/>
		<path style="fill:#4D3424;" d="M135.627,87.136c-0.527-1.945,1.353-2.574,2.089-3.824c0.462-0.302,0.926-0.607,1.39-0.912
			c6.144-3.451,13.111-1.602,19.933-3.303c-1.008,3.161-1.559,6.126-5.153,6.893c-0.883-5.759-5.229-1.995-7.888-2.869
			c-2.405-0.316-4.55,0.447-6.601,1.596C137.926,85.188,136.665,85.988,135.627,87.136z"/>
		<path style="fill:#4D3424;" d="M156.134,74.805c-6.438-4.107-12.326-1.967-18.088,1.593c0.03-0.874,0.06-1.749,0.089-2.624
			c6.467-3.722,12.862-5.04,19.049,0.575C156.833,74.5,156.484,74.652,156.134,74.805z"/>
		<path style="fill:#4D3424;" d="M103.182,69.874c4.638,0.562,8.119,2.879,10.555,6.839c-3.854-0.438-6.016-4.264-9.839-4.667
			C103.658,71.321,103.42,70.597,103.182,69.874z"/>
		<path style="fill:#F69D75;" d="M120.853,56.974c-0.543,0.009-1.087,0.018-1.629,0.026c0.001-2.957,0.001-5.914,0.001-8.871
			c0.178-0.021,0.355-0.043,0.533-0.064C120.123,51.034,120.488,54.004,120.853,56.974z"/>
		<path style="fill:#BA583E;" d="M98.452,71.784c-0.46,0.039-0.919,0.077-1.381,0.116c-0.379-0.411-0.757-0.823-1.135-1.235
			c0.392-0.307,0.784-0.613,1.177-0.92C98.043,70.108,98.241,70.95,98.452,71.784z"/>
		<path style="fill:#F69D75;" d="M101.528,55.351c-0.147-0.292-0.376-0.549-0.379-0.809c-0.003-0.262,0.218-0.526,0.341-0.789
			c0.133,0.258,0.363,0.512,0.372,0.774C101.872,54.786,101.659,55.053,101.528,55.351z"/>
		<path style="fill:#FCE402;" d="M125.005,215.94c5.123,0.663,10.055,1.388,13.817,5.768c2.773,3.229,7.971,1.225,8.9-3.08
			c4.604,2.209,4.641,2.303,1.253,5.811c-2.215,2.292-3.419,5.233-7.953,1.7c-4.394-3.423-10.603-0.629-16.014-0.285
			c-2.267-0.366-4.561-0.617-6.792-1.135c-1.803-0.419-3.662-1.268-3.795-3.377c-0.115-1.828,1.417-2.793,2.936-3.626
			C119.757,216.401,122.377,216.191,125.005,215.94z"/>
		<path style="fill:#FCE402;" d="M125.003,233.94c2.747,0.435,5.51,0.791,8.233,1.343c1.101,0.223,2.386,0.82,2.259,2.196
			c-0.096,1.033-1.245,1.346-2.197,1.708c-2.705,1.029-5.526,0.532-8.289,0.763c-4.521-2.87-10.238-2.9-14.811-5.746
			C115.273,233.915,120.132,234.586,125.003,233.94z"/>
		<path style="fill:#FCE402;" d="M104.25,218.265c-1.163,1.974-2.18,4.008-2.563,6.933c-5.119-4.413-0.275-5.831,1.707-7.928
			C103.68,217.602,103.965,217.934,104.25,218.265z"/>
		<path style="fill:#FCE402;" d="M103.395,217.271c0.647-1.286,1.931-1.825,2.763-0.829c0.463,0.554-1.054,1.368-1.908,1.823
			C103.965,217.934,103.68,217.602,103.395,217.271z"/>
		<path style="fill:#BA583E;" d="M131.484,244.039c-0.238-0.093-0.477-0.186-0.715-0.28c0.256,0.08,0.511,0.16,0.769,0.239
			C131.54,243.998,131.484,244.039,131.484,244.039z"/>
		<path style="fill:#F69D75;" d="M130.009,108.007c-1.72,2.095-3.753,6.107-5.858,4.969c-3.365-1.818-6.954-4.635-8.025-8.953
			c-0.388-1.563-0.086-3.299-0.089-4.956c-0.005-2.651,0.11-5.309-0.03-7.953c-0.167-3.152,0.057-5.217,4.313-5.282
			c4.412-0.068,4.863,1.934,4.704,5.404c-0.189,4.134,0.288,8.318-0.135,12.418c-0.455,4.408,1.09,5.606,5.103,4.337
			L130.009,108.007z"/>
		<path style="fill:#B72226;" d="M124.967,127.981c-7.178,1.378-9.318-5.714-14.243-8.417c8.785-2.099,17.506-2.173,26.238-0.866
			c2.799,0.419,1.368,1.41,0.019,2.151C128.739,118.691,124.977,120.924,124.967,127.981z"/>
		<path style="fill:#FEFEFE;" d="M135.627,87.136c1.038-1.148,2.299-1.948,3.766-2.417c0.757,2.144,1.793,4.016,4.54,3.244
			c2.579-0.724,2.16-2.89,2.065-4.842c2.659,0.874,7.005-2.89,7.888,2.869c0,0,0.1-0.078,0.1-0.078
			c-0.507,0.371-1.014,0.741-1.521,1.112c-4.9,4.42-10.505,5.113-16.179,2.073C135.34,88.589,135.2,88.008,135.627,87.136z"/>
		<path style="fill:#FEFEFE;" d="M113.472,87.496c-5.381,3.717-10.879,3.698-16.477,0.516c-0.592-0.619-1.185-1.239-1.777-1.858
			c-0.294-0.6-0.696-0.684-1.206-0.252c0,0,0.088,0.087,0.088,0.087c0.593-1.261-0.214-3.539,2.615-3.138
			c1.867,0.265,3.806,0.022,5.712,0.007c-0.543,2.112-0.293,4.073,1.96,4.88c2.736,0.981,3.589-1.466,4.809-3.113
			c0.927,0.099,1.645,1.457,2.753,0.455c0,0-0.016-0.02-0.016-0.019c-0.477,1.198,0.261,1.127,1.048,1.003
			c0,0-0.049-0.055-0.049-0.055C113.112,86.506,113.292,87.001,113.472,87.496z"/>
		<path style="fill:#4D3424;" d="M102.427,82.859c-1.907,0.015-3.846,0.258-5.712-0.007c-2.829-0.401-2.022,1.877-2.615,3.138
			c-2.856-1.228-3.865-3.758-4.863-6.955c7.153,1.75,14.691-0.881,20.941,3.995c-0.37,0.324-0.738,0.65-1.106,0.975
			C106.89,83.43,104.743,82.652,102.427,82.859z"/>
		<path style="fill:#8A1C22;" d="M124.967,127.981c0.01-7.057,3.772-9.29,12.014-7.132
			C133.029,123.313,131.084,129.161,124.967,127.981z"/>
		<path style="fill:#4D3424;" d="M95.937,70.666c0.378,0.412,0.755,0.823,1.135,1.235c-1.231,0.361-2.463,0.722-4.085,1.197
			C93.579,71.311,94.806,71.048,95.937,70.666z"/>
		<path style="fill:#BA583E;" d="M109.071,84.004c0.368-0.325,0.736-0.651,1.106-0.975c0.931,0.391,1.798,0.836,1.771,2.052
			c-1.108,1.001-1.827-0.357-2.754-0.456C109.133,84.422,109.093,84.215,109.071,84.004z"/>
		<path style="fill:#BA583E;" d="M95.218,86.154c0.592,0.619,1.185,1.239,1.777,1.858c-0.788-0.022-1.61,0.025-1.934-0.947
			C95.016,86.745,95.068,86.441,95.218,86.154z"/>
		<path style="fill:#BA583E;" d="M113.472,87.496c-0.18-0.495-0.36-0.99-0.539-1.486C113.944,86.204,113.804,86.815,113.472,87.496z
			"/>
		<path style="fill:#F69D75;" d="M129.993,107.991c0.142-0.135,0.283-0.271,0.425-0.406c-0.021,0.089-0.015,0.21-0.071,0.259
			c-0.091,0.079-0.223,0.112-0.338,0.164C130.009,108.007,129.993,107.991,129.993,107.991z"/>
		<path style="fill:#4D3424;" d="M95.218,86.154c-0.15,0.287-0.202,0.591-0.156,0.911c-0.625-0.139-1.039-0.469-1.05-1.163
			C94.522,85.47,94.924,85.554,95.218,86.154z"/>
		<path style="fill:#BA583E;" d="M112.981,86.065c-0.788,0.124-1.525,0.194-1.048-1.003
			C112.642,85.02,112.955,85.393,112.981,86.065z"/>
		<path style="fill:#BA583E;" d="M158.437,75.207c0.105,0.114,0.21,0.229,0.315,0.343c-0.123,0.094-0.254,0.27-0.368,0.26
			c-0.114-0.01-0.212-0.206-0.317-0.32C158.19,75.395,158.314,75.301,158.437,75.207z"/>
		<path style="fill:#BA583E;" d="M157.183,74.348c-0.028,0.9-0.504,0.762-1.051,0.455C156.484,74.652,156.833,74.5,157.183,74.348z"
			/>
		<path style="fill:#BA583E;" d="M91.588,73.204c0.114,0.108,0.227,0.215,0.341,0.323c-0.12,0.101-0.241,0.284-0.358,0.28
			c-0.117-0.003-0.228-0.193-0.341-0.3C91.349,73.406,91.468,73.305,91.588,73.204z"/>
		<path style="fill:#4D3424;" d="M152.467,87.024c0.507-0.371,1.014-0.741,1.521-1.112C154.122,87.16,153.274,87.064,152.467,87.024
			z"/>
		<path style="fill:#359AD4;" d="M145.999,83.121c0.095,1.953,0.514,4.118-2.065,4.842c-2.747,0.771-3.783-1.1-4.54-3.244
			C141.449,83.568,143.594,82.805,145.999,83.121z"/>
		<path style="fill:#359AD4;" d="M109.071,84.004c0.021,0.211,0.062,0.417,0.123,0.621c-1.219,1.647-2.072,4.094-4.808,3.113
			c-2.253-0.808-2.504-2.768-1.96-4.88C104.743,82.652,106.89,83.43,109.071,84.004z"/>
	</g>
</g>
</svg>
