<?xml version="1.0" encoding="utf-8"?>
<!-- Generator: Adobe Illustrator 23.0.3, SVG Export Plug-In . SVG Version: 6.00 Build 0)  -->
<svg version="1.1"
	 id="svg2962" inkscape:version="0.47 r22583" sodipodi:docname="New document 1" xmlns:cc="http://creativecommons.org/ns#" xmlns:dc="http://purl.org/dc/elements/1.1/" xmlns:inkscape="http://www.inkscape.org/namespaces/inkscape" xmlns:rdf="http://www.w3.org/1999/02/22-rdf-syntax-ns#" xmlns:sodipodi="http://sodipodi.sourceforge.net/DTD/sodipodi-0.dtd" xmlns:svg="http://www.w3.org/2000/svg"
	 xmlns="http://www.w3.org/2000/svg" xmlns:xlink="http://www.w3.org/1999/xlink" x="0px" y="0px" viewBox="0 0 450.5 449.7"
	 style="enable-background:new 0 0 450.5 449.7;" xml:space="preserve">
<style type="text/css">
	.st0{fill:#593B0C;stroke:#000000;stroke-width:3.2922;}
	.st1{fill:#EAE4B5;stroke:#000000;stroke-width:4.9383;}
	.st2{fill:none;stroke:#000000;stroke-width:4.9383;}
	.st3{fill:none;stroke:#000000;stroke-width:3.2922;}
	.st4{fill:none;stroke:#000000;stroke-width:1.6461;}
	.st5{fill:none;stroke:#000000;stroke-width:8.2824;}
</style>
<defs>
	
	
		<inkscape:perspective  id="perspective2970" inkscape:persp3d-origin="372.04724 : 350.78739 : 1" inkscape:vp_x="0 : 526.18109 : 1" inkscape:vp_y="0 : 1000 : 0" inkscape:vp_z="744.09448 : 526.18109 : 1" sodipodi:type="inkscape:persp3d">
		</inkscape:perspective>
	
		<inkscape:perspective  id="perspective2980" inkscape:persp3d-origin="0.5 : 0.33333333 : 1" inkscape:vp_x="0 : 0.5 : 1" inkscape:vp_y="0 : 1000 : 0" inkscape:vp_z="1 : 0.5 : 1" sodipodi:type="inkscape:persp3d">
		</inkscape:perspective>
</defs>
<sodipodi:namedview  bordercolor="#666666" borderopacity="1.0" id="base" inkscape:current-layer="layer1" inkscape:cx="320.27421" inkscape:cy="277.0471" inkscape:document-units="px" inkscape:pageopacity="0.0" inkscape:pageshadow="2" inkscape:window-height="988" inkscape:window-maximized="1" inkscape:window-width="1680" inkscape:window-x="-8" inkscape:window-y="-8" inkscape:zoom="1" pagecolor="#ffffff" showgrid="false">
	</sodipodi:namedview>
<g id="layer1" transform="translate(-54.725785,-412.80103)" inkscape:groupmode="layer" inkscape:label="Layer 1">
	<path id="path4051" class="st0" d="M505.2,638c0,124.4-100.8,225.2-225.2,225.2S54.7,762.4,54.7,638
		c0-124.4,100.8-225.2,225.2-225.2S505.2,513.6,505.2,638z"/>
	<path id="path4047" class="st1" d="M471,638c0,105.5-85.5,191-191,191s-191-85.5-191-191c0-105.5,85.5-191,191-191
		C385.4,446.9,471,532.5,471,638z"/>
	<path id="path3975" class="st2" d="M172.2,561.8l-65.3-7.1"/>
	<path id="path3977" class="st2" d="M158.9,584.8l-38.8-53"/>
	<path id="path3979" class="st2" d="M165.4,791.6l32-51.4"/>
	<path id="path3981" class="st2" d="M175.4,799l32-51.4"/>
	<path id="path3983" class="st2" d="M223,757.9l-18,58.2"/>
	<path id="path3985" class="st2" d="M222.9,757.8l-40.7,45.4"/>
	<path id="path3987" class="st2" d="M104.1,710.2L156,679"/>
	<path id="path3989" class="st2" d="M108.2,722.1l51.9-31.1"/>
	<path id="path3991" class="st2" d="M113.7,733.3l51.9-31.1"/>
	<path id="path3993" class="st2" d="M175.5,717.8l-43.4,44.4"/>
	<path id="path3995" class="st2" d="M174.8,718.4l-57,21.8"/>
	<path id="path3997" class="st2" d="M200.6,462.4l30.3,52.4"/>
	<path id="path3999" class="st2" d="M199.3,532.6l-7.1-65.3"/>
	<path id="path4001" class="st2" d="M222.3,519.3l-53-38.8"/>
	<path id="path4003" class="st2" d="M88.6,656.6h60.6"/>
	<path id="path4005" class="st2" d="M148.6,620.3l-60.1,26.5"/>
	<path id="path4007" class="st2" d="M148.6,646.9l-60.1-26.5"/>
	<path id="path4009" class="st2" d="M453,722.5l-52.8-29.6"/>
	<path id="path4011" class="st2" d="M391.4,709.4l44.3,42.7"/>
	<path id="path4013" class="st2" d="M391.5,709.3l57.6,20.1"/>
	<path id="path4015" class="st2" d="M346.6,752.5l40.7,45.9"/>
	<path id="path4017" class="st2" d="M346.4,752.5l17.6,58.4"/>
	<path id="path4019" class="st2" d="M262.9,829.2V770"/>
	<path id="path4021" class="st2" d="M281.5,770l15.8,60.1"/>
	<path id="path4023" class="st2" d="M281.5,770.5l-10.6,60.1"/>
	<path id="path4025" class="st2" d="M391.5,570l51.3-32.1L391.5,570z"/>
	<path id="path4027" class="st2" d="M398.1,580.5l51.3-32.1L398.1,580.5z"/>
	<path id="path4029" class="st2" d="M345.8,526.1l30-52.6L345.8,526.1z"/>
	<path id="path4031" class="st2" d="M410.6,626.6h60.6H410.6L410.6,626.6z"/>
	<path id="path4033" class="st2" d="M411.3,639.1h60.5H411.3z"/>
	<path id="path4035" class="st2" d="M411.3,651.5h59.9H411.3z"/>
	<path id="path4037" class="st2" d="M303.4,446.4V507"/>
	<path id="path4039" class="st2" d="M291,446.4V507"/>
	<path id="path4041" sodipodi:nodetypes="cc" class="st2" d="M283,506.5l-26.4-59.7"/>
	<path id="path4043" sodipodi:nodetypes="cc" class="st2" d="M256.3,507.2l26.8-60.8"/>
	<path id="path4045" class="st2" d="M411.9,638c0,72.8-59.1,131.9-131.9,131.9c-72.8,0-131.9-59.1-131.9-131.9
		c0-72.8,59.1-131.9,131.9-131.9C352.8,506.1,411.9,565.1,411.9,638z"/>
	<path id="path4053_1_" class="st3" d="M46.1,638"/>
	<path id="path4053_2_" class="st3" d="M280,871.9"/>
	<path id="path4055_5_" class="st4" d="M520.2,638L520.2,638"/>
	<path id="path4055_3_" class="st4" d="M280,397.7"/>
	<path id="path4055_1_" class="st4" d="M39.7,638"/>
	<path id="path4055_2_" class="st4" d="M280,878.2"/>
	<path id="path4059_5_" class="st5" d="M538.2,638"/>
	<path id="path4059_3_" class="st5" d="M280,379.7"/>
	<path id="path4059_1_" class="st5" d="M21.7,638"/>
	<path id="path4059_2_" class="st5" d="M280,896.2"/>
</g>
</svg>
