<?xml version="1.0" encoding="utf-8"?>
<!-- Generator: Adobe Illustrator 23.0.3, SVG Export Plug-In . SVG Version: 6.00 Build 0)  -->
<svg version="1.1" id="Layer_1" xmlns="http://www.w3.org/2000/svg" xmlns:xlink="http://www.w3.org/1999/xlink" x="0px" y="0px"
	 viewBox="0 0 1280 1280" style="enable-background:new 0 0 1280 1280;" xml:space="preserve">
<style type="text/css">
	.st0{fill:#FFFFFF;}
	.st1{font-family:'Superclarendon-Regular';}
	.st2{font-size:768px;}
</style>
<g transform="translate(0.000000,1235.000000) scale(0.100000,-0.100000)">
	<path d="M5738.5,11860c-914-76-1597-482-2113-1257c-326-490-591-1200-752-2018c-78-395-116-665-210-1470c-46-396-66-504-121-642
		c-214-544-865-853-1859-881l-230-7l128-68c466-250,917-372,1250-339c226,22,431,99,617,232c48,34,68,45,45,25c-22-20-84-65-138-102
		c-309-205-671-292-1106-263c-86,6-170,13-188,16l-32,6l20-73c79-292,174-480,319-633c198-208,461-296,884-296h146l-7-32
		c-29-162-101-262-220-309c-53-21-78-23-275-27c-120-2-218-6-218-9c0-12,168-198,242-268c202-190,374-295,802-491l159-72l-69-21
		c-38-11-362-106-721-210c-600-175-659-194-745-242c-465-258-761-631-1008-1269c-26-69-80-224-120-345c-39-121-105-321-146-444
		l-75-224l28-27c324-313,485-436,680-520l72-30h5601h5601l77,26c141,47,258,122,525,336c84,68,168,135,186,149l35,25l-169,385
		c-389,887-549,1185-815,1519c-69,87-233,253-305,311c-105,84-269,179-377,218c-29,11-457,126-950,257l-898,237l83,86
		c438,456,714,1087,831,1901c49,338,70,929,47,1345c-34,621-142,1396-286,2040c-167,751-426,1387-773,1905
		c-446,663-1034,1121-1757,1367c-260,89-565,154-880,189C6388.5,11864,5889.5,11872,5738.5,11860z"/>
</g>
<text transform="matrix(1 0 0 1 408.85 821)" class="st0 st1 st2">?</text>
</svg>
